<?xml version="1.0" encoding="utf-8"?>
<!-- Generator: Adobe Illustrator 23.0.1, SVG Export Plug-In . SVG Version: 6.00 Build 0)  -->
<svg version="1.2" baseProfile="tiny" id="Layer_1" xmlns="http://www.w3.org/2000/svg" xmlns:xlink="http://www.w3.org/1999/xlink"
	 x="0px" y="0px" viewBox="0 0 900 600" xml:space="preserve">
<g>
	<path d="M375.15,551.58c-2.82-0.96,0.74-0.4-19.16-9.58c-23.86-11.01-14.66-21.43-25.69-28.25c-3.13-1.93-4.35,2.37-4.43,2.47
		c-4.38,6.21-9.97-83.8-17.06-92.61c-0.5-0.62-1.22-0.77-2.38-2.42c-5.97-8.48,5.37-6.16-1.66-20.87c-1.24-2.59-2.18-0.94,2.89-4.38
		c1.08-0.73,1.89-1.39,1.43-2.63c0-4.79-16.25,14.14-67.89,15.59c-7.75,0.22-8.33,3.97-10.47-9.47c-0.63-3.97-0.77-7.44-1.14-8.93
		c-0.64-2.61-1.9-2.29-2.49-4.46c-0.17-0.61-0.06-0.09-2.3-15.13c1.53-1.24,2.34-0.9,0.98-7.07c-1.28-5.82-2.88-5.65-8.26-5.65
		c-7.93,16.68-6.8,25.86-10.73,27.99c-5.2,27.59-3.45,31.12-6.83,30.01c-1.72-0.57-3.47-0.5-5.22-0.64
		c-7.65-0.62-9.64-1.93-13.25-2.74c-2.55-0.57-3.93-2.12-6.3-4.58c-3.71-3.85-11.74-8.21-15.43-8.16
		c-4.03,0.05-25.03-4.96-24.27-9.35c4.39-25.16-0.24-6.81,4.48-23.5c1.35-1.38,1.51-4.08,1.52-4.55c0.65-0.63,0.67-8.96,0.67-9.77
		c0.02,0.02,0.06,0.04,0.07,0.05c0.04-0.25,0.22-0.51-0.09-0.1c-3.08-2.3,6.56-18.28,14.68-44.97c-2.23-0.36-6.02,17.18-11.32,27.67
		c0-4.83,7.02-24.29,8.33-32.94c0.74-4.89,6.28-15.27,7.52-23.21c2.65-0.88,1.19,0.02,7.03-12.68c7.14-1.36,14,5.13,49.39,5.13
		c2.76,6.7,2.48,4.91,2.13,9.45c-0.41,5.29,0.83,2.93,0.89,5.33c0.08,3.5,1.07,6.99,0.26,10.51c-0.08,0.35,0.04,0.73,0.07,1.15
		c1.81,0,1.34-4.52,1.18-13.56c-0.08-4.77-1.51-7.95-2.23-12.79c8.26,0.8,5.2-2.03,14.89,0.11c0.31,3.85,1.96,6.66,4.62,9.42
		c0.39,0.4,0.2-3.84-2.39-8.95c1.36-1.56,1.44-1.54,1.34-1.54c-1.09-0.24-7.36-0.68-11.91-1.01c0.67-0.07,1.45-0.25,2.39-0.63
		c2.22-0.9,11.24,0.18,11.83-0.7c-0.01,0.08,0.01,0.19-0.03,0.22c-0.4,0.2-0.24-0.41-0.51,2.76c1.82,0.72,2.82,0.89,2.79,1.79
		c-0.44,11.67-3.12,4.94,3.71,17.89c0.05,0.1,0.41,0.03,0.64,0.04c0.75-1.72-4.34-6.47-2.88-12.81c1.51-6.55,1.4-5.18,4.48-5.23
		c5.34-0.08,6.43-1.04,7.77-1.13c2.34-0.16,0.63,1.57,3.42-1.48c-0.42,2.69,2.69,2.64,0.74,5.79c-2.15,0.48-3.47-2.14,2.2,7.17
		c-0.44-2.08-0.88-4.14-1.32-6.22c1.53,1.2,1.67,3.17,2.68,4.87c1.98,0,0.63-2.56,16.56,31.56c8.46,18.12,18.2,79.99,23.76,79.99
		c2.7-1.8-10.47-51.2-11.2-53.08c-0.04-0.1-1.99-19-23.9-58.08c-2.13-3.81-3.99-7.86-7.22-10.86c2.33-5.24-0.3-2.43-0.13-18.18
		c0.35-33,0.35-20.93-0.37-31.72c-0.14-2.07,3.7-12.12,5.61-15c1.9-2.87,1.88-27.2,2.74-29.35c2.45,1.93,2.8,2.36,4.02,4.55
		c4.94,8.87,6.15,9,12.08,19.17c3.05,5.23,23.44,15.4,25.67,15.66c3.04,0.36,5.01,1.63,7.32,3.07c3.9,2.44,4.89,0.02,5.81,0.17
		c3.22,0.36,2.06-3.87,5.07-9.67c5.19-10-2.51-21.09-3.04-28.63c-0.42-5.93-3-13.41-7.67-17.17c-5.33-4.28-9.61-9.62-14.34-14.21
		c-0.4-2.99-0.67-5.74-1.13-8.47c-4.26-25.24-17.12-26.68-20.25-28.3c-1.32-0.68-3.41-2.38-4.67-3.15
		c-3.27-2.01-11.85-2.68-18.29-7.8c-4.66-3.71-9.66-6.92-15.12-9.19c-6.87-2.86-5.32-5.52-3.35-6.32c1.85-0.75,4.82-0.2,6.1-5.17
		c2.46-9.55,2.9-5.63,4.04-13.26c0.58-3.86-0.35-6.79,1.59-11.13c1.23-2.76,0.65-10.56-1.87-11.93c-0.24,5.16,0.5,7.85-0.97,11.99
		c-0.95,2.69-0.33,9.76-1.19,13.12c-3.27,12.78-4.26,13.74-5.67,14.46c-15.2-0.47-12.1-2.22-16.05-1.56
		c0.72,0.62,1.13,1.29,1.57,1.33c2,0.2,8.48,2.66,8.5,2.66c1.45,12.76-0.47,10.81,0.54,13.2c1.7,0,1.18-5.74,2.69-6.53
		c7.35,3.51,5.42,1.22,7.9,10.38c-0.97,2.45,0.27,4.97-0.2,7.44c-1.65,8.52,1.39,6.27-16.81,9.73c-0.71,3.94-1.44,7.98-2.14,11.74
		c-1.48,1.15-3.28,0.23-4.7,1.66c2.53,0.33,3.38,0.37,3.64,0.36c-3.8,2.43-16.06-3.1-20.9-5.22c-12.79-5.6-13.44-9.34-17.34-25.82
		c-2.57-10.88,2.38-9.32,0.05-13.1c-4.48,5.68-3.29,9.1,1.05,26.24c2.14,8.45,14.22,16.18,18.02,16.39c2.97,0.17,5.85,2.1,8.7,3.24
		c13.59,5.44,11.93-4.1,8.35,12.66c-0.33,1.54-2.95,2.17-2.95,2.07c-0.81-5.59-0.83-5.87-0.83-5.72c-0.77,9.15,0.97,6.03-8.83,15.03
		c-13.34,12.25-18.17,11.28-30.02,15.71c-10.23,3.82-4.13,1.55-4.52-7.81c-0.41-9.85-1.6-12.07-0.17-15.3
		c0.85-1.91,1.67-6.72,2.36-7.92c9.64-16.68,5.01-36.4,2.79-52.76c16.66-6.35,10.32-5.38,16.45-8.04c1.09-2.17,2.26-4.5,3.33-6.61
		c0.31-13.31,0.07-13.66,1.18-15.5c0.96-1.58,1.29-5.71,1.19-5.71c-0.94-0.14-1.69-0.1-2.3-0.39c-0.72-0.34-1.22-1.76-1.01-2.05
		c0.9-0.3,1.7-0.55,2.44-0.79c0.4-1.83,0.15-3.6,1.11-5.62c1.52,0,0.84,14.62,6.46-5.38c1.49-5.28,3.46-4.65,5.21-10.36
		c1.78-5.78,5.82-1.08,4.49-4.32c0.94-0.57,2.47-0.49,2.7-1.75c-1.86-5.4-1.47-4.71-2.2-4.37c-2.15,1.02-3.16-0.74-3.58,0.09
		c0.86-2.58,3.2-2.16,4.04-0.36c0.3-0.2,1.66,0.11,2.26,0.71c0.96,0.96,1.45,4.45,2.53,0.37c2.49-0.73,4.88-1.49,7.41-0.55
		c0.1,0.04,2.82-0.48,3.68-0.24c5.98,1.62,7.91-0.87,9.57-0.42c2.27,18.36,4.4,9.35,2.56,15.52c-4.5,2.17-9.16,3.57-8.45,8.82
		c0.11,0.81,0.15,2.15,0.35,2.4c1.01,1.32,0.78,0.51,1.52-3.49c2.73,0.99,4.82-0.32,6.97-1.04c3.57-14.32,1.3-7.32,0.39-13.56
		c-0.49-3.36-0.95-6.72-1.41-10.02c1.77-3.51,6-4.15,8.19-7.22c-0.89-1.17-0.04-2.4-0.19-3.84c-5.71-0.44-4.99-0.52-5.18-0.08
		c0-1.14,4.77-1.96,3.23-4.05c-1.46-1.98-6.12,1.71-5.64,1.22c0.86-1.87-0.56-3.56-0.1-5.28c0.07-0.26,0.02-0.54-0.12-0.76
		c-1.66-2.58-2.49,1.97-5.13,2.79c0-3.42-8.17-0.1-11.41,0.89c-2.2-1.19,0.22-0.77-14.42-0.05c-4.54,7.03-2.62-1.89-5.31,0.79
		c-0.8,0.8-2.88,3.78-6.59,4.51c-5.71,1.12-2.07-1.83-8.19-2.16c-0.43-0.02-0.9,0.79-0.66,1.14c0.07,0.1,1.98,2.91,2.09,2.91
		c-0.56,0.69-1.45,1.29-1.4,1.81c0.28,3.22-3.37,3.79-2.12,5.8c0.18,0.28,0.26,0.61-0.11,1.11c-0.92,1.25-0.83,3.04-2.05,4.26
		c-0.69,0.69-0.06,4.38-1.99,7.96c-0.65,1.21-2.33,8.12,1.46,14.16c2.74,4.39-1.34,4.14,1.82,9.19c0.58,0.92,2.13,6.28,2.31,8.7
		c0.53,7.02,3.59,3.38,0.78,16.12c-1.58,7.16-15.23,5.97-30.18,17.07c-4.23,3.14-7.32,4.96-11.86,5.41
		c-6.32,0.63-14.04,4.45-17.41,10.64c-4.56,8.38-9.68,14.88-10.07,28.43c-0.14,4.92,1.19,16.03,4.62,20.73
		c2.24,3.06-1.77,19.06,2.3,28.91c4.89,11.82,3.71,8.68,7.74,14.67c3.55,5.29,4.39,9.41,5.97,12.11c2.6,4.42,5.63,4.94,7.2,6.84
		c7.12,8.59,6.89,0.08,6.92,7.6c0.04,13.31,0.85,13.95-0.22,17.75c1.84,1.93,1.79,4.26,2.47,6.95c-3.22,0.65-1.87,3.63-2.82,5.47
		c-1.9,0.83-1.88,0.82-1.76,2.61c0.23,3.53-4.5,4.88-6.85,18.38c-1.84,10.55-4.86,10.47-6.02,14.8
		c-5.94,22.11-9.6,21.05-17.24,68.34c-0.86,5.35,0.87,4.22,0.46,6.27c-0.82,4.06-0.28,8.29-1.74,12.3
		c-0.79,2.18-1.51,4.54-0.94,6.85c4.35,4.39,2.32-0.94,0.58,18.4c-0.87,9.66-0.37,9.3-2.07,11.7
		c-19.23,27.27-16.47,22.84-20.11,62.75c-0.19,2.13-1.21,5.57-1.35,6.99c-3.12,30.68-3.07,38.48-5.73,41.97c-2.78,0-3.82-0.4-4.69,2
		c-3.76,10.45,5.06,10.63-12.66,32.37c-6.46,7.93-7.37,21.36-5.96,23.49c1.55,2.35,22.24,5.87,24.99,5.34
		c21.24-4.11,15.19-10.78,17.5-14.72c7.69-0.7,11-2.64,14.32-8.3c-0.08-2.53-1.43-4.44-2.96-6.39c-7.27-9.28-3.57-21.31-5.06-24.53
		c-5.56-12.04-9.31,4.28,12.76-45.24c2.77-6.21,9.39-7.04,11.87-16.17c0.74-2.72,5.32-14.17,5.79-23c0.36-6.69,0.65-6.82,2.58-15.71
		c9.07-2.91,11.67-20.31,18.67-27.4c9.37,2.58,3.91,1.76,21.48,3.97c1.09-3.32,1.16-3.82,1.58-4.1c3.36-2.28,6.72-30.75,15.09-53.53
		c1.1-3,3.49-0.86,3.65,8.12c0.14,7.49,5.35,42.47,10.95,42.57c1.25,0.02,0.67-1.45,2.88-2c2.05-0.52,2.17-0.41,22.62-1.22
		c2.71-0.11,2.15-0.08,4.96,4.13c12.66,18.99,5.7,18.06,9.72,45.61c2.35,16.1,15.71,27.65,16.09,28.52
		c3.92,9.05,1.35,1.39,10.66,31.78c-7.09,6.33,3.6,2.84-12.18,30.75c-4.99,8.83,30.56,15.08,39.26,12.48
		c9.35-2.79,6.71,7.28,34.64,5.59c6.66-0.4,10.17-0.61,13.13-3.62C377.94,562.36,378.1,552.58,375.15,551.58z M248.23,42.58
		c1.58-0.55,2.39-0.96,3.27,0C250.67,42.58,249.84,42.58,248.23,42.58z M254.52,12.01c0.54-0.07,1.21-0.15,2.28-0.3
		c-0.66,1.26-0.93,2.28-1.94,2.84C253.95,13.81,253.99,13.04,254.52,12.01z M248.34,5.68c1.83-0.33,1.02,2.05-0.45,2
		C247.99,7.22,248.32,5.78,248.34,5.68z M246.32,20.38c-0.2,0.28-0.13,0.28-0.25-0.03L246.32,20.38z M238.39,9.75
		c0.12,0.21,0.12,0.19-0.28,0.05C238.2,9.79,238.3,9.77,238.39,9.75z M237.83,13.41c0.3,0,0.18,0.68-0.24,0.19
		C237.66,13.55,237.75,13.41,237.83,13.41z M237.51,19.4c1.43,0.13,1.49,0.02,1.01,0.26c-0.1,0.1-0.49,0.16-0.59,0.12
		c-0.81-0.27,0.69-0.34-2.37-0.71C236.4,18.51,237.26,18.42,237.51,19.4z M234.37,16.36c0.28-0.18,0.19-0.47,0.19,0.04
		c-0.26-0.04-0.11-0.1-0.5,0.17C234.21,16.38,234.14,16.32,234.37,16.36z M232.48,18.21c-0.27-0.16-0.53-0.35-0.81-0.55
		c0.55-0.38,0.46-0.63,1.04,0.33C232.71,18.01,232.5,18.22,232.48,18.21z M230.4,9.78c4.41-1.52,3.23-0.55,0.21,2.23
		C229.75,11.13,230.87,10.54,230.4,9.78z M224.76,7.65c-0.39,0.23-0.24,0.23-0.52-0.22C224.75,7.43,224.47,7.37,224.76,7.65z
		 M218.96,28.86c-0.65,0.89-1.78,2.44-1.9,2.6C217.28,29.52,217.15,27.31,218.96,28.86z M214.57,11.25
		c0.51-0.36,1.16,0.31,0.31,1.01C214.39,12.66,212.55,12.69,214.57,11.25z M214.35,20.17c0.77-0.78,1.6-1.56,2.55-2.5
		C215.98,22.18,211.08,23.45,214.35,20.17z M212.17,32c0.06,0.4,0.1,0.32-0.11,0.3L212.17,32z M211.96,34.82
		c0.11-0.02,1.22,0.6-0.53,1.85C210.87,37.07,210.13,35.2,211.96,34.82z M210.87,45.89c0-0.06-0.01-0.12-0.01-0.18
		c0.39-0.05,0.38-0.08,0.09,0.08c-0.13,0.13-0.05,0.19-0.05,0.61C210.9,46.93,210.28,46.6,210.87,45.89z M203.22,34.12
		c0.16-0.89,1.18-1.36,1.02,0.22C204.05,36.09,202.95,35.57,203.22,34.12z M204.4,52.58c0-0.36,0.18-0.61,0.39-0.1
		C204.65,52.52,204.53,52.55,204.4,52.58z M203.78,43.91c1.41-1.3,2.66,0.12,3.11,1.75C207.98,49.58,204.25,46.47,203.78,43.91z
		 M209.96,49.97c0-0.2-0.45-0.27-0.04-0.62C210.13,49.77,210.08,49.53,209.96,49.97z M209.95,34.44c-2.15,1.39-2.39,1.63-2.44,0.79
		C207.45,34.28,208.94,34.49,209.95,34.44z M206.66,11.97c-0.12,0.12-0.21,0.26-0.36,0.35C206.03,12.47,205.6,11.31,206.66,11.97z
		 M200.21,21.14c0.25-0.25,0.94,0.07,0.94-0.6c0-0.69,0.75-1.31,0.62-1.98c0-0.82-0.87,0.11,1.41-1.76
		c0.71,0.88,1.33,1.64,2.08,2.55c2.18-0.58,2.98-1.09,2.94,0.22c-0.02,0.69-1.05,1.43-1.41,1.17c-1.81-1.28-5.09-0.64-6.11,0.89
		C200.56,21.87,199.78,21.27,200.21,21.14z M201.5,52c-0.55-0.68-1.18-1.34-1.65-2.11c-0.87-1.44,0.39-3.95,2.53-1.92
		C203.27,48.82,202.92,48.93,201.5,52z M176.71,264.15c-0.36,1.01-2.72-0.62-1.49-1.81C176.04,261.56,177.25,262.67,176.71,264.15z
		 M178.62,265.24c-0.09-1.09-0.17-1.72-0.17-2.42C178.45,261.55,181.42,263.58,178.62,265.24z M182.82,266.31
		c-0.49-0.34-2.96-1.47-1.36-3.23c0.09-0.1,0.25-0.21,0.65-0.21C183.4,263.33,183.07,263.95,182.82,266.31z M186.48,266.44
		c-2.33,0.97-1.8-1.85-1.68-3.37C186.95,263.55,187.03,263.53,186.48,266.44z M190.11,266.79c-0.07,0.28-0.66,0.43-1.36,0.85
		C188.31,262.47,191.18,262.44,190.11,266.79z M198.9,269.41c-7.47-1.6-6.72,0.48-6.72-5.09c3.85-1.55,3.4,0.66,3.74,3.65
		c1.8,0.38,0.85-1.26,1.77-1.79c0.77,0.42,1.7,0.91,2.56,1.37C200.56,268.86,199.7,269.59,198.9,269.41z M202.87,268.76
		c3.86-2.23,5.89,0.84,8.79-0.39c0.99-0.42,2.19-0.42,2.94,0.83C212.97,269.73,205.92,270.48,202.87,268.76z M215.54,268.16
		c0.92,0.37,1.37,0.56,2.16,0.88C216.44,269.24,216.44,269.24,215.54,268.16z M222.01,269.56c0.81-0.24,1.5,0.03,2.4,0.25
		C222.43,269.66,221.28,269.56,222.01,269.56z M243.72,270.77c-0.67,0.74-1.29,0.39-2.16,0.03c0.37-0.62,0.6-1.01,1.04-1.75
		C244.22,270.58,244.14,270.3,243.72,270.77z M245.97,271.45c-0.15,0.06-0.4-0.1-0.59-0.17C245.98,270,246.44,271.29,245.97,271.45z
		 M248.01,270.63c-1.69-1.47-1.23-0.87-1.63-2.14C249.11,267.68,248.41,268.72,248.01,270.63z M251.84,269.61
		c-0.57,0.91-0.42,0.82-0.85,0.04c-1.43-2.52-1.65-2.06,0.77-2.21C252.33,268.2,252.33,268.83,251.84,269.61z M254.68,268.42
		c-0.11-0.14-0.33-0.33-0.28-0.42C254.64,267.64,254.82,267.9,254.68,268.42z M260.26,270.65c-0.01-0.57-1.17-1.2-0.76-3.22
		c0.07-0.33,0.6-0.56,1.18-1.06C260.93,268.05,261.43,269.18,260.26,270.65z M265.98,188.23c-2.68,7.35,1.22,8.62-1.77,17.48
		c-11.21,33.27-2.48,11.01-4.31,34.62c-0.57,7.3-0.95,14.58,0.26,21.7c-0.93,2.34-2.62,3.12-4.83,3.08
		c-8.74-0.16-3.55,1.51-3.44-6.53c0.02-1.51-0.35-2.84-1.49-3.88c0.32,3.74-1.11,7.15-2.22,10.84c-3.08,0.42-19.93,1.68-20.03,1.69
		c-4.06,0.35-2.43,0.38-10.57-0.84c-0.5-0.44-1.12-0.99-1.73-1.53c-2.69,0.83-5.25-0.33-7.8-0.7c-2.16-0.32-4.59-0.14-6.47-1.7
		c-0.53,0.11-24.58-3.04-29.88-4c-2.43-28.01-1.79-29.13,0.18-30.43c0.58-0.38,34.2-20.5,39.52-28.1
		c3.92-5.6,10.97-9.37,13.38-13.18c0.58-0.92,1.6-1.55,2.61-2.49c0.4,1.41,0.72,2.57,1.13,4.02c0.67-1.45,0.16-2.46-0.01-3.47
		c-0.38-2.29,0.16-2.13,3.71-8.16c-0.1-0.13-0.29-0.79,1.28-3.08c6-8.74,4.17-7.19,8.89-7.71c0.43-1.87-1.9-0.22-2.49-1.29
		c0.35-2.34,8.34-1.95,10.67-13.59c0.76-3.77,1.7-2.49,1.77-1.31c0.44,7.55-0.7,3.81,3.3,9.92c1.13,1.72,2.57,3.05,4.31,4.17
		c4.61,2.96,3.51,0.46,4.82,5.77c-1.62,1.22-3.31,0.19-5.04,0.68c1.84,1.5,3.95,1.83,5.79,2.1
		C269.03,175.54,267.56,183.9,265.98,188.23z M251.5,140.24c0.1,0.08,1.51,1.28,2.92,2.43c-0.53,9.33-0.37,8.38-0.59,7.48
		C252.71,145.64,249.79,144.94,251.5,140.24z M256.5,103.26c10.71,6.83,6.4,4.68,18.96,8.5c26.96,8.19,25.41,36.47,28.91,40.5
		c8.89,10.23,15.83,15.1,18.5,24.46c6.03,21.19,8.92,24.22,5.69,31.53c-3.89,8.81-0.95,6.21-6.84,9.72
		c-1.25-0.21-3.07-2.44-9.56-3.66c-3.49-0.66-3.03-2.21-11.33-5.86c-4.07-1.79-11.25-6.28-13.17-10.32
		c-1.86-3.92-22.45-35.22-25.1-36.52c-4.46-2.19-4.93-1.91-8.22-7.34c-0.24-0.4-0.32-2.82-0.26-2.82
		c7.66,11.79,12.28,6.39,8.38,4.82c-7.28-2.92-5.92-5.02-6.19-10.01c-0.52-9.85-5.67-4.3-0.24-8.74c-1.72-0.82-2.82,0.5-4.4,0.57
		c-0.4-2.34,0.04-4.42,0.94-6.2c11.95-5.48,8.51-7.77,17.5,20.75c1.03,3.27,2.93,2.11,9.45,9.49c10.27,11.62,30.7,14.07,42.24,24.32
		c6.69,5.94,2.21-2.55-3.13-5.5c-34.1-18.87-34.93-15.45-39.6-23.43c1.39-2.55,6.29-18.2,3.41-18.67c-2.8-0.46,1.94,4.58-5.2,17.4
		c-2.17-0.66-3.59-1.72-4.18-3.97c-0.83-3.14-4.3-8.96-4.75-14.27c-0.11-1.33-0.23-1.63-3.27-10.81c1.09-0.6,2.27-1.01,2.17-2.43
		c-0.04-0.6-0.13-1.51-0.51-1.71c-1.25-0.68-1.79-2.72-1.79-2.82c-0.33,1.04-0.49,2.4-1.92,1.86c-0.77-0.29-0.58-0.2,1.03-1.24
		c-6.19-2.96-3.13,1.98-7.45-15.18c-0.29-1.14,0.13-2.31-0.11-2.47C256.04,103.11,256.56,102.98,256.5,103.26z M258.52,122.66
		c0-0.26-0.19-0.19,1.06-0.19C259.57,122.72,259.77,122.66,258.52,122.66z M255.98,113.27c1.19,5.33,0.03,6.25-3.5,5.84
		c-3.26-0.38,1.7,0.79-2.46-19.94C253.68,98.5,253.97,104.24,255.98,113.27z M164.93,227.48c-14.27-12-8.46-8.82-13.12-15.8
		c-3.52-5.27-1.05-4.13-2.57-6.46c-11.82-18.16-9.99-18.37-9.99-39.07c0-6.57-1.66-5.43-2.22-7.55c-0.32-0.97,0.23-1.43-0.19-1.73
		c0.92,0.16-1.09,1.51,6.81,3.71c0.56-0.46,0.18-1.01-0.24-1.12c-5.32-1.34-5.2-7.45-7.9-7.43c-3.65-10.65,4.79-33.7,12.04-40.25
		c9.41-8.5,12.12-3.27,21.4-9.58c7.31-4.98,9.25-7.57,14.36-7.78c0.56,0.92,0.57,1.95-0.18,2.76c-1.3,1.39-0.56,2.57,0.46,7.6
		c0.5,2.46,0.72,1.9-3.96,2.64c-0.59,0,3.57,0.38,4.78,1.6c1.2,5.4,1.02,11.02,0.66,16.33c-1.29,1.67-3.24,0.16-4.45,1.77
		c1.32,0.12,2.49,0.23,3.85,0.36c0,4.71-4.65,21.98-6.4,25.16c-3.64-8.82-5.68-6.95-5.31-5.58c3.35,12.66,6.29,18.38,4.2,32.74
		c-17.2,8.42-19.08,15.23-9.06,6.84c8.85-7.4,36.38-5.99,57.32-31.78c0.97-1.2,3.32-0.87,3.92-3.21
		c6.32-24.63,3.08-20.05,5.35-27.64c5.34-1.46,9.37-2.01,12.27-1.69c-2.28,2.44-5.72,1.5-8.22,2.93c0.98,4.15,11.33-3.62,15.68-2.26
		c0.1,0.96-0.13,0.45-7.42,3.75c-0.65,0.29-1.86,1.55-1.99,1.55c1.83-0.18,2.71,0.27,7.79-2.46c5.07-2.73,12.15-2.18,12.69-1.64
		c0.23,1.02,0.04,1-10.95,4.87c-10.09,3.56-0.69,17.68-10.86,29.98c-1.45,1.76-5.21,2.1-6.79,5.71c-0.69,1.57,0.42-1.27-7.09,10.68
		c-8.48,13.5-13.39,12.75-21.07,23.07c-7.34,9.87-16.42,11.39-29.27,22.98C174.98,225.32,167.1,225.21,164.93,227.48z
		 M170.96,262.59c-0.06,1.15-0.32,0.89-2.08,0.89C168.24,260.1,171.07,260.52,170.96,262.59z M144.92,336.73
		c0.08,0.45,0.09,0.33-0.13,0.45C144.7,336.7,144.67,336.88,144.92,336.73z M141.5,362.63C141.5,362.63,141.5,362.63,141.5,362.63
		C141.5,362.59,141.5,362.58,141.5,362.63z M141.18,353.58c0.77,2.9,0.24-0.89,0.24,9.15c0.01,0,0.02-0.02,0.04-0.03
		c-2.39,3.77,0.29,1.94-3.31,7.02C137.21,367.77,137.88,368.07,141.18,353.58z M124.98,543.95c2.02,2.06,0.91,2.18,0.53,10.81
		c-0.27,6.05,4.91,13.8,8.11,18.9c-0.56,1.43-1.37,2.75-2.69,3.49c-11.72,6.57-8.42,2.88-9.22,1.05c-1.86-4.28-3.21,6.38-2.82,8.58
		c0.55,3.07-3.51,4.48-7.87,5.74c-12.96,3.74-12.33-0.29-26.4-0.81c-2.67-0.1-1.8-0.88-1.5-6.54c0.47-8.76-2.38-4.28,13.87-25.58
		c1.25,1.57,0.84,1.38,2.72,2.72c6.79,0.05,9.35,0.31,10.27-0.61c-3.62-4.59-12.74-2.67-11.94-3.47c1.35-2.56-0.43-1.9,7.39-0.32
		c15.15,3.07,4.67-3.01,4.37-3.54c-0.08-0.15-5.01-1.87-9.84-0.74c0.05-0.75-0.04-1.91,0.9-1.78c14.47,2.01,3.62,2.21,13.41,2.21
		c-1.14-4.7-8.73-5.4-12.98-4.88c-0.77-1.61,1.42-4.1,0.3-6.35c-0.4-0.8,0.11-3.07,0.24-3.76c0.79,0,1.77-0.26,2.28,0.05
		c3.41,2.07,6.71,2.03,10.19,3.4c0.55,3.23,1.25,9.08,3.33,8.34c1.11-0.39,1.13-2.13,1.17-2.38c0.91-0.66,1.72,0.06,2.24,0.06
		C124.85,548.93,123.6,544.88,124.98,543.95z M117.96,542.75c0.05,0.01,3.21,0.39,3.58,0.44c-0.62,2.6,0.06,2.09-3.17,1.69
		C117.98,544.82,118.08,545.11,117.96,542.75z M160.26,440.47c-5.62,3.2-0.41,1.58-1.75,6.54c-4.02,14.93,1.31-1.04-6.6,28.54
		c-3.91,14.6-2.37,8.18-12.15,19.71c-0.03,0.03-10.4,23.33-13.33,28.66c-5.96,10.86-4.51,10.58-5.87,8.4
		c-1.59,1.79-2.33,3.86-2.54,6.37c-5.43,0.1-9.84-1.92-12.07-3.51c8.15-24.74,3.65-80.94,19.69-99.64
		c11.78-13.74,10.07-24.84,12.13-37.68c3.55,1.4,6.7,2.65,10.01,3.96c0.99,4.67,2.82,8.98,6.57,12.28c1.54-1.45-1.49-0.87-2.91-8.95
		c-0.52-2.97-0.03-2.4,0.67-2.24c9.43,2.16,8.52,0.61,11.79,2.56c11.64,6.94,0.88,0.23,11.23,9.15
		C172.43,419.6,170.68,434.53,160.26,440.47z M279.92,407.35c14.37-4.12,12.95-4.96,10.31,1.4
		C284.73,409.5,278.31,407.81,279.92,407.35z M295.86,495.48c-6.72-19.62-9.06-8.66-15.38-23.47c-7.53-17.65-5.47-33.79-5.56-37.23
		c-0.27-11.4-3.04-11.52-3.41-13.65c-0.58-3.4-3.79-8.49-5.84-11.51c1.98-0.32,2.14-0.31,11.43-1.77c3.9,4.97,8.73,5.42,14.87,3.63
		c0.2,0.36,0.39,4.66,2.71,2.55c0.84-0.76,2.36-3.34,1.57-5.33c-0.58-1.45-3.49-0.68-2.42-1.92c5.28-6.12,0.65-3.88,7.56-6.91
		c1.94,7,2.35,7.5,1.7,9.92c-2.67,9.91,0.84,4.83,0.4,11.17c6.34,12.95,12.35,68.65,19.18,96.55c-3.46,2.17-10.06,3.33-13.63,3.29
		c-1.57-2.43-0.9-5.56-2.74-7.8c-0.93,2.5-0.94,2.65-0.23,8.39C300.95,522.73,305.67,524.15,295.86,495.48z M321.35,521.44
		c-6.69,10.36-8.48,10.34-11.96,9.21c-2.11-0.69-3.26-2.12-4.92-5.98C315.1,522.89,310.9,523.67,321.35,521.44z M374.3,556.22
		c-0.54,5.71-0.84,7.3-2.51,7.92c-5.92,2.2-17.69,2.09-21.64,1.96c-8.58-0.28-12.95-5.69-19.01-5.2
		c-7.08,0.58-30.31-0.23-41.77-8.05c2.95-4.41,3.65-6.58,6.12-9.58c0.58-0.7,4.62-11.33,3.99-17.07c-0.23-2.1,1.72-1.69,2.05-0.37
		c0,2.27-0.31,3.54,3.24,5.84c12.3,7.96,12.37-3.53,17.63-5.84c0.88-0.39,1.23-0.86,6.97-8.02c3.97,2.54,4.16,4.01,6.91,11
		c-4.43,1.55-10.17,3.38-7.03,6.9c9.9-4.55,8.37-4.2,9.3-3.09c-0.81,1.29-1.66,1.14-2.98,2.27c-2.27,1.93-1.62,5.5,2.75,3.28
		c4.19-2.13,2.67-2.5,4.96-0.45c-0.5,1.73-2.6,1.8-2.24,3.51c0.23,1.06,1.15,1.59,2.17,1.22c4.58-1.66,2.87-2.02,6.42,0.28
		c0,2.36-0.7,4.11,4.71,2.26c3.78,1.06,3.23,2.19,4.92,2.44c0.65,0.1,8.88,3.67,8.98,3.72C373.59,553.68,374.53,553.71,374.3,556.22
		z"/>
	<path d="M232.22,176.63C232.22,176.63,232.22,176.63,232.22,176.63C232.25,176.68,232.27,176.66,232.22,176.63z"/>
	<path d="M807.98,548.58c-5.46-1.07-4.47-2.17-10.89-4.11c-4.26-1.29-4.33-2.96-9.64-7.06c-3.28-2.53-3.44-4.98-7.46-12.52
		c-3.34-6.25-6.2-5.74-6.89-6.97c2.85-10.63,3.03-14.29,7.99-23.23c2.91-5.23,13.69-16.41,14.65-30.49
		c0.85-12.42,10.55-30.45,6.38-38c-11.01-19.93-25.23-18.7-25.97-23.13c-0.2-1.18-19.51-8.9-28.38-9.4
		c-6.73-0.38-14.72-4.3-23.86-5.14c-5.86-0.54-14.22-2.4-14.27-2.4c-2.81,0.11-2.39,2.18-4.15-0.88c-1.52-2.64,0.85-2.11-3.93-2.01
		c-5.91,0.12-6.49,5.2,0.54-18.06c0.59-1.95-0.43,1.33,6.59-12.7c2.64-5.27,1.91-8.35,2.5-10.43c4.13,0.74,14.45,25.22,23.93,31.2
		c20.71,13.06,19.07,8.16,26.59,13.05c3.94,2.57,4.41,0.25,5.88,0.25c1.57,0.16,2.07-0.72,2.5-2.2c3.06-10.37,6.51-12.97,3.09-22.07
		c-0.26-0.7-0.79-1.56-0.6-2.14c0.52-1.56-0.3-2.7-0.82-3.94c-2.94-6.9-1.85-18.77-9.8-25.13c-5.34-4.28-9.61-9.61-14.44-14.32
		c-2.45-25.6-8.97-34.51-34.07-42.26c-10.28-3.17-4.93-3.43-30.35-16.73c-0.06-1.07-0.11-2.02-0.16-3.08
		c3.94-1.67,6.65-1.58,7.65-6.28c1.44-6.74,2.86-6.05,3.86-12.15c0.87-5.35-0.1-8.41,1.71-11.87c1.3-2.5,0.85-4.17-0.54-10.71
		c-0.17-0.82-0.47-1.18-1.4-1.04c0,5.51,0.43,6.97-0.73,11.09c-1.17,4.14-0.21,10.25-1.44,14.22c-5.17,16.7-3.04,14.1-11.51,13.97
		c-3.69-0.06-6.37-2.16-9.56-1.66c-0.05,1.4,0.96,1.72,1.74,1.72c2.89,0.01,5.08,2.02,7.8,2.41c0.11,1.42,0,2.74,0.35,3.91
		c1.21,4.11-0.93,7.3,0.13,9.21c1.35-0.64,1.22-1.5,2.26-6.63c2.4,1.08,4.66,1.87,6.37,3.23c0.68,2.56,1.57,4.84,1.83,7.19
		c0.25,2.24,0.22,11.1-1.78,14.32c-4.89,0.93-9.68,1.82-14.71,2.77c-0.7,3.95-1.43,8-2.17,12.13c-7.14,1.9-6.76,1.29-0.89,1.83
		c-2.46,0.93-4.95,1.1-7.37,0.16c-17.88-6.94-24.88-7.98-28.33-19.36c-7.64-25.19-0.38-21.97-2.5-24.09
		c-6.19-6.2-5.56,39.87,20.81,42.3c0.71,0.07,1.39,0.54,2.09,0.84c12.49,5.51,11.75,3.52,14.35,3.74c1.67,0.14,1.76-0.9-1.27,10.62
		c-0.28,1.08-0.59,1.22-3.23,2.55c-0.61-4.24-0.43-3.67-0.53-3.67c-1.22,1.71-0.84,3.43-1.24,5.21c-3.14,3.2-7.25,6.94-12.06,11.62
		c-6.13,5.97-30.26,13.12-31.49,13.2c0-2.46,2.94-7.9,0.69-19.42c-1.48-7.59,4.87-14.98,7.38-27.74c2.46-12.51,0.37-17.71-2.05-38
		c3.49-2.16,3.47-0.95,8.48-3.59c7.04-3.71,5.39-4.4,7.35-4.39c1.06,0.01,1.97-4.28,4.11-6.74c-1.8-21.45,6.21-20.78-0.11-21.64
		c-1.81-2.58-1.83-2.12,1.58-2.91c0.66-8.02,0.84-5.66-0.59-7.25c-3.65-4.05-0.86-4-0.3-3.44c1.43,1.42,1.4,2.91,2.29,5.81
		c0.69,2.25,0.85,0.53,0.85,4.33c3.93-0.52,4.24-10.8,6.48-13.78c6.39-8.48,2.57-10.22,8.02-10.01c0.21,0.01,0.43-0.19,0.7-0.32
		c-0.23-2.55,1.91-0.73,2.43-3.2c-1.67-2.96-1.54-4.69-6.05-3.57c0.14-0.14,0.3-0.31,0.33-0.37c0-0.1,0.5-1.19,0.83-1.44
		c1.03-1.03,1.53,0.13,3.14,0.76c1.57,0.61,3.09,1.19,3.13,3.23c0.01,0.51,1.25,0.33,1.39-0.33c0.12-0.54,0.03-1.12,0.03-1.67
		c2.27-0.27,4.4-1.05,6.56-0.59c3.08,0.65,1.56-0.45,5.73,0.28c5.69,1,5.37-0.57,8.28-0.72c0.35,2.29,1.04,8.6,2.51,11.27
		c4.29,7.78-10.22,3.15-7.99,15.12c0.07,0.38,0.43,0.69,0.84,1.33c1.07-7.43-0.75-1.84,7.76-5.46c3.44-14.32,1.82-2.47-1-23.6
		c1.79-3.39,5.72-4.17,7.78-6.72c0.09-1.23,0.17-2.21,0.24-3.18c0.34-4.29-10.57,2.37-2.47-3.31c1.13-0.79,0.87-2.15-0.33-2.45
		c-0.82-0.21-1.3,0.17-4.86,1.55c-0.11-6.18,0.35-8.56-3.9-3.99c-1.25,1.35-2.1,0.83-2.44,1.29c2.32-4.06-5.32-1.07-10.35,0.44
		c-1.45-1.13-13.5-0.17-13.6-0.15c-2.09,0.43-1.57,2.56-3.19,2.97c-2.35,0.59,0.54-1.31-2.53-2.46c-2.49,3.32-5.55,5.28-9.66,5.36
		c-3.53-2.72-2.08-2.27-6.21-2.27c-0.27,2.04,1.81,2.47,2.23,4.08c-1.15,0.49-2.11,1.18-1.65,2.77c0.04,0.13-1.33,2.89-1.1,2.89
		c0.01-0.01,0.02-0.01,0.02-0.01c0.12,0.01,0.75,0.01,3.61-0.27c2.1,2.39,1.16,2.01,4.32,1.35c0.79,1.12,0.07,1.67-0.72,2.31
		c-4.53-3.73-9.74,4.24-5.14-2.22c-6.07-3.47-0.96,2.07-4.9,5.45c-0.78,0.67-0.75,1.8-0.79,2.83c-0.22,5.7-5.41,9.92-0.25,19.27
		c2.77,5.02-0.52,4.92,1.52,8.61c3.02,5.46,2.15,9.78,3.93,14.07c1.73,4.18,0.31,9.21-0.15,11.44c-1.6,7.68-9.07,3.18-33.78,19.78
		c-11.09,7.45-14.23-3.82-28.81,19.53c-7.29,11.68-7.48,23.02-5.56,33.77c3.09,17.28,4.99-2.61,4.09,29.58
		c-0.3,10.68,10.38,24.37,12.31,28.75c3.22,7.29,2.27,5.95,3.01,6.85c5.91,7.08,4.71,3.69,7.23,6.8c-10.34,0-21.12-0.17-31.15,4.02
		c-11.11,4.64-28.3,18.43-29.82,24.14c-0.97,3.63-6.35,14.03-7.19,14.71c-1.96,1.6-2.16,3.65-1.82,5.8
		c5.1,31.97-8.56,16.82,0.61,55.56c0.84,3.53,4.83,36.8,6.36,38.63c1.5,1.8,1.29,3.99,1.73,5.92c-5.97,6.68,2.22,4.69-6.54,18.65
		c-6.08,9.69-6.12,11.51-10.41,17.05c-2.73,3.53-3.02,6.85-2.5,11.03c1.14,9.16-6.66,9.13,12.68,11.28c7.9,0.88,21.42,3.8,28.54-6.4
		c-1.88-6.3-1.45-3.74,5.24-6.09c6.9-2.43,7.04-2.46,9.4-6.58c0.31-0.54,0.35-2.08-0.84-2.08c-1.67,0.67-1.05,3.08-7.09,5.09
		c-9.24,3.07-7.88,3.64-8.32-3.15c-1.81,0.23-2.83-1.06-1.34,12.69c-11.17,6.97-12.31,4.79-33.19,2.55
		c-1.11-0.12-2.27-0.19-2.98-1.24c0.02-0.27-0.06-0.6,0.06-0.76c3.41-4.54-2.6-8.25,2.98-15.59c7.25-9.53,5.68-12.48,8.27-13.88
		c3.55,2.32,11.95,3.17,16.11,0.65c-2.6-2.15-0.27-1.38-14.91-2.76c0.6-0.84,1.01-1.41,1.36-1.91c5.7,1.17,14.14,1.27,17.78,0.24
		c1.98-4.14-7.52-3-15.35-3.92c0.79-0.15,1.61,0.02,2.38-0.09c0.34-0.05,6.72-1.94,10.39-1.09c1.64,0.38,6.65-0.52,4.38-2.69
		c-0.19,0-0.16,0.01-0.16,0c0.08-0.31-0.88-0.5-0.1-0.5c0.19,0,0.16,0.2,0.13,0.39c0.1,0.05,1,0.3,0.79,0.92
		c1.44,0.52,3.6,1.32,5.06,2.19c1.05,0.62,2.11-0.09,3.07-0.02c3.09,0.23,2.07,11.56,4.25,16.17c1.86,3.94,5.17,5.94,5.79,5.94
		c0.08-1.18,0.47-1.66-0.84-3.28c-4.17-5.14-5.38-24.84-9.92-26.34c-0.27-0.09-0.62-0.55-0.61-0.82c0.04-1.59-1.4-2.27-2.08-3.24
		c0.29-1.46,4.12-26.49,3.7-30.56c-0.58-5.76,9.27-16.69,9.07-23.15c-0.73-22.91-2.83-19.4-1.86-22.84
		c3.55,0.55,2.92,0.09,3.31,2.19c2.41,0.85,9.84,2.71,22.45,11.13c8.97,5.99,6.34,3.34,14.2,2.08c4.2-0.68,5.72-2.84,10.9-7.1
		c2.76-2.27,1.51,0.3,8.56-4.56c18.93-13.03,19.76-13.77,22.71-14.83c16-5.71,37.67,16.83,65.49,24.78c0.1,0,0.51-0.83,1-1.19
		c8.75-6.53,10.43-11.19,13.39-13.71c4.96-4.21,6.86-5.5,11.62-9.67c15.07-0.81,6.19,1.2,3.36,6.98
		c-10.99,22.47,4.01,21.37-3.55,53.11c-4.34,18.19-3.23,8.21-6.2,14.35c-4.63,9.58-4.07,8.32-4.42,10.72
		c-2.37,16.43-5.89,16.52-3.72,19.15c4.98,6.07,9.22,5.69,21.52,5.94c33.94,0.7,17.78,5.75,51.76,6.15
		c4.89,0.06,15.37-1.55,15.26-7.6C820.35,550.16,817.19,550.38,807.98,548.58z M647.04,218.95c-0.2,0.44-0.41,0.62-0.54,0.09
		C646.68,219.02,646.86,218.99,647.04,218.95z M692.61,209.11c-0.3,0-0.73-0.51-0.65-0.55
		C694.34,208.16,692.83,209.11,692.61,209.11z M696.61,178.87c0.39-0.32,0.82-0.46,1.33-0.42c1.13,0.1,0.99-0.09-0.95,3.05
		C696.04,179.25,695.88,179.39,696.61,178.87z M690.87,172.1c0.72,1.12,0.37,1.64-0.42,2.05
		C689.69,173.41,690.56,172.97,690.87,172.1z M688.11,186.64c0.06,0.3,0.2,0.59-0.25,0.37c-0.06-0.03-0.05-0.17-0.07-0.26
		C687.89,186.71,688,186.68,688.11,186.64z M683.31,185.19c0.11,0.25,0.14,0.2-0.13,0.17L683.31,185.19z M680.34,176.14
		c0.09,0.28,0.13,0.23-0.13,0.19L680.34,176.14z M679.75,179.95c0.93,0,0.69,0.27-0.16,0.5
		C679.64,180.27,679.65,179.98,679.75,179.95z M679.54,185.75c0.53,0,0.91,0.1,1.08,0.66c1.8,0-1.39,0.41-1.39-0.66
		c-0.28,0,0.39-0.05-1.55-0.21C679.03,184.74,678.56,185.75,679.54,185.75z M676.71,182.65c-0.02,0.12-0.04,0.23-0.05,0.36
		c-0.09,0.02-0.24,0.09-0.26,0.06C676.08,182.71,676.48,182.72,676.71,182.65z M674.23,184.76c-0.1-0.03-0.51-0.63,0.18-0.74
		C674.8,183.92,675.18,185,674.23,184.76z M674.83,175.71c0.37,0.85,0.65,0.41-2.11,2.76C671.52,176.21,673.69,176.03,674.83,175.71
		z M659.58,194.84c0.52,0.18,1.03,0.22,1.09,0.42c0.49,1.58-1.09,1.58-1.09,1.82C659.47,197.16,659.58,197.52,659.58,194.84z
		 M657.76,178.08c-0.61,0.49-1.22,0.98-2.13,1.72C656.13,178.3,656.13,178.3,657.76,178.08z M659.38,184.1
		c-1.16,2.82-1.9,3.45-4.42,5.29C655.72,186.65,657.5,185.81,659.38,184.1z M654.57,184.46c0.21,0.15,0.22,0.1-0.02,0.19
		L654.57,184.46z M653.59,201.63c1.62,0,0.59,0.97-0.49,2.02C652.46,202.62,652.86,202.04,653.59,201.63z M652.96,212.59
		c0.27,0.08,0.32-0.12-0.16,0.77C652.56,213.09,652.48,213.27,652.96,212.59z M647.83,178.54c0,0-0.02,0-0.02-0.01
		C648.39,177.95,649.16,179.16,647.83,178.54z M651.85,216.23c0.4,0.14,0.42,0.08-0.01,0.22L651.85,216.23z M649.7,202.33
		c0.51-0.34-0.68-1.38,2.08-1.17C649.58,202.4,649.35,202.72,649.7,202.33z M646.48,200.04c-0.45,1.84-1.06,4.4-1.08,4.5
		C645.36,202.31,644.57,201.08,646.48,200.04z M643.92,218.56c-0.35-0.15,0.22,0.06-1.25-1.2c-2.33-1.99,0.11-5.26,1.99-2.51
		C645.63,216.26,643.11,217.85,643.92,218.56z M563.57,551.29c0.48-0.73,0.34-0.6,0.49-0.21
		C564.49,552.2,562.53,552.88,563.57,551.29z M709.24,275.82c10.74,2.7,10.67,4.15,11.65,4.22c14.22,1,22.98,22.66,24.03,34.45
		c0.22,2.49,1.21,3.87,10.28,13.17c13.49,13.83,14.31,31.4,16.13,35.87c2.39,5.87,0.46,8.95-3.18,18.51
		c-6.24,3.74-2.52,2.39-8.97-0.18c-2.33-0.93-5.82-1.03-7.83-2.54c-6.64-4.99-9.3-3.51-18.33-11.14
		c-2.13-1.8-24.07-38.37-28.16-40.25c-4.42-2.04-4.98-2.11-8.14-7.42c-0.28-0.47-0.13-1.2-0.24-2.64c1,1.51,1.55,2.34,2.12,3.18
		c2.53,3.8,6.3,4.42,6.76,4.22c3.76-1.61-2.39-3.02-3.67-4c-4.66-3.53-1.95-6.11-3.31-11.76c-1.16-4.81-3.95-2.37,0.02-5.43
		c-1.36-0.4-1.36-0.4-4.22,0.27c-0.94-6.58,1.8-6.51,8.95-9.73c3.92,2.39,3.43,5.14,9.35,24.26c1.15,3.72,5.2,3.69,9.66,9.78
		c4.06,5.55,22.07,13.44,29.45,16.4c10.81,4.34,13.08,9.29,15.62,9.83c2.33-7.57-35.38-19.87-44.03-28.51
		c-0.49-0.49-2.07-2.68-1.96-2.79c3.94-4.62,5.68-22.44,2.83-17.62c-0.69,1.16,1.55,5.24-3.92,16.08c-0.61,1.21-3.74-0.27-4.62-3.41
		c-1.06-3.79-4.16-8.71-4.69-13.89c-0.18-1.79-0.59-2.71-3.29-11.11c2.53-1.63,2.84-2.35,1.04-4.69c-1.52-1.97-0.6-4.02-1.78-0.48
		c-2.74,0.11-2.56,0.51-0.41-1.21c-1.54-1.09-3.61-0.97-4.95-2.52C696.45,259.44,695.72,272.42,709.24,275.82z M696.43,316.83
		c-1.6-5.65-3.2-3.47-2.88-8.16c0.18-2.61,0.15-2.15,1.89-0.78C697.25,309.3,696.95,307.92,696.43,316.83z M702.04,289.05
		c-1.25,0-1.06,0.06-1.06-0.19C702.23,288.86,702.04,288.79,702.04,289.05z M695.51,267.42c0.24,3.27,1.14,6.43,1.93,9.79
		c2.18,9.21,1.15,8.45-3.87,8.22c-0.36-1.97,1.12-7.37-0.78-15.73C691.55,264.22,691.38,264.94,695.51,267.42z M593.85,377.46
		c-3.06-4.78-0.51-2.88-2.16-5.85c-1.73-3.12-5.27-4.32-9.25-18.38c-1.15-4.07-0.75-6.49-0.76-20.73c-0.01-6.8-1.99-5.67-2.24-7.64
		c-0.11-0.47-0.07-1.01-0.02-1.28c0.43,0.63,2.05,2.07,6.67,3.35c1.82-1.52-2.17,0.38-5.96-6.78c-0.48-0.9-0.93-1.77-2.22-1.78
		c-3.86-12.62,5.07-34.16,11.54-39.99c10.3-9.29,13.1-3.57,21.74-9.72c8.16-5.81,9.01-7.23,14.52-7.75
		c-0.49,5.4-1.72,1.28-0.68,8.13c0.77,5.07,2.71,3.93-2.89,4.75c5.78,2.01,4.35,0.73,5.03,7.28c0.18,1.73,0.28,9.15-0.37,11.79
		c-5.76,0.44-5.67,0.67,0,1.1c-1.33,11.71-3.66,14.45-4.22,16.79c-2.49,10.26-1.11,8.32-3.35,5.21c-9.76-13.53,3.3,10.13,0.16,30.19
		c-17.93,8.77-15.54,11.71-14.12,10.66c13.16-9.71,1.45-2.81,30.05-13.32c18-6.61,20.22-10.58,28.61-18.86
		c6.69-6.6,7.25-4.09,7.7-6.85c0.83-5.02,3.06-8.72,3.63-15.73c1.11-13.66,1.39-11.82,5.58-12.52c4.73-0.78,5.88-1.43,8.11-1.07
		c0.34,1.86-2.75,0.91-8.04,3.3c2,3.95,11.44-4.39,16.09-2.22c-2.91,1.97-6.42,2.43-9.65,4.93c7.56,0,6.38-5.03,20.53-4.24
		c-1.52,4.73-16.08,0.75-16.59,15.69c-0.3,8.9,1.05,11.52-5.29,19.38c-3.55,4.4-1-4.19-13.89,16.39
		c-8.6,13.74-13.25,12.58-21.07,23.09c-7.32,9.84-16.41,11.44-29.28,22.99c-3.26,2.92-11.82,4.47-12.14,4.51
		c-2.36,0.28-1.08,2.59-4.14-0.07C594.21,382.4,599.23,385.86,593.85,377.46z M542.2,551.51c-1.03-9.52,0.25-7.8,9.18-6.85
		c2.35,0.25,2.1-0.37,2.25,3.2C553.77,551.47,555.09,550.62,542.2,551.51z M606.2,481.55c-43.66-26.85-24.09-6.4,0.83-14.27
		C618.74,477.97,611.48,479.63,606.2,481.55z M721.45,475.21c-0.37,1.62-20.71-4.34-24.99-8.65c-2.12-2.13-6.38-3.13-13.49-7.45
		c-34.72-21.05-49.87,15.08-59.32,11.76c-2.54,1.95-4.93,3.77-7.56,5.79c-0.74-3.42-1.62-3.9-10.87-17.13
		c-2.17-3.11,0.85-2.47-8.72-26.41c-1.82-4.55-0.36-4.88-4.89-11.29c-1.18-1.67-0.4-1.66-2.42-3.17c0.2,0,5.41,15.01,5.45,15.11
		c10.43,26.96,0.12,7.85,10.45,30.71c-11.68,4.91-22.75-1.12-32.88-0.38c-1.04-1.91-1.23-4.13-2.51-5.76
		c-1.2,0.04-1.39,0.89-1.32,1.57c3.52,33.88,6.47,24.45-0.36,40.35c-10.31,24.01,0.12-3.09-10.38,42.81
		c-0.28,1.23,0.48,1.84,1.88,2.21c-2.1,0.74-4.42,0.88,0.91,3.13c1.1,4.93,0.95,2.84-4.27-0.08c-0.17-1.51-0.38-3.34-0.59-5.25
		c-18.42-9.14-6.31,19.06-21.85-54.58c-1.59-7.54-2.18-15.12,1.2-31.32c1.04,1.3,1.9,2.39,2.76,3.47c-1.76-6.1-1.11-4.54-2.61-5.66
		c2.12-8.54-2.48-15.41-0.1-17.9c0.92-0.96,0.79-2.7,2.5-3.09c0.89-0.21,5.13-11.06,5.17-11.16c2.53-6.46,8.86-10.89,13.01-14.41
		c3.91-3.32,15.17-2.84,20.23-2.1c6.77,0.99,10.39,11.36,13.41,12.36c-9.35-21.8-16.33-12.31-25.81-15.02
		c-0.58,0-0.64-0.55-0.84,0.06c0.04-0.43-0.04-0.34,0.14-0.3c3.18-4.21,7.97-5.25,12.72-6.36c4.33,0.61,8.36-1.24,12.61-1.51
		c17.83-1.11,18.55,1.48,23.31-0.23c0.88-0.32,1.65-0.17,2.52,0.2c1.59,0.68,3.56,0.18,5.16,1.72c1.45,3.23,2.61,4.93,0.5,3.77
		c-6.1-3.33-6.64-4.28-8.24-3.16c5.42,3.38,4,2.23,7.49,4.4c10.74,6.68-1.7,3.4,13.09,7.97c3.98,1.23-5.89-3.64-10.26-8.23
		c-0.95-0.99,2.63-1.72,5.18-1c15.08,4.27,16.08,4.23,16.97,5.02c2.71,2.4,3.72,1.51,11.29,3.4c14.47-4.2,21.54-5.99,20.66-7.65
		c-0.51-0.97-0.67-0.93-16.22,3.45c-4.6,1.3-5.4,1.69-15.14-0.53c-2.8-0.64-2.16-1.09-2.58-1.54c-1.4-1.47,1.21,1.63-17.27-5.7
		c-9.89-3.92-10.34-3.04-7.93-4.76c0.1-0.07,26.25-14.89,36.6-25.75c1.08-1.14,9.25-9.99,12.38-11.28c1.4,3.1,0.73,13.84-1.67,19.39
		c-0.7,1.61-0.52,2.55-0.52,12.46c1.21-0.25,1.12-1.08,1.15-1.71c0.11-2.26,0.42-4.56,0.15-6.79c-0.74-6.15,5.7-9.93,2.63-25.36
		c1.23-1.56,1.07-1.43,4.12-5.21c10.1,7.28,14.91,17.82,14.99,17.92c0-7.43-11.77-15.44-13.78-19.17c-1-1.85,7.39-13.05,8.36-14.36
		c1.3-0.3,2.64,0.11,4.01-0.98c-2.13-0.41-0.93-0.15-2.82-0.6c2.04-5.09,6.53,1.39,11.66-16.94c0.26,0.51,0.87,1.25,0.91,1.73
		c0.68,8.32-0.9,3.02,3.14,9.57c2.25,3.64,5.53,5.03,8.21,6.49c1.25,2.14,0.9,5.08,3.14,6.84c-2.66,14.54-10.62,24.74-10.28,25.79
		c0.76,2.37-0.81,4.08-1.55,6c-4.53,11.89,0.17,13.72-3.7,16.71c-13.81,10.64-14.78,10.7-16.03,12.87c0.1,0,1.22-0.15,1.65-0.39
		c25.4-13.89,15.72-20.66,28.81-8.72c1.29-2.74,2.31-1.33,7.56-0.61c25.01,3.42,39.84,7.75,44.83,9.96
		c-2.56,2.62-4.5,0.41-12.11,6.04c-2.28,1.69-10.14,16.74-11.34,19.06c-5.74,11.11-8.87,29.56-10.36,34.05
		C725.62,463.27,723.05,468.27,721.45,475.21z M741.29,457.16c-2.93,1.67-0.98-3.62-14.85,13.11c0.44-4.37,2.47-9.65,5.31-14.01
		c3.17-0.8,6.2-0.35,10.3-0.45C741.99,456.53,741.68,456.94,741.29,457.16z M750.1,488.54c-0.82-1.65-1.8-12.35,0.39-19.05
		c1.16-3.55,1.06-3.07,7.58-13.47c3.45-0.84,7.58-1.34,13.91-6.41c-1.37-0.6,1.8-0.76-14.83,2.92c-1.07,0.24-5.27-0.75-7.1-0.47
		c-3.29,0.5-16.69,0.78-18.24,0.47c2.35-12.93,11.71-41.55,23.87-46.81c9.35-4.05,7.33-3.93,10.27-2.53
		c19.53,9.29,23.85,7.67,34.02,23.8c2.46,3.91-0.2,14.79-2.03,18.98c-2.87,6.52-6.79,21.98-6.53,22.36
		c0.95,1.41,0.51,1.78-3.16,10.62c-4.84,0.53,0.12-1.06-11.39,17.29c-1.34,2.13-7.72,15.25-6.79,20.51
		c0.32,1.79-1.78,9.31-2.29,11.05c-4.82,0.99-9.47,1.75-14.2,1.23c-0.26-0.58-0.17-9.09-2.59-2.29c-1,2.8,0.06,2.22-5.99,2.58
		C748.69,523.39,752.96,494.3,750.1,488.54z M764.09,534.68c-2.84,1.99-4.68,2.78-7.58,4.31c-1.51,0.8-3.03,1.13-4.71-0.63
		c-10.05-10.54-6.66-3.42,13.16-5.88C768.55,532.03,769.11,531.16,764.09,534.68z M815.6,567.52c-3.63,1.09-7.22,1.98-11.13,1.36
		c-3.48-0.55-7.14,1.01-13.16-0.36c-52.01-11.85-48.51-1.28-57.15-10.36c8.62-25.02,0.6-12.73,8.71-25.21
		c1.38,1.71,5.94,7.63,8.86,9.05c4.01,1.95,11.67-2.83,14.56-5.52c8.44-7.87,0.23,1.99,7.02-14.08c2.07-0.93,2.44,1.04,6.99,9.89
		c-2.67,2.23-5.26,3.67-3.61,6.44c2.65-0.41,4.8-2.24,5.82-1.75c1.36,0.65,0.69-0.07-1.39,3.23c-0.67,1.05-0.1,3.77,4.54,1.24
		c0.86-0.47,1.03-0.68,2.47-0.04c2.49,1.11-1.36,3.33,0.89,4.15c0.48,0.18,1.78-0.3,2.24-0.51c2.47-1.12,0.51-1.81,4.93,1.05
		c0.37,3.74-0.3,3.34,2.72,2.24c9.01,5.06,10.58,4,16.97,4.66C819.76,565.3,818.85,566.54,815.6,567.52z"/>
	<path d="M677.4,211.92c-0.08-2.6,2.2-1.54,3.92-2.97c-0.35-0.82-0.67-1.61-1.03-2.48c-4.81-2.07-6.19-0.76-8.31-0.99
		c-3.22-0.35-5.27,0.81-7.42,3.34c2.06,0.66,3.09-1.46,4.27-1.58c17.45,3.63-1.89,0.11-2.19,4.95
		C670.13,212.29,673.58,212.82,677.4,211.92z"/>
	<path d="M234.95,45.51c0.46-0.78,0.9-1.53,1.22-2.11c1-0.65,2.3,0.26,2.83-1.06c-0.01-1.93-1.02-3.05-2.9-3.31
		c-8.34-1.14-11.29-0.12-13.49,3.22c2.05,0.57,3.04-1.66,5.05-1.7c1.59,1.52,4.24,0.18,6.28,1.76
		C215.65,45.47,228.22,46.5,234.95,45.51z"/>
	<path d="M216.28,75.25c-5.3-3.49-3.72-1.28-5.35-5.67c-1.07-2.89-2.1-5.67-1.79-8.72c-1.28,3.56-1.27,6.98-0.13,10.42
		c0.74,2.24-0.38,1.53,12.91,9.88C222.09,81.27,228.06,83,216.28,75.25z"/>
	<path d="M536.04,570.5c13.28,3.03,17.25-4.24-0.28-3.62C534.01,566.94,533.52,569.93,536.04,570.5z"/>
	<path d="M665.52,247.45c-0.75-1.67-5.87-4.75-7.52-5.79c-3.86-2.42-4.48-0.5-7.21-14.44c-1.13,12.17,0.57,12.66,8.9,17.83
		C664.57,248.07,664.83,248.68,665.52,247.45z"/>
	<path d="M529.83,593.47c3.15-0.52,6.24-1.01,9.33-1.52c4.02-0.65,3.89,2.68,9.15,2.68c-1.04-2.66-4.25-2.57-5.07-4.89
		c-1.43-0.07-11.37,0.93-13.09,1.85C529.45,591.97,529.4,592.59,529.83,593.47z"/>
	<path d="M202.74,108.71c5.03,2.79,16.17,4.66,19.7,9.6C223.27,113.29,207.7,108.28,202.74,108.71z"/>
	<path d="M664.5,284.95c0.74-5.2-14.16-8.91-19.36-9.86C647.03,278.27,658.71,278.37,664.5,284.95z"/>
	<path d="M193.57,165.39c0.01,0,1.77-0.63,18.2-1.65C215.83,160.17,196.62,162.28,193.57,165.39z"/>
	<path d="M533.58,574.27c-1.06,2.72,6.84,4.1,10.1,0.24c-1.08-1.19-2.28-1.56-3.91-1.13C534.84,574.68,534.7,571.41,533.58,574.27z"
		/>
	<path d="M248.01,69.48c2.82-3.4-8.58-0.16-12.09-0.71c-1.47-0.23-1.86,1.14-2.15,1.66c0.71,0.22,1.19,0.53,1.64,0.49
		C248.87,69.7,247.83,69.68,248.01,69.48z"/>
	<path d="M690.33,235.46c0.07-1.94-4.89-0.66-11.29,0.25c-0.06-0.33,0.32-0.59-2.57,0.2c-0.39,0.11-0.47,1.14-0.09,1.29
		c1.48,0.61,0.4,0.76,11.07-0.65C689.14,236.34,690.3,236.42,690.33,235.46z"/>
	<path d="M682.85,243.01c1.72-0.17,5.43-0.51,5.4-1.68c-0.02-0.8-0.54-1.47-0.72-1.57C681.46,236.09,677.32,243.54,682.85,243.01z"
		/>
	<path d="M240.45,72.37c-1.44,0.25-1.98,1.63-2.48,3.07c4.67,2.4,11.64-0.84,6.57-2.83C243.24,72.11,241.82,72.13,240.45,72.37z"/>
	<path d="M668.71,284.03c1.3,0.59-1.11,1.26,14.34-3.54C690.27,278.24,671.4,280.72,668.71,284.03z"/>
	<path d="M684.38,279.43c-0.01,0.02-0.02,0.05-0.02,0.08C684.48,279.51,684.47,279.53,684.38,279.43z"/>
	<path d="M242.09,113.35c0.3-0.2,1.17-0.93,1.18-0.94c-4.19,0.71-13.28,2.22-16.5,5.01C229.05,117.85,241.54,113.72,242.09,113.35z"
		/>
	<path d="M212.87,77.47c-0.57,1.88,2.21,8.94,2.85,10.24c3.49,7.1-1.72-10.34-1.74-10.44C213.92,77.02,213.04,76.92,212.87,77.47z"
		/>
	<path d="M216.65,95.47c4.72,15.2,5.01,6.99,0.02-4.07C216.08,92.35,215.57,91.99,216.65,95.47z"/>
	<path d="M220.07,103.9c0,0.05,0,0.1-0.01,0.14C220.16,103.95,220.13,104,220.07,103.9z"/>
	<path d="M656.03,243.42c-4.35,1.45,7.69,24,0.97,3.76C655.85,243.72,656.88,243.25,656.03,243.42z"/>
	<path d="M658.09,258.36c0.12,1.43,3.14,14.66,4,10.19c0.32-1.64-0.02-2.76-2.89-9.58C659.11,258.75,658.69,258.66,658.09,258.36z"
		/>
	<path d="M661.88,269.54c-0.1,0.1-0.06-0.02-0.09,0.08C661.92,269.79,661.85,269.73,661.88,269.54z"/>
	<path d="M245.55,61.57c0.54,0.04,1.97-0.63,1.63-1.57c-0.85-2.35-8.09-0.21-6.43,1.91C241.65,63.07,241.52,61.28,245.55,61.57z"/>
	<path d="M687.92,225.9c-2.38,0.1-4.76-0.04-5.33,1.63c-0.31,0.92,0.06,1.17,0.8,1.15C691.7,228.48,689.55,225.83,687.92,225.9z"/>
	<path d="M227.64,93.27c5.14,0.87,7.65-2.02,6.31-3.36C232.03,90.93,230.1,91.96,227.64,93.27z"/>
	<path d="M676.13,256.7c-2.05,0.52-3.56,2.18-5.66,2.61c-0.19,0-0.55,0.58-0.83,0.96C676.86,260.27,676.85,256.52,676.13,256.7z"/>
	<path d="M661.87,269.75c-0.13,1.84,0.51,3.6,0.92,5.38C663.75,279.36,665.21,273.42,661.87,269.75z"/>
	<path d="M538.44,578.98c0.48-0.13,1.12-0.3,1.57-0.3c-0.65-0.43-1.9-1.29-2.6-1.29C535.89,577.38,535.02,579.87,538.44,578.98z"/>
	<path d="M184.85,165.42c-0.22,0.01-0.41,0.45-0.73,0.83c1.42,0.66,2.56,0.43,3.55-0.44C188.04,165.48,188.89,165.19,184.85,165.42z
		"/>
	<path d="M220.33,106.98c0,0.41,0.77,2.55,1.02,3.14C222.72,105.41,218.98,100.82,220.33,106.98z"/>
	<path d="M220.05,104.04c0.02,0.01,0.05,0.02,0.07,0.03C220.13,103.96,220.16,103.95,220.05,104.04z"/>
	<path d="M228.74,99.33c1.2-0.39,1.94-0.71,2-2.06C229.77,97.66,229.14,98.07,228.74,99.33z"/>
	<path d="M671.15,265.59c0.94,0.07,1.4-0.35,1.6-1.16C672.92,263.71,671.33,264.24,671.15,265.59z"/>
	<path d="M686.68,278.69c0.57-0.99-1.23-0.32-2.13,0.7C685.61,279.29,686.22,279.5,686.68,278.69z"/>
	<path d="M684.38,279.42l0.07,0.08C684.52,279.41,684.66,279.36,684.38,279.42z"/>
	<path d="M224.33,123.08c0-0.03-0.12-0.13-0.14-0.15C224.01,123.78,224.24,123.94,224.33,123.08z"/>
	<path d="M665.94,290.3l0.15-0.32C665.81,289.93,665.87,289.85,665.94,290.3z"/>
	<path d="M596.02,566.35c-0.01,0.11-0.03,0.21-0.05,0.33C596.4,566.63,596.4,566.44,596.02,566.35z"/>
	<path d="M243.86,112.04c-0.29,0.29-0.43,0.24,1.08,0.16C244.23,111.84,244.39,111.51,243.86,112.04z"/>
	<path d="M243.45,112.27C243.14,112.33,243.65,112.53,243.45,112.27L243.45,112.27z"/>
	<polygon points="243.45,112.27 243.45,112.27 243.45,112.27 	"/>
	<path d="M243.64,112.26c-0.08,0-0.15,0-0.19,0.01C243.53,112.37,243.53,112.42,243.64,112.26z"/>
	<path d="M239.71,281.8c0.06,0.03,0.07,0.06,0.07-0.07C239.66,281.6,239.71,281.63,239.71,281.8z"/>
	<path d="M250.33,254.59c0.13,0.13,0.08,0.13,0.08-0.09C250.11,254.4,250.06,254.32,250.33,254.59z"/>
	<path d="M99.71,562.29C99.8,562.42,99.89,562.38,99.71,562.29L99.71,562.29z"/>
	<path d="M537.63,460.64c0,0.1,0.03-0.01,0.09,0.32C537.82,460.84,537.83,460.92,537.63,460.64z"/>
	<path d="M190.63,397.4c0.24,6.56,7.39,15.58,3.01,6.41c-3.63-7.6-0.31-25.73-5.2-28.12C191.7,382.72,190.27,387.79,190.63,397.4z"
		/>
	<path d="M188.37,375.52l-0.09,0.08C188.39,375.64,188.54,375.81,188.37,375.52z"/>
	<path d="M166.61,279.32c-16.33,43.45,3.48-0.27,0.83-1.6C167.17,278.23,166.82,278.77,166.61,279.32z"/>
	<path d="M148.64,386.86c-0.97-5.15-2.55-10.13-4.05-15.15C141.11,364.77,152.26,406.03,148.64,386.86z"/>
	<path d="M281.12,350.31c-0.1,0.1-0.28,0.27-0.31,0.43c-5.06,23.71-0.66,22.65-1.31,20.52
		C278.02,366.41,282.42,349.16,281.12,350.31z"/>
	<path d="M281.43,349.79C281.49,349.67,281.45,349.71,281.43,349.79L281.43,349.79z"/>
	<path d="M281.38,349.9c-0.04,0.25-0.02,0.19,0.08,0.08c-0.05-0.05-0.05-0.13-0.03-0.19C281.42,349.82,281.4,349.85,281.38,349.9z"
		/>
	<path d="M279.93,372.35c-0.04,0-0.07-0.01-0.11-0.01C279.87,372.47,279.83,372.47,279.93,372.35z"/>
	<path d="M242.8,407.87c-0.14-2.63-1.03-0.31-3.04-12.35C237.52,382.16,238.15,407.13,242.8,407.87z"/>
	<path d="M233.65,300.83c-4.69-1.11-1.49,4.42,6.79,1.08C240.12,299.66,239.25,302.16,233.65,300.83z"/>
	<path d="M203.92,271.79c-1.68,1.12-1.96-0.08,2.77,8.86C206.21,277.45,206.01,274.25,203.92,271.79z"/>
	<path d="M253.65,371.16c-6.92-5.67-12.4-5.94-8.66-3.94C253.29,371.67,253.28,372.17,253.65,371.16z"/>
	<path d="M289.27,389.74c-0.27-2.73-1.15-5.15-1.98-6.67C281.95,373.28,289.27,391.99,289.27,389.74z"/>
	<path d="M263.11,283.62c0.02,0.12,0.05,0.24,0.07,0.37c0.13,0.19,0.25,0.4,0.39,0.59c-0.26-0.56-0.27-0.69-0.31-0.67
		C263.27,283.87,263.23,283.85,263.11,283.62z"/>
	<path d="M245.22,391.82c8.44,10.62,6.52,5.59,1.13-0.13C246.23,391.56,245.87,391.69,245.22,391.82z"/>
	<path d="M220.1,339.88c-0.82,1.89-0.67,2.68,0.52,5.46C220.75,342.04,221.25,337.23,220.1,339.88z"/>
	<path d="M201.98,360.32c-0.03,0.02-0.05,0.04-0.09,0.06C201.99,360.47,201.98,360.47,201.98,360.32z"/>
	<path d="M203.71,355.36c-0.75,1.39-1.73,3.64-1.73,4.96C203.28,359.61,206.49,354.65,203.71,355.36z"/>
	<path d="M196.56,367.37c-1.25,0-2.57,1.54-2.68,1.76C193.35,369.74,195.05,369.56,196.56,367.37z"/>
	<path d="M196.64,367.25c-0.09,0.18-0.13,0.09,0.1,0.09C196.7,367.1,196.79,367.15,196.64,367.25z"/>
	<path d="M199.56,363.56c-1.09,0.66-1.89,1.52-2.02,2.85C198.52,365.68,199.35,364.84,199.56,363.56z"/>
	<path d="M199.68,363.48c0.09-0.21,0.06-0.14-0.09-0.08C199.56,363.59,199.52,363.6,199.68,363.48z"/>
	<path d="M197.44,366.49C197.15,366.78,197.8,366.22,197.44,366.49L197.44,366.49z"/>
	<path d="M189.94,372.38c-0.1,0.1,1.64,0.01,2.84-2.04C191.56,370.34,190.58,371.41,189.94,372.38z"/>
	<path d="M201.86,360.49c-0.25,0-1.29,0.71-1.91,2.26C199.38,364.15,201.55,362.5,201.86,360.49z"/>
	<path d="M201.96,360.45l-0.07-0.07C201.85,360.54,201.88,360.48,201.96,360.45z"/>
	<path d="M281.83,348.38c0-0.39-0.08-0.88-0.37-1.38C281.46,351.83,281.83,348.49,281.83,348.38z"/>
	<path d="M187.75,375.14c0.59,0.91,0.73-0.12,1.27-1.79C187.47,373.28,187.53,375.14,187.75,375.14z"/>
	<path d="M188.37,375.52c-0.03,0-0.04-0.02-0.06-0.03C188.27,375.62,188.25,375.61,188.37,375.52z"/>
	<path d="M189.02,373.36c0.13,0,0.12,0.02,0.12-0.11C189.02,373.29,189.06,373.23,189.02,373.36z"/>
	<path d="M215.55,292.7c-0.31-0.24-1.34-1.02-1.41-1.09C213.93,292.63,214.54,292.77,215.55,292.7z"/>
	<path d="M159.49,299.32c-0.16,0.31-0.56,1.18-0.57,1.19C159.44,300.28,159.5,299.82,159.49,299.32z"/>
	<path d="M159.58,299.14c0.03-0.15,0.03-0.2-0.09-0.08C159.49,299.34,159.5,299.39,159.58,299.14z"/>
	<path d="M158.84,300.66c0.09-0.24,0.12-0.14-0.09-0.08C158.65,300.84,158.64,300.73,158.84,300.66z"/>
	<path d="M158.16,301.64c0,0.14,0,0.25,0.02,0.39C159.08,299.8,158.17,301.14,158.16,301.64z"/>
	<path d="M158.18,302.03c-0.02,0.05-0.04,0.1-0.06,0.15C158.24,302.29,158.22,302.32,158.18,302.03z"/>
	<path d="M284.86,378.53c0-0.11-0.27-0.38-0.45-0.47C285.24,379.59,285.12,379.12,284.86,378.53z"/>
	<path d="M285.12,379.38c-0.16-0.27-0.14-0.29-0.08,0.09C285.34,379.88,285.34,379.98,285.12,379.38z"/>
	<path d="M284.41,378.07c-0.02-0.06-0.05-0.11-0.08-0.16c0,0-0.01,0.01-0.01,0.01c0.01-0.08-0.1-0.36-0.56-1.68
		c-0.04,0.04-0.07,0.04-0.08,0.08c-0.07-0.1-0.52-0.57-1.58-1.61c-4.52-4.43-1.26-1.04,0.68,0.82c0.47,0.45,0.82,0.77,0.9,0.81
		c0.01,0.11,0.15,0.43,0.57,1.65C284.26,378,284.31,378.01,284.41,378.07z"/>
	<path d="M254.52,276.08l0.13-0.31C254.36,275.75,254.4,275.67,254.52,276.08z"/>
	<path d="M142.31,352.65C142.37,352.56,142.4,352.52,142.31,352.65L142.31,352.65z"/>
	<path d="M196.73,367.17c0.2-0.2,0.42-0.4,0.62-0.6C196.92,366.53,196.7,366.73,196.73,367.17z"/>
	<path d="M192.91,370.22c0.76-0.13,0.69-0.7,0.59-0.7C193.14,369.62,192.87,369.78,192.91,370.22z"/>
	<path d="M193.67,369.37c-0.22,0-0.15,0-0.15,0.12C193.59,369.47,193.6,369.47,193.67,369.37z"/>
	<path d="M192.83,370.24c-0.15,0.22,0.01,0.01,0.08,0.08C192.88,370.22,192.96,370.19,192.83,370.24z"/>
	<path d="M158.2,302.26l-0.08-0.08C157.84,302.34,158.3,302.26,158.2,302.26z"/>
	<path d="M189.14,373.25c0.39-0.09,0.66-0.26,0.61-0.71C189.37,372.63,189.1,372.81,189.14,373.25z"/>
	<path d="M189.79,372.47c0.03,0.03,0.05,0.03,0.11-0.06c-0.05,0-0.1,0.01-0.16,0.02c0,0,0,0,0.01,0.01c-0.01,0,0,0.03,0,0.11
		c0.04-0.01,0.06-0.02,0.09-0.03C189.82,372.49,189.81,372.48,189.79,372.47z"/>
	<path d="M251.23,398.31c0.16,0.17,0.34,0.36,0.51,0.54C251.7,398.55,251.54,398.36,251.23,398.31z"/>
	<path d="M251.11,398.18c-0.29-0.19-0.17-0.16-0.1,0.1C251.19,398.28,251.32,398.39,251.11,398.18z"/>
	<path d="M255.12,402.16c-0.07-0.06-0.15-0.13-0.23-0.2c-0.02,0.02-0.03,0.02-0.04,0.04c-0.04-0.08-0.25-0.35-0.69-0.79
		c-0.48-0.48-0.75-0.73-0.8-0.74c0.01,0,0.03,0,0.04-0.01c-0.25-0.24-0.5-0.49-0.74-0.72c-0.52-0.51,0.4,0.83,0.7,0.73
		c-0.01,0.03,0.21,0.29,0.72,0.83c0.43,0.45,0.68,0.68,0.76,0.72C254.77,402.06,254.8,402.07,255.12,402.16z"/>
	<path d="M251.97,399.08c0.18,0.17,0.36,0.36,0.54,0.53C252.45,399.32,252.28,399.13,251.97,399.08z"/>
	<path d="M251.85,398.96c-0.18-0.18-0.09-0.14-0.09,0.1C252,399.06,252.04,399.15,251.85,398.96z"/>
	<path d="M213.65,291.33c0.22,0.07,0.4,0.11,0.2-0.02C213.83,291.28,213.73,291.32,213.65,291.33z"/>
	<path d="M214.15,291.47c-0.33-0.09-0.21-0.09-0.08,0.1C214.11,291.59,214.11,291.67,214.15,291.47z"/>
	<path d="M239.77,282.04c0,0.07,0.03,0.1,0.06,0.13C240.5,282.17,239.77,281.56,239.77,282.04z"/>
	<path d="M163.96,210.26c-1.09,1.2,2.72,2.73,8.46-0.04C168.75,208.76,164.42,209.75,163.96,210.26z"/>
	<path d="M158.63,114.05c5.92-3.1,0.08-7.13-4.56,2.48C159.64,113.49,158.52,114.16,158.63,114.05z"/>
	<path d="M146.23,125.48c2.09-3.17,3.85-6.01,6.23-8.94C148.71,116.53,146.77,121.74,146.23,125.48z"/>
	<path d="M164.67,204.74c-6.38,0-5.91-0.11-6.78,0.43C155.52,206.65,162.83,208.58,164.67,204.74z"/>
	<path d="M230.1,164.51c2.36-0.47,3.84-1.89,4.67-4.02c0.31-0.79,0.26-0.38-0.74-1.75C233.05,160.63,228.07,164.8,230.1,164.51z"/>
	<path d="M140.73,176.46c-2.35,4.28,3.92,6.71,1.9,2.36C142.23,177.94,142.15,176.82,140.73,176.46z"/>
	<path d="M141.71,131.54c-0.01,0.63,0.04,1.49,0.13,2.75C145.67,127.37,141.76,128.91,141.71,131.54z"/>
	<path d="M163.47,129.6c0,1.11,0,2.18,0,3.35C165.09,131.99,165.05,130.95,163.47,129.6z"/>
	<path d="M145.17,184.21c-0.34,0.73-1.06,1.2,0.42,2.12c0.22,0.14,0.65-0.04,0.91-0.15C147.06,185.89,145.7,184.74,145.17,184.21z"
		/>
	<path d="M159.78,193.93c-0.57,0.55-1.14,1.11-1.82,1.77C159.55,196.1,159.55,196.1,159.78,193.93z"/>
	<path d="M140.65,137.2c1.16-1.11,1.16-1.11,0.49-2.09C140.94,135.95,140.79,136.57,140.65,137.2z"/>
	<path d="M225.72,171.17c0.84-1.01-2.11-2.23-0.67,0.57C225.29,171.52,225.57,171.36,225.72,171.17z"/>
	<path d="M229.1,167.9c0.74-1.49,0.8-1.03-0.17-1.63c-0.22,0.53-0.5,1.09-0.44,1.22C228.59,167.49,228.33,167.37,229.1,167.9z"/>
	<path d="M143.09,182.5c-0.12,0.12-0.01,1.4,1.32,0.59C144,182.6,143.33,181.6,143.09,182.5z"/>
	<path d="M185.65,203.71c0.27-0.72-0.82-0.46-1.14-0.13C183.29,204.82,185.28,204.72,185.65,203.71z"/>
	<path d="M147.37,160.52c-0.41-0.26-1.97,0.36,0.55,1.01C147.77,161.02,147.61,160.67,147.37,160.52z"/>
	<path d="M175.67,208.06c1.07,0.67,0.75,0.58,1.53-0.19C176.28,206.95,175.57,207.96,175.67,208.06z"/>
	<path d="M173.6,107.33c-1.39,0-1.24-0.07-1.24,0.21C173.8,107.61,173.6,107.7,173.6,107.33z"/>
	<path d="M180.62,206.7c1.19-0.51,0.77-0.61,0.41-1.1c-0.26,0.22-0.53,0.46-0.78,0.68C180.37,206.42,180.57,206.72,180.62,206.7z"/>
	<path d="M156.15,198.65c-0.05,0.07,0.18,0.35,0.28,0.52c0.93-0.62,0.81-0.54,0.66-0.84C156.98,198.1,156.91,197.54,156.15,198.65z"
		/>
	<path d="M170.06,201.4c0.94-0.13,0.54-0.5,0.44-0.48C169.53,201.09,169.95,201.4,170.06,201.4z"/>
	<path d="M169.29,140.43c-0.21-0.38-0.09-0.28-0.39-0.13C169.22,140.75,169.13,140.78,169.29,140.43z"/>
	<path d="M227.07,206.24c-1.12,4.87-4.77,17.49-0.86,20.01c1.07-13.61,5.42-23.5,1.65-27.65
		C227.16,202.09,228.14,201.58,227.07,206.24z"/>
	<path d="M249.28,168.55c1.29,0.34,7.35,1.86,9.8,0.27C252.97,165.16,237.28,165.4,249.28,168.55z"/>
	<path d="M225.72,236.61c0.41,2.33,1.09,4.61,1.08,7.07c2.09-1.56,1.61-2.53-0.26-10.76C226.51,232.82,224.7,230.75,225.72,236.61z"
		/>
	<path d="M214.13,227.95c2.84,0,10.91,0.05,9.16-2.21C220.89,226.72,217.6,226.39,214.13,227.95z"/>
	<path d="M225.56,258.49c2.27-2.16,1.44-6.55,0.68-9.99C226.2,249.12,225.62,257.53,225.56,258.49z"/>
	<path d="M259.29,192.78c2.3-0.52,3.22-2.46,4.37-4.15c0.13-0.19-0.06-0.61-0.13-1.13C261.51,188.97,260.89,191.27,259.29,192.78z"
		/>
	<path d="M245.25,204.61c-0.47-2.32-0.52-4.77-2.12-6.73C243.6,200.06,243.62,202.61,245.25,204.61z"/>
	<path d="M234.47,179.65c0.02-0.01,0.01,0-0.06-0.04c0.01,0.02,0.01,0.05,0.01,0.07C234.47,179.71,234.47,179.77,234.47,179.65z"/>
	<path d="M238.94,186.27c0.01,0.06,0.03,0.12,0.04,0.18C239.18,186.66,238.94,186.13,238.94,186.27z"/>
	<path d="M238,183.63c-1.05-1.75-3.64-4.6-3.55-3.46C234.45,180.33,241.47,190.56,238,183.63z"/>
	<path d="M204.9,261.26c-0.02,0.11-0.06,0.14,0.12,0.24C204.95,261.29,204.97,261.3,204.9,261.26z"/>
	<path d="M200.78,257.57c0.86,0.93,4.09,3.84,4.15,3.53C205.42,259.64,197.16,253.04,200.78,257.57z"/>
	<path d="M259.13,201.12c2.98-0.55,2.98-0.55,3.46-2.38C261.32,199.38,259.85,199.51,259.13,201.12z"/>
	<path d="M251.83,239.56c0,1.21-0.9,4.49-0.46,6.93c0.16,0.92,0.09,2.24,1.08-5.49C252.53,240.32,252.48,239.77,251.83,239.56z"/>
	<path d="M251.83,239.56c0.01-0.04,0.01-0.07,0.01-0.11C251.72,239.55,251.72,239.53,251.83,239.56z"/>
	<path d="M252.79,195.13c1.43,0.08,2.44-0.06,3.37-1.17C255.13,193.98,253.91,193.67,252.79,195.13z"/>
	<path d="M240.45,190.03c0.02,0.06,0.03,0.12,0.03,0.19C240.82,190.9,240.45,189.78,240.45,190.03z"/>
	<path d="M239.05,186.56c-0.14,1.97,1.39,3.61,1.39,3.4C240.28,187.58,239.05,186.66,239.05,186.56z"/>
	<path d="M232.31,176.7c0.21,1.31,0.8,2.36,2.11,2.91C234.42,178.27,233.39,177.46,232.31,176.7z"/>
	<path d="M260.22,182.87c0.15-0.11,0.22-0.39,0.44-0.73c-1.18,0.11-0.94-0.22-1.34,0.95C259.31,183.18,260.11,182.92,260.22,182.87z
		"/>
	<path d="M237.17,228.56c1.44,0,1.25,0.09,1.25-0.27C236.92,228.18,237.21,228.1,237.17,228.56z"/>
	<path d="M240.61,190.47c0.02,0.03,0.03,0.06,0.05,0.09C240.65,190.41,240.66,190.47,240.61,190.47z"/>
	<path d="M240.74,191.53c0.47-0.15,0.48,0.04-0.08-0.98C240.66,190.68,240.67,190.94,240.74,191.53z"/>
	<path d="M252.07,234.07c0.34-0.49,0.48-0.99-0.15-1.34C251.91,234.59,251.85,234.37,252.07,234.07z"/>
	<path d="M251.82,232.67c0.11,0.06,0.09,0.1,0.09-0.09C251.63,232.35,251.64,232.3,251.82,232.67z"/>
	<path d="M205.63,229.27c1.07,0,0.93,0.05,0.93-0.16C205.48,229.11,205.63,229.06,205.63,229.27z"/>
	<path d="M251.23,207.89c0.04,0.11,0.33,0.79,0.47,1.14C251.73,208.58,251.62,208.19,251.23,207.89z"/>
	<path d="M251.72,239.21c0-0.03,0-0.04,0-0.06c0,0.04-0.02,0.01-0.04-0.01C251.69,239.16,251.7,239.17,251.72,239.21z"/>
	<path d="M251.68,239.14C251.66,239.11,251.67,239.12,251.68,239.14L251.68,239.14z"/>
	<path d="M251.68,209.31c2.35,0.71,2.41,0.67,0.09-0.1C251.67,208.9,251.71,209.05,251.68,209.31z"/>
	<path d="M251,207.55c0-0.1,0.02-0.06,0-0.16C250.93,206.68,250.1,206.73,251,207.55z"/>
	<path d="M251.03,207.74l0.03-0.03c-0.03,0.03,0.01,0.05,0.18,0.17c-0.04-0.08-0.07-0.16-0.1-0.24
		C250.97,207.53,251.03,207.47,251.03,207.74z"/>
	<path d="M205.62,262c0.04,0.03,0.19,0.15,0.25,0.19C205.83,261.94,205.9,262,205.62,262z"/>
	<path d="M205.61,261.99c-0.19-0.15-0.39-0.32-0.58-0.48C205.03,261.68,205.26,261.97,205.61,261.99z"/>
	<path d="M198.94,255.31c-0.13,0.78,0.64,0.82,0.74,0.72C199.67,255.54,199.52,255.25,198.94,255.31z"/>
	<path d="M198.41,255.1c0.57,0.19,0.47,0.22,0.3-0.32C198.61,254.88,198.51,255,198.41,255.1z"/>
	<path d="M198.86,255.24c0.04,0.08-0.01,0.07,0.08,0.07C198.94,255.22,198.94,255.28,198.86,255.24z"/>
	<path d="M162.62,415.33c-6.89-1.83-6.18-2.48-7.48,10.57c-11.64,5.36-9.24,8.41-2.72,6.75c6.19-1.58,5.05-6.18,6.8-14.59
		c5.45-0.55,4.78-0.34,4.78-0.89C164.05,416.26,163.06,415.45,162.62,415.33z"/>
	<path d="M149.93,448.64c-3.15,0-5.93,15.7-5.73,15.78C145.77,461.27,151.88,449.48,149.93,448.64z"/>
	<path d="M140.6,469.45c-0.87,2.6-1.55,5.18-1.55,7.96c0.01,3.19,5.51-7.95,3.59-9.87C140.99,468.5,140.93,468.46,140.6,469.45z"/>
	<path d="M131.14,434.72c-3.97,2.51-7.27,14.54-5.19,10.98C132.3,434.81,132.02,435.6,131.14,434.72z"/>
	<path d="M143.14,418.02c-5.75-5.8-6.12,2.87,1.58,2.7C145.59,420.7,146.47,421.37,143.14,418.02z"/>
	<path d="M135.49,487.73c-1.68-0.14-1.96,2.8-1.51,4.69C137.13,489.94,136.53,487.82,135.49,487.73z"/>
	<path d="M136.84,485.32c1.49-2.14,2.12-3.72,1.37-5.68C136.05,480.59,136.1,481.33,136.84,485.32z"/>
	<path d="M121.79,525.59c-0.08,2.91,2.33,0.53,1.31-3.02C122.16,524.28,121.81,524.92,121.79,525.59z"/>
	<path d="M134.52,494.46c-1.02-0.41-1.38,0.81-1.73,1.85C135.02,496.95,135.23,494.74,134.52,494.46z"/>
	<path d="M117.62,460.62c0.88-1.41,1.48-2.88,1.35-4.54C118.28,457.36,117.26,458.56,117.62,460.62z"/>
	<path d="M120.96,453.1c0.88,0,1.15-0.65,1.36-1.44C121.25,451.44,121.25,451.44,120.96,453.1z"/>
	<path d="M124.13,519.37c0.61-0.7,0.84-0.96,1.08-1.22C124.46,517.97,124.73,517.59,124.13,519.37z"/>
	<path d="M127.23,513.16c0.52-0.48,0.46-0.22,0.11-0.96C127.06,512.52,127.07,512.27,127.23,513.16z"/>
	<path d="M323.38,202.27c1.05,0.24,4.14,0.32,4.92-1.35c-0.91-0.72,0.59-0.5-7.6-0.84C321.96,201.51,322.54,202.07,323.38,202.27z"
		/>
	<path d="M270.28,164.83c1.8,3.06,3.99,2.39,1.38-1.98C269.49,159.19,268.36,161.57,270.28,164.83z"/>
	<path d="M282.3,132.4c0.48-2.27-0.3-6.38-3.18-7.06C280.38,127.23,281.6,135.67,282.3,132.4z"/>
	<path d="M300.68,148.81c-1.55-2.13-1.55-2.13-3.22-2C298.43,148.66,299,149.46,300.68,148.81z"/>
	<path d="M320.52,208.15c1.35,0.07,2.16,1.03,3.93,0.02C321.58,207.08,321.58,207.08,320.52,208.15z"/>
	<path d="M315,204.71c0.98,1.34,0.97,1.31,2.38,1.23C316.8,205.1,316.18,204.48,315,204.71z"/>
	<path d="M264.14,115.09c-0.84-0.46-1.65-1.46-2.9-0.08C263.55,115.28,263.02,115.28,264.14,115.09z"/>
	<path d="M277.16,171.97c0,1.95,1.88,1.75,1.41,0.83C278.32,172.3,278.1,171.7,277.16,171.97z"/>
	<path d="M274,168.21c-0.24,0.92,0.5,1.16,1.52,1.35C274.8,168.72,274.79,168.03,274,168.21z"/>
	<path d="M294.54,145.92c0.5-0.5-2.26-1.81-0.65,0.27C294.15,146.08,294.45,146.03,294.54,145.92z"/>
	<path d="M318.72,200.02c-1.2,0.06-0.63,1.45,0.6,0.73C319.94,200.4,319.1,200,318.72,200.02z"/>
	<path d="M315.72,199.6c-1.45-0.22-1.17-0.3-1.29,0.28C315.89,199.89,315.44,200.57,315.72,199.6z"/>
	<path d="M288.12,433.88c-3.41,1.44,8.82,13.61,7.43,17.31c-0.68,1.8,0.07,2.89,3.08,12.18
		C301.33,459.61,292.96,436.04,288.12,433.88z"/>
	<path d="M297.82,466.97c0.34,1.65-0.33,3.54,1.32,5.2C299.82,470.07,299.39,466.25,297.82,466.97z"/>
	<path d="M293.79,419.95c0.68-0.98,0.87-1.87,0.03-3.2c-2.11,0.78-1.74,0.43-1.57,1.03C292.54,418.75,292.37,419.87,293.79,419.95z"
		/>
	<path d="M303.45,502.38c-0.12,0.26-0.19,0.52-0.2,0.75C302.96,506.78,307.64,504.23,303.45,502.38z"/>
	<path d="M302.18,494.3c0.2,1.43,0.04,2.65,1.2,4C304.09,495.98,304.02,495.85,302.18,494.3z"/>
	<path d="M306.04,509.83c0.12-0.02,0.18-0.29,0.4-0.83c-0.28-0.24-0.61-0.54-0.94-0.83c-0.16,0.3-0.47,0.59-0.45,0.86
		C305.1,509.57,305.45,509.95,306.04,509.83z"/>
	<path d="M298.13,474.28c-0.09,0-0.08,1.37,0.19,1.14c0.74-0.51,0.51-0.58,0.51-1.4C298.49,474.15,298.16,474.2,298.13,474.28z"/>
	<path d="M296.83,481.76c0.19,0.34,0.1,0.31,0.59-0.04C297.04,481.57,297.2,481.53,296.83,481.76z"/>
	<path d="M87.75,590.98c2,0.17,0.92,0.03,5.84-1.04c9.13-1.98,9.2,3.59,10.55,2.95c0.63-0.3,1-0.91,0.72-1.58
		C100.85,581.72,82.18,590.98,87.75,590.98z"/>
	<path d="M99.71,562.39c-7.45,2.48,5.38,7.01,8.1,3.21c-1.75-1.35-3.45-2.52-5.72-2.57C99.61,562.97,100.02,562.39,99.71,562.39z"/>
	<path d="M103.04,570.52c1.3-1.16,0.75-1-0.68-1.43c-3.65-1.1-4.4-1.54-5.34-0.24C95.8,570.53,100.49,572.78,103.04,570.52z"/>
	<path d="M703.36,396.96c3.05-3.92-20.1,13.13-24.95,14.8c-0.1,0.06,22.83-19.05,19.64-21.44c-8.36,9.55,1.14,1.55-25.01,23.79
		C653.87,430.42,701.55,399.68,703.36,396.96z"/>
	<path d="M676.78,408.01c-1.15-3.21-6.84-0.52-18.82,2c-13.6,2.86-3.96,4.11-17.99,0.15c-0.51-0.14-0.99-0.18-1.29,0.76
		c3.21,2.47,7.31,2.72,10.38,3.85C674.7,408.49,676.18,409.93,676.78,408.01z"/>
	<path d="M707.25,405.46c0.78-1.65,3.63-1.01-34.49,16.9C640.74,437.41,703.59,413.21,707.25,405.46z"/>
	<path d="M705.47,419.24c-8.16,0.48-42.18,13.61-41.66,17.55C690,422.35,703.43,422.53,705.47,419.24z"/>
	<path d="M701.5,429.25c-47.31,12.97,20.11-1.27,20.78-5.35c-0.1,0.03-11.68,3.81-12.15,3.95
		C705.01,429.31,705.73,428.09,701.5,429.25z"/>
	<path d="M684.58,434.49c-0.04,0.01-0.07,0.02-0.11,0.02C684.54,434.62,684.5,434.6,684.58,434.49z"/>
	<path d="M644.47,441.99c-1.52-1.11-0.71-0.03-0.5,0.07c0.59,0.28-0.25,0.7-1.37,0.26c-3.68-1.43-15.41-6.58-18.72-5.27
		c4.05,1.59,23.42,8.34,23.72,8.41C650.29,446.19,647.44,442.68,644.47,441.99z"/>
	<path d="M674.42,448.89c-0.92-0.79-2.09-1.29-3.14-1.28c-5.85,0.03-6.67-2.99-11.94-3.59c4.08,2.72,25.63,13.91,24.05,12.26
		C680.33,453.07,668.67,448.89,674.42,448.89z M671.14,448.43l0.24,0.03C671.2,448.72,671.27,448.72,671.14,448.43z"/>
	<path d="M674.41,448.88c0.04,0.03,0.08,0.06,0.12,0.1C674.64,448.85,674.67,448.88,674.41,448.88z"/>
	<path d="M630.15,422.37C630.14,422.33,629.85,422.17,630.15,422.37L630.15,422.37z"/>
	<path d="M630.14,422.39h0.03c-0.01,0-0.01-0.01-0.02-0.01C630.16,422.38,630.15,422.39,630.14,422.39z"/>
	<path d="M643.43,431.93c-11.55-9.42-9.23-7.49-13.24-9.49C632.92,429.9,647.68,435.4,643.43,431.93z"/>
	<path d="M632.52,456.41c3.57-0.58,15.5-4.18,16.96-7.5c-3.5,0.63-2.97,1.81-12.86,4.8C632.72,454.89,630.25,456.78,632.52,456.41z"
		/>
	<path d="M688.04,333.95c1.81,1.04,7.23,2.57,12.9,2.26c-0.08-1.03-0.67-1.52-1.44-1.78C699.4,334.43,682.08,330.55,688.04,333.95z"
		/>
	<path d="M674.62,448.88c-0.11,0.13-0.15,0.1,0.18,0.13C674.74,448.96,674.69,448.92,674.62,448.88z"/>
	<path d="M709.08,449.19c-6.27,0.98-18.43,1.7-19.21,1.98c-0.28-0.17-0.22-0.13-0.27-0.14c-4.87,0-12.34-2.01-14.8-2.01
		c2.49,1.84,12.05,4.13,15.73,4.23c0.46,0.01,0.93-0.48,1.53-0.81c-1.16-0.66-1.76-1.01-2.07-1.2c0.56,0.07,2.75,0.07,7.33,0.02
		C710.58,451.09,716.75,447.98,709.08,449.19z"/>
	<path d="M653.49,418.57c0.09,10.3,0.09,9.06,0.8,6.79C656.13,419.47,653.46,415.19,653.49,418.57z"/>
	<path d="M652.09,432.29c3.17,3.17,2.15,6.95,2.15,9.46c1.39-3.44,2.04-5.25-0.88-9.45C652.97,431.73,652.68,431.62,652.09,432.29z"
		/>
	<path d="M632.59,398.56c0,0.1,0.35,0.05,0.88,0.11c-0.37-2.21-0.45-4.56-2.31-6.86C631.22,393.9,631.66,396.69,632.59,398.56z"/>
	<path d="M704.81,338.31c0.39,0.15,0.95-0.02,1.99-0.08c-0.99-0.7-1.41-1.17-1.87-1.27C699.76,335.79,699.99,336.4,704.81,338.31z"
		/>
	<path d="M701.16,336.32c-0.07-0.09-0.09-0.12-0.11-0.12c0.02-0.02-0.01-0.02-0.09-0.02c0,0.04-0.01,0.07,0.01,0.1
		C701.03,336.29,701.1,336.3,701.16,336.32z"/>
	<path d="M653.41,450.92c0.84-1.25-0.39-2.18-0.24-3.22C654.01,441.87,652.24,446.12,653.41,450.92z"/>
	<path d="M640.72,422.1c2.14,0.71-4.72-4.53-2.53-1.94C639.01,420.98,638.66,421.07,640.72,422.1z"/>
	<path d="M641.36,422.41c0.15,0.15,0.04,0.07,0.09-0.08C641.23,422.26,641.21,422.21,641.36,422.41z"/>
	<path d="M637.67,419.52c-0.11-0.14-0.07-0.08-0.15-0.12C637.52,419.5,637.5,419.48,637.67,419.52z"/>
	<path d="M633.94,416.44c0.03,0.06,0.25,0.44,0.26,0.46C637.89,420.59,637.19,417.38,633.94,416.44z"/>
	<path d="M685.98,375.68c-0.57-0.24-0.43-0.74-0.43,2.69C685.75,378.37,685.64,378.7,685.98,375.68z"/>
	<path d="M633.73,416.31c-0.44-0.82-1.2-1.17-2.04-1.42C631.98,415.93,632.69,416.36,633.73,416.31z"/>
	<path d="M633.87,416.32C633.59,416.32,633.97,416.55,633.87,416.32L633.87,416.32z"/>
	<path d="M630.27,417.39c0.57,0.68,1.09,1.21,1.95,1.15C630.99,417.3,629.93,417.05,630.27,417.39z"/>
	<path d="M632.22,418.54c0.03,0.03,0.05,0.05,0.07,0.08C632.43,418.49,632.42,418.54,632.22,418.54z"/>
	<path d="M648.3,435.66c0.32,0-0.53-1.11-1.56-1.11C646.84,435.36,647.4,435.59,648.3,435.66z"/>
	<path d="M646.59,434.47c-0.47-0.83-1.19-1.26-2.12-1.4C644.84,434.05,645.54,434.52,646.59,434.47z"/>
	<path d="M644.3,432.97c0.09,0.09-0.02,0.05,0.17,0.1C644.45,432.98,644.44,432.93,644.3,432.97z"/>
	<path d="M646.65,434.55c0.12,0,0.14-0.08-0.05-0.08C646.61,434.5,646.63,434.52,646.65,434.55z"/>
	<path d="M706.13,394.85c0.68-0.68-1.22-0.34-1.94,1.06C705.06,395.92,705.63,395.45,706.13,394.85z"/>
	<path d="M704.06,395.9c-0.17,0.21-0.12,0.18,0.07,0.08C704.16,395.9,704.23,395.9,704.06,395.9z"/>
	<path d="M682.32,435.26c0.02,0,0.42,0.03,0.44,0.03C685.94,435.29,683.29,433.51,682.32,435.26z"/>
	<path d="M684.51,434.59l-0.05-0.07C684.43,434.58,684.39,434.59,684.51,434.59z"/>
	<path d="M680.74,435.98c0.61,0.01,1.05-0.05,1.39-0.64C680.91,435.32,679.36,435.95,680.74,435.98z"/>
	<path d="M682.18,435.26C682.07,435.48,682.52,435.26,682.18,435.26L682.18,435.26z"/>
	<path d="M653.59,443.47c0,0.03-0.05,0.61-0.08,0.79c-0.14,0.08-0.15,0.03-0.15,0.62c0.1-0.38,0.11-0.31,0.16-0.62
		c0.73-0.46,0.59-1.19,0.59-2.04C654.11,442.04,653.59,442.75,653.59,443.47z"/>
	<path d="M654.12,441.98c-0.05,0.31,0.01,0.15,0.09,0.08C654.21,441.53,654.24,441.74,654.12,441.98z"/>
	<path d="M663.74,389.93c-0.04,0.08-0.1,0.16-0.1,0.23C663.64,390.97,663.7,390.36,663.74,389.93z"/>
	<path d="M622.56,410.11c0.67,0.24,0.52,0.17,0.75,0.32C623.19,410.21,623.32,410.25,622.56,410.11z"/>
	<path d="M662.53,396.93c-0.11-0.01-0.22,0.08-0.34,0.13C662.61,397.48,663.04,396.98,662.53,396.93z"/>
	<path d="M684.68,457.1c0.81,0.07-0.77-0.5-0.88-0.5C683.84,456.6,684.02,457.1,684.68,457.1z"/>
	<path d="M685.23,457.18l0.1-0.1C684.97,457.12,684.96,457.07,685.23,457.18z"/>
	<path d="M683.81,456.6c-0.04-0.06-0.07-0.11-0.1-0.17c-0.16,0-0.25-0.03-0.08,0.1l0.02-0.03
		C683.63,456.54,683.65,456.55,683.81,456.6z"/>
	<path d="M679.85,436.09c0.07-0.02,0.1-0.02,0.11-0.03l0.01,0.01c0.11-0.14,0.22-0.11-0.1-0.11
		C679.88,436.01,679.86,436.05,679.85,436.09z"/>
	<path d="M679.85,436.09c-0.33,0.07-0.64,0.14-0.97,0.21C679.38,436.5,679.73,436.64,679.85,436.09z"/>
	<path d="M630.19,414.27c0.06,0.12,0.14,0.21,0.23,0.3C630.62,414.73,632.52,415.23,630.19,414.27z"/>
	<path d="M631.57,414.85c0.19,0.05,0.13,0.09,0.09-0.1C631.42,414.81,631.34,414.75,631.57,414.85z"/>
	<path d="M676.36,437.58c0.31-0.24,0.34-0.22-0.16-0.03C675.02,438.14,676.26,437.64,676.36,437.58z"/>
	<path d="M629.9,414c-0.12-0.22-0.36-0.41-0.49-0.41C628.54,413.32,628.63,413.45,629.9,414z"/>
	<path d="M630.09,414.08c-0.29-0.14-0.16-0.09-0.1,0.1C630.31,414.35,630.14,414.25,630.09,414.08z"/>
	<path d="M672.79,438.93C668.54,440.53,671.72,440.01,672.79,438.93L672.79,438.93z"/>
	<path d="M643.47,441.08c-0.03-0.03-0.12-0.02-0.18-0.03C643.39,441.1,643.61,441.22,643.47,441.08z"/>
	<path d="M643.61,441.35c0.15,0.1,0.03,0.08,0.1-0.09C643.61,441.35,643.38,440.9,643.61,441.35z"/>
	<path d="M706.7,394.28c0.04-0.04,0.01-0.16,0.01-0.21C706.56,394.39,706.63,394.38,706.7,394.28z"/>
	<path d="M706.51,394.58c0.13-0.3,0.15-0.26-0.1-0.09C706.32,394.62,706.32,394.55,706.51,394.58z"/>
	<path d="M677.68,400.46c0.05-0.1,0.11-0.13-0.06-0.08C677.55,400.62,677.53,400.61,677.68,400.46z"/>
	<path d="M641.44,422.51c-0.01,0.4,0.18,0.57,0.56,0.59C641.91,423,641.45,422.41,641.44,422.51z"/>
	<path d="M642,423.1c0.03,0.03,0.06,0.06,0.09,0.09C642.2,423.09,642.23,423.1,642,423.1z"/>
	<path d="M628.78,413.5c-0.2-0.09-0.33-0.18-0.41-0.25C628.45,413.54,628.28,413.5,628.78,413.5z"/>
	<path d="M628.36,413.21c-0.05-0.26-0.2-0.16,0.01,0.04C628.37,413.24,628.36,413.22,628.36,413.21z"/>
	<path d="M629.96,417.16l0.05,0.08C630.3,417.29,629.87,416.98,629.96,417.16z"/>
	<path d="M625.45,419.36c-0.19-0.14-0.2-0.17-0.04,0.03C625.56,419.51,625.72,419.67,625.45,419.36z"/>
	<path d="M632.88,419.36c-0.17-0.22-0.34-0.42-0.5-0.64C632.35,419.08,632.54,419.27,632.88,419.36z"/>
	<path d="M633.06,419.4c-0.04,0-0.15-0.03-0.18-0.05C632.99,419.51,633.29,419.69,633.06,419.4z"/>
	<path d="M632.4,418.53c-0.1,0.1-0.12,0.08-0.01,0.19C632.38,418.66,632.38,418.6,632.4,418.53z"/>
	<path d="M637.51,419.39c0.1,0,0.09-0.61-0.63-0.72C636.87,419.04,636.93,419.31,637.51,419.39z"/>
	<path d="M636.87,418.68c0-0.12,0.02-0.09-0.13-0.13C636.78,418.62,636.8,418.68,636.87,418.68z"/>
	<path d="M647.68,419.91c0.32-0.1,0.32-0.04,0.03-0.22L647.68,419.91z"/>
	<path d="M685.23,457.18c0.07,0.11,0.12,0.29,0.12,0.18C685.29,457.08,685.42,457,685.23,457.18z"/>
	<path d="M642.74,423.84c-0.17-0.18-0.35-0.37-0.53-0.55C642.23,423.63,642.42,423.8,642.74,423.84z"/>
	<path d="M642.2,423.29c-0.02-0.06-0.03-0.11-0.02-0.18C642.08,423.21,642.08,423.17,642.2,423.29z"/>
	<path d="M642.95,424.04c-0.02,0.2-0.03,0.42-0.04,0.62C643.7,424.66,643.67,424.8,642.95,424.04z"/>
	<path d="M642.85,423.94c0.1,0.1,0.1,0.17,0.1-0.09C642.7,423.85,642.67,423.77,642.85,423.94z"/>
	<path d="M642.91,424.66c-0.04,0-0.07,0-0.11,0c0.01,0.01,0.02,0.02,0.03,0.03c0.01,0.01,0.02,0.02,0.04,0.06c0,0,0.02,0,0.03,0.01
		c-0.01-0.01,0,0-0.01-0.01C642.9,424.76,642.89,424.73,642.91,424.66z"/>
	<path d="M611.56,377.82c1.5-0.2,1.49-0.24,2.95-1.49C607.42,374.34,601.66,379.16,611.56,377.82z"/>
	<path d="M599.91,278.32c-5.51,5.35-2.79,4.84,1.92,1.51C605.11,277.5,602.07,276.22,599.91,278.32z"/>
	<path d="M607.53,370.98c-2.96,0.38-5.49-0.75-8.23,1.48C604.08,374.56,606.1,372.49,607.53,370.98z"/>
	<path d="M672.31,330.69c0.96,0.61,4.03-0.96,5.08-4.18c0.07-0.22-0.46-0.64-0.89-1.2C675.21,327.41,671.37,330.21,672.31,330.69z"
		/>
	<path d="M589.17,290.04c0-0.25,0.12-0.26-0.1-0.09c0,0.05,0,0.09,0,0.12C589.08,290.02,589.11,289.98,589.17,290.04z"/>
	<path d="M589.07,290.06C589.05,290.12,589.07,290.18,589.07,290.06L589.07,290.06z"/>
	<path d="M589.2,289.83c2.11-1.8,3.69-4.5,5.27-6.16C592.13,282.5,589.46,287.21,589.2,289.83z"/>
	<path d="M584.07,347.21c0.35,0.53,2.58,0.9,0.33-3.52C583.86,342.64,580.68,342.11,584.07,347.21z"/>
	<path d="M584.66,298.98c0.77-0.98,1.02-1.92,0.51-3.23C583.65,297.31,583.87,299.98,584.66,298.98z"/>
	<path d="M587.35,351.75c-0.03,1.05,0.89,0.91,1.96,0.68C587.47,350.52,587.39,350.13,587.35,351.75z"/>
	<path d="M600.73,361.93c-0.05,0.81,1.26,1.08,2.1-1.1C601.71,360.1,600.73,361.29,600.73,361.93z"/>
	<path d="M667.64,337.92c0.53-0.09,0.87-0.47,0.65-1c-0.1-0.25-0.5-0.4-1-0.78C667.19,336.93,666.86,338.06,667.64,337.92z"/>
	<path d="M671.87,333.5c0.74-1.48-2.23-0.69-0.44,0.91C671.58,334.07,671.72,333.78,671.87,333.5z"/>
	<path d="M628.1,369.86c-1.32-0.07-0.88-0.23-1.7,0.94C628.03,370.7,627.59,370.9,628.1,369.86z"/>
	<path d="M589.87,327.83c0.12,0,0.29-0.25,0.47-0.41c-0.1-0.08-0.66-0.6-0.82-0.6C589.41,326.81,588.37,327.59,589.87,327.83z"/>
	<path d="M619.91,374.32c-1.26-0.58-0.79-0.82-1.82,0.08C619.1,374.91,618.68,374.99,619.91,374.32z"/>
	<path d="M585.54,349.03c1.02,1.13,0.88,0.85,1.44,0.07c-0.38-0.21-0.71-0.43-1.09-0.58C585.85,348.5,585.51,348.99,585.54,349.03z"
		/>
	<path d="M599.63,364.94c0.04-0.11-0.21-0.35-0.33-0.52c-0.86,0.79-0.78,0.65-0.65,0.8C598.91,365.52,599.22,366.01,599.63,364.94z"
		/>
	<path d="M616.03,273.77c-1.47,0-1.26-0.07-1.26,0.21C616.23,273.98,616.03,274.05,616.03,273.77z"/>
	<path d="M623.87,372.3c-0.64-0.42-0.45-0.32-1.49,0.32C623.47,373.64,624,372.39,623.87,372.3z"/>
	<path d="M589.07,290.15c-0.12,0.12-0.11,0.12-0.14,0.15C588.66,290.62,589.07,291.73,589.07,290.15z"/>
	<path d="M613.17,367.57c-0.76-0.29-0.58-0.33-0.93-0.02C613.01,367.88,612.84,367.87,613.17,367.57z"/>
	<path d="M583.56,302.46l-0.19,0.09C583.59,302.73,583.53,302.75,583.56,302.46z"/>
	<path d="M542.59,439.04c4.97,0.03,4.57-0.05,5.66-0.98c-3.04-0.62-5.93-1.22-8.8-1.8C535.66,438.94,534.64,439,542.59,439.04z"/>
	<path d="M572.31,447.83c5.01,2.62,11.95-0.64,11.38-3.48C580.71,444.48,583.92,445.68,572.31,447.83z"/>
	<path d="M557.02,484.01c1.2-2.13,3.6-8.83,2.13-10.78C557.3,476.11,556.97,480.58,557.02,484.01z"/>
	<path d="M563.63,456.97c1.86-1.86,3.77-5.21,3.2-8.66C565.7,448.27,565.75,448.33,563.63,456.97z"/>
	<path d="M563.44,457.18c-0.14,0.17-0.18,0.19,0.1,0.11C563.68,456.81,563.66,456.93,563.44,457.18z"/>
	<path d="M563.31,457.35c-3.15,0.76-5.23,4.37-5.55,7.61C563.3,457.38,563.41,457.35,563.31,457.35z"/>
	<path d="M565.64,445.58c-1.73-0.63-3.19-1.71-5.14-1.84C561.58,445.89,564.86,447.88,565.64,445.58z"/>
	<path d="M557.05,490.64c-0.06-0.82-2.02-1.5-0.91,1.54C557.13,494.86,557.46,496.6,557.05,490.64z"/>
	<path d="M539.95,467.3c-0.58-1.34-1.05-2.42-1.52-3.51C538.16,465.84,538.16,465.84,539.95,467.3z"/>
	<path d="M557.98,500.3c0.78-2.98-2.96-1.76-0.49,0.17C557.74,500.67,557.89,500.62,557.98,500.3z"/>
	<path d="M558.83,525.65c-0.49,0.89-0.54,0.64,0.35,1.31C559.45,526.23,559.67,526.58,558.83,525.65z"/>
	<path d="M554.77,471.28c0.38-0.78,0.69-1.43,1.01-2.09C554.67,469.52,554.15,470.13,554.77,471.28z"/>
	<path d="M586.47,442.07c0.12,0.6,0.08,0.45,1.35-0.75C587.06,441.32,586.32,441.32,586.47,442.07z"/>
	<path d="M552.46,442.09c0,0.72,0,1.29,0,1.88C553.48,443.11,553.48,443.11,552.46,442.09z"/>
	<path d="M559.32,534.2c0.32,0.16,0.23,0.47,0.17-1.98C559.49,532.62,557.72,533.4,559.32,534.2z"/>
	<path d="M557.11,504.04c-0.01,0.59,0.24,0.92,1.02,0.83C557.16,503.41,557.13,503.12,557.11,504.04z"/>
	<path d="M558.89,437.99c-0.84-0.65-1.48-1.09-0.49,0.51C558.54,438.37,558.67,438.23,558.89,437.99z"/>
	<path d="M557.31,433.64c0.15-0.75,0.35-0.41-0.74-1.26C556.49,433.28,556.16,432.96,557.31,433.64z"/>
	<path d="M552.79,474.49c-0.13,2.19,1.68,0.15,0.55-0.99C552.97,473.82,552.81,474.15,552.79,474.49z"/>
	<path d="M537.96,461.38c0.1,0.1-0.03-0.09-0.15-0.51C537.72,460.97,537.66,460.92,537.96,461.38z"/>
	<path d="M560.21,443.36c0.01,0.01,0.03,0.03,0.06,0.08C560.22,443.37,560.19,443.33,560.21,443.36z"/>
	<path d="M560.27,443.44C560.25,443.27,560.25,443.32,560.27,443.44L560.27,443.44z"/>
	<path d="M560.33,443.74c0.22,0,0.18,0.09,0.09-0.09C560.21,443.37,560.25,443.33,560.33,443.74z"/>
	<path d="M784.62,433.69c0.76-0.63,0.16-1.37-0.59-2.01c-3.9,4.8-16.71,4.75-28.58,5.45c0.94,0.56,1.69,1.52,4.33,0.95
		C768.16,436.25,775.95,440.86,784.62,433.69z"/>
	<path d="M775.02,473.39c-0.16,0.17-0.29,0.44-0.31,0.67c-0.47,6.11-5.99,14.79-5.4,14.79C777.17,483.4,777.48,470.78,775.02,473.39
		z"/>
	<path d="M787.25,428.85c1.17-1.14,1.89-2.34,1.57-3.96c-2.18-10.87-1.22-8.68-4.5-10.57c0.6,1.8,3.58,10.76,3.61,10.87
		C787.68,426.33,785.82,427.16,787.25,428.85z"/>
	<path d="M775.19,460.79c0.33,1.71,1.61,8.47,1.94,10.15C778.37,465.8,777.13,457.32,775.19,460.79z"/>
	<path d="M798.01,426.84c-1.41-0.95-2.15,1.73-3.06,4.04C798.5,430.61,799.25,427.68,798.01,426.84z"/>
	<path d="M766.58,491.79c0.01-0.71-1.47-1.3-3.18,3.75C764.93,494.33,766.55,493.77,766.58,491.79z"/>
	<path d="M779.2,412.33c-0.03-1.42-3.69-3.27-1.46-0.24C778.36,412.91,779.21,412.53,779.2,412.33z"/>
	<path d="M757.06,499.26c0.17-0.05,0.3-0.3,0.53-0.55C755.46,497.29,756.11,499.53,757.06,499.26z"/>
	<path d="M761.22,494.58c-0.1,0-0.55,0.42-0.92,0.73C761.49,496.44,762.09,494.4,761.22,494.58z"/>
	<path d="M748.62,436.1c-0.27,0.06-0.55,0.11-0.88,0.16C747.62,436.26,748.41,436.98,748.62,436.1z"/>
	<path d="M754.59,516.69c0.31-0.73,0.36-0.44-0.15-0.92C754.1,516.56,754.09,516.3,754.59,516.69z"/>
	<path d="M753.7,519.68c-0.31,0.31-0.3,0.05-0.05,0.84C754.18,520.08,754.14,520.26,753.7,519.68z"/>
	<path d="M768.9,489.02c-0.26,0-0.29,0.18-0.19,0.32C768.7,489.85,769.3,489.02,768.9,489.02z"/>
	<path d="M769.16,488.96c-0.03,0.06-0.08,0.08,0.07,0.08C769.38,488.74,769.27,488.89,769.16,488.96z"/>
	<path d="M748.75,436.09c0.19-0.18,0.23-0.16-0.09-0.09C748.62,436.18,748.61,436.09,748.75,436.09z"/>
	<path d="M763.39,366.59c0.77,1.96,2.12,2.19,4.04,2.17c2.12-0.02,2.42-0.2,3.2-1.84C768.16,366.52,765.88,366.55,763.39,366.59z"/>
	<path d="M712.08,326.98c-0.74,5.46,3.66,6.71,3.26,5.37C715.33,332.25,714.54,329.2,712.08,326.98z"/>
	<path d="M722.37,292.68c1.19,6.58,0.82,5.1,1.89,6.44C724.52,295.74,724.32,295.05,722.37,292.68z"/>
	<path d="M743.13,315.12c-1.71-2.16-1.71-2.16-3.45-1.84C740.47,314.69,742.11,316.36,743.13,315.12z"/>
	<path d="M763.04,374.41c1.29,0.43,2.26,1,3.42,0.03C765.35,374.61,764.28,372.47,763.04,374.41z"/>
	<path d="M760.11,372.43c-1.7-1.5-0.87-0.99-3.05-1.61C757.93,372.23,758.59,372.79,760.11,372.43z"/>
	<path d="M719.65,338.74c0.39,1.13,0.8,1.64,1.54,0.54c-0.41-0.35-0.82-0.7-1.24-1.06C719.84,338.39,719.61,338.62,719.65,338.74z"
		/>
	<path d="M737.26,312c-1.55-0.79-1.17-0.68-1.53-0.41C736.76,312.81,736.44,312.66,737.26,312z"/>
	<path d="M716.38,334.85c0.4,1.05,0.6,0.89,0.86,0.83c0.49-0.1,0-0.62-0.42-1.19C716.56,334.7,716.61,334.62,716.38,334.85z"/>
	<path d="M704.87,281.05c-0.32,0-2.99,0.49,1.87,0.49C705.55,281.22,705.21,281.06,704.87,281.05z"/>
	<path d="M757.14,366.13c0.55,0.69,0.61,0.42,1.09,0.18c-0.17-0.21-0.34-0.43-0.49-0.62C756.86,366.06,757,365.95,757.14,366.13z"/>
	<path d="M760.75,366.52c-0.47-0.01-0.06,0.71,0.05,0.71C762.29,367.24,762.76,366.55,760.75,366.52z"/>
	<path d="M653.15,329.49c0.56-0.44-2.47-2.65-17.45,2.41c0.38,0.06,0.93,0.29,1.29,0.17C644.03,329.85,650.59,331.51,653.15,329.49z
		"/>
	<path d="M625.71,333.06c4.98,0,3.19,0.21,5.05-1.18C628.84,331.88,627.54,331.34,625.71,333.06z"/>
	<path d="M643.63,424.79c-0.27,0.4-1.53-0.08-8.68-4.54c-0.11-0.07-3.13-1.89-0.43,0.72c0.35,0.34,13.17,8.86,13.91,8.63
		C648.35,428.81,649.25,429.79,643.63,424.79z"/>
	<path d="M643.69,424.66l0.01-0.01c-0.23,0-0.21-0.03-0.07,0.11C643.65,424.74,643.67,424.71,643.69,424.66z"/>
</g>
</svg>
