<?xml version="1.0" encoding="utf-8"?>
<!-- Generator: Adobe Illustrator 23.0.1, SVG Export Plug-In . SVG Version: 6.00 Build 0)  -->
<svg version="1.2" baseProfile="tiny" id="Layer_1" xmlns="http://www.w3.org/2000/svg" xmlns:xlink="http://www.w3.org/1999/xlink"
	 x="0px" y="0px" viewBox="0 0 900 600" xml:space="preserve">
<g>
	<path d="M371.37,350.03c30.98-5.74,33.54-53.69,6.52-64.5c-4.52-1.81-8.68-1.93-15.18-2.24c-4.16-5.72,1.85-41.5-0.82-47.28
		c2.27-9.95,3.23-11.91,2.34-15.9c-5.48-24.5-6.36-10.8-2.04,3.26c-1.6,6.95-2.18,10.78-2.04,18.55
		c0.44,24.13-2.57,16.23-1.02,34.75c0.34,4.07,1.34,8.72-1.83,7.13c0-0.32-0.44-2.78-0.61-4.79c-0.25-2.96-0.82-5.71-3.06-8.05
		c0.51-1.32,0.61-2.65,0.41-3.97c-0.33,0.44-1.02,1.57-1.53,2.34c-2.58-1.88-4-4.5-6.49-5.97c-0.05-0.03-1.15-0.58-1.16-0.6
		c-1.25-11.13-4.51-13.7,2.46-51.61c1.66-9.04,1.25,0.58,3.77-13.76c1.41-7.99-0.25-17.09,1.02-20.89
		c10.44-3.85,7.31-16.07,6.11,18.65c-0.35,10.18,1.01,6.55,0,10.6c0.38,0.57,0.79,0.64,1.02,0.74c0.45,0.11,0.26-0.8,0.71-1.55
		c4.57-9.56,2.23-36.47-0.39-33.85c-0.15,0,1.28-2.24,1.41-3.65c0.2-2.24,1.43-3.87,2.75-5.2c0-1.02-0.33-1.74-0.1-2.65
		c2.3-9.34-0.16-14.54,1.53-18.65c4.31-10.47,0.64-22.77-5.71-28.84c-0.53-0.35-3.36-3.7-13.15-7.34c-0.41-0.1-0.92,0.31-1.32-0.1
		c-3.67-3.26-6.22-7.54-10.09-11.01c0.2-2.65,0.51-5.5,0.82-8.36c2.45-1.12,3.87-2.65,4.28-5.2c0-0.02,3.69-7.06,4.38-10.29
		c3.6-16.73,5.6-18.89,3.06-24.56c-1.03,0.17-0.58,0.18-0.92,6.62c0,3.62-0.5,0.06-2.14,8.36c-0.26,1.3-3.86,21.45-8.15,23.23
		c-0.41-0.02-13.16-0.72-13.55-0.61c0.18,2.5,6.96,2.49,8.87,2.45c2.44-0.05,2.24-0.77,1.53,9.48c4.07,5.43,7.41,9.56,7.64,16.1
		c0.42,11.72,0.28,13.76-0.92,15.49c-1.73,1.43-3.67,2.55-6.01,2.55c-0.92-2.96-0.82-6.01-3.16-8.25c0.71,2.96,1.43,5.81,2.14,8.87
		c-8.18,1.64-7.16-1.12-16.51-6.73c-7.09-5.17-9.62-10.46-15.49-15.59c-14.01-12.24-15.69-11.41-18.34-14.06
		c18.63-9.64,12.68-13.36,17.83-10.5c-0.15-6.9-1.78-10.17-0.2-27.11c3.94-3.94-2.96-0.58-1.83-5.1c3.16,0.4,2.73-0.5,3.67-6.42
		c-1.22-1.43-2.96-2.34-2.85-4.48c4.23-1.21,2.19,3.9,4.38,7.74c0.51,0.71-0.71,1.63,0.31,2.45c1.8,0,4.72-7.99,5.1-9.07
		c2.26-6.51,3.39-4.1,6.32-10.5c2.37-5.17,2.92-2.07,5.1-3.16c0-2.15,2.25-0.73,2.55-2.96c-2.92-6.43-0.03-1.5-5.18-4.72
		c1.15-2.27,2.59-0.99,5.89,1.25c1.71,1.16,0.34,2.34,1.73,2.34c0.92-0.31,0.1-1.32,1.02-1.94c1.12,0,2.65,0,3.67-0.61
		c1.53,0.31,2.86,1.03,4.08,0.82c1.63-0.29,3.05,0.11,4.59,0.51c6.14,1.59,6.01-1.37,7.85,0.2c0.71,4.08-0.1,8.56,2.34,12.43
		c0,5.47-5.97,2.34-9.38,7.95c-0.61,1.73-0.82,3.67,0.2,5.81c0.61-1.32,0.1-2.65,1.12-3.77c1.02-0.2,2.14,0.52,3.36,0.2
		c4.78-1.25,2.95,0.66,5.3-6.01c1.96-5.59-0.2-5.11-0.2-7.24c-2.63-18.91,4.03-10.9,7.95-17.43c-1.22-1.02,0.31-2.04,0.1-3.16
		c-2.87-4.59-2.51,0.89-5.2-1.12c0.71-0.41,1.43-0.92,2.14-1.32c-0.85-2.82-2.89-1.81-3.87-1.53c-0.71-2.24,0.82-4.59-0.92-6.73
		c-7.85,7.07-1.98,0.59-8.15,1.43c-8.37,1.13-5.65,1.85-8.97,1.02c-0.82-0.27-12.92-0.6-13.04-0.61c-1.73,0.71-1.73,3.26-3.87,2.55
		c-0.6-0.9,1.07-1.77-1.12-2.65c-4.09,4.4-9.22,6.61-13.04,1.83c-1.27,0.38-5.26-1.98-1.32,3.26c0.36,0.73,0.2,0.78-1.53,1.94
		c0.17,3.71-3.37,3.97-2.34,6.01c-0.82,1.94-1.35,3.74-2.75,5.1c-0.31,0.3-0.51,0.82-0.51,1.32c-0.56,5.84-4.89,7.9-2.45,13.45
		c0.88,2.34,0.61,1.85,0.61,9.27c0,7.41,6.36,23.74,4.99,28.63c-0.9,2.26,1.76,2.76,1.43,5.4c-2.4,2.4-1.92,3.76-6.32,6.42
		c-12.89,7.79-23.11,9.76-30.06,18.44c-3.76,4.7-4.08,3.12-7.54,5.2c-20.7,12.42-14.99,29.4-16,30.37
		c-2.3,2.22-1.68,5.53-3.67,10.09c-3.52,8.09-1.83,20.83,0.51,27.62c1.87,5.42-1.96,20.19,1.43,19.77c1.55-1.7,0.83-7.49,1.53-12.02
		c1.52-7.1-5.19-31.59,0.2-36.99c2.08-2.08,1.97-4.45,2.45-6.83c1.6-0.96,1.22,1.43,1.63-6.83c-1.94-2.68,0.1-12.98,8.66-20.58
		c1.24-1.1,6.92-5.35,8.87-5.1c3.07-3.99,5.55-4.55,13.35-9.48c2.72-1.36,1.36-1.55,5.4,2.85c-0.14,2.6,3.38,3.88,2.85,5.71
		c-2.13,0-5.01-0.3-7.44,0.92c3.67,1.22,6.93,0.92,10.09,1.94c9.63,15.41,8.13,39.72,0.31,50.85c-2.45,2.85-1.84,1.7-4.08,0.1
		c-0.71-0.51-1.22-1.53-2.45-1.43c-1.72,5.17,0.93,4.1,1.73,6.32c-1.83,3.16-1.83,3.16-3.97,3.77c2-16.04-4.72,19.46-13.35,27.82
		c-0.69,0.67-1.78,3.6-2.85,4.99c-4.01,5.17-0.36,9.75-3.57,21.09c-5.7,20.18-8.98,31.62-11.01,56.76
		c-0.71,8.81-3.07,6.49-7.13,9.68c-4.36,0-0.74,0.44-5.5,3.06c-1.84-1.17-0.36-4.86-1.02-6.52c-2.03-5.09,0.89-9.78-2.34-31.28
		c-0.81-5.39-0.93-9.11-0.41-14.78c1.62-17.39,2.18-10.58,3.46-11.01c0.2-0.92,0.2-1.83-0.2-2.75c-2.76-1.38,2.41-8.76,0.31-18.24
		c6.46-12.93,1.13-13.89,0.61-10.09c-1.16,8.46-3.86,6.24-2.75,14.67c0.33,2.5,1.69,4.82-0.41,6.83c-1.81,1.74-1.52,3.05-2.55,8.05
		c-5.41,26.37,2.37,29.88,0.82,54.72c-0.22,1.34,0.46,2.47-5.4,2.55c-23.63,0.31-36.69,36.72-18.65,56.66
		c9.32,10.31,17.34,8.18,24.56,9.58c1.63,0.32,3.26,0.61,4.89,0.2c2.75,2.75,6.42,3.06,9.58,4.79c1.8,21.21,2,16.49,0.1,32.2
		c-1.62,13.43,1.56,6.17,14.57,9.27c-3.17,28.48,4.57,19.04-14.16,49.12c-6.24,10.02-3.21,16.22-5.4,21.2
		c-6.59,26.35,3.45,68.33-1.22,78.47c-2.84,1.14-4.99,1.51-5.4,2.75c-1.5,4.5-2.75,3.58-3.67,9.99
		c-1.37,17.83-8.64,24.57-7.74,28.02c1.25,4.83-0.62,6.41,2.04,9.07c18.68,1.33,18.98,2.05,21.09,0.71
		c5.01-3.17,33.92,7.68,53.6,1.32c18.31-5.91,9.68-8.42,6.73-20.79c-6-5.4-7.03-1.56-13.55-6.73c-2.4-1.9-4.43-0.57-9.78-5.81
		c-2.86-2.8-12.04-4.49-16.41-15.18c-2.24-0.31-3.16-1.73-3.16-3.77c0-34.2,14.66-54.58,15.39-66.64
		c1.57-25.82,4.77-22.36,2.65-32.61c13.92-13.92,14.42-31.34,17.83-32.1c7.41,2.96,7.11-1.97,10.8-13.04c1.12,0,1.12,1.31,2.04,1.43
		c9.67,1.28,6.76,0.47,10.39,11.01c0.99,3.65,3.18,4.14,3.77,8.87c1.47,11.76-11.52,45.34,1.22,65.22c1.76,2.35-0.47-0.04,0,13.25
		c1.88,53.15,0.23,40.32-3.67,43.61c-1.1,1.1-3.27,5.73-3.57,10.39c-0.49,7.66-2.76,9.55-2.55,11.21c0.5,3.91-1.74,6.76-3.87,12.43
		c0.31,1.32,1.62,1.13,2.14,2.04c0.7,1.23,2.04,1.51,3.36,1.83c7.34,1.8,9.32,2.82,12.02,1.63c5.91-2.59,7.49,0.45,16.51-3.16
		c1.73,4.51,6.92,3.43,17.12,5.5c2.86,0.58,14.76-1.86,25.27-1.94c3.26-0.02,7.01-2.83,8.76-4.59c2.5-2.15,0.64-3.3,0.41-5.91
		c-0.29-3.26-2.34-5.71-4.08-8.05c-1.22-0.71-2.44-0.72-3.67-0.92c-10.98-1.77-9.73-3.36-13.04-3.06
		c-3.36,0.31-12.02-7.34-14.47-9.68c-4.64-4.44-0.52-4.8-7.85-14.88c-1.63,0-1.94,1.73-3.46,1.73c0.01-0.1,12.45-63.67,7.34-96.91
		c-1.04-6.78,2-10.48,0.1-14.27c5.41-10.15,1.74-20.55-0.51-21.3c-1.11,0,0.77-1.31-8.15,7.24c1.69,4.51,0.05,6.05,2.65,8.87
		c1.61-0.6,1.1-8.42,1.53-9.27c4.43-2.77,7.39-9.73,3.36,14.16c-0.82,4.89-1.32,9.78,0.1,14.67c-0.92,3.06-1.21,8.45-0.31,11.41
		c3.41,11.16-9.17,85.16-9.17,88.35c-4.59,4.89-11.92,5.81-18.85,2.55c0-5.06,0.35-13.37,1.63-17.43c2.25-7.16-0.78-4.64-1.32-9.88
		c-0.96-9.34-1.93-16.04-1.53-24.56c0.27-5.62-7.65-22.47-5.91-34.65c0.46-6.91,2.63-12.72,5.5-29.14c2.81-2.11,5.6,4.68-0.31-7.13
		c-1.87-2.81-1.13-5.31-3.57-7.44c-0.29-0.14-0.23-0.54-2.14-7.85c0.92-0.66,9.2,2.16,18.34-0.92c3.89-1.31,18.61-7.13,18.65-7.13
		c0.82,1.94-0.31,4.28,0.92,6.62c2.14-2.65,1.43-5.6,1.73-8.15c8.98-4.49,8.83-4.43,9.07-5.5
		C355.85,338.49,360.78,351.99,371.37,350.03z M345.08,41.83c-4.01-0.07-0.29-0.77,0.88-0.71
		C348.36,41.24,345.56,41.84,345.08,41.83z M352.54,11.95c1.86-0.05,0.89,1.81-0.53,2.91C351.13,13.99,350.77,12,352.54,11.95z
		 M346.71,4.98c0.4,1.5,0.42,1.53-1.02,2.45C345.34,7.08,345.72,5.68,346.71,4.98z M343.15,19.66c-0.17,0.27-0.49,0.33-0.71,0
		C342.74,19.35,342.94,19.45,343.15,19.66z M337.74,17.42c0.22-0.22,0.74,0.31,0.1,0.31C337.54,17.62,337.44,17.52,337.74,17.42z
		 M335.55,8.64c0.14-0.06,0.27-0.08,0.46,0.11C335.68,9.08,335.22,8.77,335.55,8.64z M335.5,11.71c-0.1,0.71-0.1,0.71-1.02,0.71
		C334.69,12.01,334.99,11.71,335.5,11.71z M333.28,17.18c1.31,0.05,1.59,1.01,2.3,1.45C334.08,18.14,330.94,17.09,333.28,17.18z
		 M329.29,16.4c-0.89,0-0.65-0.92-0.2-0.92C329.57,15.24,329.96,16.06,329.29,16.4z M331.32,14.26c0-0.1,0.1-0.1,0.2-0.2
		C332.1,14.63,331.11,14.85,331.32,14.26z M327.81,8.86c0.42-1.57,2.03-1.91,3.31-1.22C330.72,8.23,327.03,11.73,327.81,8.86z
		 M322.11,5.25c0.32-0.05,0.24,0.35,0.24,0.45c-0.09,0-0.25,0.03-0.31,0.1C322.05,5.7,321.8,5.35,322.11,5.25z M317.49,19.4
		c0.14,1.06-0.73,1.06-0.73,0.96C316.75,19.89,317.2,19.5,317.49,19.4z M315.02,25.57c0.21,0.99-0.66,1.5-1.62,2.14
		C312.94,25.85,314.08,24.31,315.02,25.57z M309.97,9.41c1.74-0.87,2.45-1.96,3.09-1.41c0.42,0.31,0.2,0.2-0.9,1.57
		C309.23,9.57,309.62,9.63,309.97,9.41z M309.72,14.15c0.43,0,0.1,0.91-0.1,0.31C309.62,14.36,309.72,14.26,309.72,14.15z
		 M313.59,14.97c0.5,0.18,0.88,0.45,0.51,0.82c-1.38,1.17-2.37,2.66-4.59,3.57C310.33,16.6,312.37,16.09,313.59,14.97z M292.5,28.83
		c-0.13,0-0.13,0.06,0-0.2V28.83z M298.92,48.19c0-0.29-0.39,0.17,0.1-0.82C299.02,47.66,299.41,47.21,298.92,48.19z M299.23,33.01
		c-0.82-3.06-0.71-3.26,1.02-4.38C300.35,30.58,299.05,31.48,299.23,33.01z M304.12,45.54c0.18-0.09,0.31-0.32,0.41-0.51
		C304.98,45.94,304.12,45.95,304.12,45.54z M308.4,28.01c0.15,0.27,0.09,0.55-0.32,0.68C307.93,28.75,308.05,28.1,308.4,28.01z
		 M306.26,32.09c0.24-0.83,1.02-0.87,1.83-0.61C307.65,33.47,305.82,33.2,306.26,32.09z M306.05,41.46
		c0.51,0.71-0.22,1.04-0.71,1.63C305.24,42.12,305.59,41.93,306.05,41.46z M303.1,31.48c0.71-1.22,0.71-1.22,2.14-0.92
		C304.22,31.38,304.22,31.38,303.1,31.48z M304.22,8.14c0,1.04-0.53,0.32-1.02,0C303.61,7.73,303.91,7.73,304.22,8.14z M297.18,16.5
		c0.62-0.61,1.23-1.12,1.84-1.53c-0.79-1.19-1.24-1.44,1.21-2.14c1.02,0.82,1.63,1.73,1.94,2.85c5.25-3.27,2.52,4.04,0.05,0.07
		c-0.21-0.21-2.98,0.33-4.84,1.76C296.87,17.11,296.77,16.8,297.18,16.5z M295.35,51.86c-0.26-0.13-0.37-0.34,0-0.71
		C295.53,51.32,295.71,51.86,295.35,51.86z M296.07,47.78c-1.62-2.87-3.25-3.63-0.41-5.6c1.07,0.36,1.42,0.82,2.14,2.14
		C296.69,45.43,296.4,46.46,296.07,47.78z M353.34,542.32c2.56,2.56,0.22,4.34,0.82,6.11c-3.7,4.01-5.14,4.91-5.5,7.85
		c-0.16,0.81,0.39,1.7,2.47,0.45c1.58-0.95,2.93-2.32,4.46-3.71c1.24,0.1,2.68,1.36,0.94,2.69c-1.53,1.16-2.99,2.32-3.8,4.04
		c0,0.92,0.71,0.92,1.22,1.22c2.59,1.56,5.18-0.76,7.44-2.75c0.64,0.24,2.5,1.16,1.92,1.51c-5.63,3.91-1.67,5.66,3.79,1.75
		c0.98,0.12,2.28,1.03,1.52,1.84c-0.69,0.74-2.18,0.82-2.32,2.14c2.31,2.31,4.45-1.21,6.52-1.32c1.22,0.61,0.31,1.43,0.82,1.83
		c1.83,0.71,1.83,0.71,4.08-0.41c2.59,0,0.87,1.39,11.92,2.45c3.84,7.23,9.83,14.13-14.57,14.79c-17.12,0.46-6.74,2-24.25-0.92
		c-11.57-8.1,0.46-0.41-28.84-0.41c-1.71-1.09-0.33-2.27-4.99-3.67c-3.91-0.87-2.84-0.83-2.26-3.45c1.12-5.1,1.85-4.88,1.85-5.81
		c-0.28-3.12,2.34-6.49,2.34-10.5c0-2.19,1.54-12.65,3.57-11.82c0.57,1.13-1.17,1.46,2.45,7.13c4.49,7.04,12.8-0.61,20.28-6.65
		C352.25,540.98,351.28,539.74,353.34,542.32z M331.83,553.03c-3.56,2.18-4.55-2.37-7.24-4.7
		C335.81,550.82,341.95,546.83,331.83,553.03z M363.02,136.74c-1.32-1.32-1.02-3.16-2.04-4.59c-0.51-0.31-1.12-0.51-1.73-0.82
		c-0.38-0.73-1.71-7.22-2.21-5.97c-0.85,1.64-0.72,1.54-0.77,1.44c-4.14-5.75-4.95-13.04-9.34-19.11
		C342.95,103.74,369,115.97,363.02,136.74z M258.67,214.5c-0.12-12.81,2.85-10.88,2.85-9.07c0,4.61-0.3,3.98,1.12,5.4
		c-2.18,4.37-0.66,27.07,0.71,31.18c1.1,0,1.12-0.87,1.43-1.43c3.17-5.82-0.64-6.55,0.61-10.6c1.35-4.35-0.89-6.88,0.2-9.68
		c2.27-5.82-0.05-15.01-2.55-20.69c1.83-5.49,7.13-3.81,9.48-21.4c1.5-0.5,2.22,1.05,3.5,0.72c0.59-0.3-2.19-2.3-2.37-3.98
		c0.95-0.95,2.49-1.5,3.67-2.24c1.74-1.1,2.67-2.93,4.22-4.16c0.74-0.59,8.93,6.05,12.27,3.4c1.48-1.18,0.56-1.22-9.05-6.18
		c-0.04-0.11,22.58-31.12-3.16-64.81c-4.93-6.45-7.1-4.2-1.43-7.03c24.03,14.59,30.53,28.77,35.77,31.39
		c5.62,2.13,9.92,10.34,19.57,6.01c3.66-1.64,7.59-4.57,7.95-8.56c0.58-6.34,1.02-14.39-2.65-19.67c5.2,3.39,8.45,12.88,10.09,18.34
		c1.8,5.99,6.77,9.98,7.03,10.7c3.47,9.64,2.54,23.18,1.32,31.08c-1.14,7.41-3.89,7.06-5.81,10.29c-0.58,0.98-1.39,1.07-2.45,1.43
		c-0.08,0.1-12.55,73.87-11.82,80.4c-2.84,0-8.05,0.63-12.33,0.31c-0.8-1.31-0.83-8.8-1.25-5.56c-0.11,0.86-0.11,5.17-1.39,5.39
		c-4.43,0.78-10.45-2.86-19.68-4.82c-0.92-3.05-0.85-4.89-3.46-9.88c-0.92-1.77-1.83-1.22-0.92,4.48c0.51,3.14,1.69,5.42-0.92,4.38
		c-14.05-4.18-14.48-4.75-18.14-4.59c-4.49,0.2-12.87-0.48-16.61-1.22c-5.45-1.09-2.86,2.06-4.79,3.46c1.53,4.59-1.45,5.12-2.45,5.4
		c-1.73,4.08-4.18,7.74-7.44,10.9C246.45,261.01,258.76,224.34,258.67,214.5z M334.28,260.87c-0.95-0.95-0.73-1.27,0.1-1.74
		C334.93,259.77,334.34,260.32,334.28,260.87z M266.21,251.28c3.39,3.39-6.11,1.41-2.85-0.82
		C264.61,251.41,264.02,251.72,266.21,251.28z M264.27,246.9c1.92-0.96,2.95,0.89,1.32,2.75
		C265.09,248.73,265.19,247.61,264.27,246.9z M238.19,290.72c-0.08,0.18,0.07,0.5-0.31,0.34
		C237.69,290.93,237.9,290.81,238.19,290.72z M213.12,289.09c-0.39,0-0.7,0.08-0.81,0.08C212.49,288.97,212.7,288.75,213.12,289.09z
		 M212.12,289.3c0.07,0.4-0.21,0.58-0.55,0.67C211.57,289.3,212.01,289.41,212.12,289.3z M197.73,328.93
		c-8.47-28.81,19.21-44.57,12.33-37.39c-14.86,13-15.94,38.75-0.82,52.79C207.09,344.43,200.38,337.94,197.73,328.93z
		 M209.38,344.46C210.6,346.09,209.41,344.62,209.38,344.46L209.38,344.46z M215.77,346.97c-25.28-11.53-19.64-56.39,8.25-60.12
		c0.91-0.12,1.94-0.41,2.85,0.2c1.73,3.06,0.61,6.32,0.71,9.88c-3.25,4.55-5.37,7.2-7.74,15.69c-2.94,3.19-4.7,4.45-3.87,6.83
		c0.78,2.25,0.71,4.79,2.65,6.62c0.61,0.51,0.61,1.53,0.71,2.34c1.22,9.41,6.99,18.08,9.48,19.87
		C231.3,349.54,224.54,350.97,215.77,346.97z M219.33,315.68c-0.12,2.37-0.38,3.81-0.82,5.4
		C217.81,319.05,217.7,317.52,219.33,315.68z M230.24,296.53c1.24-1.32,4.84-4.38,4.96-3.28c0.01,0.11-27.9,26.41-0.62,56.82
		C228.02,350.56,209.04,319.15,230.24,296.53z M235.02,350.72c-0.1-0.1-0.49-0.74,0.25,0.13
		C235.62,351.26,235.11,350.82,235.02,350.72z M230.85,301.21c14.73-23.05,47.75-14.75,50.95,17.32c0.81,8.15-2.22,21.01-10.9,29.25
		C245.34,372.03,209.59,334.47,230.85,301.21z M243.99,557.8c0,0.98,0.65,0.94-0.82,3.36c-2.88,1.2-7.07,0.94-8.56,1.44
		C236.45,552.69,237.57,560.18,243.99,557.8z M235.64,549.04c0.1,0,0.07,0-0.02,0.01C235.66,549.01,235.68,549,235.64,549.04z
		 M273.34,565.75c-0.4,0-0.95,0.14-1.35,0.26c0.08-0.03,0.16-0.06,0.27-0.1C272.63,565.77,272.69,564.86,273.34,565.75z
		 M264.15,557.55c0.21,0.42-4.63,0.96-7.98,4.04c-3.38,3.1-3.18,9.22-1.85,7.9c0.79-2.04,4.51-4.4,5.61-4.98
		c6.59-3.49,9.73-2.73,7.1-1.61c-3.41,1.46-6.87,2.33-8.36,5.31c-1.96,3.92,9.92-1.01,10.9-0.82c-1.56,1.56-2.13,3.22-0.51,4.69
		c2.65-1.43,5.91-1.63,8.25-3.77c1.12,0.23,1.08,0.9,1.22,1.63c-1.2,1.3-3.27,1.88-3.67,3.87c0.53,3.19,5.3-0.44,6.42-0.82
		c0.61-0.1,1.12,0.31,1.63,0.61c0.61,0.61,0.1,1.73,1.12,2.14c1.23,0.5,1.94-0.71,3.16-0.82c11.48,4.84,6.53,2.09,12.13,3.16
		c3.47,6.95,5.65,11.46,2.44,15.08c-7.42,3.58-24.29,4.96-32.2,2.96c-6.68-1.69-11.12,0.11-18.04-3.16
		c-3.14-1.48-5.2-0.63-7.95,1.43c-6.93-0.61-13.76-1.22-20.69-1.83c-2.38-5.88,0.33-8.01,2.75-13.55c1.79-4.1,0.18-2.98,1.83-10.7
		c4.44-20.79,3.01-18.42,7.7-19.04c-1.99,5.24-1.1,7.34-4.84,11.09c-0.98,2.94,0.11,6.54,3.06,5.6
		c13.24-4.19,10.81,2.81,15.79-12.74c0.28-0.89,0.39-1.75,0.6-1.9C259.09,544.85,259.4,550.81,264.15,557.55z M289.85,418.3
		c-5.08,11.88-2.77,12.58-5.4,16c-5.78,7.52-7.78,9.24-7.64,12.13c-0.53,0.85-5.14,21.47-4.18,31.79
		c1.02,10.95-12.77,17.5-16.2,67.26c-1,1.51-6.25,0.61-10.09,5.6c-0.38,1.28,0.26,3.09-1.22,4.48c-2.34-0.82-5.2,0.2-7.64-1.12
		c-0.4-1.2,0.2-2.15,0.2-3.06c0-1.78,1.02-2.23,1.02-2.65c0-3.49,1.85-6.53,1.71-10.19c-0.08-2.02-0.79-1.32-0.79-5.5
		c0-13.24-1.33-13.98-1.33-34.4c-0.31-2.9-2.44,3.17-0.84-14.34c3.48-37.94,3.07-26.32,18.59-55.51c4.21-7.92,2.05-4,1.97-11.37
		c-0.03-2.99,0.3-16.13,0.99-18.89c1.12-0.41,2.04-0.41,2.55,0.61c1.09,2.18,1.28,1.06,7.74,4.48c0.1,2.34,0.92,4.78,0.1,7.13
		c-0.37,1.05,0.32,1.44,1.32,2.14c1.55-2.07-1.14-3.81,1.53-7.54c1.19-0.44,12.21,4.6,13.35,5.2
		C289.59,412.65,293.81,409.03,289.85,418.3z M364.44,391.19c-0.47,1.4-30.09,14.24-40.21,13.3c-4.08-0.38-6.31-1.7-10.16-3.02
		c-3.37-1.15-4.54-0.46-7.1-3.24c6.01-29.11,11.62-25.83,13.25-33.63c1.87-5.61-4.88,2.89-7.95,7.95
		c-4.92,8.11-9.17,38.29-12.43,39.74c-42.15-21.08-35.32-7.4-33.05-29.1c-1.83,0.56-2.67,10.19-3.75,11.27
		c-1.38-0.4-1.17-3.67-2.14-0.2c-16.07-1.24-11.75-0.12-15.39-0.41c-2.8-8.4,2.96-3.52,1.53-18.75
		c-1.26-13.46-1.73-14.35-1.73-17.93c2.8-0.61,4.02-0.81,8.76,0.2c-1.39,18.02-0.99,14.18,1.12,31.18c0.18,1.41,0.46,1.66,1.12,2.14
		c3.22-0.29-1.79-2.45-1.94-22.83c-0.03-4.55-0.48-6.07,1.12-10.7c9.96-3.05,7.15-1.64,16.1-7.34c1.21,3.22-1.91,5.97-2.02,7.57
		c-0.01,0-0.03,0.03-0.11,0.07c0,0.19-0.06,0.1,0.1,0.1c0-0.11,0.02-0.16,0.02-0.17c5.02-2.75,3.53-9.37,3.93-9.83
		c12.03-13.78,13.4-36.03,1.54-51.03c0-1.55,0.82-2.24,0.4-5c-0.71-4.57-6.61-13.19-6.61-8.14c2.34,2.52,6.33,7.4,4.89,10.6
		c-2.98,0.64-2.38-6.99-24.04-7.86c-1.45-4.92-3.2-4.67,1.53-19.58c0.79-1.96,1.43-2.48,3.15-4.59c2.25-2.76,2.43-3.4,3.88-5.4
		c0.92-1.12,2.55-1.43,3.16-2.96h0.01c4.81,1.7,8.73-0.24,8.82,2.03c0.05,1.28-0.21,6.22,1.86,6.22c0.91-1.14-0.52-6.48,0.95-7.16
		c0.63-0.36,3.33-0.29,4.04-0.42c0.68-0.12,1.19-0.57,1.09-0.57c-3.25,0.5-6.5-0.1-10.06-0.31c0.41-2.14,0.61-3.97,0.92-5.71
		c2.79-1.75,2.61,2.04,3.87,3.06c2.43,1.22-1.02-4.33,4.18-2.45c-0.06,1.35,0.65,8.01,1.94,4.17c-0.29-3.74,0.11-6.39,10.6-2.24
		c8.91,3.52,7.24,2.87,6.93,4.59c-0.13,0.71-0.55,1.87-1.23,1.67c-2.74-0.8-9.5-2.73-9.61-2.62c-2.18,5.1-15.83,12.22-12.08,12.5
		c0.78,0.06,0.93-1.31,6-3.91c2.85-1.47,5.31-3.38,7.13-6.11c3.06,0.92,6.11,1.73,9.38,1.83c0.51,2.75,0,5.5,0.92,7.95
		c0.36,0.15,0.72,0.19,0.71-0.2c-0.05-2.55,0.71-4.99,1.12-7.54c-1.02-1.02-1.98-1.95-0.61-2.34c0.72,0.31,0.59,1.46,1.63,1.63
		c1.75-0.3,1.59-3.3,3.87-3.06c1.14,1.36-0.62,3.39,0.46,3.69c0.76,0.21,1.71-1.91,2.39-2.87c1.58-0.5,3.04,0.01,4.59,0.2
		c1.44,2.73,3.42,2.28,11.72,3.36c3.11,6.22,1.04,0.41,3.46,0.1c1.17,0.3,0.85,2.16,1.94,2.34c1.1-0.1,0.73-1.85,1.83-2.04
		c0.88,0.3,2.54,4.79,4.12,1.64c1.08,0.14,1.23,1.81,2.61,1.52c1.13-1.62-0.78-4.26,2.55-4.28c1.02-0.01,0.45,7.63,2.34,4.79
		c0.97-0.52,0.78-0.5,2.04,2.65c2.65,1.22,4.19,3.76,6.32,5.71c4.51,4.12,3.78,9.38,4.38,18.44c0.3,4.45-5.75,11.15-1.22,23.95
		c0.17,0.48,0.31,0.75,0.42,0.85c0.08,0.77-0.15,1.47,0.26,2.27c0.06,0.12,0.74-0.25-0.26-2.26c0.99,0.89-0.07-11.94,1.41-15.73
		C362.82,360.2,352.15,350.7,364.44,391.19z M361.59,345.34c-0.06-5.19-1.35-46.24-4.59-52.17c8.37-5.84,17.95-7.43,27.21,2.42
		c9.2,9.79-5.34-16.6-25.37-5.47c-0.53,0.21-0.9,0.7-1.63,0.41c-2.16-3.46,7.18-5.37,11.29-5.36c34.72,0.11,35.9,62.99-1.17,63.55
		C359.37,348.82,361.6,346.65,361.59,345.34z"/>
	<path d="M359.55,206.65l-0.1,0.1C359.57,206.79,359.52,206.76,359.55,206.65z"/>
	<path d="M700.11,216.94c0.31-1.12,1.94-0.71,2.24-2.14c-0.61-0.51-0.82-1.63-1.94-1.73c-0.82,0.1-1.32,1.12-2.45,0.82
		c0.61-1.83,0.47-3.67,0.71-5.4c0.09-0.61-0.2-1.22-1.22-1.22c-0.75,0.69-4.34,3.86-4.79,2.96c1.57-2.09-2.05-2.49-4.18-1.94
		c-0.81,0.21-1.73,0.71-2.45,0.51c-1.43-0.31-2.55,0.41-3.77,0.82c-1.6-1.6-12.76-1.71-14.16-1.83c-1.99,0.72-2.06,3.25-4.08,2.24
		c-0.7-1.06,1.33-0.99-1.02-2.75c-2.65,2.96-6.11,4.48-10.19,4.38c-1.32-0.51-1.94-2.04-3.26-2.96c-0.82,0.51-1.94-0.92-2.96,0.31
		c0,1.22,1.12,1.94,1.73,2.96c0.1,0.1,0,0.41,0.1,0.71c-2.04,1.36-1.76-0.04-2.14,3.36c-1.12,0.2-1.22,1.32-1.83,2.04
		c6.51,0,3.38,0.5,5.1,1.73c1.31,0.94,2.45-0.41,3.36,0.51c0.4,1.03-1.17,2.09-1.53,1.73c-3.99-3.49-9.11,3.13-5.25-1.94
		c0.94-1.23-0.99-1.48-1.3-1.64c-0.65-0.33,0.06-0.45-1.29,0c-0.2,0.82,0.61,1.12,0.51,1.63c-1.22,1.53-1.6,3.49-3.16,4.79
		c-0.83,0.69-0.62,4.04-2.24,6.42c-3.84,5.66-0.92,7.06-0.92,10.7c0,9.24-0.7,7.31-0.1,10.09c0.96,4.5,1.12,9.07,2.45,13.65
		c-1.83,3.77-3.67,7.54-5.5,11.31c-4.32,0.92-13.03,1.73-21.2,5.1c-15.48,6.39-23.36,6.66-34.44,15.18
		c-10.22,0.34-18.28,26.21-23.13,32.61c-1.58,2.08-3.78,6.85-3.06,10.19c1.55,7.18-4.33-2.23-21.4,28.13c-2.34,0-5.01,3.96-7.95,5.3
		c-3.07,1.4-6.11,2.96-8.87,4.69c-0.82-0.2-1.12-1.12-1.94-1.02c-2.7,0-8.65,6.7-10.9,10.19c-7.05,10.91-8.74,21.64-10.6,25.78
		c-3.95,8.78,0.1,22.21,6.22,31.08c5.4,7.83,31.69,13.65,35.05,20.07c2.74,0.34,1.86-0.71,2.55,10.29c0.42,2.91-1.46,1.73-6.93,3.06
		c-31.13,7.54-30.76,62.74,2.85,64.91c6.33,0.41,6.58,1.68,10.6,1.43c3.16,3.06,7.44,3.77,11.82,5.81
		c-1.22,0.08-6.68-0.38-11.11,6.73c-2,3.22,0.96,6.02-2.75,16.3c-4.86,13.48-12.07,22.11,2.04,22.11c35.01,0,15.28-4.37,32.71,1.83
		c11.19,3.98,42.7-2.94,47.59-3.26c1.33-0.09,2.65-0.41,3.97-1.22c0.51-2.34,2.75-4.28,2.65-7.13c11.49,2.76-3.94,2.96,23.03,4.59
		c15.9,0.96,21.56,0.03,28.02-4.18c2.47-1.61,2.7-2.74,4.18-7.54c-5.76-13.43-0.47-6.3-14.37-11.52
		c-10.89-3.23-21.7-6.83-25.58-17.53c-2.62-7.24-7.12-5.43-5.2-8.46c1.58-2.5,0.21-1.43,5.71-1.43c7.15,5.96,23.21,8.59,33.73,1.83
		c16.78-10.78,24.33-39.11,1.12-59c0-1,9.21-18.26,7.64-21.91c1.05-2.19,4.33-8.78,4.08-10.19c-0.32-1.77,2.51-9.88,1.63-18.24
		c-1.21-11.44-20.92-19.67-28.02-22.83c-1.61-0.72-1.99,0-2.45-5.81c-1.05-13.31,7.91-20,6.01-40.86
		c4.43-11.32,2.47-12.84,8.36-25.48c6.23-13.36,1.84-26.33-5.6-31.39c-2.21-1.77-1.37-1.26,1.83-7.34c5.11-8.36-1.72-5.65,6.32-6.11
		c9.26-0.53,18.83-39.33,14.47-39.33c-0.03,0.1-6.75,35.18-12.33,37.5c-23.21-3.54-9.66,1.83-9.58,1.94
		c-0.47,5.42-3.42,5.73-11.72,21.71c0,0.82,0.51,1.43,0.82,2.04c0.96-0.96,0.56-3.29,3.16-4.89c1.63,2.65,0.92,5.91,2.34,9.17
		c0.95-9.24-3.07-10.24-0.1-11.52c2.08,4.68,4.49,9.76,5.3,16.81c0.27,2.36,2.37,2.26,2.04-0.31c-1.01-7.8-1.54-12.64-4.48-16.51
		c-0.58-0.97-1.59-2.02-0.61-2.75c2.14,2.45,7.74,14.67,8.76,19.06c-4.11,15.07-3.26,11.84-3.26,6.62c0-1.83-1.84-1.89-2.14,0.2
		c-7.68,53.77-21.65,40.8-36.28,52.68c-0.9,2.96-2.14,3.63-18.95,15.79c-2.97,1.48,0.56-2.86-30.88-5.71
		c-10.34-0.94-0.86,0.05,10.7-25.99c3.06-6.9,1.35-8.41,2.75-10.09c10.95-6.36,11.32-9.87,13.55-11.21
		c7.01-5.01,12.45-26.3,12.13-32.1c-1.33-23.9-19.28-24.71-20.79-26.39c8.55-3.24,8.65-6.48,18.75,6.83
		c3.56,4.69,6.11,9.48,6.52,12.23c-1.02,0.31-2.04-1.02-3.26,0c15.17,6.24-0.83,21.48,23.34,38.93c0.66,0.33,1.58-0.06,1.43-1.12
		c-0.67-1.5-3.29-1.83-5.4-5.1c-17.76-27.51-4.29-35.48-30.47-55.84c6.52-3.36,13.66-3.26,19.97-4.99
		c0.36-0.23,10.96-13.18,9.78-18.85c1.2-1.33,2.23-0.08,3.26-2.14c-0.41-1.12-1.53-0.41-2.14-1.02c-2.89-4.62,0.36-1.13,2.14-3.26
		c-0.2-1.73,0.92-3.57,1.02-5.6c-1.32-1.32-3.06-2.34-2.75-4.38c2.77-3.47,3.87,7.21,4.38,10.19c2.54,0.51,5.58-10.95,7.74-12.94
		c5.12-4.7,4.16-7.81,6.93-8.97c3.52,0.5,2.55,0.81,2.55-1.12c3.17-1.27,3.69,0.14,1.43-5.3c-1.27-0.19-2.46-0.4-3.45-0.97
		c0.45-3.65,6.52,0.58,7.02,3.62c0.82-0.61,0.82-0.61,1.32-2.04c1.32,0.1,2.75,0,3.97-0.41c1.32,0.31,2.55,1.03,3.67,0.92
		c3.75-0.37,7.04,2.69,10.6,1.02c4.68-2.19,0.26,6.74,3.97,13.04c-1.73,3.9,0.63,1.49-5.71,4.08c-3.68,1.5-5.71,4.38-4.08,9.07
		c0.92-1.22,0.41-2.75,1.53-3.87c2.24,1.22,4.48,0.1,6.93-0.31c0.92-3.06,2.45-5.81,2.96-8.76c-5.66-24.52,5.86-12.02,7.95-23.53
		C703.7,213.5,702.79,218.09,700.11,216.94z M652.11,213.88c-0.61,0.2-1.02,0.1-1.02-1.02
		C651.77,213.26,652.22,213.27,652.11,213.88z M639.68,233.75l-0.1-0.31C639.85,233.45,639.81,233.37,639.68,233.75z M673.52,335.89
		c0.26,1.78-0.35,3.91-0.44,3.36C672.95,337.7,672.8,337.1,673.52,335.89z M672.29,341.47c0.37,0.37,0.42,0.6,0,1.02
		C672.29,342.18,672.29,341.87,672.29,341.47z M532.17,369.59c0.17-1.38,18.36-20.96,19.26-21.71c0.88,11.91-7.04,34.04-7.24,34.34
		c-5.27,1.08-12.58,1.73-12.38,1.43c1.45-3.19,2.87-0.55,3.82-1.73c-2.75-2.75-8.03-5.08-8.03-6.49
		C528.06,373.73,531.99,372.48,532.17,369.59z M529.84,382.23c-0.22,0.17-0.04-0.71,0.5-0.92
		C530.94,381.31,530.32,381.87,529.84,382.23z M529.42,382.63c0.1-0.1,0.1-0.2,0.1-0.2C529.66,382.43,529.71,382.35,529.42,382.63z
		 M533.27,416.34c-4.17-2.57-3.35-1.94-4.69-1.94c0.4,1.63,2.65,2.03,2.96,2.96c-0.57,2.29-29.39,11.92-24.76,11.92
		c11.3-3.62,17.55-4.84,25.27-9.58c2.94-2.1,3.05-1.2,2.78,1.65c-3.61,39-0.93,3.85-0.93,39.95c-1.53-0.61-2.96-1.22-4.08-2.34
		c-5.93-5.93-25.39-9.55-29.86-16.41c-7.3-11.23-8.11-19.54-7.61-27.38c0.23-3.68,11.26-27.75,13.42-27.76
		c-0.01,0.89-0.7,0.55-0.7,0.83c0.06,1.01-0.4,2.17,1.21,2.55c1.98-4.22,12.13-0.92,12.23-0.92c2.68-0.64,6.59,1.32,8.96,1.02
		c-1.64,1.53-22.69,10.39-24.04,11.4c0.63,1.26,7.4-2.5,12.02-3.16c0.6,1.9,2.07,3.1,2.99,4.48c0.71,1.07-23.45,13.52,1.59,1.83
		c0.75-0.08,2.04,1.57,2.04,0.67c0-2.1-1.72-0.51,7.75-4.85c0.62-0.29,7.71-3.32,7.1-4.54c-0.48-0.95,0.97-1.35-16.89,6.58
		c-5.79-5.34-4.11-4.99,16.41-13.77c0.63-0.27,2.64-0.93,2.64-1.81c-0.17-2-1.7-0.39-6.82,1.61c-3.57,1.4-4.38,2.01-4.64,1.62
		c0.09-0.08,0.08-0.07-0.03-0.07c-0.06-0.14-0.09-0.37-0.13-0.69c-0.2-1.52-4.38-1.47-6.2-2.68c0.69-2.34,9.1-6.43-8.25-4.39
		c4.64,2.14,3.74,1.51,7.44,1.83c-2.01,5.02-5.17-0.48-14.67,2.44c1.55-6.38,17.64-10.39,17.74-10.33c0.53,0.18-2.67,1.88,1.42,3.92
		c0.79-0.79-0.3-1.4-0.35-1.88c0-0.4,0.82-1.26,1.76-0.78c1.25,1.25-0.15,2.71,1.31,4.18c-0.3,0.92-1.53,0.55-1.53,1.73
		c5.58,3.4,5.66,2.41,16.71,1.22c0.57,0.66,0.56,1.34,0,2.04c-1.96,2.77-6.3,23.03-6.32,23.13
		C535.61,414.75,536.55,414.7,533.27,416.34z M524.58,480.66c0.67,0.08-0.11,0.16-0.52,0.25
		C523.96,480.92,524.27,480.6,524.58,480.66z M514.04,488.61c2.65-3.31,5.76-6.18,9.76-7.5c-0.18,1.17-15.46,8.83-15.27,30.97
		c0.12,14.18,7.54,20.23,7.44,21.88C509.43,531.42,499.05,507.33,514.04,488.61z M516.48,534.16c0.14,0.13,0.18,0.33,0.19,0.49
		C515.78,534.58,515.92,533.62,516.48,534.16z M516.8,534.79c0.38,0.03,0.55,0.2,0.58,0.58
		C517.01,535.35,516.83,535.16,516.8,534.79z M517.52,535.53c0.41,0.13,0.6,0.42,0.6,0.67C517.85,536.2,517.56,535.91,517.52,535.53
		z M517.2,532.43c-14.69-17.98-5.34-46.71,13.45-52.38c3.02-0.91,4.55-1.2,4.08,0.71c-0.31,11.8,0.35,13-0.82,15.08
		c-4.44,7.95-1.16,6.26-6.93,12.02c-0.71,0.71-1.25,1.64-1.02,2.65c4.26,19,6.01,23.78,12.23,30.88
		C535.32,543.07,524.02,540.79,517.2,532.43z M529.53,508.79c-0.2,1.43-0.51,2.85-0.82,4.89
		C527.32,508.65,529.31,507.93,529.53,508.79z M543.53,543.22c-8.62-3.05-21.24-29.01-4.82-51.13c1.84-2.47,2.04-1.35,3.36-3.06
		c1.94-2.49,4.11-3.93,7.06-4.9c-0.51,1.34-13.16,7.28-15.83,27.01C530.46,532.18,544.77,543.66,543.53,543.22z M544.51,541.4
		c-13.76-13.25-13.53-39.14,2.04-52.99c11.69-10.4,27.13-8.45,36.68,2.04C609.67,519.47,572.29,568.17,544.51,541.4z M549.44,483.92
		c0.23-0.65,0.86-0.51,1.39-0.6C550.47,483.76,550,483.88,549.44,483.92z M577.62,459.06c1.63-1.22,3.46-1.43,4.89-2.04
		C584,458.51,560,493.32,577.62,459.06z M587.71,455.09c4.18-1.32,7.95-3.26,11.92-4.48c2.44,2.44-8.79,5.29-16.49,20.65
		c-0.05,0.05,0.17,0.14-1.31-0.75C577.31,467.76,578.68,471.33,587.71,455.09z M574.97,474.25c0.1,0-0.49,0.51,2.64-3.26
		c5.93,3.44,5.24-0.14,2.12,9.65c-1.86,5.84,1.36,3.16-9.75-0.17C570.47,478.61,573.44,476.19,574.97,474.25z M614,524.99
		c3.03,4.85,1.53,0.46-3.65,15.22c-0.6,1.2-5.71-0.22-8.38,5.67c-7.07,15.59-2.68,26.02-16.71,4.28c-0.83-1.28-3.11-1.27-1.32-4.48
		c10.71-19.2,9.94-19.02,14.47-25.07C618.06,494.41,602.26,506.21,614,524.99z M616.86,525.4c-3.22,0.92-9.62-20.88-3.26-24.85
		C611.67,519.81,617.44,522.34,616.86,525.4z M634.38,478.63c0.78,0.85-2.45,7.85-2.04,15.79c0.24,4.69-8.52,18.86-11.52,23.95
		c-2.53,4.3-2.72,5.13-3.69,3.11c-2.51-5.25-3.54-13.23-1.92-21.25c0.98-4.82,3.75-4.35,8.05-12.23
		C628.28,478.82,633.99,478.33,634.38,478.63z M631.53,475.88c4.58-9.99,14.53-19.24,4.38-0.51
		C634.57,475.99,633.13,475.98,631.53,475.88z M559.08,553.02c1.56-3.5,0.7-2.81,2.82-2.81c11.08,0,15.79-4.56,21.76-9.45
		c0.12-0.08,0.23,0.64,0.18,0.74c-2.75,5.86-2.16,4.93-4.11,5.48c-10.5,3-1.72,2.08-10.25,3.79c-7.69,5.69-7.18,5.45-7.32,5.38
		c-3.72-1.15-9.44-2.4-7.87-5.11c0.65-1.12,1.27-1.3,2.05-1.14c1.39,0.29,0.73,0.29,0.39,3.01
		C557.7,553.71,558.47,554.09,559.08,553.02z M555.21,557.91c1.32,0.31,2.75,0.61,4.28,1.02c0,1.42-4.38,4.9-8.66,3.97
		C551.2,552.39,550.78,556.89,555.21,557.91z M623.79,586.34c0.98,6.19-1.58,3.09-15.49,6.73c-4.19,1.1-1.18-1.05-11.41,0.71
		c-12.14,2.09-15.44,1.84-21.5,0.31c-16.96-4.3,7.7-4.73-26.6-0.92c-3.62,0.4-4.3,0.07-10.29-1.94c-7.6-2.54-2.03-0.94,4.33-20.04
		c1.39-4.18,1.03-8.84,1.38-14.7c1.34-1.78,3.29-3.95,5.5-4.08c-1.75,9.62-0.66,8.25-1.12,10.39c1.35,3.24,6.76,1.67,9.58-0.41
		c0.59-0.44,4.4-3.99,6.83-4.28c1.63-2.45,4.08-3.67,5.71-5.4c2.14-0.51,4.28-0.1,6.62-1.12c0.89-0.44,1.6-3.85,6.08,1.58
		c0.67,0.81-6.01,2.47-8.12,7.08c-0.34,0.58-0.71,1.05-0.2,1.73c9.27-3.44,11.24-7.29,11.88-2.97c0.19,1.27-4.86,1.48-6.98,7.05
		c-0.46,1.2,0.65,0.22,8.96-3.47c1.05,0,1.33,0.56,2.07,1.63c0.12,0.18-0.51,0.73-0.64,0.82c-1.23,0.79-2.69,1.97-3.16,3.36
		c-0.7,2.1,0.64,1.13,7.34-1.43c1.35,0.24,2.17,1.77,2.14,2.07c-0.05,0.62-1.58,0.9-2.08,2.08c-1.09,2.57,5.22-0.6,6.77,0.95
		c1.22,0.92,0.2,2.14,1.53,2.65c0.82,0.2,1.53-0.82,2.75-0.82c16.93,5.64,2.25,2.28,17.83,5.4
		C625.35,581.18,623.44,581.2,623.79,586.34z M640.98,550.94c0.53,1-5.77,1.47-7.12,6.73c-0.27,1.05,5.33-2.67,9.5-3.84
		c0.84,0.28,1.26,0.99,1.53,1.94c-0.96,1.92-4.7,2.05-3.87,4.89c1.93,1.58,4.35-0.42,6.62-1.94c0.77,0.42,2.88,2.53,2.92,2.98
		c0.08,0.77-0.49,1.24-0.59,1.92c-0.22,1.44,2.34-0.09,4.19,0.21c0.4,0,2.1,1.06,2.19,1.6c0.12,0.71-0.7,1.41-0.36,1.66
		c1.2,1.2,1.52,0.77,3.67-0.31c5.65,2.62,9.53,3.21,18.14,3.87c0.69,1.38,3.21,7.56,3.23,9.09c0.04,3.93-6.85,6.99-10.67,7.1
		c-48.22,1.42-33.04-2.26-42.39-3.36c-1.97-3.75,0.65-6.6-5.81-7.44c-3.08-0.4-19.97-6.07-24.86-9.07c-1-4.68-0.7-1.84,1.02-3.87
		c4.4-5.19,0.04-6.83,7.44-19.16c5.11-2.56-1.29,7.1,6.32,11.21c4.88,2.63,23.98-8.05,25.27-9.99
		C637.97,545.79,638.04,545.4,640.98,550.94z M611.96,547.93c0-0.13,1.64,0.54,3.16,0.94c3.35,0.88,3.14,0.08,9.17,0.68
		c-3.26,2.04-6.83,3.06-10.28,3.77C611.15,552.6,611.35,551.04,611.96,547.93z M637.52,536.69c-0.02-0.23,0.14-0.44,0.32-0.58
		C637.75,536.42,637.62,537.62,637.52,536.69z M644.79,536.34c0.39,0.4,1.82,1.84,1.93,1.9
		C642.94,537.52,640.11,531.44,644.79,536.34z M682.07,535.59c-18.27,18.95-43.04-1.87-37.5-4.69c1.1,0,1.92,2.58,4.08,3.87
		c0.83,0.5,1.39,0.65,1.54,0.62c0.26,0.17,0.11,0.02,0,0c0.04-0.01,0.05-0.04,0.01-0.08c-7.4-7.4-9.07-0.47,25.65-48.54
		c3.94,0.39,8.52,8.06,9.87,8.16c-0.07,0.88,0.25,1.66,1.23,2.44c-0.61-2.14-0.94-2.43-1.03-2.44c0,0,0,0,0,0
		c-0.33,0,0.1-0.41-0.58-1.26c-6.05-7.62-8.27-7.63-8.27-8.56C678.32,478.02,707.08,509.65,682.07,535.59z M681.16,420.03
		c5.48,2.11,8.88,8.47,8.87,10.19c-0.09,8.39,0.72,17.3-3.97,25.58c-2.68,4.73-0.48,7.38-8.76,21.4
		c-23.09,39.06-22.15,31.12-37.7,56.76c-0.25,0.51-0.74,2.14-1.73,2.14c0,0,0,0,0,0.01c0-0.1-0.2-0.34-0.2-0.61
		c-4.39,3.76-2.14,6.93-2.27,7.06c-5.72,6.62-7.4,5.49-11.18,4.86c-7.28-1.21-10.48-1.51-12.64-4.38c0-1.71,11.83-24.05,14.62-28.83
		c14.7-25.17,3.7-8.17,11.45-33.42c4.8-15.64,11.72-19.82,14.06-25.68c0.72-0.26,13.19-0.15-2.12-3.57c-0.63,0,1.95-4.23,1.41-10.09
		c-0.22-2.41,1.24-9.01,1.26-11.64c0.03-4.54-2.05-6.93-2.28-9.76c-0.9-1.79-3.04-2.24-3.36-3.06c-2.39-4.58-11.26-5.83-6.83-7.54
		C657.49,402.59,651.88,408.74,681.16,420.03z M646.71,454.37c0.95,0,1.61-0.13,2.04,0.51c0,0.27,0.09,0.56,0,0.71
		c-6.75,9.75-4.98,7.79-6.32,8.46C641.44,460.58,642.37,460.73,646.71,454.37z M635.2,397.43c0.9-2.91,1-2.28,0.61-8.05
		c1.07-1.43,1.47-3.94,3.16-5.03c1.69-1.09-0.64,0.14,3.36,4.81c0,0,0,0,0,0.01c1.43-1.43-0.42-2.68-0.71-3.05
		c-0.1-1.2,0.68-2.11,0.8-3.11c0-0.42,18.66-7.45,18.66-10.75c0.32-2.91,2.92-4.22,4.18-6.11c3.19-3.19-2.83,13.76-3.36,23.13
		c-0.34,6.07-4.06,9.49-2.65,16.71c-1.08,0.27-1.93,0.46-3.16-0.61C651.47,401.36,633.05,403.16,635.2,397.43z M632.24,392.72
		c0.92,2.24-0.2,4.48,0.2,7.13c-3.36-0.41-6.32-0.82-9.38-1.22C624.6,397.21,629.8,393.84,632.24,392.72z M642.74,405.73
		c0.28,0.04,1.21-0.51-6.52,3.91c-3.73-1.39-18.52-8.09-18.41-8.19C619.4,398.26,620.68,400.72,642.74,405.73z M617.57,406.07
		c3.57,1.12,7.24,2.24,10.9,2.85c15.71,13.15,17.85,3.59,21.5,22.21c0.6,3.07-0.66,3.59-1.83,13.15
		c-1.31,10.7-3.63,5.59-11.52,20.48c-3.82,7.21-4.96,6.72-7.24,9.88c-14.73,20.44-11.51,18.36-15.29,22.01
		c-4.1,3.96-7.11,7.01-9.58,11.62c-2.84,5.29-4.13,4.77-10.5,15.18c-0.45,0.9-1.23,2.19-1.55,1.27c-0.56-1.6,7.31-20.48-10.99-38.77
		c2.18-12.09,7.27-16.83,7.95-21.6c10.62-11.19,21.95-17.16,18.24-16.3c-4.66,0.8-9.14-0.25-23.95,4.99c-3.72,0.93-2.24-0.03-2.14,0
		c6.49-12.05,3.83-5.66,12.23-9.17c8.6-3.59-5.3-0.68-5.3-2.13c0-1.37,7.53-12.15,6.11-13.77
		C599.56,418.88,607.37,407.85,617.57,406.07z M611.56,404.34c-0.6,1.19-5.02,1.57-11.21,10.39c-7.65,10.91-4.6,10.71-14.37,25.99
		c-22.06,34.48-12.19,28.7-21.2,38.83c-14.24,0-9.66,2.92,2.45-53.8c1.87-8.76,0.65-7.44,1.12-11.21c27.27-9.09,1.44-2.46,0.3-2.46
		c-1.21-2.14-0.4-4.17,0.01-6.1c2.14-1.94,4.89-1.32,7.85-2.96c-3.17,0-4.89,0.88-7.03,0.1c2.85-2.45,5.9-4.18,7.94-6.82
		C582.29,396.3,607.36,401.85,611.56,404.34z M618.89,303.66c9.07,21.82-4.51,31.34-2.23,32.71c1.9,1.14-5.24,12.03-16.72,19.17
		c-1.19-1.59,0.41-2.96-0.51-4.18c-0.73,0-0.97,0.51-1.22,1.12c-5.39,16.16-1.53,9.51-21.6,42.19c-1.12,0.61-2.34,0.31-3.16,1.12
		c-3.4,2.97-2.55,2.31-2.55-0.1c-2.78-2.78-6.46,9.62-5.6,15.69c1.5,10.67-8.89,43.12-12.02,68.17c0,1.04-0.8,0.67-2.99,1.85
		c-10.93,5.9-12.21,9.49-12.21,8.19c-1.28-16.87-0.35-15.41-1.62-16.98c-0.98-1.64,1.18,3.61-1.02-19.87
		c-1.56-16.6,5.91-43.48,5.91-53.8c2.3-4.78,8.85-26.6,10.9-36.89c2.55-2.55,2.09-0.66,2.75-14.98c0.57-12.32,1.03-4.63,0.31-11.11
		c0.91-3.88,4.69-6.48,7.74-16c0.84-2.63,1.71-2.95,9.78-15.18c2.92-4.42,11.28-6.28,14.88-10.6c4.18-0.82,8.25-2.34,12.53-3.87
		C608.16,293.06,615.27,294.95,618.89,303.66z M641.64,257.05c-0.01,0.01-0.01,0.03-0.02,0.04
		C640.06,256.31,642.22,255.82,641.64,257.05z M642.64,252.71c-4.14-3.76-0.89-7.94,1.43-3.77
		C643.41,250.89,643.16,249.25,642.64,252.71z M645.08,253.12c-0.38-0.38,0.07-0.28,0.31-0.51
		C645.65,252.61,645.73,253.34,645.08,253.12z M646.1,237.83c-0.84-3.56,0.91-5.24,0.99-3.29
		C647.14,235.88,646.02,236.75,646.1,237.83z M650.79,251.28c-0.63-0.63-0.19-0.81,0.1-0.71
		C651.43,250.57,650.79,251.11,650.79,251.28z M649.77,237.42c0.17-1.74,1.55-2.24,2.24-1.32
		C651.6,236.81,650.79,237.02,649.77,237.42z M652.11,248.33c-1.04,0.52-0.52-0.93,0.17-0.92
		C652.53,247.41,652.39,247.23,652.11,248.33z M652.62,247.21c-0.08,0.08-0.05,0.03,0.01-0.06
		C652.62,247.18,652.62,247.21,652.62,247.21z M661.08,213.58c-0.67,1.92-1.73,1.93-3.56,1.53
		C658.84,214.73,659.49,213.67,661.08,213.58z M657.11,220.1c0.26,0.13,0.26,0.08,0,0.2V220.1z M653.44,238.54
		c-0.28-1.64,0.02-2.07,1.63-1.53C654.97,238.03,654.36,238.44,653.44,238.54z M655.18,234.1c-0.3,0.36-0.44-0.12,0-0.48
		C655.36,233.51,655.29,233.97,655.18,234.1z M656.9,224.99c0.92-2.65,2.96-3.16,4.79-4.69
		C661.08,222.44,660.27,223.16,656.9,224.99z M660.47,233.55c-0.42-0.14-0.64,0.03,0.41-2.76
		C662.41,230.98,662.96,231.77,660.47,233.55z M665.06,225.6c-0.23-0.47,0.01-0.4,0.23-0.39
		C665.21,225.34,665.14,225.45,665.06,225.6z M670.05,211.74c-0.49,0-0.26-0.77,0.31-0.2C670.25,211.64,670.15,211.64,670.05,211.74
		z M683.3,218.67c-0.2,0.2-0.51,0.41-0.82,0.71C682.08,218.27,682.88,218.67,683.3,218.67z M676.37,222.65
		c-0.55,0-0.29-0.99,0.25-0.87C677.15,221.9,677.64,222.97,676.37,222.65z M675.55,216.53c-0.32-0.55-0.02-2.32,1.44-2.58
		C679.82,213.45,678.09,215.26,675.55,216.53z M678.91,220.81c0.1,0.2,0.2,0.41,0.2,0.61C678.81,221.73,678.37,221.36,678.91,220.81
		z M683.27,225.32c-0.14-0.07-1.73,0.19-3.32-1.64c-0.2-0.27,1.81-0.03,3.06,1.21C683.23,225.21,683.4,225.39,683.27,225.32z
		 M683.4,215.62c-0.46-0.23-0.03-0.96,0.52-0.41C683.7,215.31,683.6,215.51,683.4,215.62z M685.44,224.69
		c-0.11-0.21-0.17-0.2-0.07-0.2C685.59,224.48,685.57,224.43,685.44,224.69z M689.82,226.62c0.23-0.33,0.54-0.27,0.71,0
		C690.33,226.93,690.02,226.93,689.82,226.62z M693.08,214.9c0.59-1.3,0.52-2.15,1.22-2.55
		C695.39,213.45,695.44,213.46,693.08,214.9z M692.72,248.83c-0.22,0.25-0.52,0.1-2.6-0.19C692.1,247.53,693.28,248.2,692.72,248.83
		z M699.8,221.83c-1.02,0-0.86-0.49-0.61-2.24C699.64,219.29,703.55,218.08,699.8,221.83z"/>
	<path d="M359.45,206.65l0.1-0.1C359.47,206.5,359.48,206.53,359.45,206.65z"/>
	<path d="M644.27,357.46c-1.7,5-4.59,9.58-6.62,14.16c-13.03,9.31-13.24,5.08-17.12,7.85c6.75,0.61,4.54,1.34,13.35-1.53
		c4.17-1.36,6.22-4.18,6.42-8.56C648.89,353.66,644.94,355.5,644.27,357.46z"/>
	<path d="M652.42,346.26c-0.67,0.01,0.14,2.68,2.96,2.34c4.39-1.1,10.01-9.66,11.01-18.24C669.57,302.99,664.7,346.04,652.42,346.26
		z"/>
	<path d="M320.73,41.16c-0.51,0-1.12,0.41-1.22,1.32c3.46,0.61,6.83,1.22,10.5,0.61c1.62-3.25,2.89-1.08,3.77-2.55
		c1.07-4.81-8.57-3.96-9.68-4.48c-2.39-1.13-11.4,5.92-1.53,1.53c2.8,2.15,6.01,0.7,6.01,2.65
		C325.82,39.83,323.38,41.36,320.73,41.16z"/>
	<path d="M672.7,246.7c-6.21,0.71-6.68,0.45-6.83,1.94c13.99,2.47,9.21,0.05,12.13-0.92c0.1-0.03,4.37,1.16,1.73-3.06
		c-3.06-2.14-6.42-1.71-9.58-2.14c-2.14-0.29-4.08,1.12-6.11,2.34c2.14,1.12,3.36-0.92,5.2-0.82c2.87,1.91,5.95,0.95,6.32,2.96
		C674.53,246.9,673.62,246.59,672.7,246.7z"/>
	<path d="M303.81,109.43c-0.25-0.25,7.12,1.16,13.86,1.53c8.72,0.47,7.87,4.48,12.74,4.18c0.44-2.21,2.78-1.68,6.22-3.06
		c2.57-1.28-2.87-2.63-7.34,1.02c-1.43-0.82-2.65-1.83-3.97-2.04C325.21,111.05,297.69,104.85,303.81,109.43z"/>
	<path d="M301.67,67.45c0.8,0.84,13.08,11.52,13.55,10.09c-0.51-1.83-0.51-1.83-10.5-9.27c-1.02-3.97-2.55-7.85-1.83-12.02
		c-1.38-0.31-1.97,1.48-2.14,2.85c-0.31,2.55,0.61,4.79,1.32,6.93C301.87,66.53,301.37,66.94,301.67,67.45z"/>
	<path d="M660.27,283.18c-0.92-2.04-0.92-2.04-10.19-9.58c-0.92-4.08-2.14-7.95-1.32-12.02c-1.12-0.2-1.73,0.51-1.63,1.12
		c0.43,2.75-1.13,5.71,0.51,8.46c0.3,0.51,0,1.32,0,2.34C659.51,283.72,659.55,284.07,660.27,283.18z"/>
	<path d="M241.75,166.91c-1.03-0.81-1.74-4.73-2.04-6.11c-0.78-5.43-4.97,2.91,1.83,7.54c0.71,3.06,1.83,5.81,3.16,8.66
		c-1.12,1.22-1.24,2.65-1.53,4.08c-0.55,2.74-0.51,2.75,0.82,4.28c0.61-1.63,0.11-3.16,0.2-4.69c0.11-1.73,1.53-2.65,2.14-3.97
		C246.26,175.44,243.82,168.54,241.75,166.91z"/>
	<path d="M340.7,463.65c-1.26,0.54-1,0.26-4.38,9.48C329.85,490.74,345.94,465.55,340.7,463.65z"/>
	<path d="M244.4,140.62c-0.2-1.22,0.31-2.65-1.12-3.87c-3.98,4.97,6.43,19.47,9.88,16.71c-0.51-2.14-2.34-3.26-3.67-4.69
		C242.08,140.82,246.02,146.55,244.4,140.62z"/>
	<path d="M237.27,212.25c2.14,0.41,2.24,3.46,4.38,4.18c3.02-0.86-1.19-3.48-1.43-3.87C239.94,194.56,234.24,205.51,237.27,212.25z"
		/>
	<path d="M686.35,274.41c1.85-2.47-8.13-0.48-12.74-1.53c-0.95-0.47-2.42,1.94,0.31,1.94C689.06,274.82,685.27,274.96,686.35,274.41
		z"/>
	<path d="M680.24,276.86c-2.15-0.59-3.46,0.41-4.59,2.45c1.12,1.22,2.45,1.43,3.87,1.22c1.43-0.1,3.16,0.51,4.48-1.02
		C683.5,277.47,681.76,277.28,680.24,276.86z"/>
	<path d="M341.31,67.35c-1.19-1.79-7.24-0.04-12.94-0.71c-1.05-0.26-2.02,0.99-0.92,1.63c0.67,0.39,0.62,0.5,12.94-0.2
		C340.6,68.06,340.9,67.65,341.31,67.35z"/>
	<path d="M341.01,451.62c-0.74-1.74-2.14-0.89-2.14,0.1c2,7.76,0.41,10.09,2.24,10.7C342.3,459.33,342.55,455.22,341.01,451.62z"/>
	<path d="M332.24,70.4c-3.98,3.98,0.62,4.11,6.11,3.06c0.1-1.63,0-1.94-0.61-2.34C336.01,70.3,334.18,69.59,332.24,70.4z"/>
	<path d="M652.93,320.78c-1.81-1.43-10.27-6.9-10.9-4.69c3.77,2.24,7.64,4.48,11.52,6.83C654.25,321.7,653.54,321.19,652.93,320.78z
		"/>
	<path d="M311.35,87.12c0.56-0.56,0.24-0.28,0.82-1.43c-3.32-5.97-5.6-10.89-6.11-11.41c-1.05-1.4-2.67-0.31,4.69,10.39
		C310.54,85.79,310.64,86.3,311.35,87.12z"/>
	<path d="M650.79,306.21c-0.18-0.82-0.2-1.83-1.43-2.65C648.72,317.04,654.23,321.49,650.79,306.21z"/>
	<path d="M584.86,390.68c0.5,2.75,4.66-1.04,7.85-1.83C593.4,387.46,584.32,387.73,584.86,390.68z"/>
	<path d="M680.34,266.77c0.92,0.31,1.43-0.51,2.14-0.51c0.9,0.13,4.3,1.25,3.97-1.02C682.74,262.76,678.11,265.49,680.34,266.77z"/>
	<path d="M336.11,59.91c0.99-0.75,5.41,1.18,4.28-1.83C334.09,55.48,332.59,62.02,336.11,59.91z"/>
	<path d="M334.38,410.66c1.02,2.45,3.57,2.45,5.71,3.16C338.81,413.11,335.39,406.62,334.38,410.66z"/>
	<path d="M239.61,218.57c-2.43-0.81-1.48,5.01-0.61,7.44C239.92,223.26,239.92,220.91,239.61,218.57z"/>
	<path d="M232.48,284.91c-1.01,1.06-1.22,4.79,0.41,4.79C233.92,287.47,233.56,283.78,232.48,284.91z"/>
	<path d="M646.1,353.18c1.83-1.12,2.24-1.94,2.34-4.59C646.1,350.64,645.8,351.25,646.1,353.18z"/>
	<path d="M240.02,237.63c-1.32,1.94-1.22,2.14,0.51,3.87C241.28,239.99,241.46,237.39,240.02,237.63z"/>
	<path d="M330.1,86.91c-1.43,1.53-2.85,2.65-3.57,4.48C330.31,88.95,330.31,88.95,330.1,86.91z"/>
	<path d="M241.65,244.66c-2.47-0.31-1.42,2.92,0.2,4.69C242.36,247.61,242.16,246.08,241.65,244.66z"/>
	<path d="M298.41,85.18c2.49,7.05,1.42,5.7,2.14,6.42C300.65,87.83,300.35,86.71,298.41,85.18z"/>
	<path d="M637.34,290.11c-0.71,2.24-0.1,3.87,0.51,5.5C639.07,293.78,638.36,292.14,637.34,290.11z"/>
	<path d="M330.92,500.13c-0.2,0.82-0.61,1.63,0.71,2.34c0.31-1.53,1.22-2.85,0.71-4.48C330.92,498.09,331.22,499.31,330.92,500.13z"
		/>
	<path d="M341.11,525.4c-0.82,3.77-0.82,4.08,0.51,5.71C342.1,530.14,342.11,532.1,341.11,525.4z"/>
	<path d="M251.94,186.68c1.67,0.63,1.85-2.03,0.51-3.77C252.15,184.23,251.64,185.45,251.94,186.68z"/>
	<path d="M330.92,531.41c-0.82,1.22-1.53,2.14-1.53,3.46C331.12,534.27,331.12,534.27,330.92,531.41z"/>
	<path d="M239.71,228.86c-1.63,1.12-1.63,1.12-1.02,4.28C239.61,231.72,240.02,230.39,239.71,228.86z"/>
	<path d="M612.98,377.74c4.12,2.06,4.04-0.54,1.02-0.92C613.49,376.83,613.09,377.13,612.98,377.74z"/>
	<path d="M257.24,114.43c2.55-1.22,2.55-1.22,2.85-3.06C258.77,112.18,257.45,112.8,257.24,114.43z"/>
	<path d="M329.39,512.76c-0.92,1.53-1.02,2.75-0.61,4.08C330.1,515.82,329.9,514.6,329.39,512.76z"/>
	<path d="M331.73,529.58c0.31-1.63,0.2-2.96,0.2-4.38C330.31,527.23,330.31,527.64,331.73,529.58z"/>
	<path d="M602.59,387.63c0.92,0.51,1.73,0.31,2.34-0.51C603.2,385.79,602.9,385.9,602.59,387.63z"/>
	<path d="M339.27,440.62c-0.41-1.63-0.92-2.65-2.24-3.26C336.93,438.78,337.54,439.8,339.27,440.62z"/>
	<path d="M255.41,153.66c-0.41,1.83,0.31,2.55,1.94,2.24C256.94,154.98,256.83,153.76,255.41,153.66z"/>
	<path d="M330,510.32c0.51-1.53,0.92-2.45,0.1-3.97C329.59,507.77,328.68,508.59,330,510.32z"/>
	<path d="M254.59,177.91c1.32-0.61,1.32-1.53,0.92-3.06C254.29,175.87,253.98,176.69,254.59,177.91z"/>
	<path d="M650.48,336.68c-0.21,1.26,1.22,1.57,1.22,0.2C651.71,334.9,650.48,335.71,650.48,336.68z"/>
	<path d="M275.69,147.75c-1.12,0.71-1.83,1.63-1.73,2.96C275.89,149.18,275.89,149.18,275.69,147.75z"/>
	<path d="M258.77,157.12c1.02,0.61,1.32,2.14,2.85,2.24C261.72,158.24,259.63,155.83,258.77,157.12z"/>
	<path d="M595.76,387.93c1.12,0.51,1.94,0.61,2.65-0.1C597.19,386.3,597.09,386.3,595.76,387.93z"/>
	<path d="M264.37,108.62c1.53-0.1,2.55,0.2,3.16-1.12C266.41,106.99,265.6,107.5,264.37,108.62z"/>
	<path d="M650.59,301.42c0.71-0.71,0.51-1.43-0.1-2.45C649.36,300.3,649.36,300.3,650.59,301.42z"/>
	<path d="M246.95,222.85c0.1-0.92,0.61-1.73-0.61-2.34C245.52,221.33,246.19,222.42,246.95,222.85z"/>
	<path d="M332.96,444.08c-0.2,1.22,0.31,2.04,1.02,3.26C334.28,445.81,334.08,444.9,332.96,444.08z"/>
	<path d="M636.73,280.94c-0.97,0.97,0.42,1.69,0.71,0.82C637.54,281.24,637.24,280.94,636.73,280.94z"/>
	<path d="M243.38,217.86c-0.95,0.48,0.06,1.42,0.51,1.12C244.33,218.54,243.77,217.86,243.38,217.86z"/>
	<path d="M332.02,525.13c-0.03,0.02-0.05,0.05-0.08,0.07C332.05,525.31,332.06,525.37,332.02,525.13z"/>
	<path d="M332.65,522.24c-1.16,0.77-0.76,1.82-0.63,2.88C333.03,524.32,332.75,523.23,332.65,522.24z"/>
	<path d="M639.68,379.68c0.61-0.92,0.1-1.12-0.71-1.32C638.56,379.17,638.77,379.58,639.68,379.68z"/>
	<path d="M244.5,192.18c-0.39-1.93-1.81-0.79-0.71,0.31C243.99,192.69,244.4,192.59,244.5,192.18z"/>
	<path d="M637.34,285.11c0.28,0,0.48-0.44,0.1-0.82C637.13,284.5,637.13,284.71,637.34,285.11z"/>
	<path d="M609.72,376.11c-0.72,0.72-0.04,0.69,0.2,0.82C610.35,376.08,609.99,375.84,609.72,376.11z"/>
	<path d="M334.69,481.07c0-0.41,0.1-0.71,0.1-1.02C334.79,480.36,334.38,480.56,334.69,481.07z"/>
	<path d="M605.65,373.97c0.29,0.29,0.2,0.51,0.71,0C605.72,373.97,606.06,373.56,605.65,373.97z"/>
	<path d="M332.85,522.04c-0.1,0-0.1,0.2-0.1,0.31C332.96,522.14,332.96,522.04,332.85,522.04z"/>
	<path d="M261.83,159.57c-0.1,0-0.2-0.1-0.31-0.1C261.62,159.67,261.73,159.77,261.83,159.57z"/>
	<path d="M273.85,150.7c0,0-0.1,0-0.31,0.2C273.55,151.2,273.85,151.22,273.85,150.7z"/>
	<path d="M252.45,122.58l-0.1,0.31C252.62,122.88,252.58,122.96,252.45,122.58z"/>
	<path d="M257.14,114.43c-0.12,0-0.31,0.15-0.31,0.31C257.04,114.83,257.14,114.73,257.14,114.43z"/>
	<path d="M336.73,437.05c0.06,0.06,0.16,0.09,0.26,0.13C336.86,437.01,337.04,437.05,336.73,437.05z"/>
	<path d="M329.14,430.38c0.02,0.02,0.02,0.03,0.04,0.05C329.18,430.51,329.53,430.66,329.14,430.38z"/>
	<path d="M329.14,430.38c-0.05-0.08-0.08-0.15-0.16-0.15C329.03,430.27,329.08,430.33,329.14,430.38z"/>
	<path d="M329.18,430.02c-0.19,0-0.15-0.09-0.1,0.1L329.18,430.02z"/>
	<path d="M328.56,429.41c-0.05-0.03-0.26-0.01-0.3,0C329.07,430.62,329.22,429.54,328.56,429.41z"/>
	<path d="M620.32,379.58c0.26-0.13,0.23-0.07,0.1-0.2L620.32,379.58z"/>
	<path d="M660.37,315.58C660.16,315.89,660.47,315.58,660.37,315.58L660.37,315.58z"/>
	<path d="M329.08,487.49c0.48,0,0.67-0.19,0.61-0.71C329.26,486.72,328.99,486.92,329.08,487.49z"/>
	<path d="M329.8,486.78C329.8,486.78,329.8,486.78,329.8,486.78C329.8,486.78,329.8,486.78,329.8,486.78
		C329.8,486.78,329.8,486.78,329.8,486.78c2.44-1.09,3.61-2.48,1.94-2.85c-1.22,0.61-1.73,1.62-1.93,2.84
		c-0.01-0.01-0.02-0.01-0.04-0.03c-0.1-0.1-0.06-0.08-0.06,0.04C329.74,486.78,329.78,486.78,329.8,486.78z"/>
	<path d="M328.78,487.9c0-0.2,0.1-0.31,0.2-0.51C328.78,487.49,328.37,487.39,328.78,487.9z"/>
	<path d="M353.95,314.77l0.1-0.1C353.94,314.56,354.01,314.6,353.95,314.77z"/>
	<path d="M266.92,383.14l-0.1-0.1C266.82,383.25,266.73,383.18,266.92,383.14z"/>
	<path d="M328.98,339.33c3.27-9.68-0.08-8.87-0.1-7.44c-0.1,5.32-2.18,7.74-2.75,12.23c-0.37,2.93-2.08,12.8-5.5,15.79
		c-0.1,0.1-0.15,0.67,0.45,0.74c3.62,0.45,4.76-11.43,6.04-13.43c0.33-0.66,3.61,4.42,5.13,17.07c0,5.07,3.66-4.99-1.67-16.48
		C327.6,341.42,326.43,346.87,328.98,339.33z"/>
	<path d="M323.49,273.2C323.54,273.66,323.51,273.22,323.49,273.2L323.49,273.2z"/>
	<path d="M323.48,273.39c0-0.16,0.01-0.2,0.01-0.2c-0.06-0.54-0.22-2.33-0.62-7.55c5.57,1.39,10.35-0.36,15.69-1.43
		c-0.65-0.09-2.04-0.34-3.91-0.5c-8.21-0.68-8.92,1.34-12.61,0.5c-8.43-1.93-8.18-1.85-10.28-1.32c0.88,2.65,6.19,2.14,9.17,2.65
		C320.96,265.69,321.07,272.91,323.48,273.39z"/>
	<path d="M328.57,327.71c0.13,0.67,0.56,0.88,1.12,1.02c0.96-5.58-1.24,3.44,0-44.23c-3.05,1.66-0.63,9.69-1.83,26.6
		C327.46,316.7,328.27,322.21,328.57,327.71z"/>
	<path d="M321.22,373.27c-0.23-0.31-1.21,0.19-1.41,1.42c-0.93,5.72,1.9,17.47,3.02,18.59c1.78,1.78,0.75-2-0.77-11.76
		C320.61,372.25,322.18,374.55,321.22,373.27z"/>
	<path d="M345.91,294.28c4.32,3.96,3.89,5.24,4.69,4.28c-3.57-6.22-8.76-11.11-12.23-17.32
		C334.31,282.13,342.82,291.46,345.91,294.28z"/>
	<path d="M285.16,276.04c5.81,5.18,18.51,13.57,15.29,10.39C291.64,277.75,285.45,272.31,285.16,276.04z"/>
	<path d="M334.79,323.84c-3.3,0.47-5.2,4.42,5.08,0.93c1.69-0.57,9.21-3.63,9.38-4.88C349.25,319.28,342.36,321.99,334.79,323.84z"
		/>
	<path d="M285.98,292.45c-4.67,1,4.42,9.62,9.13,9.98C299.49,302.76,290.35,298.84,285.98,292.45z"/>
	<path d="M333.46,329.65c-0.21-0.11-0.46-0.1-0.71-0.1c-0.38,3.05-2.75,2.46,11.11,9.88C343.86,338.39,344.59,340.03,333.46,329.65z
		"/>
	<path d="M321.13,290.62c0.99,9.02,0.54,17.63,4.59,22.21c0.5-1.99-0.79-0.16-2.65-13.65C322.19,292.78,322.87,291.92,321.13,290.62
		z"/>
	<path d="M344.88,276.51c-0.07-2.87-5.4-8.8-7.03-6.58C336.3,273.02,344.89,277,344.88,276.51z"/>
	<path d="M295.05,385.9c0,7.7-3.03,15.38-1.7,16.14c1.96,1.12,2.69-16.04,2.73-18.49C294.95,384.67,295.05,385.28,295.05,385.9z"/>
	<path d="M262.31,263.97c0,0.14-0.49,2.64-0.49,5.76C267.23,255.3,263.77,252.26,262.31,263.97z"/>
	<path d="M331.51,314c0.72,0.28,2.95-1.03,3.59-1.48c5.6-3.94,5.84-3.65,4.84-4.34c-0.2-0.1-0.2,0.29-2.18,1.33
		C334.27,311.35,328.55,312.83,331.51,314z"/>
	<path d="M313.49,317.82c2.24,2.34,5.5,3.26,10.6,3.16C316.14,318.33,315.64,317.19,313.49,317.82z"/>
	<path d="M283.53,249.65c-0.5,0.99-1.07,1.89-0.41,3.87C284.85,251.8,285.03,249.46,283.53,249.65z"/>
	<path d="M325.82,280.63c-1.36,1.36-3.41,1.52-4.7,3.67c2.04-0.1,3.36-1.53,4.99-2.65C326.12,281.65,326.03,281.24,325.82,280.63z"
		/>
	<path d="M306.26,264.43c1.21,0.83,1.87,1.27,2.45,1.63C308.93,264.24,307.14,263.07,306.26,264.43z"/>
	<path d="M319.5,284.81c-0.13,0.18-0.14,0.11,0.01,0.11c0.13,0.13,0.18-0.01,0.08-0.01h0.01L319.5,284.81z"/>
	<path d="M316.04,286.44c1.74,0,2.48-0.61,3.36-1.5C319,284.96,317.48,284.99,316.04,286.44z"/>
	<path d="M261.16,273.51c-0.02,0.02-0.05,0.04-0.05,0.09C261.11,275.15,261.34,273.33,261.16,273.51z"/>
	<path d="M332.24,368.37c0.26,0,0.2,0.1,0.2-0.61C332.19,367.76,332.24,367.65,332.24,368.37z"/>
	<path d="M261.85,386.6c0.53-0.43,0.39-1.04,0.39-1.52C261.39,385.75,261.74,386.7,261.85,386.6z"/>
	<path d="M319.78,284.69c-0.28,0.46,0.98,0.31,1.21-0.4C321.05,284.11,320.12,284.12,319.78,284.69z"/>
	<path d="M315.94,286.34c-0.31,0.1-0.71-0.1-1.02,0.51C315.31,286.85,315.85,287.02,315.94,286.34z"/>
	<path d="M349.36,319.86c0.29-0.1,0.74,0.08,0.92-0.41C349.77,319.15,349.57,319.35,349.36,319.86z"/>
	<path d="M262.57,384.97c0.23-0.23,0.31-0.43-0.13-0.81C262.44,385.04,262.11,385.43,262.57,384.97z"/>
	<path d="M266.72,383.04c0-0.11,0.4-1.62,0.1-0.53C266.72,382.51,266.72,382.94,266.72,383.04z"/>
	<path d="M268.64,358.22c-0.26,0.09-0.45,0.31-0.49,0.64C268.16,359.23,269.08,358.11,268.64,358.22z"/>
	<path d="M268.14,358.99c0-0.16,0.08-0.1-0.1-0.1C268.08,358.93,268.11,358.96,268.14,358.99z"/>
	<path d="M268.88,358.18c0,0.22,0.53,0.07,0.58-0.59C269.14,357.62,268.91,357.8,268.88,358.18z"/>
	<path d="M267.24,359.74c-0.06,0.07-0.11,0.07-0.11,0.07C267.13,360.49,267.58,359.39,267.24,359.74z"/>
	<path d="M267.35,359.6c-0.01,0-0.02,0-0.02,0C267.51,359.78,267.45,359.64,267.35,359.6z"/>
	<path d="M268.04,358.89c-0.1,0.05-0.26,0.15-0.39,0.26C267.06,359.75,268.04,359.85,268.04,358.89z"/>
	<path d="M308.7,266.06l-0.1,0.1C308.99,266.29,308.97,266.33,308.7,266.06z"/>
	<path d="M319.81,190.45c0.31-0.51,0.41-1.12,0.71-1.63c0.25-0.42,6.01-4.92,6.01-7.85c-1.77-2.36-3.88,6.64-11.52,9.38
		c-2.53,0.91-5.62,2.67-8.25,4.99C307.27,196.35,304.8,196.9,319.81,190.45z"/>
	<path d="M334.99,156.72c-1.09-3.26-3.6,3.46-4.69,6.73c-1,3.01-2.11,3.43-6.42,7.74C327.4,174.41,332.95,165.39,334.99,156.72z"/>
	<path d="M328.79,208.05c-0.98,1.22,0.59-2.32-0.32,15.71C334.06,217.02,330.99,205.32,328.79,208.05z"/>
	<path d="M330.61,190.24c0.71,4.35-0.61,9.06-0.61,13.96C332.15,202.38,333.15,189.36,330.61,190.24z"/>
	<path d="M333.82,180.89c-0.43,0.46-0.29,0.89,0.25,1.21c3.05,2.13,3.59,3.48,6.32,5.3C341.3,184.67,334.68,179.98,333.82,180.89z"
		/>
	<path d="M300.14,172.71c-1.63-0.52-2.88-2.25-4.89-1.32C295.71,172.88,298.83,173.84,300.14,172.71z"/>
	<path d="M348.24,172.82c-1.12-0.71-2.45-1.12-4.59-0.82C345.28,173.4,348.83,174.88,348.24,172.82z"/>
	<path d="M296.51,205.4c0.8-0.6,1.6-1.21,2-2.72C294.88,203.17,295.78,206.12,296.51,205.4z"/>
	<path d="M327.55,233.96c0.35-0.3,0.4-0.61,0.4-0.95c-0.1-1.87,0.83-2.41-0.09-3.33C326.43,232.43,326.43,232.74,327.55,233.96z"/>
	<path d="M304.22,196.76c-1.22,0.31-1.83,1.12-2.45,2.45C304.01,198.8,304.12,198.7,304.22,196.76z"/>
	<path d="M295.25,231.92c0.08-1.04,0.03-1.9-0.82-2.65C293.19,230.82,293.24,231,295.25,231.92z"/>
	<path d="M313.7,173.53c-1.82-0.91-1.93-0.92-3.16,0.51C311.66,174.14,312.57,174.04,313.7,173.53z"/>
	<path d="M284.97,184.7c0.68,0.3,1.43,0.2,2.13-0.05C286.59,182.86,282.27,183.51,284.97,184.7z"/>
	<path d="M298.5,237.13c-0.3-0.7-0.49-1.51-1-2.08C296.23,233.78,296.32,236.25,298.5,237.13z"/>
	<path d="M280.44,182.32c0.99,0.55,3.36,0.06,0.03-1.05C280.17,181.07,279.29,181.68,280.44,182.32z"/>
	<path d="M278.7,194.99c1.39,0,0.31-1.56-0.77-0.88C278.06,194.71,278.31,194.99,278.7,194.99z"/>
	<path d="M306.87,173.53c-0.2-0.1-0.51-0.31-0.82-0.51C303.6,172.41,305.92,175.12,306.87,173.53z"/>
	<path d="M275.02,193.16c0.93-0.01-0.11-0.86-0.47-0.86C273.6,192.3,274.55,193.16,275.02,193.16z"/>
	<path d="M274.84,204.82c0,0.47,0.91-0.11,0.44-0.11C275.1,204.54,274.84,204.61,274.84,204.82z"/>
	<path d="M276.13,179.04c-0.04-0.13,0.02-0.18-0.14-0.01C276.25,179.29,276.22,179.3,276.13,179.04z"/>
	<path d="M273.14,422.65c0-1.31-1.1-1.37-1.83-0.28c-2.43,4.5-0.36,10.31,0.97,10.64C275.9,434.15,272.67,426.69,273.14,422.65z"/>
	<path d="M271.1,454.99c2.07-3.66-0.01-12.37-1.94-14.67c-0.77,1.16,0.33-1.45,0.51,12.43C269.7,454.48,270.35,454.49,271.1,454.99z
		"/>
	<path d="M272.78,459.32c-2.78,2.72-3.54,9.92-3.82,13.81C268.96,475.98,274.59,458.41,272.78,459.32z"/>
	<path d="M249.79,458.57c0-0.06-0.4-0.66-0.6-1.13c-3.23,3.03-1.6,5.35-4.48,10.5c-1.82,3.24,1.28,3.43,2.3-2.57
		C247.63,461.71,250.11,459.32,249.79,458.57z"/>
	<path d="M254.13,444.06c-1.86,2.68-3.31,5.49-3.81,8.68C257.46,443.64,254.76,443.16,254.13,444.06z"/>
	<path d="M262.64,426.86c0.41,2.24,0.31,4.69,3.16,5.71C263.01,425.94,263.53,426.56,262.64,426.86z"/>
	<path d="M249.5,481.17c-0.27,1.71-0.31,9.78-0.31,9.88c1.31-0.87-0.06-3.25,1.32-7.64C250.78,482.88,250.94,481.05,249.5,481.17z"
		/>
	<path d="M266.51,435.32c0,2.98,0.66,5.82,1.89,4C268.8,438.72,268.5,436.09,266.51,435.32z"/>
	<path d="M240.94,529.78c1.44-1.18,1.52-2.44,1.44-4.29C240.33,527.23,240.12,527.85,240.94,529.78z"/>
	<path d="M252.35,464.67c0,0.43-1.32,2.42-0.82,5.1C252.17,468.9,254.3,464.67,252.35,464.67z"/>
	<path d="M243.69,513.99c0.95-0.69,1.31-1.08,1.32-1.88C245.1,508.35,243.28,510.93,243.69,513.99z"/>
	<path d="M242.57,521.53c0.68-1.37,0.84-2.41-0.2-3.57C241.85,519.18,241.75,520.31,242.57,521.53z"/>
	<path d="M272.56,416.64c1.47,1.2,1.67-2.88-0.85-2.11C271.95,415.89,272,416.19,272.56,416.64z"/>
	<path d="M248.07,506.85c0.42-1.43,0.38-1.45-0.71-2.55C246.95,505.73,246.95,505.73,248.07,506.85z"/>
	<path d="M248.38,497.78c-0.1-1.22-0.1-2.45-0.2-3.67C248.07,495.34,247.66,496.56,248.38,497.78z"/>
	<path d="M264.78,489.73c1.12-0.1,1.12-1.02,1.12-1.94C265.09,488.1,264.37,488.61,264.78,489.73z"/>
	<path d="M267.02,481.89c0.98-0.6,1.34-1.28,0.82-2.34C266.92,480.16,266.72,480.87,267.02,481.89z"/>
	<path d="M242.98,485.86c0,0.45,0.23,0.19,0.61,0C243.5,485.7,243.19,485.22,242.98,485.86z"/>
	<path d="M251.03,471.49c0.13,0,0.13,0.06,0-0.2V471.49z"/>
	<path d="M248.99,492.08c0.1-0.41,0.1-0.82,0.1-1.12C248.99,491.36,248.48,491.57,248.99,492.08z"/>
	<path d="M245.01,477.84c-0.1,0.2-0.21,0.28,0.1-0.03C245.11,477.36,245.09,477.8,245.01,477.84z"/>
	<path d="M244.61,478.12c-0.09,0-0.1,0.11-0.1,0.2C244.58,478.17,244.73,477.99,244.61,478.12z"/>
	<path d="M244.74,477.98c-0.09,0.09-0.14,0.16,0.03-0.01C244.82,477.92,244.85,477.88,244.74,477.98z"/>
	<path d="M236.86,345.85l0.1-0.1C236.76,345.79,236.78,345.73,236.86,345.85z"/>
	<path d="M260.82,292.95c11.28,5.16,9.02,7.18,13.86,10.09c-0.01-1.21-1.03-1.82-1.74-2.64c-24.78-28.32-52.74,9.19-44.82,32.52
		c1.02,2.99,5.83,12.84,8.69,12.84C213.78,315.68,243.72,285.13,260.82,292.95z"/>
	<path d="M264.59,329.43c2.9-4.68,3.48-10.53-1.23-14.66c-1.4-1.23-2.43-0.1-2.55-0.1c-0.46-0.07-7.07-2.29-9.78,3.87
		c-2.47,5.62-1.09,12.84,8.97,12.84c0.23,0,0.18-0.7,1.5-0.71c0.09,0-0.09-0.56,0.64-0.78c0,1.21-0.08,0.21-0.78,1.17
		c-0.38,0.52-1.22,0.21-1.29,0.37c-1.26,1.26-4.9,0.57-6.47-0.25C247.86,328.88,258.95,338.52,264.59,329.43z M262.38,329.85
		c-0.1,0-0.03,0-0.14,0C262.7,328.46,263.2,329.76,262.38,329.85z M264.37,326.84c0.22-1.8,0.6-2.06,0.6-1.94
		C264.96,325.67,265.28,326.39,264.37,326.84z M265.09,324.62c-0.09-1.9,0.09-3.78-0.71-5.57
		C266.05,318.67,266.16,323.19,265.09,324.62z M264.26,327.03c0,0.26-0.09,0.71-0.31,1.03C263.55,328.66,264,327.31,264.26,327.03z
		 M263.65,328.44c-0.14,0.23-0.27,0.53-0.54,0.64C262.77,329.23,263.11,328.5,263.65,328.44z M263.01,316.08
		c0.13,0.27-0.02-0.06-0.26-0.19C262.85,315.89,263.01,315.85,263.01,316.08z M255.06,328.69c-6.6-4.45-0.63-15.79,5.34-11.58
		C267.02,321.79,260.55,332.39,255.06,328.69z"/>
	<path d="M247.56,351.55c0.35,0,0.2-0.19,0.2-0.31C247.66,351.25,247.34,351.33,247.56,351.55z"/>
	<path d="M238.38,347.49c-0.33-0.39-0.19-0.07,0.14,0.15C239.09,348.02,239.71,347.49,238.38,347.49z"/>
	<path d="M274.67,303.19c-0.21-0.07-0.07,1.11,0.62,1.26c-0.01,0-0.01,0.03-0.01,0.13c0.04-0.04,0.01-0.01,0.1-0.11
		c-0.06,0-0.08-0.02-0.09-0.02C275.29,303.91,275.31,303.41,274.67,303.19z"/>
	<path d="M275.48,305.6c0.48-0.48,0.36-0.72-0.09-0.97C275.15,304.47,275.48,304.57,275.48,305.6z"/>
	<path d="M237.57,346.76c0.23,0.08,0.42,0.29,0.62,0.51C238.07,346.99,237.89,346.85,237.57,346.76z"/>
	<path d="M236.96,345.99c-0.21-0.07-0.06,0.29,0.11,0.43C237.74,346.97,237.52,346.19,236.96,345.99z"/>
	<path d="M237.68,346.66c-0.06-0.01-0.1-0.03-0.15-0.04C237.6,346.8,237.54,346.8,237.68,346.66z"/>
	<path d="M250.62,329.34c0.19,0,0,0.31,0.41,0.31C251.03,329.41,250.85,329.34,250.62,329.34z"/>
	<path d="M250.72,329.24C250.41,328.93,250.72,329.34,250.72,329.24L250.72,329.24z"/>
	<path d="M279.25,322.41c0.13,0,0.1,0.05,0.1-0.2C279.11,322.46,279.12,322.41,279.25,322.41z"/>
	<path d="M365.97,323.24c0,0.25,0.14,0.14,0.98,0.78c0.79,0.61,1.3,1.56,1.2,1.56c-3.54,0.04,0.32,2.52,4.12,2.35
		c7.94-0.34,11.41-12.44,5.42-16.94c-0.52,0.52-0.16,1.62-1.44,0.11c-0.15-0.15,1.09,0.06,1.23,0.09c0.34-0.34-0.51-1.09-0.76-1.2
		c-0.29-0.12-1.31,0.2-1.22,0.37c-0.95,0-9.62-2.39-10.58,7.05C364.61,320.52,366.16,323.43,365.97,323.24z M378.81,314.36
		c0.15,0,0.31-0.06,0.31,0.31C378.85,314.67,378.73,314.61,378.81,314.36z M379.21,314.76c1.65,1.34-0.27,6.63-0.3,6.74
		C378.21,320.91,379.21,322.33,379.21,314.76z M372.99,326.98c-3.12,0.47-4.94-1.28-4.58-1.28
		C371.03,325.97,376.07,326.51,372.99,326.98z M374.15,326.29c-0.22,0,0.08-0.52,0.58-0.59
		C375.7,325.56,375.46,326.29,374.15,326.29z M375.49,325.55c0.17-0.71,0.86-1,1.16-1.3C376.55,325.47,376.42,325.32,375.49,325.55z
		 M377.37,323.69c0,0.11-0.28,0.26-0.41,0.3C377.1,323.9,377.24,323.8,377.37,323.69z M369.13,313.03c3.7-3.08,8.05,0.32,8.05,5.2
		c0,4.59-5.09,8.03-8.56,4.48C366.05,320.09,366.29,315.4,369.13,313.03z"/>
	<path d="M392.67,317.52c0-0.33-0.41-0.33-0.41,0C392.26,318.03,392.67,317.96,392.67,317.52z"/>
	<path d="M387.91,299.58c0.11,0.22,0.31,0.37,0.6,0.47C388.68,298.72,387.24,298.28,387.91,299.58z"/>
	<path d="M388.49,300.2c0.16-0.16,0.01-0.17,0.01-0.05C388.49,300.16,388.49,300.17,388.49,300.2z"/>
	<path d="M389.31,301.62c-0.2-0.52,0.07-1.15-0.71-1.3C388.63,301.05,388.95,301.48,389.31,301.62z"/>
	<path d="M388.6,300.32c0-0.01-0.01-0.06-0.01-0.12C388.47,300.32,388.44,300.32,388.6,300.32z"/>
	<path d="M391.24,305.39c-0.1-0.1-0.1-0.2-0.1-0.31c0,0.1-0.1,0.1-0.1,0.2s0.1,0.2,0.1,0.31
		C391.14,305.49,391.24,305.49,391.24,305.39z"/>
	<path d="M365.97,323.43c-0.56,0.56-0.66,0.9,0.1,1.32C365.98,324.4,365.97,323.95,365.97,323.43z"/>
	<path d="M365.97,324.86c0.31,0.31,0.54,0.53,0.92,0.71C365.94,324.62,366.11,324.72,365.97,324.86z"/>
	<path d="M387.77,298.67c0-0.54-0.22-0.7-0.7-0.62C387.16,298.43,387.35,298.7,387.77,298.67z"/>
	<path d="M387.78,298.75c0,0.01,0,0.02,0,0.02C387.94,298.6,387.78,298.66,387.78,298.75z"/>
	<path d="M389.21,301.62l0.2,0.1C389.29,301.6,389.33,301.62,389.21,301.62z"/>
	<path d="M358.84,209.91c-1.11-3.34-3.81,1.09-7.85,6.32C354.25,214.7,357.51,213.27,358.84,209.91z"/>
	<path d="M358.23,237.42c0.81-1.05,2.15-3.87,0.41-3.87C358.1,233.98,352.31,245.17,358.23,237.42z"/>
	<path d="M350.99,245.37c1.73-2.45,1.73-2.45,1.43-4.28C350.89,241.7,350.89,241.7,350.99,245.37z"/>
	<path d="M350.07,247.51c-1.22,0.62-1.74,1.24-1.45,2.57c-0.19,0.28-0.49,0.5-0.49,0.69c-0.62,0.91,0.89,1.68,0.52-0.62
		C349.8,249.58,350.16,248.78,350.07,247.51z"/>
	<path d="M549.8,395.98c-8.4,0.84,2.77,23.4,0.61,0.92c1.31-2.01,4.91-3,3.77-6.42C552.08,389.52,551.63,391.87,549.8,395.98z"/>
	<path d="M599.11,349.64c0.88,0.93,1.22,0.96,1.95,0.59c2.96-1.73,5.35-4.13,7.64-6.52c0.69-0.72-0.26-1.74-1.12-1.22
		C601.44,346.18,597.75,348.2,599.11,349.64z"/>
	<path d="M562.95,350.74c-0.66-10.96-4.79-12.08-4.79-8.97c0.36,6.15,3.33,5.45,3.77,9.68
		C562.37,351.37,562.85,351.12,562.95,350.74z"/>
	<path d="M577.22,314.45c9.01-9.33,8.63-8.97,8.87-9.68C586.08,300.64,575.81,311.63,577.22,314.45z"/>
	<path d="M579.52,360.74c-1.33,0-3.88,10.18-2.96,9.88C578.96,369.85,582.07,360.87,579.52,360.74z"/>
	<path d="M545.83,417.49c1.57-2.17,3.16-6.87,3.16-8.65C548.99,405.84,545.03,410.47,545.83,417.49z"/>
	<path d="M597.8,295.81c1.57,0,4.9,1.47,6.32,2.14C607.17,295.67,599.12,292.61,597.8,295.81z"/>
	<path d="M563.21,325.93c0,1.38,4.56,8.19,1.77-0.87C563.83,325.06,563.21,325.38,563.21,325.93z"/>
	<path d="M542.07,475.41c-1.98,4.95,1.93,9.31,0.4-1.26C542.32,474.57,542.19,474.99,542.07,475.41z"/>
	<path d="M561.11,355.45c-0.72,4.68,3.06,1.25,1.52-0.68C561.91,353.87,561.2,354.83,561.11,355.45z"/>
	<path d="M570.64,378.71c0,0.1,0.13,1.22,0.15,1.47C574.24,376.04,570.6,376.73,570.64,378.71z"/>
	<path d="M611.66,339.02c-2.29,1.04-2.3,1.27-1.12,2.65C611.56,340.85,611.86,340.14,611.66,339.02z"/>
	<path d="M560.61,367.15c0.44-1.02,0.6-1.35,0-2.24C558.67,363.94,558.5,367.53,560.61,367.15z"/>
	<path d="M544.51,440.92c0,1.13,2.5-0.65,0-2.96C544.51,439.09,544.4,440.01,544.51,440.92z"/>
	<path d="M551.64,412.9c-0.4-1.77-3.09,0.14-0.52,2.54C551.74,414.43,551.82,413.72,551.64,412.9z"/>
	<path d="M552.66,466.4c1.22,0.31,1.37-1.68-0.1-3.16C552.15,464.46,551.94,465.48,552.66,466.4z"/>
	<path d="M574.26,373.06c-1.96,2.85-0.15,2.48,0.56,1.56C575.43,373.82,575.23,372.81,574.26,373.06z"/>
	<path d="M577.75,317.73c0.16-1.31-1.79-2.79-1.24,2.13C577.02,319.02,577.66,318.42,577.75,317.73z"/>
	<path d="M561.72,360.31c-0.88-0.61-1.33,0.75-0.4,2.25C562.38,361.68,562.86,361.1,561.72,360.31z"/>
	<path d="M615.74,334.03c-2.04,0.71-2.04,0.82-1.32,2.24C615.23,335.96,615.63,335.25,615.74,334.03z"/>
	<path d="M545.22,425.64c0.41-0.61,0.71-1.22,0.1-1.83C544.1,424.62,544,425.03,545.22,425.64z"/>
	<path d="M553.36,459.59c0.48-0.28,0.27-1.09,0.01-1.35C552.39,458.25,552.56,460.05,553.36,459.59z"/>
	<path d="M541.86,484.74c0.22-0.58,0.27-0.98-0.2-1.53C540.84,484.23,540.84,484.23,541.86,484.74z"/>
	<path d="M575.92,328.26c-0.06-0.28-0.38-0.24-0.84-0.24C574.97,328.73,576.19,329.62,575.92,328.26z"/>
	<path d="M575.89,325.16c0.31-1.23,0.3-1.22-0.71-1.32C575.08,324.45,575.38,324.86,575.89,325.16z"/>
	<path d="M553.47,424.72c0.1-0.71,0-1.22-1.02-1.43C552.25,424.11,552.56,424.52,553.47,424.72z"/>
	<path d="M544,432.87c0.55-0.55,0.57-1.06,0-1.63C543.38,431.75,543.38,432.26,544,432.87z"/>
	<path d="M576.27,333.74c0,0.17,0.12,0.33,0.34,0.49C577.45,333.72,576.27,332.69,576.27,333.74z"/>
	<path d="M551.84,417.59c-0.26,0.53-0.17,0.9,0.41,1.02C552.15,418.3,552.45,417.79,551.84,417.59z"/>
	<path d="M575.82,371.55c0.32,0,0.28-0.01,0.28-0.94C575.76,371.28,575.53,371.53,575.82,371.55z"/>
	<path d="M552.3,418.71c0.16,0.11,0.25,0.2-0.05-0.1C552.12,418.61,552.11,418.58,552.3,418.71z"/>
	<path d="M582.33,357.29c0.27,0.32,0.4,0.16,0.41-0.15C582.75,356.82,582.02,356.91,582.33,357.29z"/>
	<path d="M582.91,356.45c-0.16,0.03-0.29,0.26-0.19,0.51C583.64,356.96,583.08,356.4,582.91,356.45z"/>
	<path d="M670.05,445.51c4.97-1.8,3.94-0.42,4.72-1.2c1.49-1.31-0.29-2.2-1.25-1.55c-2.69,1.82-10.62,1.5-12.13,1.97
		C659.08,445.44,661.54,448.59,670.05,445.51z"/>
	<path d="M664.85,465.58c-1.33,0.76-1.31,7.3-1.73,12.13c-0.16,0.78,0.12,0.99,0.61,0.92C664.95,476.11,667.67,465.58,664.85,465.58
		z"/>
	<path d="M616.45,544.56c2.7-2.39,1.76-4.68,2.14-6.22C616.85,539.87,614.31,543.49,616.45,544.56z"/>
	<path d="M627.86,516.74c-1.25,0.63-1.77,2.07-1.94,3.46C627.96,519.57,629.65,517.53,627.86,516.74z"/>
	<path d="M662.3,482.5c-1.83,0.71-1.83,0.71-2.14,3.97C661.59,485.66,662,484.44,662.3,482.5z"/>
	<path d="M623.68,525.5c0.48,2.39,2.9-0.65,1.99-1.86C625.03,522.78,623.94,524.35,623.68,525.5z"/>
	<path d="M680.9,435.75c0.38,0.23,1.3-0.17,1.58-1.56C680.66,433.03,679.65,435.09,680.9,435.75z"/>
	<path d="M679.02,440.01c-1.67-0.08-1.7-0.16-2.24,1.12C677.91,441.76,678.52,441.19,679.02,440.01z"/>
	<path d="M652.52,458.25c0.98,0.54,1.69,0.16,2.75-0.51C654.06,456.91,653.33,457.2,652.52,458.25z"/>
	<path d="M659.12,488.94c-0.06-0.74-1.94-0.1-1.4,1.81C658.62,490.3,659.19,489.86,659.12,488.94z"/>
	<path d="M659.14,455.68c1.67,0.79,0.43-1.02,0.33-1.09c-0.2-0.16-0.39-0.15-1.13-0.1C658.39,455.06,658.62,455.44,659.14,455.68z"
		/>
	<path d="M686,437.86c0.91-0.16,1.77-1.02,0.87-1.62C685.55,436.46,684.9,438.05,686,437.86z"/>
	<path d="M622.68,529.79c-0.98,0.14-0.94,1.98-0.02,1.52C623.6,530.85,623.42,529.69,622.68,529.79z"/>
	<path d="M619.88,535.36c-0.28,0.33-0.25,0.78,0.13,1.36C621.78,536.13,620.94,534.09,619.88,535.36z"/>
	<path d="M642.84,524.79c0.31-0.31,0.51-0.71,0.41-1.63C642.43,524.08,642.43,524.08,642.84,524.79z"/>
	<path d="M652.83,497.48c0.39-0.39,1.34-0.43,0.6-1.53C653.03,496.36,652.42,496.46,652.83,497.48z"/>
	<path d="M662.2,457.74c-0.4,0.81,0.5,1.33,1.02,0.82C663.43,457.85,662.44,457.25,662.2,457.74z"/>
	<path d="M669.3,464.77c-0.11,0.9,0.98,0.22,0.24-0.51C669.4,464.44,669.31,464.62,669.3,464.77z"/>
	<path d="M625.01,453.15c0-1.11-2.81-7.32-5.91,12.84C617.58,472.07,625.01,459.46,625.01,453.15z"/>
	<path d="M615.84,476.59c2.55-2.85,2.85-3.87,1.83-6.22C615.84,472.11,616.24,474.25,615.84,476.59z"/>
	<path d="M637.34,430.83c1.22,3.66,3.67,4.48,3.97,2.65C640.8,432.26,638.17,429.59,637.34,430.83z"/>
	<path d="M633.16,466.3c1.43-1.6,1.02-3.25,0.82-5.4c-1.53,1.94-1.73,2.85-1.53,4.99C632.55,465.99,632.85,466.09,633.16,466.3z"/>
	<path d="M599.97,442.95c1.01-0.41,2.23-0.91,3.74-1.52C597.49,439.5,598.19,442.95,599.97,442.95z"/>
	<path d="M633.32,455.94c-1.82,3.24,2.91,2.23,0.75-1.06C633.78,455.25,633.52,455.6,633.32,455.94z"/>
	<path d="M613.29,480.87c-1.02,0.71-0.82,1.63-0.31,2.65C614.72,482.19,614.82,481.79,613.29,480.87z"/>
	<path d="M641.35,422.03c2.16,0.73-1.84-3.7-2.69-2C639.38,420.75,640.1,421.61,641.35,422.03z"/>
	<path d="M598.92,473.43c1.27-0.73,1.07-0.71,1.22-2.14C598.77,472.1,598.69,472.07,598.92,473.43z"/>
	<path d="M611.05,487.49c-1.63,1.32-1.63,1.32-0.82,2.34C611.15,489.43,611.46,488.72,611.05,487.49z"/>
	<path d="M644.17,445.92c0.2,1.22,0.2,1.22,1.02,2.65C645.29,447.24,645.08,446.43,644.17,445.92z"/>
	<path d="M616.84,448.06c0.85,0.33,2.05-1.12,0.43-1.12C616.47,446.94,615.85,447.67,616.84,448.06z"/>
	<path d="M625.66,447.96c0.56,0.08,0.3-1.1,0.37-1.23C624.89,447.11,625.17,447.87,625.66,447.96z"/>
	<path d="M636.73,429.2c2.41-1.02-1.51-3.18-0.21-0.43C636.58,428.91,636.65,429.05,636.73,429.2z"/>
	<path d="M633.7,425.68c1.18,1.04,1.32-1.9-1.05-1.06C633.16,424.76,633.31,425.33,633.7,425.68z"/>
	<path d="M611.46,447.85c0.11-0.11-0.14-0.34-0.2-0.51C610.21,447.34,610.72,448.59,611.46,447.85z"/>
	<path d="M595.66,477.71c0.61-0.31,0.92-0.71,0.41-1.53C595.97,476.59,594.95,476.89,595.66,477.71z"/>
	<path d="M614,440.82c-0.29-0.49-0.73-0.4-1.22-0.1C613.19,441.23,613.6,441.23,614,440.82z"/>
	<path d="M606.36,441.13c0.18,0.01,0.38-0.07,0.61-0.31C606.17,440.02,605.2,441.07,606.36,441.13z"/>
	<path d="M616.45,452.23c-1.26-0.29-1.02,0.49-1.02,1.22C616.05,453.25,616.45,452.91,616.45,452.23z"/>
	<path d="M588.73,486.58c-0.19,0-0.37-0.17-0.51-0.31C587.24,486.76,588.73,488.11,588.73,486.58z"/>
	<path d="M593.28,479.48c-0.4-0.2-0.18,0.72,0.01,0.62C593.53,479.93,593.85,479.83,593.28,479.48z"/>
	<path d="M633.22,449.91c-0.12-0.5-0.46,0.03-0.11,0.16C633.2,450.12,633.24,450,633.22,449.91z"/>
	<path d="M632.65,424.21c-0.08-0.16-0.03-0.06,0.04,0.13C632.65,424.19,632.65,424.06,632.65,424.21z"/>
	<path d="M603.91,467.62c0.2,0.39,0.6,0.19,0.2-0.2C604.02,467.52,603.91,467.62,603.91,467.62z"/>
	<path d="M591.18,482.8l-0.2-0.1C590.97,482.97,590.92,482.93,591.18,482.8z"/>
	<path d="M581.74,493.83c0.89,0.95,1.53,1.03,1.68,1.1c0.43,0.68,2.94,4.97,2.96,4.99c0-2.28-1.04-3.84-2.85-5.1
		c-0.27,0.27,0.12-0.03-0.66-1.36c-13.56-22.9-46.88-2.63-46.11,24.28c0.29,10.03,6.76,21.32,9.69,21.32
		c0.12,0.49,0.97,0.95,0.1,0.08c0.37-0.37-19.46-19.36,0.1-43.72C555.94,483.87,569.98,481.25,581.74,493.83z"/>
	<path d="M572.63,523.26c0.09-0.03,0.07-0.02,0.1-0.1L572.63,523.26z"/>
	<path d="M561.63,524.08c2.04,4.08,11.5,4.21,13.23-2.28c1.39-0.66,4.77-7.98-2.32-13.82c-1.12,0.92-2.45,0.11-3.87,0
		c-10.9-0.83-11.09,16.01-2.45,17.02c0.72,0.08,5.75-0.41,4.89-0.41c0.08-0.8,0.97-1.15,1.53-1.53c1.99-1.99,1.98-4.22,1.95-1.53
		c0,0.14,0,0.1-0.21,0.1c-1.87,1.25-1.38,2.86-3.14,3.05c-0.36,0.33-1.77,1.41-3.78,1.34C565.46,525.95,563.66,524.92,561.63,524.08
		z M570.18,522.04c-0.17,0-3.08,2.78-6.43-0.71c-2.6-2.71-2.33-7.27,0.62-10.08C570.29,505.62,576.8,517.34,570.18,522.04z
		 M572.95,509.81c0.1,0,0.19,0,0.19,0C573.62,510.29,572.72,509.81,572.95,509.81z M574.46,512.46c1.55,2.58,1.49,4.34,0.38,7.27
		C574.33,521.08,575.38,515.91,574.46,512.46z"/>
	<path d="M571.2,524.69c0.01,0,0.01,0,0.02,0C571.34,524.57,571.34,524.55,571.2,524.69z"/>
	<path d="M588.22,503.49c-0.37,0.18-0.23,0.45-0.1,0.82C588.5,504.12,588.31,503.75,588.22,503.49z"/>
	<path d="M589.14,517.04c-0.13-0.13-0.31-0.18-0.31,0.2C588.95,517.37,589.14,517.43,589.14,517.04z"/>
	<path d="M556.22,544.66c0.14,0,0.41,0.28,0.41-0.1C556.49,544.42,556.22,544.39,556.22,544.66z"/>
	<path d="M560.5,522.85c0.26,0,0.23,0.05,0.1-0.2L560.5,522.85z"/>
	<path d="M547.26,539.67c-0.26,0-0.32-0.11-0.1,0.1L547.26,539.67z"/>
	<path d="M547.15,539.87c0.1,0.26,0.26,0.46,0.65,0.64C547.67,540.23,547.58,540.01,547.15,539.87z"/>
	<path d="M547.97,540.58c-0.04-0.02-0.14-0.07-0.16-0.08c0.05,0.1,0.04,0.09-0.04,0.09c0.06,0,0.1,0.04,0.1,0.1
		c0.1-0.1,0.18,0.01,0.08-0.09L547.97,540.58z"/>
	<path d="M586.33,499.93C586.28,499.92,586.28,499.93,586.33,499.93L586.33,499.93z"/>
	<path d="M586.44,499.98c0.31,0.12,0.08-0.02-0.04-0.04c-0.03,0-0.05,0-0.07,0C586.36,499.94,586.39,499.95,586.44,499.98z"/>
	<path d="M508.74,410.66c0.04-0.12,0.1-0.06-0.1-0.1C508.59,410.73,508.54,410.62,508.74,410.66z"/>
	<path d="M530.65,425.94c-0.1,0-4.07,0.98-5.4,2.14C531.86,428.08,533.95,424.84,530.65,425.94z"/>
	<path d="M508.59,410.66c-0.58,0-0.97,0.3-1.39,0.61C507.7,411.17,508.36,411.43,508.59,410.66z"/>
	<path d="M663.96,569.46c0.25-1.22-1.14-0.53-0.84,0.67C663.68,570.01,663.89,569.77,663.96,569.46z"/>
	<path d="M581.58,440.23c4.53-0.17-10.31-4.92-13.63-6.85C565.77,436.5,581.48,440.23,581.58,440.23z"/>
	<path d="M568.04,432.36c12.01-4,9.75-2.68,10.8-4.08C573.76,428.29,566.29,432.36,568.04,432.36z"/>
	<path d="M584.77,408.01c-0.51-0.11-0.89,0.11-1.22,0.51C583.85,408.21,584.42,408.62,584.77,408.01z"/>
	<path d="M582.41,409.23c0.61-0.41,0.82-0.61,1.02-0.82C583.23,408.62,582.82,408.42,582.41,409.23z"/>
	<path d="M672.77,520.13l0.03-0.03C672.78,520.1,672.63,520.3,672.77,520.13z"/>
	<path d="M662.59,517.98c1.15,3.45,15.52,6.74,13.06-8.48c0.57,0.48,0.97,0.78,1.35,1.15c0.19-0.6,0.36-1.37-0.02-1.97
		c-1.13-1.78-3.31-4.92-4.31-3.07C658.81,501.6,661.94,518.63,662.59,517.98z M669.03,506.75c5,0.73,7.05,6.81,3.36,10.8
		C666.29,524.16,658.19,510.37,669.03,506.75z"/>
	<path d="M674.33,518.78c-0.09,0.38-0.29,0.66-0.72,0.78c-0.03,0.44-0.3,0.7-0.73,0.73c-1.09,3.13-9.43,0.43-9.43,0.05
		c-0.98,0,1.9,3.36,6.22,2.6C676.06,521.81,676.79,516.32,674.33,518.78z"/>
	<path d="M675.65,518.06c2.39-1.33,2.68-6.27,1.43-7.24C675.84,518.59,675.65,514.59,675.65,518.06z"/>
	<path d="M688.39,501.05c0-1.03-0.2-0.1-0.2,0.61C688.39,501.25,688.49,501.15,688.39,501.05z"/>
	<path d="M662.52,518.05c0-0.1-1.02,0.77,0.09,1.32C662.51,519,662.52,518.48,662.52,518.05z"/>
	<path d="M689.11,513.48c-0.12,0-0.08,0.22,0,0.31C689.31,514.08,689.44,513.48,689.11,513.48z"/>
	<path d="M643.13,391.99c0-1.17-0.68-1.53-1.5-0.72c-0.1,0.1,0.81,3.71,1.62,4.51C645.64,394.59,643.13,396.12,643.13,391.99z"/>
	<path d="M366.74,325.62c-0.1,0.1-0.07,0.04,0.05,0.04C366.79,325.56,366.84,325.52,366.74,325.62z"/>
	<path d="M663.41,520.34c0.01-0.04,0.01-0.08,0.02-0.13C663.29,520.34,663.3,520.28,663.41,520.34z"/>
	<path d="M662.51,519.39c-0.14,0.14-0.11,0.07,0,0.18C663.6,520.43,663.59,520.47,662.51,519.39z"/>
	<path d="M677,510.66C676.95,510.76,677.14,510.76,677,510.66L677,510.66z"/>
	<path d="M672.87,520.27c0.01-0.02,0.02-0.04,0.03-0.07C672.74,520.37,672.87,520.31,672.87,520.27z"/>
	<path d="M673.62,519.51c0-0.01,0-0.02,0-0.02C673.44,519.67,673.62,519.57,673.62,519.51z"/>
	<path d="M254.29,322c0.78-0.78,1.5-2.61,3.57-2.56c2.1,0.05,2.83,4.4,2.95,1.83C260.95,317.91,253.89,314.83,254.29,322z"/>
	<path d="M261.22,323.63c-0.1,0.2-0.2,0.31-0.2,0.51C261.35,324.48,261.51,323.63,261.22,323.63z"/>
	<path d="M254.59,323.84c0.28-0.28,0.42-0.59,0.1-0.82C254.29,323.23,254.29,323.53,254.59,323.84z"/>
	<path d="M372.49,314.87c1.59,1.06,1.56,1.02,2.55,0.92c-3.09-4.22-5.9-2.71-5.3-0.31C370.69,315.59,371.33,314.48,372.49,314.87z"
		/>
	<path d="M369.33,318.23c-0.61,0,0.2,1.14,0.2,0.2C369.44,318.33,369.44,318.23,369.33,318.23z"/>
	<path d="M369.44,316.6c0.3-0.3,0.3-0.81,0.2-1.22C369.13,315.68,368.52,315.99,369.44,316.6z"/>
	<path d="M374.84,317.42c0.12,0.12,0.31,0.18,0.31-0.31C374.91,316.88,374.31,317.06,374.84,317.42z"/>
	<path d="M375.65,318.84c-0.25,0.25-0.18,0.15-0.31,0.41C375.6,319.12,375.53,319.21,375.65,318.84z"/>
	<path d="M570.8,514.09c-1.14-3.29-6.37-4.14-5.41-0.31c0.38-0.16,2.04-0.71,2.14-0.71C569.22,513.26,569.85,515.27,570.8,514.09z"
		/>
	<path d="M564.38,515.31c0.85-0.23,0.92-0.71,0.92-1.63C564.27,514.29,564.27,514.29,564.38,515.31z"/>
	<path d="M570.8,516.03c0.2-0.31,0.31-0.61,0-0.82C570.11,515.21,570.06,515.78,570.8,516.03z"/>
	<path d="M571,517.86c0.58,0,0.55-0.19,0.2-0.31C571.01,517.55,570.79,517.65,571,517.86z"/>
	<path d="M564.63,516.79c-0.05-0.02-0.1-0.05-0.15-0.05C563.46,517.08,565.46,517.29,564.63,516.79z"/>
	<path d="M671.99,511.95c-0.1-0.51,0.1-1.22-0.41-2.04c-1.12-0.82-2.04-2.55-4.28-1.63c-0.54,0.8-1.25,2.24-1.53,3.46
		c1.22-0.61,1.83-2.24,3.57-2.04C671.83,510.71,671.48,513.16,671.99,511.95z"/>
	<path d="M665.97,513.59c0.38,0,0.35-0.32,0.2-0.32C665.93,513.02,665.43,513.36,665.97,513.59z"/>
	<path d="M672.37,513.86c-0.1-0.01-0.28,0.13,0.02,0.43C672.5,514.18,672.75,513.99,672.37,513.86z"/>
</g>
</svg>
