<?xml version="1.0" encoding="utf-8"?>
<!-- Generator: Adobe Illustrator 23.0.1, SVG Export Plug-In . SVG Version: 6.00 Build 0)  -->
<svg version="1.2" baseProfile="tiny" id="Layer_1" xmlns="http://www.w3.org/2000/svg" xmlns:xlink="http://www.w3.org/1999/xlink"
	 x="0px" y="0px" viewBox="0 0 900 600" xml:space="preserve">
<g>
	<path d="M204.21,268.44c0.12-0.12,0.15-0.06,0-0.1V268.44z"/>
	<path d="M147.69,569.94c-0.04,0.01-0.09,0.02-0.13,0.04c-0.02,0.05-0.04,0.1-0.06,0.15C147.59,570.05,147.65,569.99,147.69,569.94z
		"/>
	<path d="M369.82,556.44c-3.31-2.47-2.65-6.23-11.18-13.1c-3.5-2.82-5.32-4.09-5.14-8.16c0.71-15.48-6.79-10.42-11.58-11.48
		c-6.25-15.85-13.8-38.9-16.72-53.49c-9.99-49.94-24.18-42.13-24.88-51.17c-0.23-2.97-5.06-12.56-7.45-16.12
		c-1.74-2.58-1.47-2.52-1.91-10.58c1.6-1.7,2.54-1.66,0.5-10.88c-5.51-24.89-6.01-25.74-5.84-27.3c0.87-7.9-9.05-28.38-9.37-29.72
		c-4.04-17.21-14.32-30.16-17.02-38.28c17.35,0,10.3-6.88,19.44-9.17c93.01-16.91,84.78-31.09,88.54-34.25
		c2.72-2.28,1.31-5.34,1.31-9.27c0-26.23,0.8-34.38-4.43-44.32c-14.45-27.46-11.23-11.93-13.5-24.68
		c-3.19-17.91,4.73-20.58-16.32-35.66c-9.18-6.57-12.55-3.94-13.6-7.15c-3.43-10.53-16.69-22.32-15.82-24.08
		c7.8-25.53,4.77-27.16,8.76-23.17c2.76,0.2,2.45-1.66,5.84-5.94c4.02-5.07,1.94-7.69,4.43-22.66c3.85-1.28,0.69-4.2,1.91-9.77
		c1.21-5.49-0.7-7.63-4.73-16.32c-1.46-3.81-2.98-2.48-3.73-4.43c-1.37-3.57-5.43-4.84-9.27-4.84c-4.27-5.97-3.1-7.99-7.86-5.14
		c-2.61-6.52-4.63-5.81-4.63-4.33c0.99,6.46,1.91,5.44-1.41,2.12c-0.5-0.59-2.7-3.07-3.83-2.82c-4.99,5.99-5.37,0.19-4.33,7.45
		c-0.91,0.81-1.81,1.61-2.82,2.62c-4.62-3.26-9.52,9.88-12.59,13.9c-2.09,2.74-1.71,6.25-3.32,9.07c-0.2,0.2,0.1,0.6,0.2,1.01
		c0.71,4.01-3.66,1.37-6.55,8.76c-3.05,7.79,2.49,7.59-0.1,12.19c-0.8,1.42-0.1,2.52,1.41,3.42c2.75,1.64,2.95-0.14-2.22,19.24
		c-0.72,3.59,1.1,3.36-17.93,4.03c-10.7-5.76-16.73-8.99-23.07-10.98c-2.1-0.66-1.76-2.32-5.04-2.32
		c-17.98,0-21.33,7.81-30.82,12.99c-7.46-2.36-26.97,1.63-32.54,3.32c-7.59,2.31-2.25-1.52-14.1,6.55
		c-13.27,9.03-16.97,12.41-21.76,19.04c-2.24,3.1,5.32-2.72,8.36-5.04c34.09-25.94,13.09-14.31,51.78-22.16
		c6.54-1.33,5.72,0.59,9.87-1.01c12.2-5.71-6.79,2.54-2.12,8.76c0-2.56,6.63-5.32,9.57-9.17c0.64-0.83,0.34-2.28-1.6-2.19
		c23.14-10.59,20.57-10.7,47.13,2.29c2.39,1.17-0.12,1.8,3.63,2.82c2.87,0.96,3.06-0.16-3.53,6.25c-1.29,1.26-0.96,0.93-3.53-0.1
		c0.85,4.12-1.26,5.06-6.25,12.29c-9.85,14.29-17.9,21.57-28.71,28.61c-4.79,3.73-4.55,1.33-4.94-4.23
		c-0.79-11.35,2.64-17.47-0.6-16.82c-1.41,2.82-0.91,6.14-2.12,8.97c-5.04,0.4-3.94,3.21-11.08,5.14
		c-3.72,0.78-10.26,2.26-13.5,4.23c2.12,0.2,3.53,0.3,5.04,0.4c-17.06,2.51-22.56-2.76-28-1.21c0.51,4.62,1.72,7.43,1.51,14.81
		c-0.17,6.23,0.08,14.95-2.01,22.97c-2.04,7.8-1.15,32.05-0.6,37.77c0.73,7.66,28.27,7.62,29.92,9.27c-0.46,1.39-0.34,1.19-0.5,3.02
		c4.72-5.11,1.58-4.53,13.6,10.98c1.43,1.84-1.63,4.22-5.24,0.2c-2.38-2.65-5.24-4.73-6.85-7.86c-2.52-0.6-4.84-1.21-7.15-0.81
		c-1.65,2.99-0.78,4.44,1.21,7.35c4.01,5.88,8.11,20.55,7.76,21.96c-0.91,0-1.91,0-2.82,0c-10.66-16.93-2.27-7.52-10.98-19.34
		c-1.28-2.13-2.81-0.72-2.32,0.6c1.11,3.51,2.81,7.41,2.92,8.46c1.51,14.48,2.96,14.04,3.1,13.94c-0.03,0.03-0.12,0.14-0.28,0.46
		c-2.47,6.18-5.08-5.23-6.85-10.88c-0.66-2.1,0.84,0.25-6.04-10.07c-0.29-0.58-1.51-1.31-2.12-0.1c0.14,3.02,3.24,6.76,3.22,7.86
		c-0.06,3.77,1.81,7.53,1.81,10.88c-2.24,1.63-4.01-1.86-4.73-4.53c-1.29-4.74-3.78-9.08-5.64-13.6c-3.01-7.3-12.52-5.04-14.4-11.08
		c-0.5-1.61-1.2-3.02-0.91-4.73c0.21-1.21-0.23-2.51-0.4-3.73c-0.4-2.75-0.65-1.91,1.01-2.92c-0.51-2.57-0.07-0.52-2.22-6.25
		c-2.01-0.34-1.29,0.57-3.12-3.12c-23.32-47.06-7.04-91.71-14.51-86.73c-0.89,0.44-2.67,9.25-2.82,12.39
		c-1.72,36.36,13.9,73.73,16.12,81.39c2.11,7.29,4.59,15.56,10.27,19.64c12.24,8.79,5.88-2.02,15.61,21.05
		c0.86,2.05,1.8,4.95,5.44,5.04c4.81,0.11-0.8-8.37,0.1-11.79c2.9,0,2.75,7.37,4.73,11.99c0.83,1.93,3.88,3.66,6.04,1.71
		c1.74-4.13-0.72-7.25-1.01-10.98c-0.52-6.69-2.24-9.04-1.71-9.57c2.64,1.92,5.06,15.56,10.68,16.02c7.3,0.59,1.11-6.32,1.11-11.08
		c15.69,6.68,13.26,5.33,14.2,6.75c-2.81,1.69-11.39,12.69-9.27,14.1c4.13-4.23,6.85-9.57,10.78-14c0.61,0.16,13.61,4.72,7.45,1.81
		c-28.98-13.68-24.77-9.01-23.87-15.71c-1.75,0-2.3,0.61-2.32-1.34c0.77,0.48,1.45,0.96,2.32,1.34c1.41,0.61,1.11,2.12,1.61,2.72
		c1.83-3.66,1.61,0.39,2.12,1.11c0.4-0.5,0.71-1.01,1.21-1.61c0.5,0.4,1.01,1.11,1.61,1.21c3.32,0.53,6.14,2.25,9.37,2.82
		c1.21,0.21,1.91,0.91,2.42,1.61c1.21-0.81,2.12-0.5,2.92,0.5c0,0.81,0.1,1.71,0.2,2.92c0.6-1.11,1.11-1.91,1.61-2.92
		c4.05,1.26,15.23,4.22,16.82,5.24c0,1.71-1.41,3.12,0,5.04c2.04-6.11,1.27-5.16,4.73-3.42c-1,1.75-1.26,3.71,0.5,4.53
		c0.53-4.24,0.82-4.02,2.92-3.32c-0.3,1.41-2.01,2.12-1.61,3.83c1.61-0.6,1.81-2.42,3.32-3.32c3.53,1.18,3.71,0.52,1.41,2.82
		c-1.65,1.65,0.1,4.27,2.42,5.24c4.5,1.88,3.8,0.99,3.42,3.22c5.06,0.42,4.47-0.23,6.85,1.51c-0.2,0.1-0.4,0.4-0.6,0.4
		c-1.21,0.1-2.32,0.28-3.42,0.2c-9.48-0.71-11.47,2.94-13.6,0.81c-0.39-0.39-2.09,0.17-6.65,0.81c-6.74,0.94-13.61,6.67-6.95,3.63
		c2.83-1.29,5.84-2.01,8.97-2.52c1.37,6.5-6.45,6.85,19.95,6.85c-5.14,1.61-10.68,2.22-15.41,5.24c-0.3,0.91-0.71,1.81-1.01,2.52
		c0.91,3.42,3.73,2.52,6.04,2.82c0.3,1.11,0.5,2.22,0.81,3.32c6.45,1.08-0.3,3.03,0.91,11.08c7.79-16.05-3.5-6.27,20.25-11.48
		c3.62-0.79,2.64-0.89,9.57,0.2c8.47,16.94,13.44,26.61,16.42,38.18c0.6,2.34,8.75,17.9,9.57,26.9c0.54,14.92,5.04,30.51,5.04,37.57
		c-25.33,7.79-23.36,4.17-42.91,10.68c-8.59,2.86-28.04,9.49-37.07,8.36c-6.91-23.03-6.47-40.24-7.55-43.92
		c-9.96-33.77-11.3-29.09,21.15,18.64c0.14,0.23,10.28,11.85-28.51-46.34c-2.91-2.91-1.56-0.08,3.53,20.85
		c-5.17,14.03-2.83,13.73-4.23,20.75c-3.45,17.28-2.22,21.56-3.02,24.78c-13.57,4.41-58.56-8.57-72.12-13.1
		c0-17.27,4.84-35.15,8.76-71.62c0.62-5.79,0.86-3.03,2.42-8.56c4.79-17.05,3.11-31.52,14.1-58.73c6.2-15.35-1.69-4.52-6.65,12.09
		c-7.04,23.57-19.71,90.47-20.95,108.29c-0.62,8.92,1.21,14.64,1.21,18.03c-0.1,0.6-1.11,0.81-0.6,1.61
		c11.47,6.37,22.78,6.79,22.87,13.8c0.4,34.16,0.48,9.98-3.83,30.22c-7.96,37.41,7.26,47.01,9.97,74.64c0,0.11-0.1-1.41,4.73,26.8
		c0.71,4.14-0.6,3.89-1.01,5.94c2.12,8.48,3.15,9.17,2.01,14.2c-0.78,3.45-8.62,22.63-11.48,24.68c-4.04,2.89-3.53,9.43-1.21,13.9
		c1.82,3.51,1.28,3.44,7.55,4.23c15.37,1.94,15.2,1.53,17.33,1.11c5.99-0.86,19-2.63,19.14-8.36c0.34-13.7-1.18-9.52-2.42-15.11
		c2.72-0.71,3.83-3.02,5.44-4.43c0.24-9.93-2.41-0.37-6.25-30.42c-0.61-4.76-4.03-2.01-4.73-3.42c0-17.8-1.01-1.74-0.4-41.8
		c0.43-28.47,16.32-27.27,1.71-60.14c-3.11-8.45-2.25-3.98,0.3-10.38c4.54-11.35,1.88-16.08,2.52-18.94c4.84,0.1,9.47,0.6,13.8-1.91
		c3.32-33.16,6.19-29.99,4.94-38.58c-0.5-3.44,1.81-5.52,1.81-4.23c0.7,3.59,3.5,47.3,9.97,49.46c0.84-1.68,0.14-2.29,3.53-1.91
		c7.59,0.42,9.81-0.37,26.39-4.23c5.28-1.23,2.85-0.57,7.35,2.22c4.71,2.91,2.19,5.59,7.86,17.23c3.71,7.62,7.95,8.53,9.87,9.97
		c-0.2,0.4-0.41,0.91-0.3,1.11c3.4,6.58-0.96,24.13,22.16,46.34c15.94,15.31,21.29,17.46,39.08,52.78c2.43,4.82-3.14-0.01-2.52,6.95
		c0.62,6.99,1.54,10.8,0.5,14.61c-1,3.68,0.53,5.33-0.91,9.87c8.87,9.85,10.55,0,12.09,9.77c0.43,2.74-0.11,1.34,3.02,5.54
		c5.57,7.47,8.85,4.02,13.2,5.64c11.49,4.29,33.53,0,30.52-11.28C378.43,568.9,381.4,565.07,369.82,556.44z M318.65,31.72
		c-0.13,0.26-0.07,0.25-0.2,0H318.65z M318.95,56.3c0-0.1,0.3,0.1,0.5,0.2c0,0.52-0.44,0.58-0.81,1.31
		C318.32,57.48,317.9,57.35,318.95,56.3z M319.35,60.53c0.6,1.71,0,3.02-1.01,4.84C318.14,63.35,317.24,61.74,319.35,60.53z
		 M263.75,51.97c-0.62,0.27-0.65,0.27-2.22-4.63c-0.19-0.61,0-0.71,1.31-1.51C264.06,49.78,264.4,50.02,263.75,51.97z
		 M128.56,209.72c-0.1-0.1,0.4-1.12,0.4,0.26C128.8,209.92,128.64,209.89,128.56,209.72z M316.93,66.78c0,0.11,0.01,0.25-0.25,0.25
		C316.76,66.95,316.85,66.86,316.93,66.78z M316.63,67.08c-0.44,0.44,0.7-0.27-2.42,3.63C313.21,67.57,313.5,68.33,316.63,67.08z
		 M311.9,18.32c-0.1,0.1-0.1,0.2,0,0.3C311.27,18,311.9,17.91,311.9,18.32z M310.19,16.21c-0.2-0.1-0.4-0.2-0.71-0.3
		C309.88,15.5,310.6,15.79,310.19,16.21z M308.37,23.46c0.61,0,0.49,0.56,0.2,0.71C308.45,24.29,307.71,24.12,308.37,23.46z
		 M301.02,21.95c0.4,0.71,0.2,1.21-0.1,1.81C300.21,22.86,301.02,22.55,301.02,21.95z M299.71,6.13c0.27,0.27,0,0.3-0.1,0.4
		C299.47,6.4,299.44,6.13,299.71,6.13z M279.76,19.63c0.58,0.58-0.38,0.93-0.5,0.81C277.06,19.56,278.25,18.12,279.76,19.63z
		 M265.96,38.67c0.9,1.65,1.11,1.7,0.71,2.92C265.77,40.7,265.96,42.29,265.96,38.67z M266.47,53.18
		c4.32-12.3,5.03-14.23,6.14-15.21c3.77-3.31,5.37-11.19,7.35-11.58c1.51-0.4,1.61-1.81,2.12-2.92c2.07,2.07,1.35,2.71,3.02,0.2
		c4.54-0.59,4.6,0.85,9.17,2.22c2.03,6.44,7.38-1.81,15.41,4.33c0.3,0.71-0.81,1.81,0.6,2.12c0.4,0,0.91-0.6,1.61-1.11
		c0,9.33-0.13-5.13,3.22,19.95c0.18,1.35-0.07,3.1-2.42,12.89c-0.3,1.27-1.09,1.92-4.23,7.05c-5.37,8.76-4.01,9.98-7.76,12.69
		c-5.54,4.01-11.17,8.71-16.82,5.94c-8.58-4.2-7.64-0.89-10.48-3.73c-5.83-5.83-4.61-10.76-5.14-19.84
		C267.86,59.07,264.02,60.13,266.47,53.18z M192.53,134.87c-3.77,1.03-4.22,1.18-1.21-8.16
		C191.82,129.93,192.13,132.35,192.53,134.87z M155.76,207.7c-3.83-0.19-7.45-1.11-10.58-3.53c-0.22-10.72-0.91-22.32-0.81-30.93
		c0.07-6.18,7.08-9.87,2.22-41.5c30.03,4.29,27.89-2.46,33.64-4.13c7.03-2.04,7.74-4.53,9.47-4.53
		c-13.1,37.44-2.79,24.17-15.61,62.66c-1.38,4.14-0.85-0.53-9.77,22.66C161.6,208.41,159.01,207.86,155.76,207.7z M192.03,236.31
		c-7.64-2-27.85-8.61-24.88-16.52c8.33-2.22,9.33,12.92,18.64,10.38c1.41-0.39,2.25-2.03,1.51-3.32c-0.29-0.51-0.71-1.01-1.11-1.51
		c-6.56-6.81-4.64-8.36-8.86-13.1c-2.83-3.18-4.4-2.44-10.27-3.22c-0.94-1.07,0.93-4.55,1.81-7.55c2.4-8.2,5.93-9.62,7.35-13.9
		c13.11-39.32,7.54-35.02,11.99-50.57c5.58-0.37,3.38-1.78,8.36,6.85c2.3,3.99,5.14,7.81,8.79,10.63
		c0.38-1.79-9.07-10.33-10.2-18.59c2.72-1.51,4.94-3.81,8.16-4.43c0.91-0.18,11.6-9.86,12.29-10.48
		c10.67-9.6,7.98-10.61,29.41-36.06c4.63,0,5.05-0.66,2.92,2.42c-30.88,44.74,0.54,63.25-5.34,55.91
		c-11.64-16.82-2.37-42.44,9.77-58.83c1.51-0.3,3.22-0.6,5.14-1.01c0.73,4.35,0.15,7.08,7.05-10.98c1.25,2.5-0.3,3.2,2.92,9.77
		c3.24,6.6,0.97,1.78,5.54,6.35c3.74,3.74,6.09-0.08,11.89,4.03c3.88,2.76,6.07-1.9,19.64-7.55c0.77,0.77-4.32,13.29-1.31,15.92
		c0.87,1.16-0.6,39.94-15.21,47.34c-13,6.59-18.11,6.08-32.84,3.63c0.87,1.09,10.1,3.75,18.64,2.52c5.9-0.85,7.84-3.85,13.1-4.84
		c1.5-0.28,10.82-5.5,14.2-16.82c2.97-9.94,3.12-20.75,3.12-29.31c8.16,7.14,2.95,2.73-4.84,71.82c-0.38,3.41,0.04,3.15-9.97,6.04
		c-16.8,4.85-21.83,0.66-25.89,2.01c1.6,1.34,3.83,2,5.04,2.12c15.99,1.59,16.69,2.05,27.7-0.71c-2.01,2.42-4.13,3.93-6.35,5.44
		c-9.41,6.41-14.44,14.35-14.61,15.41c-0.28,1.78-8.33,5.95-17.63,24.78c-13.1,26.52-8.6,19.62-16.02,19.74
		C226.65,250.35,211.22,241.34,192.03,236.31z M304.85,182.52c0.52-1,1.11-2.01,2.92-2.01c6.13,27.24,4.41,28.02,22.16,40.7
		c-6.94,3.08-12.99,5.88-18.33,11.99c-3.81,4.35-21.77,12.56-30.02,17.12c-20.96,11.61-13.1,11.75-30.22,2.62
		c13.61-37.8,22.92-36.83,29.62-49.26C282.75,200.82,299.67,192.43,304.85,182.52z M237.25,259.48c5.83,0,4.45-0.68,5.44,2.62
		C238.48,263.3,242.71,262.75,237.25,259.48z M251.36,284.46c-1.72,0.28-3.72,0.02-5.54,0.3c-4.47,0.69-14.02,2.85-17.83,0.4
		c0.1-0.03,3.88-0.99,4.03-1.11c3.78-2.7,10.08-0.04,16.32-5.04c-1.11,0-1.61-0.2-2.01,0c-6.6,2.61-13.78,1.35-18.23,2.62
		c-5.62,1.61-7.99-1.54-5.94-2.52c10.13-4.83,23.49-4.59,22.36-7.96c-0.27-0.82-1.47-0.87-2.32-0.71c-3.88,1.11-7.68,0.6-21.96,0.6
		c-2.98,0-2.98-0.65-2.72-3.22c1.25-0.83,9.69-2.56,11.18-2.82c7.33-1.28,16.61,3.53,15.71-3.63c0.6-0.2,1.21-0.4,1.81-0.6
		c-3.2-5.9-5.46-1.18-17.43-4.33c-1.51-0.4-1.71-0.91-1.61-3.12c3.02-0.5,14.2-0.71,17.43-0.2c0.82,3.28,0.05,4.53,2.01,0.6
		c24.59,9.22,11.01,13.74,30.72,3.22c4.13-2.76,0.62-1.71,6.75-4.73c15.04-7.43,13.13-6.46,16.32-8.86
		c6.68-5.04,6.08-3.12,9.97-6.04c14.36-10.8,20.16-11.39,23.17-14.4c-8.84-12.71-17.25-17.08-18.53-22.46
		c-6.67-28.03-4.03-19.74-4.03-26.39c-2.92,0.81-5.74,1.21-7.86,3.32c-1.11-0.71-1.01-1.82-0.71-2.42c0.89-1.72,0.43-3.62,0.6-5.44
		c0.69-7.06,2.69-14.47,3.93-21.66c2.83-16.45,1.65-16.76,3.12-19.04c0.2-0.2,0.2-0.5,0.2-0.71c-1.01-4.73,1.01-9.17,1.11-13.6
		c2.61-1.49,7.35,13.04,12.29,11.28c2.57-0.51,14.51,9.76,18.43,15.01c4.95,6.62,4.64,13.36,6.14,26.9c0,3.14,7.42,13.52,8.76,16.22
		c-2.58,1.03-1.93-0.38-0.1,10.98c0.73,1.45,2.28-1.06,1.91-4.03c-0.15-2.16-0.99-5-0.71-4.43c0,1.16,8.66,2.53,7.55,29.21
		c-1.7,41.06,3.86,25.41-33.75,45.83c-1.99,1.08-3.48,2.07-11.48,3.32c-9.04,1.42-8.68,3.99-12.89,3.93
		c-9.56-0.14-11.78,6.84-26.59,6.35c0.81-0.91,1.51-1.61,2.42-2.72c-0.81-0.2-1.31-0.5-1.71-0.4c-2.42,0.3-5.04,1.41-6.75,2.62
		c0.4,0.3,0.71,0.6,1.11,0.91c0.3,0.2,0.6,0.3,1.11,0.6C257.09,289.47,272.8,280.96,251.36,284.46z M174.9,540.62
		c0.8,0.12,0.81,0.6,0.71,1.61c-0.91-0.3-1.51-0.5-1.91-0.6C173.69,540.52,174.29,540.54,174.9,540.62z M176.11,546.06
		c0.02,0.1,2.27,10.07,2.62,10.88c0.92,2.12-0.44,4.19,2.01,8.36c0.6,0.91,0.91,2.01,1.21,3.12c0.5,2.42,0.4,2.62-2.12,4.23
		c-0.5-0.4-1.01-0.71-1.71-1.11c-4.18,6.27,7.25,18.47-5.24,23.27c-6.22,3.11-23.24,1.59-27.9,0.71
		c-7.79-1.47-7.29-11.79-2.01-16.52c2.51-2.25,3.46-8.32,4.59-9.02c0.73-1.81,0.16-2.28,3.87-1.96c10.28,0.86,29.99-2.86-0.71-4.43
		c0.2-0.6,0.4-1.11,0.6-1.81c11.13,0.37,18.99,1.6,17.12-1.41c-2.17-3.49-10.98-3.53-15.11-3.53c-3.22-3.22,11.5-0.33,15.01,0.2
		c4.6,0.69,3.37-2.45-14.4-5.14c-1.31-2.52-2.12-5.24-2.72-8.06c1.03-1.49,9.16-4.58,12.99-4.03c6.54,5.45-1.38,10.28,7.86,12.59
		C175.2,549.79,175.2,549.79,176.11,546.06z M169.06,547.07c1.41-0.5,2.52-0.91,3.63-1.31c0.71,0.6,0.6,1.11,0,1.61
		C169.73,550.33,170.93,549.56,169.06,547.07z M174.8,408.86c-0.08,7.64-6.84,25.87-5.84,29.01c3.26,2.18-0.01-11.88,7.25,6.45
		c0.95,2.4,0.87,1.82,0.71,17.63c-0.05,4.34-1.09,4.26-5.34,16.82c-2.18,6.45-0.93,3.98-0.71,51.37c0.04,7.97-1.7,2.06,0.1,12.29
		c-2.92,0.97-0.52,2.64-4.23-3.22c-2.19-3.47-9.86-2.53-12.39-1.71c-0.04-0.1-11.52-50.76-13.1-54.7c-9.99-25.04-4.93-37.38-1.41-55
		c1.11-0.4,2.31,0.1,2.92-0.91c3.13-5.11-1.46-11.65-2.01-22.97c-0.26-5.35-9.39-5.78,9.47-0.71
		C173.46,409.48,174.86,403.46,174.8,408.86z M319.86,520.68c-3.49-5.63-9.21-17.89-24.58-32.34c-6.54-6.15-16.85-17.7-18.13-18.84
		c-5.79-5.17-3.21-23.57-16.62-41.1c-21.21-27.74,4.29-9.58-15.71-24.88c9.67-3.93,19.74-5.04,29.51-8.16
		c0.3,4.23-1.81,7.55-2.92,10.98c1.2,1.68,5.4-4.43,4.73-12.09c3.53-1.31,7.35-1.81,11.38-2.62c0.85,13.61-1.39,0.37,8.36,26.69
		c3.66,9.87,15.15,6.29,24.68,46.54c4.34,18.33,16.47,55.09,17.33,59.94c-2.06,2.57-3.48,1.68-4.53,7.86
		c-0.86,5.03,0.26,5.14-2.22,5.14c-3.05-0.23-0.93-2.48-2.32-6.65C327.08,531.85,331,538.64,319.86,520.68z M332.55,540.32
		c-0.81,1.41-0.81,1.41-2.32,0.2C331.14,540.42,331.74,540.42,332.55,540.32z M376.47,580.41c-13.99,9.39-20.82,3.02-30.42,4.03
		c-8.29,0.87-10.48-10.64-11.38-12.49c-2.65-5.45-5.03-1.71-10.17-5.34c0.47-2.37,0.85-2.73,0.1-5.54
		c-1.18-4.42,2.59-5.29-0.1-11.48c-1.47-3.39-1.09-8.94-0.2-10.27c1.63-1.63,3.16,5.72,9.57,3.93c3.74-6.46-0.01-4.83,2.62-12.89
		c0.9-2.77,9.37-5.14,12.59-1.91c0.81,7.33-0.81,1.86,3.02,12.59c-22.95,3.44-16.85,14.87-14.3,9.77c3.26-5.61,8.86-5.88,16.62-7.76
		c3.05,2.32,7.74,7.03,7.96,7.86c0.81,3.07,6.24,9.85,9.17,10.58c4.07,1.02,4.56,4.41,5.24,8.76
		C378.19,579.4,378.42,579.11,376.47,580.41z"/>
	<path d="M147.69,569.94c0.03-0.01,0.05-0.03,0.08-0.03C147.8,569.83,147.85,569.79,147.69,569.94z"/>
	<path d="M205.32,154.61l0.1-0.1C205.31,154.4,205.37,154.5,205.32,154.61z"/>
	<path d="M114.26,111.9l0.1,0.1C114.39,111.78,114.43,111.78,114.26,111.9z"/>
	<path d="M693.27,155.12c-0.02-0.05-0.02-0.1-0.03-0.15C693.14,155.07,693.13,154.97,693.27,155.12z"/>
	<path d="M782.32,356.18c-0.02-0.11-18.38-112.22-28-113.02c0,4.96,8.44,18.75,12.59,46.34c0.02,0.1,17.48,93.32,14.4,100.23
		c-56.23,16.54-44.32,10.08-60.44,13.3c-3.58,0.72-11.64,0.92-11.58-2.01c0.22-11.99-3.81-24.79-3.22-30.32
		c0-0.31-1.17-7.97-3.73-13.5c5.29-20.88,14.91-44.64-25.79,24.78c-0.3,0.4-0.81,0.91-0.1,1.61c0.63-0.58-0.87,2.5,22.46-33.14
		c7.64-11.67,7.45-12.82-0.4,13.5c-1.73,5.79-0.65,5.92-1.41,13.1c-1.07,10.02-4.82,27.57-6.45,30.82
		c-9.05,0.68-25.21-4.42-32.64-6.95c-28.61-9.77-14.97-1.76-47.55-12.19c4.24-23.33,5.27-32.19,5.34-38.48
		c0.01-1.16,4.6-14.71,4.63-14.81c2.26-6.92,3.11-4.17,5.24-12.49c2.9-11.33,5.79-15.87,16.12-36.87c5.74-0.41,4.97-0.88,7.55-0.4
		c19.45,3.6,10.55,1.13,18.53,2.01c1.11,3.02,2.22,6.04,3.42,9.37c1.72-3.01-1.71-6.76-1.71-9.77c3.81-1.43,2.43,0.15,3.63-4.23
		c2.2-0.38,8.06,0.81,4.84-5.64c-7.7-3.45-7.78-2.8-15.11-4.63c12.76-0.81,16.66,0.58,19.64-1.61c1.11-1.91-0.3-3.73,0.3-5.54
		c7.82,1.06,8.44,2.78,11.69,3.42c-5.12-4.87-16-5.37-16.22-5.14c-1.99,2.07-4.29-1.54-13.6-0.81c-3.21,0.26-3.67-0.47-4.23-0.81
		c2.32-1.51,4.84-1.11,7.15-1.41c-0.1-0.71-0.2-1.31-0.3-1.81c5.49-2.19,9.42-3.58,4.43-8.56c1.21-0.4,2.22-0.71,3.12-1.01
		c1.51,0.91,1.71,2.72,3.32,3.32c0.47-2.68-3.86-3.39,0.3-4.43c0.4,1.41,0.81,2.62,1.21,3.83c2.18-1.46-0.34-4.99,2.32-0.71
		c1.67-4.34-3.43-2.54,1.81-5.54c1.72,1.58,0.55,2.77,2.32,4.53c1.01-1.81-0.4-3.32-0.2-5.04c2.72-1.21,5.64-1.73,8.36-2.52
		c9.87-2.87,7.95-3.39,10.07,0.5c0.1-1.41,0.2-2.42,0.3-3.32c1.01-0.5,1.81-1.21,2.82,0.2c0.93-2.8,11.65-4.13,13.4-6.04
		c0.5,0.6,0.81,1.11,1.21,1.61c0.81-1.01-0.1-2.22,1.21-2.62c1.55,3.88,0.43-0.93,2.45-1.67c0.91,8.45,4.5,0.95-26.02,16.38
		c4.03-0.3,6.65-2.22,9.67-2.82c7.42,10.38,8.95,13.13,11.08,13.8c-4.34-11.17-10.94-13.92-8.97-14.91
		c13.97-5.85,12.62-5.44,13.2-5.44c2.16,0-5.96,10.98,0.3,10.98c4.36,0,4.9-3.36,5.84-4.94c4.4-6.25,3.1-7.27,5.84-11.38
		c0.68,1.17-0.95,4.01-1.11,6.04c-0.65,8.33-3.24,10.46-1.41,14.81c2.06,1.68,5.32,1.1,6.65-3.53c2.45-8.48,1.85-9.98,4.03-10.27
		c0.26,1.02-1.72,9.11-2.12,11.08c6.78,2.26,6.44-1.53,14.51-20.35c9.3-3.45,15.6-10.11,17.93-20.45
		c2.39-10.64,4.29-11.77,8.36-25.08c15.63-51.1,6.02-80.08,4.23-72.13c-1.46,6.47,7.62,42.74-14.1,89.15c-0.6,0.1-1.11,0.1-1.71,0.2
		c-2.64,6.92-3.03,6.03-1.01,7.1c0,2.77-0.89,1.4-0.81,6.6c0.07,4.17-1.49,7.52-9.27,9.67c-4.05,1.12-5.39,4.16-6.85,7.45
		c-6.93,15.56-5.81,17.96-9.57,15.82c0.16-0.59,1.81-7.99,1.81-8.76c0-4.27,3.32-6.35,3.32-10.27c-1.62-0.27-1.06-1.26-7.05,8.16
		c-0.64,0.9-1.32,3.37-4.03,12.49c-0.76,2.57-3.03,2.98-3.42,1.81c-1.03-3.1,0.28,1.41,2.32-14c0.58-4.37,1.68-5.07,3.12-9.97
		c0.5-1.35-0.79-2.77-2.52-0.3c-8.65,12.37,0.28,2.45-10.58,18.74c-6.46,1.44-0.63-3.76,0.71-13.7c0.56-4.17,15.07-19.75-1.81-14.61
		c-1.45,2.6-9.79,12.96-12.19,9.37c-1.52-1.83,1.52-1.67,4.63-8.06c1.12-2.3,3.53-5.84,6.25-7.66c0.91,0.91,1.61,1.71,2.32,2.52
		c1.11-1.11-0.5-2.01,0.3-3.12c35.73-4.05,29.92-2.9,30.22-36.36c0.07-7.65-2.16-12.34-2.62-18.74
		c-2.11-29.29,4.72-31.05-3.53-29.21c-7.34,1.64-16.42,2.77-23.87,1.41c2.09-0.81,8.92,0.25,2.12-2.01
		c-25.72-6.67-12.59-6.96-21.56-7.86c-1.31-8.86-1.41-8.95-2.62-9.07c-1.65,4.12,1.84,14.82-0.91,23.07
		c-3.97-0.66-12.91-8-15.92-10.68c-10.02-8.93-13.87-16.14-22.16-27.2c-1.12-1.68-0.91-2.76-0.91-4.94
		c-2.85,1.27-1.63,1.87-9.07-5.24c8.46-2.82,0.34-0.65,7.96-4.53c35.44-18.07,26.87-2.98,57.01,1.81c44.96,7.15,21.21-1.8,64.21,29
		c-0.66-2.57-4.99-7.17-6.79-8.65c-22.27-18.26-22.68-16.59-29.21-18.03c-38.45-8.48-30.14,0.92-39.19-7.55
		c-6.31-5.91-17.52-9.75-24.18-8.97c-4.85,0.57-2.7,1.46-5.74,2.42c-6.43,2.03-12.03,5.14-22.97,10.98
		c-5.37-0.19-12.42-0.32-16.42-1.21c-7.51-25.76-7.09-20.5-4.33-19.95c1.66,0.5,2.72-0.84,2.72-2.62c0.82-7.79,0.87-8.66,0-10.78
		c-0.42-0.85-1.84-7.28-5.04-9.67c-0.6-4.33-0.6-4.33-2.01-6.55c2.83-2.83-1.68-4.36-3.32-10.17c-1.35-4.77-4.89-5.94-11.58-10.98
		c-3.99-3.01-3.07-0.95-6.14-2.42c-6.28-2.99-0.86-1.01-6.75-1.01c-1.41,0-2.12,1.21-3.42,1.61c-4.69-2.68-7.75-5-8.56-2.01
		c-0.51,3.58,0.63,2.23-2.32,0.1c-2.12-1.54-4.73-2.92-4.94-0.3c6.68,6.68,2.96,2.12-4.43,2.12c-0.3,1.11-0.71,2.01-0.71,3.02
		c-0.1,1.41-2.12,1.21-1.81,2.72c3.12,3.51,2.56,2.77,1.11,6.55c-2.42-0.2-2.98,1.72-3.32,3.63c-0.85,4.77-1.09,18.26-0.4,19.14
		c1.19,1.53,0.91,3.42,1.31,5.24c1.15,0.77,1.38,1.44,1.81,2.52c-1.64,3.27-2.97,2.88-2.22,10.07c0.6,5.78,5.94,5.14,5.94,9.57
		c0.24,4.08,4.84,0.21,6.25,4.43c0.74,2.21,3.05,11.53,4.23,16.12c2.44,9.53,2.69,5.91,0.2,9.27
		c-22.34,30.13-8.49,20.05-20.05,24.38c-6.78,2.54-20.65,11.63-22.36,20.65c-0.92,4.86-0.55,23.63-3.63,25.89
		c-4.8,3.53-11.09,16.7-13.5,22.16c-2.15,4.86-2.51,13.61-2.42,19.04c0.7,42.19-3.35,17.25,3.63,35.46
		c1.64,4.29,23.12,16.65,40.7,19.14c12.47,1.77,12.14,4.4,44.52,10.17c3.5,0.62,2.92,2.04,5.44,3.02c1.31,0.51,0.9,1.92,1.71,2.62
		c8.66,7.52,15.42,0.03,11.99,6.25c-7.53,13.64-13,23.23-16.12,35.46c-0.29,1.13-10.49,23-9.47,29.62
		c0.23,1.47-0.13,1.51-4.53,21.76c-3.42,15.72-3,14.5-0.81,16.82c-0.44,7.88-0.08,7.71-1.91,10.58c-3.3,5.14-7.45,14.6-7.45,16.12
		c-0.21,4.04-4.74,4.75-11.68,13.5c-10.81,15.45-12.34,40.09-19.14,59.84c-12.7,36.87-8.54,31.13-16.32,31.13
		c-10.91,0-2.15,12.62-8.56,17.43c-3.47,2.6-8.73,7.58-11.38,12.49c-2.34,4.33-7.26,4.73-8.86,8.97c-0.28,0.28-1.63,0.57-2.32,3.32
		c-2.43,9.73-3.19,15.07,0.2,17.43c15,10.43,28.35,3.21,33.64,3.32c5.13,0.11,10.63-7.33,11.08-10.58c0.21-1.51,0.3-3.02,1.01-4.53
		c4.43-0.2,8.46-1.31,10.98-5.54c-1.58-4.06,0.12-5.58-0.81-9.27c-1.56-4.83,0.21-7.58,0.4-16.12c0.06-2.54-1.43-2.98-3.53-4.03
		c32.74-65.47,53.33-50.57,60.04-91.77c2.17-13.35,2.51-7.03,1.91-10.58c12.61-5.29,13.25-23.39,15.51-25.18
		c5.77-4.59,5.6-4.92,8.36-4.13c16.26,3.53,20.8,5.23,28.61,4.43c3.43,0,1.15,1.96,3.02,2.12c6.35-4.08,8.27-50.36,10.38-50.06
		c2.28,6.08-0.65,5.69,1.61,14.81c3.22,12.96,3,18.72,4.23,28.61c3.11,1.78,7.72,2.13,11.28,1.91c6.53-0.82-2.89,5.98,7.25,23.37
		c-1.16,5.64-12.72,24.77-6.95,36.47c0.3,0.62,2.14,8.59,3.83,12.69c4.43,10.8,3.09,53.5,2.42,59.53c-4.01-0.67-4.35,0.83-4.63,2.92
		c-1.29,9.58-2.35,9.14-1.81,11.48c0.36,1.57-1.74,1.92-1.61,7.66c0.08,3.36-3.96,4.59-3.02,11.18c2.76,2.76,0.27,1.1,5.54,4.94
		c-0.86,2.58-2.62,3.74-2.62,8.56c0,6.12-0.76,8.18,3.63,10.58c12.44,6.78,37.94,3.07,39.19,0.71c3.65-6.91,2.92-6.54,2.92-7.66
		c0-4.13,0.21-6.48-3.12-8.76c-3.12-2.13-9.11-18.3-10.38-21.25c-2.99-6.99-0.84-9.65,1.11-17.83c-3.61-3.82,2.32-17.02,4.53-39.49
		c0-1.93,5.4-18.52,7.45-24.18c4.32-11.91,4.71-20.65,3.02-35.06c-3-25.59-6.39-9.78-5.54-28.91c0.61-13.8-1.98-13.4,14.4-19.34
		c3.12-1.13,6.04-2.52,8.86-4.13C780.81,384.4,787.02,383.26,782.32,356.18z M771.34,209.01c0.1,0.2,0.2,0.4,0.2,0.5
		C770.98,210.08,771.03,209.32,771.34,209.01z M658.12,262.5c-2.66,0-1.44-1.58-1.31-2.72c1.31-1.01,2.82-0.2,4.73-0.6
		C660.23,260.48,659.33,261.39,658.12,262.5z M680.88,249.51c-0.13-0.13-0.14-0.09,0.04-0.13
		C680.91,249.41,680.89,249.46,680.88,249.51z M726.17,231.4c0.65-0.42,1.28-0.85,1.94-1.27
		C728.03,231.37,728.06,231.64,726.17,231.4z M710.9,123.79c5.03,3.8,8.14,3.08,11.08,5.54c6.7,5.61,20.02,4.34,28.81,2.52
		c2.08-0.43,1.88-1.14,1.11,4.03c-1.71,11.38-0.71,7.36-0.71,17.73c0,19.63,5.2-0.17,2.52,50.77c-4.71,3.53-8.38,3.16-18.74,4.13
		c-2.38-4.77-3.64-11.64-9.07-20.35c-0.7-1.13-2.07-6.71-5.14-17.33c-2.2-7.61-1.63-0.8-3.53-16.52
		C714.29,129.81,706.13,120.18,710.9,123.79z M707.68,127.62c1.21,2.42,1.81,4.94,2.12,7.25c-1.21,1.01-2.12,0.2-3.22,0.2
		C706.47,132.45,707.48,130.04,707.68,127.62z M636.06,46.23c1.31,1.61,1.31,1.61,1.31,3.83C635.25,48.04,635.25,48.04,636.06,46.23
		z M637.06,52.67c-0.1,1.81-0.2,3.22-0.3,4.73C634.02,55.35,635.05,54.91,637.06,52.67z M633.54,42.3c0.2,0.1,0.5,0.2,0.71,0.3
		C635.22,43.91,632.27,44.83,633.54,42.3z M624.57,26.48c-0.13,0.26-0.07,0.25-0.2,0H624.57z M608.46,13.59
		c-0.26-0.52-0.3-0.01-0.3-0.71C608.45,13.03,608.72,13.32,608.46,13.59z M608.56,19.03c0.35,0.7,0.14,0.64-0.4,0.91
		C608.15,19.61,607.7,19.46,608.56,19.03z M606.24,18.93c-0.2,0-0.17-0.02-0.27-0.22C606.08,18.79,606.17,18.86,606.24,18.93z
		 M605.94,11.77c-0.18,0-0.27,0.05-0.31,0.1c0-0.03,0.01-0.06,0.01-0.1C605.74,11.77,605.84,11.77,605.94,11.77z M601,21.14
		c0.4,0.81,0.71,1.31,1.01,2.01C600.9,22.75,600.9,22.75,601,21.14z M581.46,30.61c0,0.3-0.4,0.4-0.81,0.81
		c-0.3-0.4-0.6-0.71-1.01-0.91C581.05,29.57,581.54,30.03,581.46,30.61z M579.34,54.18c0.67-0.67,0.83,0.23,1.71,1.11
		c-0.2,0.2-0.4,0.3-0.6,0.5C579.98,55.32,578.84,54.69,579.34,54.18z M579.55,61.34c0.81,0,0.81,0.9,1.21,1.21
		c1.53,1.18,2.01,0.89,3.02,3.93C581.25,65.14,577.13,62.84,579.55,61.34z M590.42,72.52c-4.21-2.08-3.93-5.88-6.45-19.74
		c-0.76-4.22,1.62-3.23,0.2-11.99c-1.05-6.49,2.41-3.48,0.3-8.97c3.57,1.43,2.79,1.85,3.22-1.21c2.62-2.22,5.84-1.91,9.17-2.42
		c0.5,0.2,1.31,0.6,2.12,1.11c6.37-1.91-0.23,0.19,7.55-4.43c2.02-1.2,3.93-0.3,5.84-1.01c0.2,0.5,0.2,0.91,0.4,1.21
		c1.26,2.16,3.02-0.71,1.71-0.71c0.74-0.74,1.15,2.84,2.12,3.22c1.98,0.92,1.76,0.96,10.68,12.39c1.2,1.54,3.71,10.53,4.23,12.39
		c0.49,1.36,0,8.38,0,12.09c0,4.55,1.27,7.18-0.1,10.38c-9.72,22.64-11.37,10-20.85,16.72C597.28,89.3,596.52,75.53,590.42,72.52z
		 M593.14,104.45c1.52,1.01-0.37,2.94,1.31,16.72c3.09,25.33,12.9,26.94,24.98,32.54c6.83,3.16,19.13,1.69,24.38-1.81
		c-6.88,1.2-16.83,4.86-28.91-1.81c-1.04-0.58-5.85-1.9-7.45-4.03c-7.55-10.07-9.69-18.94-11.99-42.71
		c-0.39-4.03,1.87-1.34,1.41-5.64c-1.02-9.45-6-15.91-2.72-17.23c2.01,3.02,5.34,5.14,6.75,8.76c4.96,4.25,2.22,3.26,11.48,4.33
		c5.27-2.34,6.42-2.99,9.17-2.62c6.02,0.81,5.92-5.89,12.89-14.61c0-2.42,0-4.63,0-7.25c0.4,0.5,0.81,0.81,0.81,1.01
		c0.31,3.88,1.86,7,2.62,11.38c0.37,2.12,1.31,3.93,2.82,5.94c0.29-3.51-0.65-4.12,5.74-2.52c9.47,12.67,16.34,29.7,14.81,45.83
		c-0.66,6.93-4.02,11.41-6.25,14.91c2.93-0.98,9.25-9.03,9.37-18.33c0.19-14.56-5.65-28.66-14.2-40.29
		c-1.41-1.91-0.88-1.51,3.42-1.51c18.93,20.59,16.48,25.86,34.55,40.49c5.41,4.38,6.26,6.38,8.66,6.25
		c2.22,1.41,4.43,2.72,6.65,4.13c-1.14,8.3-10.62,16.74-10.2,18.59c5.77-4.05,9.46-11.92,12.72-17.58c4.98,0,4.49-0.94,5.24,3.73
		c2.4,14.98,2.29,20.12,7.05,33.95c3.88,11.25,3.5,13.77,6.25,16.92c4.04,4.65,4.4,8.11,7.66,17.23c-4.2,1.87-7.28-0.85-10.88,3.63
		c-4.76,5.92-2.33,5.67-8.06,12.29c-0.61,0.7-1.29,1.42-1.81,2.32c-0.78,1.33,0,2.91,1.41,3.32c3.89,1.15,5.71,0.28,11.48-7.35
		c2.32-3.07,3.37-2.56,6.75-3.12c1.92,1.05,1.07,2.57-0.71,5.24c-6.76,8.69-30.12,11.89-46.34,19.24
		c-17.34,7.86-28.39,4.82-32.03,7.25c-7.15-8.42-3.82-9.79-17.43-32.13c-4.51-7.4-10.97-11.49-11.89-15.01
		c-9.06-9.84-0.61-3.86-18.03-16.92c-0.81-0.6-1.51-1.41-2.72-2.52c10.61,1.87,6.27,3.32,27.8,0.71c4.75-0.58,7.29-3.56,0.3-2.12
		c-9.8,2.03-19.02-0.98-30.32-4.94c-1.25-1.75-0.5-2.48-2.32-15.61C589.93,109.55,587.16,110,593.14,104.45z M647.64,252.93
		c-18.29,10.02-9.6,7.75-29.82-2.62c-19.96-10.24-21.92-10.61-26.79-14.51c-8.04-6.42-10.26-9.57-18.33-13.1
		c-4.68-2.04-4.18-1.32-1.51-3.12c4.11-2.78,9.94-7.71,12.29-12.09c6.54-12.21,6.26-33.38,10.17-25.89
		c3.02,5.79,8.09,9.73,13.1,13.5c14.96,11.27,2.78-0.89,26.69,27.8c1.46,1.75,8.97,16.34,9.27,16.92
		C643.73,241.86,646.99,251.1,647.64,252.93z M634.95,283.35c-3.77-0.29-1.12-0.69-11.18-6.65c-2.27-1.14-1.74-0.9,0.6-2.72
		c-5.53-2.87-11.39-3.79-6.14,0.71c-14.56,0.7-17.2-6.35-26.8-6.35c-1.01,0-2.1-0.12-2.92-0.6c-5.8-3.44-13.41-3.71-16.22-4.53
		c-2.95-0.86-31.5-13.47-36.06-18.03c-1.33-3.98-2.22-5.46-2.22-7.76c0-34.08-3.63-37.07,6.04-50.27c0.18-0.54,0.91,0.17,0.91-0.71
		c0.3-0.6-0.65,2.42-0.5,4.33c-0.45,3.83,2.54,9.83,3.42-6.25c-0.5-0.2-1.11-0.4-1.81-0.71c1.82-3.03,8.21-12,8.97-16.52
		c2.43-22.38,0.17-24.67,21.46-40.39c3.92-2.89,3.24,0.79,6.14-1.81c1.64-1.47,2.96-3.2,3.93-5.14c1.15-2.3,3.02-3.93,4.53-6.35
		c0.83,1.86,0.24-0.53,2.01,10.88c0.57,3.65-0.56,3.31-0.2,4.03c0.19,0.3,8.81,45.62,7.55,48.75c-12.5-6.73-7.03-1.46-7.96,3.22
		c-4.19,21.29-4.3,21.2-6.04,23.17c-8.3,9.36-12.03,11.21-14.61,16.22c-0.55,1.07-3.68,2.94-1.01,4.03
		c7.18,2.91,19.82,11.29,20.85,12.19c4.11,3.56,4.59,1.91,10.58,6.55c3.59,2.78,4.45,2.73,19.24,10.48
		c3.05,1.22-3.11-0.23,14.71,9.07c3.33,1.74,1.01,0.55,20.25-9.07c1.86,2.97,1.53,3.96,2.01-0.4c2.36-1.18,16.48-0.09,17.53,0.1
		c0.2,2.22-0.1,2.63-1.61,3.12c-9.37,3.08-14.16-1.81-17.43,4.23c2.25,0.75,1.85,0.17,1.51,2.92c2.01,1.81,4.53,1.93,7.05,1.71
		c9.75-0.83,6.41-0.91,20.05,2.12c0.71,3.54,3.03,3.93-18.53,3.73c-2.66-0.02-6.22-0.91-7.45-0.71c-0.8,0-1.13,1.45-0.6,1.71
		c4.26,2.98,23.86,5.07,22.87,8.06c-0.36,1.8-2.95,2.07-4.73,1.61c-4.24-1.08-8.56-0.8-12.79-1.31c-7.45-0.89-5.13-1.61-9.37-1.61
		c0.94,0.75,2.76,2.82,10.58,3.53c5.38,0.48,0.67,0,9.57,2.62C668.08,287.93,656.88,283.35,634.95,283.35z M574.21,557.14
		c1.38,3.71-1.66,6.13,0.5,9.27c-5.45,3.85-8.41-0.06-10.68,6.45c-2.88,8.28-4.18,11.48-12.79,11.48c-9.15,0-18.26,5-30.32-5.34
		c4.52-25.44,3.89-12.13,10.68-20.55c7.61-9.44,4.16-8.37,12.89-15.51c7.97,1.99,13.53,2.2,16.92,8.06
		c2.57,4.44,5.42-4.67-4.84-7.96c-4.48-1.44-7.91-1.82-9.47-2.12c0.99-5.44,2.62-4.2,2.62-10.78c0-3.5,3.18-3.67,6.65-3.22
		c4.92,0.64,7.18,2.06,7.05,9.77c-0.13,7.81,3.99,9.44,10.38,2.22C577.97,539.43,572.43,552.35,574.21,557.14z M566.45,540.42
		c0.81,0,1.41,0,2.32,0C567.46,541.73,567.46,541.73,566.45,540.42z M646.23,410.38c-0.43,0.87,0.88,1.01,1.71,1.51
		c0,7.63-14.51,18.91-18.33,33.85c-5.55,21.68-5.39,21.35-6.95,23.07c-23.24,25.55-24.16,23.29-31.63,33.64
		c-17.89,24.81-17.81,29.2-20.35,30.72c0-0.81,0-1.31,0.2-1.71c-3.42,1.71,2.1,7.41-4.43,6.14c-2.19-19.75-8.37-4.03-2.42-21.76
		c28.33-84.41,13.49-67.35,35.86-92.47c3.17-3.56,2.95-3.05,8.66-17.53c2.46-6.24,3.02-4.9,3.02-9.57
		c-0.42-5.52-1.11-4.97,11.38-2.01c-0.48,4.35,0.99,11.53,4.63,12.89c-0.14-1.59-4.05-9.95-2.72-11.28
		c0.25-0.25,21.83,4.97,27.8,7.05C656.46,403.87,648.75,406.17,646.23,410.38z M729.34,546.77c0.6,1.21-0.1,1.71-1.21,2.62
		c-0.4-1.41-2.32-1.61-2.32-3.42C727.22,545.86,728.33,546.57,729.34,546.77z M724.6,540.62c0.45,0,1.75,0.96-1.01,1.51
		C723.19,540.83,723.8,540.52,724.6,540.62z M749.99,567.72c1.45,0.8,1.15,2.25,1.36,2.31c3.12,3.82,0.99,6.24,4.48,8.99
		c3.58,2.82,4.92,9.47,3.73,11.58c-3.08,5.47-1.33,5.73-26.09,6.25c-1.33,0.03-7.32-1.97-8.36-2.32
		c-11.24-3.75-1.02-16.56-4.43-23.07c-0.71,0.3-1.31,0.71-1.91,1.01c-5.34-3.56,0.71-6.94,0.71-11.89
		c0.17-3.32,2.63-12.55,3.22-14.4c0.1,2.72,1.51,4.43,3.73,6.04c9.13-1.52,1.87-7.21,7.96-12.39c3.83-0.3,8.36,0.91,12.89,3.53
		c0.4,1.61-0.49,2.93-0.91,4.33c-1.52,5.12-0.47,3.42-10.78,5.54c-3.03,0.62-6.19,1.52-7.86,3.53c3.25,0-0.56,0.27,14.2-1.81
		c4.12-0.58,4.89,1.61,3.02,1.61c-3.73-0.3-7.25,0.42-10.88,1.21c-4.03,0.88-4.69,3.91-2.92,4.13c9.08,1.11,15.33-2.07,16.92,1.11
		c-1.76,1.18,3.23-0.46-15.71,1.81C731.89,564.81,727.24,567.72,749.99,567.72z M751.6,505.77c-6.03,21.7-4.15,23.83-6.85,31.43
		c-16.3-3.49-12.03,6.87-16.62,5.34c0-63.23,3.07-56.71-4.53-74.34c-1.75-4.07-1.61-4.8-1.61-20.55c0-2.11-0.01-1.86,4.94-13.3
		c1.51,1.01,1.01,3.22,2.72,3.53c1.54-3.69-5.74-19.18-5.74-31.33c5.44-0.78,12.2,0.39,32.64-6.14c3.25-1.04,2.95-0.84,3.42-0.6
		c-2.05,3.42-1.78,2.35-2.12,6.35c-0.85,10.2-6.52,20.35,1.01,21.15C765.36,454.64,766,453.94,751.6,505.77z"/>
	<path d="M786.25,111.6c-0.15-0.12-0.22-0.18-0.1,0.1L786.25,111.6z"/>
	<path d="M700.22,323.95c23.64-24.25-30.99,24.18-30.62,28.61c2.39-0.68,5.8-7.54,25.28-23.77
		C696.7,327.27,698.53,325.68,700.22,323.95z"/>
	<path d="M192.53,317.1c5.62,8.02,8.18,7.27,35.16,34.25c3.05,3.05,6.92,2.07-33.75-33.85C193.74,317.3,193.33,317.3,192.53,317.1z"
		/>
	<path d="M729.44,385.49c0.4,0.5,0.71,1.11,2.12,0.81c-7.44-11.57-17.97-19.78-24.78-29.62
		C704.85,360.21,718.84,370.59,729.44,385.49z"/>
	<path d="M168.45,386.7c2.03-1.02,2.64-4.49,12.89-15.21c3.17-3.31,12.5-12.51,10.78-14.81
		C187.38,364.79,165.19,385.07,168.45,386.7z"/>
	<path d="M709.64,79.96c-0.64-0.02-1.21-0.18-1.76-0.09c-1.62,0.15-2.12,1.98,1.01,4.33c4.2,3.67,6.7,4.43,7.49,6.91
		C721.1,86.89,710.37,81.4,709.64,79.96z"/>
	<path d="M709.79,79.97l-0.2-0.1C709.63,79.97,709.68,79.97,709.79,79.97z"/>
	<path d="M710.9,284.86c-0.53-21.02-1.51-21.68-3.73-29.72c-0.2-0.6-0.4-1.51-1.41-1.41c-0.42,0.42-0.09,0.23,0.2,1.71
		c4.99,15.88,1.88,24.16,4.43,27.3C710.92,283.39,710.62,285.14,710.9,284.86z"/>
	<path d="M188.1,285.27c3.89-15.56,0.39-15.49,5.34-30.72c0.1-0.2-0.1-0.6-0.2-1.01C188.41,259,187.72,283.02,188.1,285.27z"/>
	<path d="M155.66,353.36c18.57-13.87,25.05-12.22,26.09-14.51C161.67,343.32,146.8,359.98,155.66,353.36z"/>
	<path d="M190.11,325.46c-3.19-13.8-1.88-6.74-3.42-20.25C184.04,307.42,186.83,321.76,190.11,325.46z"/>
	<path d="M712.31,305.41c-2.51,20.05-2.96,14.91-3.22,20.15C711.85,321.8,715.02,306.32,712.31,305.41z"/>
	<path d="M629.31,318.41c0.1,0,18.15-4.13,18.33-4.23C642.36,313.71,628.1,315.99,629.31,318.41z"/>
	<path d="M252.06,314.68c0.21,0.09,16.95,3.45,17.83,3.32C265.87,315.4,256.74,312.98,252.06,314.68z"/>
	<path d="M773.26,116.34c-1.12-0.65-1.88,1.07-1.31,2.22c0.54,1.54,1.57,4.35,2.62,6.45C777,122.08,775.3,117.53,773.26,116.34z"/>
	<path d="M123.43,120.47c-0.49,2.54,0.53,9.12,3.93-3.02C127.35,115.23,124.33,115.82,123.43,120.47z"/>
	<path d="M716.74,285.06c4.33-2.52,8.97-1.01,13.5-1.11C721.91,280.27,713.46,283.83,716.74,285.06z"/>
	<path d="M168.76,283.86c2.85,0.86,8.87-1.78,13.7,1.21C185.68,282.48,173.65,280.92,168.76,283.86z"/>
	<path d="M730.44,313.97c-0.1-0.2-0.1-0.4-0.2-0.4C699.24,308.64,726.35,315.34,730.44,313.97z"/>
	<path d="M169.06,313.47c-0.2,0-0.3,0.3-0.5,0.5C170.26,315.68,202.56,309,169.06,313.47z"/>
	<path d="M170.37,266.73c-1.81-3.73-3.22-2.92-2.92-11.89C164.43,257.1,166.32,265.72,170.37,266.73z"/>
	<path d="M731.15,254.44c1.11,4.84,0.4,8.66-2.32,12.19C733.77,263.91,734.4,257.86,731.15,254.44z"/>
	<path d="M690.65,254.54c-0.2-0.1-0.4,0.2-0.71,0.5c2.52,1.71,5.04,3.42,7.45,5.04C700.59,262.47,699.71,256.65,690.65,254.54z"/>
	<path d="M208.95,254.54c-2.05-0.27-7.57,2.71-8.86,4.94c-0.86,2.58,0.53,1.32,8.86-4.33C209.05,255.15,208.95,254.94,208.95,254.54
		z"/>
	<path d="M173.29,321.63c3.88-0.1,9.97-2.59,9.97-4.03C181.92,317.6,184.8,316.8,173.29,321.63z"/>
	<path d="M722.99,321.53c6.59,2.78-1.16-2.98-7.86-3.73C717.65,319.82,720.49,320.47,722.99,321.53z"/>
	<path d="M743.54,87.93c4.39,8.54,8.16,8.47,2.62,1.81C745.47,88.92,744.95,87.93,743.54,87.93z"/>
	<path d="M150.22,94.68c2.32-1.71,4.53-4.84,5.24-7.05C152.64,89.34,151.23,91.86,150.22,94.68z"/>
	<path d="M117.58,128.22c0,0.6,0,1.31,1.01,1.41c0.5-2.52,0.4-4.94,0.4-8.16C116.98,123.89,117.58,126.11,117.58,128.22z"/>
	<path d="M781.31,129.03c0.41-6.92,0.05-5.33-1.01-7.45c0,2.92,0,5.44,0,8.26C780.81,129.43,781.31,129.23,781.31,129.03z"/>
	<path d="M145.49,362.43l0.1,0.1C145.68,362.22,145.69,362.23,145.49,362.43z"/>
	<path d="M145.65,362.28c10.81-10.2,8.79-9.52,0.24-0.76C145.74,361.67,145.7,361.99,145.65,362.28z"/>
	<path d="M187.59,287.48c-0.6,5.44-0.5,9.77,0.1,13.2C188,296.14,188,292.22,187.59,287.48z"/>
	<path d="M703.65,294.33l-0.1-0.1C703.4,294.34,703.32,294.33,703.65,294.33z"/>
	<path d="M703.42,294.32c-0.54-0.01-1.14-0.08-1.58,0.11C686.5,300.94,699.63,297.18,703.42,294.32z"/>
	<path d="M195.56,294.31c6.12,4.59,15.86,4.72,0.9-0.08C196.21,294.15,195.89,294.26,195.56,294.31z"/>
	<path d="M711.71,300.27c0-4.13,0-8.06,0-11.99C710.9,293.22,711,297.45,711.71,300.27z"/>
	<path d="M200.59,275.7c3.83,0.5,7.25-0.91,10.88-1.71C207.74,273.78,204.21,275.19,200.59,275.7z"/>
	<path d="M687.63,274.18c3.63,0.4,7.05,2.32,10.88,1.41C694.78,275.59,691.46,273.48,687.63,274.18z"/>
	<path d="M711.3,348.63c-0.2-2.72-1.61-5.14-2.52-7.76c-0.1-0.4-0.3-1.01-1.21-0.6C711.03,349.58,710.7,348.32,711.3,348.63z"/>
	<path d="M188.8,347.62c3.09-7.89,2.74-7.02,2.12-7.86C189.03,343.82,186.32,350.93,188.8,347.62z"/>
	<path d="M743.04,261.59c-0.4-2.42-2.42-3.83-3.63-5.74C738.14,254.59,738.44,259.2,743.04,261.59z"/>
	<path d="M167.66,289.88c-0.57-0.17-0.46,0.07-0.36-0.03C167.19,289.95,167.2,289.91,167.66,289.88z"/>
	<path d="M159.49,287.28c2.59,0.8,5.18,1.69,7.77,2.49C167.42,288.55,155.61,285.34,159.49,287.28z"/>
	<path d="M731.75,289.7l0.1,0.1C731.85,289.65,731.88,289.66,731.75,289.7z"/>
	<path d="M731.85,289.67c8.73-2.91,7.43-2.15,8.06-3.09C738.19,286.92,731.85,288.76,731.85,289.67z"/>
	<path d="M243,290.91c-0.11-0.2-0.4-0.2-0.6-0.3c-0.68,1.13,2.47,4.79,4.53,5.14C246.12,293.73,243.96,292.74,243,290.91z"/>
	<path d="M652.38,295.04c-0.74,0.74,0.1,1.73,3.53-2.32c0.4-0.6,1.31-1.11,0.71-2.42C651.5,296.14,653.49,293.77,652.38,295.04z"/>
	<path d="M745.05,211.93c-2.52,0.2-4.23,0.1-5.64,1.71C741.73,214.25,742.13,214.15,745.05,211.93z"/>
	<path d="M154.25,212.44c2.92,1.61,2.92,1.61,5.24,1.31C158.18,212.13,157.37,211.93,154.25,212.44z"/>
	<path d="M272.81,337.45c3.38,0,2.82-0.07,2.82-0.91C267.91,335.97,263.02,337.45,272.81,337.45z"/>
	<path d="M622.96,337.34c3.91,0,3.09,0.28,8.86-0.1C627.29,336.14,625.28,336.14,622.96,337.34z"/>
	<path d="M212.17,284.46c1.81-0.6,2.92-2.12,4.53-3.53C213.98,281.44,213.18,282.04,212.17,284.46z"/>
	<path d="M682.49,280.93c1.51,1.51,2.62,2.92,4.53,3.42C685.92,282.04,685.11,281.44,682.49,280.93z"/>
	<path d="M744.65,285.16l0.1,0.1C744.85,285.11,744.75,285.16,744.65,285.16z"/>
	<path d="M154.55,285.16c-0.05,0-0.1-0.01-0.15-0.01C154.47,285.29,154.41,285.3,154.55,285.16z"/>
	<path d="M154.15,284.66c-6.05-1.91-6-2.07-5.44-1.51C154.29,286.26,154.84,284.66,154.15,284.66z"/>
	<path d="M149.11,216.46c0.91,1.21,2.22,1.41,4.13,2.01C151.63,216.26,151.53,216.26,149.11,216.46z"/>
	<path d="M749.89,216.36c-1.71-0.3-2.82,0.3-4.03,1.51C747.97,218.18,748.17,218.08,749.89,216.36z"/>
	<path d="M138.84,208.41c1.51,0.3,2.72-0.5,3.93-1.01C140.25,207.2,140.25,207.2,138.84,208.41z"/>
	<path d="M756.13,207.5c1.41,0.4,2.62,1.11,4.13,0.91C758.55,206.89,757.74,206.69,756.13,207.5z"/>
	<path d="M217.31,253.33c1.51,1.71,2.82,2.12,4.63,2.12C220.63,254.14,219.22,253.94,217.31,253.33z"/>
	<path d="M681.19,253.43c-1.51,0.6-2.72,1.11-4.43,1.81C679.67,255.25,679.67,255.25,681.19,253.43z"/>
	<path d="M216.81,251.62c1.61-2.42,1.35-1.6,0.71-3.53C216.3,249.2,216.4,250.21,216.81,251.62z"/>
	<path d="M779.9,144.84c0.4-1.21,0.6-2.22-0.6-3.02C779.2,143.43,779.2,143.43,779.9,144.84z"/>
	<path d="M120.2,142.02c-1.61,0.71-1.71,1.61-0.71,3.02C119.8,143.84,120,142.93,120.2,142.02z"/>
	<path d="M616.51,371.49c0.04,0.02,0.06,0.05,0.1,0.07C616.62,371.34,616.64,371.37,616.51,371.49z"/>
	<path d="M618.03,373.71c-0.1-0.97-0.57-1.65-1.41-2.15C616.59,372.57,617.17,373.24,618.03,373.71z"/>
	<path d="M184.67,338.15c-0.04,0.04-0.08,0.07-0.11,0.11C184.84,338.26,184.79,338.27,184.67,338.15z"/>
	<path d="M181.75,338.96c1.06,0,2.02,0.08,2.81-0.7C183.59,338.28,182.5,337.93,181.75,338.96z"/>
	<path d="M718.5,343.4c-0.26-0.88-1.1-1.12-1.82-1.45C716.87,342.89,717.82,343.01,718.5,343.4z"/>
	<path d="M716.33,341.79c0.05,0.02,0.08,0.04,0.35,0.15C716.65,341.76,716.67,341.75,716.33,341.79z"/>
	<path d="M718.56,343.59l0.1-0.1C718.44,343.36,718.49,343.36,718.56,343.59z"/>
	<path d="M180.57,343.51c0.71-0.43,1.69-0.59,1.78-1.73C181.69,342.25,180.76,342.47,180.57,343.51z"/>
	<path d="M180.44,343.59l0.1,0.1C180.57,343.5,180.62,343.46,180.44,343.59z"/>
	<path d="M281.17,373.81c0.66-0.57,1.33-1.24,1.31-2.25C281.65,372.06,281.17,372.75,281.17,373.81z"/>
	<path d="M152.24,360.71l0.1,0.1C152.55,360.65,152.4,360.74,152.24,360.71z"/>
	<path d="M154.44,359.51c-0.83,0.02-1.38,0.66-1.98,1.21C153.27,360.68,153.84,360.05,154.44,359.51z"/>
	<path d="M154.65,359.51c0.11-0.16,0.19-0.28,0.27-0.4c-0.11,0.1-0.23,0.2-0.37,0.3C154.34,359.57,154.48,359.48,154.65,359.51z"/>
	<path d="M154.93,359.11C155.44,358.64,155.54,358.24,154.93,359.11L154.93,359.11z"/>
	<path d="M744.55,359.51c0.1,0-1.89-1.84-0.19,0h-0.01C744.47,359.51,744.35,359.71,744.55,359.51z"/>
	<path d="M746.86,360.71c-0.65-0.46-1.31-1.18-2.28-1.21C745.31,360.02,745.83,360.81,746.86,360.71z"/>
	<path d="M213.48,340.57c0.65,0.65,1.32,1.22,2.31,1.21C215.12,341.18,214.53,340.47,213.48,340.57z"/>
	<path d="M714.23,338.15c0.86,0.86,1.9,0.82,2.95,0.63C716.37,337.79,715.2,338.25,714.23,338.15z"/>
	<path d="M717.35,338.75c-0.25,0.04-0.14,0.04-0.1,0.1L717.35,338.75z"/>
	<path d="M249.34,296.75c-1.31-0.5-1.81-0.81-2.42-1.01C247.13,296.55,247.73,296.75,249.34,296.75z"/>
	<path d="M652.07,295.74c-0.5,0.3-1.01,0.5-2.32,1.11C651.27,296.75,651.87,296.65,652.07,295.74z"/>
	<path d="M685.42,340.47c-0.03,0.05-0.07,0.08-0.1,0.13C685.58,340.56,685.54,340.59,685.42,340.47z"/>
	<path d="M683.32,341.85c0.92-0.07,1.55-0.56,2.01-1.25C684.41,340.67,683.84,341.16,683.32,341.85z"/>
	<path d="M670.91,80.88c-0.81,2.44,1.14,0.1,0.6,0.1C671.31,80.88,671.01,80.78,670.91,80.88z"/>
	<path d="M740.01,286.68c0.78,0,1.65,0.18,2.17-0.73C741.32,285.85,740.49,285.73,740.01,286.68z"/>
	<path d="M159.02,286.6c-0.51-0.81-1.38-0.73-2.26-0.62C157.34,286.83,158.18,286.7,159.02,286.6z"/>
	<path d="M159.09,286.68l0.1-0.1C158.98,286.62,159,286.55,159.09,286.68z"/>
	<path d="M742.35,285.88c-0.04-0.01-0.08-0.01-0.13-0.01C742.41,286.05,742.38,286.01,742.35,285.88z"/>
	<path d="M744.4,285.14c-2.17-0.26-2.1,0.46-2.04,0.74C743.1,285.98,743.91,286,744.4,285.14z"/>
	<path d="M744.55,285.16l-0.1-0.1C744.37,285.18,744.37,285.13,744.55,285.16z"/>
	<path d="M228.79,81.38c-1.27-0.84-0.75-0.63-1.41-0.3C228.15,82.24,228.08,81.92,228.79,81.38z"/>
	<path d="M156.77,285.97l0.1-0.1C156.64,285.92,156.73,285.85,156.77,285.97z"/>
	<path d="M156.72,285.89c-0.51-0.91-1.39-0.82-2.27-0.62C155.03,286.02,155.86,285.98,156.72,285.89z"/>
	<path d="M711.41,350.54c0.5-0.91,0.3-1.41-0.2-1.81C711.3,349.23,711.3,349.73,711.41,350.54z"/>
	<path d="M174.2,291.91c-0.05-0.01-0.11-0.02-0.16-0.03C174.1,292.06,174.09,292.02,174.2,291.91z"/>
	<path d="M172.15,291.22c0.4,0.71,1.16,0.54,1.88,0.66C173.63,291.03,172.87,291.26,172.15,291.22z"/>
	<path d="M172.08,291.11l-0.1,0.1C172.24,291.26,172.13,291.21,172.08,291.11z"/>
	<path d="M726.95,291.22c-0.25,0.04-1.54-0.18-1.89,0.76C725.78,291.86,726.54,292.01,726.95,291.22z"/>
	<path d="M726.98,291.17c-0.01,0.02-0.02,0.03-0.03,0.05C726.99,291.21,727.01,291.2,726.98,291.17z"/>
	<path d="M724.9,292.01c-0.1,0.1-0.15,0.1,0.1,0.1C725.03,291.97,725.14,291.97,724.9,292.01z"/>
	<path d="M727.1,291.11c0.8,0.02,1.57,0.11,2.05-0.59C728.43,290.56,727.65,290.4,727.1,291.11z"/>
	<path d="M174.09,292.01c0.65,0.65,1.49,0.61,2.25,0.6C175.82,291.75,174.86,292.11,174.09,292.01z"/>
	<path d="M176.41,292.72l0.1-0.1C176.25,292.62,176.35,292.6,176.41,292.72z"/>
	<path d="M722.76,292.7c0.72-0.07,1.49-0.04,2.04-0.59C724.08,292.06,723.24,291.83,722.76,292.7z"/>
	<path d="M722.79,292.82c-0.1-0.05-0.1-0.02-0.03-0.12C722.51,292.74,722.33,292.91,722.79,292.82z"/>
	<path d="M176.6,292.81c0.55,0.63,1.33,0.54,2.05,0.59C178.17,292.63,177.33,292.78,176.6,292.81z"/>
	<path d="M178.77,293.48c0.07-0.07-0.18-0.12-0.08-0.02l-0.06,0.06C178.86,293.52,178.8,293.54,178.77,293.48z"/>
	<path d="M176.51,292.72l-0.1,0.1C176.66,292.82,176.61,292.82,176.51,292.72z"/>
	<path d="M720.54,293.51c0.72-0.07,1.47-0.05,1.95-0.67C721.73,292.85,721,292.67,720.54,293.51z"/>
	<path d="M720.47,293.63c0.05-0.12,0.16-0.14-0.1-0.1L720.47,293.63z"/>
	<path d="M178.81,293.53c0.55,0.72,1.34,0.54,2.07,0.59C180.39,293.33,179.54,293.5,178.81,293.53z"/>
	<path d="M180.94,294.23l0.1-0.1C180.79,294.09,180.89,294.13,180.94,294.23z"/>
	<path d="M718.09,294.28c0.04-0.04,0.02-0.05-0.04-0.05c0,0-0.54,0.43-0.2,0.21C717.73,294.44,718.22,294.41,718.09,294.28z"/>
	<path d="M720.19,293.62c-0.81-0.03-1.6-0.2-2.08,0.61C718.85,294.25,719.64,294.35,720.19,293.62z"/>
	<path d="M720.37,293.63l-0.1-0.1C720.23,293.6,720.1,293.63,720.37,293.63z"/>
	<path d="M171.88,291.31l0.1-0.1C171.72,291.16,171.83,291.18,171.88,291.31z"/>
	<path d="M169.84,290.51c0.47,0.71,1.24,0.62,1.96,0.67C171.33,290.4,170.57,290.55,169.84,290.51z"/>
	<path d="M729.48,290.32c-0.38,0.1-0.39,0.05-0.27,0.12C729.13,290.56,729.24,290.61,729.48,290.32z"/>
	<path d="M731.75,289.9l-0.1-0.1C731.34,289.89,731.34,289.82,731.75,289.9z"/>
	<path d="M729.48,290.32c0.68-0.16,1.33-0.31,1.95-0.47C730.76,289.75,730,289.66,729.48,290.32z"/>
	<path d="M167.66,289.88c0.62,0.16,1.26,0.31,1.88,0.47C169.04,289.69,168.36,289.81,167.66,289.88z"/>
	<path d="M169.71,290.45c-0.18,0.18,0.44-0.01-0.17-0.1C169.68,290.52,169.61,290.55,169.71,290.45z"/>
	<path d="M718.36,95.38c-0.1,0.1-0.2,0.1-0.3,0.2C716.85,97.19,720.08,97.11,718.36,95.38z"/>
	<path d="M180.94,96.79c0.5-0.5,0.3-1.01-0.3-1.31C179.83,96.3,180.59,97.15,180.94,96.79z"/>
	<path d="M716.54,91.25c-0.11-0.11-0.1-0.13-0.1,0c-0.02-0.08-0.06-0.17-0.1-0.1l0.1,0.1c0,0.01,0,0.02,0,0.04
		C716.48,91.28,716.5,91.26,716.54,91.25z"/>
	<path d="M716.44,93.47c0-0.94,0-1.53,0-2.18C715.35,91.71,715.46,92.4,716.44,93.47z"/>
	<path d="M182.56,91.25c0.04,0.01,0.06,0.03,0.1,0.04C182.66,91.11,182.68,91.13,182.56,91.25z"/>
	<path d="M182.66,91.29c0,0.64,0,1.24,0,2.18C183.73,92.39,183.75,91.71,182.66,91.29z"/>
	<path d="M187.79,348.63c-0.5,0.5-0.71,1.01-0.1,1.91C187.69,349.73,187.79,349.13,187.79,348.63z"/>
	<path d="M777.99,148.57c-0.34,1.69,0.02,1.41,0.4,1.41C778.39,148.37,778.85,148.57,777.99,148.57z"/>
	<path d="M771.64,199.44c0,0.21-0.42,0.4,0.5,0.4C772.15,199.6,772.02,199.07,771.64,199.44z"/>
	<path d="M127.35,199.94c0-0.73-0.75-0.8-0.3,0.1C127.15,200.05,127.25,199.94,127.35,199.94z"/>
	<path d="M752.4,281.94c-0.9,0.4-1.41,0.7-1.91,0.9c-0.14-0.11-1.01,0.25-5.44,1.82c-0.63,0-0.24,1.65,5.44-1.51
		c0-0.14,0.06-0.26,0.01-0.3C751.1,282.75,751.7,283.15,752.4,281.94z"/>
	<path d="M146.59,282.75c0.81,0,1.41,0,2.01,0C148,282.34,147.5,281.84,146.59,282.75z"/>
	<path d="M214.09,273.38c-0.1,0-0.3,0.1-0.6,0.1C214.63,273.48,214.19,273.38,214.09,273.38z"/>
	<path d="M742.93,261.69c0.41,0.61,0.08,0.48,0.71,1.11C743.64,262.27,744.24,262.56,742.93,261.69z"/>
	<path d="M159.79,255.55c-1.58,2.18-3.86,4.83-3.74,6.05c-1.15,1.11-0.59,0.54-0.59,1.2c3.07-3.07,4.19-3.68,4.94-6.65
		C160.5,256.05,160.09,255.85,159.79,255.55z"/>
	<path d="M118.49,136.08c0.61-0.31,0.39-0.11,0.2-1.81C118.15,136.42,118.49,135.65,118.49,136.08z"/>
	<path d="M780.31,136.08c0.38,0,0.3,0.2,0.3-1.31C780.21,134.77,780.31,134.53,780.31,136.08z"/>
	<path d="M120.71,148.57c-0.5,0.5-0.4,0.91,0.2,1.31C121.31,149.38,121.31,148.97,120.71,148.57z"/>
	<path d="M714.7,341.04c-0.35-0.2-0.67-0.38-1.04-0.59C713.8,341,714.24,341.01,714.7,341.04z"/>
	<path d="M713.62,340.27l-0.1,0.1C713.73,340.49,713.65,340.46,713.62,340.27z"/>
	<path d="M183.93,341.27c-0.42,0.16-0.81,0.35-1.18,0.51C183.24,341.84,183.76,341.9,183.93,341.27z"/>
	<path d="M182.46,341.78l0.1,0.1C182.78,341.8,182.78,341.78,182.46,341.78z"/>
	<path d="M183.95,341.15c-0.04,0.18-0.07,0.13,0.21,0.02c-0.15-0.07-0.12-0.02-0.02-0.09C183.82,341.03,183.84,341.05,183.95,341.15
		z"/>
	<path d="M720.65,344.39c0.04,0.04,0.06,0.05,0.02,0.01C720.77,344.4,720.74,344.4,720.65,344.39z"/>
	<path d="M714.99,341.19c-0.05-0.1-0.06-0.03,0.04-0.12C714.44,340.96,714.89,341.19,714.99,341.19z"/>
	<path d="M716.33,341.79c-0.44-0.19-0.92-0.41-1.35-0.58C715.26,341.83,715.78,341.81,716.33,341.79z"/>
	<path d="M180.34,343.49c-0.05,0.03-0.11,0.06-0.16,0.09C180.54,343.62,180.45,343.6,180.34,343.49z"/>
	<path d="M178.93,344.29c0.36-0.27,0.81-0.46,1.25-0.72C179.64,343.53,179.1,343.43,178.93,344.29z"/>
	<path d="M185.38,340.37c-0.03,0.22-0.14,0.2,0.1,0.1L185.38,340.37z"/>
	<path d="M185.33,340.54c-0.39,0.17-0.79,0.37-1.18,0.54C184.63,341.13,185.11,341.19,185.33,340.54z"/>
	<path d="M718.56,343.59c0.63,0.18,1.11,0.36,1.64,0.54C719.85,343.43,719.12,343.59,718.56,343.59z"/>
	<path d="M720.27,344.29l0.02-0.02c-0.03,0.04,0.04,0.04,0.36,0.11c-0.06-0.05-0.17-0.13-0.28-0.19
		C720.12,344.11,720.2,344.09,720.27,344.29z"/>
	<path d="M178.66,344.36c-0.16,0.04-0.28,0.04-0.13,0.04C178.37,344.48,178.47,344.43,178.66,344.36z"/>
	<path d="M712.02,339.65l-0.01,0.01c0.06,0.03,0.11,0.05,0.17,0.08C712.12,339.55,711.73,339.56,712.02,339.65z"/>
	<path d="M713.62,340.27c-0.53-0.09-1-0.27-1.44-0.52C712.44,340.35,713.07,340.27,713.62,340.27z"/>
	<path d="M615.82,370.79c0-0.09-0.02-0.12-0.09-0.17C615.7,370.81,615.69,370.79,615.82,370.79z"/>
	<path d="M615.71,370.18c0-0.15-1.1-0.31,0.02,0.43C615.75,370.48,615.78,370.32,615.71,370.18z"/>
	<path d="M283.79,369.98c-0.58,0-0.4,0.5-0.4,0.81C283.66,370.25,283.79,370.54,283.79,369.98z"/>
	<path d="M740.72,356.48c0.5,0.2,1.01,0.4,1.51,0.6C742.41,356.91,741.21,356.57,740.72,356.48z"/>
	<path d="M156.3,357.56C155.96,357.81,156.02,357.86,156.3,357.56L156.3,357.56z"/>
	<path d="M158.38,356.48c0.13-0.26,0.16-0.23-0.1-0.1c-1.7,0.68-1.71,0.56-1.54,0.63c-0.18,0.25-0.32,0.42-0.44,0.54
		C156.61,357.33,157.25,356.93,158.38,356.48z"/>
	<path d="M185.19,338.03c0,0.01,0,0.01-0.01,0.02C185.27,338,185.25,338,185.19,338.03z"/>
	<path d="M184.87,338.25c0.11-0.11,0.24-0.18,0.31-0.22C185.23,337.98,185.05,338.07,184.87,338.25z"/>
	<path d="M147.2,215.76c-0.25,0-0.4-0.38-0.4,0C146.91,215.88,147.2,215.92,147.2,215.76z"/>
	<path d="M752.1,215.96c0.19,0,0.43-0.2,0.1-0.2C752.05,215.76,751.74,215.96,752.1,215.96z"/>
	<path d="M126.95,128.22c-0.46,0-0.3,0.4-0.1,0.81C127.39,128.48,126.95,128.96,126.95,128.22z"/>
	<path d="M772.25,128.22c-0.21,0.41-0.56,0.25,0,0.81C772.25,128.46,772.64,128.62,772.25,128.22z"/>
	<path d="M128.06,132.35c-0.46-0.46-0.2,0.3-0.2,0.4C128.21,132.76,128.19,132.49,128.06,132.35z"/>
	<path d="M771.14,132.86c0.1-0.1,0.2-0.2,0.3-0.2C771.44,132.01,770.52,132.86,771.14,132.86z"/>
	<path d="M130.98,135.68c0.28,0-0.86-0.72-0.2,0.6C130.78,136.08,130.88,135.88,130.98,135.68z"/>
	<path d="M768.12,135.68c0,0.2,0.1,0.4,0.2,0.6C768.88,135.72,768.12,135.31,768.12,135.68z"/>
	<path d="M729.84,256.76c0.1-0.2-0.1-0.4-0.1-0.6C728.98,256.53,729.42,257.57,729.84,256.76z"/>
	<path d="M186.88,339.86c-0.43,0.19-0.87,0.43-1.3,0.6C186.03,340.29,186.56,340.35,186.88,339.86z"/>
	<path d="M187.09,339.76l-0.1-0.1C186.89,339.92,186.76,339.9,187.09,339.76z"/>
	<path d="M169.56,257.26l0.1-0.1C169.58,257.12,169.63,257.06,169.56,257.26z"/>
	<path d="M169.26,256.15c0,0.41-0.45,0.5,0.33,0.96C169.73,256.5,169.71,256.61,169.26,256.15z"/>
	<path d="M686.32,339.49c0.42-0.14,0.8-0.29,1.17-0.43C687.04,339.05,686.58,339.09,686.32,339.49z"/>
	<path d="M686.32,339.49c-0.26,0.07-0.21,0.06-0.1,0.17C686.25,339.59,686.28,339.54,686.32,339.49z"/>
	<path d="M211.27,339.06c0.34,0,0.35,0.03,0-0.1c-0.12,0.12-0.03-0.25-0.71-0.71C211.27,339.31,211.13,339.19,211.27,339.06z"/>
	<path d="M211.53,339.06c0.44,0.17,0.93,0.34,1.35,0.5C212.54,339.06,212.07,339.05,211.53,339.06z"/>
	<path d="M220.83,257.56c0.1,0,0.2-0.3,0.3-0.5c-0.2,0.1-0.4,0.1-0.5,0.1C219.97,257.16,220.67,257.72,220.83,257.56z"/>
	<path d="M678.26,257.66c0.59,0,0.68-0.4,0.3-0.4C677.47,256.9,678.16,257.61,678.26,257.66z"/>
	<path d="M714.01,337.97c0.07,0.04,0.17,0.08,0.31,0.08C714.21,338.01,714.09,337.99,714.01,337.97z"/>
	<path d="M713.97,337.95c0.02,0,0.02,0,0.05,0C713.94,337.91,713.93,337.92,713.97,337.95z"/>
	<path d="M714.01,337.97c-0.02-0.01-0.04-0.02-0.04-0.02C713.88,337.95,713.91,337.96,714.01,337.97z"/>
	<path d="M181.24,294.4c0.01,0.01,0.02,0.02,0.03,0.03C181.41,294.43,181.37,294.42,181.24,294.4z"/>
	<path d="M181.28,294.43c0,0-0.01,0-0.01,0c0,0-0.01,0-0.02,0C181.44,294.55,181.38,294.52,181.28,294.43z"/>
	<path d="M181.05,294.23l-0.1,0.1C181.42,294.5,181.16,294.35,181.05,294.23z"/>
	<path d="M221.34,256.86c-0.1,0.1-0.2,0.2-0.1,0.3C221.24,257.06,221.34,256.96,221.34,256.86z"/>
	<path d="M754.02,214.95c-0.26,0.13-0.25,0.07,0,0.2V214.95z"/>
	<path d="M145.18,214.95c-0.26,0.13-0.25,0.07,0,0.2V214.95z"/>
	<path d="M785.24,111.8h0.2C785.32,111.68,785.37,111.68,785.24,111.8z"/>
	<path d="M113.65,111.7c-0.15,0.15-0.15,0.13,0.1,0H113.65z"/>
	<path d="M678.77,346.61c0-0.26,0.11-0.31-0.1-0.1C677.82,347.36,677.67,347.71,678.77,346.61z"/>
	<path d="M221.74,348.12c0.18-0.18-0.38-0.62-0.71-0.71C221.24,347.62,221.54,347.82,221.74,348.12z"/>
	<path d="M677.26,348.12c0.1-0.07,0.84-0.67,0.71-0.81C677.66,347.52,677.46,347.72,677.26,348.12z"/>
	<path d="M223.45,349.43c-0.1-0.07-0.81-0.6-0.71-0.71C221.93,347.91,220.9,347.73,223.45,349.43z"/>
	<path d="M676.45,348.83c0.3-0.3,0.5-0.5,0.71-0.81C677.06,348.09,676.31,348.69,676.45,348.83z"/>
	<path d="M675.64,349.53c0.3-0.2,0.6-0.5,0.71-0.81C676.25,348.79,675.51,349.39,675.64,349.53z"/>
	<path d="M223.35,349.53c0.3,0.2,0.5,0.5,0.91,0.6C223.76,349.81,223.57,349.31,223.35,349.53z"/>
	<path d="M224.26,350.14l-0.1,0.1C225.81,351.89,224.33,350.24,224.26,350.14z"/>
	<path d="M674.8,350.2c0.12,0.12,0.64-0.46,0.75-0.77C673.39,350.87,674.15,351.36,674.8,350.2z"/>
	<path d="M224.96,351.04l0.1,0.1C224.94,350.89,224.96,350.9,224.96,351.04z"/>
	<path d="M673.93,351.04c0-0.1,0.1-0.1,0.1-0.2C673.93,350.94,673.93,351.04,673.93,351.04z"/>
	<path d="M229.4,352.66c0.05-0.01,0.07,0,0.12,0C229.52,352.51,229.5,352.55,229.4,352.66z"/>
	<path d="M229.52,352.66c0.04,0.43,0.32,0.7,0.79,0.6C230.21,352.89,230.02,352.62,229.52,352.66z"/>
	<path d="M669.4,352.56c0.01,0.04,0,0.06,0.01,0.1C669.53,352.66,669.52,352.68,669.4,352.56z"/>
	<path d="M669.41,352.66c-0.71-0.07-0.51,0.71-0.61,0.6c-0.06,0.26-0.18,0.29,0.1,0.1C668.79,353.26,669.48,353.38,669.41,352.66z"
		/>
	<path d="M230.88,353.94c-0.23-0.23-0.42-0.41-0.67-0.57C230.36,353.69,230.55,353.87,230.88,353.94z"/>
	<path d="M668.71,353.48c-0.24,0.16-0.48,0.32-0.73,0.48C668.32,353.97,668.58,353.81,668.71,353.48z"/>
	<path d="M231.11,353.97c-0.02,0-0.04-0.01-0.06-0.01C230.59,353.96,231.33,354.08,231.11,353.97z"/>
	<path d="M694.48,297.86l-0.1,0.3C694.5,297.92,694.48,297.98,694.48,297.86z"/>
	<path d="M204.42,297.96l0.2,0.2C204.5,297.92,204.54,297.96,204.42,297.96z"/>
	<path d="M685.52,340.57c0.64-0.96,0.84-0.67,0.6-0.91C685.92,339.86,685.62,340.16,685.52,340.57z"/>
	<path d="M213.58,340.47c-0.2-0.3-0.4-0.6-0.81-0.81C212.84,339.76,213.44,340.61,213.58,340.47z"/>
	<path d="M687.83,339.06c0.99-1.49,0.66-0.86-0.1-0.1C687.38,339.09,687.41,339.06,687.83,339.06z"/>
	<path d="M216,341.78c-0.07,0.01-0.14,0-0.21,0c0.1,0.08,0.09,0.11,0.13,0.08l-0.02,0.02C216.12,342.15,216,341.99,216,341.78z"/>
	<path d="M216.7,342.58c-0.25-0.16-0.48-0.34-0.67-0.56C216.09,342.37,216.29,342.58,216.7,342.58z"/>
	<path d="M683.1,341.78c0,0.11-0.1,0.47,0.22,0.07C683.16,341.85,683.27,341.93,683.1,341.78z"/>
	<path d="M683.08,342.02c-0.19,0.22-0.41,0.41-0.58,0.66C682.84,342.6,683.02,342.43,683.08,342.02z"/>
	<path d="M217.41,343.39c-0.07-0.1-0.67-0.84-0.81-0.71C216.81,342.99,217.11,343.19,217.41,343.39z"/>
	<path d="M681.79,343.49c0.2-0.3,0.4-0.5,0.6-0.91C682.06,343.08,681.57,343.27,681.79,343.49z"/>
	<path d="M217.31,343.49c0.3,0.3,0.5,0.5,0.81,0.71C218.05,344.09,217.45,343.35,217.31,343.49z"/>
	<path d="M680.98,344.19l0.1,0.1C682.26,342.53,681.06,344.09,680.98,344.19z"/>
	<path d="M688.54,338.25c0.1-0.1,0.1-0.2,0.2-0.3C688.54,337.95,688.44,338.05,688.54,338.25z"/>
	<path d="M210.66,338.15c-0.07,0-0.15-0.05-0.22-0.07C210.48,338.1,210.52,338.15,210.66,338.15z"/>
	<path d="M218.72,345.1l0.1-0.1C218.67,344.75,218.74,344.91,218.72,345.1z"/>
	<path d="M218.72,344.87c-0.01-0.41-0.28-0.57-0.71-0.57C218.36,344.47,218.55,344.64,218.72,344.87z"/>
	<path d="M680.88,344.19c-0.25,0.08-0.49,0.25-0.57,0.65C680.5,344.63,680.71,344.45,680.88,344.19z"/>
	<path d="M680.18,345l0.1,0.1C680.28,344.14,679,346.73,680.18,345z"/>
	<path d="M219.03,345.03c0.16,0.19,0.33,0.37,0.49,0.56C219.53,345.24,219.33,345.07,219.03,345.03z"/>
	<path d="M218.92,344.9l-0.1,0.1C219.12,345,219.05,345.12,218.92,344.9z"/>
	<path d="M679.57,345.91c0-0.1,0.01-0.17,0.02-0.24C679.45,345.84,679.43,345.76,679.57,345.91z"/>
	<path d="M220.33,346.51c-0.16-0.24-0.5-0.51-0.81-0.92C219.53,345.99,219.86,346.19,220.33,346.51z"/>
	<path d="M679.47,345.71c-0.42,0.08-0.62,0.31-0.67,0.67C679.03,346.15,679.22,345.96,679.47,345.71z"/>
	<path d="M221.04,347.42l0.1-0.1C220.93,347.01,221.04,347.3,221.04,347.42z"/>
	<path d="M220.23,346.61c0.33,0.16,0.57,0.34,0.77,0.56C220.91,346.82,220.64,346.61,220.23,346.61z"/>
	<path d="M143.87,363.94l-0.1,0.2C144.03,364.01,144.01,364.07,143.87,363.94z"/>
	<path d="M755.32,364.04c-0.12-0.12-0.07-0.1-0.2-0.1L755.32,364.04z"/>
	<path d="M750.39,365.45c0.24,0.08,0.48,0.19,0.1,0C750.36,365.32,750.39,365.32,750.39,365.45z"/>
	<path d="M148.51,365.35c-0.13,0.26-0.16,0.23,0.1,0.1C148.61,365.2,148.64,365.21,148.51,365.35z"/>
	<path d="M694.68,269.35c-0.11-0.33-0.1-0.37-0.1-0.2L694.68,269.35z"/>
	<path d="M283.26,370.79c-0.86-0.05-0.63,0.75-0.77,0.6c0,0.26-0.02,0.16,0.1,0.1C282.33,371.36,283.03,371.75,283.26,370.79
		c0.02,0,0.05-0.02,0.13,0l-0.1-0.1C283.27,370.77,283.26,370.79,283.26,370.79z"/>
	<path d="M616.62,371.39c-0.18-0.27-0.38-0.61-0.8-0.6C615.85,371.22,616.05,371.48,616.62,371.39z"/>
	<path d="M281.07,373.71c-0.3,0.2-0.6,0.4-0.81,0.71C281.33,373.71,281.21,373.84,281.07,373.71z"/>
	<path d="M280.17,374.72c0-0.1,0.1-0.2,0-0.3C280.17,374.51,280.17,374.62,280.17,374.72z"/>
	<path d="M617.92,373.81c0.3,0.2,0.5,0.4,0.81,0.71C619.3,374.86,618.53,373.96,617.92,373.81z"/>
	<path d="M729.03,257.66c0.08-0.17,0.22-0.27,0.33-0.41C729.1,257.21,728.87,257.17,729.03,257.66z"/>
	<path d="M729.43,257.25c0.16,0.16,0-0.23,0-0.07C729.43,257.01,729.27,257.25,729.43,257.25z"/>
	<path d="M170.17,257.36c-0.9-0.43-0.24,0.17-0.1,0.3C170.07,257.56,170.17,257.46,170.17,257.36z"/>
	<path d="M677.66,256.96c0.1,0.1,0.1,0.1,0.3,0.1C677.86,257.06,677.76,256.96,677.66,256.96z"/>
	<path d="M740.62,356.28c0.13,0.25,0.07,0.23,0.2,0.1L740.62,356.28z"/>
	<path d="M703.65,294.23v0.1C703.77,294.08,703.79,294.09,703.65,294.23z"/>
	<path d="M195.35,294.03c0,0.35-0.06,0.32,0.21,0.28C195.43,294.21,195.49,294.3,195.35,294.03z"/>
	<path d="M742.23,357.09c0.3,0.2,0.5,0.5,0.81,0.71C742.97,357.69,742.37,356.95,742.23,357.09z"/>
	<path d="M156.06,357.89l-0.1-0.1C155.41,358.35,154.96,359.56,156.06,357.89z"/>
	<path d="M743.74,358.6c-0.2-0.3-0.5-0.6-0.81-0.71C743,357.99,743.6,358.74,743.74,358.6z"/>
	<path d="M687.43,284.66c-0.1-0.1-0.3-0.1-0.5-0.2C687.03,284.56,686.93,285.16,687.43,284.66z"/>
	<path d="M211.77,284.86c0.1-0.1,0.2-0.3,0.3-0.5C211.77,284.36,211.37,284.36,211.77,284.86z"/>
	<path d="M150.72,362.23c-2.2,2.2,1.26-0.92,1.41-1.51C151.75,361.28,151.13,361.62,150.72,362.23z"/>
	<path d="M748.37,362.23c-0.27-0.4-0.95-1.08-1.61-1.41C747.29,361.17,747.89,362.06,748.37,362.23z"/>
	<path d="M144.78,363.13c-1.8,1.2-0.29,1.19,0.71-0.81C145.39,362.39,144.64,362.99,144.78,363.13z"/>
	<path d="M753.52,362.43c-0.07-1.47-16.31-20.62-36.27-23.47c0.66,1.53,8.6,1.16,26.19,14.4c0.41,0.31,2.04,1.99,2.62,1.41
		c4.58,5.5,6.89,7.67,7.36,7.75l-0.01,0.01C755.16,363.69,753.64,362.52,753.52,362.43z"/>
	<path d="M149.82,363.23c0.12-0.24,0.13-0.18,0-0.3V363.23z"/>
	<path d="M749.18,363.23v-0.3c-1.77-1.18-0.21,0.03-0.1,0.1l0.03-0.03C749.07,363.05,749.1,363.06,749.18,363.23z"/>
	<path d="M754.22,363.23c0.52,0.35,0.8,0.55,0.92,0.64c-0.14-0.11-0.44-0.36-0.82-0.74L754.22,363.23z"/>
	<path d="M755.14,363.87C755.23,363.95,755.24,363.95,755.14,363.87L755.14,363.87z"/>
	<path d="M260.22,138.6c0.91-1.61,1.51-3.42,3.22-4.53c-3.12-1.56-2.09,1.09-4.84,3.53c-10.96,10.96-3.15,12.89-11.28,8.66
		c-0.4-0.21-1.01-0.2-2.22-0.3c8.83,5.74,1.76,1.42,8.66,5.14C252.71,148.96,252.66,150.43,260.22,138.6z"/>
	<path d="M247.63,182.42c6.11,9.32,4.54,19.46,7.15,23.37C256.82,201.03,253.26,183.54,247.63,182.42z"/>
	<path d="M256.19,106.06c5.92,4.99,7.87,5.16,8.76,8.97c0.98,4.17,1.55,3.94,2.22,4.43C272.89,111.83,237.93,90.68,256.19,106.06z"
		/>
	<path d="M279.46,120.06c17.04,2.16,12.89,3.31,16.62,1.81c-1.96-3.27-14.96-4.27-18.64-3.12
		C277.95,120.06,278.75,119.97,279.46,120.06z"/>
	<path d="M190.61,202.16c-11.17,9.77-8.45,19.92-6.14,13.4C188.37,204.55,194.1,201,190.61,202.16z"/>
	<path d="M240.07,235.7c-7.85,12.96-6.85,11.17-6.55,12.39c3.99-1.74,7.8-9.2,7.35-12.69C240.48,235.5,240.18,235.6,240.07,235.7z"
		/>
	<path d="M263.55,94.17c0.87-9.92,0.87-11.18-0.2-11.18C261.58,82.99,259.71,93.08,263.55,94.17z"/>
	<path d="M220.23,171.24c-8.73,3.27-11.13,3.49-12.59,7.15c2.54,0.59,3.49-3.79,16.02-6.85C226.22,171.54,223.8,169.9,220.23,171.24
		z"/>
	<path d="M200.29,154.41c-1.76-0.59-2.09,7.81,1.31,8.26C201.28,159.05,202.02,154.41,200.29,154.41z"/>
	<path d="M297.69,99.51c10.56-13.58,0.78-5.49-2.12,0.3c-0.1,0.2,0.2,0.6,0.4,1.21C296.59,100.42,297.29,100.12,297.69,99.51z"/>
	<path d="M278.96,99.31c2.04-0.81-2.73-2.54-2.62-7.05c0.01-0.2-0.2-0.4-0.4-0.81C272.76,92.25,276.37,100.35,278.96,99.31z"/>
	<path d="M208.34,232.28c-0.11,0.6-0.3,1.51,0.91,2.12C216.53,215.59,209.15,227.91,208.34,232.28z"/>
	<path d="M214.79,160.26c-1.31-1.71-2.92-2.72-4.94-3.63c-0.1,0.6-0.3,1.11-0.2,1.21C210.86,159.65,212.27,160.26,214.79,160.26z"/>
	<path d="M276.24,196.62c-0.55-0.28,0.3-0.69-6.14,1.81C273.52,198.84,274.73,198.33,276.24,196.62z"/>
	<path d="M191.62,201.86c0.2-0.3,0.6-0.4,0.71-0.71c0.71-1.31,1.41-2.72,2.32-4.33C192.26,197,192.29,199.19,191.62,201.86z"/>
	<path d="M241.99,226.74c-0.5,1.71-1.41,2.92-0.3,4.23C242.29,229.76,242.79,228.55,241.99,226.74z"/>
	<path d="M258.91,182.11c0.2-0.2,0.4-0.4,0.6-0.5c-3.39-2.64-2.92-1.89-3.83-2.12C255.31,179.87,255.35,179.85,258.91,182.11z"/>
	<path d="M260.93,129.23c1.11-1.41,1.11-1.41-0.4-3.42C260.52,130.23,260.47,128.32,260.93,129.23z"/>
	<path d="M192.73,171.34c0.2-1.51-0.1-2.82-0.81-4.03C191.32,168.72,191.02,170.13,192.73,171.34z"/>
	<path d="M292.96,105.26c2.12-3.17-2.41-2.14-0.5,0.4C292.76,105.36,292.86,105.36,292.96,105.26z"/>
	<path d="M266.16,198.03c0-0.37,0.09-0.6-1.21-0.6C263.36,197.43,263.62,199.3,266.16,198.03z"/>
	<path d="M201.9,164.08c0.2,1.11,0.6,1.81,1.41,2.22C203.21,165.19,203.21,165.19,201.9,164.08z"/>
	<path d="M247.73,218.98c0.97,0.48,0.19,1.14,1.41-2.12C248.78,216.5,248.59,216.69,247.73,218.98z"/>
	<path d="M264.25,103.74c0.18-1.26,0.6-2.55-0.5-2.42C262.94,102.13,263.14,102.84,264.25,103.74z"/>
	<path d="M195.75,170.93c-0.6,1.01,0,1.51,0.81,1.91C197.26,171.84,196.76,171.34,195.75,170.93z"/>
	<path d="M245.41,223.21c-0.81,0.3-1.71,0.81-1.01,2.01C244.81,224.42,245.11,223.82,245.41,223.21z"/>
	<path d="M265.06,132.76c0.81,0,1.31,0,2.42,0C266.16,131.55,265.66,131.75,265.06,132.76z"/>
	<path d="M264.25,98.3c0-0.5-0.1-0.91-0.1-1.41C262.43,96.89,263.39,99.16,264.25,98.3z"/>
	<path d="M218.92,162.27c0.1,0.1,0.3-0.2,0.6-0.4C217.75,160.53,217.71,161.87,218.92,162.27z"/>
	<path d="M220.63,206.29c0.91,0,1.51-0.3,0.91-1.11C221.24,205.59,220.94,205.89,220.63,206.29z"/>
	<path d="M283.39,99.82c-0.1-0.3-0.2-0.5-0.2-0.71c-0.3,0.1-0.6,0.2-0.81,0.4C282.38,100.35,282.79,100.02,283.39,99.82z"/>
	<path d="M217.11,212.64c-0.1,0.3-0.1,0.6-0.3,1.31C217.89,212.32,218.01,213.09,217.11,212.64z"/>
	<path d="M264.86,209.01c0,0.4-0.26,0.3,1.41,0.3C266.27,208.52,266.44,208.69,264.86,209.01z"/>
	<path d="M199.88,189.77c0-0.6,0.1-1.11,0.1-1.61C199.38,188.56,199.28,189.07,199.88,189.77z"/>
	<path d="M264.35,106.06c0,1.45,0.91,0.6,0.91,0.5c0-0.2-0.2-0.5-0.3-0.81C264.75,105.86,264.35,105.96,264.35,106.06z"/>
	<path d="M289.33,107.57c-0.99-0.49-1.01,0.2-0.91,0.3C289.05,108.5,289.17,107.9,289.33,107.57z"/>
	<path d="M271.4,130.84c-1.4,0.18-1.55,0.23-1.21,0.91C270.5,131.55,270.8,131.35,271.4,130.84z"/>
	<path d="M197.46,193.8c-0.14,0.07-0.87,0.58,0.2,0.2C197.67,193.9,197.46,193.8,197.46,193.8z"/>
	<path d="M253.67,151.19c0.37,0.56,0.94,0.68,1.58,0.61C255.02,151.01,254.35,151.09,253.67,151.19z"/>
	<path d="M255.26,151.8c0.01,0.03,0.02,0.05,0.03,0.09C255.39,151.79,255.45,151.76,255.26,151.8z"/>
	<path d="M251.76,176.98c-0.74,0-0.57,0.23-0.3,0.5C252.21,177.1,251.86,176.98,251.76,176.98z"/>
	<path d="M196.86,194.12C196.86,194.1,196.86,194.1,196.86,194.12L196.86,194.12z"/>
	<path d="M196.86,194.12c0,0.01,0,0.02-0.02,0.06c-0.1,0.03-0.12,0.02,0,0.02c0,0,0,0.02-0.01,0.03c0.01-0.01,0.13-0.04,0.21-0.09
		C196.89,194.17,196.87,194.14,196.86,194.12z"/>
	<path d="M196.76,194.5c0-0.2,0.17-0.37,0-0.2C196.76,194.4,196.76,194.4,196.76,194.5z"/>
	<path d="M199.98,188.26c0.3-0.1,0.71-0.1,0.2-0.6C200.08,187.86,200.08,188.06,199.98,188.26z"/>
	<path d="M207.24,178.59c0.52-0.52,0.24-0.2,0.1-0.2C207.24,178.39,207.24,178.49,207.24,178.59z"/>
	<path d="M223.86,164.18c-0.26,0.13-0.25,0.07,0,0.2V164.18z"/>
	<path d="M205.83,155.02c0.4,0,0.37,0.03,0.1-0.1L205.83,155.02z"/>
	<path d="M351.89,230.16c4.47-4.89,0.47-13.51-1.21-5.24c-0.95,4.67-1.71,4.29-8.56,11.48
		C346.18,236.28,348.11,234.29,351.89,230.16z"/>
	<path d="M321.37,138.3c1.68,1.01,10.24,3.55,9.97,7.55c0,0.6,0.5,1.11,1.41,0.91C332.36,140.97,326.06,134.84,321.37,138.3z"/>
	<path d="M347.46,240.34c-1.44,1.92,2.28,1.49,5.04-4.23c0.5-0.91,1.41-1.91,0.4-3.53C350.98,235.4,349.27,237.92,347.46,240.34z"/>
	<path d="M313.51,126.91c-1.72,2.39,3.02,0.1,5.64-1.21C317.41,124.84,315.39,124.3,313.51,126.91z"/>
	<path d="M289.03,270.56c-1.91-1.31-3.12-1.91-4.73-1.01C285.3,271.36,286.71,270.96,289.03,270.56z"/>
	<path d="M260.73,264.01c-1.79-1.79-3.6-0.12,1.11,1.61C262.24,264.51,261.23,264.41,260.73,264.01z"/>
	<path d="M253.27,261.9c-0.68-2.94-6-2.1-0.4,0.3C253.17,262.1,253.37,262,253.27,261.9z"/>
	<path d="M356.22,196.62c-0.3,0.91-0.4,1.81,0.3,2.62C357.73,197.83,357.73,197.83,356.22,196.62z"/>
	<path d="M344.03,242.25c-1.96,1.17-1.31,0.69-1.51,1.91C343.89,243.89,344.98,242.73,344.03,242.25z"/>
	<path d="M355.11,206.09c0-0.91,0-1.71,0-2.72C353.5,204.58,353.6,204.88,355.11,206.09z"/>
	<path d="M255.08,262c1.01,1.01,1.01,1.01,2.01,0.6C256.6,261.79,255.99,261.29,255.08,262z"/>
	<path d="M293.46,268.85c-1.11-0.5-1.81-0.1-2.42,0.91C292.15,270.26,292.86,269.85,293.46,268.85z"/>
	<path d="M256.8,269.45c-3.37-0.84,0.3,1.83,0.3,0.5C257.1,269.85,257,269.45,256.8,269.45z"/>
	<path d="M251.56,268.75c0.78,0.78,0.91,0.55,2.01,0C251.77,267.72,252.07,267.98,251.56,268.75z"/>
	<path d="M340.1,245.17c-1.91-0.19-1.4-0.62-2.22,0.6C338.92,246.29,338.75,246.19,340.1,245.17z"/>
	<path d="M329.73,249.1c-1.09-0.54-0.4-0.31-1.21,0.1C329.61,249.75,328.91,249.51,329.73,249.1z"/>
	<path d="M334.06,247.89c0.3,0,0.6-0.1,1.41-0.3C332.9,247.02,333.96,247.89,334.06,247.89z"/>
	<path d="M334.76,151.39c-0.38,0.13-0.4,0.07,0,0.2V151.39z"/>
	<path d="M259.52,270.46c0.93,0.47,0.62,0.29,0.91,0C259.99,270.24,260.08,269.89,259.52,270.46z"/>
	<path d="M298.1,268.14c-0.2,0-0.4,0-0.6-0.1C297.88,268.42,297.87,268.14,298.1,268.14z"/>
	<path d="M267.98,418.84c-1.21,1.01-1.32,1.11-1.11,1.91c1.5,5.62,7.21,9.31,10.98,9.87C274.83,425.99,271.5,422.36,267.98,418.84z"
		/>
	<path d="M283.59,409.67c-0.2,0.3-0.4,0.6-0.4,0.81c3.36,10.44,2.3,8.2,3.73,9.27C288.15,416.34,285.9,410.7,283.59,409.67z"/>
	<path d="M271.2,441.4c-3.18-1.59,3.95,6.68,7.35,7.66C276.54,445.93,274.12,443.42,271.2,441.4z"/>
	<path d="M302.83,431.53c-0.2-0.2-0.81,0.1-1.81,0.3c1.31,2.22,2.32,3.83,3.32,5.24C306.14,440.06,307.48,434.49,302.83,431.53z"/>
	<path d="M280.97,435.56c-0.3-0.6-0.4-1.11-0.71-1.41c-0.2-0.2-0.71-0.3-0.91-0.6c-0.1-0.1-1.83-2.21-1.91-2.32
		C276.94,433.65,277.35,434.05,280.97,435.56z"/>
	<path d="M288.23,426.19c0.6-1.01,0.71-2.01,0-3.02C286.92,424.48,286.92,424.88,288.23,426.19z"/>
	<path d="M325.09,523.9c0.6,1.11,1.11,2.22,1.81,3.73C327.31,525.51,326.4,524.51,325.09,523.9z"/>
	<path d="M308.07,442.31c0,1.29-0.73,0.28,1.21,2.22C309.48,442.35,308.33,442.44,308.07,442.31z"/>
	<path d="M271.4,407.96c-0.2,0.71-1.31,0.6-0.6,1.91C271.3,409.27,272.21,409.27,271.4,407.96z"/>
	<path d="M313.91,452.38c0,1.42,1.02,0.42,0.5-0.1C314.32,452.18,314.11,452.38,313.91,452.38z"/>
	<path d="M280.47,452.78c0.91,0.91,0.81,0.71,1.01,0.5C281.04,451.98,280.98,452.78,280.47,452.78z"/>
	<path d="M289.64,464.07c-0.38,0.19-0.16,0.34,0.1,1.11C290.11,464.8,290.76,464.63,289.64,464.07z"/>
	<path d="M321.57,517.35c-0.21,0.43-0.47,0.62,0.3,1.01c0-0.1,0.1-0.4,0.1-0.6C321.97,517.66,321.67,517.46,321.57,517.35z"/>
	<path d="M323.99,521.99c-0.2-0.1-0.4-0.3-0.6-0.5C323.63,521.74,323.42,522.66,323.99,521.99z"/>
	<path d="M310.99,448.25c0,0,0.1-0.1,0.2-0.1c0-0.1,0-0.3,0.1-0.3C310.97,447.85,310.76,448.02,310.99,448.25z"/>
	<path d="M285.91,458.73c-0.22,0.22-0.32,0.08,0,0.4C286.21,458.83,286.04,458.73,285.91,458.73z"/>
	<path d="M321.87,518.36l-0.1,0.1C322.15,518.59,322.14,518.63,321.87,518.36z"/>
	<path d="M323.18,521.18c0,0.2,0.1,0.2,0.3,0.2C323.38,521.28,323.28,521.28,323.18,521.18z"/>
	<path d="M151.43,416.92c-2.22-5.53-1.84-8.38-2.12-10.68c-0.72-6.09-2.47,0.3-2.32,4.33C147.29,418.38,153.9,423.07,151.43,416.92z
		"/>
	<path d="M165.53,408.16c-0.51,8.09-1.42,7.72-0.81,9.37C167.12,417.75,168.54,408.37,165.53,408.16z"/>
	<path d="M140.55,438.48c-1.51,3.22-1.61,6.35-0.1,10.38C141.23,446.58,142.98,438.48,140.55,438.48z"/>
	<path d="M168.45,444.02c0.5-1.01,0.91-2.01,0.3-3.22C167.55,442.91,167.55,442.91,168.45,444.02z"/>
	<path d="M152.64,421.66c-2.25,2.25,1.85,3.4,0.4,0.5C153.04,422.06,152.94,421.96,152.64,421.66z"/>
	<path d="M140.45,454.09c-0.2,0.71-0.5,1.41,0.5,1.91C141.17,455.13,141.36,454.09,140.45,454.09z"/>
	<path d="M168.76,530.45c0.2-1.31,0.6-2.22-0.3-3.12C167.75,528.33,167.75,529.14,168.76,530.45z"/>
	<path d="M142.87,468c0.91,0.6,0.56,0.9,1.01,0C143.58,467.41,143.71,467.15,142.87,468z"/>
	<path d="M166.34,516.45c0-0.1-0.3-0.2-0.5-0.3c0.1,0.2,0,0.4,0,0.6C166.39,517.3,166.39,516.55,166.34,516.45z"/>
	<path d="M166.04,521.89c0,0.61,0.17,0.74,0.5,0.4C166.54,521.82,166.04,521.48,166.04,521.89z"/>
	<path d="M166.34,449.86c-0.37,0-0.04-0.13-0.4,0.6C166.78,450.47,166.34,450.54,166.34,449.86z"/>
	<path d="M141.96,461.95l0.1,0.2C142.19,461.9,142.22,461.95,141.96,461.95z"/>
	<path d="M277.85,40.18c4.36,2.69,3.43,2.72,4.94,2.72c0.95,0.95-1.17,0.88-1.01-0.1c-5.38,1.26-6.75-1.68-8.06,1.31
		c1.86,0.66,11.13,4.53,12.29,2.52c0.59-1.02,2.01-0.2,2.42-1.31c0.79-3.76-4.79-5.71-7.25-5.84c-2.62-1.81-5.24-0.71-7.86,0.2
		c-0.1,0-0.1,0.4-0.2,0.6C274.73,41.29,276.24,39.88,277.85,40.18z"/>
	<path d="M299.1,51.46c6.65,1.72,10.72,3.21,9.87,1.51c-0.67-1.79-2.03-1.57-3.93-2.52c-0.71-0.3-1.21-0.91-1.91-1.21
		c-0.6-0.3-1.31-0.4-2.52-0.81c2.72-0.6,4.84,0.81,6.85-0.1c7.77,6.77,2.57-1.48-0.5-2.01c-3.41-0.6-9.37-4-11.18,1.21
		C299.06,49.36,298.1,48.44,299.1,51.46z"/>
	<path d="M292.99,73.08C293.05,73.05,292.9,72.96,292.99,73.08L292.99,73.08z"/>
	<path d="M285.91,70.6c-0.71-0.29-1.51-0.39-2.22-0.4c-6.11-0.15-6.06-1.89-7.55-1.51c-0.85,0.21-1.47,1.4-0.6,1.81
		c4.75,2.24,8.99,1.1,15.82,4.43c2.06,0.82,2.35-0.02,3.22-0.6c-1.12-0.8-1.48-1.13-1.58-1.25
		C292.88,73.16,291.86,73.04,285.91,70.6z"/>
	<path d="M285.1,74.53c-3.69-0.74-5.78-1.96-7.76,1.01c0.64,2.75,8.09,3.8,11.38,3.32C288.33,75.34,287.92,74.93,285.1,74.53z"/>
	<path d="M283.79,64.06c0,0.2,0.6,0.71,0.81,0.6c1.71-0.5,3.12,0.3,4.43,1.01C292.33,62.07,283.79,60.44,283.79,64.06z"/>
	<path d="M360.25,555.03c-4.21-2.01-4.07-0.43-1.71-3.12c-3.85-2.57-13.33-0.23-14.61,4.13c-0.3,1.01,0.71,2.12,1.71,1.81
		c2.8-0.84,4.98-2.47,6.65-2.12c-1.61,1.11-3.42,2.22-2.92,4.63c2.2,0.63,1.56,1.19,10.78-3.42
		C360.85,556.64,360.86,555.32,360.25,555.03z"/>
	<path d="M354.61,545.86c-7.56-1.47-15.15,3.25-16.12,6.85c-0.39,1.44,0.8,2.57,2.62,1.81c4.54-1.88-2.03-1.05,14.61-5.94
		C357.54,548.22,357.76,546.47,354.61,545.86z"/>
	<path d="M368.91,575.88c-3.32,0.2-6.95,2.52-8.97,5.84c1.29,1.61,4.43-5.49,9.77-3.22C375.58,580.99,373.22,575.62,368.91,575.88z"
		/>
	<path d="M355.01,560.57c-2.17,1.62-1.08,2.81,5.44,0.2C358.03,559.66,356.52,559.76,355.01,560.57z"/>
	<path d="M331.24,563.19c-0.77,0.93,0.22,2.1,0.81,1.81C332.62,564.43,332.38,563.33,331.24,563.19z"/>
	<path d="M148.71,573.06c1.51,0.5,1.81,1.91,2.72,2.92c9.5,0,8.54,0.46,8.16-2.22c1.01-0.5,2.12-1.01,3.42-1.71
		c-2.36-2.36-12.31-3-15.24-2.14C147.3,571.21,147.23,572.57,148.71,573.06z"/>
	<path d="M158.28,589.78c-7.43-3.18-7.91-2.86-11.38-1.41c-1.34,0.56-2.94,2.04-2.62,3.63c1.32,3.29,2.6-1.76,7.25-2.92
		c10.75,5.01,9.18,4.17,9.87,3.83C160.19,590.89,159.89,590.59,158.28,589.78z"/>
	<path d="M178.53,570.64c0-0.71,0-1.21,0-1.81C177.12,569.64,177.12,569.84,178.53,570.64z"/>
	<path d="M177.12,566.01c-0.1,0.1-0.1,0.3-0.2,0.4C177.19,566.41,176.95,566.18,177.12,566.01z"/>
	<path d="M647.24,147.36c-3.62-8.74-8.01-9.88-8.66-12.49c-0.4-1.31-0.5-1.21-3.32-0.91c2.19,1.1,0.57,0.34,10.78,15.31
		c-0.3,0.81-0.4,1.31-0.6,1.91c3.02-1.41,5.84-3.22,7.96-5.34C650.38,145.99,648.11,149.98,647.24,147.36z"/>
	<path d="M651.17,182.22c-6.24,3.12-8.86,21.16-6.65,23.37C646.78,201.06,645.69,191.46,651.17,182.22z"/>
	<path d="M637.87,109.79c11.19-8,10.77-10.47,8.66-9.07c-5.66,4.34-17.14,11.9-15.01,18.74
		C635.56,117.44,631.53,114.32,637.87,109.79z"/>
	<path d="M617.92,118.15c-17.89,1.05-15.73,4.64-12.99,4.23c14.5-2.15-9.55,0.98,14.91-2.42
		C622.62,119.58,622.28,118.15,617.92,118.15z"/>
	<path d="M714.23,214.15c0.3,0.81,0.5,1.61,0.91,2.42c0.39,1.55,2.21,1.14,1.61-1.31c-1.87-7.68-8.35-13.4-9.37-13.4
		C706.78,204.24,709.15,200.66,714.23,214.15z"/>
	<path d="M664.46,247.79c4.08,2.45-5.36-11.62-6.55-13.1C658.73,241.2,661.62,245.52,664.46,247.79z"/>
	<path d="M635.45,82.89c-1.19,0,0.1,10.68,0.5,11.08C637.87,93.97,638.73,82.89,635.45,82.89z"/>
	<path d="M687.33,174.56c-9.4-3.69-10.31-4.17-12.89-3.53c0.75,0.75,7.4,1.45,14.71,6.55C693.07,180.32,691.33,175.89,687.33,174.56
		z"/>
	<path d="M698.81,154.41c-1.73,0-1.21,3.52-1.21,8.66C701.28,160.32,700.61,154.41,698.81,154.41z"/>
	<path d="M603.52,99.82c-1.51-2.92-3.83-5.24-6.55-8.06c0.32,3.07,3.92,7.89,6.25,9.27C603.32,100.52,603.62,100.12,603.52,99.82z"
		/>
	<path d="M623.06,91.56c-1.37,5.47-0.66,3.49-3.63,7.35c0.87,0.52,1.01,0.96,1.71,0.6C625.17,96.72,624.9,91.29,623.06,91.56z"/>
	<path d="M689.55,234.09c1.93,1.93,1.8-5.15-3.12-10.07C686.27,225.09,685.82,223.93,689.55,234.09z"/>
	<path d="M689.24,156.73c-3.53,1.81-3.53,1.81-4.63,3.73C688.04,159.85,689.14,158.95,689.24,156.73z"/>
	<path d="M628.9,198.33c-1.91-0.71-3.93-1.41-5.84-2.12C624.89,198.65,629.16,200.39,628.9,198.33z"/>
	<path d="M706.57,198.23c-0.3-0.81-0.81-1.51-2.72-1.51C706.11,198.98,708.49,205.93,706.57,198.23z"/>
	<path d="M656.91,227.14c-0.3,2.12-0.3,2.12,0.81,3.93C658.12,229.66,657.82,228.45,656.91,227.14z"/>
	<path d="M643.31,179.09c-1.41,0.81-2.52,1.61-3.63,2.32C642.5,180.8,642.5,180.8,643.31,179.09z"/>
	<path d="M638.17,129.43c0.5-1.41,0.5-2.42-0.1-3.63C637.27,128.02,637.27,128.02,638.17,129.43z"/>
	<path d="M707.07,166.6c-0.87,1.5-0.77,2.59-1.01,4.73C707.78,169.62,707.78,169.62,707.07,166.6z"/>
	<path d="M606.54,105.56c2.24-1.49-1.95-3.97-0.6-0.6C605.94,105.15,606.24,105.26,606.54,105.56z"/>
	<path d="M635.25,197.63c-0.81-0.1-1.51-0.1-2.22-0.2C634.24,198.63,634.24,198.63,635.25,197.63z"/>
	<path d="M651.27,219.08c-0.3-0.81-0.6-1.71-1.01-2.92C649.76,217.77,650.36,218.48,651.27,219.08z"/>
	<path d="M696.7,164.18c-0.37,0.55-1.56,1.28-0.91,2.32C697.29,164.41,697.45,164.56,696.7,164.18z"/>
	<path d="M635.35,103.44c0.5-0.71,0.5-1.61,0-2.01C634.68,100.76,633.86,103.44,635.35,103.44z"/>
	<path d="M654.99,224.62c-0.89-1.78-1.06-1.97-1.41-1.61C654.02,224.03,654.53,225.55,654.99,224.62z"/>
	<path d="M703.25,171.03c-1.27,0-0.97,0.97-1.11,1.81C704.17,172.03,703.56,171.03,703.25,171.03z"/>
	<path d="M632.53,132.86c0.4,0,0.81,0,1.31,0C633.34,130.6,631.39,132.86,632.53,132.86z"/>
	<path d="M679.98,162.27c0.95-0.64,1.11-0.49,1.11-0.91c-0.63-0.31-0.48-0.43-1.51,0.6C679.67,162.17,679.78,162.27,679.98,162.27z"
		/>
	<path d="M635.45,98.41c0.77-1.15-0.03-1.42-0.4-1.91C634.21,98.6,635.24,98.62,635.45,98.41z"/>
	<path d="M678.36,206.29c-0.2-0.3-0.5-0.71-0.81-1.21C676.95,205.89,677.46,206.29,678.36,206.29z"/>
	<path d="M616.72,99.82c-0.1-0.3-0.3-0.6-0.5-0.91c-0.2,0.2-0.5,0.4-0.5,0.5C616.13,100.69,616.72,99.92,616.72,99.82z"/>
	<path d="M681.49,212.84c0.1,0.3,0.3,0.5,0.81,1.11C681.93,212.68,682.35,212.41,681.49,212.84z"/>
	<path d="M632.83,208.91c0,0.46-0.3,0.66,1.51,0.3c-0.1-0.1-0.1-0.3,0-0.4C633.84,208.81,633.34,208.91,632.83,208.91z"/>
	<path d="M699.02,188.26c0.2,0.4,0.2,0.91,0.2,1.51C699.72,189.07,699.62,188.66,699.02,188.26z"/>
	<path d="M634.34,106.87c0.38-1.13,0.79-0.55-0.2-1.21C633.63,106.43,633.83,106.61,634.34,106.87z"/>
	<path d="M610.37,108.18c0.37-0.73,0.46-0.53-0.3-0.91C609.62,108.17,610,107.99,610.37,108.18z"/>
	<path d="M628.4,130.84c-0.37,0-0.2,0.39-0.2,0.5C629.08,132.22,629.43,130.84,628.4,130.84z"/>
	<path d="M701.53,193.7c0,0-0.1,0.1-0.2,0.2C702.19,194.19,701.93,193.91,701.53,193.7z"/>
	<path d="M702.24,194.1c-0.09-0.03-0.18-0.04-0.28-0.06C702.06,194.11,701.95,194.1,702.24,194.1z"/>
	<path d="M645.32,151.09c-0.04,0.11-0.1,0.02,0.1,0.1L645.32,151.09z"/>
	<path d="M645.28,151.15c-0.65-0.16-1.28-0.1-1.47,0.75C644.4,151.89,644.97,151.78,645.28,151.15z"/>
	<path d="M647.54,177.48c0.1,0,0.73-0.5-0.2-0.5C646.8,176.98,647.29,177.48,647.54,177.48z"/>
	<path d="M702.34,194.61c-0.05-0.1-0.08-0.17-0.1-0.24C702.24,194.5,702.34,194.53,702.34,194.61z"/>
	<path d="M702.24,194.1l-0.1,0.1C702.27,194.34,702.24,194.52,702.24,194.1z"/>
	<path d="M698.61,187.86c0.1,0.1,0.3,0.2,0.5,0.3C699.02,187.96,699.22,187.45,698.61,187.86z"/>
	<path d="M691.53,178.44c0.04,0.07,0.06,0.18,0.13,0.25C691.94,178.69,691.95,178.74,691.53,178.44z"/>
	<path d="M675.24,164.39l0.1-0.2C675.09,164.31,675.11,164.25,675.24,164.39z"/>
	<path d="M693.07,154.92l-0.2,0.1C693.25,155.02,693.2,155.04,693.07,154.92z"/>
	<path d="M552.45,231.68c-4.49-3.05-3.82-7.56-4.63-9.47c-0.14-0.58-1.81-1.62-2.42,0.2c-1.4,5.6,1.48,7.67,6.95,12.59
		c1.01,0.91,2.32,1.41,4.53,1.31C555.07,234.29,553.95,232.7,552.45,231.68z"/>
	<path d="M567.66,146.25c-0.41-4.07,7.86-6.7,9.87-7.96c-4.41-3.82-12.05,4.28-10.88,8.97
		C567.05,146.86,567.66,146.56,567.66,146.25z"/>
	<path d="M552.05,241.35c-1.61-3.12-3.93-5.54-5.84-8.36C545.7,235.85,548.04,240.92,552.05,241.35z"/>
	<path d="M585.49,127.11c-1.47-2.12-5.22-2.82-5.04-1.01c1.61,0.71,3.12,1.41,5.24,2.32C585.59,127.62,585.69,127.21,585.49,127.11z
		"/>
	<path d="M610.67,270.46c3.02,0.71,3.02,0.71,4.03-1.21C613.09,269.05,611.78,269.05,610.67,270.46z"/>
	<path d="M637.27,266.03c1.21-0.81,2.22-1.51,3.22-2.12C637.97,263.81,637.57,264.11,637.27,266.03z"/>
	<path d="M645.53,262.5c1.41-0.71,2.82-0.4,3.32-1.91C647.14,259.88,647.04,259.88,645.53,262.5z"/>
	<path d="M542.17,196.72c-0.5,0.81-0.81,1.71,0.6,2.82C542.92,198.23,543.62,196.31,542.17,196.72z"/>
	<path d="M544.09,203.47c-0.3,1.31-0.3,1.31,0.2,2.52C545.3,204.38,545.3,204.38,544.09,203.47z"/>
	<path d="M555.67,242.45c-0.13-0.25-1.42,0.09-0.81,0.71C557.1,245.39,556.88,243.36,555.67,242.45z"/>
	<path d="M641.6,263.1c1.31-0.1,2.12,0,2.32-1.11C642.91,261.29,642.4,262,641.6,263.1z"/>
	<path d="M605.43,268.95c1.51,1.01,1.51,1.01,2.42,0.5C607.25,268.75,606.64,268.34,605.43,268.95z"/>
	<path d="M643.31,269.35c-0.71-0.2-1.31,0.1-1.41,0.6C641.9,271.4,644.54,269.35,643.31,269.35z"/>
	<path d="M647.04,268.04c-1.11,0.28-1.75,1.21-0.6,1.21C648.05,269.25,647.34,268.04,647.04,268.04z"/>
	<path d="M559,245.07c1.68,1.26,0.9,1.14,2.22,0.71C560.84,244.66,560.64,244.91,559,245.07z"/>
	<path d="M569.27,249.2c1.09,0.54,0.4,0.31,1.21-0.1C569.93,248.56,569.78,248.69,569.27,249.2z"/>
	<path d="M564.74,247.33c-1.14,0-1.13,0.42,0,0.42C565.88,247.75,565.87,247.33,564.74,247.33z"/>
	<path d="M600.9,268.04c0.18,0.18,0.42,0.28,0.6,0.1C601.12,267.76,601.13,268.04,600.9,268.04z"/>
	<path d="M564.44,151.39c-0.53,0.13-0.51,0.07,0,0.2V151.39z"/>
	<path d="M639.18,270.76c0.1,0,0.2-0.3,0.3-0.4C638.56,269.9,638.62,270.76,639.18,270.76z"/>
	<path d="M621.15,430.62c3.83-0.57,9.38-4.28,10.98-9.87C633.45,414.78,624.59,425.23,621.15,430.62z"/>
	<path d="M612.89,419.34c1.71-2.52,1.91-5.64,3.02-8.46c0.2-0.2-0.1-0.6-0.2-1.11C612.18,410.87,610.41,420.58,612.89,419.34z"/>
	<path d="M621.75,447.24c-2.82,2.9,0.61,3.06,6.85-6.14C626.45,442.17,623.45,445.5,621.75,447.24z"/>
	<path d="M593.35,438.18c1.42-1.19,0.82,0.28,4.03-5.34C598.55,429.33,591.73,433.34,593.35,438.18z"/>
	<path d="M621.95,431.03c-4.1,4.1-3.75,3.48-3.22,4.53C620.34,434.65,622.26,433.95,621.95,431.03z"/>
	<path d="M610.57,423.07c0,1.11,0,2.01,0,3.42C612.01,425.44,612.47,423.83,610.57,423.07z"/>
	<path d="M572.09,527.63c0.81-1.61,1.31-2.62,1.81-3.73C572.59,524.51,571.79,525.51,572.09,527.63z"/>
	<path d="M590.32,442.41c-0.3,0.4-0.5,0.81-1.01,1.61C592.02,444.02,591.04,441.69,590.32,442.41z"/>
	<path d="M628.5,409.57c-0.22-0.86,0.04-0.71-1.01-1.41C627.49,409.07,627.6,409.77,628.5,409.57z"/>
	<path d="M584.48,452.48c0.6,1.19,1.06,0.26,0.5-0.3C584.78,452.28,584.48,452.38,584.48,452.48z"/>
	<path d="M617.62,453.19c0,0.56,0.43,0.08,1.01-0.3C618.09,452.35,618.15,452.14,617.62,453.19z"/>
	<path d="M608.86,464.47c-0.1,0.1,0,0.4,0.1,0.6C610.34,464.15,609.23,463.72,608.86,464.47z"/>
	<path d="M577.13,517.76c0,1.12,0.78,0.35,0.4-0.4C577.43,517.46,577.13,517.56,577.13,517.76z"/>
	<path d="M575.31,522.29c0.11-0.11,0.3-0.37,0.3-0.81C575.01,521.48,574.91,521.79,575.31,522.29z"/>
	<path d="M588.01,448.25c0.34-0.34,0.15-0.4,0.3-0.4C587.99,447.85,587.78,448.02,588.01,448.25z"/>
	<path d="M613.19,459.13c0-0.1,0.1-0.1,0.2-0.2C613.13,458.67,612.85,458.79,613.19,459.13z"/>
	<path d="M577.13,518.36l-0.2,0.2C577.31,518.44,577.26,518.49,577.13,518.36z"/>
	<path d="M575.72,521.48c0-0.1,0-0.2,0-0.3C575.72,521.28,575.62,521.38,575.72,521.48z"/>
	<path d="M746.96,418.74c0,5.14,9.46-8.97,3.32-15.11C749.39,405.86,749.92,410.75,746.96,418.74z"/>
	<path d="M758.55,448.55c1.31-3.32,1.41-5.84,0.5-9.07C758.05,436.99,756.23,440.17,758.55,448.55z"/>
	<path d="M734.17,417.43c0.32-0.32,0.27,0.69-0.71-9.37C730.34,408.51,732.01,417.64,734.17,417.43z"/>
	<path d="M731.35,443.92c0.4-1.11-0.1-2.01-1.31-3.63C730.32,444.75,730.18,443.63,731.35,443.92z"/>
	<path d="M746.26,424.78c0.5-1.21,0.81-1.61,0.81-2.12C747.32,421.66,745.21,420.79,746.26,424.78z"/>
	<path d="M758.55,455.91c0.51-1.52,0.31-0.89,0-2.12C757.94,455.2,757.94,455.2,758.55,455.91z"/>
	<path d="M730.54,530.15c0.71-1.01,0.91-1.81,0-2.82C729.94,528.44,729.84,529.24,730.54,530.15z"/>
	<path d="M755.22,467.19c0.1,0.5,0.2,0.91,0.2,1.31C756.55,467.94,756.14,467.42,755.22,467.19z"/>
	<path d="M732.46,516.85c0,0.52,0.6,0.13,0.6,0c0.1-0.2,0-0.5,0-0.71C732.96,516.45,732.76,516.65,732.46,516.85z"/>
	<path d="M733.06,450.17c0-0.1-0.2-0.2-0.3-0.4C732.27,451.23,733.06,450.45,733.06,450.17z"/>
	<path d="M732.46,522.49c0.25,0.25,0.79-0.11,0.2-0.71C732.66,521.99,732.56,522.19,732.46,522.49z"/>
	<path d="M757.04,461.95h-0.1C756.94,462.2,756.9,462.22,757.04,461.95z"/>
	<path d="M592.44,46.43c-3.93,1.1-4.03,1.01-7.05,4.94c2.22,0.2,3.02-1.91,4.43-2.42c8.55,0,8.03-0.52,3.12,1.71
		c-3,1.36-5.11,1.46-4.63,3.53C603.34,53.53,606.46,42.5,592.44,46.43z"/>
	<path d="M613.69,48.14c0.1-0.02,7.39-1.19,9.77-2.72c-0.3-1.31-1.31-1.41-2.12-1.41c-8.84,0-11.98,2.89-1.31-2.72
		c1.61,0,2.92,1.31,5.14,0c-4.29-1.75-5.34-2.06-11.28-0.3c-3.19,0.95-6.75,3.18-4.53,5.64C612.37,46.63,611.27,45.71,613.69,48.14z
		"/>
	<path d="M613.09,75.24c-3.68,1.23-5.78,0.97-6.14,4.63c4.01,1.69,3.49-0.38,10.07-1.61c0.5-0.09,1.01-0.71,1.71-1.21
		C616.31,74.23,615.81,74.13,613.09,75.24z"/>
	<path d="M603.72,76.34c4.64-1.16,8.94-3.55,14.1-3.83c1.22,0,3.12-0.45,3.12-1.81c-0.46-1.38-1.42-0.44-9.97,0.71
		c-0.38,0-3.86,2.42-7.05,2.42C601.18,73.83,601.82,76.98,603.72,76.34z"/>
	<path d="M607.95,66.78c1.11-1.51,2.92-1.21,4.53-1.41c1.34-4.01-7.25-2.31-5.44,1.31C607.15,66.78,607.85,66.88,607.95,66.78z"/>
	<path d="M553.56,553.62c-3.39-2.41-11.49-4.49-12.69-1.61c2.53,2.53,1.46,1.18-1.61,2.72c-0.79,0.4-1.06,1.72,0.1,2.32
		c8.18,4.18,9.11,4.35,10.27,3.42c0.82-2.05-0.91-3.02-2.82-4.94c1.55-0.26,4.51,1.71,6.35,2.22
		C554.77,558.55,556.47,555.69,553.56,553.62z"/>
	<path d="M558.39,549.49c-4.53-3.3-12.6-6.04-16.72-1.91c2.66,2.22,8.49,1.02,15.11,6.14C559.95,556.89,562.42,552.42,558.39,549.49
		z"/>
	<path d="M532.91,576.69c-7.1-2.58-8.13,3.68-5.84,2.92c1.52-0.25,4.37-3.16,8.06,0C542.74,586.15,537.56,577.94,532.91,576.69z"/>
	<path d="M538.65,561.17c2.62,0.4,4.33,1.71,6.35,0.81C544.51,559.7,540.92,559.17,538.65,561.17z"/>
	<path d="M567.36,563.29c-0.81,1.22-0.56,1.26,0,1.81C568.76,564.4,567.85,562.8,567.36,563.29z"/>
	<path d="M737.8,573.16c1.89,0.75,1.74,0.07,1.41,2.72c2.92,0.1,5.74,0.4,8.46,0c0.91-1.01,1.01-2.22,2.32-2.62
		c1.55-0.58,1.79-1.82,1.26-3.26C748.47,569,731.42,570.61,737.8,573.16z"/>
	<path d="M738.1,593.21c3.22-1.41,6.45-2.72,9.57-4.13c2.22,0.81,4.03,2.12,5.74,4.33c0.82-0.82,1.77-1.5,1.51-2.01
		C751.29,582.31,735.48,591.33,738.1,593.21z"/>
	<path d="M720.77,568.93c-0.89,2.66,1.49,1.55,0.81,0.4C721.48,569.13,721.08,569.03,720.77,568.93z"/>
	<path d="M721.98,566.11c0,0.53,0.21,0.2,0.3,0.2C722.28,566.21,722.2,565.89,721.98,566.11z"/>
</g>
</svg>
