<?xml version="1.0" encoding="utf-8"?>
<!-- Generator: Adobe Illustrator 19.1.0, SVG Export Plug-In . SVG Version: 6.00 Build 0)  -->
<svg version="1.2" baseProfile="tiny" id="Layer_2" xmlns="http://www.w3.org/2000/svg" xmlns:xlink="http://www.w3.org/1999/xlink"
	 x="0px" y="0px" width="900px" height="600px" viewBox="144 97 900 600" xml:space="preserve">
<g>
	<path d="M650.6,426.9c3.1-1.5,5.5-4.1,8.5-5.7c3.5-1.9,6.9-3.6,11.6-2.6c-1.7-2.6-4.8-0.1-5.7-2.8c0.3-1.3,1.9-0.6,2.6-1.3
		c-0.5-1.2-2.2-0.5-2.6-1.8c0.3-1.6,2-0.4,2.8-1.4c-0.8-1.5-3.3-0.1-3.7-2.7c0.1-1.4,4.3-1,2.5-4.4c-4.9,4.3-10.8,7.3-13.7,13.3
		c-2.2-2.7-2.1-5.3,0.9-7.7c2.7-2.1,5.5-4.1,8.5-5.8c2.2-1.3,2.4-3,2.6-5.2c1.2-12.6,2.1-25.2,1.6-37.8c0-0.5,0.1-1,0.5-1.5
		c0.1,2.2,0.3,4.4,0.4,6.6c2.8-3.1,6.1-3.6,9-3.7c1.5,0.2,0.9,1.8,2,1.8c0.2-0.2,0.4-0.3,0.4-0.5c0.7-8.4-0.2-16.6-1.3-24.9
		c-0.5-0.6-0.5-1.3-0.3-2.1c-0.1,0.7-0.2,1.4,0.4,2c0.1,1.5-1.2,2.4-1.6,4c1.4,1.1,1.6,2.7,1.2,4.8c-2.6,2.3-6.4,2.4-9.1,5
		c-1.3-2.8,1-3,2-4.3c-0.7-0.8-2.3-0.1-2.7-1.3c0.9-3.8,3.7-5.7,7.7-6.8c-1.9-1.2-3,0.4-4.3,0c-0.7-1.8-2.2-1.6-3.6-1.5
		c-0.8,1.9,0,4-1.3,6.6c-0.6-8.1-0.5-15.4,0.3-23.4c-6.4-3.1-12.3-8-17.4-11.1c-18.8,0.2-36.1,1.7-53.9,4.4
		c-2.2,2.6-5.9,4.1-9.6,5.2c-3.6,1.1-6.9,2.5-9.5,5.3c0.2,0.9,1.2,0.9,1.5,1.6c-1.1,1.1-2.3-0.1-3.6,0.2c-1.3,3.4-5.9,4.7-6.2,9.2
		c1.7,0.8,3.6,1.3,5.4,1.1c4.2-0.5,6.8,1.4,8.2,5.2c0.2,0.7,1.1,1.1,0.7,2.1c-2.6-0.9-3.9-4-7-4c-2.9,0-5.6-0.5-8.1-2.1
		c-1.5,0.8-2.8,2.2-4.9,0.7c2-3.4,3.2-7.3,6.3-10c1.3-1.1,2.4-2.4,3.3-3.9c2.6-3.9,6.2-6.5,10.7-7.9c3.3-1,6.6-1.8,9.7-3.4
		c1.3-0.7,2.5-1.3,3.4-2.6c1.4-2,3.9-2.4,6.2-2.8c13.4-2.2,26.9-2.8,40.4-1c2.2,0.3,4.4,0.5,6.6,0.8c3.2,0.5,6.2,1.3,7.9,4.6
		c0.6,1.2,2.1,1.6,3.3,2.2c2.4,1.1,5.1,1.8,6.1,4.4c12.5-1.2,13.4-0.9,14.8,5c7.5-2,15.2-2,22.8-3.5c0.4-0.1,0.7-0.2,1.1-0.1
		c6.9,1.1,13.4-0.6,19.9-2.5c14.6-4.3,29.4-7.7,43.5-13.8c3.9-1.7,8-2.2,12.2-2.2c7.1,0,14.2-0.7,21-2.9c0.6-0.2,1.2-0.5,1.8-0.5
		c12.6-0.6,24.8-4.7,37.5-4.2c5.7,0.2,11.2,1.3,16.6,2.9c3.3,1,6.6,2,9.5,3.9c3.1,2,6.8,1.9,10.2,2.4c7.2,1.1,14.3,1.2,21.6,1.2
		c5.2,0,9.3-1.4,13.3-4.1c0.2-1.2-1.4-0.1-1.4-1.2c1.1-3.7,1.8-7.7,5.5-10.4c4.7-3.5,7.8-8.5,11.5-12.8
		c9.3-10.9,21.6-17.4,33.7-24.2c0.7-0.4,1.5-0.7,2.3-1.1c0.1,0,0.2-0.2,0.3-0.4c0.5-2.1-2.5-5,1.2-6.5c1.7,0.3,1.2,2.9,3.4,2.8
		c1.4-0.2,1.3-3.3,3.6-2.4c1.4,1.1-0.4,2.4,0.5,3.7c1.4,0.1,1.7-1.9,3.8-2c6.9,1.8,14.5,4,21.3,7.9c6.8,4,13.1,8.8,16.6,16.4
		c1.9,4.2,4.4,8.2,7.6,11.7c0.8,0.8,1.6,1.7,1.9,2.7c1.2,3.5,4,5.1,7.1,6.3c0.9,0.4,1.8,0.8,2.3,1.5c0.4,1.3-1.4,0.4-1.1,1.8
		c2.3,1.8,5.6,2.6,8.6,4.5c-2,3.3-4.7,5.1-8.2,5.7c1.5,2.3,3.2-0.7,4.5,0.3c-1.6,3.8-9.1,6.5-20.9,7.5c-2,5.1-4.5,10.2-7.4,15
		c-1.6,2.7-3.4,5.3-6.8,6.1c-1.5,0.3-3.2,1.1-2.2,3.6c-4.9-1.9-6-1.3-7,3.9c-1,3.1-2.1,6.1-4.4,8.2c2.5-1.9,3-5.2,4.7-7.9
		c1.1-1.1,0.7-3.1,3-4.3c-0.9,7-4.5,12.6-6.4,18.6c-2.6,0.4-4.8-0.5-7.1-0.6c-3,3.8-7.5,4.9-12,6.9c-0.6,0.8-1.6,2.1-2.7,3.2
		c-2.3,2.1-3.1,5.8-7.4,5.8c-6.4,0-12.3-0.8-16.7-6c-0.5-0.6-1-1.1-1.3-1.8c-2.1-3.6-5-5.3-9.2-3.9c-0.8,0.3-1.7,0.4-2.8-0.8
		c3.1-2.2,6.2-3.5,9.6-2.9c2.4,4.4,4.8,8.4,8.4,11.2c3.9,3.1,9,1.3,13.6,1.7c2.6-2.9,5.1-5.7,7.8-8.7c2.2,0,4.3-0.6,5-3.2
		c3.5,0.7,5.4-1.1,6.4-3.9c0.9-2.5,2.7-4.3,4.8-5.7c2.2-1.5,3.9-3.5,4.6-6c0.8-2.8,2.8-4.7,4.1-7.2c1.1-2.2,3.2-0.9,5.2-0.8
		c-1.9-1.1-3.8-2.2-5.6-3.4c3.6-0.5,7.1-0.3,10.6,0.7c1.5-1.7,2.3-3.6,3.2-5.4c2-4.2,3.9-8.4,6-13c-6.4,2.3-12.3,3.8-18.6,3.7
		c-4.6-0.1-8.9,1.7-13.1,3.5c-2.5,1.1-5.2,1.9-7.8,2.8c-1-1.5,0-2.2,0.6-2.9c1.6-2,3.1-4.2,5.1-5.8c3.6-3.2,3.6-7.2,3.4-11.4
		c-4.4-2-8.4-1.7-12.1,1.3c-1.6,1.3-2.7,2.7-2.8,4.9c-0.1,3-1.7,5.6-3.1,8.2c-0.8,1.5-1.5,2.9,0.6,4.2c1-0.4,2.1-0.9,4-1.7
		c-1,1.7-1.6,2.6-2.1,3.5c-4.9,0.3-6.2-1.1-4.9-5.5c0.8-2.6,1.9-5,2.8-7.6c0.6-1.6,1.3-3.2,0.9-4.9c-1.9,0.2-3.7,0.3-5.5,0.5
		c-1,0.1-2.3,0-2.8,0.8c-1.6,2.6-3.8,1.2-6.4,1.7c-2.3,1.6-4.9,4-7,6.3c-2-0.3-1.9-1.5-2.1-2.8c-2.8,1.9-5.8,1.6-8.6,2.6
		c-2.7,1-5.2,1.7-6.5-2c-0.2-0.5-1.2-0.7-1.4-1.5c-0.2-1.3,1.1-1.8,1.6-3.2c-3.2,0.7-6.4,6.4-8.9,0c-2.7-0.3-4.8,1-7.1,2.1
		c-4.4,2.2-9,1.1-13.8,0.2c0.5-0.5,0.7-0.7,0.8-0.7c5.2,2.1,9.6-1.7,14.5-1.9c1.7-0.1,1.9-1.7,2.6-2.8c0.8-1-0.4-1.4-0.8-2.3
		c-1.7,1.5-3.1,2.9-4.8,3.8c-4,2.1-8.2,3.2-12.7,2c-1.7-0.4-3.4-0.8-4.4,0.7c-6.3-0.6-12.4-0.2-18.4-1.6c5,2.9,10.1,5.5,16,6.2
		c8.8,1,16.7,5,24.4,8.9c3.3,1.7,5.4,5.1,8.4,7c3.3,2.1,4.7,5,4.1,7.8c-0.7,3.7-0.2,7.5-1.1,11.1c-1.1,4.4-1.2,8.7,2.2,12.4
		c1.7,1.9,0.9,3.9-0.6,5.6c5.8,5.2,7.1,12,7.2,19c0,3.5-0.2,7.1-0.1,10.7c0.2,6.9-1.6,13.1-5.5,18.7c-5.6,8.1-8.6,17.6-13.1,26.3
		c-1.8,3.5-4.7,7.4-4,12.1c0.9,5.8,1.1,11.7,1.1,17.7c4,1.2,7.9,2.3,12,1.9c1.6-0.2,3.2-0.3,4.8-0.2c10,1.1,18.4-3.1,26.6-7.9
		c2.8-1.6,5.7-2.1,8.8-2.1c2.9,0.1,5.6-0.1,8.3-1.3c0.9-0.4,2.1-0.8,2.8-0.1c3.4,2.9,7.9,4.7,10.6,8.3c1,1.4,2.1,2.8,3.2,4.2
		c1.1,1.5,2.7,1,3.8,0.7c2.7-0.9,6.7-0.3,8.4,1.8c1.8,2.3,1.7,4.6-0.4,7.7c-0.1,0.1-0.1,0.2-0.2,0.4c1.3,2.1,1,4.2-0.1,6.2
		c-0.7,1.3-1.2,2.5-0.6,4.2c1.6,4.9,0.9,6.8-3.3,9.7c-0.4,2.2,0.2,4.7-0.8,7c-0.9,2.1-2.1,3.6-4.5,4.4c-8.7,2.6-17.5,3.7-26.5,2.5
		c-2-0.3-3.6,0-5.3,1c-4.2,2.5-8.6,4-13.4,5c-3.9,0.8-7.4,2.9-10,5.8c-3.3,3.6-6.9,6.3-11.4,7.8c-12.7,4.2-25.2,8.9-38.7,10.1
		c-5.4,0.4-10.8,0.6-16.1-1c-2.7-0.8-5.4,0.2-8.1-0.4c-7.8-1.6-11.5-7.1-13.1-14.2c-0.7-3-1.7-5.9-2.8-8.7c-0.2-0.6-0.3-1.4-0.8-1.6
		c-3.6-1.7-3-5.1-3.1-8c-0.2-4.2,0.6-8.4,0.2-12.5c-1.1-11.5,2.8-22.7,1.1-34.2c-0.8-5.5-1.1-11,0-16.5c1.5-7.1,4.3-13.5,8.5-19.4
		c0.8-1.2,2-2.2,2.1-4.1c-6.3,1.9-12.7,0.9-19,0.7c-7.3-0.2-14.5-1.3-21-4.7c-4.9-2.6-9.5-2.4-14.4-0.3c-4.9,2-9.8,3.8-15.2,4.4
		c-4,0.4-7.8,0-11.5-1.5c-4.9,2.1-10.3,2.4-15,0.8c-7.3-2.5-15.2-1.2-22.2-4.3c-0.5-0.2-1.2,0-1.8,0c-7.4,0.7-14.7-0.1-22-1.6
		c-6.8-1.5-13.6-1.5-20.5-0.1c-4.7,0.9-9.5,0.1-14.2-0.1c-1.2-0.1-2.4-0.1-3.6,0.2c-2.5,0.7-5.2,1.2-7.6,0.4
		c-2.8-0.9-4.7,0.2-6.8,1.6c-3.2,2.1-5.9,4.8-8.3,7.8c-4,4.9-8.1,9.9-12.2,14.8c-4.4,5.3-10.8,7.1-17.1,8.8
		c-2.8,0.8-5.8,2.6-8.9,0.6c-0.3-0.2-0.9,0.2-1.4,0.3c-8.7,2-17.4,4.1-26,6.8c-5.1,1.6-9.9,3.6-14.3,6.6c-4.6,3.2-9.6,4.1-15.1,3.2
		c-3.1-0.5-6.1,0.7-9,1.3c-19,3.8-38.1,5.6-57.5,4.8c-5.1-0.2-10,0.6-15,1.2c-2.2,0.3-4.4,0.3-6.6,0.6c-4.2,0.6-6.9-1.5-9.1-4.8
		c-2.1-3.3-3.7-6.6-4-10.6c0-0.9-0.2-1.7-0.7-2.4c-5.3-8.6-8.3-18-11.4-27.5c-0.1-0.5-0.4-0.9-0.6-1.2c-0.7-0.5-1.3-0.2-1.9-0.1
		c-8.8,2.6-17.7,2.5-26.7,1.5c-1.3-0.1-2.7-0.3-4-0.7c-6.9-2.5-13.9-3-21.2-2.5c-3.7,0.2-7.4-0.7-9.7-4.2c-0.9-1.3-2.2-2.1-3.7-1.9
		c-2.9,0.3-5.7,0.9-9.3,1.4c4.2,0.9,7.9-0.6,12.1,0.7c-3.2,2-6.2,2-8.8,1.6c-8.3-1.2-16.4,0.2-24.5,2c-9.9,2.2-19.9,3.2-29.9,4.2
		c-5.6,0.6-11.1,2-16.7,2.6c-14.1,1.4-28,5-42.4,4.4c-6-0.2-12,0.3-17.9,1.6c-1.9,0.4-3.8,0.7-5.8-0.5c0.4,1.4,1.6,2,1.6,3.2
		c-0.3,2.4-2.6,2.6-4.3,3.9c3.4,0.7,7-2.5,10.2,1.5c-2.5,3.8-4.6,7.7-8.4,10.4c-1.7,1.2-3.6,1.5-5.6,1.4c-3.2-0.2-4.1,0.5-4.6,3.7
		c-0.2,1.1-0.3,2.1-1.8,3.2c6.7,1.3,9.4,5.8,9.6,11.3c0.2,6.3-3.7,10.4-9.5,13.3c1.6,5-2.3,6.8-5.8,8.6c-3.1,1.7-6.4,3.2-9.5,4.8
		c-5.4,2.9-11.1,3.4-16.8,1.8c-5.8-1.7-11.8-2.9-17-6.1c-6.3-3.8-11.4-9.1-15-15.5c-2.5-4.4-2.9-9.7-2.9-14.7
		c0-10-2.9-19.7-1.9-29.7c0.2-2.1-0.5-4.2-1.4-6.1c-2.6-5.7-3-11.6-1.2-17.3c2.7-8.6,3.9-17.5,6.6-26c0.6-1.8,1.2-3.5,1.8-5.2
		c0.3-0.9,0.7-1.8,1.9-2c1.5,0.9,1,2.1,0.8,3.3c-0.9,5-2.1,9.9-4.1,14.5c-3,6.9-3.8,14.2-4.1,21.6c-0.1,2.1,0.2,4,1,6.1
		c2.2,5.8,3,11.7,3.1,18c0.1,9.3,0,18.6,2.2,27.7c0.4,1.9,1,3.8,0.6,5.8c-0.3,1.5,0.7,2.6,1.5,3.6c3.6,4.7,8.1,8.5,12.3,12.7
		c0.6,0.6,1.4,1,2.2,1.2c4.7,1.5,9.4,3,14.1,4.2c3.6,0.9,7.3,0.6,10.8-0.8c3-1.2,6-2.1,9.2-2.4c3.4-0.4,5.5-3.4,8.2-4.9
		c0.5-7.6-1.8-13-9.6-15c-1.2,3.1-1,7.1-4.5,9.3c-3.5-1.4-1.2-3.7-1.2-5.6c-2.4,0.2-4.2,4.5-7.3,0.5c3.2-2.6,7-4.1,9.4-7.3
		c0.7-1-1-1.7-0.4-2.7c0.5-1.3,2-0.4,2.8-1.4c-0.5-1.5-3.2-1.6-2.8-3.8c0.7-1.3,2-0.7,3-1c0.2-1-1.3-1.6-0.6-3
		c3.3-0.6,6.4-2.8,10.3-2.1c0.9-0.6,0.3-1.8,1.1-2.8c3.6,1.3,5.3-4.7,9.4-2.2c2.8-2.6,5.5-5.1,8.2-7.6c-4.8,0-9.3,0-13.8,0
		c-2.1,0-4.1,0.1-5-2.4c-0.3-0.7-1.3-1.1-2.2-1.2c-6.2-1.2-9.9-5.1-12.9-10.4c-3.4-5.9-3.5-10.9,0.7-16.5c2.3-3.1,4.4-6.2,7.8-8.1
		c3-1.7,5.3-3.7,4.1-8c-1.9-1.3-3.1-3.4-2.8-6.1c-1.2-1.4-2.7-1.9-4.3-2.2c-2.7-0.5-5.3-1.3-7.8-2.2c-2.9-1-5.7-1.4-8.6-0.1
		c-2.1,0.9-4,0.3-5.4-1.1c-3.2-3.1-7-4.3-11.3-4.7c-3.4-0.3-6.8-1.1-10.1-1.7c-1.2-0.2-2.3-0.7-2.7-2.6c5.1-2.3,9.6,1.9,14.4,1.7
		c0-4.8,3-8.9,7.6-10.4c0.9-0.3,1.5-0.8,2.2-1.3c0.9-0.7,1.7-1.4,2.5-2.1c7.4-6,9.6-5.6,17.3,0.1c5.8,4.3,11.3,9.3,18.6,11.3
		c5.4,1.4,9.1,5.3,12.2,10.1c10.5-1.7,21.2-2.6,31.7-5.7c12.9-3.8,25.2-8.9,37.6-13.8c6.3-2.5,12.5-5.1,19.3-5.7
		c1-0.1,1.8-0.6,2.7-1.1c13.8-7.3,28.4-10.5,44.1-8.7c7.8,0.9,15.7,0.1,23.5,1.5c2.8,0.5,5.6,0.9,8.4,1.4c4.8,0.8,9.6,1.7,14.4-0.5
		c2-0.9,4.3-0.7,6.5-0.4c5.9,0.8,11.9,1.4,17.7,2.1c2.4-1.8-0.5-2.8-0.4-4.3c0.9-1.6,2.8-1.6,4.4-2.1c5.5-1.8,11.3-2.2,17.1-2.6
		c5.8-0.4,11.5-1.4,16.9-3.3c7.6-2.7,15.3-4.6,23.2-5.6c1.6-0.2,3.2-0.4,4.7-1.1c8.5-4,17.6-3.9,26.6-4.8c1.2-0.1,2.7,0,3.5-0.9
		c2.1-2.4,4.8-2.1,7.5-2.1c1.8,0,3.6-0.3,5.4-0.7c3.5-0.7,7-0.7,11.2,1.2c-3.7,2.3-7.2,0.4-10.3,1.3c-3.2,0.9-6.6-0.1-10,0.9
		c2.9,1.7,5.9,3,9.1,4l-0.1-0.1c1.7,1.5,4.2,1.8,5.6,4.1c-5.2-2-10.4-4-16.2-6.2c-3.8,2.4-8.9,0.7-13.8,2c1.8,1.8,3.9,2.7,5.2,4.9
		c-1.5,0.1-2.3-0.7-3.1-1.3c-5.2-4.2-10.6-3.6-16.2-1c-4.4,2-9.2,2.6-13.9,3.3c-4.4,0.6-8.7,1.5-12.9,3.1
		c-9.3,3.5-18.9,5.1-28.8,5.9c-0.5,0-1,0-1.5,0.1c-9.8,1.9-8.4,1-10.8,10.4c-4.6,18-0.7,35.7,2,53.3c2,12.9,6.2,25.2,13,36.5
		c0.4,0.6,0.9,1.3,0.9,2c-0.2,5.4,3.3,9.1,6.1,13.2c4.3,0.8,8.7-0.2,13-0.8c5.5-0.8,11-1,16.5-0.8c14.6,0.4,29.2-0.7,43.7-2.3
		c4.9-0.5,9.8-0.8,14.6-1.9c7.2-1.6,14.5-2.6,21.1-6.9c6.8-4.5,15.1-5.7,23-7.5c6.3-1.4,12.8-2.5,19.1-3.8c0.5-0.1,1,0,1.4,0.4
		c0.6,1-0.9,1.2-0.8,2.1c3.5-1,6.3-3.4,9.4-4.8c7.6-3.6,12.9-9.6,18-15.9C646.7,431.4,648.7,429.2,650.6,426.9L650.6,426.9z"/>
	<path d="M451.3,414.6c6.4-3.5,14-0.2,20.3-4.2c-8.4-9.4-17.9-18.2-23.1-30.3c7.3,11.1,16.3,20.7,25.6,30.4
		c10.2-2.9,20.4-4.7,31-4.6c-0.2-1.5-1.3-2-2.1-2.6c-7.6-6.8-16.3-12.2-24.4-18.4c-5.9-4.5-11.4-9.3-15.8-15.3
		c-0.7-0.9-1.8-1.7-1.6-3c0.8-0.2,1.2,0.1,1.4,0.5c3.7,6.3,9.2,10.9,15,15c10.6,7.5,21.5,14.6,31.1,23.5c4.3,4,8.6,8.4,11.5,13.6
		c-3-2.8-6.1-5.4-8.9-8.4c-2.4-2.5-4.8-3.5-8.3-3.4c-9.3,0.2-18.2,1.7-27.4,4.4c1.6,2.4,3.9,4,4.9,6.5c-2.8-1.4-4.4-4.3-7.1-6.1
		c-2.4,0.4-5,0.3-7.4,1.6c-0.6,0.3-1.5,0.5-2.1,0.4C459.7,413.6,455.5,412.8,451.3,414.6z"/>
	<path d="M654,385.7c0.5,0.6,0.5,1,0.3,1.3c-4.2,9.3-7.2,19-10.8,28.5c-4.5,11.9-12.1,21.7-21.1,30.7c-1.2-1-0.5-2.1,0.1-2.9
		c1.1-1.6,2.3-3.2,3.6-4.6c7.1-7.8,12.3-16.7,16.2-26.5c3-7.6,6.2-15.2,9.4-22.7C652.3,388.2,652.6,386.7,654,385.7z"/>
	<path d="M635.5,395.8c-4.6,8.6-10.1,16.7-15.7,24.7c-7.5,10.7-16.3,20.2-25.9,29c-0.2,0.2-0.5,0.6-1.2,0.1c1.6-1.8,3-3.7,4.7-5.4
		c12.4-13.3,23.2-27.9,33.5-42.8C632.2,399.3,633.2,397.1,635.5,395.8L635.5,395.8z"/>
	<path d="M967.4,319.3c1.3-5.8,1.6-12.2,8.5-14.9c1.8-0.2,3.7-0.1,5.5,0.8c0.6,4.6-1,6.5-5.8,6.7c-0.1,1.9-0.3,3.8-2.3,4.8
		c-1.5,0.1-2.4-1-3.5-1.7C968.6,316.3,969.4,318.5,967.4,319.3z"/>
	<path d="M182.2,476.2c0.4-1.6-0.3-3.1-0.5-4.7c-0.4-3.7,2.2-6.6,5.7-6.5c3.3,0,5.9,2.8,5.8,6.2c-0.1,3.6-3.1,6.2-6.6,5.5
		C185.2,476.3,183.8,477.2,182.2,476.2z"/>
	<path d="M192.8,457.8c-0.1,3.2-2.8,5.8-6,5.8c-3.3-0.1-5.9-3-5.8-6.4c0.2-3.2,2.9-5.7,6.1-5.5C190.4,451.8,192.9,454.6,192.8,457.8
		z"/>
	<path d="M542.2,469.6c1.5-0.3,3.1-0.7,4.6-0.9c3.3-0.4,5.9-1.9,8.4-4.1c6.3-5.7,14.2-8.5,22.1-11.1c0.1,0,0.3,0.3,0.8,0.6
		c-2.7,2.1-5.7,3.6-8.8,4.9c-5.5,2.3-11.1,4.4-15.7,8.6C550.6,470.4,546.2,470.2,542.2,469.6z"/>
	<path d="M650.9,341.4c-6.4,2.5-11.9,6.2-17,10.6c-0.8,0.7-1.8,0.9-2.7,0.2c-1-0.8-1.1-1.8-0.7-3c0.5-1.3,1.4-2.3,2.6-3
		C638.7,343.4,645,343,650.9,341.4z"/>
	<path d="M180.8,442.3c3.3-0.8,6.9-0.6,10.6-1c0.2,3.1,1.8,6.2-0.6,8.7c-2,2.1-4.2,0.8-6.1-0.7c-1.1,0.7-2,1.3-3,1.9
		c-1.4-1.4-0.6-2.4,0.4-3.4c0.9-0.8,2.2-1.3,1.8-3.2C183.4,443.6,180,445.7,180.8,442.3z"/>
	<path d="M584.4,348.9c2-1.8,3.5-0.6,4.9,0.2c5.5,3.5,9.4,9.2,9.6,14.4C594.5,357.9,589,353.9,584.4,348.9z"/>
	<path d="M605.3,378.8c15-6.5,31.7-7,47.2-13.8c-0.8,2.3-2.4,2.3-3.6,2.8c-8.1,3.2-16.7,4.6-25.2,6.6
		C617.6,375.8,611.5,377.3,605.3,378.8z"/>
	<path d="M531.6,398.8c2-2,4.8-2.3,7.3-2.9c13-3.3,26.1-6.4,39.3-9.3C562.9,391.9,547.2,395.2,531.6,398.8L531.6,398.8z"/>
	<path d="M663.8,331.2c-7.1,1.1-13.3,0.8-19.6-1.9C650.1,326.6,660.4,327.4,663.8,331.2z"/>
	<path d="M580.9,359.6c-9.2-5.2-19.3-8.6-27.7-15.3c0.6-1,1.1-0.8,1.5-0.5c5.9,4,12.5,6.8,18.8,10.1
		C576.2,355.4,579.3,356.5,580.9,359.6L580.9,359.6z"/>
	<path d="M658.9,370.1c-6.9,5.9-13,12.5-19.4,19.3C640.4,385.2,654.5,371.1,658.9,370.1z"/>
	<path d="M951.6,326.9c-2.4,8.5-6.4,16.2-12.2,22.9c-0.3-0.2-0.6-0.3-0.8-0.5c2.3-3.7,4.3-7.8,7.1-11.1
		C948.6,334.8,948.3,330,951.6,326.9z"/>
	<path d="M530.9,401.7c-3.2-4.4-7.1-8.2-11.7-12.4c2.8,0.1,3.8,1.7,5.1,2.8c2.5,2.1,4.1,5.2,7.3,6.6l-0.1-0.1c0.1,2,2,2.7,2.9,4
		c0.8,1.2,2.2,2,2.6,3.8C534.2,405.6,533.3,402.6,530.9,401.7L530.9,401.7z"/>
	<path d="M648.3,351.8c4.2-1.3,8-4.5,12.8-3.2C656.6,348.9,653.2,353.3,648.3,351.8z"/>
	<path d="M664.1,325.1c-5.2-1.9-10.3-3.8-14.8-7C654.4,320.2,660,321.2,664.1,325.1z"/>
	<path d="M949.3,348.1c1.9,4.1,2.9,8.4,3.2,12.8C950.1,356.9,949.7,352.5,949.3,348.1z"/>
	<path d="M504.5,352.2c2,4.3,3.8,8.6,5.7,12.9C507.7,361.1,503.9,357.7,504.5,352.2z"/>
	<path d="M955.2,334.9c-1.9,4.1-3.3,7.6-4.6,11.5C949.2,343.7,951.7,336.9,955.2,334.9z"/>
	<path d="M530.8,401.7c-4.6,2.1-9.3,3.3-14.3,3.6C521.2,403.7,525.9,402.2,530.8,401.7L530.8,401.7z"/>
	<path d="M662.5,359.6c-2.3,3.7-6.5,1.5-9.5,3.3C655.9,361,658.9,359.5,662.5,359.6z"/>
	<path d="M595.3,341.2c-1.6,1.8-3.4,3-6.2,2.8C590.5,341,592.9,341,595.3,341.2z"/>
	<path d="M650.7,426.9c-0.2-0.3-0.6-0.8-0.5-0.9c1.5-2.6,3.2-4.9,5.9-6.5C655.1,422.5,652.6,424.5,650.7,426.9L650.7,426.9z"/>
	<path d="M586.5,331.6c-1.7,1.9-2.5,4.4-4.1,6.5C581.2,335.9,582.5,333.7,586.5,331.6z"/>
	<path d="M677.4,358.1c-2,2.1-4.4,1.5-6.8,1.2C672.6,357.6,675,358,677.4,358.1z"/>
	<path d="M669.6,357c2.6-1.6,4.8-1.6,7.1-0.8C674.6,357.2,672.5,357.8,669.6,357z"/>
	<path d="M657.7,338.1c1.6-1.1,3.3-2.3,5.7-1.5C660.9,338.2,660.9,338.2,657.7,338.1z"/>
	<path d="M172.6,399.6c0.2-2.4,0.8-4.2,1.8-5.8C174.6,396.7,174.6,396.8,172.6,399.6z"/>
	<path d="M645.3,317.1c-1,1.1-2.1,1.8-4.5,1.8c1.7-1,2.8-1.7,3.9-2.4c0.2,0,0.5-0.1,0.7-0.1C645.4,316.7,645.3,316.9,645.3,317.1z"
		/>
	<path d="M931.6,321.2c0.4,1-0.3,1.5-0.9,2c-0.9-0.3-0.6-0.9-0.2-1.4C930.7,321.5,931,321.1,931.6,321.2z"/>
	<path d="M635.4,395.7c0.2-1.3,1.2-2,2.3-3C637.4,394.3,636.6,395.1,635.4,395.7L635.4,395.7z"/>
	<path d="M954.9,320.7c-0.3,1.6-0.9,2.2-1.8,2.6C952.2,323,952.3,322.8,954.9,320.7z"/>
	<path d="M935.5,352.2c-0.5,1-1.2,1.7-2.4,2.7C933.3,352.9,933.9,352.1,935.5,352.2L935.5,352.2z"/>
	<path d="M935.6,352.3c0.4-0.9,0.6-2,2.2-2.3C937.6,351.6,936.9,352.2,935.6,352.3L935.6,352.3z"/>
	<path d="M580.8,359.7c0.9,0,1.4,0.4,1.7,1.3C581.5,361,581.2,360.3,580.8,359.7L580.8,359.7z"/>
	<path d="M934.8,316.5c0.3,0,0.4,0.1,0.4,0.4c0,0.1-0.1,0.2-0.2,0.3c-0.3,0.2-0.5,0.1-0.5-0.2C934.4,316.8,934.7,316.6,934.8,316.5z
		"/>
	<path d="M550,345.7c-0.2-0.4-0.4-0.8-0.7-1.2C550.4,344.8,550.4,344.8,550,345.7L550,345.7z"/>
	<path d="M644.8,316.6c0.4-0.6,1-1.1,2-1c-0.1,1-0.9,1.2-1.5,1.6C645.1,317,644.9,316.8,644.8,316.6z"/>
	<path fill="#FFFFFF" d="M895.1,337.4c-0.2-2-2.5-3.1-2.5-5.5c6.8-1.2,13.8-2.8,20.5-0.4c8,2.9,10.1,4.2,9.8,13.9
		c-0.1,4.8-1.3,9.6,1.1,14.1c1.3,2.5,2.6,4.8,1.8,7.9c-0.3,1.1,0.6,2.6,1.4,3.7c4.8,6.4,4.7,13.7,4.3,21.1
		c-0.7,10.7-4.5,20.3-9.5,29.5c-2.4,4.5-4.8,9.1-7.3,13.6c-2.9,5.1-4.1,10.6-4.3,16.5c-0.5,11-1.1,22.1-2.6,33
		c-0.5,3.8-0.1,7.8-0.1,12c7.3,2.3,14.6,4.3,22.4,1.7c5.6-1.9,11.2-3.2,16.7-5.5c5.6-2.4,9.8-6.3,13.5-11c2.5-3.2,5.3-6.2,8.2-9
		c2.8-2.7,6.8-3.1,10.2-4.9c1.9-1.1,6.4,2.5,6.7,4.8c-1.1,0.7-1.6-1.1-3-0.6c-0.5,2.5-2.3,4.9-1.8,8.6c2-2,5.1-0.1,6.6-2.8
		c-1.5-1-2.8,0.7-4.2-0.4c0.6-2.8,2.9-1.7,4.2-2.1c1.6,0.3,1,1.9,2.3,2.4c1-0.3,2.1-0.6,3.4-0.9c2.3,1.6,2.7,3.9,2.6,6.4
		c4.3,3,3.5,4.5,3.8,9.7c0.3,5.5-2.8,9.2-3.8,13.8c-0.2,1-0.4,1.8-0.4,2.9c0,2.6-2.1,4.6-4.6,5.3c-7.9,2.1-15.9,0.9-23.8,0.5
		c-1.5-0.1-3-0.1-4.3,0.4c-7.2,2.7-14.9,4.4-21.7,7.9c-2.5,1.3-4.6,3.5-7.2,5c-13.3,8-27.5,13.4-43.1,14.8c-1,0.1-1.9,0.3-2.9,0.5
		c-3.1,0.7-6.1,1.2-9.4,0.2c-3.2-1-6.6-0.6-9.9-0.3c-6.1,0.6-12.2-3.6-13.6-9.6c-1.4-5.8-2.7-11.6-6.4-16.5
		c-0.9-1.1-0.9-2.5-1.1-3.8c-0.7-7.3-0.1-14.5,0.3-21.7c0-0.1,0-0.3,0-0.4c3.9-8.7,1.6-17.7,1.2-26.5c-0.6-14,2.9-26.7,11.3-38
		c5.8-7.8,7.8-15,7.1-23c-4-4-9.2-4.8-14.5-5.2c-2.1-0.1-4.2,0-6.2,0.3c-7.2,1.1-14.3-0.3-21.7,0.8c-1.6-5.6-0.9-10.8,0.2-16
		c1.5-7.2,4-14,9-19.8c6.7-7.7,13.1-15.5,21.5-21.6c8.1-5.9,17.4-8.3,26.9-10.2c2.6-0.5,5.3-0.8,8.2-1.2c1.5,1.9,3,3.8,4.6,5.7
		c2.5,1.9,3.8,4.6,5,6.9C898.9,342.1,897,339.8,895.1,337.4z"/>
	<path fill="#FFFFFF" d="M681.1,327.5c4.7-0.9,8.9-1.2,13.3-1.4c2.3,3.2,2.9,7,4.4,10.9c0.6-4.2-1.5-7.4-2.9-11
		c2.7-0.2,5.1-0.4,7-0.5c1.4,0.6,0.8,1.9,1.6,2.4c1.5-0.2,0-1.9,1.2-2.3c2.6-0.3,5.3-0.3,8-1.2c2,3.3,1.2,7.5,3.6,10.6
		c-0.5-3.5-1-7-1.6-10.6c2.8-1.3,5.7-1.1,8.4-1.9c8.3-2.6,16.9-4.3,25.2-6.8c6.6-2,13-4.6,19.4-6.8c4.1-1.4,8.3-3.3,12.7-0.9
		c0.3,0.1,0.8,0,1.1-0.1c6.4-2.7,13.7-1.6,19.8-5.2c0.6-0.4,1.4-0.6,2.1-0.5c7.7,1.1,15.2-0.9,22.6-2.2c14.3-2.5,27.8-0.8,41,6
		c-0.8,1.7,0.5,2.3,2,2.8c11.7,4.1,23.3,8.3,34.9,12.4c6.5,2.3,12.4,5.3,16.7,10.9c-1.2,0.9-1.9,0-2.7-0.6
		c-4.8-3.5-10.1-5.1-15.9-4.8c-12.8,0.6-25.4,2.1-37.5,6.5c-13.8,4.9-25,13.3-34.1,24.8c-1.4,1.8-3,3.7-3.7,5.9
		c-3,9.4-7.3,18.5-8.3,28.5c-0.2,2.2-0.1,4.4,0,7c-4.5,0.4-7.9-4-12.8-2.7c3.7,3.9,8.7,4.8,13,6.7c0.2,0.3,0.5,0.5,0.5,0.7
		c1.3,7.5,5.3,13,12.2,16.4c2.9,1.4,5.6,3.4,8.8,5.4c-6.9-0.2-13-1.4-19-3c-9-2.4-17.9-3.8-27.1-0.4c-4.5,1.7-9.3,2.3-14.1,1.8
		c-1.6-0.2-3.2,0.2-5.4,0.4c2.4-1.6,5.1-1.9,6.4-4.1c-0.9-1.3-1.7-0.4-2.3-0.1c-3.5,1.8-7.2,2.1-11.1,1.7c-3.4-0.4-6.9-1.5-10.2-1
		c-7,1-13.5-0.8-20.2-1.9c-1.9-0.3-3.9-0.4-5.8,0.1c-1.3,0.3-0.4,1.2-0.7,1.7c-6.6,0.2-13-1-19.3-2.6c-4.7-1.2-9.5-1.6-14.2-0.9
		c-5.4,0.8-10.7,0.7-16.1,0.9c-1.4,0-2.7-0.2-4.5-1.1C682,387.5,683.3,357.7,681.1,327.5z"/>
	<path fill="#FFFFFF" d="M429,370.9c-6.5-1.1-13.2-0.3-19.2-2.5c10-2.7,20.2-1.3,30.8-0.4c-4.7,15.9-2.9,31.7-0.5,47.7
		c-4.2,1.2-8.5,1-13.5,1.7c4.8,2.6,9.2,2.2,13.9,1.8c0.8,3.7,1.7,7.4,2.5,11c-10.9,3.9-52.4,0.2-63.1-5.5c3.2-1.6,6.8-2.3,9.7-4.5
		c0.4-0.3,0.7-0.7,0.7-1.2c-0.5-1.1-1.4-0.7-2.2-0.4c-7.1,2.5-14.4,4.1-21.5,6.5c-5.7,1.9-11.9,1.7-17.8,2.9
		c-11,2.3-22.1,3.1-33.2,4.3c-1,0.1-2,0.3-2.9,0.2c-15.3-0.8-29.9,3.4-44.7,6.2c-1.2,0.2-2.4,0.6-3.6,0.4
		c-8.9-1.1-17.6,1.4-26.4,1.6c-1.3,0-2.6,0.4-4,0.6c-2.4-5.2-5.5-10-6.3-15.9c2.9-1,5.8-2,8.7-3.1c-3.1-1.9-6.3-1.4-9.6-1.7
		c-1-3.8-0.9-7.5-0.3-11.6c7.9-0.4,15.5-2.5,23.3-2.9c8.3-0.5,16.3-2.9,23.7-6.5c11.7-5.7,23.7-10.7,35.3-16.6
		c8.6-4.4,17.5-8.4,26.2-12.6c13.2-6.4,27.1-7.4,41.4-5.5c7.2,1,14.4,1.6,21.6,2.5c3,0.4,6.1-0.4,8.6,2.5c1,1.2,3.7,0.8,5.6,1.4
		c3.7,1.1,7.7-0.3,11.5,1.3C425.2,373.4,427.4,372.6,429,370.9z"/>
	<path fill="#FFFFFF" d="M225.1,404.2c-2.7,6.6-3.2,13.3-2.3,20.2c0.8,6,2.4,11.8,6.3,16.7c1.1,1.4,0.8,3.3,1.6,5
		c-4.2,2.1-9,2.4-12.7,5.6c-1.6-3.1-4.7-4.2-7.3-5.4c-5.6-2.7-7.3-8-9.5-13c-0.5-1.1,0.2-2.2,0.7-3.1c1-1.8,1.5-3.9,2.9-5.5
		c1.1,0.5,0.6,1.3,0.5,1.9c-1,4.8,0.3,9.1,3.2,12.8c2.2,2.8,4.6,5.4,7.1,8c1.4,1.4,3.1,2.9,6,1c-2.9-2.2-4.7-5.2-7-7.4
		c-5.2-5.2-7.6-11-6.4-18.8c3.6-3.4,9.5-5.9,8.6-12.3c1.1-1.4,2.2-1.2,3.1-1.4c1-0.2,2.3-0.5,2.4-1.4c0.4-3.2,2.6-3.4,5-3.6
		c1.6-0.2,3.2-1,4.1-2.3c1.8-2.4,4.1-2.7,6.8-2.8c16.2-0.3,31.6-4.1,46.5-10.3c10.6-4.4,21-9.5,32-13.1c1.2-0.4,2.5-0.7,3.8-0.9
		c-10.4,4.8-20.6,9.9-31.1,14.2c-3.8,1.6-7.6,3.4-11.3,5.3c-13.9,7.2-28.9,10.1-44.2,11.8c-0.9,0.1-1.7,0.1-2.6,0.3
		C227.8,406,227.8,406,225.1,404.2z"/>
	<path fill="#FFFFFF" d="M952.7,485.6c-1.6,2-3.5,3.4-6,3.8c-0.2-0.2-0.3-0.2-0.3-0.2c-0.1-0.1,0.1,0,0.3,0.2
		c-2.4,1.9-5,2.8-8.1,2.4c-3.1-0.4-6.2,0.2-9.1,1.5c2.1,1.2,4.2,0.3,7,0.6c-3.1,1.4-5.8,1.8-8.3,1.9c-8,0.2-13.7,2-19.3-1.2
		c2.3-6.4,3.9-13.2,4.4-20.3c7.1,0.6,13.7,1.5,20.5,1.5c8.4,0,15.9-2.5,23.1-6.4c3.1-1.7,6.3-2.7,9.7-3.3c2.7-0.4,5.4-0.7,7.9-1.7
		c1-0.4,1.9-0.6,2.5,1c-1.4,1.5-3.2,2.3-5.3,2.9c-2.8,0.8-5.1,2.3-6.8,4.7c-3.2,4.4-7.4,7.8-10.5,12.3
		C953.9,485.5,953.2,485.7,952.7,485.6c-2.8-0.9-5.7-1.7-6.3-5.3C947,484,949.8,484.8,952.7,485.6z"/>
	<path fill="#FFFFFF" d="M230.6,395.3c-1.6,2.3-3.8,3.9-5.9,6.1c-8-2.2-16.4-3-24.4-5.7c-3.9-1.3-7.7-2.4-11.8-0.9
		c-0.4,0.1-0.9-0.1-1.6-0.3c-1.1-5.2-5.8-4.1-9.6-5.4c3.8-7.8,12.4-9.7,17.3-15.8c4.1,1.2,7.5,3.1,10.1,5.9
		c4.1,4.4,8.6,7.9,14.8,8.8c2.9,0.4,5.6,1.7,8.1,3.4C229,392.3,230.5,393.1,230.6,395.3z"/>
	<path fill="#FFFFFF" d="M865,407.3c0.1,6.4-5.4,10.4-7.2,16.1c-3.6,0.6-7.1,0.6-10.4,1.5c-1.2,0.4-2.1-0.4-3.1-0.9
		c-4.8-2.7-9.4-5.7-13.7-9.2c-3.4-2.7-4.9-6.3-5.5-10.4c1.5-1,2.9-0.7,4.3-0.1c6.8,2.8,13.6,2.6,20.5,0.3
		C855.3,402.7,860.5,402.2,865,407.3z"/>
	<path fill="#FFFFFF" d="M668,371c3-0.7,5.5,0.8,8.4,0.2c-0.3-1.6,2.9-2.6,0.2-4.7c0.9-0.2,1.3-0.3,2.1-0.4c0.3,2.4,0,4.6-0.3,6.9
		c-3.4-0.1-6.6-0.5-9.5,1.8c2.1,1.7,4.4,0.5,6.9,1.1c-2.2,1.7-5.1,1.1-7,3.3c3.3,0.6,6.2-0.3,9.3-0.8c0.3,3-0.1,5.9-0.6,8.8
		c-2.3,1.7-5.5,1.6-7.3,4.5c2.6,0.1,4.6-1.3,7.2-1.4c0,2.6-2.2,1-3.4,2.1c-0.2,1.3-1.8,2-3.1,2.9c-2.8,1.8-2.9,2.8-0.2,5.1
		c-1.5,1.5-1.5,1.5-4.3,2.1C667.5,392,666.6,381.5,668,371z"/>
	<path fill="#FFFFFF" d="M220.5,487.8c-3.9-2.6-7.2-6.2-12.4-6.3c2.5-4,6.2-6,9.5-8.5C226.6,477.6,227.3,480.9,220.5,487.8z"/>
	<path fill="#FFFFFF" d="M992.5,342.8c-1.3,3.8-2.6,7.6-3.8,11.2c-2.5,1.2-4,0-5.4-1.8c3.7-2.6,7.4-5.1,9-9.6L992.5,342.8z"/>
	<path fill="#FFFFFF" d="M676.3,401.7c0.3,3.7-1.5,11.2-3,12.7c-2-2,0.9-2.4,1.2-3.6c-0.8-2.1-2.9-1.5-4.5-2.1c1.1-1.7,4-0.8,4.6-3
		c0.2-1.6-1.3-1.6-2.1-2.8C673.9,402.5,675.1,402.1,676.3,401.7z"/>
	<path fill="#FFFFFF" d="M1007.9,312.5c2.2-2,5.3-2.9,7.1-5.6c2,0.5,3.7,0.9,5.5,1.3C1015.7,308.1,1012.2,311.6,1007.9,312.5
		L1007.9,312.5z"/>
	<path fill="#FFFFFF" d="M998.7,483.9c-0.5-3.2-1.1-5.6-3.3-7.6C1000.7,477.3,1001.6,479.3,998.7,483.9z"/>
	<path fill="#FFFFFF" d="M1016.1,301.6c-0.8-0.9-1.3-1.6-2-2.1c-0.7-0.5-1.5-0.8-2.3-1.2c1.8-0.8,1.8-0.7,4.5,0.8
		c1.6,0.8,3.4,1.3,5.7,2.2C1019.7,301.3,1017.9,301.4,1016.1,301.6z"/>
	<path fill="#FFFFFF" d="M976.3,266.5c-1.4,0.5-2.4,0-3.3-0.1c-0.6-1.1,1-1.8-0.1-2.8c1.7,0,2.9,0,4.2,0
		C977.1,264.6,976.9,265.5,976.3,266.5z"/>
	<path fill="#FFFFFF" d="M674.7,332.7c-2.7,2-5,2.6-7.4,3.2C667.6,333.4,667.6,333.4,674.7,332.7z"/>
	<path fill="#FFFFFF" d="M213.6,402.6c1.9-0.3,3.1,0.5,4.8,0.9c-1.4,1.2-2.4,2.1-3.7,3.2C214.4,405.3,214,404.1,213.6,402.6z"/>
	<path fill="#FFFFFF" d="M923,288c2-2.4,4-4.7,6.5-7.5C928.8,284.8,925.5,286.1,923,288z"/>
	<path fill="#FFFFFF" d="M996.4,281c-0.7,2-2.1,2.8-4,3.1C992.2,281.6,992.3,281.6,996.4,281z"/>
	<path fill="#FFFFFF" d="M677.7,324.7c0.5,1.6,0.3,2.8-0.1,4.1c-1.8-1.1,0.2-2.5-0.7-3.3c-0.6-1.1-1.8-1.2-2.8-1.7
		C675.5,323.4,676.6,323.9,677.7,324.7z"/>
	<path fill="#FFFFFF" d="M959.8,259.7c-1.9,1.3-3.9,2.6-5.8,3.9c-0.2-0.2-0.3-0.4-0.5-0.6C955.4,261.6,957,259.8,959.8,259.7z"/>
	<path fill="#FFFFFF" d="M1016.7,304.1c2-0.6,3.8-0.4,6,0.9C1020.3,305,1018.4,305.1,1016.7,304.1z"/>
	<path fill="#FFFFFF" d="M998.2,283c1.2-1.3,1.3-3.3,3.7-2.7C1001,281.6,1000.4,283.1,998.2,283z"/>
	<path fill="#FFFFFF" d="M960.5,256.9c2-1.5,3.4-2.3,5.1-2.5C964.4,255.6,963.1,256.6,960.5,256.9z"/>
	<path fill="#FFFFFF" d="M1004.8,267.2c-1.2-0.7-2-1.7-2.5-3.1c1,0.8,2.1,1.7,3.1,2.5C1005.1,266.8,1004.9,267,1004.8,267.2z"/>
	<path fill="#FFFFFF" d="M942.5,279.2c-1.3,1.3-2.2,1.1-3.2,0.2C940.2,277.4,941.2,278.5,942.5,279.2z"/>
	<path fill="#FFFFFF" d="M677.5,338.9c-0.9-1.6-1.8-3.2-0.2-5.5C677.7,335.7,677.8,337.3,677.5,338.9L677.5,338.9z"/>
	<path fill="#FFFFFF" d="M1014,279.6c1.3,0.9,1.8,2.2,2.4,3.5C1014.2,282.1,1014.2,282.1,1014,279.6z"/>
	<path fill="#FFFFFF" d="M953.4,271.9c0.8-2,2.1-2.6,4.1-2.8C956.3,270.5,955.3,271.4,953.4,271.9z"/>
	<path fill="#FFFFFF" d="M952.9,287c-1-0.7-2.9,0.1-3.2-2.5c1.5,0.7,2.5,1.2,3.6,1.7C953.1,286.5,953,286.7,952.9,287z"/>
	<path fill="#FFFFFF" d="M1021.6,288.3c2.1,0.2,1.5,1.7,1.5,3C1020.4,291.2,1021.8,289.4,1021.6,288.3L1021.6,288.3z"/>
	<path fill="#FFFFFF" d="M667.6,325c1-0.1,1.5,0.6,2.2,1.3c-0.4,0.2-0.7,0.5-1,0.5C667.2,327,667.3,326.1,667.6,325z"/>
	<path fill="#FFFFFF" d="M769.2,424.7c-1.5,0.5-2.9,0.5-4.9,0C766.3,424.7,767.7,424.7,769.2,424.7z"/>
	<path fill="#FFFFFF" d="M948.8,280.8c-1.5,0.5-2.3,1.3-3.5,1.2C945.8,280,947,280.3,948.8,280.8z"/>
	<path fill="#FFFFFF" d="M1021.7,288.2c-0.4-1.1-2.2-1.3-1.8-3.3C1020.9,286.1,1022,286.7,1021.7,288.2L1021.7,288.2z"/>
	<path fill="#FFFFFF" d="M674.2,336.7c-0.5,1-1.4,1-2.4,0.7C672.3,336.2,673.3,336.6,674.2,336.7z"/>
	<path fill="#FFFFFF" d="M667.2,331.9c0.5-1.6,1.4-0.7,2.5-1.2C668.8,331.8,668.3,332.3,667.2,331.9z"/>
	<path fill="#FFFFFF" d="M676.7,394.3c0.2,1.2-0.1,1.7-1.4,1.1C675.4,394.6,675.8,394.3,676.7,394.3z"/>
	<path fill="#FFFFFF" d="M964.4,276.4c-0.3,1.3-0.8,1.6-1.5,1.8C962.6,277,963.5,277,964.4,276.4z"/>
	<path fill="#FFFFFF" d="M946.1,266.5c0.3-1.1,1-1.3,1.9-1.9C947.8,265.7,947.3,266.3,946.1,266.5z"/>
	<path fill="#FFFFFF" d="M1027.4,294c-1.4,0.1-1.9-0.4-2.3-1.2C1026.1,292.5,1026.6,293.2,1027.4,294z"/>
	<path fill="#FFFFFF" d="M1007.8,312.4c-0.6,0.8-1.5,1.1-2.5,1.2C1005.7,311.9,1007,312.6,1007.8,312.4L1007.8,312.4z"/>
	<path fill="#FFFFFF" d="M921.7,306.9c-0.1-1.5,0.6-1.8,1.6-1.9C923.2,306,922.8,306.6,921.7,306.9z"/>
	<path fill="#FFFFFF" d="M738.5,421.4c0.9-0.7,1.5-0.3,2,0.2C739.9,422.5,739.3,422.3,738.5,421.4z"/>
	<path fill="#FFFFFF" d="M667.5,369c0.7-0.7,1.2-0.5,1.9-0.2C668.8,369.2,668.5,370.2,667.5,369z"/>
	<path fill="#FFFFFF" d="M670.9,405.7c-0.4,0.4-0.8,0.9-1.5,0.6C669.5,405.1,670.2,405.3,670.9,405.7z"/>
	<path fill="#FFFFFF" d="M1008.3,289.7c0.2,1.1-0.5,1.4-0.7,1.9C1007,290.8,1007.6,290.3,1008.3,289.7z"/>
	<path fill="#FFFFFF" d="M940.1,307.5c-1.2,0.4-1.5-0.2-1.9-0.6c-0.2-0.2-0.1-0.6,0.2-0.5C938.9,306.7,939.3,307.1,940.1,307.5z"/>
	<path fill="#FFFFFF" d="M991.8,275.2c-0.2,0.6-0.6,1-1.4,0.8C990.5,275.1,990.9,274.8,991.8,275.2z"/>
	<path fill="#FFFFFF" d="M677.4,330.5c-1.1,0.3-1.5-0.1-1.8-0.8C676.3,329.3,676.9,329.5,677.4,330.5z"/>
	<path fill="#FFFFFF" d="M982.4,271.5c0.1-0.6,0.6-0.8,1.4-0.8C983.5,271.4,983.3,272,982.4,271.5z"/>
	<path fill="#FFFFFF" d="M969.7,285.1c0.3-0.6,0.6-1,1.2-0.7C971,285,970.7,285.3,969.7,285.1z"/>
	<path fill="#FFFFFF" d="M985.6,296.1c0,0.4-0.2,0.7-0.6,0.7c-0.2,0-0.4-0.2-0.5-0.4c-0.1-0.4,0.2-0.7,0.6-0.7
		C985.3,295.7,985.4,295.9,985.6,296.1z"/>
	<path fill="#FFFFFF" d="M967,298.8c-0.4,0.6-0.7,0.9-1.2,0.5c-0.1-0.1-0.3-0.5-0.2-0.6C966,298.3,966.5,298.5,967,298.8z"/>
	<path fill="#FFFFFF" d="M1018.4,310.6c-0.7,0.7-1.1,0.6-1.5,0.2C1017.1,309.9,1017.7,310.4,1018.4,310.6z"/>
	<path fill="#FFFFFF" d="M976.8,306.1c1.5,0,2.7,0,3.3,1.5c-1.1,4.1-6,1.5-7.9,5c-0.6-1.8-0.4-3-0.1-3.9c1.3-1.1,1.2,0.9,2,0.4
		C975.5,308.7,975.8,307.3,976.8,306.1z"/>
	<path fill="#FFFFFF" d="M187.3,474c-1-0.8,0.7-2-0.6-2.6c-0.8-1.3-1.6,0.7-2.6,0c-0.2-2.5,1.2-3.7,3.4-3.7c1.9-0.1,3.4,1.1,3.5,3
		C191.1,473,189.5,474.1,187.3,474z"/>
	<path fill="#FFFFFF" d="M186.7,460.8c-1.8-0.2-3.1-1-3.2-3.2c0-1.9,1.6-3.4,3.6-3.3c1.9,0.1,3.2,1.1,3.4,3.2
		C190.6,459.3,188.8,460.9,186.7,460.8z"/>
	<path fill="#FFFFFF" d="M187.9,448.7c-1.7-1.3-1.5-2.8-1.2-4.2c0.8-0.7,1.6-0.5,2.7-0.1C189.8,446,190.6,447.7,187.9,448.7z"/>
	<path d="M894.3,442.8c2,0,2.3,1.5,2.9,2.5c1.8,3.1,2.9,6.4,5.5,9.2c4.1,4.4,3.6,15.5-0.1,20.4c-0.6,0.8-0.9,1.6-1,2.6
		c-0.4,3.9-3,7.3-3.2,11.3c-0.1,1-1,2.2-2.4,3.1c-0.2-1.9,0-3.4,0.6-4.8c3.3-7.4,3.7-15.3,3.9-23.2c0.1-6.4-2.5-11.9-5-17.5
		C895,445.5,894.1,444.4,894.3,442.8z"/>
	<path d="M885.5,419.5c-6.6-4.9-9.8-11.6-9.8-19.9c1.7-0.2,1.9,0.9,2,1.6c1,9.3,7.2,15.3,13.1,21.6c2.3,2.5,4.1,5.2,5.4,8.2
		c0.3,0.7,0.6,1.4-0.1,2.2C891.7,429.5,886.3,426.4,885.5,419.5z"/>
	<path d="M873.9,496c-1.8-6.2-4-12-8.3-16.8c-2.5-2.9-4-6.1-4.3-10.2c0.9,0.1,1.3,0.1,1.3,0.2c1.5,4.7,4.7,8.1,7.9,11.7
		c2,2.3,3.3,5.1,4,8.1c0.8,3.3,3.3,5.3,6.5,5.4c0.8,2.4,3.7,4,3.2,7.4c-2.7-2.8-5.6-5.2-9.2-6.8C874.7,495,874.8,496.1,873.9,496z"
		/>
	<path d="M921.9,385.4c-2.2,12.6-6.3,23.9-15.3,33c0.1-2.2,1.1-4,2.7-5.2c2.3-1.6,3.2-3.9,3.9-6.4c2-6.2,4-12.3,6.1-18.5
		C919.7,387.4,919.6,385.9,921.9,385.4z"/>
	<path d="M867,385.7c-0.6-4.5-0.7-8.6,1.3-12.5c-1.4-3.1-0.3-6.4-1.6-9.9c3,1.4,3.4,3.6,3,5.9c-0.6,4.2-0.8,8.4-0.4,12.6
		C869.6,383,869.4,384.5,867,385.7z"/>
	<path d="M861.3,475.3c-0.6,7.7-6.5,13.2-6.9,20.8c-2.2-1.5-1.8-3.3-1.1-4.8c2.4-4.8,5.1-9.4,6-14.8
		C859.3,475.9,859.7,475.4,861.3,475.3z"/>
	<path d="M946,517.9c5-2.4,9.9-2.9,14.3-4.9C959.8,516.6,953.6,518.7,946,517.9z"/>
	<path d="M916.8,359.4c2.9-1.3,4.5-0.4,5.4,1.3c1.1,2,1.6,4.1-0.8,6.4C920,364.5,919.7,361.4,916.8,359.4z"/>
	<path d="M868.9,386.8c0.7,2.8,2.1,5.3,1.1,8.2c-2.4,0.4-3.1-1-3.5-2.6C865.9,390.4,866.5,388.9,868.9,386.8z"/>
	<path d="M931,527.3c4.2-3,7.7-7.2,13.1-8.3C940.2,522.5,935.8,525.2,931,527.3z"/>
	<path d="M895.1,337.4c4,2.5,5.8,6.2,6.3,10.7c-2.5-0.8-2.4-3.4-3.4-5.1c-1.1-1.8-2.6-3.3-3.2-5.3
		C894.9,337.6,895,337.5,895.1,337.4z"/>
	<path d="M904.3,444.5c-1.8-2.4-5.2-4-4.3-8.5C904.2,438,903.2,441.8,904.3,444.5z"/>
	<path d="M958.7,505.9c-2,3.4-5.3,4-9,3.9C952.4,507.8,955.2,506.1,958.7,505.9z"/>
	<path d="M909.7,506.4c-1.9-2.9-4.7-5.5-4.5-10.2C908.4,500.1,908.4,500.1,909.7,506.4z"/>
	<path d="M893.2,504.1c-1.9-3.6-1-7.3,2.7-10.8C895.4,497.4,892.5,500.4,893.2,504.1z"/>
	<path d="M902.2,521.1c-2,4.7-4.7,6.6-7.8,5.7C896.7,524.4,899.4,523,902.2,521.1z"/>
	<path d="M871.5,533.8c0.4,4-0.4,5.9-3.7,8.2C868.5,538.6,870.5,536.4,871.5,533.8z"/>
	<path d="M947.2,511.6c-3,2.5-6.7,3.7-10.5,4.6C940.3,514.8,943.4,512.5,947.2,511.6z"/>
	<path d="M918.9,374.4c2.2,1.6,2.5,3.1,1.8,7.8C919,379.1,918.5,376.7,918.9,374.4z"/>
	<path d="M880.1,532.5c0.4-2.3,0.8-4.7,1.1-7.1C882.8,527.7,882.6,529.9,880.1,532.5z"/>
	<path d="M994.9,494.7c-1.1,3.1-3.1,2.9-5.6,2.8C991,495.8,992.2,494.5,994.9,494.7z"/>
	<path d="M863.9,356.3c2.3,1.1,3.2,2.9,2.5,5.8C864.3,360.4,864.6,358.1,863.9,356.3z"/>
	<path d="M914.3,350c-1.3-1.3-1.2-2.7-1.6-4.1C915.5,347.4,915.6,347.6,914.3,350z"/>
	<path d="M905.9,511.1c0.5,1.6,0.2,2.9-1.1,4.1C903.6,513.3,904.4,512.1,905.9,511.1z"/>
	<path d="M902.4,423.4c-0.2-2.2,0.6-3.3,2.9-4.2C904.8,421.1,904,422.3,902.4,423.4z"/>
	<path d="M915.3,351.9c1.7,1,1.9,2.3,0.9,4.1C914.7,354.6,915.4,353.1,915.3,351.9z"/>
	<path d="M977.5,499.8c1.2-2,2.5-2,4.2-2.2C980.6,499.2,979.5,499.5,977.5,499.8z"/>
	<path d="M866,521.3c2,0.6,2,2.3,2.6,4.5C866.9,524.3,866.7,522.7,866,521.3z"/>
	<path d="M988.9,505.2c1-1.3,1.9-1.5,3.3-1C991.3,505.4,990.4,505.6,988.9,505.2z"/>
	<path d="M903.3,519.6c0-1.7,0.5-2.4,1.9-2.6C905.6,518.5,904.9,519.1,903.3,519.6z"/>
	<path d="M898.2,438.2c-1.2-1.1-1.2-1.9-0.3-2.8C898.8,436.2,898.9,437,898.2,438.2z"/>
	<path d="M983.3,505.4c0.7-0.5,1.2-0.3,1.7,0.1c0.1,0.9-0.5,0.8-0.9,0.6C983.8,506,983.6,505.6,983.3,505.4z"/>
	<path d="M991.8,484.2c-0.1,1.3-0.6,1.8-1.7,1.7C990,484.9,990.5,484.4,991.8,484.2z"/>
	<path d="M912.3,340.4c0.9,1,1.4,1.8,0,2.7C911.7,342.3,911.6,341.5,912.3,340.4z"/>
	<path d="M984.2,497.9c0.2-0.7,0.8-0.6,1.2-0.8c0.5,0.7,0.2,1-0.3,1.1C984.7,498.4,984.4,498.4,984.2,497.9z"/>
	<path d="M736,378c1.4,2.1,0.3,3.9-0.6,5.5c-2.5,4.6-6.7,7.4-11.1,9.9c-1.5,0.9-2.7,1.9-3.7,3.3c-3.1,4.4-7.9,5.9-12.9,7.1
		c-1.4,0.3-2.9,0.6-4.4,0.6c-2.4,0.1-4.4,0.8-6.2,2.4c-2.3,2.1-5.3,2.3-9.2,1.2c3.7-1.6,6.9-3.1,10.2-4.3c8.7-3.1,17-7,24.7-11.9
		c4.4-2.8,7.3-7.2,10.3-11.4C733.9,379.6,734.1,378.1,736,378z"/>
	<path d="M855.2,311.1c-6.5,2-13,3.2-19.8,3.1c-6.7-0.1-13.5-0.1-20.2-0.2c-1.8,0-3.3,0.3-4.9,1.1c-5.6,2.9-11.7,4.7-17.4,7.4
		c1.2-1.8,3.1-2.6,4.8-3.6c6.7-4,13.6-7.2,21.8-6.6c4.3,0.3,8.6,0.1,12.9,0.2c6,0.1,12,0,17.9-1.5
		C851.8,310.6,853.5,310.5,855.2,311.1z"/>
	<path d="M734.4,409.1c2.7-1.9,5.3,0,8,0.1c3,0.1,5.9,0,8.8-0.3c2.7-0.2,5.3-1.6,8,0.2C751,411.7,742.7,413.6,734.4,409.1z"/>
	<path d="M854.7,304.9c-10.4-0.4-20.2,0.9-30.5,0C827.8,302.6,849.7,302,854.7,304.9z"/>
	<path d="M792.8,320.3c-2.6,3.6-7.4,3.9-10.4,7c-0.7,0.9,0.9,1.4,0.2,2.8c-3.2,1.8-4.6,5.8-7.8,8.4c0.1-2.8,1.1-5.4,2.8-7.2
		C782.2,326.9,785.2,320.6,792.8,320.3z"/>
	<path d="M730.5,410c-4,3.3-7.9,3.8-12.2,2.5c-2.8-0.9-5.5-0.2-8.2,0.9c-3.8,1.6-7.6,2-11.3-0.5c3-0.6,6-1.6,9.3,0
		c3.6-1.5,7.6-1.8,11.6-1.1c2.1,0.4,4.1,0.2,6.1-0.9C727.1,410.2,728.5,410,730.5,410z"/>
	<path d="M766.6,383.4c-0.7,0.8-1.5,0.8-2.2,0.6c-6.4-1.5-12.5-4.5-19.4-4.5c2.2-1.9,4.7-2,6.8-1c3.8,1.6,7.5,2.9,11.6,2.7
		C764.7,381.1,766.2,381.5,766.6,383.4z"/>
	<path d="M784.2,320.1c-9.7,0.8-18.7,5.4-28.7,5C765.2,323.9,774.3,319.7,784.2,320.1z"/>
	<path d="M752.7,326.6c-4.4,2.7-8.7,5.5-14,5.7C742.8,328.9,747.3,326.6,752.7,326.6z"/>
	<path d="M790.1,407.4c3.7-4,9-5.4,12.6-9.1c1.5,1,1.4,1.8,0.7,2.5c-0.7,0.8-1.6,1.5-2.5,2.1C797.6,405.1,793,404.3,790.1,407.4z"/>
	<path d="M801.2,306.4c6.5-0.2,12.8-2.1,19.3-2C816.1,306.4,805.3,307.5,801.2,306.4z"/>
	<path d="M779.2,397.9c-2.3,2.8-5.9,3.6-8.5,6.1c-1,1-1.6,2.8-3.6,2.8C769.3,401.6,775,397.5,779.2,397.9L779.2,397.9z"/>
	<path d="M795,391.2c5-0.1,6.7,1.2,6.9,4.7C798.4,396.1,797.4,392.7,795,391.2z"/>
	<path d="M779.2,398c2.1-2.6,5.2-3.6,8.1-5.6C787.6,396.2,784.6,398.1,779.2,398L779.2,398z"/>
	<path d="M689.8,347.5c0-6.4,0-12.8,0-19.2c1.8,6.3,0.8,12.8,0.9,19.2C690.4,347.4,690.1,347.4,689.8,347.5z"/>
	<path d="M751.8,402.6c0.4-1.9,1.1-3.2,2.7-3.3c1.6-0.1,2.6-1.1,3.8-1.9C758.2,400.4,755.5,402.6,751.8,402.6z"/>
	<path d="M787.2,387.9c3.4-0.5,5.3,0.3,6.5,3.2C790.7,391.6,789.5,389.4,787.2,387.9z"/>
	<path d="M812.5,408.2c-1.3,2.5-3.4,2.3-6.1,2.2C808.3,408.2,810.3,407.9,812.5,408.2z"/>
	<path d="M778.5,341.2c-0.5,0.1-0.9,0.2-1.4,0.2c0.2-2.8,0.2-2.8,3-4.5c1.4,1-0.2,1.9-0.2,2.8C780.3,340.9,779.7,341.4,778.5,341.2z
		"/>
	<path d="M781.3,386.5c-3,0.4-4.9-0.6-7.1-1.2C776.6,383.9,777.5,384.1,781.3,386.5z"/>
	<path d="M766.2,391.5c-1,2.3-3.2,3-5.6,3.6c1.7-1.4,3.4-2.8,5-4.2C765.8,391.1,766,391.3,766.2,391.5z"/>
	<path d="M687.4,330.7c0.9,3.5,0.5,7,0.1,10.6C686.6,337.8,686.9,334.3,687.4,330.7z"/>
	<path d="M746.3,392c1.3-1.6,2.3-3.7,5-4.6C750.6,390.4,748.2,390.9,746.3,392z"/>
	<path d="M817.4,414.9c-1.2,1.8-2.9,1.7-4.6,1.3C814.2,415.1,815.7,414.5,817.4,414.9z"/>
	<path d="M736.4,372.7c-0.3,1.6-0.4,3-2,3.6C733.7,374,733.7,374,736.4,372.7z"/>
	<path d="M682.3,410.1c0.9-1,2.1-1,3.4-1.1C684.6,411.4,684.6,411.4,682.3,410.1z"/>
	<path d="M736.3,332.5c-0.8,1.6-2.2,2-4.1,1.8C733.4,332.7,734.7,332.2,736.3,332.5z"/>
	<path d="M790.7,408.8c0.3,1.4-0.2,2.1-1.2,2.5c-0.8-0.1-0.8-0.6-0.6-1.1C789.1,409.6,789.3,408.9,790.7,408.8z"/>
	<path d="M802.3,413.1c0.1-1.5,1.2-1.6,1.9-1.9c0.3,0.3,0.6,0.5,0.6,0.6C804.4,412.9,803.5,413.2,802.3,413.1z"/>
	<path d="M738.6,372.9c0.6-1.7,1.6-1.8,3-1.5C741,372.6,740.2,373.1,738.6,372.9z"/>
	<path d="M778.5,341.2c0.5-0.5,1-1,1.5-1.5c0.9,0.2,1.9,0.4,1.1,1.6C780.3,342.4,779.3,342.4,778.5,341.2z"/>
	<path d="M770.7,384.6c-0.4,1.2-1.3,1.2-2.3,1C769.2,384.5,769.2,384.5,770.7,384.6z"/>
	<path d="M745.2,393.4c0.1,0.8-0.4,1.1-1,1.3C743.4,393.4,743.9,393.1,745.2,393.4z"/>
	<path d="M381.2,398.2c-1,2.5-3,3.5-5.1,4.2c-5.4,1.8-10.9,2.8-16.7,1.9c-3.6-0.6-7.4,0.2-10.9-1.5c3.6-1.7,7.7-2.3,11.7-2
		c1.4,0.1,2.5,0,3.8-0.3c4.9-1.2,9.8-2.4,14.7-3.6C379.8,396.6,380.5,397.1,381.2,398.2z"/>
	<path d="M379.7,416.1c0.2,1.7-1.2,2-2.2,2.5c-3.9,2-8,2.3-12.1,1.2c-2.5-0.7-4.8-0.8-7.5-0.4c-4.8,0.7-9.6,1.6-15,0.6
		c1.8-1.4,3.6-1.9,5.2-2.1c4.9-0.7,9.9-1.4,14.9-0.1c4.8,1.3,9.5,0.6,14-1.4C377.8,416,378.7,415.2,379.7,416.1z"/>
	<path d="M344.8,403.6c-0.4,1.4-0.9,1.7-1.3,1.6c-6.9-1.2-13.5,1.6-20.3,1.9c-4,0.1-8,0.7-12,1.1c-0.7,0.1-1.5,0-2.5-1.2
		c3.4-0.4,6.3-0.9,9.3-1c3.5-0.1,6.8-0.6,10-1.8c1.3-0.5,2.6-0.5,4-0.5C336.2,403.6,340.4,403.6,344.8,403.6z"/>
	<path d="M391.7,406.4c2.4-0.6,4.6-1.4,7-0.7c5.8,1.5,11.3,4.7,17.8,2.2c-1,2.4-2.9,2.4-4.6,2.6c-2.7,0.3-5.3-0.4-7.9-1.2
		c-3.8-1.2-7.5-2.8-11.7-2.1C392.2,407.1,392,406.8,391.7,406.4z"/>
	<path d="M317,423.1c6.4-0.9,12.9-1.8,20-2.8c-6.7,3.6-13.4,2.8-19.9,3.8C317.1,423.8,317,423.4,317,423.1z"/>
	<path d="M237.2,420.8c4.2-2.9,8.8-1,14-1.5c-2.9,2.9-5.2,0.3-7.4,0.8C241.7,420.6,239.7,422.4,237.2,420.8z"/>
	<path d="M411.1,417.1c3.9,0,7.8-0.7,11.7,0.1C418.9,417.4,415,418.7,411.1,417.1z"/>
	<path d="M387.3,408c-1.6,1.8-3.7,2.6-6.8,2.5C382.6,407.9,385.3,409,387.3,408z"/>
	<path d="M389.7,395.7c-1.3,1-2.2,3-4.6,1.7C386.4,395.7,388.1,395.6,389.7,395.7z"/>
	<path d="M302.3,409.6c-1.4,1.3-2.7,1.2-4.5,0.2C299.4,408.5,300.9,409.2,302.3,409.6z"/>
	<path d="M258.3,418.8c-0.8,1.6-1.9,1.4-3.3,1.3C255.8,418.3,256.9,418.4,258.3,418.8z"/>
	<path d="M952.7,485.6c-4.6,0.3-4.8,0.1-6.5-4c-0.7-1.7-2.1-3.2-1.7-5.5C945.8,480.5,949,483.3,952.7,485.6L952.7,485.6z"/>
	<path d="M928.4,493.6c-2,1.3-3.4,1.3-5.3,0C925,492.9,926.4,492.5,928.4,493.6z"/>
	<path d="M946.7,489.3c-2.2-1.1-2.3-1.4-0.2-3.2C947.8,487.1,946.5,488.3,946.7,489.3L946.7,489.3z"/>
	<path d="M920.4,493.4c-0.8,0.9-1.4,0.7-2.4,0.3C918.8,492.9,919.4,492.9,920.4,493.4z"/>
	<path d="M670.7,384.4c1.9-1.7,4.1-2.1,6.9-2.3C675.6,385,672.9,384.2,670.7,384.4z"/>
</g>
</svg>
