<?xml version="1.0" encoding="utf-8"?>
<!-- Generator: Adobe Illustrator 19.1.0, SVG Export Plug-In . SVG Version: 6.00 Build 0)  -->
<svg version="1.2" baseProfile="tiny" id="Layer_2" xmlns="http://www.w3.org/2000/svg" xmlns:xlink="http://www.w3.org/1999/xlink"
	 x="0px" y="0px" width="900px" height="600px" viewBox="144 97 900 600" xml:space="preserve">
<g>
	<path d="M504.3,468.9c-2-2.3-4.7-3.4-7.5-4.1c-12.6-3.1-25.4-4.5-38.2-6.4c-8.7-1.3-17.1-3.4-25.4-6.6c-7.6-3-16.1-3.4-24.4-2.5
		c-11.1,1.2-22.2,0.8-33.4-0.1c-5.7-0.4-11.1-2-16.4-4c-6.8-2.5-13.7-4.1-20.9-4.6c-4.5-0.3-4.9-0.1-5.9,4.1
		c-0.7,2.7-1.6,5.2-4.2,7.1c1.2,5.6,2.6,11.1,3.2,16.7c0.9,9.2,0.2,18.3-2.3,27c-1.6,5.4-3.9,10.9-7.5,15.4
		c-3.8,4.8-4.8,10.4-6.1,16c-0.1,0.7-0.3,1.3-0.4,2.1c-2.5-2.5-3.7-10.8-2.1-13.6c0.9,0.2,0.1,1.3,0.8,1.7c0.2-0.1,0.5-0.3,0.6-0.4
		c1.4-4.1,3.7-7.7,6-11.3c2.7-4.1,4-8.6,5-13.4c2.6-13,2.4-26,0.5-38.9c-0.7-4.9,1.3-7.8,4.5-10.6c0.6-0.5,1.2-1,1.7-1.9
		c-4.4,1.6-9.2,2.3-12.7,6c-1.9,2-4.3,3.4-7.3,2.6l0.1,0.1c3.9-3.8,8.4-7,13.2-9.2c9.1-4.1,18.2-8.5,28.6-8.1
		c2.4,0.1,4.9,0.4,7.4,0.7c-0.3-1.8-1.4-2.9-2.6-3.8c-6.6-4.7-12.8-9.9-20-13.8c-5.2-2.8-10.9-3.7-16.4-5.5
		c-12.1-4-24.7-6.4-37-11.1c-2.7,4.9-3.7,10.1-5.2,15.2c-0.5,0-1.2-0.4-1.7,0.6c-5.4,10.9-6.8,22.3-4.2,34.1
		c3.6,3.4,2.9,8.5,4.9,12.6c1.8,3.6,1.2,7-1.3,10c-1.2,1.5-1.8,3-2.3,4.7c-1.2,4.1-2.7,8-3.7,12.1c-1.7,6.3-1.6,12.9-0.6,19.3
		c0.9,6.1-0.5,11.6-1.6,17.4c-0.3,1.5-0.8,2.9-0.9,4.4c-0.7,9.6-0.8,19.2,1.2,28.7c0.7,3.4,3.2,5.7,5.6,8c2.7,2.5,5.4,4.8,8.8,7.8
		c-6-0.2-9.2-3.4-12-6.9c-3.5-4.4-5.7-9.5-6.3-15c-1.3-11.2-1.9-22.3,2.4-33.1c0.6-1.5,1-3.2,0.7-4.9c-1.1-6.1-0.6-12.3-1-18.5
		c-0.3-5.3,0.2-10.5,2.3-15.4c2.5-5.7,4.1-11.6,6-17.7c-2-5.9-4.9-11.7-6.1-18.1c-1.4-7.7-1.3-15.2,2.1-22.6
		c3.9-8.5,7.1-17.2,10.5-25.9c0.5-1.1,0.6-2.4,1-3.9c-5.8-5.3-8.8-11.7-7.1-19.9c2.3,6.4,4,13,9.6,18c3.4,1.6,6.4-1.5,9.6-2.7
		c0.9,1.8-1.1,2-0.8,3.8c-0.1-0.3,0.3-0.1,0.7-0.1c2.5,0.3,4.9,0.6,7.4,0.9c9.2,0.8,17.4-2,24.8-7.3c3.7-2.7,7.1-5.6,10.8-8.3
		c5.9-4.4,10-9.7,10.6-17.8c-5.3-2.5-11.4-4.4-16.4-8.3c5.5,2,10.6,5.1,16.6,6.4c2.6-6.5,0.4-12.2-2.8-17.6
		c-4.7-7.9-11.6-13.9-18.3-20.1c-1.2-1.1-2.7-1.8-3.6-3.5c1.9-0.5,2.8,0.8,3.9,1.4c6.5,4.2,12.3,9.2,17.5,15
		c4.3,4.9,6.4,10.9,7.8,17c0.6,2.8-1.2,5.6-0.7,8.4c1.1,1.3,3.2,0.4,4.1,2c-1.5,1.6-3.1-0.3-4.6,0.2c-4.7,12.4-13.3,21.5-24.1,28.8
		c-11.3,7.6-23.6,8.4-36.8,4.6c-0.4,0.7-0.8,1.3-1.1,1.9c-0.4,0.6-0.8,1.1-1.4,2c5.3,1.9,10.5,3.6,15.7,5.3
		c7.1,2.3,14.2,4.5,21.5,5.8c5.9,1,11,3.3,16.1,5.9c2.2,1.1,4.3,2.5,6.1,4.2c3.4,3.1,8.2,4.4,11.1,8.3c2.2,3,4.6,5.8,7.1,8.8
		c2.2-1.5,4.3-1.4,6.7,0.4c-2,0.3-3.6,0.5-6,0.8c2.6,3,5,5.7,6.5,9.1c10.7,2.1,21.3,1.6,31.8,0.7c8.5-0.7,16.8,0,25,2
		c1.1,0.3,2.2,0.5,3.1,1c6.7,3.4,14,4.7,21.4,5.8c9,1.3,18,2.5,26.9,4c5.7,0.9,11.3,2.3,16.9,3.5c1.2,0.3,2.4,0.8,2.8,2.2
		c0.4,1.2,1.3,1.2,2.7,1.1c1.6-4,3.3-8.2,5.1-12.7c-5.3,0.7-10.2,1.4-15.1,2c-0.1-0.3-0.1-0.6-0.2-0.9c5.5-1.9,11-3.7,17-5.1
		c1.3-1.1,2.2-2.8,3.4-4.6c-2.1-0.5-2.8,2.2-4.6,1.8c1.3-2.9,4.7-4.7,7.7-4c5.3-6.6,6.8-14.6,8.4-22.5c1.3-6.2,2-12.5,3-18.7
		c0.5-3.3,2.9-6.6,3.1-10.2c0.4-6.6,0.5-13.3-2.6-19.5c0-0.2-0.1-0.4-0.1-0.6c0-2.5-0.9-5.1,0.8-7.5c0.5-0.7,0.4-1.6,0.2-2.4
		c-2.4-7.5-1.6-15.6-4-23.1c-0.2-0.5-0.3-1.1-0.4-1.6c-0.5-1.9-0.4-3.7,1.8-4.3c2.2-0.6,3.3,0.9,4,2.7c1.6,4.3,2.6,8.6,2.8,13.2
		c0.2,7,3.8,12.9,7.2,18.7c0.6-3.2-0.4-6-1.3-8.9c-2.6-8-2.3-16.6-5.4-24.5c-0.6-1.6-0.1-3.1,1.7-3.6c2.1-0.6,3.6,0.6,4.3,2.3
		c1.6,4.1,3.1,8.2,3.8,12.6c1,6.5,4.9,11.1,10.1,15.8c0.3-4.2-1.4-7-3.5-9.4c-4.1-4.6-5.8-10-5.5-15.9c0.1-2.9,0.4-5.7-0.6-8.5
		c-0.6-1.5-0.7-3.2,1.1-3.9c1.6-0.7,3,0.3,3.7,1.7c1.1,2.1,2.6,3.9,3.6,6c1.9,4,3.7,8,6.9,10.7c-0.7-2.3-1.9-4.9-3.4-7.4
		c-2.2-3.8-1.7-8.5-0.7-11.9c2.3-7.7,0-13.9-4.1-19.7c-5.9-8.4-12.2-16.6-17.4-25.5c-4.7-8-11.6-14.3-17.6-21.2
		c-8.7-10-19.1-18.3-29.7-26.1c-7.5-5.6-14.9-11.1-22.1-17.1c-4.3-3.5-9.5-4.3-14.7-4.4c-9.1-0.3-18.1-0.2-27.2-0.7
		c-13-0.7-25.3,2.8-37.3,7.7c-6.5,2.6-12.6,5.7-18.2,10.2c-6.3,5.2-14.5,5.6-22.3,6.8c-9.3,1.4-18,4.5-24.9,11.5
		c-4.5,4.6-9.1,9.2-13.3,14.1c-2.3,2.7-3.8,5.6-4.1,9.2c-0.2,2.5-0.8,4.9-1.8,7.2c-0.9,1.9-1.7,4.2-4.5,4.1
		c-0.2-0.1-0.4-0.2-0.5-0.3c-0.4-1-1.1-1.8-0.2-3c1.7-2.5,2.1-5.5,2.1-8.3c0.1-4.4,2.1-7.9,4.4-11.3c3.6-5.3,7.3-10.5,12.2-14.5
		c11.9-9.9,25.3-15.8,41.5-14.7c7.6-3.7,14.3-9.3,19.7-15.9c1.4,0.4,0,1.5,0.6,1.6c17.2-7.5,34.8-11,53.3-9.6
		c8.5,0.6,17,0.9,25.5,0.9c7,0.1,11.8,4,16.4,8.4c2.4,2.3,4.2,5.7,7.2,6.7c5.2,1.7,8.6,5.6,12.7,8.5c5.4,3.8,10.5,8,15.7,12
		c14,10.9,24.8,24.4,33.8,39.6c2.4,4,5,7.9,7.9,11.6c2.9,3.6,5.7,7.4,8.4,11.2c4.3,6.3,7.2,13.3,4.1,21.3c-0.8,2.1-1,4.5-1.7,6.7
		c-1,2.8,1.4,4.5,2.8,6.5c10.1,0.5,20.3,1.3,30.5,1.4c18.6,0.1,37,2.5,55.6,3.3c8.9,0.4,17.5,2.8,25,8.4c4.9,3.7,10.4,6.5,16.6,8
		c2.6,0.7,5.1,2,7.4,3.6c9.9,7,21,11.5,32.2,15.6c4,1.5,6.1,3.7,5.9,7.8c-0.2,3.8,1.8,5.6,4.9,7.1c6.6,3.1,13,6.6,18.9,10.9
		c3,2.2,5.9,4.4,8.7,6.8c3.1,2.6,6.5,3.8,10.6,3.9c5.9,0.2,11.3,2.1,17,3.8c7.2,2.3,14.5,4.2,21.8,6.4c11.4,3.3,22.5,7.2,33.4,12
		c4.2,1.9,7.6,4.9,11.6,7c8.4,4.4,17.5,7.4,25.9,11.7c8.1,4,16.8,6.7,24.5,11.6c4,2.6,8.9,3.5,13.6,4.4c2.2,0.4,4.3,0.7,5.8,3
		c2.1-2.6,4.6-2.4,7-1.7c8.4,2.4,17.1,2.2,25.6,4c4.1,0.9,8.1-0.7,12.2-0.9c7.9-0.3,15.6-1.5,23.4-2.3c3.8-0.4,7.7-0.6,11.5-0.6
		c2.6,0,4.9,0.8,7.1,2c1.8,1,2.9,2.4,2.6,4.7c5.1,2.5,9.7,5.6,14,9.8c-2.9,4.2-1.4,9-2.3,13.4c-1,5.7-2.1,11.8-5.4,16.2
		c-4,5.2-9.8,9-16.1,12.3c0.1-2.8-1.1-4-3.2-4.6c-2.6-0.8-5.2-1.5-7.2-3.7c-1.1-1.3-3.1-1-4.7-0.9c-7.7,0.3-15.4-0.9-23.1,0.2
		c-7.4,1.1-14.1-1.9-20.8-4.4c-4.4-1.6-8.8-3.1-13.4-3.6c-2.1-4.2-3.6-5-7.4-3.9c-2.3-2.3,0.6-4.6,0.2-6.2
		c-29.9-14.5-61-20-93.8-17.5c0.3,1,1.3,1,2.1,1.3c6.2,1.7,12.6,3,18.6,5.3c3.4,1.3,6.1,3.5,9.6,4.8c10.7,3.9,22,4.6,33.1,6.4
		c7.3,1.2,14.7,2.2,21.9,3.9c2.2,0.5,4,1.7,5.8,3c1.2,0.9,1.1,1.8-0.1,2.8c1.9,0.5,3.7,1,5.7,1.5c-3.2,2.2-4.6,2-9-1.4
		c-4.7,1.7-8.3,11.7-7.8,22.3c1.4,1.8,3.2,2.4,5.4,2c4.3-0.8,8.3,0.8,12.8,1.9c-2.4,1.9-4.9,0.8-7,1.6c-0.1,1.4,0.9,1.6,1.8,2
		c10.1,4,19.8,8.8,29.3,14.2c2,1.1,4.3,1.7,6.6,2.5c7.9,2.7,15.8,5.5,23.1,9.8c1.3,0.8,2.6,0.9,4,0.6c5.2-1,10.5-2.1,15.6-3.1
		c5-12.4,9.8-27,5.8-35.1c4.2,3.6,6.3,8.2,5.8,13.9c-0.5,6-2.7,11.5-5.4,16.8c-0.8,1.7-2.1,3.1-2.1,5.2c0,1.7-1.6,2.4-3.2,2.7
		c-5.4,1-10.8,2.1-16.2,3.1c-1.9,0.3-3.9,0.2-5.6-0.9c-6.9-4.4-14.9-6.3-22.3-9.3c-7.9-3.2-16-5.8-23.2-10.6c-1.5-1-3.6-1.4-5.5-1.8
		c-4.8-1.1-9-4-12.4-8.4c-4.8,0.2-9.2-1-10.8-6.8c-13.2-1-26.2-2.6-39.2-0.8c-12.5,1.8-25.2,2.2-37.8,3.7c-14.4,1.7-29,1.7-43.1-1.4
		c-7.8-1.7-15.7-2.8-23.4-4.5c-5.2-1.1-10-3.6-15.4-4.2c-2.9-0.3-5.7-1.1-8.9-0.8c-4.4,0.4-8.8-1-12.3-3.8c-1.8-1.4-3.5-1.8-5.7-1.8
		c-6.2-0.1-12.3,0.3-18.7-0.9c-1.5,5-4.7,9.2-5.6,14.5c-0.7,4.2-4.1,6.4-8.5,5.9c-10.4-1.3-20.6-3.6-30.9-5.4
		c-5.8-1-11.7-2.1-17.4-3.3c-3-0.7-6.4-0.4-8.4-3.5c-0.2-0.3-0.8-0.2-1.2-0.3c-10.6-2.2-21.1-5.5-31.9-6.4
		c-11-0.9-21.7-3.3-32.3-5.9c-1.5-0.4-3.1-0.5-4.4-1.2c-7.6-4.5-16.2-5.8-24.6-7.5c-4.8-0.9-8.8-2.9-12.4-6.7
		c-4.8-5-9.3-10.1-12.9-16c-1-1.6-2-3.2-2.2-5.1c1.9-0.9,2.5,0.3,3.1,1.3c4.2,7.7,10.6,13.6,16.5,20c1.7,1.8,4.1,2.1,6.3,2.7
		c7.1,1.9,15,2.5,21.2,6c7.8,4.3,16.1,4.8,24.2,7c8,2.2,16.3,1.7,24.5,3.1c10.6,1.8,21.1,3.7,31.4,6.9c13,4,26.6,4.9,39.8,7.5
		c3.8,0.7,7.6,1.2,11.4,1.8c3.2,0.5,5.5-0.7,6.2-3.7c1.5-6.9,4.7-13.2,6.5-20c0.5-2.1,0.9-4.1,0.3-6.1c-1.9-6.8-1.5-13.6-1.1-20.5
		c0.4-7.7,2.2-15.3,2.7-23c0.1-1.5,0.3-3-0.2-4.6c-3.5-0.9-7.1-1.8-11-2.8c0.7,5.9,0.7,11.3,0.1,16.9c-0.3-2.7-0.7-5.4-1-8
		c-0.2-2.9,0-5.8-0.8-8.7c-3.9-2.1-8.1-3.2-12.8-3.1c-2.1,3.2-1.7,7.6-4.5,10.8c0.8-3.5,1.6-7.1,2.5-10.8c-3.9-1.4-7.3,0-10.5,1.3
		c-1.4,0.6-1.4,2.3-1.5,3.7c-0.2,2.3-0.2,4.7-1.4,7.9c-1.2-4.1-0.1-7.4-0.1-11c-11.2,1.1-21.8,4.3-32.3,8c5.8-4.1,11.7-8.1,18.7-9.6
		c5.7-1.2,11.4-1.8,17.1-2.6c4-0.5,7.9-1.2,12.1-0.4c7.3,1.4,14.8,1.5,22.2,1.1c0.7,0,1.4-0.2,2.1,0.8c-2.4,2.7-5.9,1.1-8.6,2.2
		c4.4,0.7,9,0.8,13.5,3.1c-1.5,1.7-1.5,3.1-1.2,5c1.5,7.8-0.5,15.3-2.4,22.7c-0.2,0.8-0.8,1.4-0.5,2.3c1.9,6.1,1.1,12.6,3,18.7
		c1.3,4.1-0.7,7.8-1.7,11.5c1.7,1.4,3.5,1.2,5.3,1.2c3.6,0,7.2-0.1,10.7-0.2c3.5-0.1,6.5,0.4,9.6,2.7c3.3,2.4,7.9,1.8,11.9,2.7
		c5.2,1.2,10.9,1.1,15.7,3.1c4.2,1.8,8.3,3.1,12.6,3.2c8.4,0.1,16.2,2.9,24.4,3.9c15,1.7,29.9,1.1,44.8-0.7c4.5-0.6,9-0.9,13.6-0.6
		c5.7,0.4,11.2-1.5,16.8-1.8c7.6-0.4,15.1-0.4,22.7,0.1c5.3,0.4,10.7,0,15.9,1.8c0.7,0.3,1.3-0.4,1.8-1c-0.3-1.4-1-2.7-2.1-3.8
		l0.1,0.1c-0.7-4.4,1-8.4,2.8-12.3c-2.8-1.8-6.3-1.5-9.3-2.8c3.6-0.9,7-0.8,10.4,1c1.4-1.2,2.3-2.9,4.2-3.5
		c-4.9-1.9-10.1-1.7-15-3.1c-7.4-2.1-15.2-1.8-22.8-3.2c-7.8-1.4-15.2-3.6-22.4-6.9c-8-3.7-16.9-5-25.1-8c-2.2-0.8-4.4-1.4-5.3-3.4
		c-10.2-1.1-20.2-0.3-29.5-4.3c-5.8,2.9-11.6,1.2-17.4,0.7c-0.3,0-0.5-0.2-0.8-0.2c-12.3-0.1-23-5.1-32.7-12.1
		c-5.1-3.6-10.9-4.1-16.5-5.6c-6.4-1.8-12.5-4.2-18.8-6.3c-0.7-0.2-1.7-0.3-1.9-1.8c1.4-0.8,2.7-0.1,4,0.2c4.8,1.3,9.5,2.8,14.2,4.1
		c5.6,1.5,11.3,2.3,17.1,2.1c2.3-0.1,5,0.9,6.6-1.8c0.1-0.2,0.5-0.3,0.7-0.3c8,0.6,16.4-0.3,22.6,6.5c0.6,0.7,1.4,1.3,2.3,1.7
		c7.3,3.6,14.7,6.8,22.2,9.9c9.7,4.1,20.2,3.8,30.5,3.2c11.4-0.7,22.9-2.1,34.2,0.3c10.8,2.3,21.9,1.8,32.7,4c8,1.6,15.4,5,23.8,6.2
		c0.7-1.1,1.5-2.4,2.3-3.7c-1.5-1.5-3.7-1.1-5.2-2.8c2.2,0.3,4,0.5,6.1,0.7c1.7-3.9,1.3-8.2,3.2-12c-3.4-1-6.3-2-9.5-2.4
		c-4-0.5-8-1.9-11.6-4c-3.9-2.4-7.9-4.3-12-6.2c-12.9-6-26.2-11.2-38.9-18c-15.7-8.3-32.4-14.3-49.5-19.4c-8.5-2.6-17-5.4-25.6-7.9
		c-2.2-0.6-4.6-0.7-6.9-0.7c-4.9,0-9-1.8-12.6-5.2c-8.4-7.8-18.5-12.8-28.3-18.3c-0.2-0.1-0.5,0-1.1,0c0.5,7-1.7,13.6-2.9,20.3
		c-1.7,8.9-5,17.4-10,25.1c-3.3,5-5,10.6-7.5,16.3c-2.2-3.3-5.9-4-9-5.7c3-0.1,5.6,1.2,8.6,1.8c0.2-6,3-10.8,5.8-15.7
		c6.5-11.4,11.1-23.6,11-37.1c-0.1-5.2-0.1-10.4-1-15.8c-3.8-1.6-7.5-3.3-11.4-4.8c-7.6-3-14.7-6.9-21.2-11.8
		c-1.1-0.8-2.1-1.7-3.5-2c-10.2-2.1-18.9-7.4-27.3-13.1c-6.1-4.1-13.1-5.1-20-5.7c-13.8-1.2-27.7-1.9-41.6-2.7
		c-3.4,5.4-7.1,10.4-12,14.4l0.1,0.1c0.8-3.2,3.2-5.4,5-7.9c1.3-1.9,2.7-3.7,4.5-6.2c-13.8,0.1-26.8,0.7-39.8-2.6
		c-0.1,2.5,0.6,4.7,1.6,6.7c1.1,2.4,0.6,4.2-1.5,5.6c-4.6-0.1-6.9-2.3-7.8-6.7c-0.6-3-3.8-4.5-5.2-7.2c-0.5,3.6,0.1,6.8,2.3,9.6
		c3.6,4.7,5.2,10.2,6.8,15.7c1,3.2-0.6,5.1-4.8,5.8c-4.2-4.1-8.1-8.8-12.1-13.5c1.7,5.8,3.2,11.6,4.1,17.6c20.7,2.3,40.5-4,60.9-6
		c-8.3,4.5-47.8,9.3-60.6,7.4c-4,3.8-7.6,0.6-11.7-0.7c0-1.7,2.6-3.6-0.7-4.4c-2.6,1.7-2.6,4-1.6,6.9c3.3,1.1,7,0.1,10.5,1.7
		c-0.2,4.6,0.4,9.3-1.5,13.9c-1.5-0.2-0.2-1.8-1.1-2.2c-1.9-0.7-4,0-6.2-0.2c-1.9,4.3-2.2,8.9-2.6,13.4c1.3,1.8,3.5,0.8,4.9,2
		c-1.4,2.2-3.4,0.3-5,0.9c-0.7,0.9-1,1.9-1,3c0.7,1.5,2.6,1.6,3.3,3.1c-1.5,0.8-2.3-1.3-3.9-0.9c-2,5.1-3.1,10.6-4.2,16
		c0.7,1.7,2.9,1.5,4,3c-1.7,0.2-2.8-0.6-4.2-1c-1.7,2-1.6,4.6-2.5,6.8c0.9,1.5,2.8,1.3,3.9,2.6c-1.6,1.4-2.9-0.9-4.8-0.1
		c-0.7,1.3-1.6,2.9-2.6,4.7c1.6,0.9,3,1.7,4.6,2.6c-2.4,0.4-2.4,0.4-5.4-0.8c-1,1.2-1.9,2.6-2.4,4.2c2.2,1,4.5,1.5,6.7,3.4
		c-3.1,1.1-5.3-1.1-7.8-1c-0.8,0.7-1.2,1.5-1.4,2.5c0.6,1.9,3,1.6,4.1,3.2c-2,1-3.6-0.7-5.4-0.3c-0.9,1-1.5,2.2-2,3.8
		c1.4,0.5,3.4-0.2,4.5,2.2c-4.2-0.1-9.3-1.7-9.3,5.3c2.7,1.5,6.5,0.9,9.9,3.4c-3.1,0.8-5.7,0.3-8.2-0.1c-1.8-0.3-3.5-0.8-5.3-0.6
		L504.3,468.9z"/>
	<path d="M530,370.5c-2.2,0.4-2.9-1.3-3.4-2.9c-1.9-7.1-5.3-13.9-5-21.5c0.1-1.6-0.3-3.3-1.1-5.2c-8.5-2.4-17.6-3.2-25.7-6.4
		c-1.9,0.7-0.6,2.3-1.8,3.1c-0.9-1.4-0.2-4.2-3.2-4c-1.6,1.2-0.6,3.9-2.5,5.2c-1.2-2.2,0.9-4.2,0.3-6.3
		c-23.5-13.9-48.2-25.8-71.7-39.8c-4.1,2.1-8.4,3.7-10.7,8.1c-2.5-0.4-4.6,1.3-7,2.1c-11.4,3.8-23,6.3-35.1,6.7
		c-1.8,0.1-3.8-0.7-5.4,1.1c-0.4,0.4-1.6,0.2-2.4,0.1c-5.6-0.6-11.2-1.6-16.8-2c-10.8-0.8-20.3-5.8-30.1-9.5c-6-2.3-11.9-4.9-18-7.4
		c-1.4,1.5-1.7,3.5-2.7,5.6c12.3,5.5,25.1,10,35.6,18.8c-12.1-5.1-23.3-12.2-36-16.1c-1.9,2.6-2,2.9-3,8.8c1.7,1.6,4.5,1.8,6.3,4.4
		c-7.1-0.8-13.9-1.3-21.4-3c5.3,7,7.4,14.6,12.6,20.6c2.7,3.1,2.2,6.3-1,9.5c-2.4,2.4-3.1,5-2.6,8.2c0.3,1.8,0.3,3.8-0.9,5.1
		c-3.2,3.5-5.1,8.5-10.5,9.8c-1,0.2-2.1,0.7-2.8,1.5c0.4,2,1.9,1.8,3.3,1.9c3.3,0.2,6.6,0.3,9.9,0.5c2.5,0.1,4.7,0.9,6.6,2.6
		c-0.3,0.4-0.6,0.8-0.6,0.7c-7.7-2.9-15.8,1.2-23.5-1.3c-4.6-1.5-9.4-1.7-14.2-1.5c-3.1,0.1-6,1.9-9.2,0.8c-1.1-0.4-2.6,0.4-3,1.7
		c-0.7,2-2.2,2.7-4.4,3.1c-1.9-1.9-4.4-1.2-7-0.5c-9.1,2.5-15.8-0.7-19.4-9.1c-1.6-1.4-3.2-1.1-5,0.1c-5.4-3.8-11.9-5.3-17.7-8.4
		c-4.6-2.4-9.1-5.2-12.8-8.9c-1.7-1.7-3.5-3.5-0.9-6.1c-1.7-1.4-3.1-2.9-3.9-4.8c-2,0.9-4,0.9-6.3,1.4c0.7-3.8-1.9-5.4-4.5-7.3
		c2.1-3.7,5.6-5.7,8.7-9c-3.2,0.2-5.4,2.2-8.2,1.7c-0.1-3.6-0.1-3.6,10.6-6.2c-2-1.2-5.4-0.8-5.1-3.9c0.2-2.6,2.7-3.1,4.6-4.1
		c1.8-1,3.5-2.1,5.6-3.4c-1.9-2.3-0.4-4.3,0.5-6.2c2.2-4.7,5.1-8.8,9.8-11.3c2.7-1.5,6-2.2,7.7-5.2c0.3-0.5,1.2-0.9,1.8-0.9
		c6-0.2,12.1-1.8,17.6,1.9c1.6,1.1,3.4,1.5,5.4,1.8c5.8,0.8,11.6,1.7,17.4,2.7c1.1,0.2,1.8-0.2,2.7-0.5c1.8-0.7,3.7-1.5,5.6-0.7
		c5.1,2,10.3,3.9,14.9,6.8c2.4,1.5,5.1,2.4,7.6,4.3c-1,2.7-4,2.7-6,4.7c2.6,0.2,4.7,0.2,6.8,0.5c2.1,0.3,4.3,0.1,5.5,2.8
		c0.6,1.3,2.6,1.5,4.1,1.7c3.9,0.6,7.9,1.1,12.1,1.7c1.1-4.7,2.5-9.3,4.1-13.8c2.6-7.2,6.9-13.3,12-18.9l-0.1-0.1
		c2.6,2.4,0.5,4.7-0.3,6.8c-2,5.4-1.9,5.8,3.3,7.9c8.6,3.4,17.2,6.9,26,9.5c16.1,4.7,32.6,6.6,49.3,2.7c8.4-2,17.2-2.9,24.6-7.8
		c1.7-1.1,3.8-1.8,4.7-4.6c-9.1-6-19.8-9.3-29.2-15.3c1.2,2.5,0.4,4-2.3,3.7c-4.6-0.5-8.8-2.2-12.2-5.5c-2.7-2.6-1.9-5.6,1.7-6.4
		c3.9-0.9,6.8-2.9,8.7-6.4c0.3-0.6,0.7-1.2,1.2-1.7c1.1-1,2.4-1.5,3.7-0.6c1.4,1,1.4,2.4,0.5,3.6c-1.5,2-1.9,4.2-1.7,7
		c6.1,3.1,12.3,6.4,19.1,8.3c11.1,3,21.5,7.4,31.6,12.9c0.5,0.3,1,0.5,1.4,0.8c10.1,9.8,23.8,13.6,35.7,20.4
		c10.3,5.8,20.2,12.3,31.1,17.1c6.7,2.9,13.6,4.4,20.7,5.5c0.8,0.1,1.7,0,3-1.1c-1.5-7.4,3.3-13.5,6.2-20.1
		c1.7-3.8,0.8-7.5-2.2-10.2c-9-8.1-17.5-16.7-26.3-24.9c-3-2.9-6.5-5-10.5-6.4c-9.3-3.1-17.3-8.4-24.6-14.8c-1.9-1.6-3.9-3-6.2-4.1
		c-7.1-3.6-12.6-9.2-18.2-14.6c-1.9-1.8-3.1-4.2-3.9-6.7c-0.5-1.6-0.1-3.1,1.4-3.9c1.4-0.8,2.6-0.1,3.7,0.9c0.4,0.4,0.8,0.8,1.1,1.2
		c4,8.8,12.8,12.2,19.9,17.3c1.1,0.8,2.4,1.3,3.4,2.3c6.9,7.2,15.2,12.3,24.7,15.2c11.3,3.4,19,11.4,26.4,19.7
		c4.1,4.6,8.3,9.2,13.2,13.1c3.5,2.8,5.6,6.4,7.3,10.3c1.2,2.5,1.2,5-0.9,7.6c-2.4,3-4.6,6.2-7.7,9.1c1.8,12,0.8,24.5,4.4,36.5
		c0.9,3.2,2.1,6.5,1.2,9.9L530,370.5z"/>
	<path d="M276.2,528.2c2.9-3.2,6.7-3.3,10.6-3.2c6.6,0.1,13,1.8,19.5,2.9c-4.7-3.2-10.4-3.8-15.5-6c6.6,0.7,13.1,1.4,18.4,6.1
		c0.4,0.3,0.5,0.9,1.2,1c7.2,1.2,6.6,7.2,7.8,12.6c4,2.1,5,6.2,5.9,10.6c-2.2,0.2-3-1-3.3-2.3c-1.4-6.2-6-8.4-11.6-9.3
		c-0.5-0.1-1.1-0.2-1.5-0.3c-5.3,6.7-7.9,8.4-16.9,7.8c1.4-1.7,3.3-2,4.9-2.1c4.7-0.5,8.2-2.2,8.6-7.4c3.6-2.5,7,0.5,10.6,0
		c0.4-3.4-1.7-5.1-4.5-5.7c-9.1-2-18.3-3.7-27.5-5.5c-2.2-0.4-4.2,1.2-6.4,1.2L276.2,528.2z"/>
	<path d="M282.2,575c1.4-0.8,2.2,0.5,3.2,1.1c4.6,3.3,8.7,7.2,11.8,12c1.5,2.3,3.4,3.1,6.1,3.1c4.7,0,9.2-1.6,13.9-0.9
		c1.5,0.2,2.5-0.7,2.8-2.6c-7.4-0.6-15.1,1.4-22.3-2.3c0.9-1.4,1.8-1.2,2.5-0.9c4.3,1.4,8.7,0.7,13.1,1c3.7,0.2,7.3,0.2,8.6-4.6
		c1.6,2.9,1.6,2.9-0.5,6c-0.1,1,1.1,1.6,0.7,2.8c-1.1,2-2.6,3.7-5.4,3.3c-2.9-0.4-5.7,0.2-8.6,0.5c-5.3,0.6-10.1-0.1-13.6-5.2
		c-2.9-4.3-6.4-8.2-10.8-11.2C283,576.7,281.9,576.3,282.2,575z"/>
	<path d="M562.8,453c17.4,7.5,42.8,32.4,39.9,42c-2.1-4.1-3.9-7.8-6.6-11c-9-10.7-19.6-19.5-30.3-28.4
		C564.8,454.8,563.8,453.9,562.8,453z"/>
	<path d="M706.8,441.9c-7.6-5.4-16.2-8.4-24.8-11.3c-4.5-1.5-9.2-2.6-13.9-3.8c-2.6-0.6-5.1-0.7-8,0.3c-3.6,1.3-7.7,0.5-11.4-0.6
		c-7-2.1-13.8-4.7-20.4-7.7c4.6,0.3,8.9,1.8,13.3,3c3.3,0.9,6.6,2.1,9.9,2.8c3.2,0.7,6.5,1.2,9.8,0c1.1-0.4,2.1-0.1,3.2,0.1
		c11.6,2.3,22.9,5.7,33.7,10.8C701.5,437,704.5,438.9,706.8,441.9z"/>
	<path d="M737.2,480.5c-11.7,7.2-17.8,8.6-21.4,5c0.2-1.4,1.3-1.6,2.4-1.6c5.5-0.2,10.4-2.3,15.1-4.9c2.4-1.3,4.4-2,7.2-0.7
		c2.5,1.2,5.5,1.4,8.3,2.2c2.9,0.8,5.5,2.2,7.4,4.6C750.1,483,743.6,482.3,737.2,480.5z"/>
	<path d="M321.7,567.2c-7.4,0.4-14.3-1.2-20.5-5.6c6.5,0.7,12.6,4.4,19.3,3.3c1.9-2.6,1.2-5.1,0.9-7.7c-7-4.3-14.3-6.2-22.5-6.2
		c2-2.3,4.4-0.7,6.5-1.2c0.9-0.2,2.1,0.1,1.4-1.5l-0.1,0.1c2.6-1.4,4.5,0.5,6.2,1.8c1.9,1.4,3.9,2.5,5.9,3.5
		c1.7,0.9,3.5,1.4,5.5-0.6c-1.2,5,1.6,10.1-2.7,14.1L321.7,567.2z"/>
	<path d="M530.9,457.1c2.3-0.6,3.8,0.9,5.3,2.2c5.6,5,10,11,14,17.2c1.1,1.7,2.1,3.5,3.2,5.3c0.6,1,1.5,2,0.3,3.5
		C546.1,475.9,538.5,466.6,530.9,457.1z"/>
	<path d="M674.6,389.5c-0.9,12.9,3.1,23.3,15.8,29.9c-5.5,0.5-8.9-1.4-11.7-4.6c-4.4-4.9-6.6-10.7-6.4-17.4c0.1-2.5,0.4-5.1,0.7-7.6
		C673.5,389.8,674.1,389.7,674.6,389.5z"/>
	<path d="M727.8,389.8c-7.1,0.3-13.7-1.8-19.8-4.8c-11.5-5.7-21.6-13.8-33.7-19.7c2.4-0.6,3.5,0.5,4.8,1.2c6.5,3.3,12.8,7,18.9,10.9
		c8.4,5.4,17.4,9.3,27.1,11.5C726.1,389,726.9,389.4,727.8,389.8z"/>
	<path d="M319.1,468.5c3.5,11,2.1,21.4-2.1,31.7c-2.4-1.7-2.3-4.1-2-6.6c0.1-0.4,0-0.9,0.2-1.2c3.9-6.5,3.9-13.4,2.3-20.5
		C317.4,471,317.3,469.7,319.1,468.5z"/>
	<path d="M948,516.1c0.7,5.1-1.5,8.8-2.1,12.8c-0.5,4-1.2,8-1.4,12.1c-2.3,0-2.9-1.4-3.3-3.1C939.8,532.5,943,521.1,948,516.1z"/>
	<path d="M321.6,567.3c2.5-0.7,3.3,1,3.5,2.9c0.4,3.6,0.4,7.2-3.1,10.1c-7.3-0.7-14.8-1.5-22.2-2.2c-0.4-2.4,1.5-1.5,2.1-2.3
		c-1.3-0.5-2.6-0.9-4.7-1.6c2.6-0.9,4.4-0.6,5.7,0.5c2.4,2,5.2,2.2,8.1,2.3c2.1,0.1,4.1,0.2,6.1,0.7c3.9,0.8,5.2-0.5,5.5-4.3
		c0.2-2.1-0.8-4-1-6L321.6,567.3z"/>
	<path d="M1010.5,556.5c-4.7-0.4-9-6.1-8.4-11.3c0.7-5.5,4.9-8.8,8.1-12.6c1.6,1.2,1.2,1.8,0.7,2.6c-1,1.5-2,3-2.9,4.5
		c-3.4,5.8-3.3,7.5,0.9,12.9C1009.8,553.7,1011,554.6,1010.5,556.5z"/>
	<path d="M733,509.2c-4.1,1.7-7.2,5.5-12.5,3c3.5-1.8,7.4-1.2,10.2-3.7c-1-1.7-4.1-2.2-2.9-5.5c7.6,6.4,17.4,6.4,25.7,10.2
		c-2.4,2.4-8.3,1.2-10.1-2.2C739.9,510.9,736.4,510.4,733,509.2z"/>
	<path d="M949.4,542.6c-2.8-1.8-2.9-3.9-2.7-6.1c0.3-3,1.4-5.8,2.5-8.6c1.3-3.1,2.6-6.2,4-9.4c2.5,0.4,2.4,2.1,1.9,3.7
		c-0.9,2.9-2,5.7-2.9,8.5C951.1,534.4,949.7,538.1,949.4,542.6z"/>
	<path d="M959.1,543.7c-3.1-5.6,0.2-17.8,5.3-21.4c2.1,0.6,1.7,2,1.2,3.6c-1,2.8-1.9,5.7-2.9,8.5
		C961.6,537.4,960.5,540.2,959.1,543.7z"/>
	<path d="M404.5,380.2c-3.2-5.7-5.2-11.8-7.1-18.5c2-2.3,5.7-3.1,8.9-4.8c-1.3,2.9-3.2,5.2-5.9,6.8
		C404.2,368.8,403.5,374.7,404.5,380.2z"/>
	<path d="M539.8,426.1c1.5,0.2,2.3-0.8,3.4-1.9c10,6.5,18.8,14.5,28.5,21.2c-9-4.7-16.9-10.9-25.4-16.8
		C543.5,430.3,541.6,428.5,539.8,426.1z"/>
	<path d="M632.9,447.1c0,1.5-1.4,2.2-2.2,3.1c-3.6,3.9-6.4,8.2-8.2,13.2c-1.3,3.7-1.4,7.3,3,10.1c-3.3,0.1-4.9-1.2-5.4-3.7
		c-0.5-2.3-0.6-4.7,0.3-6.9c2.3-6.2,6-11.4,11-15.7c0.3-0.2,0.7-0.3,1.1-0.4C632.5,446.8,632.6,446.9,632.9,447.1z"/>
	<path d="M775.4,512.7c-5.4-3.1-9.5-7.3-10.9-13.6c-0.8-3.7-3-6.9-4.8-10.2c1.4-1.6,2.2-0.5,2.8,0.4c1.7,2.5,3.4,5.1,3.9,8.1
		c1,5.5,4,9.8,7.7,13.8C774.6,511.6,775,512.2,775.4,512.7z"/>
	<path d="M697.7,508.6c-2.1-1.2-4.3-2.2-4.4-5.2c-0.1-4.1,3.1-6.7,7-5.3c1.1,0.4,2.2,0.9,3.3,1.3c-0.2,7.1-0.6,7.6-6,9.1
		L697.7,508.6z"/>
	<path d="M747.3,504.4c1.9-6.1,1.8-12.1,6-16.8C755.8,491.7,752.3,502.6,747.3,504.4z"/>
	<path d="M504.2,468.7c2.4,2.4,6,2.4,8.8,3.9c1.3,0.7,3,0.7,3.6,2.5c-0.4,1.5-1.6,1.9-2.8,1.4c-4.9-1.8-10.1-2.9-13.7-7
		c1.5-2.6,3-0.4,4.3-0.7L504.2,468.7z"/>
	<path d="M733.5,447.1c10.6,2.6,16.2-5.1,23.6-9.1c1.5,1.3,0.5,2.4-0.6,3.2c-1.5,1.2-3.2,2-4.8,3.1c-2.2,1.4-4.9,1.8-6.7,4.3
		C743.3,451,737.2,450.1,733.5,447.1z"/>
	<path d="M561.2,484.7c3.9,2.4,5.9,6.6,8.7,10c2.3,2.9,4.2,6.1,6,9.3c0.7,1.2,1.8,2.5,0.9,5.1C571.3,500.6,565.8,492.9,561.2,484.7
		L561.2,484.7z"/>
	<path d="M462.2,371.9c-0.1-3.5,2.4-6.3,2.1-9.5c-0.3-3.1-2.2-6.1-0.4-9.3c1.2,0.1,1.9,0.9,1.8,1.6c-0.3,4.5,2.1,9,0.4,13.5
		C465.5,370,465,371.9,462.2,371.9z"/>
	<path d="M686.6,526.4c0.9-2.4,0.4-5.4,3.2-6.4c2.2-0.8,3.6,0.6,4.7,2.2c1.2,0.6,2.1-0.8,3.3-0.3c0.4,2.9-3.4,1.7-3.8,4.2
		c0.1,1.2,1.9,0.8,2.5,1.7C696.2,529.8,693,529.3,686.6,526.4z"/>
	<path d="M697.5,508.5c0.6,0.7,1.4,1.3,1.9,2.1c1.4,2.2,1.3,4.5-0.4,6.4c-1.6,1.9-3.7,2.3-5.9,1.4c-2.4-1-3.4-3.1-3-5.7
		c0.4-2.6,2-4.1,4.7-4.3c0.9-0.1,1.9,0.1,2.9,0.2L697.5,508.5z"/>
	<path d="M644.5,522.8c-12.5-3.5-24.6-8.7-38-7.8C615.9,513,635.3,517.5,644.5,522.8z"/>
	<path d="M575.4,357.8c0-3.6,7.9-10.1,16.1-13.5C589.8,347.2,582.1,353.8,575.4,357.8z"/>
	<path d="M290.7,556.3c-0.7,5.9-1.1,11.2-1.3,16.5c-1.5-3.7-1.4-7.6-1.5-12.1c-1.4,3-0.7,5.5-0.9,8.1
		C284.3,563.7,285.3,559.9,290.7,556.3z"/>
	<path d="M543,394.7c1.8-0.2,2.6,0.6,2.4,2.4c-0.3,2-0.6,4.1-0.9,6.1c-0.4,2.2-1.1,4.2-1.8,6.3c-0.6,1.9-0.6,3.9-0.9,5.9
		c-0.3,0-0.7-0.1-1-0.1c0.5-4.3,0.9-8.6,1.4-13C542.4,399.7,543.6,397.3,543,394.7L543,394.7z"/>
	<path d="M741.9,421.3c5.1,0.1,11.6,7.9,11.6,13.7C749.3,430.1,745.6,425.7,741.9,421.3z"/>
	<path d="M816.6,456.1c-4.9,1.9-19.7-0.6-22.6-4C802,453.3,809.1,455.8,816.6,456.1z"/>
	<path d="M787.6,432.4c-1,1.7-1.3,3.6-1.7,5.4c-1.2,5.1-4.7,8.2-10.1,8.4c4.6-2.9,7.4-6.5,8.5-11.4c0.4-1.6,1.5-2.6,3.4-2.3
		L787.6,432.4z"/>
	<path d="M970.2,542.2c-3.2-3.8-1.7-10.9,3.5-15.8C973.7,532.4,970.4,537,970.2,542.2z"/>
	<path d="M782.5,484.2c4.3-1.5,5.6,2,7.7,3.6c2.3,1.8,4.6,3.7,7.3,4.9C792.6,493,786.1,489.3,782.5,484.2z"/>
	<path d="M459.1,388.9c2.9,3.6,1.2,10.9-3.6,15.8C456.7,399.2,457.5,394.1,459.1,388.9z"/>
	<path d="M430.3,428.1c-5,4.1-5.3,11.8-12.4,13.6c-1-2.3,0.5-2.7,1.4-3.4c2.9-2.1,5.6-4.4,6.5-8.1
		C426.3,428.3,426.5,428.3,430.3,428.1z"/>
	<path d="M561.3,504.4c0.5,0,1.1-0.1,1.6,0.1c4.6,1.7,9.2,3.7,13.9,5.1c4.6,1.3,9.2,2.8,13.8,4.2c-0.3,0.8-0.9,0.6-1.3,0.5
		c-9.5-2.2-18.8-5-27.6-9.2C561.5,504.9,561.5,504.6,561.3,504.4L561.3,504.4z"/>
	<path d="M568.1,418.7c-6.6-2.3-13.3-4.6-20.2-7C551,410.2,562.3,413.9,568.1,418.7z"/>
	<path d="M787.7,432.5c-0.8-3.9-3-7.3-4.8-10.8c3.9-1.3,6.2,3.1,6.2,10.9c-0.6,0.4-1,0-1.5-0.2L787.7,432.5z"/>
	<path d="M431.7,315.9c-4.9-3.5-9.8-10.7-9.8-15.2C426.5,305.4,429,310.7,431.7,315.9L431.7,315.9z"/>
	<path d="M285.5,335.6c3.8,3.2,8.3,5.9,10,11C291.3,343.7,287.7,340.3,285.5,335.6z"/>
	<path d="M975.5,541.3c-0.5-4.7,1.4-8.3,4.8-11.7C981.4,532.3,979.3,537.7,975.5,541.3z"/>
	<path d="M280.4,435.9c-5.1-8.4-5.4-12.7-0.9-15.4C278.2,426,278.4,431,280.4,435.9z"/>
	<path d="M362.5,365.1c-2.5,6.6-5.5,12.9-7.4,19.8C355.3,377.4,358.6,371.1,362.5,365.1z"/>
	<path d="M410.2,430c-0.7,4.6-3.3,7.6-7.9,8.9C402.8,434.1,408.4,433.7,410.2,430z"/>
	<path d="M553.8,452.4c-6.1-2.6-10.5-7.6-15.4-11.8C544.2,443.6,549.3,447.7,553.8,452.4L553.8,452.4z"/>
	<path d="M449.5,378.9c6.6,2,13.4,3.7,20.1,5.8C462.6,384.1,455.9,382.3,449.5,378.9z"/>
	<path d="M282.1,441.8c2.8,3.7,2.1,8.3,4.9,11.3C282.3,450.1,280.8,446.7,282.1,441.8z"/>
	<path d="M492.9,339.4c3.6,0.9,4.6,3.3,6.2,14.1C495.7,349.2,495.6,344.1,492.9,339.4z"/>
	<path d="M617.6,434.9c-0.2-2,0.9-3.3,1.3-5.1c1.4,0.7,0.4,2.2,1.7,3c2.6,0.7,5.5,1.6,8.9,2.5C625.1,436.8,621.7,432.4,617.6,434.9z
		"/>
	<path d="M692.8,471.7c-1.6,3.9-2.8,8-4.9,11.7C687.9,478.9,689,474.7,692.8,471.7z"/>
	<path d="M834.2,459.8c-4.4-0.7-9.1-0.1-13.4-2.3C825.5,457,829.9,457.9,834.2,459.8z"/>
	<path d="M653.6,404.2c-5.7-1.9-9.6-6.3-14.3-9.5C644.6,397.1,649.1,400.7,653.6,404.2z"/>
	<path d="M637.9,432c2.6,4.4,3.2,9.2,2.5,14.1C639.1,441.5,638.1,436.8,637.9,432L637.9,432z"/>
	<path d="M295.6,549.3c-2.4,3.8-6,4-9.6,4.8C289.6,550.3,291.5,549.4,295.6,549.3z"/>
	<path d="M518.5,395.6c-5.6-1.6-11.8-0.7-17.1-4C507.1,393.4,513.1,393.2,518.5,395.6z"/>
	<path d="M645.2,466.8c-6.5,0.2-6.4,6.4-10,9.1C637.6,467.7,640.7,464.7,645.2,466.8z"/>
	<path d="M326.1,350.5c-2.3-3.5-2.1-7.7-3.3-11.4C325.2,342.5,326.7,346.2,326.1,350.5z"/>
	<path d="M534.6,440.4c0.8-5.3-0.1-10.9,3.3-15.5C536.3,430,536.1,435.4,534.6,440.4z"/>
	<path d="M493.4,452.7c-3.7,3.2-6.6,3.3-10.5,0.8C486.2,453.3,489.4,453,493.4,452.7z"/>
	<path d="M508.8,463.1c3.5,0,6.1,1,8.9,2.1C514.4,467.2,510.8,466.5,508.8,463.1z"/>
	<path d="M490,390c-3.5,0-7.2,1.2-10.6-0.8C482.9,389.1,486.5,388.1,490,390z"/>
	<path d="M658.4,471c-0.4-3.9,1.4-7.1,3.5-10.1C662,464.7,659.8,467.7,658.4,471z"/>
	<path d="M623.6,356c-0.6-1.1,0.3-1.8,0.8-2.5c2-2.4,3.9-4.9,4.4-8.5c1.3,2.4,1.3,2.3,0.5,4.1C628.1,352,625.7,353.8,623.6,356
		L623.6,356z"/>
	<path d="M280.8,353.1c2.3-2.9,4.6-4.1,8.3-3.7C286.7,351.9,284.5,353.1,280.8,353.1z"/>
	<path d="M501.8,354.2c2.4,2,5.8,1.7,8.9,4C506.4,358.4,503.5,357.6,501.8,354.2z"/>
	<path d="M820.4,499.3c-3.1,0.2-6.4,0.7-9.5-2C814.7,496.4,817.2,499.6,820.4,499.3z"/>
	<path d="M983.9,540.1c-0.1-1.9-0.8-3.9,0-5.9C987.3,535,987.3,535,983.9,540.1z"/>
	<path d="M358.4,352.1c2.5,2.9,4.9,5.7,6.9,8.1c-2.9-1.3-5-4.6-7.6-7.3C357.9,352.6,358.1,352.3,358.4,352.1z"/>
	<path d="M808.2,497.4c-2.9,0.4-5.6,0.4-7.7-2.6C803.9,493.9,805.7,496.8,808.2,497.4z"/>
	<path d="M372.4,359.1c0.2-3,0.6-5.9,1.7-8.8C375,353.6,374.6,355.9,372.4,359.1z"/>
	<path d="M435.4,419.9c0.3,3.4-1.8,5.2-4.3,7.7C430.7,423.1,435,422.8,435.4,419.9z"/>
	<path d="M413.9,418.7c-0.8,2.7-0.6,6.2-4.5,6.7C411.5,423.6,411.3,420.3,413.9,418.7z"/>
	<path d="M431.6,316c3.6,2.5,3.9,3.2,4.6,9.1C434.8,321.4,431.8,319.4,431.6,316L431.6,316z"/>
	<path d="M499.1,366.2c-0.6,3-2.2,5.1-2.4,7.9C494.9,370.9,495.2,369.9,499.1,366.2z"/>
	<path d="M754.4,431.4c2.8,1.6,3.5,3.9,4.8,5.6C757,436.2,755.1,435,754.4,431.4z"/>
	<path d="M756.6,512.1c0.6-1.7-1.8-4.4,1.8-5.2C758.7,509.6,758.7,509.6,756.6,512.1z"/>
	<path d="M915.8,525.9c-3,1.9-5.8,0.1-8.7-0.4c3-0.8,5.9-0.3,8.8,0.5L915.8,525.9z"/>
	<path d="M293.5,565.9c0.8,2.5-1.9,4.4,0.2,6.6C290.3,569.1,290.3,568.3,293.5,565.9z"/>
	<path d="M438.9,442.8c1-3.3,3.4-4.2,5-5.9C443.4,439.4,442.4,441.6,438.9,442.8z"/>
	<path d="M293.3,560.2c-2-2.2-1.5-3.7,0-5.3C294.1,557.1,294.1,557.1,293.3,560.2z"/>
	<path d="M465,351.8c-0.4-2.9-0.1-4.8,0.6-6.9C467.1,348.2,467.1,348.2,465,351.8z"/>
	<path d="M282.3,468.3c1.1-1.7,1.1-4.3,3.8-5.2C286.2,466,284.2,467.2,282.3,468.3z"/>
	<path d="M319.1,333.2c-2.4-2-3.2-3.7-3-6.4C317.8,328.6,319.2,330.1,319.1,333.2z"/>
	<path d="M767,433c0-2.2,1.1-3.9,2.2-6.1C770,429.9,768.8,431.6,767,433z"/>
	<path d="M829.4,501.5c-2.1,0.3-4.2,0.4-6-1.7C826.1,499.2,827.8,500,829.4,501.5z"/>
	<path d="M453,406.2c1.1,1.9,1.1,3.4,0.5,5.2C451.7,408.6,451.7,408.6,453,406.2z"/>
	<path d="M543.1,394.6c-0.7-3.3-4.5-1.8-6.1-4c2.3-1.2,3.9,1.1,5.8,0.8C543.7,392.6,542.8,393.7,543.1,394.6L543.1,394.6z"/>
	<path d="M453.7,325.8c-2.2-0.8-2.6-2.7-3-4.8C453.8,321.5,452.6,324.4,453.7,325.8z"/>
	<path d="M284,377.5c-1.5-1.2-3.6-1.6-3.5-4C283.4,373.9,283.4,373.9,284,377.5z"/>
	<path d="M307.9,375.1c0.5-2.8,2.8-3.8,5.1-4.9C311.7,372.3,310.1,374,307.9,375.1z"/>
	<path d="M317.4,501c0.9,2.5,0,3.9-1.2,6C315.8,504.5,315.7,502.9,317.4,501z"/>
	<path d="M554.7,500.2c2.4,1.1,4.7,2.3,6.6,4.2l0-0.1c-2.9-0.2-5-1.9-6.8-4L554.7,500.2z"/>
	<path d="M513.7,363.3c-1.6-0.5-2.8-1.3-3.7-2.9C513,360,513.1,360.1,513.7,363.3z"/>
	<path d="M276.5,525.2c-0.5,2.7-2.5,2.4-4.3,3.5C273.8,525.7,273.8,525.7,276.5,525.2z"/>
	<path d="M311.8,449c-1.2,1.6-2.5,2.6-5.2,1.8C308.5,449.4,310.2,449.2,311.8,449L311.8,449z"/>
	<path d="M445.1,316.1c2.4-0.1,2.9,1.9,3.6,3.6C447,319.1,445.9,317.8,445.1,316.1z"/>
	<path d="M535.5,420.9c-2.1,1.2-3.3,0.2-4.7-0.4C532.3,419.6,532.3,419.6,535.5,420.9z"/>
	<path d="M743.7,416.7c-2.1-1.1-1.9-2.9-2.9-3.9C742.6,413.2,743.7,414.2,743.7,416.7z"/>
	<path d="M292.7,379.6c1.2,1.7,1.4,2.9,0.3,4.3C291.2,382.6,291.8,381.4,292.7,379.6z"/>
	<path d="M275.9,366.1c0.8-1.6,2.2-2.6,3.9-3.2C279.1,364.6,277.9,365.7,275.9,366.1z"/>
	<path d="M476.1,452.3c1.5-0.6,2.8-0.1,4.1,0.7C478.7,453.8,477.4,453.3,476.1,452.3z"/>
	<path d="M594.5,429c1.8,0,3.3,0.6,5,1.7C597.3,431,595.9,429.7,594.5,429z"/>
	<path d="M376.8,434c1.4-1.2,2.4-1.6,4.2-0.6C379.5,434.1,378.6,434.6,376.8,434z"/>
	<path d="M314.3,513c-0.9-2-0.2-2.9,1.3-4C315.7,510.6,315.3,511.6,314.3,513z"/>
	<path d="M316.6,324c-1.9-0.8-1.3-2.7-1.9-4.1C316.5,320.7,316.3,322.4,316.6,324z"/>
	<path d="M735.4,472.1c1.2,0.9,1.6,2.2,1.6,4C735.1,474.9,735.2,473.5,735.4,472.1z"/>
	<path d="M297.2,379.5c-0.7-2.3,0-3.5,2-4.6C299.2,376.8,298.3,378,297.2,379.5z"/>
	<path d="M496.3,379.3c-0.8,2-1.7,3-3.7,3.3C493.3,380.7,494.5,380.2,496.3,379.3z"/>
	<path d="M526.7,459.6c-0.2,1.8-0.8,2.9-2.3,3.4C523.7,461,524.6,460.2,526.7,459.6z"/>
	<path d="M467.3,449.4c2.2,0.4,3.6,0.4,4.4,1.6C469.9,451.3,469.9,451.3,467.3,449.4z"/>
	<path d="M607.5,431.9c1,0.3,2.1,0.6,3.6,1c-1.7,0.6-2.8,0.2-3.9-0.4C606.8,432.3,606.9,432.1,607.5,431.9z"/>
	<path d="M607.6,421.9c-0.1,1.5-0.1,2.9-0.2,4.4C605.7,424.6,606.6,423.3,607.6,421.9L607.6,421.9z"/>
	<path d="M295.5,313.6c-1.6,0.9-2.4,0.5-3.1-0.9C294.1,311.6,294.7,312.5,295.5,313.6z"/>
	<path d="M733.6,470.2c-1.2-0.5-1.9-1.3-2-2.7C733.3,468.4,733.3,468.4,733.6,470.2z"/>
	<path d="M284,568.2c0.9,1.1,1.5,2.2,1.3,4.1C283.9,570.9,283.7,569.6,284,568.2z"/>
	<path d="M404,386.4c-0.4-1.2-0.5-2.1,0.1-3.4C405.7,384.3,404.9,385.3,404,386.4z"/>
	<path d="M293.4,579.1c1.6,0.6,1.3,1.6,1,2.8C293,581.3,292.3,580.6,293.4,579.1z"/>
	<path d="M854.7,460.1c-2.1,0.7-3.3,0.8-4.4-0.4C851.7,458.5,852.6,459.8,854.7,460.1z"/>
	<path d="M843.9,459.3c-1.1,0.4-2.2,0.8-3.7,0C841.7,457.9,842.8,458.6,843.9,459.3z"/>
	<path d="M303.9,451.7c-1.6,0.8-2.5,1.6-3.9,0.4C301,451.1,302.1,451.3,303.9,451.7z"/>
	<path d="M837.1,502.4c-1.9,0.5-2.9,0.2-3.6-0.9C835,500.4,835.8,501.6,837.1,502.4z"/>
	<path d="M845,503.1c-1.1,0.5-1.9,0.6-2.4-0.6C843.5,501.7,844.2,501.8,845,503.1z"/>
	<path d="M554.6,500.4c-1.5-0.4-2.3-1.5-2.8-2.9c1.2,0.7,2.4,1.4,3,2.8L554.6,500.4z"/>
	<path d="M313.4,547.2c0.4-1.4,1.1-1.8,2.6-1.7C315.7,547.1,314.7,547.3,313.4,547.2z"/>
	<path d="M403.4,393.5c0.4,1.7-0.2,2.6-1.2,3.4C401.6,395.6,402.1,394.6,403.4,393.5z"/>
	<path d="M516.6,363c1.8-1,2.3,0.2,3.4,1.3C518.4,364.4,517.5,364.1,516.6,363z"/>
	<path d="M291.1,456.8c1.1-1.3,1.8-1.2,2.6-0.2C292.9,457.8,292.1,457.3,291.1,456.8z"/>
	<path d="M892.8,508.3c-2,0.1-3.1,1-4.4,0.1C889.7,507.2,890.8,507.1,892.8,508.3z"/>
	<path d="M297.9,385.7c-0.3-1.6-0.5-2.5,1-3C299.9,384,299.1,384.7,297.9,385.7z"/>
	<path d="M623.5,355.9c-0.8,0.6-1.6,1.2-3.2,2.4C621.5,356.6,622.1,355.5,623.5,355.9L623.5,355.9z"/>
	<path d="M912.3,480.2c-1.2,0.5-1.8,0.1-2.7-1C910.8,478.8,911.6,478.9,912.3,480.2z"/>
	<path d="M534,412.9c-0.8,1.1-1.6,1.4-2.1,0.6c-0.5-0.9,0-1.5,1.1-1.3C533.4,412.2,533.6,412.6,534,412.9z"/>
	<path d="M304.4,317.7c-1.7-0.4-2.5-0.9-2.9-2.3C303.1,315.1,303.6,316.3,304.4,317.7z"/>
	<path d="M865.7,461.8c0.5-0.4,1-0.4,1.4,0.1C866.6,463.2,866.2,462.7,865.7,461.8z"/>
	<path d="M519.8,388.4c-0.4,1.1-0.5,1.9-1.6,1.6C518,389,518.6,388.7,519.8,388.4z"/>
	<path d="M306.7,548.4c-0.1-0.9-2-1.4-0.5-2.7C307.5,546.5,306.6,547.6,306.7,548.4L306.7,548.4z"/>
	<path d="M409.1,350.3c0.6-0.9,1.4-1.3,2.4-1.2c0.4,0.8-0.2,1.1-0.7,1.4C410.4,350.8,409.8,350.9,409.1,350.3z"/>
	<path d="M297.6,314c1.2-1.3,1.5-0.3,2.2-0.1C298.7,315.5,298.4,314.2,297.6,314z"/>
	<path d="M283.6,522.1c1.1-0.6,1.8-0.7,2.7-0.1C285.5,522.6,284.7,522.7,283.6,522.1z"/>
	<path d="M783.9,519.1c-1.3,0.3-2,0.3-2.4-1C782.5,517.7,783.1,518.2,783.9,519.1z"/>
	<path d="M775.2,515.1c1.6-0.5,1.9,0.5,2.8,1.2C776.3,517.2,775.7,516.5,775.2,515.1z"/>
	<path d="M607.7,422c0.1-0.8,0.1-1.5,0.2-2.6C608.5,420.6,608.1,421.2,607.7,422L607.7,422z"/>
	<path d="M553.7,452.4c0.7,0,1.3,0.2,1.7,1C554.7,453.2,554.2,452.9,553.7,452.4L553.7,452.4z"/>
	<path d="M317.2,460.4c-0.8-0.7-0.3-1.4,0.1-2.1C317.7,459,317.9,459.7,317.2,460.4z"/>
	<path d="M437.9,328.2c-0.7-0.4-0.9-0.8-0.6-1.4c0.1-0.2,0.6-0.3,0.7-0.2C438.5,327,438.5,327.5,437.9,328.2z"/>
	<path d="M850.7,469.9c-0.7,0.2-0.9-0.1-0.9-0.5C850,469.6,850.3,469.7,850.7,469.9z"/>
	<path d="M852.4,471.3c0.7,0.3,1.3,0.5,1.1,1.4C852.4,472.8,851.9,472.5,852.4,471.3z"/>
	<path d="M297.4,453.5c-0.7,0.6-1.2,0.6-1.7,0.2C296.2,452.2,296.7,452.8,297.4,453.5z"/>
	<path d="M279,477.2c-0.1-1.3,0.2-1.8,1-1.8C280.5,476.3,279.7,476.5,279,477.2z"/>
	<path d="M276.4,528.5c-0.5,0.8-1.3,1.2-2.2,1.4c0-1.3,1-1.5,1.9-1.7L276.4,528.5z"/>
	<path d="M595.1,353.9c0.2,0.9-0.2,1.4-1,2C594,354.9,594.6,354.4,595.1,353.9L595.1,353.9z"/>
	<path d="M413,342.7c-0.6-0.5-0.4-1.1,0.2-1.8C413.9,341.7,413.8,342.2,413,342.7z"/>
	<path d="M561.3,484.6c-0.9-0.6-1.6-1.4-1.6-2.6l-0.1,0.1C560.7,482.7,561.5,483.3,561.3,484.6L561.3,484.6z"/>
	<path d="M638,431.9c0-0.7-0.7-1.4-0.1-2.3C637.9,430.5,637.9,431.3,638,431.9L638,431.9z"/>
	<path d="M559.7,482.1c-1-0.1-1.2-0.9-1.5-1.7C559.5,480.4,559.6,481.2,559.7,482.1L559.7,482.1z"/>
	<path fill="#FFFFFF" d="M529.9,370.6c-1-3.3-1.9-6.6-3.2-9.7c-3.4-8-2.1-16.5-3.3-24.8c-0.5-3.6-1.3-7.2-0.5-11
		c0.4-1.9,0.8-3.7,2.1-4.6c2.9-2.1,4.1-5.1,5.1-8.2c0.6,0.1,1.1,0.1,1.8,0.2c-0.2-1.8-0.1-3.6-1.1-5.1c-1.9-2.9-3.5-6.2-6.4-8.4
		c-7.1-5.4-12.5-12.4-18.5-18.8c-6.3-6.6-13.3-11.7-22.2-14.4c-8.8-2.7-16.1-7.9-23-14.1c-4.2-3.8-9.2-6.8-14.1-9.7
		c-3.9-2.2-6.7-5.2-8.9-8.9c-1.1-1.9-2.2-3.8-4.4-5.1c-0.3,2.2,0.6,3.8,1.5,5.4c2.6,4.8,6.5,8.6,11,11.6
		c8.8,5.8,17.5,11.8,25.9,18.3c3.5,2.7,7.7,4.4,11.9,5.7c6.7,2.1,11.9,6.1,16.7,11c7,7.1,14.1,13.9,21.5,20.5c5.5,5,7.2,8.3,2.3,17
		c-1.9,3.3-3.8,6.5-4.4,10.5c-0.5,3.2,1.3,6.1,0.4,9.7c-8.6-1.9-17.5-2.5-25.7-6.3c-17.2-8-32.9-18.9-50.3-26.6
		c-5.8-2.6-11.4-5.3-16-9.9c-2.6-2.6-6.1-4.2-9.5-5.7c-8.6-3.5-17-7.4-26.1-9.8c-7.3-1.9-14-5.5-20.2-10c1.2-3.5,2.3-6.8,3.5-10.3
		c-3.8,0.6-2.3,4.6-4.8,6c-2.3,1.3-4.2,3.1-6,4.5c-1.6,0.9-2.5-0.9-3.8-0.4c-2,1.6,1.9,5.3,7.7,7c1.9,0.6,3.9,1,5.7,2
		c0.2-0.3,0.3-0.5,0.5-0.8c-2.1-1.5-4.1-3-6.1-4.4c0-1.5,1.2-1.8,2-2.3c11.8,9,26.3,12.6,38.9,20c-5.1,4.3-10.6,8.2-16.9,10.2
		c-10.6,3.3-21.4,5.6-32.6,6.4c-9.9,0.7-19.2-1.8-28.8-3c-1.4-0.2-2.8-0.3-4-0.8c-12-4.4-24-8.8-36.1-13.3c1.5-4.9,4.5-9,5.5-13.8
		c3.9-3.1,4.6-7.6,5.1-12.1c0.3-2.9,1.1-5.3,3-7.5c6.1-7.3,12.7-14.1,19.3-20.9c1.8-1.9,4-1.2,5.9-2.2c5-2.4,10.4-3.5,15.8-4.6
		c5-0.9,9.9-2.1,14.8-3.4c2.8-0.7,5.4-2.2,7.5-4.2c4.2-3.8,8.8-6.4,14.3-8.4c5.8-2.1,11.5-4.6,17.4-6.3c8.4-2.5,17-3.7,25.7-2.8
		c8.2,0.8,16.5,0.6,24.7,0.4c9.7-0.2,17.1,3.9,23.6,10.5c1.4,1.5,3,2.9,4.7,4c18.5,12.6,35.6,26.7,49.7,44.3
		c4.3,5.4,8.6,10.7,12,16.7c3.4,6,7.5,11.6,12,16.8c5.3,6.2,7.2,13.5,8.6,21.2c-0.8,0.9-1.7,1.9-2.8,3.2c1,2.8,0.8,5.9,0.1,9.1
		c4.4,4.7,5.5,10.7,7.3,16.9c-2.2,0.2-3.2-0.5-4.4-0.8c-0.7-1.4-0.1-3.1-1.3-4.3c-5.6-5.3-7.4-13-11.6-19.1c-0.3-0.4-0.8-0.7-1.2-1
		c-0.7,1.2,0.1,2,0.5,2.8c1.2,2.4,1.8,4.8,1.2,7.5c-1.2,5.3-0.3,11.2,3,14.4c3.9,3.7,4.7,8.2,6.7,12.5c0.9,2,0.9,3.9-1,6
		c-4.8-6.2-11.5-10.6-13.6-18.4c-1.2-4.6-2.1-9.3-3.8-13.8c-0.5-1.4-0.7-3.3-2.8-3.7c-0.2,0.5-0.5,0.9-0.4,1.2
		c4.5,11.6,4.8,24.2,8.7,35.9c0.5,1.5,0.7,3.2-0.1,4.9c-2.7-0.2-4.3-1.5-5.5-4.1c-1.5-3.4-3.2-6.7-4.5-10.1
		c-1.5-3.8-2.7-7.5-2.6-11.8c0.1-4.6-1.2-9.3-4.1-13.4c-0.2,5.4,2.2,10.4,2.1,15.8c-0.1,5.5,2.2,10.7,3.3,15.1
		c-0.5,2.3-2.2,1.7-2.9,2.9c-0.3,1.4,1.9,0.7,2,2.2C530.8,367.2,531.3,370,529.9,370.6z"/>
	<path fill="#FFFFFF" d="M1031.3,485.5c3,10.9-1,20.1-4,29.7c-4.9,1.7-8.6,5.6-13,9.2c-1.6-3.1-4.5-4.3-7-4.5
		c-2.1-0.8-1-2.4-2.1-3.3c-2.3-0.9-5-1.3-7.7-1.2c-8.7,0.3-17.3-0.9-25.9-0.8c-5.3,0-10.3-1.5-15.3-3c-4.4-1.4-8.8-3.1-13.5-3.3
		c0-1.6,1.9-0.4,1.8-2.3c-1.1-1.8-3.9-1.1-6.2-2.4c0.5-6.3-4.5-7.3-9.3-8.9c3.4,0.7,6.5,1.6,10.1,0.4c-1.4-1.8-3.2-2.6-4.8-3.3
		c-2.3-1-2.7-2.6-1.7-4.7c2.2-4.7,3.8-9.7,4.2-15c2-1,3.8-0.3,5.7,0.1c10.2,2.1,20.3,4.6,30.8,5.1c2.9,0.1,5.7-0.2,8.6-0.6
		c9.9-1.5,19.9-2.8,29.9-3.2c2-0.1,3.5,0.2,5,2c2,2.4,5.1,3.7,7.8,5.3C1027.2,482.1,1029.7,484,1031.3,485.5z"/>
	<path fill="#FFFFFF" d="M750.6,464.2c10.9-3.3,20.8-2.7,30.1,3.8c4.1,2.9,8.7,4.7,13.3,6.5c1.7,0.7,3.4,1.5,5,2.5
		c-3.7,0.8-7.4,0.4-10.9,0c-3.3-0.4-6.5-0.8-9.8-0.9c-7.2-0.2-12.8-4.7-19.1-7.2C756.2,467.6,753.6,465.9,750.6,464.2z"/>
	<path fill="#FFFFFF" d="M341,437.6c7.2-3.2,14.9-0.7,22.4-3c2.1,3.4,5.3,5.6,7.3,9.5C360.2,442.9,351.1,437.9,341,437.6z"/>
	<path fill="#FFFFFF" d="M535.9,381.3c2.2,1.1,4.6,1,7.7,1.3c-2.4,3.4-5.4,1.2-7.4,2.3C535.4,383.6,535.2,382.6,535.9,381.3z"/>
	<path fill="#FFFFFF" d="M542.9,379c-2.8,0.8-5.3,0.2-7.8-0.8C537.9,377,540.4,378,542.9,379z"/>
	<path fill="#FFFFFF" d="M286.4,394.9c0.2-1.1,0.5-2.3,0.7-3.5C288.6,392.7,288.6,392.7,286.4,394.9z"/>
	<path fill="#FFFFFF" d="M922.6,493.3c0.8-0.5,1.5-0.4,2.1-0.3c0.4,0.1,0.8,0.2,0.9,1C924.4,494.8,923.6,493.9,922.6,493.3z"/>
	<path fill="#FFFFFF" d="M181.1,343.8c1.8-1.2,3.3-2.8,5.4-3.2c0.3-2.4-1.6-1.5-2.3-1.9c-0.7-5.1,2.1-9.1,3.7-13.7
		c0.8-0.4,1.8-0.8,2.9-1.4c0.4-1.3,0.9-2.7,1.4-4.4c-2.1-2.4-0.9-5.4-1.1-8.4c-0.1-3.4,3.2-5.1,2.9-8.2c1.4-0.3,2.3,2.3,3.7,0.2
		c0.4-1.8-2.3-0.8-2.2-2.6c1.7-1.2,3.4-0.1,5.3,0.5c2.9-3.5,7.3-2.4,11-3.1c4.3-0.8,8.8-0.1,13-1.6c0.7-0.3,1.3,0.2,2,0.3
		c5.3,0.8,10.2,3.1,15.6,3.7c1.4,0.1,2.7,1.4,3.9,2.2c5.7,3.8,11.3,7.7,17.7,10.5c6.2,2.8,9,9.1,12.3,14.6
		c3.3,5.6,4.4,11.3,0.4,17.4c-1.8,2.7-2.8,6-2,9.5c-5,6-11.2,9.2-19,9c-3.8-0.1-7.7,0.1-11.5,0.3c-2.6,0.2-5.1,0.6-7.5,1.9
		c-2.6,1.5-5.5,1.8-8.7,0.9c-7.2-2.1-13.8-5.9-21-8c-0.6-0.2-1.3-0.6-1.7-1.2c-3-3.9-7.4-5.5-11.7-7.4c-3.6-1.5-4.3-2.3-5.7-5.5
		C185.4,341.6,183.2,344.7,181.1,343.8L181.1,343.8z"/>
	<path fill="#FFFFFF" d="M229.9,369.9c-5.4-1.1-9.1,2.2-13.6,2.4c-0.8-1.3-1.6-2.6-2.4-4.1C219,370.7,224.4,366.6,229.9,369.9z"/>
	<path fill="#FFFFFF" d="M246.1,294c2.8,0.6,4.3,3,7.2,4.2c-2.3,0.9-4.2,1.7-5.7,0.1C246.6,297.2,247.5,295.2,246.1,294z"/>
	<path fill="#FFFFFF" d="M243.4,292c-3.7,1.9-5-0.2-6.6-2.6C239.4,289.3,240.9,290.9,243.4,292z"/>
	<path fill="#FFFFFF" d="M181,343.7c0.3,2.3-0.8,3.8-2.5,5.3C176.7,345.7,180.1,345.4,181,343.7L181,343.7z"/>
	<path fill="#FFFFFF" d="M210.9,364.4c-1.9,1.4-3.1,2.2-5.2,1.3C207.1,363.7,208.5,363.7,210.9,364.4z"/>
	<path fill="#FFFFFF" d="M186.3,315.3c-1.4,2.6-2.6,0.2-3.9,0.1C183.7,313.9,185,315.7,186.3,315.3z"/>
	<path fill="#FFFFFF" d="M186.8,307.4c-1.2-1.6-2.6-2.4-1.1-3.8C187.5,304.5,186.7,305.8,186.8,307.4z"/>
	<path fill="#FFFFFF" d="M234.3,292.5c-1.7-0.1-2.8-0.7-2-2.6C234.1,289.9,233.9,291.5,234.3,292.5z"/>
	<path fill="#FFFFFF" d="M175.1,301c0.6,1.1,0.7,2-0.8,2.7C173.6,302.4,173.8,301.6,175.1,301z"/>
	<path fill="#FFFFFF" d="M179.7,300.1c-1.3,1.4-2.1,1.1-2.8,0.1C177.8,299.3,178.6,299.6,179.7,300.1z"/>
	<path fill="#FFFFFF" d="M181.9,295.3c-0.7,0.7-1.2,0.8-1.7,0.3C180.4,294.6,181,294.6,181.9,295.3z"/>
	<path fill="#FFFFFF" d="M184.5,307c-1,1.1-1.7,0.9-2.9,0.8C182.5,306.6,183.1,306,184.5,307z"/>
	<path fill="#FFFFFF" d="M210.1,369c1.3,0.1,1.8,0.6,2.1,1.7C211.1,370.8,210.5,370.4,210.1,369z"/>
	<path fill="#FFFFFF" d="M205.1,290.6c0.5-1.3,1.2-1,1.8-0.8C206.9,291.2,206.3,291.3,205.1,290.6z"/>
	<path fill="#FFFFFF" d="M222,292.6c1-0.8,1.8-0.6,2.6-0.1C223.8,294,223,292.9,222,292.6z"/>
	<path fill="#FFFFFF" d="M178.8,332c-0.1,0.8-0.4,1.1-1,1c-0.1,0-0.3-0.4-0.3-0.6C177.7,331.8,178.1,331.6,178.8,332z"/>
	<path fill="#FFFFFF" d="M169.1,337.2c-0.9,0-1.2-0.5-1.5-0.9C168.4,335.8,168.7,336.3,169.1,337.2z"/>
	<path fill="#FFFFFF" d="M206.7,361.2c0,0.5-0.3,0.7-0.7,0.7c-0.2,0-0.4-0.2-0.5-0.4c-0.1-0.5,0.2-0.7,0.6-0.7
		C206.3,360.9,206.5,361.1,206.7,361.2z"/>
	<path fill="#FFFFFF" d="M187.2,354.9c-0.6,0.5-1,0.1-1.2-0.4c0-0.1,0.3-0.5,0.5-0.5C187.1,353.9,187.4,354.2,187.2,354.9z"/>
	<path fill="#FFFFFF" d="M196.5,291.2c0.3-1,0.8-1.2,1.7-0.6C197.9,291.6,197.3,291.8,196.5,291.2z"/>
	<path fill="#FFFFFF" d="M699.1,500c1.1,1.1-1.2,1.8-0.1,2.5c0.7,1.2,1.7-0.1,2.4,0.6c0.3,0.9-0.3,1.5-0.9,2
		c-1.5,1.2-3.1,0.9-4.4-0.2c-1-0.9-1.3-2.1-0.7-3.3C696.2,499.9,697.6,499.5,699.1,500z"/>
	<path fill="#FFFFFF" d="M691.9,525.7c-1.2,0.2-2,0.1-2.7-0.5c-0.4-1.5,0.2-2.5,1.3-3.5C693.1,522.4,692.6,524,691.9,525.7z"/>
	<path fill="#FFFFFF" d="M698.4,513.9c-0.2,1.9-1.4,2.8-3.3,2.7c-1.8-0.1-3.1-1.2-3.1-3.1c0-2,1.5-3,3.3-2.8
		C697,510.8,698.4,511.7,698.4,513.9z"/>
	<path d="M440.5,241.9c0.6,1.3-0.4,2-1.1,2.9c-8.5,11-19.8,17-33.4,19.1c-8.9,1.4-17.7,3.5-26.7,4.6c-1.6,0.2-3,0.4-4.4-0.8
		c0.8-3,2.9-4.3,6-3.9c4,0.4,7.9-0.2,11.6-1.9c3.7-1.6,7.7-2.1,11.6-2.6c12.8-1.5,23.6-6.8,32.7-15.9
		C438.4,241.9,438.4,242,440.5,241.9z"/>
	<path d="M357.5,233.3c-6.4,0.2-12.7,1.1-19.1,1.5c0-0.6,0-1.2-0.1-1.8C344.6,229.9,351.1,231.8,357.5,233.3z"/>
	<path d="M510.2,259.8c5.2,1.8,14,10.5,14.6,14.4C519.1,270.3,514.6,265.1,510.2,259.8z"/>
	<path d="M445,212.3c3.2-3.2,6.7-0.6,9.8,7.1C451.1,216.7,448.1,214.5,445,212.3z"/>
	<path d="M309.1,269.1c1.8,3.8,1.5,7.4-0.5,9.2c-0.9,0.7-0.9,0.7-3.3-0.4C305.8,274.6,308.5,272.3,309.1,269.1z"/>
	<path d="M389.7,232.2c-4.8,3-9.4,2.6-14,0.1C380.3,230.8,385.1,233.8,389.7,232.2z"/>
	<path d="M468.6,222.9c-2.9-2.6-5.8-5.1-9-7.8c3.7-1.4,6.2,0.8,9.4,7.4C468.9,222.6,468.7,222.8,468.6,222.9z"/>
	<path d="M391.3,231.6c2.9-1.6,5.9-1.5,9-1.9C398,233.6,394.8,234.3,391.3,231.6z"/>
	<path d="M385.2,284.2c-3.2-1.3-7-1.8-8.7-5.5C380.3,279.1,383,281.2,385.2,284.2z"/>
	<path d="M535.2,279.4c-3.6-0.1-5.8-2.9-8.4-4.8C530,275.4,533,276.6,535.2,279.4L535.2,279.4z"/>
	<path d="M537.9,284.5c0.9,2.5,0.6,4.7-0.6,6.8C537.7,289,536,286.6,537.9,284.5z"/>
	<path d="M504.9,253.7c-3.1-1.6-5.1-4.2-7.6-6.4C499.8,249.4,502.4,251.6,504.9,253.7z"/>
	<path d="M319.8,251.1c-0.7,2-0.1,4.5-2.6,6.1C316.2,254.2,318,252.6,319.8,251.1z"/>
	<path d="M375,250.4c-0.5-2.2-0.8-4.4,1.6-6.3C377.7,246.9,375.4,248.5,375,250.4z"/>
	<path d="M355.4,274c-2,2.3-4.5,1.5-7.8,1.3C350.7,274.3,353,273.8,355.4,274z"/>
	<path d="M538.9,301.7c-1.4,1.6-3,2.8-5.2,2.9C534.9,302.6,536.9,302.2,538.9,301.7z"/>
	<path d="M525.9,324.5c2.1,1.2,2.8,2.6,2.9,5.3C527.2,327.9,526.4,326.6,525.9,324.5z"/>
	<path d="M309.6,267.5c0.1-2,1-2.9,2.9-3.1C312,265.8,312.1,267.4,309.6,267.5z"/>
	<path d="M397.3,291.6c-2.1,0-3-0.5-3.9-1.8C395.5,288.6,396.2,289.8,397.3,291.6z"/>
	<path d="M414.4,225.3c-1.2,1-2,1.6-3.1,1.3c-0.1-0.3-0.3-0.6-0.3-0.7C411.7,224.6,412.6,224.3,414.4,225.3z"/>
	<path d="M459,224.3c-1.6-0.2-1.9-1.4-2.8-3C458.5,221.6,459.1,222.7,459,224.3L459,224.3z"/>
	<path d="M532.4,319.5c0.2,1,0.2,1.8-1.1,2.1C531,320.5,531.4,319.9,532.4,319.5z"/>
	<path d="M389,287.6c-1-0.4-1.9-0.8-1.9-2C388,284.8,388.4,285.4,389,287.6z"/>
	<path d="M405.1,228.6c-1,0.8-1.8,1.2-2.7,0.5C403,228,403.6,227.3,405.1,228.6z"/>
	<path d="M458.9,224.3c0.9,0.9,2.2,1.5,1.4,3.3C458.8,226.8,459,225.5,458.9,224.3L458.9,224.3z"/>
	<path d="M428.3,220c-2,0.4-2.6-0.7-3.7-2C426.2,218.3,427.4,218.3,428.3,220z"/>
	<path d="M535.1,279.5c0.4,1.1,1.8,1.2,2,2.5C535.4,281.3,535.4,281.3,535.1,279.5L535.1,279.5z"/>
	<path d="M329,242.3c0.4,1.3-0.4,1.6-1,2.4C327.1,243.3,327.5,242.7,329,242.3z"/>
	<path d="M479.7,235.6c-1.2-0.8-2-1.4-1.6-2.8C479.3,233.2,479.7,233.9,479.7,235.6z"/>
	<path d="M473.5,227.5c1.9,0.5,2.3,1.3,2.7,2.5C474.7,230,474.3,229,473.5,227.5z"/>
	<path d="M440.9,211.2c0.7-0.8,1.1-0.8,1.6-0.3C442.3,212,441.7,211.8,440.9,211.2z"/>
	<path d="M549,316.4c-0.7-0.6-0.5-1,0-1.3c0.3-0.2,0.5-0.1,0.6,0.2C549.7,315.7,549.6,316.1,549,316.4z"/>
	<path d="M323.5,247.8c0.2-1.4,0.5-2.1,1.6-1.7C325.4,247.2,324.7,247.5,323.5,247.8z"/>
	<path d="M336.1,276.6c-1.1,1.4-1.7,1.4-2.3,0.5C334.3,276.1,335,276.7,336.1,276.6z"/>
	<path d="M537.1,324.7c1,0.9,1.2,1.5,0.1,2.1C536.2,326.2,536.7,325.5,537.1,324.7z"/>
	<path d="M469,222.5c0.8,0.5,1.3,1.2,1.4,2.2c-1.5,0.2-1.5-1-1.9-1.8C468.7,222.8,468.9,222.6,469,222.5z"/>
	<path d="M532.2,300c0-1,0.5-1.3,1.4-1.2c0.6,0.6-0.1,0.9-0.4,1.2C532.9,300.4,532.6,300.3,532.2,300z"/>
	<path d="M462.7,232.4c0.4,0.5,0.3,0.9-0.1,1.4C462.4,233.3,462.2,232.9,462.7,232.4z"/>
	<path d="M360.3,234c0.6-1.1,1.1-0.9,1.7-0.3C361.8,234.7,361.2,234.6,360.3,234z"/>
	<path d="M367.3,234c-0.8,0.7-1.3,0.8-1.6-0.1C366,233.1,366.5,233.4,367.3,234z"/>
	<path d="M967.3,499.9c-3.8,0.9-5.7,0.2-6.1-2.8c-0.9-5.6,5.1-16.3,10.6-18.7c1.3,2.3-0.2,4.2-1.1,5.9c-1.9,3.5-3.5,7.1-4.6,11
		C965.7,496.8,964.2,498.5,967.3,499.9z"/>
	<path d="M962.2,477.6c-0.5,7-6,12.8-6.2,20.2c-3-1.2-3.5-3.8-2.9-6.3c1.1-4.7,3.4-8.9,5.8-13.1
		C959.6,477.4,960.5,476.7,962.2,477.6z"/>
	<path d="M974.6,502.8c-4.5-4.2-3.2-15.8,1.9-19.9c0.8,0.1,1.3,0.5,1.4,1.2C978.2,485.7,975.5,500.7,974.6,502.8z"/>
	<path d="M984.2,485.4c0.7,5.9-1.6,11.5-0.8,17.8c-4.1-2.5-4.8-5.9-4.2-9.4C979.9,490.6,979.5,486.6,984.2,485.4z"/>
	<path d="M1031.2,490.4c-2.2,6.4-7.4,12-3.2,19.8c-3.5-1-4-3.4-4.2-5.7C1023.1,498.4,1027.1,494.4,1031.2,490.4z"/>
	<path d="M990.2,487.2c1.8,4.6-1.3,8.6-2,13C985.4,497.2,986,491.7,990.2,487.2z"/>
	<path d="M1001.5,494.9c0.2,3.2-2.4,3.1-4.4,3.9c-2.9-3.1-3-6.1-0.5-9.3c1.4,1.3,1.4,1.3,1.4,6.2
		C999.4,496.4,999.9,494.2,1001.5,494.9z"/>
	<path d="M215.7,334c1.1,1.2-0.3,2.2,0.1,3.2c0.6,0.1,1.3,0.2,1.7,0.3c0.7,6.3-2.4,11.5-4.3,17.1c-1.7-2.1-1.5-8,0.4-14.1
		c-2.4,0.8-2.6,2.8-3.2,4.5c-0.6,1.9-3.3,2.7-2.7,5.3c0.5,1.7,1.4,3.5-0.1,5.2c-1.1-3.8-3-7.3-0.2-11.6c1.1-1.7,1.3-4.7,2.4-7
		C211.2,334.4,213.1,333.4,215.7,334z"/>
	<path d="M220.9,319.7c-1.3,1.1-0.6,3-2.1,3.7c-3.8-2.1-4-2.5-3.4-7.4c0.4-2.9,1.8-5.4,2.4-8.2c0.7-3.1,3.7-4.8,6.6-6.6
		c-4.5,4.6-4.5,10.2-4.2,15.9c1.6-4.6,3.9-8.7,7.4-12.2c-0.6,4.9-1.6,9.6-3.8,14.3C223.1,319.6,221.6,318.8,220.9,319.7z"/>
	<path d="M258,350.5c-2.5-2.1-3.6-4.4-1.9-7.3c0.6-1,0.5-2.1,0.5-3.2c0.2-3.5,1.7-5.7,5.4-5.9C263.6,337.1,261.1,347.5,258,350.5z"
		/>
	<path d="M249.1,353.4c-0.3-0.4-0.7-0.7-0.8-1c-0.1-0.7,0-1.4,0.2-2c2.7-7.9,3.3-16.4,7.5-23.8c1.7,0.1,2.2,1.1,1.6,2.2
		c-3.5,7.2-4.6,15.2-6.5,22.9C251,352.6,250.5,353.3,249.1,353.4z"/>
	<path d="M243.1,340.1c-1.9,1.5-2.8,0.8-3.4-0.5c-1-2.3-0.6-4.6,1-6.4c0.9-1,2.2-1.6,3.5,0.2C243.2,335.4,241,337.4,243.1,340.1z"/>
</g>
</svg>
