<?xml version="1.0" encoding="utf-8"?>
<!-- Generator: Adobe Illustrator 23.0.1, SVG Export Plug-In . SVG Version: 6.00 Build 0)  -->
<svg version="1.2" baseProfile="tiny" id="Layer_1" xmlns="http://www.w3.org/2000/svg" xmlns:xlink="http://www.w3.org/1999/xlink"
	 x="0px" y="0px" viewBox="0 0 900 600" xml:space="preserve">
<g>
	<path d="M537.43,111.25c-0.48,1.15-1.68,4.34-3.09,6.48C535.6,117.19,537.08,112.59,537.43,111.25z"/>
	<polygon points="597.07,526.69 597.08,526.69 597.07,526.69 	"/>
	<path d="M711.76,569.9c-3.09-6.8-12.47-23.85-13.73-24.1c-2.44-0.71-4.07-2.64-5.8-4.37c-3.79-3.79-7.92-4.56-12.91-6.3
		c-8.6-3-12.46-6.02-47.38-23.59c-42.79-21.53-25.01-17.7-41.89-18.1c-1.72-0.04-0.52-2.34-1.53-3.46
		c-9.47-7.48-4.75-3.16-22.06,0.1c-4.17-1.22-8.64-1.53-12.71-3.66c0-2.64,0.6-5.09,1.93-7.42c3.18-5.56,7.23-16.99,12.3-26.23
		c7.88-14.36,13.33-45.75,13.61-48.55c-1.13,2.3-0.01,1.14-1.52,5.74c-8.32,21.32-6.48,32.67-22.98,63.54
		c-10.05,18.81,1.98,25.9-14.23,38.43c-1.39-1.17,3.56-4.09,3.56-12.4c-1.96-0.56-2.56,5.35-2.79,6.05
		c-0.9,2.84-3.28,4.03-3.72,6.48c-0.19,1.05,0.13,1.3-0.13,1.49c-2.49,1.84-9.37,6.35-8.71,3.25c1.98-9.37,2.51-31.64,4.37-39.45
		c1.59-6.65,2.48-16.49,0.92-24.81c-1.06-5.63-0.06-8.53,0-12.71c0.2-14.26,8.67-23.74,14.23-36.8c0.89-2.08,0.63-4.42,1.32-6.51
		c4.35-16.66,4.27-11.01,4.27-35.89c0.1-0.74-0.1-1.45,0.51-2.14c8.02-1.05,12.66-0.08,16.06-0.51c20.06-2.55,14.65,0.82,15.35,5.29
		c1.12-1.01,1.66-4.23,3.15-5.39c1.93,0.3,4.07,0.71,6.41,0.51c-1.12,5.29-3.05,10.07-3.46,15.15c-0.02,0.02-0.04,0.03-0.07,0.05
		c-5.77,3.95-2.99,5.86-3.18,6.05c-0.99,2.98-1.75,10.8-1.23,7.83c2.35-13.49,8.02-16.53,8.24-26.43c0.06-2.91,2.14-2.33,4.98-0.92
		c0.42,0.42,1.48-0.89,1.73-1.22c6.1,1.02,0.4-18.6,7.63-53.78c1.78-8.68,0.03-12.86-0.61-23.18c-0.35-5.71-0.95-2.46-1.53-5.9
		c-0.6-7.18-3.79-31.06-7.83-37.01c0-6.82,2.25-4.66-32.13-10.17c-10.07-1.61-10.53,0.43-14.34-1.02
		c-8.52-3.25-12.84,0.9-13.32-3.56c-0.21-1.93-2.45-12.27-2.34-13.22c0.55-4.69-2.28-8.43-9.56-29.89c-0.81-0.2-1.32-0.81-1.63-1.63
		c-11.91-31.75-5.49-34.01-3.86-42.5c2.32-12.08,7.88-17.37,9.15-19.37c-0.72,0.35-1.53,0.16-2.03,0.75
		c-7.48,10.61-11.79,27.11-10.45,35.5c3.31,20.8,3.81,15.27,4.17,20.33c0.63,8.97-0.39,9.14,1.63,15.76
		c2.41,7.91,5.85,7.84,5.39,12.4c-0.58,5.69,2.28,10.12,3.76,16.27c3.85,16,4.08,9.2,2.44,15.76c-0.61,0.61-1.63,0.71-2.14,1.73
		c0.1,1.22-0.59,2.45-1.12,3.76c-3.59,8.9-2.67,11.47-5.39,14.03c-0.4,0.27-3.28,6.65-3.97,13.42c-1.85,18.36,5.33,36.15,1.83,68.63
		c-0.7,6.5,1.55,9.47,0.81,16.06c-0.93,8.36,4.88,4.5,9.25,7.63c0.93,32.64-5.86,25.86-12.3,48.39c-1.71,5.98-6.42,12.42-4.88,24.2
		c0.24,1.2-0.15,1.48-0.31,11.59c-0.09,5.74-1.81,7.53-2.95,16.27c-0.58,4.48-2.17,30.91-3.86,35.99c-2.99,0.4-4.3-4.37-6.71,5.39
		c-2.11,8.54,2.87,11.63,2.14,17.18c-0.52,3.96,0.51,7.73,0.2,11.39c1.32,2.64,3.45,3.6,5.8,4.07c6.43,1.28,6.77-1.85,8.44-1.02
		c6.06,14.05-7.77,26.19,22.88,19.11c64.88,42.69,55.39,37.31,65.17,36.3c33.45-3.48,20.18-3.15,28.77-9.46
		c1.94,0.18,33.31-3.42,37.41-1.53c7.78,4.32,16.37,1.92,25.01-0.2c2.03-0.5,7.57-2.91,7.83-4.98c0.3-1.02-1.02-1.93-0.41-3.15
		c1.22,0.41,1.42,1.83,2.64,1.83C713.28,570.71,713.38,570.2,711.76,569.9z M609.04,501.53c-0.14-0.1-0.24-0.19-0.32-0.27
		C610.53,501.29,610.12,502.31,609.04,501.53z M608.66,501.19C608.3,500.8,608.62,500.74,608.66,501.19L608.66,501.19z M607.33,500
		c0.97,0.49-0.3,0.3-0.52-0.13C606.75,499.74,607.23,499.95,607.33,500z M589.99,501.79c1.46-2.08,1.14-3.08,1.87-5.11
		c0.31-0.85,6.26-0.08,8.88-0.89c10.06,6.04,6.7,2.27-7.22,7.73C587.75,505.77,587.93,504.72,589.99,501.79z M558.58,490.51
		c2.43,0,1.69,6.18,4.66,6.18c0.98,0,0.14-4.18,0.19-4.98c3.1-1.16,1.24,3.42,4.58,4.37c1.12-0.91,1.12-0.91,0.92-3.36
		c1.42-0.2,1.93,1.83,3.56,1.22c0.85-0.73-1-2.27,0.71-2.85c3.56-1.2,7.02-2.44,10.57-3.66c3.8,3.38,6.75,7.94,3.97,12.2
		c-3.69,5.65,0.2,4.96-21.26,3.56C564.21,500.48,555.48,490.77,558.58,490.51z M554.88,490.8c0.6,1.29,0.59,1.34-0.2,1.93
		C554.47,492.22,554.47,491.71,554.88,490.8z M531.61,520.23c-0.01,0.5,3.93-0.55,4.21-0.69c3.07-1.06,5.38-2.94,8.79-4.95
		c0.51,4.27-1.68,7.26-8.15,6.98c-4.27-0.18-4.87-1.49-5.27-1.49C531.52,519.86,531.62,519.82,531.61,520.23z M593.62,235.5
		c-0.1,0.29-0.29,0.16-0.29-0.13C593.38,235.09,593.62,234.85,593.62,235.5z M546.03,228.69c1.05,0,0.62,0.25-0.31,5.39
		c-0.61-0.41-0.92-0.51-0.92-0.61C544.45,231.39,545.84,229.46,546.03,228.69z M544.1,227.98c0,0.32,0.04,0.21-0.2,0.09
		L544.1,227.98z M542.37,231.64c0.74,0.74,0.38,1.15,0,1.61C542.37,232.78,542.37,232.26,542.37,231.64z M542.27,227.07
		c-0.84,0.36-0.73-0.76-1.12-1.93C542.17,225.74,542.58,226.15,542.27,227.07z M536.07,211.51c-3.25-5.87-0.65-8.24-2.24-12.61
		c-5.08-14.04-5.36-13.69-6.2-20.44c2.03,3.05,3.83,5.78,4.58,9.05c2.3,10.1,9.81,22.48,8.64,34.77
		C540.85,224.71,538.07,215.12,536.07,211.51z M531.81,354.89c-3.04-28.34-0.62-7.29-0.71-40.4c-0.02-5.51-2.5-26.12-2.95-41.54
		c-0.36-12.17,3.91-17.63,8.85-29.48c3.15-7.55,3.98-4.97,3.84-6.49c-0.15-1.7-0.25-3.69,1.44-3.48c0,0.84,0.13,1.72,1.31,2.31
		c3.88-0.68,6.75-0.96,5.45,2.32c-2.93,7.36,6.17-5.68,3.5-7.92c-1.93,0.71-0.61,3.56-2.54,4.47c-0.41-1.75-0.39-1.76,1.32-5.29
		c5.38,0,1.78,1.66,3.25,3.66c1.22-0.51,1.02-1.93,1.73-2.75c2.24-0.44-1.2,3.96,1.32,4.68c0.61-1.32,0.2-3.15,1.83-3.97
		c0.9,0.7-0.08,1.3,0,1.93c0.44,2.21,1.62,2.31,1.62,2.01c-0.06-0.07-0.12-0.19-0.09-0.27c0-5.85,5.6-2.91,9.76-3.06
		c1.27,1.27-0.5,3.26,1.73,5.49c0.38-1.54-0.67-6.26,2.14-4.58c0.66,1.31-0.02,2.1,1.12,4.37c0.33,0.83,1.44,1.49,1.34-0.43
		c-0.04-0.85-0.45-2.24,0.09-3.12c0.6-0.45,1.31-0.15,1.43,0.06c0.25,0.41-0.94,2.31-1.15,3.88c-0.33,2.42,1.13,1.98,1.44,1.04
		c3.74-9.34,0.88-2.14,3.36-1.53c0.84-0.67,0.06-2.27,1.22-2.85c1.16-0.58,1.27,1.78,1.53,2.95c1.32-0.3,0.81-1.73,1.42-2.24
		c0.99-0.29,1.88-0.31,2.67,0.07c0.59,0.28-1.3,1.53-1.44,2.3c-0.6,3.32,5-6.27,3.48,0.53c-0.09,0.41-0.07,0.8,0.27,1.17
		c0.92,0,0.92-1.42,1.93-1.42c2.02,1.35,1.66-0.84,2.54-1.73c0.54,1.07-0.61,2.39,0.31,4.68c1.6-1.49,1.44-7.1,3.86-4.68
		c0,1.94-0.66,2.5-0.63,3.7c0.06,2.1,1.18,0.37,1.55,0.37c4.71,2.82,9.31,37.18,9.66,41.38c2.67,31.89-2.95,44.94-2.95,57.35
		c0,11.67-4.65-29.3-4.85-19.74c-0.05,2.52,2.71,19.45,3.53,23.01c1.12,4.87,1.96-1.97,0,14.34c-0.81,4.05,3.5,0.56-21.25,0.2
		c-0.42-2.54,0.01-0.95-3.86-0.3c-1.46,0.24-15.68,1-17.59,1.02c-16.73,0.19-14.04,1.85-13.07-18.15c0.47-9.6-3.78-19.94-1.67-39.08
		c0.2-1.78,0.51-4.49,0.3-6.71c-2.14,2.9-0.88,7.58-2.75,5.08c-6.52-10.24-7.02-10.25-7.12-12.1c-0.1-1.87-1.67-3.27-1.41-5.1
		c0.6-14.14-2.17-12.6-2.15-11.25c0.12,7.78-1.03,18.19,9.25,28.67c0.46,0.53,2.42,2.33,2.44,2.34c-0.87,9.28-1.58,13.09-0.3,20.33
		c-2.57-2.91-4.99-17.3-5.75-14.07c-0.25,1.04,3.12,12.92,5.04,17.53c3.51,8.4,1.2,26.93,2.24,33.13
		C547.43,358.8,534.74,355.85,531.81,354.89z M519.91,471.99c0.23-18.78,2.4-4.02,3.76-31.72c1-20.36-3.7-16.43,14.84-52.97
		c4.23-8.33,2.24-18.53,2.24-27.86c9.61,0.85,14.31-2.89,13.73,1.93c-0.9,7.41-0.8,19.87-0.61,21.86
		c0.69,7.24-11.88,34.35-14.74,38.63c-6.57,13.36-4.64,24.26-6.81,26.43c0.36-0.18-0.14-0.01,1.63,0.2
		c4.48,37.62-0.97,21.33-1.83,42.9c-0.28,6.95,0.11,6.23-4.11,7.04c-3.32,0.63-6.69,0.64-10.13,0.49
		C516.56,491.04,519.78,482.11,519.91,471.99z M530.67,499.97c0.07,1.07-2.45-0.16-0.09-0.63
		C530.63,499.61,530.66,499.81,530.67,499.97z M527.84,501.27c-1.42,1.22-2.95,1.42-4.98,1.12
		C524.44,501.55,526.02,501.27,527.84,501.27z M523.86,515.96c-1.54,0.78-0.75,5.72-1.11,7.57c-1.16,6.05,6.35,10.96-10.68,6.1
		c-0.61-2.95-1.45-5.7-0.51-8.64c1.3-4.03-1.08-10.94-3.05-14.03c0-2.14,0.92-4.07,0.1-5.9c3.52-7.54,1.45-3.25,5.69-3.25
		c-0.42,2.52,0.4,3.23,5.39,6.2c3.08,1.83,6.92,0.61,10.27-0.61c0.58,2.03-0.11,2.09-0.5,8.66
		C529.01,519.97,530.53,512.56,523.86,515.96z M543.29,551.49c-5.52,0.61-9.36,1.64-14.44-1.12c-0.41-3.36-0.67-6.5-0.2-9.66
		c0.42-2.82-0.82-4.64-3.15-12.51c1.05-1.76,1.76-0.36-0.2-5.8c-0.87-2.42-0.89-5.7,1.27-5.41c1.3,0.18,0.69,1.77,1.68,2.97
		c1.35,1.64,3.44,2.57,5.49,2.75c2.79,0.24,5.75,3.2,11.49-1.22c1.39-1.07,1.63-3.53,2.54-6.51c0.97-3.88,6.81-15.7,7.52-16.78
		c0-1.62-2.37-0.68-0.04-3.56c0.44-0.54,0.85,1.32,3.6,3.05c3.79,2.38,3.19,5.88,6.51,6.71c-0.28,3.18-1.4,6.87-0.3,10.17
		c2.76-2.04,2.67-5.26,3.97-7.73c0.49,2.04-0.64,6.08,1.65,7.38c2.22,1.27,2.29-7.34,4.27-7.31c2.52,0.04-0.18,5.12,3.03,5.72
		c2.89-1.38,0.1-6.92,3.66-5.08c1,1.2,0.88,3.45,2.95,3.86c1.02-1.12,0.71-2.54,1.22-3.76c0.83-0.74,1.84-0.06,2.62-0.23
		c0.66-0.19,0.75,1.17,1.78,1.55c1.86,0.68,1.27-1.78,1.49-2.53c15.34-6.27,14.13-4.46,19.93,1.02
		c0.76,3.81-16.71,19.22-14.63,19.22c0.1,0,0.14-0.01,0.09,0c1.08,0-0.43-0.71,1.12-0.71c-0.88,0.59,0.02,1.09-1.12,0.71
		c-0.17,0.05-1.49,0.49-5.69,3.35c-11.16,7.61-23.68,5.38-29.99,11.49C555.75,546.99,547.32,548.1,543.29,551.49z M709.01,572.34
		c-4.78,3.19-17.33,5.61-24.71,5.8c-7.61-4.28-2.34-4.48-42.9-0.51c-2.04,0.2-2.38,1.42-6.72,5.89c-0.5,0.51,2.32,0.03-22.97,3.06
		c-6.7,1.34-9.57-0.47-12.61-2.85c-9.07-7.09-20.96-13.53-22.37-14.95c-0.53-3.17,0.98-1.16-9.76-7.63
		c-4.4-2.65-6.43-5.32-13.42-9.76c-3.52-2.24-0.99-2.04,3.4-4.13c3.72-1.77,4.86-3.44,6.83-4.92c2.61-1.96,9.01-3.17,10.01-3.03
		c1.28,0.18,1.99,1.43,3.24,1.41c0-0.88-1.22-0.97-1.22-1.93c2.47-2.23,8.1,0.17,18.61-8.64c2.05,0.51,7.16-4.34,9.19-6.15
		c9.65-8.61,9.81-12.36,10.32-13.38c0.43-0.69,3.88-2.02,0.1-5.08c-3.8-3.07-6.22-5.15-0.9-1.93
		c64.43,39.04,79.35,31.85,89.06,50.02C711.92,571.82,709.01,562.84,709.01,572.34z"/>
	<path d="M568.5,140.54l-0.1,0.1C568.54,140.61,568.5,140.75,568.5,140.54z"/>
	<path d="M717.65,153.25c0.13,0.04,0.1,0.05,0.1-0.1L717.65,153.25z"/>
	<path d="M736.87,597.96c-8.96-388.69-15.16-429.93-14.66-435.17c0.14-1.42,4.24,0.04,5.31-1.5c1.58-2.3,0.12-4.34-0.1-5.69
		c1.63-1.73,0.92-3.76,0.81-5.8c-0.41-0.41-0.81-0.92-1.32-1.42c0.24-2.49,0.15-12.47-2.34-14.54c-4.02-3.35-4.47-112.32-5.9-120.89
		c-0.28-1.12-1.83-0.9-1.83,0.71c0,4.06,4.39,118.32,2.95,119.77c-10.42,2.61-8.87,2.71-9.15-3.36
		c-7.74-166.83-7.54-146.19-1.83,6.2c-8.62,9.94-9.59,16.24-13.42,19.72c-8.65,1.89-39.87,6.5-49.41,2.64
		c-8.36-3.38-13.29-3.38-19.42-4.78c-3.5-0.8-3.63-3.91-4.27-5.19c-5.16-12.71-12.37-10.24-10.88-20.64
		c1.06-7.4-0.22-8.66-1.32-13.83c-2.87-13.43-14.27-13.3-15.15-15.05c0-1.22-0.1-2.44,0-3.76c0.1-1.32,0.3-2.54,0.41-3.86
		c0.34-4.4-4.29-3.42,9.56-5.49c2.84-0.43,5.08-1.53,6.71-4.47c-0.41-2.24-0.71-4.78-1.12-7.52c0.45-0.45,2.11-5.45,1.73-7.93
		c1.03-1.49,5.24-3.21,1.42-5.59c0,2.35-0.18,2.95-2.75,2.54c-0.88-11.47,1.19-2.54,2.67-2.45c0.22,0-2.25-6.92-4.89-8.55
		c0.1-0.87,1.12-0.93,1.5-1.6c-0.67-1.34-1.1-0.72,0.41-4.47c-0.41-4.98-2.95-9.15-4.78-13.83c2.16-2.16,5.74-9.12,5.59-12.51
		c-1.42-0.61-1.02,0.92-1.83,1.22c-0.41-1.83,1.42-3.86-0.3-5.59c-1.83,0-3.15,1.53-4.98,1.63c-1.7-1.27-1.06-1-5.29,0.41
		c-5.51-1.22-5.18,0.69-15.15-1.73c-11.01-2.67-22.89,6.65-24.5,6.51c-0.3-1.2-0.79-3.3-1.93-2.85c-1.04,1.04,0.56,2.79-0.3,3.66
		c-1.53-0.2-3.05-0.92-4.58-0.2c-0.79,1.99,3.26,2.74,2.03,5.19c-0.74,0.63-3.06-0.33-2.44,1.53c0.3,1.32,2.03,1.12,2.54,2.54
		c-4.15,14.51-1.1,13.42-0.81,27.76c0.22,2.38,1.18,3.76,1.42,9.46c0.5,11.65,1.01,6.28,1.83,7.93c0.1,1.53-0.81,2.95-0.3,4.47
		c0.61,0.1,1.12,0.1,1.63,0.2c0,16.36-15.78,10.88-21,29.46c4.65-11.05,1.29,4.44,11.45-4.75c5.24-4.74,5.36-2.91,12.2-8.24
		c3.64-3.64,15.78-0.79,15.56,0.31c-1.44,1.72-2.1-1.04-5.9,1.22c-20.31,12.1-13.62,24.97-14.44,28.87
		c-0.7,3.35,0.7,9.66,1.83,11.69c4.91,8.79,10.42,10.72,17.18,14.03c8.4,4.11,3.06-1.01,2.44,9.56c-0.01,0.12-2.98,12.19,0.1,6.81
		c3.16-5.51,2.51-8.48,3.97-8.64c6.23,15.58,18.47,14.73,20.54,17.49c0,0.81-0.71,1.52-0.61,2.54c0.52,5.39,0.12,10.77-0.41,16.17
		c-0.59,6.02,1.64,5.99-0.1,16.17c-1.42,8.27-0.39,8.54-1.02,7.52c-0.79-1.29-1.21-2.78-2.76-3.42c-0.03,0.38-0.16,0.81,0.01,1.18
		c2.9,7.41,2.16,7.9,3.25,7.63c0.56-0.39,0.36-1.04-0.31,2.75c-0.35,1.98,0.89,2.28,1.32,1.42c2.82-8.86-0.95-9.25,1.53-17.39
		c0.03-0.1,0.68-13.61-0.61-15.56c2.87-11.48-0.23-18.81,2.54-16.67c5.11,3.94,7.05,5.47,10.78,5.39c6.16-0.13,1.93,0.39,10.68,1.63
		c26.26,3.71,66.84-18.11,77.27-18c7.61,0.09,4.5-17.97,9.96,136.34c7.58,213.97,10.97,291.45,11.69,291.69
		c1.36-1.66-14.54-413.13-14.54-428.94c5.57-1.69,10.92-8.04,6.51-5.49c-2.97,1.71-5.74,3.51-14.64,4.27
		c-6.32,0.54-2.04-0.59-35.79,11.9c-27.91,10.33-47.13,3.57-48.9,4.58c-2.55,1.45-5.23-0.47-7.93-2.34
		c-13.84-9.58-10.52-6.42-12.91-7.93c-14.65-9.24-10.92-9.42-12.3-11.79c-2.56-4.42-4.07-9.25-5.9-14.13
		c-3.46-1.83-6.45-4.62-9.35-7.63c-3.32-3.43-0.03,5.87,7.93,9.15c0.3,1.02,1.12,2.03,0.2,3.46c-7.17-3.68-11.98-5-16.98-12
		c-3.1-4.35-2.06-7.9-2.44-9.05c-3.83-15.31,5.78-31.79,21.05-32.53c5.57-0.27,1.1,1.7,9.56,1.02c5.38-0.44,14.45,4.52,19.01,13.93
		c-0.53,5.3,1.01,0.97,0.3,14.64c-0.4,7.73,3.2,8.29,8.95,16.27c5.65,7.84,4.82,9.58,11.69,10.68c12.65,2.02,13.55,2.24,14.95,3.76
		c21.23,3.71,26.9-0.63,38.02-1.12c16.75-0.74,12.38-3.41,14.74-4.37c1.14-0.46,5.65-8.75,6.51-11.18c1.12-3.15,4.07-4.68,6.3-6.91
		c0.1-0.08,15.17-5.06,13.42-0.92c-0.42,1,0.09,2.62,0.16,2.72c-1.46,0.93-0.1,1.47,0.46,0.61c1.78,1.78-1.37,1.38-1.94,0.73
		c0.15,0.15-2.49,1.28-5.69,0.1c-0.91-0.23-2.14-0.76-2.14,0.51c4.76,3.17,8.89,0.76,11.29,2.24c0.91,5.46-0.46,4.01-8.24,2.95
		c-1.46-0.29-1.7,0.94-0.51,1.32c4.98,1.6,7.67,0.74,9.96,2.75c0.28,3.3,0.81,4.24-0.81,4.78c-0.81,0.1-1.02-0.81-2.03-1.02
		c-1.8,0.5-3.79,0.02-5.8-0.68c0,3.94,11.68,1.43,7.93,6.78c-3.36,1.12-2.34-0.42-3.76-0.1c-0.71,0.61-1.73,1.22-2.24,2.44
		c3.62,4.34,13.16,437.59,16.27,437.59C736.97,599.68,736.89,598.77,736.87,597.96z M603.68,181.11c0.25,0.12,0.2,0.05,0.2,0.29
		C603.67,181.39,603.59,181.28,603.68,181.11z M610.72,56.89c-0.33-0.18-0.38-0.52-0.43-0.86C610.45,56.31,610.6,56.6,610.72,56.89z
		 M608.97,53.82c-0.23,0-0.21,0.04-0.35-0.22C608.81,53.55,608.97,53.64,608.97,53.82z M604.49,27.69c0.89,0-0.53,0.99,0.29,1.56
		c0.74,0.5,0.01,0.43-0.22-0.06c-0.43-0.9-0.83,2.18-2,2.68c0.2,0-0.62-1.99,0.24-2.95C603.35,28.31,603.94,28.08,604.49,27.69z
		 M603.68,25.16c-1.1,1.65-3,3.21-1.49,1.16C602.51,25.88,603.04,25.56,603.68,25.16z M601.65,24.13c0,0.76-0.8,0.61-0.7,0.61
		C600.91,24.23,601.27,24.13,601.65,24.13z M601.55,36.13c-0.09,0.37-0.32,0.44-0.32-0.2C601.23,35.78,601.55,35.76,601.55,36.13z
		 M600.83,17.93c0.1,0.1,0.36,0.3-0.1,0.3C600.63,18.13,600.37,17.93,600.83,17.93z M600.82,24.86c-0.09,1.36-0.98,1.71-2.33,1.71
		c-0.5,0-0.96,0.48-1.73-0.1C597.86,25.18,599.42,25.15,600.82,24.86z M598.8,18.85c-0.71,0.09-1.85,0.8-2.34-0.61
		C597.17,17.77,597.48,18.52,598.8,18.85z M591.18,18.85c-0.51,0.51-1.02,0.3-1.53,0.2C590.06,18.34,590.67,18.64,591.18,18.85z
		 M584.77,39.08c0.17,0,0.24,0.07,0.23,0.14C585,39.72,583.89,39.08,584.77,39.08z M583.6,25.09c0.09-0.13,0.3-0.09,0.46,0.06
		C585.4,27.61,582.55,26.54,583.6,25.09z M582.23,27.49c0.41,1.22,0.71,2.24-0.71,2.95C580.7,29.22,581.21,28.4,582.23,27.49z
		 M578.32,17.27c0.33-0.13,0.73,0.2,0.25,0.36C578.38,17.63,578,17.46,578.32,17.27z M578.06,49.04c0.13,0.26,0.16,0.2-0.1,0.2
		L578.06,49.04z M577.35,27.59c0.37,0.5-0.2,1.39-0.2,0.46C577.15,27.89,577.2,27.74,577.35,27.59z M573.28,41.42
		c-0.07,0-0.13,0-0.2,0C573.21,41.15,573.15,41.16,573.28,41.42z M566.88,50.46c-0.62,0.62-0.94,1.32-1.83,0.81
		C565.25,50.46,565.86,50.36,566.88,50.46z M566.78,41.52c0,0.33,0.02,0.65-0.15,0.36C566.5,41.67,566.62,41.21,566.78,41.52z
		 M565.96,29.52c2.19,1.65-0.51,2.95-0.65,2.81C564.11,31.07,564.15,31.03,565.96,29.52z M561.69,50.87c0.12,0.12,0.45,0.35-0.1,0.9
		C561.36,51.78,561.02,51.32,561.69,50.87z M560.27,41.52c0.31,0.71,0.2,1.22-0.1,2.03C559.25,42.64,559.76,42.23,560.27,41.52z
		 M557.98,53.4c-0.15-0.15,0.03-0.7,0.56-0.7C559.44,52.7,558.66,54.16,557.98,53.4z M593.11,98.96c-1.13,0.72-0.62-0.07-7.02,0.92
		c-3.97-3.05-12.49-3.93-17.08-4.68c-11.81-1.93-27.35,21.17-25.21,8.34c1.77-2.47,13.36-11.5,15.05-11.08
		c0.1-0.3,0.51-0.51,0.51-0.81c0-0.01,0-0.03,0.01-0.04c1.91-11.43,0.82-13.81,3.45-15.31c1.17-0.21,3.55,2.74,4.58-0.39
		c0.4-1.21,0.3-1.63,0.5-1.63c1.05,0.19,1.26,2.38,1.78,0.97c0.47-1.28,1.59-1.85,2.81-2.4c0.72-1.2-0.68-3.38,2.55-2.73
		c1.07-1.07-1.6-1.07,2.73-4.17c3.22,0,1.3-1.01,2.57-3.31c0.48-0.88,1.02-0.68,1.27-1.71c0.32-1.28-0.34-1.81,0.26-3.24
		c2.33-5.56,2.09,1.78,5.95,3.39c2.31-0.9,2.34-0.93,2.24-2.64c-0.27-0.45-0.61-0.51-1.13-0.51c0,0.84-0.31,1.27-0.59,1.72
		c-1.96,0.25-1.45-2.93-4.98-7.22c-1.38-1.67-0.62-5.32,0.92-6.91c3.17-3.3,3-1.99,6.3,1.02c1.04,4.47,1.09,14.97,4.07,5.08
		c2.99-9.93,4.5-6.4,9.76-17.79c1.7,2.3,3.74,6.74,4.91,10.67c0.36,1.22-1.96,1.34-4.04,4.81c0.56,0.06,1.36,0.09,1.86,0.09
		c-0.43,1.88-0.76,2.97,1.44,2.85c0,1.32,0.21,1.65-0.84,0.95c-1.24-0.62,2.07,4.53,1.86,6.88c-0.41,4.67,1.42,6.38,1.42,7.73
		c-0.22,1.48-1.71,1.63-2.34,2.34c-1.73,1.96,2.72-0.08,0.82,3.3c-0.55,0.97-0.58,0.48,0.4,7.68c-1.22,4.29-8.93,1.95-16.38,5.67
		C592.75,89.29,592.81,96.01,593.11,98.96z M608.26,49.04c-0.25,0.35-0.59,0.25-0.94,0.22C607.59,48.97,607.8,48.68,608.26,49.04z"
		/>
	<path d="M240.66,340.73C240.69,340.69,240.67,340.69,240.66,340.73L240.66,340.73z"/>
	<path d="M377.83,126.62c0.02-0.01,0.03-0.01,0.05-0.02C377.76,126.49,377.73,126.53,377.83,126.62z"/>
	<path d="M383.36,147.66c1.22-1.83,0.81-3.66-0.1-5.49c1.73-1.73,1.12-3.86,0.92-6c-1.73-1.38-1.51-1.54-1.22-3.86
		c0.1-2.41-0.91-7.93-0.92-8.03c-0.11-4.96-3.28-3.42-3.36-6.91c-5.39-264.4-1.52,0.83-2.75,2.24c-8.51,1.82-9.15,2.92-9.15-0.61
		C365.53,96.36,363,5.4,362.52,2.07c-3.73-18.65,1.72,94.19,2.34,120.07c-18.02,20.28-2.67,20.52-33.55,22.37
		c-1.26,1.42-1.79,1.55-13.22,1.73c-20.96,0.33-14.43-2.73-30.09-5.19c-14.46-2.27-6.55-5.92-15.86-15.05
		c-11.79-11.56-0.6-10.41-5.8-22.88c-0.82-2.46-1.21-12.73-14.03-16.67c-0.61-0.19-1.32-0.2-1.83-1.12
		c0.31-2.03-0.13-4.28,0.41-6.51c0.39-1.64-0.76-3.78,0.1-4.78c15.49-3,17.17-0.88,15.35-13.62c0.48-0.48,2.11-5.48,1.73-8.13
		c2.57-2.2,2.95-2.54,2.95-3.25c-0.33-1.48-1.28-2.24-1.42-2.24c0,0.03,0,0.06,0,0.09c-0.62-2.38-2.86-7.22-5.07-8.62
		c0.12-1.5,2.48-0.62,0.8-2.86c2.36-5.89,0.08-6.98-3.66-16.88c2.21-2.84,5.64-9.17,5.49-12.61c-1.42-0.61-1.02,0.92-1.83,1.22
		c-0.41-1.83,1.42-3.86-0.3-5.59c-1.83,0-3.15,1.53-4.98,1.63c-2.53-1.9-2.45,0.22-5.69,0.41c-0.51-0.51-1.32-0.61-2.14-0.51
		c-10.85,0.77-15.31-3.64-21.66-1.02c-0.41,0.2-0.92,0.3-1.32,0.3c-1.73-0.1-3.16,0.59-4.68,1.32c-11.53,5.57-8.82,5.73-10.27,2.34
		c-0.2-0.41-0.61-0.71-1.12-0.51c-0.92,1.22,0.41,2.44-0.1,3.66c-1.73,0-3.25-0.92-4.78-0.1c-0.79,1.99,3.26,2.74,2.03,5.19
		c-0.61,0.61-1.63-0.1-2.34,0.61c-0.81,2.14,1.93,1.83,2.44,3.46c-3.96,11.88-1.59,13.49,1.12,44.63c0.51,0.51,1.02-0.2,1.32,0.41
		c0.1,1.53-0.81,2.95-0.51,3.97c0.91,1.44,1.93-0.26,1.93,1.53c0,4.27-0.85,7.79-5.08,10.57c-5.61,3.68-7.3,6.13-10.68,8.03
		c-0.35,0-3.97,4.49-5.19,9.05c-4.56,17.07-4.19-5.72-15.25,32.23c-3.76,12.91,4.24,27.42,3.66,37.82
		c-0.27,4.92,1.74,13.24,4.88,16.67c3.72,4.07-0.11,4.29,4.27,17.08c2.7,7.9,2.3,11.85,4.88,16.37c-1.54,7.18-1.67,3-3.25,5.9
		c0.29,1.6-1.68,3.33-3.76,11.69c-2.18,8.75-7.59,7.38-6.3,30.6c-2.68,4.02,3.25,11.79,2.14,46.16c-0.47,14.5-1.44,15.45,0,19.32
		c0.21,0.56,0.78,7.57,0.2,9.86c-0.13,0.51-0.19,2.35,1.02,3.15c8.81,4.4,11.79-0.12,11.69,5.19c-0.16,9.04,1.67,9.31-0.61,14.64
		c-21,49-4.35,53.91-6.81,61.31c-0.47,1.18,2.78,36.92,2.14,38.84c-1.22,0.41-2.03,1.53-3.56,1.22c-1.14,0-7.9,7.12-9.35,8.95
		c-4.73,5.93-8.08,5.67-10.07,8.74c-0.8,1.23-1.93,1.53-2.95,2.03c-0.41,2.95-0.39,3.34,1.42,4.88
		c13.06,11.06,12.47,9.14,13.22,11.08c2.74,7.07,9.04,4.54-7.83,7.73c-7.18,14.35-15.09,16.89-5.69,25.01
		c23.8,20.57,88.05,63.42,94.55,62.53c23.96-3.29,26.48-0.9,29.89-6.41c2.51-4.05-0.25-3.43,35.38-5.8c6.94-0.46,6.3,2.48,12.1,2.85
		c8.22,0.53,18.55-2.5,19.72-2.95c9.49-3.63,5.13-5.64,5.49-8.13c0.66,0.23,7.59,8.02-0.51-5.8c-8.85-15.08-8.4-17.32-12.2-18
		c-0.13,0-4-3.56-4.37-3.97c-3.6-3.95-12.14-5.51-17.89-7.93c-0.15-0.06-76.42-39.47-76.96-39.35c-4.35,1-8.85,1.02-13.22,2.64
		c-1.42-2.34-2.54-4.58-3.25-7.12c6.17-13.97-0.76-14.4-5.59-17.69c-0.65-10.13-1.4-11.42-0.61-14.74
		c4.95-20.87,4.66-21.48,5.59-22.98c2.66-4.31,11.2-35.14,9.35-42.29c-0.57-2.22,0.71,0.05,0.71-12.91
		c-4.35-1.74,2.42,16.77-11.49,50.53c-5.76,13.98-7.33,33.45-4.37,46.97c-1.32,1.42-2.44,3.15-4.17,4.27
		c-15.57-2.08-6.66-1.61-13.01-7.22c-2.21,0.83,0.21,5.17-3.15,3.15c0,0.61,0,1.22-0.1,1.53c1.2,2.01,3.07,3.25,5.49,3.56
		c19.28,2.42,14.7,0.6,15.15-1.42c1.02-1.32,2.24-2.85,3.25-4.27c6.24-0.57-0.07,10.35,0.71,15.05c-1.46,1.02-3.57,1.95-2.46,3.24
		c1.89,2.2,3.13-2.46,4.49,1.03c-0.32,1.29-3.49,1.21-1.86,3.33c0.85,1.1,2.48-0.96,3.17,0.24c2.27,3.96-0.66,3.11-1.31,3.64
		c-0.47,0.38-1.12,0.99-0.62,1.5c1.1,1.13,3.01-0.27,3.44,0.93c0.21,0.6-0.55,1.57-0.09,2.03c1.59,1.61,2.99,3.71,4.09,6.21
		c-0.71,4.23,0.93,1.27,1.93,0.81c8.89,5.4,9.25-2.67,11.29,10.56c-0.3,0.71-0.71,1.53-1.12,2.34c-10.59,2.94-10.44,3.69-21.35,2.03
		c-5-0.76-3.77-1.5-9.86-4.47c-8.69-4.24-5.68-7.41-10.07-8.24c-5.58-1.05-15.96-10.51-16.06-10.57
		c-1.06-0.66-11.09-6.78-11.49-8.54c-0.77-3.36-4.7-5.36-4.88-7.22c1.62-1.89,4.19-0.88,6.41-5.19c1.37-2.66,5.68-4.43,12.51-14.34
		c2.59-3.76,2.9-2.98,5.69-1.12c0.49,2.45,0.79,9.04,3.66,7.32c0.49-2.47-1.51-3.47-0.1-8.95c-0.81-1.42-2.64-0.81-3.86-1.73
		c0.61-2.44,0.5-4.88,0.92-7.32c2.65-15.59,5.28-31.41,1.73-42.29c-5.42-16.61-2.94-16.51,7.83-49.82
		c3.44-10.65,0.61-23.96,0.61-28.16c0.11-0.08,29.21-2.68,32.33-0.41c0.65,5.2-0.87,5.75,0.41,5.9c1.97-5.17,2.67-7.26,7.02-5.08
		c0.1,1.53-1.83,1.02-2.03,2.34c0.41,0.2,0.81,0.41,1.02,0.61c-5.77,25.02-0.37,13.58-6.51,28.06c-4.19,9.89,0.49-2.57-1.02-2.95
		c-0.49,0-0.02-0.73-2.24,8.44c1.66-1.18,1.32-1.5,1.32,1.2c2.91-3.27,4.32-7.21,6.51-12.99c2.11-5.57-1.29-7.7,1.32-13.73
		c1.23-2.84,2.44-5.59,3.66-8.54c1.42-0.51,2.44-1.63,3.15-2.85c1.18,0,2.3,2.03,2.75-2.44c0.84-21.01,2-37.32,4.88-51.34
		c1.92-9.33-0.15-14.04-0.61-23.49c-0.27-5.48-1.53-2.69-1.53-5.59c-0.57-6.72-3.89-31.64-7.83-37.11c0-6.82,2.25-4.66-32.13-10.17
		c-10.07-1.61-10.53,0.43-14.34-1.02c-1.12-0.43-6.66-1.26-7.63-1.32c-4.44-0.31-4.98,1.11-5.8-2.95
		c-0.05-0.51-2.05-11.3-2.24-11.79c-0.59-0.89,0.78-0.39-0.51-5.49c-3.16-12.49-22.38-47.8-16.67-61.51
		c3.35-8.03,2.45-16.12,10.78-26.13c2.78-3.34,3.55-8.36,6.2-11.9c1.66,0.66-0.01,3.12,5.9,2.14c3.58-1.65-0.44-1.04,16.98-11.49
		c2.85-1.71,5.26-0.92,13.52,0.51c1.35,0.45-0.12,1.66-1.42,1.22c-2.92-1.17-20.55,8.02-18.61,26.43
		c1.73,16.44-0.74,20.18,23.79,30.91c-2.2,4.99-3.54,14.2-3.36,15.45c3.45-0.43,3.76-13.61,6-8.13c3.42,8.38,9.25,11.25,17.59,14.64
		c4.18,1.7,1.42,0.97,1.73,3.76c0.67,11.86-1.15,17.38-0.51,19.72c1.9,8.88-1.53,14.41-0.82,23.39c-1.06-0.86-1.61-5.42-4.26-6.42
		c1.66,6.64,1.24,3.23,2.54,8.44c0.1,0.3,0.41,0.51,0.81,0.41c1.01-0.63,0.57-2.68,0.91-2.34c0-0.26,0.78,0.32,0.61,1.32
		c-0.62,3.61-1.4,4.6-0.31,5.39c1.79,0,2.04-6.42,1.83-8.13c-0.53-4.22,2.11-22.06,0-25.21c3.77-15.08-2.7-21.55,6.81-13.52
		c4.17,3.52,7.53,1.53,10.68,2.54c18.47,5.92,51.27-5.7,71.27-13.42c12.18-4.7,12.12-2.82,13.22-3.36
		c6.63-3.21,4.44-5.95,9.15,128.31c0,0.1,10.32,300.69,11.08,301.45c2.44,1.22,1.53-2.98,0.41-29.99
		c-1.04-25.02-7.52-210.55-7.52-210.66c-9.15-229.8-9.67-179.45,0.92-195.92c-1.22,0.31-2.23,1.03-3.36,1.63
		c-11.06,5.89-8.41,0.19-26.03,7.02c-32.49,12.59-36.27,13.15-52.16,13.93c-14.59,0.71-16.85-2.46-19.22-1.12
		c-2.55,1.45-5.23-0.47-7.93-2.34c-13.86-9.59-10.52-6.42-12.91-7.93c-14.65-9.24-10.92-9.42-12.3-11.79
		c-2.56-4.42-4.07-9.15-5.9-14.03c-3.56-2.03-6.71-4.68-9.46-7.73c-2.04-2.04-1.44,0.16-0.1,2.34c4.4,7.16,10.51,5.92,8.13,10.37
		c-20.37-11.25-18.92-12.02-20.13-26.64c-1.55-18.8,16.95-31.38,25.62-26.13c1.59,0.79,16.54-2.99,24.6,14.44
		c-0.1,0.81-0.41,1.42-0.3,1.93c1.7,6.36-0.03,14.41,0.41,15.45c4.46,10.77,0.3,1.45,8.95,13.42c5.57,7.71,4.8,9.39,11.39,10.57
		c10.97,1.97,13.09,1.8,15.05,3.76c16.67,4.27,29.4-0.82,39.04-1.12c4.17-0.13,8.13-0.81,12-1.73c6.53-6.53,8.66-19.39,16.88-21.25
		c15.31-3.47,9.95-1.15,11.15,2.21c-1.3,0.79-0.41,1.53,0.35,0.64c0.03,0.04,0.98,1.28,1.02,1.32c-1.78,0.32-2.5-0.02-2.7-0.19
		c-3.88,1.34-5.93-0.32-7.17-0.32c-0.66,0-1.35,0.52,0,1.42c4,2.1,8.53,0.42,10.27,1.53c3.21,8.34-8.7,0.82-9.35,3.76
		c4.95,3.3,11.08-0.8,11.08,6.91c0,0.61-0.51,1.02-1.12,1.22c-0.81,0.1-1.02-0.81-2.03-1.02c-1.8,0.5-3.79,0.02-5.8-0.68
		c0,3.84,11.79,1.57,8.03,6.58c-1.83,1.42-4.27,0.61-5.8,1.93c-0.3,1.32,0.92,1.12,1.32,2.24c0.66,8.85,13.62,433.72,13.62,433.82
		C398.99,656.87,374.73,158.45,383.36,147.66z M230.86,480.83c0-0.19,0.41-0.61,0.41,0.2C231.1,481.04,230.86,481.36,230.86,480.83z
		 M186.42,507.06c5.1,4.39,16.95,11.5,18.47,13.03c4.36,3.28,6.42,3.3,8.79,4.51c0.53,0.18-0.47,1.22,3.67,4.62
		c12.16,9.99,29.27,10.04,31.5,9.15c0.41-0.51,0.92-1.12,1.42-1.83c2.85-0.61,5.69-1.32,7.83-3.76c0.8-5.45-1.33-11.59-1.6-11.72
		c-4.7-1.99-8.06-0.17-11.94-4.05c-3.71-3.72-1.86-6.72-4.78-12.8c22.94-3.75,7.97-4.03,38.13,11.49
		c9.08,4.67,36.49,19.16,36.6,19.22c12.54,6.67,11.86,3.99,15.86,6.61c7.75,5.08,8.82,0.97,21.69,12
		c4.27,3.66,4.44,8.34,11.36,18.71c0.09,1.94,0.2,3.98-0.31,5.8c-1.73,3.46-19.39,6.13-24.81,6c-9.73-6.08-11.53-2.79-16.88-2.44
		c-31.34,2.05-26.15,0.78-33.45,8.44c-39.72,0.75-13.95,12.48-57.55-15.35c-0.39-0.2,0.2-0.91,0-1.32
		c-1.12-1.83-7.82-4.44-13.24-8.66c-43.11-33.62-56.46-34.74-50.51-42.58c3.88-5.11,5.45-7.97,8.95-10.88
		C178.83,508.95,171.5,509.86,186.42,507.06z M192.6,482.31c-1.46,2.04-0.52,1.94-6.98,6.56c-1.18,3.55-2.23,2.22-6,6.41
		c-3.97-2.95-7.32-6.3-11.08-9.15c3.05-3.97,6.6-6.93,10.78-9.05c0.98-0.5,1.31-1.85,2.55-2.1c0.31-0.1-0.28-0.68,0.84-1.91
		c0.9-0.98,5.66-4.28,8.89-6.65c0.1-0.1,0.97,0.26,1.28,0.47c3.28,3.29,0.51,2.4,1.08,4.3c0.61,2.03,2.75,2.34,4.17,3.76
		C197.51,476.56,193.9,480.49,192.6,482.31z M215.91,363.4c-1.03,10.55-1.58,6.31-6.61,22.98c-1.31,4.33-1.26,8.83-3.46,13.22
		c-3.6,7.21-1.45,17.78,1.12,25.11c4.07,11.6-1.18,30.02-2.24,42.7c-0.03,0.38-0.21,3.67-0.98,3.66c-4.86-0.09-3.58,3.68-7.26,0
		c-0.3-1.12,0.99-1.73,0.92-2.75c-0.15-1.93-2.44-1.83-2.95-3.56c1.42-5.67-1.77-36.02-1.74-41.47c0.01-1.91,1.18,1.5,2.54,1.5
		c0.74,0-1.8-4.88-2.12-5.68c-4.73-6.92-3.25-4.32-3.66-12.71c-1.52-31.06,12.07-28.44,10.68-59.07c-0.8-5.05,7.38,1.31,12.91-3.15
		c0.86,0.62,1.17,0.93,1.42,6.3C214.83,357.66,216.31,359.36,215.91,363.4z M249.36,221.17c0-0.42,0.3-0.44,0.3,0.1
		C249.43,221.48,249.23,221.3,249.36,221.17z M202.19,214.25c0.33,2.55-0.57,6.95-1.71,4.71
		C200.38,218.86,200.99,215.89,202.19,214.25z M200.05,213.85c0,0.26,0.05,0.23-0.2,0.1L200.05,213.85z M198.32,212.81
		c0,0.1-0.66,0.8-1.22-1.61C198.21,211.41,198.22,212.11,198.32,212.81z M198.32,218.66c-0.27,0.36-0.2,0.52-0.2-1.35
		C198.68,217.87,198.62,218.26,198.32,218.66z M198.03,219.13c0,3.93,2.83,1.22,5.75,2.06c2.95,0.85,0.12,2.87,0.7,4.79
		c1.88-1.88,3.05-2.94,3.4-6.04c0.16-1.45,1.64-3.34,0.41-4.27c-2.1,0.7-0.53,3.63-2.64,4.47c-0.41-1.63-0.41-1.63,1.32-5.08
		c1.3-0.43,2.78,0.06,2.91,0.36c0.26,0.62-0.27,3.5,0.42,3.16c1.12-0.55,0.96-1.91,1.66-2.7c2.21-0.44-1.14,3.86,1.32,4.68
		c0.14-0.31,0.99-5.01,2.03-3.76c0.52,0.61-0.3,1.18-0.2,1.73c0.37,2.02,1.15,2.1,1.43,2.04c0.9,0.91-0.65-0.36,1.11-3.56
		c2.15-0.84,8.75,0.2,8.78,0.3c0.22,0.52,0.78,6.28,1.62,5.02c0.58-0.78-0.8-5.95,2.1-4.21c0.47,0.94,0.4,5.18,2.25,5.18
		c0.91-1.07-1.01-5.73,1.72-4.36c1.04,0.35-1.67,3.13-0.81,5.69c2.09,1.05,2.69-6.8,3.43-4.96c0.13,0.28,0.43,3.74,1.3,2.87
		c0.62-0.62,0.2-3.49,1.78-2.67c0.72,0.37,0.23,0.21,0.81,2.84c1.31-0.26,0.71-1.73,1.63-2.24c1-0.24,1.94-0.1,2.54,0.2
		c0.1,1.22-2.14,1.42-1.32,3.05c1.06-0.48,2.79-3.64,3.5-2.58c0.81,0.95-0.78,2.32,0.16,3.5c0.9,0,0.92-1.42,1.93-1.42
		c0.06,0.03,0.62,0.48,0.81,0.61c1.27-0.42,0.99-1.59,1.73-2.34c0.36,0.71-0.53,5.72,0.59,4.34c1.14-1.4,1.07-5.97,3.22-4.62
		c1.18,0.74-1.12,3.02-0.15,4.95c0.71,0.29,0.91-0.61,1.32-0.61c5.47,3.12,11.29,47.13,10.17,53.38c-0.1,0.3-0.2,0.71-0.1,1.02
		c1.67,9.09-3.36,37.18-3.36,45.95c-0.9-2.32-4.16-21.16-4.29-22.12c-0.48-3.57-0.55,1.42-0.28,3.21
		c0.29,1.98,3.18,21.36,3.66,21.86c1.62,1.68,1.07,1.59-0.3,13.01c-0.9,4.52,3.58,0.18-20.76,0.3c-0.59,0-0.25,0.2-0.64-1.2
		c-0.03-0.12-0.02-0.19-0.01-0.23c-0.2,0.25-2.44,1.93-21.19,2.14c-15.12,0.17-13.84,0.16-13.52-8.03c0.12-3.15-0.2-6.3,0.41-9.46
		c0.1-0.81,0.09-1.63,0-2.44c-4.75-43.3-1.22-30.42-1.22-43.92c-3.76,4.39,1.13,10.79-7.32-1.93c-1.14-1.71-2.64-3.36-2.75-5.29
		c-0.1-1.83-1.53-3.05-1.42-4.88c0.84-14.65-3.22-17.47-1.83-1.93c0.89,10,5.42,15.48,11.39,21.45c-2.08,22.19,2.82,29.32-5.59,5.49
		c-2.05,2.73,6.51,17.98,6.61,29.99c0.15,18.72-0.16,16.49,0.3,21.66c-5.97-0.32-12.38-1.53-16.98-2.95
		c0-3.17-0.94-12.02-1.32-13.42c-0.76-2.79,0-1.67,0.61-16.47c0.98-23.93-7.72-53.87-0.1-68.42c4.14-7.9,6.79-17.27,9.86-19.32
		C196.6,222.89,195.67,218.84,198.03,219.13z M187.95,173.89c2.09,10.73,9.17,20.87,8.85,33.96c-0.12,4.85-1.36-3.98-4.58-9.76
		c-3.95-7.11-0.58-8.13-3.05-14.64C177.12,151.62,186.78,167.89,187.95,173.89z M260.75,166.67c0.24,0.12,0.2,0.05,0.2,0.29
		C260.74,166.95,260.66,166.85,260.75,166.67z M269.59,46.91c-0.02,2.48-0.56,2.75-2.74,2.44c-0.06-0.6-0.08-1.21-0.08-1.81
		C266.74,39,267.85,46.9,269.59,46.91z M266.67,43.16c-0.33-0.18-0.38-0.52-0.43-0.86C266.4,42.59,266.54,42.87,266.67,43.16z
		 M264.92,40.09c-0.1,0-0.2,0-0.2,0C264.36,39.74,264.92,39.78,264.92,40.09z M260.24,13.56c0.99,0,0.2,0.35,0.2,1.22
		c0.11,0.26,0.44,0.32,0.71,0.51c-0.32,0.13-0.5-0.02-0.63-0.33c-0.41-0.96-1.13,1.96-1.65,2.49c-0.8,0.81-0.33,0.16-0.67-1.86
		C258.71,14.39,259.78,14.14,260.24,13.56z M259.94,11.32c-0.71,0.61-1.42,1.32-2.44,2.44C258.11,12.03,258.11,12.03,259.94,11.32z
		 M258,20.08c-0.13,0-0.11,0.03-0.07-0.08C258.04,19.69,258,19.68,258,20.08z M257.48,10.01c0.25,0-0.01,0.55-0.59,0.59
		C256.98,10.6,256.72,10.06,257.48,10.01z M257.39,21.9c0,0.54-0.31,0.12-0.31-0.1C257.09,21.67,257.39,21.49,257.39,21.9z
		 M256.58,3.8c0.09,0,0.32,0.08,0.26,0.2C256.8,4.14,256.31,4.07,256.58,3.8z M256.77,10.73c-0.13,2.06-2.14,1.66-2.33,1.71
		c-0.52,0-1.03,0.31-1.93,0.1C253.76,11.13,255.13,11.07,256.77,10.73z M254.65,4.71c-0.81,0-1.73,0.81-2.24-0.61
		C253.43,3.8,253.94,4.51,254.65,4.71z M246.92,4.51c-0.41,0.81-1.02,0.41-1.53,0.2C245.91,4.31,246.41,4.41,246.92,4.51z
		 M240.52,24.84c0.09,0,0.21,0.1,0.3,0.1C240.82,25.38,239.91,25.03,240.52,24.84z M239.5,10.92c0.71,0.41,1.12,0.81,0.51,1.63
		C239.2,12.24,239.2,11.73,239.5,10.92z M238.18,13.46c0.47,1.15,0.38,2.02-0.61,2.75C236.86,14.88,236.86,14.88,238.18,13.46z
		 M234.52,3.09c-0.07,0.38-0.19,0.36-0.36,0.27C233.6,3.07,234.09,3.3,234.52,3.09z M233.91,34.91c0.13,0.26,0.16,0.2-0.1,0.2
		L233.91,34.91z M233.2,13.46c0.2,0.3,0.3,0.51-0.1,0.81C232.99,13.97,232.89,13.66,233.2,13.46z M229.03,27.08
		c0.13,0.26,0.16,0.2-0.1,0.2L229.03,27.08z M221.81,15.29c0.61,0.31,0.61,0.92,0.92,1.32c-0.2,0.92-0.81,1.22-1.63,1.63
		C220.09,17.22,220.47,15.96,221.81,15.29z M222.62,27.39c0.23,0.23-0.04,0.36,0.1,0.51C222.63,27.65,222.39,27.5,222.62,27.39z
		 M222.62,36.54c-0.41,0.41-0.71,1.12-1.83,0.61C221.4,36.64,221.71,36.03,222.62,36.54z M217.54,36.64c0.3,0.31,0.3,0.92,0.1,0.92
		C216.83,37.35,217.34,36.94,217.54,36.64z M216.22,27.39c0.3,0.61,0.3,1.22-0.2,1.73C215.51,28.4,215.51,28.4,216.22,27.39z
		 M214.49,38.57c0.32,0,0.4,0.88-0.13,0.94C213.62,39.5,213.81,38.36,214.49,38.57z M249.4,74.02c-0.44,2.98-0.45,8.83-0.14,11.43
		c-2.24,0.51-4.68,0.1-6.91,0.91c-3.55-2.76-19.36-7.35-25.21-2.95c-4.7,3.54-10.35,5.72-12.91,8.95c-1.04,1.31-2.44,1.73-4.07,1.02
		c-2.56-5.13,7.26-8.72,13.61-14.84c0.51,0.1,0.81,0.2,1.22,0.3c0.1-0.3,0.51-0.51,0.51-0.81c0.34-2.03,0.88-5.14,1.02-7.32
		c0.98-15.96,5.36-1.47,7.22-10.17c1.02,0.1,0.81,1.22,1.73,1.53c0.57-3.26,3.16-1.51,3.19-4.36c0.03-3.29,3.15,0.04,2.48-2.32
		c-0.18-0.63-0.41-1.08,0.22-1.46c2.51-2.2,2.3-1.83,3.86-1.83c1.09-1.64,0.24-2.96,1.73-4.07c0.8-0.6,0.61-1.69,0.61-2.64
		c0-1.61,0.12-1.65,1.83-3.56c1.53,1.73,1.83,4.37,4.27,5.39c4.58-1.78,0.96-3.83,1.16-3.04c0.31,1.61-1.33,2.47-2.18,0.5
		c-3.03-7.07-4.36-5.73-4.15-9c0.21-3.26,2.69-5.63,4.66-6.05c5.75,5.18,1.99,1.64,4.98,12.61c2.82-2.82,2.44-9.16,8.03-14.84
		c0.89-0.91,4.02-7.32,4.07-7.42c1.97,2.67,3.98,7.61,4.98,10.88c-0.31,1.25-1.57,1.04-3.57,3.76c-0.69,0.94-0.9,0.9,1.23,0.9
		c0.1,0,0.11-0.14-0.13,0.94c-0.66,2.91,1.77,1.12,1.77,2.52c0,2.23-2.62-2.01,0.2,3.97c1.74,3.69-0.34,5.31,1.93,9.86
		c1.62,2.67-2.05,2.76-2.24,4.27c0.4,0.93,1.32-0.04,1.58,1.14c0.4,1.86-1.53-1.21-0.05,9.12C265,71.98,250.02,69.84,249.4,74.02z
		 M264.1,35.21c-0.25,0.35-0.59,0.25-0.94,0.22C263.43,35.14,263.65,34.85,264.1,35.21z"/>
	<path d="M225.17,126.31l-0.1,0.1C225.2,126.38,225.17,126.51,225.17,126.31z"/>
	<path d="M373.7,139.32l-0.1,0.1C373.73,139.47,373.7,139.48,373.7,139.32z"/>
	<path d="M246.72,382.62l0.1,0.1C246.82,382.39,246.85,382.49,246.72,382.62z"/>
	<path d="M367.86,577.57c0.1,0.1,0.05,0.07,0.05-0.15C367.73,577.6,367.76,577.67,367.86,577.57z"/>
	<path d="M196.09,116.25c-0.1-1.42,1.02-2.24,0.41-3.66c-3.2,4-4.38,16.36-1.32,15.05C195.37,122.71,197.74,119.55,196.09,116.25z"
		/>
	<path d="M539.12,142.17c1.43-10.69,2.28-9.26,0.92-12C543.26,119.43,533.25,139.24,539.12,142.17z"/>
	<path d="M223.13,101.6c1.12-0.81,2.34-1.42,2.34-3.56C214.15,106.85,217.04,122.92,223.13,101.6z"/>
	<path d="M562.51,122.45c-1.61,3.39,0.3,9.16,4.78-6.51C572.29,111.52,568.56,109.7,562.51,122.45z"/>
	<path d="M233.81,381.91c-0.64,1.92,0.66-0.07-1.63,17.49C236.01,392.58,236.43,380.6,233.81,381.91z"/>
	<path d="M207.88,408.95c0.51,10.33,6.3,15.43,4.58,11.08C208.86,410.97,209.95,407.3,207.88,408.95z"/>
	<path d="M284.24,151.73c-0.26-0.07-7.46-0.3-7.52-0.3c-1.22-0.1-2.24-1.12-3.25-1.42C270.14,153.32,283.19,155.91,284.24,151.73z"
		/>
	<path d="M628.29,165.76c-3.66-0.2-7.52,1.02-10.68-1.53C613.9,167.95,628.29,169.59,628.29,165.76z"/>
	<path d="M551.93,154.17c-0.81-1.53-2.12-2.75-2.85-4.37c-0.69-1.53-0.71-3.46-2.34-4.78c-1.46,1.46,0.75,5.87,1.83,7.63
		C549.39,153.96,550.3,154.27,551.93,154.17z"/>
	<path d="M207.78,140.14c-0.59-1.76-1.66-1.42-3.86-7.32C201.51,126.38,200.88,138.7,207.78,140.14z"/>
	<path d="M597.58,158.74c-1.83-1.12-3.36-1.02-4.78-1.22c-1.63-0.41-2.54-2.14-4.17-2.44C588.09,157.6,592.01,160.6,597.58,158.74z"
		/>
	<path d="M253.12,144.41c-1.42-1.02-3.04-0.74-4.47-1.12c-1.62-0.43-2.44-2.14-4.27-2.44C243.57,142.69,247.63,146.76,253.12,144.41
		z"/>
	<path d="M232.08,414.85c0.89-2.33,4.14-14.31,1.73-13.62C232.64,411.04,230.27,417.56,232.08,414.85z"/>
	<path d="M597.48,218.42l-0.1,0.1C597.47,218.55,597.48,218.62,597.48,218.42z"/>
	<path d="M627.07,181.82c-7.64-0.35-5.85,0.27-10.37-2.24C618.03,183.81,623.42,183.53,627.07,181.82z"/>
	<path d="M283.02,167.69c-8.65-0.41-4.35,0.25-10.17-1.93C274.21,169.86,279.68,169.2,283.02,167.69z"/>
	<path d="M223.84,360.05c-1.55,0.77-5.23,3.95-3.05,4.58c1.16,0,1.37-0.91,4.27-4.78C224.66,359.95,224.15,359.85,223.84,360.05z"/>
	<path d="M546.95,221.88c2.54,0.51,0.22-4.45,0-7.52C546.95,216.9,546.14,219.44,546.95,221.88z"/>
	<path d="M203.2,207.75c1.74-0.43-0.16-4.38-0.41-7.63C202.7,202.52,201.79,207.75,203.2,207.75z"/>
	<path d="M582.94,105.87c1.53-1.32,3.36-2.24,6.1-3.05C584.05,102.63,580.56,105.16,582.94,105.87z"/>
	<path d="M238.59,91.64c0.81-0.51,1.62-1.14,2.54-1.63c1.01-0.53,2.03-0.81,3.66-1.53C241.27,88.81,236.25,89.89,238.59,91.64z"/>
	<path d="M283.52,156.4c2.85,1.42,3.36,1.53,5.9,0.92C287.49,156.71,285.66,155.79,283.52,156.4z"/>
	<path d="M628.49,170.13c-1.46-0.37-1.76,2.35,5.69,1.53C631.84,170.84,630.22,170.33,628.49,170.13z"/>
	<path d="M209.91,401.23c-1.22,2.24-1.73,4.07-0.61,6.1C209.41,405.39,210.22,403.56,209.91,401.23z"/>
	<path d="M534.95,140.24c0.09-0.51-0.3-0.81-0.92-0.71C531.81,144.88,534.15,144.8,534.95,140.24z"/>
	<path d="M189.48,129.36c1.53-2.34,1.63-2.75,0.61-4.27C188.97,127.94,188.97,127.94,189.48,129.36z"/>
	<path d="M230.45,162c2.74-0.39,2.83-2.64,1.22-2.64C230.86,159.96,230.76,160.98,230.45,162z"/>
	<path d="M575.93,173.38c-0.92,0.81-1.12,1.93-1.42,3.15C577.25,175.11,577.45,174.4,575.93,173.38z"/>
	<path d="M352.56,154.17c2.85,0,2.95,0,3.76-1.93C355.28,151.98,352.95,153.47,352.56,154.17z"/>
	<path d="M700.57,166.67c-1.32-0.2-1.32-0.2-4.47,2.03C698.34,168.4,699.86,168.3,700.57,166.67z"/>
	<path d="M213.37,472.8c-1.22,1.53-1.42,2.75-0.61,4.37C214.08,475.85,214.08,474.53,213.37,472.8z"/>
	<path d="M239.4,106.38c-0.1-3.25-0.1-3.25-1.53-4.27C237.98,103.74,238.38,105.06,239.4,106.38z"/>
	<path d="M259.53,146.14c2.08,0-0.91-1.54-4.78-1.73C256.38,145.93,258.31,145.02,259.53,146.14z"/>
	<path d="M602.66,159.76c0.51,0.1,0.92,0.92,2.14-0.1c-2.24-0.2-3.66-1.22-5.59-1.22C599.66,159.63,601.12,159.54,602.66,159.76z"/>
	<path d="M581.82,116.75c0.61,1.12,0.61,2.54,2.03,4.07C583.32,117.96,583.48,115.65,581.82,116.75z"/>
	<path d="M219.67,482.66c1.32-0.81,1.32-0.81,0.51-2.85C219.37,480.73,219.17,481.65,219.67,482.66z"/>
	<path d="M225.47,355.68c0.51-1.22-0.41-2.14-0.92-3.05c0,1.02,0,2.03,0,2.95C224.56,356.37,225.39,355.84,225.47,355.68z"/>
	<path d="M228.22,165.86c-1.22,1.32-2.85,1.42-3.05,3.15C227.71,167.79,227.71,167.79,228.22,165.86z"/>
	<path d="M572.16,180.3c-1.22,0.92-2.75,1.12-2.95,2.85C571.76,182.03,571.76,182.03,572.16,180.3z"/>
	<path d="M540.85,118.79c1.32-1.53,1.32-1.53,1.22-3.86C539.46,120.1,540.91,121.69,540.85,118.79z"/>
	<path d="M197.51,101.6c-0.32,1.01-0.81,1.93-0.71,3.05C198.86,102.27,198.14,99.61,197.51,101.6z"/>
	<path d="M284.74,167.69c0.13,1.28,2.99,1.36,3.56-0.2C286.98,167.28,285.86,167.28,284.74,167.69z"/>
	<path d="M628.39,182.03c2.64,1.02,2.64,1.02,3.97-0.3C631.13,181.52,630.01,181.42,628.39,182.03z"/>
	<path d="M709.42,145.32c1.02-0.91,1.63-1.53,0.92-2.75C709.52,143.19,709.11,143.9,709.42,145.32z"/>
	<path d="M212.76,467.01c0.1-1.42,0.81-2.14,0.61-3.56C212.66,464.46,212.25,465.38,212.76,467.01z"/>
	<path d="M366.28,128.45c-0.81,1.12-0.81,1.12-1.02,2.54C366.38,130.38,366.79,129.67,366.28,128.45z"/>
	<path d="M248.96,351.71c-1.02,1.42-1.02,1.42-0.51,2.24C249.26,353.03,249.26,353.03,248.96,351.71z"/>
	<path d="M231.37,361.88c-1.53-1.15-1.13,1.75,0.81,2.14C232.28,363.2,231.98,362.49,231.37,361.88z"/>
	<path d="M194.77,140.54c-0.2-0.81-0.2-1.73-0.3-2.64C194.05,138.82,193.75,139.83,194.77,140.54z"/>
	<path d="M538.41,151.52c-0.2,2.14-0.2,2.14,0.41,3.25C538.71,153.96,538.61,153.05,538.41,151.52z"/>
	<path d="M297.86,158.64c-0.71-0.31-1.53-0.51-2.24,0.1C297.05,159.05,297.05,159.05,297.86,158.64z"/>
	<path d="M642.01,172.77c-0.71-0.3-1.53-0.51-2.24,0.1C641.1,173.18,641.1,173.18,642.01,172.77z"/>
	<path d="M606.02,161.28c-0.23,0-0.44,0.41-0.2,0.41C607.07,163.37,607.95,160.9,606.02,161.28z"/>
	<path d="M261.46,147.36c1.01,1.69,1.9,0.38,1.32,0C262.38,146.95,261.97,146.85,261.46,147.36z"/>
	<path d="M251.8,201.65c0-0.71-0.41-1.02-0.92-1.32C250.58,201.65,250.58,201.75,251.8,201.65z"/>
	<path d="M594.84,214.56c-0.41,0.92,0.1,1.32,1.02,1.63C595.85,215.17,595.65,214.66,594.84,214.56z"/>
	<path d="M193.85,135.87c0-0.61-0.1-1.02-0.1-1.63C193.44,134.85,193.44,135.26,193.85,135.87z"/>
	<path d="M537.9,148.47c-0.31,0.51-0.41,0.92,0,1.42C537.9,149.49,537.9,148.98,537.9,148.47z"/>
	<path d="M194.66,140.65c0.1,0.71-0.1,1.42,0.51,2.44C195.27,141.97,195.27,141.26,194.66,140.65z"/>
	<path d="M538.82,154.88c0,0.61-0.1,1.42,0.3,2.14C539.63,156.2,539.32,155.49,538.82,154.88z"/>
	<path d="M212.35,392.48c-1.02,1.53,1.44,1.27,0.51-0.41C212.76,392.28,212.46,392.28,212.35,392.48z"/>
	<path d="M211.54,395.53c-0.61,0.3-0.61,0.81-0.3,1.32C211.74,396.55,212.05,396.14,211.54,395.53z"/>
	<path d="M230.76,404.38c0.3-0.51,0.71-0.81,0.1-1.63C230.86,403.46,230.76,403.87,230.76,404.38z"/>
	<path d="M196.7,104.55c-0.3,0.51-0.61,0.91-0.1,1.73C196.6,105.57,196.7,105.06,196.7,104.55z"/>
	<path d="M578.87,109.33c0.39,0.58,1.52,0.03,0.81-0.2C579.38,108.92,579.08,109.03,578.87,109.33z"/>
	<path d="M234.72,95.2c0.41,0.41,0.81,0.3,1.12-0.1C235.43,94.69,235.13,94.69,234.72,95.2z"/>
	<path d="M196.49,153.25c-0.2,0.41-0.2,0.71,0,1.02C196.8,153.86,196.9,153.56,196.49,153.25z"/>
	<path d="M540.54,167.39c-0.2,0.3-0.2,0.61,0.2,0.92C540.65,168,541.05,167.69,540.54,167.39z"/>
	<path d="M345.54,156.3c-0.27,0-0.61,0.04-0.61,0.3C345.03,156.61,345.54,156.59,345.54,156.3z"/>
	<path d="M688.98,170.64c0.58,0.44,0.93-0.2,0.51-0.41C689.29,170.33,689.19,170.54,688.98,170.64z"/>
	<path d="M231.37,415.56c-0.51,0.41-0.61,0.92-0.2,1.73C231.27,416.58,231.37,416.07,231.37,415.56z"/>
	<path d="M228.52,424.81c-0.3,0.51-0.81,1.02-0.1,1.73C228.42,425.93,228.52,425.32,228.52,424.81z"/>
	<path d="M229.33,164.03c-0.24,0-0.44,0.61,0.1,0.61C229.92,164.64,230,163.58,229.33,164.03z"/>
	<path d="M573.69,178.06c-0.58,0.58-0.38,0.63-0.2,0.81C574.22,178.51,573.95,178.59,573.69,178.06z"/>
	<path d="M713.28,571.22c0.2,0.2,0.1,0.51,0.41,0.71C713.89,571.52,713.59,571.32,713.28,571.22z"/>
	<path d="M233.1,366.45c0.62-0.91-0.3-1.02-0.3-0.91C232.79,365.65,232.88,365.59,233.1,366.45z"/>
	<path d="M232.08,364.12c0.09,0.48,0.11,0.97,0.71,1.35C232.8,364.84,232.83,364.3,232.08,364.12z"/>
	<path d="M227.3,413.12c0,0.51-0.1,0.81-0.1,1.12C227.81,414.04,228.01,413.83,227.3,413.12z"/>
	<path d="M226.89,415.15c0.3-0.3,0.3-0.61,0.2-0.92C226.59,414.34,226.39,414.65,226.89,415.15z"/>
	<path d="M228.83,424c-0.1,0.3-0.1,0.61-0.2,0.92C228.83,424.71,229.13,424.51,228.83,424z"/>
	<path d="M216.42,424.41c-0.52-0.17-0.46-0.36-0.81,0C215.95,424.75,215.95,424.88,216.42,424.41z"/>
	<path d="M230.45,405.19c0.1-0.3,0.1-0.61,0.2-0.92C230.35,404.58,230.05,404.68,230.45,405.19z"/>
	<path d="M223.13,440.98c0.07,0.13,0.31,0.83,0.31,0.1C223.26,441.08,223.43,440.68,223.13,440.98z"/>
	<path d="M229.23,96.72c0.51,0,0.69-0.24,0.2-0.41C229.06,96.32,229.23,96.56,229.23,96.72z"/>
	<path d="M573.38,110.55c-0.2,0.1-0.1,0.31,0.2,0.31C574.12,110.86,573.63,110.31,573.38,110.55z"/>
	<path d="M631.03,165.86c-0.43-0.43-0.23-0.55-0.92-0.2C630.34,166.11,630.35,166.2,631.03,165.86z"/>
	<path d="M286.98,151.73c-0.27-0.54-0.38-0.47-0.92-0.2C286.29,151.98,286.3,152.07,286.98,151.73z"/>
	<path d="M635.71,165.25v-0.2C635.3,165.05,635.32,164.99,635.71,165.25z"/>
	<path d="M291.35,151.02h0.3C291.41,150.89,291.48,150.89,291.35,151.02z"/>
	<path d="M218.76,143.09c-0.26,0.13-0.26,0.08,0,0.2V143.09z"/>
	<path d="M562.71,157.42h0.3C562.77,157.3,562.84,157.29,562.71,157.42z"/>
	<path d="M373.91,138.51c0.1,0,0.2,0.1,0.3,0.1C374.11,138.31,374.01,138.21,373.91,138.51z"/>
	<path d="M366.59,138.21l0.3,0.1C366.76,137.92,366.85,137.94,366.59,138.21z"/>
	<path d="M569.93,140.04C569.52,139.73,569.93,140.24,569.93,140.04L569.93,140.04z"/>
	<path d="M710.84,152.54l0.1-0.2C710.68,152.34,710.71,152.28,710.84,152.54z"/>
	<path d="M718.06,152.64c0.1,0,0.2,0.1,0.3,0.1C718.26,152.44,718.16,152.44,718.06,152.64z"/>
	<path d="M211.13,141.05c0.1,0.1,0.1,0.1,0.2,0.2c0-0.1,0.1-0.2,0.2-0.2C211.3,140.81,211.46,140.73,211.13,141.05z"/>
	<path d="M555.29,155.18c0.23,0.23,0.08,0.33,0.41,0C555.44,154.93,555.29,155.08,555.29,155.18z"/>
	<path d="M240.82,109.33c0.2,0.1,0.41,0.2,0.51,0.3C241.33,109.33,241.33,109.03,240.82,109.33z"/>
	<path d="M585.58,124.07c0.41,0,0.08-0.06-0.11-0.15C585.5,123.97,585.53,124.02,585.58,124.07z"/>
	<path d="M585.47,123.93c-0.02-0.03-0.05-0.06-0.09-0.06C585.4,123.89,585.43,123.91,585.47,123.93z"/>
	<path d="M241.64,109.84c-0.06-0.06-0.16-0.09-0.26-0.13C241.5,109.88,241.33,109.84,241.64,109.84z"/>
	<path d="M584.97,123.46c0.2,0.1,0.3,0.2,0.51,0.3C585.38,123.57,585.48,123.16,584.97,123.46z"/>
	<path d="M247.94,356.59l0.1,0.2C248.17,356.54,248.2,356.59,247.94,356.59z"/>
	<path d="M225.17,359.64c0,0-0.1,0.1,0,0.3C225.17,359.85,225.17,359.74,225.17,359.64z"/>
	<path d="M224.96,169.01c0.25,0,0.24,0.03,0.1-0.1L224.96,169.01z"/>
	<path d="M588.42,393.12c1.27-2.2,1.5-6.45,1.09-4.23C589.24,390.34,588.89,391.75,588.42,393.12z"/>
	<path d="M581.62,404.07c-0.01,0.05-0.01,0.1-0.01,0.15C581.85,403.7,581.9,403.75,581.62,404.07z"/>
	<path d="M588.27,393.57c0.81-2.29-5.57,8.77-5.63,8.88C579.5,407.55,587.11,396.87,588.27,393.57z"/>
	<path d="M588.94,57.79l-0.1,0.1C588.93,57.89,588.94,57.91,588.94,57.79z"/>
	<path d="M605.21,49.35c0.07-0.1,0.1-0.1-0.1-0.1L605.21,49.35z"/>
	<path d="M204.42,226.05l0.1,0.1C204.46,225.99,204.53,225.94,204.42,226.05z"/>
	<path d="M261.05,35.52c0.07-0.1,0.1-0.1-0.1-0.1L261.05,35.52z"/>
	<path d="M244.69,44.06c0.12,0,0.14,0.03,0.1-0.1L244.69,44.06z"/>
	<path d="M589.04,327.62c0,8.55,3.32-15.09,0.92-41.88C589.96,322.4,588.56,318.93,589.04,327.62z"/>
	<path d="M607.44,267.83c-4.57-16.95-6.46-24.33-8.13-21.86c1.4,1.4,1.59,2.51,5.9,18.4C606.06,267.54,609.22,274.41,607.44,267.83z
		"/>
	<path d="M541.04,327.31c-5.49-8.15-5.77-12.47-6.16-12.74c-3.25-2.27,8.29,22.23,12.36,22.6
		C547.62,335.93,546.81,335.88,541.04,327.31z"/>
	<path d="M584.43,265.07c-0.07-0.1-5.25,24.03-5.25,26.05C580.93,287.21,586.17,266.97,584.43,265.07z"/>
	<path d="M591.58,354.76c0.99-1.78,0.75-1.37-1.02-13.01C590.21,355.8,590.31,354.34,591.58,354.76z"/>
	<path d="M589.44,253.96c-0.01-4.89-0.6-8.55-1.82-10.83C589.17,256.87,589.45,265.45,589.44,253.96z"/>
	<path d="M573.89,238.86c-3.25-1.53-6.2-1.12-9.05-1.02C567.59,239.16,570.44,238.55,573.89,238.86z"/>
	<path d="M540.24,342.16c-0.82,0,1.06,3.37,4.98,4.88C543.49,345.51,541.87,343.79,540.24,342.16z"/>
	<path d="M538.41,255.43c-0.3,2.34-1.63,4.58-0.61,7.12C537.9,260.06,538.91,257.96,538.41,255.43z"/>
	<path d="M592.8,250.35c0.2-2.64,1.12-5.29-0.1-8.54C592.29,245.06,592.8,247.7,592.8,250.35z"/>
	<path d="M565.45,235.81c0-1.63,0.61-2.95-0.2-4.17C563.76,231.94,563.2,234.76,565.45,235.81z"/>
	<path d="M558.24,237.44c-1.19,2.08-1.31,3.75-1.02,5.8C558.22,241.78,558.69,240.1,558.24,237.44z"/>
	<path d="M570.93,240.6c-0.83,1.47-1.22,3.07-1.01,4.77C571.31,243.2,571.23,240.08,570.93,240.6z"/>
	<path d="M593.92,240.08c-1.02-0.31-1.83-0.31-2.85-0.1C592.09,240.38,593.01,240.28,593.92,240.08z"/>
	<path d="M546.14,285.63c-0.31,0.51-0.2,1.02,0.1,1.53C546.44,286.64,546.44,286.14,546.14,285.63z"/>
	<path d="M578.06,296.81c-0.11-0.4-0.39-0.09,0,0.31C578.06,297.01,578.06,296.9,578.06,296.81z"/>
	<path d="M578.77,293.25c-0.3,0.41-0.3,0.71,0,1.12C578.77,293.96,578.77,293.66,578.77,293.25z"/>
	<path d="M546.95,289.8c-0.1,0.3-0.3,0.51,0,0.81C546.95,290.3,546.95,290.1,546.95,289.8z"/>
	<path d="M545.59,283.36c0.09-0.22,0-0.98-0.22-0.46C545.26,283.15,545.38,283.89,545.59,283.36z"/>
	<path d="M590.77,281.26c0-0.2-0.1-0.3-0.1-0.61C590.67,281.86,590.62,281.4,590.77,281.26z"/>
	<path d="M566.27,342.87C566.27,342.87,566.27,342.87,566.27,342.87C566.27,342.87,566.26,342.87,566.27,342.87
		c-1.42,1.42,0,1.77,0,0.4C566.27,343.18,566.27,342.96,566.27,342.87c0,0.02,0.03,0.04,0.1,0.1c0.02-0.1,0.02-0.05,0.02-0.15
		C566.32,342.85,566.28,342.86,566.27,342.87L566.27,342.87z"/>
	<path d="M565.55,344.4c-0.37,0.35-0.54,0.75-0.51,1.23C565.04,346.16,565.55,345.06,565.55,344.4z"/>
	<path d="M565.55,344.37c0,0.1,0.27-0.25,0.01-0.18C565.56,344.25,565.55,344.31,565.55,344.37z"/>
	<path d="M566.99,341.44C566.99,341.44,566.99,341.45,566.99,341.44C566.99,341.45,566.99,341.45,566.99,341.44
		c-0.39,0.38-0.5,0.84-0.59,1.37C567.08,342.56,566.88,341.83,566.99,341.44c0,0.02,0.03,0.04,0.09,0.1
		c0.02-0.1,0.02-0.06,0.02-0.16C567.03,341.42,566.99,341.43,566.99,341.44C566.99,341.44,566.99,341.44,566.99,341.44z"/>
	<path d="M571.25,332.9c0.1-0.2,0.51-0.2,0.2-0.61C571.35,332.49,571.35,332.73,571.25,332.9z"/>
	<path d="M569.83,245.26c-0.41,0.2-0.61,0.41-0.2,0.92C569.72,245.87,569.72,245.57,569.83,245.26z"/>
	<path d="M568.53,338.44c-0.06,0.31,0.39,0.22,0.56-1.09C568.68,337.58,568.61,338.02,568.53,338.44z"/>
	<path d="M569.09,337.33c0,0.06,0.05-0.02,0.12-0.05C569.07,337.13,569.13,337.15,569.09,337.33z"/>
	<path d="M569.8,335.94c0,0,0,0.01,0,0.01C569.81,335.95,569.81,335.94,569.8,335.94z"/>
	<path d="M569.23,337.08c-0.01,0.37,0.41,0.03,0.57-1.13C569.72,336,569.24,336.2,569.23,337.08z"/>
	<path d="M570.04,335.29c-0.17,0.91,0.1,0.33,0.5-0.86C570.32,334.64,570.16,334.67,570.04,335.29z"/>
	<path d="M569.88,335.8c-0.1-0.1-0.05-0.07-0.08,0.14c0.1-0.1,0.03-0.09,0.13,0.01C569.98,335.57,569.98,335.77,569.88,335.8z"/>
	<path d="M568.38,338.7c-0.36,0.28-0.47,0.69-0.56,1.17C567.77,340.17,568.25,340.14,568.38,338.7z"/>
	<path d="M568.4,338.5c-0.01,0.07-0.02,0.13-0.02,0.2C568.54,338.58,568.51,338.6,568.4,338.5z"/>
	<path d="M571.13,333.09c-0.24,0.36-0.38,0.77-0.38,1.22C571.06,333.99,571.48,332.57,571.13,333.09z"/>
	<path d="M570.74,334.53c0-0.33,0.06-0.23-0.1-0.1L570.74,334.53z"/>
	<path d="M567.1,341.38c0.64-0.31,0.59-0.81,0.59-1.46C567.22,340.28,567.18,340.83,567.1,341.38z"/>
	<path d="M557.12,243.13l-0.1,0.3C557.26,243.19,557.25,243.26,557.12,243.13z"/>
	<path d="M548.68,240.38c-0.09,0.12-0.09,0.15-0.09,0.15C548.62,240.54,548.82,240.31,548.68,240.38z"/>
	<path d="M547.25,337.28c0.05,0-0.11,0.2,0.31,0.2C547.48,337.4,547.38,337.38,547.25,337.28z"/>
	<path d="M564.37,346.28c0-0.04,0.39-0.4,0.43-0.43C565.23,345.51,564.46,345.8,564.37,346.28z"/>
	<path d="M564.22,346.43c-0.05,0.19-0.15,0.1,0.1,0.1C564.35,346.31,564.4,346.2,564.22,346.43z"/>
	<path d="M564.17,346.55c-0.19,0-0.46,0.16-0.6,0.45C563.41,347.33,564,346.9,564.17,346.55z"/>
	<path d="M545.12,347.14c0.09,0.27,0.27,0.55,0.61,0.67C545.74,347.51,545.58,347.25,545.12,347.14z"/>
	<path d="M545.73,347.95l0.1-0.1C545.65,347.8,545.77,347.75,545.73,347.95z"/>
	<path d="M563.42,347.04c0,0.1,0,0.2,0,0.3C563.42,347.24,563.52,347.14,563.42,347.04z"/>
	<path d="M545.86,347.89c-0.05,0-0.09,0.02-0.13,0.06C546.2,347.95,545.96,347.87,545.86,347.89z"/>
	<path d="M639.37,549.97c0.13-0.02,31.11-4.84,32.94-5.19C667.93,543.08,632.12,549.97,639.37,549.97z"/>
	<path d="M603.57,553.53c-1.07,2.32,25.41-1.34,30.92-4.89C600.56,556.35,604.68,551.11,603.57,553.53z"/>
	<path d="M603.69,581.08c0.44-0.67,0.14-1.34-1.43-7.02C601.11,578.85,602.47,582.95,603.69,581.08z"/>
	<path d="M587.11,545.8c-0.56-0.19-0.9-0.27-1.07-0.29c-0.03-0.12-0.08-0.25-0.15-0.32c-13.35-7.81-5.89-1.15,0.07,0.44
		c0.03,0.03,0.08,0.07,0.13,0.11c0,0.02,0,0.03,0,0.05l0.03-0.03c0.97,0.74,5.16,2.88,7.19,3.89
		C596.74,551.15,594.58,549.01,587.11,545.8z"/>
	<path d="M682.27,544.27c-0.69,0.02-1.88,0.15-3.05,0.4C685.04,546.07,690.52,544.01,682.27,544.27z"/>
	<path d="M603.2,567.06c0.61-0.31,0.58-2.08-0.53-1.54C602.25,566.21,602.46,567.44,603.2,567.06z"/>
	<path d="M576.97,540.81c0.28,0.88,1.41,0.69,1.34,0.55C577.96,540.74,577.48,540.81,576.97,540.81z"/>
	<path d="M576.84,540.82c0.15-0.03,0.15,0.05,0.1-0.1L576.84,540.82z"/>
	<path d="M636.98,548.93c-0.39,0.27-0.37,0.18,0.72,0.32C637.8,549.25,637.55,548.53,636.98,548.93z"/>
	<path d="M596.16,550.17c-1.47-0.49-0.94,0.3-0.1,0.3C596.34,550.44,596.1,550.53,596.16,550.17z"/>
	<path d="M596.21,550.46C596.27,550.5,596.34,550.45,596.21,550.46L596.21,550.46z"/>
	<path d="M562.91,423.59c-0.36,0.18-0.61,0.21-0.61,0.32C552.65,449.41,565.84,424.43,562.91,423.59z"/>
	<path d="M543.09,475.65c0,0.1,0.19,0.29,0.41,0.61C548.67,471.37,548.09,466.1,543.09,475.65z"/>
	<path d="M581.11,393.91c0.2-2.24,2.03-3.76,1.83-6.1C581.01,389.43,581.01,391.67,581.11,393.91z"/>
	<path d="M556.51,439.66c-1.32,1.63-2.64,3.15-2.85,5.59C555.49,443.22,555.8,442.61,556.51,439.66z"/>
	<path d="M555.07,391.36c1.1,0.55,0.95,0.45,1.61-0.06C559.39,388.59,556.14,389.31,555.07,391.36z"/>
	<path d="M567.08,398.38c0.71-0.61,0.91-1.32,0.41-2.44C566.72,397.21,566.34,397.76,567.08,398.38z"/>
	<path d="M550.51,463.85c-0.53,0.38-0.94,0.59-0.92,1.05C549.67,466.03,550.62,464.98,550.51,463.85z"/>
	<path d="M588.13,381.81c-1.07,0-1.06,1.88,0.1,0.71C588.47,382.27,588.47,381.99,588.13,381.81z"/>
	<path d="M547.76,494.46c0.61-0.3,1.02-0.61,0.51-1.42C547.97,493.54,547.25,493.75,547.76,494.46z"/>
	<path d="M549.29,490.05c0.62-0.28,0.57-0.38,0.3-1.09C549.09,490.23,548.7,490.33,549.29,490.05z"/>
	<path d="M587.82,366.96c0.13,0.07,0.09,0.05,0.2,0.1C588.02,366.68,588.09,366.7,587.82,366.96z"/>
	<path d="M547.25,456.03c-0.01,0.02,0.01-0.01-0.09,0.09c-0.49-0.05-0.91,0.06-1.26,0.45c-0.13,0.19,0.69,0.18,1.27-0.45
		C547.41,456.16,547.35,456.13,547.25,456.03z"/>
	<path d="M553.46,458.97c0-0.1-0.08-0.33-0.22-0.29C553,458.76,553.23,459.62,553.46,458.97z"/>
	<path d="M546.85,496.59c-0.3,0.2-0.3,0.51,0,0.81C547.25,497.2,547.25,496.9,546.85,496.59z"/>
	<path d="M585.18,386.89c-0.25,0.25-0.24,0.2-0.1,0.2C585.21,387.09,585.18,387.14,585.18,386.89z"/>
	<path d="M561.08,388.62l0.1-0.2C560.92,388.42,560.95,388.36,561.08,388.62z"/>
	<path d="M557.83,389.53l0.1,0.1C557.93,389.38,557.96,389.4,557.83,389.53z"/>
	<path d="M590.26,379.06l0.2-0.1C590.33,378.83,590.39,378.81,590.26,379.06z"/>
	<path d="M543.09,459.38c-0.13,0-0.1-0.03-0.1,0.1L543.09,459.38z"/>
	<path d="M542.69,459.6c-0.15,0.06,0.29,0.62,0.29-0.22C542.98,459.54,542.79,459.56,542.69,459.6z"/>
	<path d="M550.81,449.62c0.3,0,0.71,0,0.3-0.51C551,449,550.81,449.38,550.81,449.62z"/>
	<path d="M550.71,449.52c0,0.2-0.61,0.1-0.1,0.51C550.61,449.82,550.71,449.72,550.71,449.52z"/>
	<path d="M547.36,455.82c0,0.1-0.1,0.1,0,0.3C547.36,456.03,547.36,455.92,547.36,455.82z"/>
	<path d="M545.73,456.53v0.2C545.86,456.61,545.86,456.66,545.73,456.53z"/>
	<path d="M551.12,380.79c-0.81-0.2-0.81-0.2-1.42,0.51C550.51,381.5,550.51,381.5,551.12,380.79z"/>
	<path d="M546.44,380.99c0.16-0.32-0.42-0.89-0.88-0.23C545.14,381.35,546.07,382,546.44,380.99z"/>
	<path d="M531.6,451.55c0.1-0.2,0.3-0.51,0.51-0.71c-0.58-0.58-0.92-0.09-0.92,0.31C531.19,451.25,531.39,451.35,531.6,451.55z"/>
	<path d="M534.24,463.35c-0.55-0.14-1.02-0.27-1.02,1.12C533.83,464.34,534.17,463.93,534.24,463.35z"/>
	<path d="M533.12,464.46c-0.21,0-0.31,0.12-0.2,0.3C533.02,464.67,533.02,464.57,533.12,464.46z"/>
	<path d="M589.05,51.1c-0.53-0.35-0.56-4.24-1.79-0.41c-0.42,1.69-1.59,1.09-1.77-0.01c1.02-3.05,0.32-4.57,2.24-4.37
		c0.81,0.3,0.41,1.32,1.12,1.63c1.03-1.52,0.84-1.86-1.53-3.05c-1.36,0.75-1.87,1.43-2.54,2.24c0.41,1.22-0.51,2.44-0.51,3.86
		c0.92,1.32,1.83,2.54,2.34,3.97c0.38,1.39,2.44,2.94,2.3,2.04c-0.31-1.41-1.08-0.95-1.08-2.55c0.31-0.31,1.58-0.32,1.82-1.38
		C589.65,51.67,589.44,51.35,589.05,51.1z"/>
	<path d="M590.36,73.65c0.51-2.82-0.77-10.11-0.83-10.21c-2.3-3.73-0.78,10.57-0.23,11.57C590.37,76.96,600.72,84.01,590.36,73.65z"
		/>
	<path d="M589.24,93.27c0.16,0.61,0.32,0.87,1.02,0.71C590.92,89.38,586.78,79.33,589.24,93.27z"/>
	<path d="M561.69,91.23c1.53-0.71,1.64-0.71,1.73-1.63c0.11-1.19,1.22-2.55,0-4.07C562.25,87.3,561.69,89.87,561.69,91.23z"/>
	<path d="M598.5,80.56c-0.58-0.87-1.76-1.52-3.1-1.25C595.01,79.39,595.74,80.36,598.5,80.56z"/>
	<path d="M563.11,83.6c0.23-0.34,1.43-1.21,0.61-2.03C563.52,81.8,562.25,82.57,563.11,83.6z"/>
	<path d="M587.82,82.19c0.14,0,0.1,0.06,0.1-0.3C587.89,81.99,587.86,82.08,587.82,82.19z"/>
	<path d="M605,49.04c0,0,0.1-0.1,0.2-0.3C605.11,48.84,605.11,48.94,605,49.04z"/>
	<path d="M303.34,554.54c23.19-4.4,21.15-3.27,21.7-3.38c0.91-0.08,1.66-2.23-10.31,0.01c-14.03,2.62-15.65,3.67-23.17,3.67
		C291.97,556.75,301.71,554.85,303.34,554.54z"/>
	<path d="M282.81,555.87c-18.01,4.68-27.16,1.92-24.71,4.37C280.27,560.02,296.76,552.24,282.81,555.87z"/>
	<path d="M256.94,587.31c2.56-0.03-0.22-3.79-0.36-8.67C255.86,581.54,255.8,587.32,256.94,587.31z"/>
	<path d="M341.16,550.17c-2.6,0-4.91,0-7.32,0C336.61,552,339.43,551.51,341.16,550.17z"/>
	<path d="M234.93,549.26c6.59,3.45,6.24,3.4,7.24,3.45C245.06,552.83,231.18,546.7,234.93,549.26z"/>
	<path d="M234.43,548.55c0-0.14,0-0.11-0.11,0C234.35,548.55,234.4,548.55,234.43,548.55z"/>
	<path d="M194.48,522.98c0.55,0.1-0.92-1.74-3.92-2.61C190.45,520.36,191.48,522.41,194.48,522.98z"/>
	<path d="M190.31,520.29c0.2,0,0.23,0.19,0.08-0.11C190.37,520.2,190.29,520.27,190.31,520.29z"/>
	<path d="M231.35,547.38c2.02,1.5,1.69-0.85-0.56-0.85C230.87,546.84,231.05,547.16,231.35,547.38z"/>
	<path d="M230.86,546.31c-0.34,0.07,0.04-0.04-0.2,0.2C230.95,546.51,230.63,546.53,230.86,546.31z"/>
	<path d="M228.27,544.93c1.31,0.16-2.24-2.05-1.69-1.12C226.95,544.44,227.48,544.83,228.27,544.93z"/>
	<path d="M230.4,546.36c0.7,0-0.35-1.17-1.69-1.35l0.02-0.02c-0.27,0-0.16-0.09-0.11,0.09C228.52,545.08,229.09,546.36,230.4,546.36
		z"/>
	<path d="M226.39,543.66c0.03-0.03,0.07-0.07,0.1-0.1C226.19,543.56,226.39,543.52,226.39,543.66z"/>
	<path d="M226.14,543.51c0.45,0.06-0.34-1.17-1.68-1.25C223.98,542.26,225.01,543.35,226.14,543.51z"/>
	<path d="M257.19,571.32c-0.63,0.81-0.59,1.33,0,2.03C257.8,572.64,257.9,572.03,257.19,571.32z"/>
	<path d="M188.36,518.86c0.25,0.06,0.13,0.05,0.1-0.1C188.26,518.79,188.22,518.72,188.36,518.86z"/>
	<path d="M190.25,520.18c0.52,0-0.36-0.9-1.74-1.27C188.65,519.59,189.27,520.18,190.25,520.18z"/>
	<path d="M215.81,536.65c0.24,0,0.14-0.15,0.04-0.04L215.81,536.65z"/>
	<path d="M217.18,537.18c1.7,0.06,0.09-0.49-0.34-0.54C215.17,536.44,216.45,537.15,217.18,537.18z"/>
	<path d="M257.39,566.34c0.1-0.1,0.01-0.35-0.12-0.4C256.82,565.75,257.39,567.07,257.39,566.34z"/>
	<path d="M232.8,547.83c0.02,0.04,0.05,0.09,0.11,0.18C233.93,549.59,235.09,547.44,232.8,547.83z"/>
	<path d="M234.32,548.44c-0.16,0.03-0.14-0.02-0.1,0.1L234.32,548.44z"/>
	<path d="M244.06,553.44c-0.24-0.87-1.58-0.78-1.29-0.43C243.05,553.46,243.57,553.53,244.06,553.44z"/>
	<path d="M244.08,553.53l0.1-0.1C244.02,553.47,244.03,553.4,244.08,553.53z"/>
	<path d="M245.31,554.18c0.37,0-0.01-0.84-1.23-0.65C244.3,554.06,244.73,554.22,245.31,554.18z"/>
	<path d="M245.6,554.14c-0.16,0.04-0.14-0.03-0.1,0.1C245.66,554.2,245.64,554.27,245.6,554.14z"/>
	<path d="M249.91,556.53c0.21,0.21,0.45,0.21,0.66,0.06C250.4,556.32,249.63,556.25,249.91,556.53z"/>
	<path d="M246.7,554.89c0.7-0.06-0.05-0.8-1.07-0.67C245.81,554.68,246.06,554.95,246.7,554.89z"/>
	<path d="M248.31,555.57c-0.26-0.78-1.48-0.77-1.3-0.42C247.24,555.61,247.75,555.57,248.31,555.57z"/>
	<path d="M248.45,555.56c-0.2,0-0.13-0.03-0.1,0.1C248.55,555.66,248.48,555.68,248.45,555.56z"/>
	<path d="M290.58,554.92c0.15-0.35,0.07-0.04-0.35,0.12C289.67,555.26,290.4,555.35,290.58,554.92z"/>
	<path d="M249.6,556.27c0.09,0,0.18,0,0.27,0C249.33,554.83,247.46,556.25,249.6,556.27z"/>
	<path d="M187.62,518.75c0.89,0.22,0.7-0.1,0.22-0.33C186.34,517.92,187.16,518.63,187.62,518.75z"/>
	<path d="M207.78,531.97c0.18,0.03,0.3,0.07,0.65,0.12C209.32,532.23,208.19,531.84,207.78,531.97z"/>
	<path d="M208.9,532.18l-0.1,0.1C209,532.32,208.93,532.31,208.9,532.18z"/>
	<path d="M210.04,532.89c0.76,0-0.28-0.45-1.1-0.59C209.11,532.82,209.52,532.89,210.04,532.89z"/>
	<path d="M211,533.77c0.25,0.25,0.41,0.43,1.1,0.58C212.61,534.46,212.15,533.6,211,533.77z"/>
	<path d="M213.78,535.12c-0.27-0.73-0.8-0.64-1.35-0.62C212.43,534.92,213.65,535.1,213.78,535.12z"/>
	<path d="M212.43,534.51c-0.06-0.13-0.07-0.09-0.17,0C212.32,534.51,212.36,534.51,212.43,534.51z"/>
	<path d="M215.12,535.74c0.1,0-0.56-0.66-1.44-0.52C214.08,535.72,214.53,535.8,215.12,535.74z"/>
	<path d="M218.87,537.46c-0.1-0.04-0.82-0.2-0.93-0.2C218.05,537.37,218.21,538.01,218.87,537.46z"/>
	<path d="M186.94,518.15l-0.1-0.1C186.96,518.3,186.94,518.29,186.94,518.15z"/>
	<path d="M194.95,523.16c-0.06-0.24,0.1,0.13-0.29-0.03C194.82,523.55,195.07,523.28,194.95,523.16z"/>
	<path d="M220.59,538.48c0,0,0.2,0.1,0.31,0.1C220.69,538.48,220.59,538.48,220.59,538.48z"/>
	<path d="M220.79,538.68c0.03,0.03,0.08,0.07,0.12,0.1C220.88,538.54,220.94,538.54,220.79,538.68z"/>
	<path d="M221.37,539.26c0.46,0.07,0.21,0.09-0.46-0.48C220.92,538.97,221.08,539.2,221.37,539.26z"/>
	<path d="M222.18,539.98c0.31,0.06-0.13-0.53-0.56-0.57C221.62,539.72,221.8,539.95,222.18,539.98z"/>
	<path d="M221.5,539.39c0.04,0,0.08,0.01,0.11,0.02C221.62,539.24,221.61,539.29,221.5,539.39z"/>
	<path d="M290.93,554.75c-0.29,0-0.2-0.01-0.08,0.1C290.92,554.78,291.03,554.75,290.93,554.75z"/>
	<path d="M290.99,554.75c0.23,0,0.47,0,0.67,0C291.47,554.7,291.15,554.63,290.99,554.75z"/>
	<path d="M223.03,540.61c-0.15,0.03-0.15-0.05-0.1,0.1L223.03,540.61z"/>
	<path d="M222.23,540.11c0.09,0.97,1.34,0.36,0.1-0.07C222.2,540,222.23,539.93,222.23,540.11z"/>
	<path d="M223.42,541c-0.13-0.13-0.39-0.26-0.49-0.28C222.93,541.57,223.9,541.51,223.42,541z"/>
	<path d="M223.61,541.33c0.01,0.03,0.02,0.06,0.03,0.09C223.64,541.46,223.81,541.33,223.61,541.33z"/>
	<path d="M224.2,542.05c0.27,0,0.15-0.46-0.56-0.64C223.64,541.8,223.82,542.05,224.2,542.05z"/>
	<path d="M224.45,542.04c-0.19,0.05-0.1-0.06-0.1,0.1L224.45,542.04z"/>
	<path d="M210.83,533.8c0.24,0,0.14-0.58-0.51-0.78C210.32,533.83,211.11,533.52,210.83,533.8z"/>
	<path d="M210.22,532.99c0.18,0.04,0.07,0.06,0.1-0.1L210.22,532.99z"/>
	<path d="M215.91,536.55c-0.09-0.34-0.35-0.57-0.61-0.67C215.29,536.27,215.54,536.44,215.91,536.55z"/>
	<path d="M215.2,535.85c0.19,0.06,0.07-0.01,0.1-0.11C215,535.73,215.14,535.77,215.2,535.85z"/>
	<path d="M245.91,271.6c-0.28,3.67-0.31,21.75-0.31,21.86c0,9.83-0.83,10.5-0.8,16.16C244.9,328.19,248.01,296.68,245.91,271.6z"/>
	<path d="M263.39,253.7c-7.02-27.68-8.16-22.09-8.09-21.99C257.27,235.12,264.82,264.51,263.39,253.7z"/>
	<path d="M190.39,300.37c-0.39,4.28,9.87,22.4,12.81,22.67c0.23-1.13-0.07-0.81-6.2-9.86C190.77,303.99,191.62,300.19,190.39,300.37
		z"/>
	<path d="M236.43,269.21c-1.74,8.8-1.32,6.72-1.1,8.29C240.71,262.59,243.77,232.05,236.43,269.21z"/>
	<path d="M246.31,339.11c0.62,3.12,2.22,0.65,1.73-1.53C245.65,327.06,246.31,321.18,246.31,339.11z"/>
	<path d="M244.11,229.91c-1.63-3.37,0.47,2.55,1.18,15.03C245.3,244.02,245.67,233.14,244.11,229.91z"/>
	<path d="M229.54,224.63c-3.02-1.41-5.89-0.91-8.85-0.91C223.54,224.93,226.21,224.41,229.54,224.63z"/>
	<path d="M195.78,328.03c1.84,4,5.65,5.23,5.09,4.69C195.55,327.54,196.39,328.03,195.78,328.03z"/>
	<path d="M248.75,236.11c0.2-2.64,1.02-5.19-0.1-8.44C248.24,230.93,248.75,233.47,248.75,236.11z"/>
	<path d="M193.65,248.82c0.48-3.1,1.11-5.2,0.71-7.52C194.05,243.64,192.73,245.87,193.65,248.82z"/>
	<path d="M221.3,221.47c0.1-1.35,0.52-2.77,0-4.07C219.43,217.41,219.49,220.83,221.3,221.47z"/>
	<path d="M214.21,224.25c-0.26-2.3-1.5,1.85-1.16,4.64C213.11,229.44,214.55,227.34,214.21,224.25z"/>
	<path d="M249.77,225.95c-1.72-0.76-4.23,0.1-1.39,0.1C248.82,226.05,249.27,226,249.77,225.95z"/>
	<path d="M202.24,272.53c0.1-0.42-0.05-0.77-0.25-1.15C201.69,272.12,202.01,273.51,202.24,272.53z"/>
	<path d="M234.06,282.45c0-0.17-0.07-0.36-0.25-0.59C233.81,283.72,234.07,282.56,234.06,282.45z"/>
	<path d="M234.72,279.02c-0.28,0.45-0.42,0.82,0,1.12C234.72,279.73,234.72,279.43,234.72,279.02z"/>
	<path d="M202.8,275.77h-0.1C202.7,276.99,202.8,275.96,202.8,275.77z"/>
	<path d="M201.48,268.55c-0.29,0.18-0.22,0.59-0.1,0.92C201.68,269.16,201.58,268.85,201.48,268.55z"/>
	<path d="M246.62,266.51c0,0.1-0.1,0.1-0.1,0.2C246.52,266.82,246.62,268.17,246.62,266.51z"/>
	<path d="M222.23,328.58c0,0.02-0.01,0.03-0.01,0.05C223.37,328.48,222.74,326.27,222.23,328.58z"/>
	<path d="M220.89,331.58l0.1,0.1C220.92,331.45,221.03,331.49,220.89,331.58z"/>
	<path d="M221.5,330.17c-0.03,0.01-0.1,0.07-0.1,0.07C220.49,330.82,221.01,332.76,221.5,330.17z"/>
	<path d="M222.03,328.75c-0.3,0.38-0.42,0.86-0.42,1.36c-0.01-0.01-0.03,0.02-0.11,0.06l0.1,0.1c0-0.1,0.01-0.14,0.01-0.15
		C222.38,329.7,222.2,328.54,222.03,328.75z"/>
	<path d="M227.24,318.68c0.09-0.13,0.34-0.18,0.17-0.52C227.39,318.19,227.3,318.51,227.24,318.68z"/>
	<path d="M227.24,318.68c-0.02,0.03-0.03,0.05-0.03,0.09C227.22,318.75,227.23,318.72,227.24,318.68z"/>
	<path d="M225.57,232.05c3.43-9.94-0.25-5,0.19-0.92C225.37,231.34,225.06,231.54,225.57,232.05z"/>
	<path d="M224.39,324.26c-0.07,0.45,0.49,0,0.65-1.07C224.57,323.43,224.48,323.68,224.39,324.26z"/>
	<path d="M225.03,323.19c0.15-0.08,0.15-0.02,0.03-0.15C225.05,323.09,225.04,323.18,225.03,323.19z"/>
	<path d="M225.19,322.87c-0.08,0.73,0.28,0.02,0.54-1.04C225.36,322.07,225.21,322.43,225.19,322.87z"/>
	<path d="M225.78,321.62c-0.05,0.21-0.05,0.2-0.05,0.21C225.91,321.68,225.91,321.75,225.78,321.62z"/>
	<path d="M224.25,324.37c-0.02,0.02-0.2,0.24-0.23,0.29C223.17,326.06,224.25,326.15,224.25,324.37z"/>
	<path d="M223.54,325.79c0.03,0.03,0.07,0.07,0.1,0.1C223.69,325.62,223.67,325.79,223.54,325.79z"/>
	<path d="M223.25,326.11c-0.26,0.44-0.32,1.09-0.33,1.27C223.55,326.96,223.84,325.29,223.25,326.11z"/>
	<path d="M222.92,327.38C222.92,327.38,222.92,327.38,222.92,327.38C222.92,327.45,222.92,327.44,222.92,327.38z"/>
	<path d="M225.94,321.38c-0.15,0.89,0.27-0.29,0.47-0.95C226.12,320.63,226,321.05,225.94,321.38z"/>
	<path d="M226.49,320.19c-0.02,0.05-0.06,0.2-0.07,0.24C226.63,320.26,226.63,320.32,226.49,320.19z"/>
	<path d="M227.06,318.94c-0.19,0.23-0.35,0.49-0.44,0.98C226.47,320.77,226.91,320.01,227.06,318.94z"/>
	<path d="M227.1,318.67c-0.14,0.54,0.12,0.12,0.03,0.03L227.1,318.67z"/>
	<path d="M212.86,229.2l0.2-0.1C212.93,228.97,212.99,228.95,212.86,229.2z"/>
	<path d="M204.63,226.24C204.57,226.28,204.3,226.5,204.63,226.24L204.63,226.24z"/>
	<path d="M203.31,323.24c0.23,0-0.06-0.06-0.2-0.2C203.27,323.21,203.11,323.24,203.31,323.24z"/>
	<path d="M220.4,331.77c-0.12,0.19,0.29-0.18,0.39-0.28C220.68,331.49,220.48,331.67,220.4,331.77z"/>
	<path d="M220.08,332.09c0.17,0.17,0.09,0.12,0.16-0.03C220.3,331.93,220.49,331.68,220.08,332.09z"/>
	<path d="M219.47,332.9c0.04-0.04,0.08-0.09,0.13-0.13C219.36,332.84,219.3,332.73,219.47,332.9z"/>
	<path d="M220.03,332.34c0.15-0.36-0.03,0.03-0.43,0.43C219.81,332.71,219.94,332.57,220.03,332.34z"/>
	<path d="M201.09,332.94c-0.25-0.06,0.02,0.49,0.49,0.63C201.6,333.23,201.38,333.05,201.09,332.94z"/>
	<path d="M201.58,333.72c0.13-0.13,0.12-0.08,0-0.14C201.58,333.63,201.59,333.67,201.58,333.72z"/>
	<path d="M202.19,477.48c-7.41,7.43-2.05,4.43,0.51,1.02C203,478.09,202.9,477.68,202.19,477.48z"/>
	<path d="M188.84,493c-0.18,0.06,0.55,0.74,1.15,0.24C190.89,492.49,189.89,492.48,188.84,493z"/>
	<path d="M190.5,492.73c0.57-0.19,0.85-1.05,0.49-1.1C190.71,491.63,190.25,492.11,190.5,492.73z"/>
	<path d="M198.12,481.95c0,0.1-0.1,0.2-0.1,0.3C198.12,482.15,198.22,482.15,198.12,481.95z"/>
	<path d="M202.36,462.58c0.1-1.63-1.52,0.7-0.37,8.39c1.32-0.92,1.32-0.92,1.32-1.22C203.61,465.64,202.22,464.83,202.36,462.58z"/>
	<path d="M202.58,461.92c-0.08-0.19-0.06-0.15-0.09-0.2C202.49,461.99,202.31,462.03,202.58,461.92z"/>
	<path d="M193.44,408.24c-0.78,0.33-0.71,0.85-0.71,1.43C193.62,418.55,196.54,414.43,193.44,408.24z"/>
	<path d="M202.49,461.62l0.1,0.1c-0.05-0.06-0.07-0.11-0.09-0.13c0.65-1.12,0.74-2.11,0.09-3.22c-1.12,1.12-1.01,2.31-0.1,3.23
		C202.49,461.6,202.49,461.6,202.49,461.62z"/>
	<path d="M195.78,385.57c-0.71,0.92-1.32,1.63-0.81,2.85C195.88,387.6,196.19,386.69,195.78,385.57z"/>
	<path d="M193.22,396.77c0.09-0.64-1.04,0.7-0.18,2.62C193.13,398.55,193.15,397.63,193.22,396.77z"/>
	<path d="M195.14,415.98c0.51,1.22,1.31,0.61,0.64-0.72C194.13,415.26,194.5,414.42,195.14,415.98z"/>
	<path d="M206.76,360.86c-0.72,0.72,2.14,1.53,0.92,0.3C207.37,361.07,207.07,360.96,206.76,360.86z"/>
	<path d="M193.55,396.23c0.05-0.14,0.05-0.29-0.1-0.5C193.44,396.04,193.16,397.32,193.55,396.23z"/>
	<path d="M195.27,424.91c0.1,0,0.1,0.1,0.2,0.1C195.48,424.91,195.48,424.81,195.27,424.91z"/>
	<path d="M197.31,425.73c-0.36,0.36-0.34,0.28-0.23,0.34C197.89,426.39,197.31,426.26,197.31,425.73z"/>
	<path d="M197.92,426.54c0,0-0.46-0.18-0.51-0.2C197.61,426.44,197.51,426.95,197.92,426.54z"/>
	<path d="M244.99,36.64c-0.81-0.52,0-1.53-0.81-2.03c-1.31,0.65-0.54,2.35-1.83,2.75c-0.52-0.26-0.75-0.65-0.92-1.22
		c1.5-2.1-0.16-4,1.87-4.17c1.21-0.1,0.67,1.09,1.48,1.63c1.02-1.53,0.92-1.83-1.53-3.05c-0.83,0.41-1.78,1.18-2.54,2.14
		c0.3,1.32-0.41,2.64-0.51,3.97c4,6.23,1.59,4.45,4.68,6.51c0-1.24-1.12-1.37-1.12-3.15c0.61-0.41,1.63-0.41,1.83-1.42
		C245.6,37.86,245.61,37.04,244.99,36.64z"/>
	<path d="M245.38,49.31c-2.3-3.73-0.78,10.57-0.23,11.57c1.12,2.03,11.31,8.88,1.07-1.36C246.72,56.69,245.44,49.41,245.38,49.31z"
		/>
	<path d="M244.19,71.83c0.02,0.99,0.76,7.65,1.72,8.12C246.87,75.33,244.18,71.33,244.19,71.83z"/>
	<path d="M219.17,71.61c-2.65,3.72-1.17,9.72,0.81,0.92C220.07,72.12,219.78,71.82,219.17,71.61z"/>
	<path d="M251.24,65.18c-0.36,0.07,0.35,1.05,3.1,1.25C253.37,65.26,252.39,64.94,251.24,65.18z"/>
	<path d="M219.47,67.34c-0.47,0.85-1.09,1.3-0.1,2.44C219.27,68.77,220.49,68.46,219.47,67.34z"/>
	<path d="M243.67,67.85l0.1,0.3C243.9,67.77,243.93,67.85,243.67,67.85z"/>
	<path d="M261.03,34.73c0.11-0.34-0.08,0.08-0.18,0.18C260.92,34.84,261,34.82,261.03,34.73z"/>
	<path d="M181.85,475.04c0.41,1.16-1.42,1.74-1.02,2.95c0.67-0.43,8.02-5.92,6.96-7.03C186.91,470.03,182.99,475.04,181.85,475.04z"
		/>
	<path d="M175.04,485.41c-0.19,0.19,0.3,0.49,0.3,0.1C175.35,484.84,175.04,485.11,175.04,485.41z"/>
	<path d="M179.11,481.34c0.25-0.12,0.33-0.14-0.1,0H179.11z"/>
	<path d="M178.6,481.75c0.2,0,0.41,0.39,0.41-0.41C178.91,481.44,178.8,481.65,178.6,481.75z"/>
</g>
</svg>
