<?xml version="1.0" encoding="utf-8"?>
<!-- Generator: Adobe Illustrator 23.0.1, SVG Export Plug-In . SVG Version: 6.00 Build 0)  -->
<svg version="1.2" baseProfile="tiny" id="Layer_1" xmlns="http://www.w3.org/2000/svg" xmlns:xlink="http://www.w3.org/1999/xlink"
	 x="0px" y="0px" viewBox="0 0 900 600" xml:space="preserve">
<g>
	<path d="M512.38,438.35l-0.1,0.1C512.47,438.73,512.38,438.64,512.38,438.35z"/>
	<path d="M589.14,477.27l-0.1-0.1C588.99,477.3,588.98,477.27,589.14,477.27z"/>
	<path d="M558.94,539.18l0.1,0.1C558.99,539.11,558.98,539.13,558.94,539.18z"/>
	<path d="M713.65,540.08c-10.51,0.37-12.28-4.17-18.06-6.22c-5.33-1.89-14.29-2.54-15.05-9.03c-2.51-1.2-3.91-2.81-4.51-5.52
		c-0.7-3.11-4.51-5.22-7.73-4.82c-0.5,0-1.1,0.1-1.5,0.1c-9.08-15.89-4.67-11.79-10.74-35.22c-11.58-44.72-6.48-43.58-25.58-70.33
		c-2.45-3.06-1.33-5.04-2.81-11.64c-1.46-6.49-11.79-10.54-13.54-20.17c-2.65-1.33-12.47-4.28-12.94-4.41
		c-1.68-0.46-3.99,0.73-10.53,2.81c-10.83,3.44-7.86,6.39-12.74,8.83c-9.43-18.87-36.2-7.44-50.67,7.02
		c-4.34,4.34-7.63,4.61-14.35,11.44c-4.03,4.09-39.93,47.07-49.36,71.74c-1.91,0.1-3.81,0.4-5.12,2.51
		c-0.41,6.21,0.15,4.54-3.01,5.72c-2.28,0.85-6.47,2.74-7.93,4.92c1.71,2.05,1.34,1.39,0.7,5.52c-4.91,0.82-6.1,0.42-7.93,3.11
		c-2.86,4.22-1.4-0.5-22.77,4.92c-7.27,1.84-3.4-0.9-34.01,1.91c-4.22,0.39-7.83-1.3-11.44-2.81c0.1-3.91,0.2-7.52,0.2-11.24
		c0-10.5-6.06-15.2-7.22-18.16c-5.32-13.55-5.08-13.64-4.92-15.95c0.57-7.81-1.43-15.55,0.8-24.48c4.85-19.39,0.72-20.92,3.71-21.67
		c-1.1-6.52-2.32-12.97-4.51-19.26c-6.35-18.24-2.93-13.74-10.23-37.12c-5.76-18.44-5.79-11.78,7.02-10.53
		c2.91,0.28,5.62-1.4,8.63-0.8c1.91-1,4-1.83,5.82-3.01c22.87-14.83,22.41-71.6-10.13-76.65c-12.91-2-19.64,7.83-24.98,13.64
		c-10.42-14.59-15.32-16.23-33.41-11.54c-10.1,2.62-9.44,6.11-12.44,7.93c-2.58,1.57-3.41,3.97-5.22,7.02
		c-1.52,2.56-0.8,1.71-2.51-1.71c-6.67-13.35-12.96-12.34-21.77-12.54c-2.58-0.06-11.28,4.7-10.63,7.73c0.48,0.1,0.76-0.18,0.7-0.64
		c0.83-0.19,1.3-0.94,2.01-1.46c5.08-3.76,6.23-2.75,5.02-2.01c-16.74,14.2-17.31,54.31,5.92,67.22c-1.09,1.28-7.62-0.3-12.64-5.52
		c-12.13-12.6-13.83-40.27-2.71-55.28c0.5-0.6,0.9-1.4,1.3-2.11c-11.4,4.56-15.73,42.83,1.1,59.3c10.43,10.2,19.68,3.08,26.19,4.01
		c0-0.11-7.35,23.91-16.35,71.44c-4.16,21.98,1.42,34.79,1.71,36.02c1.26,5.32-10.14,25.21-4.11,49.56
		c2.03,8.22-3.04,13.14-2.61,17.06c0.58,3.47-2.9,3.59-6.32,2.71c-1.91-0.49-3.61,1-5.42,0.4c-1.3-1.3-1.91-3.31-4.01-3.61
		c-18.68,6.65-14.59,11.49-18.76,6.12c-2.41,1.5-4.31-1.2-6.62-0.6c-2.71,2.41-9.43,5.12-13.04,5.12c-1.54-1.54-2.82-4.92-0.5-6.82
		c0.5-0.41-0.2-1.91-0.8-2.21s-1.59-0.1-1.91,0.6c-0.68,1.52-2.11,2.11-3.51,2.81c0.4,2.41,0.9,4.72,0.4,7.02
		c-2.11-1.4,0.3-9.25-2.81-9.53c-1.3,0.6-0.5,2.01-1,2.91c-0.5,0-1.1-0.1-1.71-0.1c-1,1.5-0.3,3.21-0.8,4.82
		c-3.03-1.01-2.27-0.09-3.71-3.51c-1.45-3.44-3.59-2.48-1.4,2.01c3,6.16,2.91,5.22,2.91,6.42c-1.52,1.52,0,1.76-2.91-0.5
		c0.5,2.31,1.71,4.51-0.8,6.42c0-8.57-0.47-2.56-1.4-9.83c-0.62-4.79-1.34-4.85-2.11-5.62c-0.7,4.4,2.55,12.11-0.5,18.46
		c-0.21-0.4-3.91-7.83-3.91-4.92c0.38,3.04,0.78,2.51-1.61,2.51c0.1,3.21,2.21,5.82,2.31,8.93c-5.99,5.42-5.58,23.43-2.31,27.89
		c0.89,1.21,1.61,2.41,2.31,3.71c-4.36,2.42-1.6-1.08,1.4,13.95c-2.14,2.49-1.79,1.47,0.9,3.01c3.61,2.06,3.49-0.12,4.31,1.4
		c-9.25,4.63-5.89,6.43-4.82,6.12c0.9-0.26,0.84-0.05,2.91,1.61c4.07-2.22,2.97-2.38,4.41,0.5c1.31-0.65,1.65-5.74,3.31-0.2
		c3.73-0.41,3.59-0.89,5.92-0.5c14.26,3.17,17.04-0.52,26.79,1c6.18-3.09,2.96,0.44,9.93-3.21c9.06-4.74,9.71-3.84,15.75-7.83
		c7.63-5.04,7.6-4.47,9.63-3.91c7.79-4.82,3.75-3.78,15.15-4.01c6.96-0.14,2.88,3.95,26.89,19.06c3.22,2.03,18.77,0.26,22.47-0.6
		c5.5-1.29,13.5,4.38,31,1.51c3.64-0.6,11.58-2.93,14.45-5.32c-2.96-0.33,0.95-0.74-10.43,1.71c-20.98,4.5-25.79,0.36-35.42,0.5
		c-9.87,0.15-9.91,0.83-16.05,0.4c-7.01-5.1-13.25-10.11-14.75-19.36c0-0.26-8.09-27.92,7.32-38.93
		c-0.65,10.99-0.61,10.77-0.4,13.95c0.18,2.72,1.96,5.63,2.01,3.71c0.23-9.91-0.83-21.33,10.23-35.22c3.59-4.51,6.58-6.15,8.43-8.73
		c-2.11-0.9-3.11,1-4.82,1.2c-0.6-1.71-1.91-1.91-3.51-1.61c-2.44,0.2-23.69-0.72-38.13,6.92c-0.5-1.81-1.81-3.01-2.01-4.72
		c14.03-6.8-1.48-9.79,36.32-14.75c11.25-1.48,11.59-1.73,12.84-0.7c-3.19,8.77-3.66,7.94-1,11.04c0.8-2.41,2.45-4.21,2.91-6.72
		c1.27-6.92,2.88-3.42,2.81-7.32c-0.23-11.84-2.6-16.35-2.41-32.31c0-0.11,1.26-9.96-0.4-15.35c-2.41-7.84-3.72-9.62-3.21-16.05
		c1.48-18.77,5.91-35.94,6.52-41.34c5.02-44.11,1.32-29.86,3.51-60.2c0.7-9.61-5.57-20.81-10.33-25.99
		c-3.58-3.89-3.4-11.64,3.72-11.93c-0.56,0.73-1.87,1.26-1.01,2.6c19.23-11.06,9.77-6.28,10.64,3.01c0.01,0.1-2.69,20.27,9.03,35.02
		c2.56,3.22,0.79,8.59,3.41,11.64c0.56-14.47-0.46-5.59,5.12,10.03c7.29,20.39,2.66,16.04,12.34,44.25
		c6.56,19.11-13.45,41.89,4.82,77.96c4.25,8.39,3.97,36.35,1.1,44.25c-0.17,0.45-5.39,14.52-4.72,16.55
		c4.04,3.84,0.1,5.41,3.81,12.84c2.4,4.81,1.6,6.18,3.21,5.82c0-8.97-1.63-10.89-2.91-18.16c-0.7-0.5-1.3-0.9-2.01-1.3
		c0.5-1.61,0.6-3.21,1.61-4.41c8.45,3.02,20.37,4.17,25.18,19.46c4.78,15.19-0.31,27.67-4.21,30.6c-7.06,5.29-7.23,7.17-12.44,8.23
		c-11.58,2.35-7.59,0.7-10.43,2.91c16.28,1.09,20.13-7.68,32.01-7.32c10.57,0.32,14.23-2.26,20.67-2.81
		c47.52-4.07,48.66-1.77,61.1-5.02c4.25-1.11,5.1,2.04,13.44,2.61c12.19,0.83,18.31,2.51,25.08-0.6c3.28-1.51,10.4-2.91,16.55-1
		c4.95,1.53,20.86,4.1,23.88-3.71c1.53-3.95,6.25-12.74,2.77-11.66c-0.54-1.48,11.88-27.3,21.61-33.79
		c0.45,3.97,0.89,10.68-2.81,19.16c-1.93,4.41,6.31,8.77,10.94,10.13c17.53,5.17,34.2-7.28,39.83-4.82c0.57,2.15-0.06,3.39-1.2,6.82
		c-0.29,1.74,1.79,1.55,2.01,0.9c2.55-4.77,1.67-4.65,3.31-15.25c0.5-3.23,1.61-4.59,0.9-9.03c-0.88-3.97,1.11-15.84,4.41-13.44
		c2.64,1.92,5.69,1.1,9.73,1.1c4.66,0-1.02,1.78,5.92,9.03c2.87,3,9.38,2.54,13.14,0.6c2.37-1.22,1.24-1.24,3.71-9.63
		c1.99-6.76-0.8-2.53-2.31-8.83c0.1,0,0.2-0.2,0.3-0.2c2.41,0,4.08,1.12,4.92,3.21c1.53,3.81,3.63,3.54,4.21,4.41
		c0.32,0.95-0.24,3.78-0.6,7.93c-0.49,5.67,2.26,4.98,2.91,4.11c2.9-3.88,0.19-7.84,4.21-4.62c0,4.11-0.02,2.12-0.4,5.42
		c-0.19,1.62,2.66,3.48,3.31-3.71c4.51,1.61,3.31,1.31,2.01,3.91c-0.33,0.65-0.7,2.4,0.6,2.81c1.6,0.49,1.54-1.99,2.11-4.62
		c4.55,0.91,3.79,2.01,4.31,4.11c0.2,0.5,0.5,0.9,1.2,0.6c1.65-5.77,5.16,3.67,14.95,2.01c10.47-1.77,20.42,13.6,5.92,20.07
		c-6.33,2.82-9.78,3.32-42.54,3.71c-16.34,0.19-37.37,8.78-48.06-1.91c-1.32,3.97,5.68,6.73,9.73,7.73
		c0.78,0.19,1.75,0.24,11.74-0.2c6.28-0.28,4.55,1.12,7.63,0.4c5.07-1.18,11.07-3.77,18.66-3.31c10.32,0,14.85,0.03,19.06-0.8
		c4.31-0.85,2.81,2.2,21.57-1.61c0.57-0.12,6.26-2.69,8.13-3.51c4.33-1.91,2.88-2.8,2.41-4.21
		C731.5,549.52,721.78,539.8,713.65,540.08z M175.27,560.65c-0.8,0.4-1.01,0.44-0.7-1.1C175.5,559.08,175.47,560.25,175.27,560.65z
		 M176.18,532.96c-0.13-0.38-0.16-0.3,0.1-0.3L176.18,532.96z M176.98,535.06c-0.13,0-0.12,0.06,0-0.3V535.06z M177.68,553.62
		c-0.26-0.26,0-0.4,0-0.5C177.8,553.24,177.83,553.47,177.68,553.62z M184.5,590.65c-0.1,0-0.1-0.1-0.1-0.2c0.1,0,0.2,0,0.3-0.2
		C184.7,590.68,185.04,590.65,184.5,590.65z M188.92,588.94c-2.54-1.82-2.54-0.59,0-2.41C188.92,587.44,188.92,588.04,188.92,588.94
		z M189.92,573.29c1.2,1,1.2,0.9,1.4,3.31C189.62,576.2,189.62,576.2,189.92,573.29z M191.73,522.12c-0.29,0-0.2,0.46-0.2-4.11
		C191.81,518.01,191.73,517.55,191.73,522.12z M193.93,594.46c-0.26-0.13-0.25-0.07,0-0.2V594.46z M193.33,585.63
		c0.83-0.42,0.37-0.42,1.2,0C193.71,586.05,194.16,586.05,193.33,585.63z M195.24,595.16c0-0.26-0.05-0.23,0.2-0.1L195.24,595.16z
		 M195.04,550.31c-0.77,0-0.87-1.24-0.4-1.71C195.82,548.61,196.06,550.31,195.04,550.31z M196.94,557.84c-0.29,0-0.3-1.5-0.3-1.61
		C197.05,556.23,196.94,555.95,196.94,557.84z M197.55,538.47c-0.13-0.25-0.16-0.2,0.1-0.2L197.55,538.47z M367.81,264.27
		c18.57,7.73,22.15,40.48,13.64,59.8c-11.15,25.32-38.05,18.14-42.44-16.76C335.91,282.65,350.5,257.07,367.81,264.27z
		 M317.64,262.87c10.95,0.8,20.24,14.47,16.96,15.45c-1.22-1.96-7.15-13.64-15.35-13.64C310.48,264.67,314.4,262.63,317.64,262.87z
		 M301.09,266.38c-17.69,10.61-20.55,58.28,2.71,70.63c3.17,1.68-7.63,1.98-14.85-9.33C272.3,301.61,288.67,265.3,301.09,266.38z
		 M273.5,333.9c-14.25,4.71-31.74-19.52-23.88-49.16c1.68-6.33,7.02-16.28,13.24-17.56c5.5-1.13,5.87-1.12,6.82-0.8
		c7.26,2.42,12.09,11.38,13.24,17.36c-9.94,7.67-10.56,8.84-14.25,8.63c-9.27-0.54-4.57,19.42,2.11,16.45
		c2.01-0.89,4.11-0.3,6.12-0.6c4.31,9.69,3.44,11.07,1.91,23.38C277.01,332.4,275.4,333.27,273.5,333.9z M281.12,294.67
		c-1.15,8.08,0,11.51,0,15.75c-2.31-1.91-2.21-1.9-3.21-4.11c-3.47-7.66-4.31-8.53-3.21-12.74c1.08-3.23,0.39-2.28,6.82-5.82
		c1.1,2.31-0.6,3.21-1.5,4.41C280.62,292.97,281.42,293.57,281.12,294.67z M275.6,305.11c-0.8,1.1-1.81,0.4-2.71,0.5
		c-3.89,0.78-3.97,0.26-5.82-0.2c-1.61-3.51-2.31-6.72,0.2-10.03c0.9,0.1,1.61,0.3,2.11,0.4c0.7,0,1.4,0,2.31,0
		C272.19,299.29,274.3,302,275.6,305.11z M199.45,530.45c0.84-0.31,0.6,0.2,2.61,2.21c-0.3,0.7-0.6,1.5-1,2.61
		C199.35,533.46,199.35,533.46,199.45,530.45z M199.45,566.07c-1-1.3-1-1.3-1.3-3.91C198.85,563.86,200.06,564.56,199.45,566.07z
		 M200.06,581.22c0.4-3.96-0.3-3.51,2.21-1C202.06,581.42,201.26,581.22,200.06,581.22z M202.16,528.24c-0.6-1.2-0.6-2.41-0.5-3.51
		C202.86,527.14,202.86,527.14,202.16,528.24z M204.37,587.13c0.5-1.1,0.9-0.9,1.81,0C205.27,587.13,204.87,587.13,204.37,587.13z
		 M206.58,557.54c0.5,0.8,1,1.61,1.5,2.51C206.48,559.54,206.48,559.54,206.58,557.54z M208.78,580.81c-0.64,0.64-0.79,0.01-1-0.2
		c0.3-0.1,0.5-0.3,0.8-0.4C208.68,580.41,208.88,580.71,208.78,580.81z M209.79,568.07c0-1.15-0.85-1.16-0.4-1.61
		c0.28,0.28,0.3,0.61,0.3,1C210.53,567.89,209.79,568.65,209.79,568.07z M210.79,544.09c-0.1-0.3-0.2-0.6-0.4-0.8
		c-0.3-0.5,0.1,0,0,0C210.99,543.19,211.09,543.49,210.79,544.09z M212.3,571.18c0-0.1,0.2-0.4,0.3-0.6c0.3,0.2,0.6,0.3,0.8,0.5
		C213.09,572,212.94,571.83,212.3,571.18z M213.6,580.51c-0.38-0.13-0.4-0.07,0-0.2V580.51z M225.94,569.68c0.1-0.4,0.1-0.8,0.2-1.5
		C226.94,569.08,226.64,569.48,225.94,569.68z M230.96,589.64c0.4-0.9,1-0.7,1.71-0.4C232.26,589.74,231.76,590.14,230.96,589.64z
		 M253.95,577.01c0.77,0.09,1.64,0.09,2.69,0.19C255.58,578.57,254.37,579.16,253.95,577.01z M268.88,521.82
		c0.13,2.81,0.3,17.86,1,18.56c4.22-11.61-1.89-9.57,5.22-11.94c6.1-8.53,1.6-2.61-3.41-2.11c-0.3-2.01-0.5-3.91-0.8-6.02
		c6.82-3.41,14.15-4.72,22.07-5.82c-3.41,3.71-7.42,6.02-10.43,9.63c1.41,0.47,0.75,0.86,2.71-0.7c9.28-7.42,10.59-8.93,22.47-8.93
		c-6.17,9.25-32.26,10.98-29.4,61.1c3.34-5.34-6.62-33.87,25.48-54.38c0.89,0.45,0.01,1.11-0.3,1.61
		c-6.5,10.35-4.08,11.82-7.83,14.35c-8.53,5.77-10.35,14.15-10.94,24.18c-0.8,13.76,3.81,20.72,3.81,21.47
		c-0.31,3.57,2.34,3.06,7.73,10.23c-7.28,0-7.85-5.68-18.96-14.95c-3.02-2.52-18.98,0.51-19.56-2.41c-3.79,0-3.38,0.18-3.88,1.23
		c-9.95,4.31-9.31,4.08-11.37,4.08c3.21-2.01,5.07-5.18,7.22-8.13c1.23-1.68,1.35-3.61,1.51-5.52c0.29-3.66-5.53-3.22-6.19-0.61
		c-2.87-2.05-1.23,3.55,0.04,0.09c1.33,0.69,2.49-0.48,3.74-0.38c0.8,0.5,0.91,1.31,0.5,1.91c-2.67,3.94-4.82,8.33-9.43,10.84
		c-1.8-1.8-1.49-1.09-3.71-1.4c-2.03-0.13-3.25-2.17-2.31-3.11c3,1.85,4.52,2.91,4.92,2.11c1.59-3.18-5.53-3.11-1.3-5.52
		c0.3,0.1,0.7,0,1,0.2c0.8,0.3,1.51,1.02,2.41,0.6c0.96-0.45,3.29-1.74,2.81-2.71c-0.32-0.95-1.82-0.06-3.31,0.5
		c-0.9-0.3-1.91-0.6-2.81-0.9c-2.51,1.5-4.72,3.21-6.12,5.92c0.8,1.81,1.91,3.41,3.71,5.12c-2.51-0.2-3.92-1.5-5.22-3.01
		c-1.09-1.27-0.13-2.7,1.71-5.32c-1.17-0.23-0.58-1.05-3.61,1.61c0,2.25-3.33,1.21,7.12-7.22c2.79-2.25,4.57-2.08,7.22-2.61
		c4.03-4.7,0.03-1.52-3.81-2.41c-6.88-1.58-6.42-0.67-8.83-2.21c-13.16-8.4-13.5-6.51-15.95-12.94c-4.62-12.12-3.44-4.42-2.41-11.14
		c0.39-2.54,0.63-4.59-0.4-5.62c-2.08-2.08-2.41,2.16-3.21,5.92c-3.99-2.39,4.12-11.94-1.91-10.74c-1.13,0-0.88,1.45-2.01-2.31
		c4.31-1.2,8.43-2.31,11.94-4.92c2.41,0.6,4.51,1.81,6.02,3.91c6.42-2.31,11.74-6.32,17.76-9.33c3.41,2.01,3.01,5.72,4.01,8.83
		c-2.91,4.61,1.31,2.62,1.81-0.2c-1.46-5.12-3.14-5.07,3.21-5.92c0.5-0.1,1.61,0.5,1.71,1c0.8,2.71,3.11,4.62,3.61,7.52
		c0.1,0.87,1,2.03,2.71,1.61c-0.7-3.31-2.91-5.72-4.21-8.63c0.29-0.39,0.58-0.78,0.78-1.17c3.16,1.19,3.61,4.53,5.34,4.28
		c1.76-0.35-2.26-4-2.91-4.72c3.27-1.87,4.99-4.06,7.02-2.31C265.73,514.64,268.68,517.41,268.88,521.82z M269.48,508.88
		c0.51,1.94-1.47,4.15-1.81,3.81c-4.92-2.73-4.86-2.78-9.63-3.51c2.26-3.39,5.17-6.68,3.21-15.45c-4.25-18.99,0.63-42.19,4.72-46.95
		c-1.83-12.79-5.22-24.37-3.51-35.12c3.56-22.35,3.59-18.33,6.32-29c1.51-5.9-0.68,0.22,3.01-16.65
		c5.94-27.16,8.68-29.89,9.33-38.93c0.2-2.81,0.6-5.62,1.81-8.43c0.6,1.1,1.11,2.11,1.5,3.11c4.75,11.91,11.22,14.12,12.74,16.15
		c0,35.13,2.51-0.19,2.51,63.31c0,6.39-6.6,21.61-5.92,24.48c1.38,5.8,1.4,11.74,2.11,17.56c0,4.18,2.19,4.35-0.3,19.06
		c-4.87,28.71-2.14,23.28-5.92,34.61C271.87,501.8,281.56,505.52,269.48,508.88z M315.54,430.32c0,0.11-0.66,17.72,2.01,22.17
		c2.69,3.95,1.84,6.59,2.01,27.99c0.09,12.11,1.24,13.65-0.5,15.55c-14.29-2.86-26.59,1.68-26.59-0.3
		c0.68-1.64,9.79-45.43,4.21-68.43c-0.85-3.49,0.02-3.69,4.62-20.57c1.02-3.74-1.3-65.51-1.3-65.62c-0.05-2.53,0.67-2.09,3.11-1.81
		c4.03,0.47,18.05-1.66,21.77-3.31C327.26,352.74,315.54,421.67,315.54,430.32z M324.16,333.7c0.2-0.3,0.4-0.5,0.6-0.8
		c0.1,0.1,0.4,0.3,0.3,0.4C325.07,334.13,324.26,333.7,324.16,333.7z M316.74,307.72c-2.31,0.9-2.31,0.9-8.03-1.4
		c-1.5-3.41-2.21-6.92,0.5-10.23C317.07,297.51,308.52,295.89,316.74,307.72z M316.44,291.36c-3.74,2.75-6.35,0.16-8.93,2.51
		c-4.37,3.99-2.52,11.33,0.5,14.65c2.98,3.27,9.46,0.09,11.64,3.51c6.57,10.29,9.74,18.63-1.71,22.98
		c-22.7,8.62-35.89-25.52-25.89-53.78c1.85-5.23,7.5-13.98,12.84-14.85c6.02-0.98,6.2-1.19,7.63-0.7
		c7.01,2.38,11.44,10.85,13.44,17.86C326.38,285.59,325.95,285.71,316.44,291.36z M321.11,291.03c0.35-0.19,0.7-0.35,1.05-0.49
		C321.92,290.99,321.53,291,321.11,291.03z M322.47,290.33c2.45-2.7,3.82-4.95,5.11-3.48C327.7,288,323.63,290.2,322.47,290.33z
		 M329.88,286.04c-1.93-0.55,0.6-4.84-11.24-19.77C332.05,269.19,338.25,284.32,329.88,286.04z M346.94,266.68
		c4.39-3.64,5.12-0.64,5.12-2.41c1.24,1.03-4.68,1.04-10.74,15.25c-7.62,17.88-6.43,46.14,14.65,60.2
		C334.58,342.1,318.62,290.16,346.94,266.68z M554.32,378.15c9.41-3.83,19.87-0.86,21.37,8.63c-1.61,2.51-5.52,7.12-7.63,8.93
		c-0.3-0.3-0.5-0.5-0.8-0.7c-2.96,6.4,8.65-10.04-35.62,49.36c-11.94-19.39-15.23-19.73-27.79-22.88
		C525.68,390.92,538.46,384.6,554.32,378.15z M441.85,497.44c7.59-3.54,4.31-2,4.31-1.2c-0.1,0.4,0,0.9,0,1.3
		C442.69,499.16,441.27,497.44,441.85,497.44z M411.65,503.66c2.54-0.36,2.21-0.18,2.21,0.2
		C411.33,503.86,411.65,503.93,411.65,503.66z M476.36,575.7c-17.27,3.8-24.25-0.63-55.98,5.32c-0.4,0.1-0.8,0.3-1.1,0.2
		c-4.77-1.06-14.82,2-17.96,2.31c-7.47,0.73-10.23-0.17-13.85,1.3c-0.27,0.11-1.3,0.2-1.3,0.1c4.76-4.08,6.06-4.95,5.32-6.82
		c-0.61-1.21,14.69-25.97-11.64-44.65c-14.59-10.35-15.45,3.06-8.83-19.77c1.49-5.15-1.75-3.57,1.4-10.94
		c3.11,0.62,4.95,3.55,16.45,2.41c4.41-0.44,2.07-1.1,14.95-1.1c12.68,0-1.23,0.65-9.03,4.11c3.83,0,6.89-1.8,12.94-2.21
		c1.98-0.13,7.05-0.15,8.33-0.8c7.62-3.92,17.72,0.45,21.57-0.1c-2.51-2.31-5.72-2.01-8.83-3.71c5.62-0.4,10.53-0.7,16.05-0.1
		c-6.14,2.63-2.29,1.77,3.91,1.2c0.6-0.1,1.2-0.1,1.61-0.9c-1.3-0.8-2.71-0.3-4.72-0.8c18.06-1.13,19.53-3.35,26.89,0.7
		c3.17,1.06,3.36,0.78,5.42,3.81c4.35,6.4,8.01,13.15,11.24,20.17c3,6.52,1.84-0.86,6.72,13.54c2.19,6.47,0.88,8.37,3.11,10.23
		c0.71,0.36-0.33,11.54-1.81,16.65C495.86,570.6,492.81,572.08,476.36,575.7z M458.41,496.44c2.62-0.68,7.29-2.72,7.93-0.8
		C463.92,496.44,461.42,496.94,458.41,496.44z M467.33,497.14c0.4-1.61,1.71-2.21,3.51-2.41c0.8,0.6,1.81,1.3,3.11,2.31
		C470.55,498.24,470.55,498.24,467.33,497.14z M496.23,530.55c0.6,0.4,1.1,0.9,1.4,1.71C496.53,531.85,496.53,531.85,496.23,530.55z
		 M501.25,540.18c-1.64,1.02-2.01-1.48-2.71-3.41C501.95,535.49,501.25,534.87,501.25,540.18z M500.74,533.26
		c0.46-0.46,0.23-0.57,0.8,0C501.4,533.41,501.49,533.63,500.74,533.26z M498.44,535.77c-1.86-2.66,1.04-3.01,1.4-1.2
		C499.44,534.86,499.04,535.26,498.44,535.77z M629.37,551.42c-11.79-1.96-12.69,9.94-39.63,4.21c-3.81-0.81-7.12-2.71-10.13-5.42
		c7.53-20.28-1.27-19.29,5.22-25.18c1,0.6,0.7,1.3,0.7,2.01c0,7.02,0.9,13.95,0.4,20.97c-0.35,2.47,0.95,2.37,1.3,2.51
		c-0.76-3.68-0.4-4.01-0.4-24.38c0-8.71,3.47-9.14,7.73-11.04c3.4,1.28,1.6,0.84,3.81,0.4c8.84,4.58,11.41,14.54,23.08,5.02
		c3.89-3.18,1.42-5.44,0.2-9.23c-1.85-5.74-3.11-4.89-6.02-8.63c3.34,0,4.06-0.25,5.22,1.1c10.76,14.6,4.83,9.79,14.15,17.36
		C628.37,534.34,634.7,525.51,629.37,551.42z M599.57,495.23c-0.18-10.34-0.48-10.69,1.4-7.42c3.37,5.84,5.4,6.9,7.12,9.73
		c2.39,3.93,5.02,7.73,8.63,10.74c-4.01,3.01-12.04,5.12-17.26,4.41c-0.4-2.81,0-5.52,0.1-8.23
		C601.93,503.52,599.76,505.96,599.57,495.23z M617.93,509.98c2.31,1.71,2.41,4.51,3.31,7.02c-3.17,5.55-12.6,9.05-18.26-1.4
		C612.14,513.13,608.67,514.61,617.93,509.98z M632.18,515.6c-2.85-1.9-0.65-2.28-6.22-9.33c-3.6-4.56-3.8-5.42-5.92-5.42
		c-8.7,0-6.66,0.78-9.13-3.01c-8.67-13.31-19.38-30.27-10.33-43.84c0.58,0.8,1.43,7.06,2.41,11.04
		c2.79,11.38,20.05,21.18,22.37,24.78c6.62,10.25,7.42,16.85,14.25,30.2C640.02,521.26,640.54,521.87,632.18,515.6z M598.27,481.19
		c-2.92-3.06-6.69-12.12-3.01-13.34C596.31,471.02,594.29,466.26,598.27,481.19z M639.9,521.32c0-0.1-0.19-0.39,0.2,0
		C640,521.32,639.9,521.32,639.9,521.32z M664.58,531.75c-4.08,3.22-11.32,1.57-13.24-2.01c0.8-2.81-1.1-4.82-2.51-7.02
		c-2.01-1.1-4.21-0.2-6.42-0.9c-0.73-3.63-0.61-3.37-1.81-5.32c-7.18-11.68-7.55-24.4-20.57-34.61c-3.71-2.91-7.3-6.15-10.94-9.23
		c-1.2-1.01-1.73-2.29-2.41-3.61c-12.4-24.1,0.78-24.34,6.72-53.38c0.31-1.5,0.7-3.01,0-4.92c-0.4,0.4-0.9,0.6-1,0.9
		c-6.41,19.22-7.94,16.64-16.15,43.44c-1.08,3.52-2.31,6.92-3.91,10.33c-2.2-3.3-0.29-8.73-10.74-18.06
		c-6.91-6.17-7.22-5.92-14.65-13.34c-3.82-3.82-15.14-6.86-20.07-5.22c2.7,2.7,2.18-1.12,16.25,5.02c1.27,0.55,1.79,1.6,9.83,8.83
		c18.66,16.77,14.02,14.91,17.86,28.19c6.11,21.17,6.86,1.68,5.52,39.23c-2.61,1.2-5.01,2.32-7.52,3.31
		c-3.94,1.55-3.44,3.25-4.82,3.71c-0.21-4.31-0.48-25.71,3.21-27.89c2.76-1.63,3.59-5.07,6.22-8.23c-1.75-2.05-3.09,3.86-6.82,6.52
		c0.2-1.3,0.19-2.11,0.4-2.91c2.63-9.96,1.37-7.12,1.2-6.42c-3.26,10.14-2.83,10.64-4.82,12.04c-7.63,5.37-5.12,12.48-9.03,21.07
		c-2.28,4.99-3.18,7.22-5.42,7.22c-3.35,0.22-5.68,11.69-5.82,8.42c-0.6,0.53-0.55,1.25-0.65,1.95c-0.18,0.22-0.4,0.24-0.55-0.23
		c-1.45,0.73,0.8,1.89-5.82,9.63c-25.29,29.6-33.68,23.56-49.16,25.28c0.5,0.4,0.6,0.6,0.8,0.6c25.17,2.12,31.68-7,50.87-26.19
		c0.17,0.52,0.27,0.88,0.36,1.16c0.1-0.06,0.24-0.08,0.24-0.16c1.42-5.26,3.58-5.03,8.73-18.26c13.58-6.79,6.17-21.77,16.35-28.79
		c1.07,0.61-1.61,6.59-1.61,19.77c0,10.22,2.61,7.46-3.11,13.64c-11.31,12.23-12.68,14.35-15.35,20.07
		c-9.66,20.64-9.21,20.69-8.53,21.97c-1.45,5.44-3.17,10.18-7.93,10.13c-21.34-0.19-21.19-3.99-30.9-0.4
		c-10.43,3.86-41.82,1.25-31.8-1c8.11-1.82,9.85-1.19,11.94-3.91c7.19-9.36,2.16-13.19,4.01-17.26c1.4,0.9,0.2,2.51,1.2,3.61
		c1.02-1.36,1.39-5.37,0.9-6.92c-0.38-1.53,1.28-1.4-1.1-1.4c0,0.6-0.27,1.51-0.5,2.21c-0.67-0.44-0.59,0.37-1-2.91
		c-0.33-5.57-2.35-5.54-1.2-7.32c0.72-1.12,2.48-0.46,1.81,0.4c-0.97,1.23,0.13-0.44,2.31,7.83c1.68,2.15,5.8,7.9,9.33,6.72
		c-0.1-1.2-1.11-1.3-1.81-1.71c-7.41-4.31-11.55-20.9-4.31-30.8c-0.5-0.6-1-0.2-1.2,0.1c-4.85,6.46-3.55,14.53-16.76-6.02
		c-0.1-0.2,0-0.5,0-0.7c-0.3-0.2-0.8-0.3-0.9-0.5c-4.21-8.23-3.31-5.86-3.31-8.23c-3-2-1.68-1.07-3.81-3.91
		c0.35-0.35,2.22-1.64,0-2.01c-0.5,0.5-1,0.8-1.61,0.2c0.6,0,1.2-0.1,1-1.3c-1.28-2.56-2.86-0.96-3.71-3.51
		c-4.39-0.4-4.06-0.14-1.4-1.91c15.98,6.66,5.93,6.37,12.54,18.86c0.82,2.05-0.51,0.83,2.51,2.51c-7.66-18.39,0.96-13.38-9.23-20.07
		c-2.88-1.89-8.14-3.29-9.43-6.02c-13.15,0-8.25-2.31-13.85-3.71c-0.7,2.11,1.81,2.11,2.01,3.51c-3.51,0.5-7.02,0.5-10.23,2.91
		c0.6,0.3,0.9,0.5,1.1,0.5c4.64-0.84,3.08-1.67,5.42,1c-2.81,0.2-5.32,0.2-8.03,0c4.63-6.24-2.03-11.95,11.94-13.54
		c0.43-6.5,0.1-6.82,4.31-6.82c7.43-12.6,6.24-11.18,7.52-12.14c4.52,18.09,18.04,16.46,13.14,13.64
		c-5.45-3.13-14.32-14.15-10.33-18.96c1-1.21,1.4-2.81,2.91-3.71c3.52,4.5,5.09,11.82,7.63,15.25c0.79-4.51-3.35-14.21-7.02-16.65
		c5.61-8.13,5.96-16.59,20.97,8.43c2.5,5.01,1.64-8.8-13.14-18.56c1.4-2.51,12.84-17.46,15.75-20.47
		c6.56,1.28,11.86,3.39,17.06,9.03c0.33,0.36,10.64,11.85,11.34,13.24c-2.24,3.92-4.06,6.65-6.62,10.84
		c-5.72,9.36-2.37,10.75-7.52,10.33c-0.26-1.83,0.03-23.42-3.29-27.62c0.46,6.27,2.26,12.95,1.99,27.22
		c-0.13,7-5.07,5.76-5.82,11.54c1.27,0.12,3.48-4.15,6.32-5.32c0.72-0.29,1.58-2.37,1.91-2.91c2.49,0,3.65,3.87,5.12,1.91
		c-2.54-5.07-1.82-1.99-0.4-4.82c1.21-2.85,9.72-17.53,11.74-17.96c0.1-0.1,0.3-0.4,0.3-0.6c-0.3-1.1,0.6-1.81,1.1-2.61
		c23.16-32.87,9.21-20.61,50.47-65.21c2.12-2.29,2.64-2.26,14.85-5.82c2.94-0.86,3.49,0.02,10.94,2.81
		c0.87,1.52,2.04,6.62,7.93,12.14c10.79,10.13,1.6,6.06,11.14,22.98c18.44,32.72,19.26,52.8,29.7,93.51
		c1.94,7.58,2.54,5.09,6.52,15.05c-8.53,9.06-2.92,3.15-9.43,9.23c0.66,1.99,4.74-1.03,6.42-2.71
		C667.57,522.65,667.63,520.44,664.58,531.75z"/>
	<path d="M589.94,107.24l-0.1-0.08C589.84,107.46,589.71,107.56,589.94,107.24z"/>
	<path d="M513.59,67.22l-0.1,0.1C513.62,67.48,513.68,67.63,513.59,67.22z"/>
	<path d="M716.56,167.35c-17.92-1.78-11.11-4.35-21.17-6.92c-6.66-1.7-12.74-2.98-13.64-8.53c-6.9-3.45-2.87-10.46-12.24-10.23
		c-1.49,0.04-1.12,0.9-4.01-4.51c-5.71-10.68-2.85-10.2-8.23-30.8c-9.65-36.96-7.5-46.56-25.89-70.63
		c-2.77-3.63-0.58-12.15-4.82-15.45c-3.1-2.42-5.09-5.74-7.73-8.43c-3.65-3.72-3.38-5.84-3.21-7.22c-3.96-2.2,0.18-0.63-11.54-4.21
		c-3.93-1.2-5.1,0.51-11.04,2.01c-10.2,2.56-10.99,8.31-14.05,9.33c-2.02-3.63-4.98-7.23-8.83-8.03c-2.11-0.6-3.65-2.44-7.73-2.11
		c-18.52,1.5-35.91,18.94-39.33,21.27c-7.82,5.32-11.73,9.47-19.06,19.26c-26.09,34.86-24.23,28.1-39.43,59.6
		c-1.36,0.39-5.02,0.09-5.12,4.41c-0.06,2.57,0.32,3.25-2.21,3.71c-3.25,0.6-1.07-0.26,0.6-5.42c8.56-26.41-1.82-58.79-22.47-59.3
		c-2.51-0.06-6.43-1.05-11.94,1.5c-6.72,3.12-12.75,10.12-14.75,14.95c-2.92,7.06-1.48,5.8-6.12,7.22
		c-3.28-8.74-7.15-19.59-17.06-21.27c-32.61-5.53-40.69,48.87-20.57,69.53c9.66,9.92,18.18,5.21,24.88,4.82
		c3.13-0.19,3.97-1.41,9.43-6.42c-1.41,14.43,3.68,15.15-18.26,15.15c-0.97,0-15.07-5.27-17.26-6.32
		c-6.7-2.79-19.52-2.71-24.38-2.71c-10.2,0-24.35,7.12-31,7.12c-16.18,5.39-9.37,3-20.47,9.93c-0.31-2.78-1.79-34.45,2.71-46.45
		c32.29,28.7,61.08-28,38.83-60.4c-7.04-10.24-28.76-19.42-43.84,10.74c-0.37,0.75-0.67,0.65-3.71,0.1
		c-1.95-5.35-2.19-9.28-5.52-12.74c-0.67-0.7-2.65-7.69-11.54-8.33c-2.24-0.16-6.31-0.88-8.33-0.3c-3.27,0.94-8.31,3.07-9.33,6.32
		c2.26-0.17,3.18-3.44,9.23-4.11c-5.1,4.08-9.31,7.37-12.54,16.86c-3.82,11.2-4.39,23.81-0.9,34.71
		c4.21,13.17,11.45,15.54,12.74,17.26c-15.28-0.48-26.06-26.83-16.25-52.17c2.9-7.5,5.96-9.45,8.03-12.54
		c-5.11,0-16.93,20.74-11.94,43.44c6.31,28.71,25.02,22.85,34.61,22.07c-4.03,16.49-15.18,38.31-15.05,46.45
		c0.03,1.79-5.99-0.09-10.13,1.2c-1.2-1.5-2.01-3.31-4.01-3.81c-19.4,8.19-14.84,10.76-18.56,6.42c-2.41,1.1-4.41-1.3-6.92-0.6
		c-0.56,0.28-0.91,2.21-11.84,5.12c-1.46,0.39-2.14-1.44-2.61-3.01c-0.99-3.34,1.1-2.65,1.1-4.31c0-2.13-2.05-2.82-2.81-1.3
		c-0.7,1.4-2.11,2.11-3.51,2.81c0.5,2.31,0.9,4.51,0.2,6.72c-1.09-2.18-0.6-3.78-1-7.22c-0.24-2.05-2.18-3.3-2.41-0.1
		c-0.38,1.5,0.64,1.19-1.81,0.7c-2.22,2.38,1.46,6.25-3.51,4.11c-1.2-1.61-1.2-3.81-3.11-5.22c-1.22,2.44,0.55,5.11,3.31,10.64
		c-0.95,1.58-0.58,2.13-2.81-0.1c0.6,2.59,1.52,4.71-0.7,6.12c-0.28-2.54-1.36-12.89-3.51-15.05c-0.76,3.59,2.24,13.32-0.6,18.06
		c-1.5-1.5-1.5-4.01-3.71-5.32c-0.1,1-0.2,1.81-0.3,2.61c0.6,0.17,0.54,0.72,0.64,1.19c-0.42-0.29-0.73-0.66-0.64-1.19
		c-3.97,1.63-0.66,2.1,0.3,8.83c-5.09,4.72-4.7,15.13-4.31,22.07c0.44,7.83,7.32,9,1.91,11.04c1.74,5.21,2.29,4.49,3.41,11.24
		c0.68,2.96-3.86,3.2,3.01,5.22c0.79,0.23,4.2-0.47,1.1,1.3c-3.92,2.24-3.55,1.57-4.92,3.61c-0.3,0.4,0.1,1.61,0.5,1.5
		c1.61-0.2,2.51,1.3,3.91,1.81c3.76-2.25,2.98-2.05,4.51,0.7c2.45-4.9,2.26-2.55,3.01-0.3c2.85,0,4.87-1.49,10.84,0.2
		c4.3,1.22,12.86,0,19.46,0c5.55,0,3.65-1.39,7.12-1.3c3.53,0.09,5.09-2.23,13.14-5.42c10.82-4.28,13.5-9.66,17.66-7.93
		c12.43-8.55,22.13-0.99,23.33-3.52c3.89-0.75,7.95,14.82,24.53,16.87c7.61,0.94,5.91,1.86,8.63,2.71
		c22.86,7.12,24.78-0.84,37.52,6.52c5.96,3.44,10.44,6.17,17.06,7.63c41.32,9.06,41.05,3.04,65.52-2.91
		c6.32-25.27,1.56-14.25,5.72-29.5c3.07-1.64,26.04,0.15,38.43-2.91c4.74-1.17,4.51,1.79,13.54,2.71
		c16.09,1.64,20.19,1.64,25.08-0.5c14.26-5.19,10.81,0.29,33.71,0.1c2.71-0.02,5.23-1.2,6.52-4.01c4.74-10.35,5-11.07,4.41-12.54
		c-1.56-0.63-1.4-0.4-1.3-0.5c0.45-1.82,10.35-25.38,21.87-33.61c0,6.29,0.36,9.13-1,12.74c-3.14,8.31-2.79,9.03-1.1,10.84
		c12.18,13.06,34.24,4.45,46.15,0.7c6.61-2.08,2.86,5.02,2.51,7.83c-0.12,0.58,1.33,1.29,2.21-0.1c2.03-3.21,1.73-4.44,3.11-15.35
		c0.34-2.7,1.53-3.66,1.1-6.82c-1.09-8.05,0.68-11.33,2.41-15.65c4.28,0.95,3.21,2.21,8.73,1.71c8.8-0.8,1.55-0.3,8.73,8.83
		c2.81,3.57,14.81,2.59,15.15-1.71c0.34-4.23,3.06-8.58,2.21-11.34c-2.01-2.11-2.01-2.11-2.91-4.82c6.35,0,3.63,4.1,9.63,7.52
		c0,6.09-0.8,6.49-0.8,10.74c0,1.86,2.47,2.68,3.51,0.6c1.9-4.44,0-6.43,3.81-3.71c-0.01,0.1-0.64,5.2-0.5,5.62
		c0.88,1.77,2.1,0.77,2.21,0.6c0.74-0.74,0.77-2.03,1.2-4.62c4.53,1.39,2.7,1.02,1.71,5.32c-0.41,1.22,1.72,2.26,2.31,0.5
		c1.34-4.91-0.39-3.91,3.81-2.51c0.98,0.91,1.47,7.16,2.91,1.4c2.77,0,6.17,5.22,13.44,4.31c10.71-1.33,15.74,9.07,13.64,13.04
		c-4.11,7.79-0.36,2.66-5.22,5.92c-4.91,3.29-16.74,4.27-22.98,3.41c-2.33-0.32-3.24,1-12.74,1c-21.36,0-47.8,7.9-55.58-0.8
		c-0.98-1.47-2.16-0.28-0.6,1.61c5.88,7.1,14.14,4.92,22.37,4.82c3.73-0.05,4.09,1.28,7.63,0.3c27.64-7.63,48.79,1.43,67.62-9.83
		c3.22-1.92-0.17-2.27,2.01-5.12C731.2,179.65,726.42,168.33,716.56,167.35z M175.47,188.62c-0.18-0.36-0.53-0.22-0.1-1.51
		C176.57,187.92,176.36,187.74,175.47,188.62z M176.78,159.83c0-0.01,0-0.01,0-0.02C176.81,159.85,176.82,159.87,176.78,159.83z
		 M177.68,162.64c-0.13-0.38-0.16-0.3,0.1-0.3L177.68,162.64z M178.48,164.64c-0.13,0-0.13,0.05,0-0.2V164.64z M180.59,208.49
		c0-0.26-0.05-0.23,0.2-0.1L180.59,208.49z M185.11,218.72c-0.07-0.14-0.42-0.34,0.3-0.7C185.8,218.41,185.58,218.48,185.11,218.72z
		 M189.32,216.41c-1.09-1.46-1.12-0.46-0.5-1.71c0.8,0,1,0.4,1,0.9C189.82,215.91,189.52,216.11,189.32,216.41z M190.72,200.66
		c0.8,1,1.3,2.11,1.61,3.71C189.55,203.98,190.58,202.44,190.72,200.66z M192.33,149.8c0-1.4,0-2.71,0-5.02
		C192.83,146.99,192.63,148.39,192.33,149.8z M193.83,213.4c1.48-0.3,1.5-0.28,1.5,0.3C194.06,213.71,193.83,214.1,193.83,213.4z
		 M195.94,222.64c-1.42,0-1.2,0.1-1.2-0.3C196.16,222.33,195.94,222.23,195.94,222.64z M195.54,178.19c-1.36-0.55,0.6-3.6,0.6-0.2
		C196.14,178.09,195.74,178.29,195.54,178.19z M197.45,185.31c-0.31-1.88-0.63-1.91,0.1-1.91
		C197.86,185.26,197.8,185.31,197.45,185.31z M198.35,166.15c-0.37-0.37-0.35-0.25-0.1-0.5
		C198.36,165.76,198.52,165.98,198.35,166.15z M199.55,193.94c-0.86-3.74-0.88-3.61-0.5-3.61
		C200.82,193.51,201.11,192.7,199.55,193.94z M200.36,161.63c-1.15-6.28,1.16-2.08,2.51-1.4c-0.4,1-0.7,1.81-1,2.41
		C200.86,162.74,200.47,162.23,200.36,161.63z M201.96,212.2c-0.13-0.25-0.16-0.2,0.1-0.2L201.96,212.2z M201.16,208.89
		c-0.3-1.4-0.3-1.4,0-2.81C204.49,209.89,204.12,208.3,201.16,208.89z M203.37,156.22c-1-1-1-2.01-0.7-3.11
		C203.27,154.01,203.97,154.81,203.37,156.22z M566.76,4.22c5.48,2.35,8.35,3.92,10.03,10.33c-9.05,10.05-7.11,9.81-8.93,7.63
		c-0.32,2.92-0.02,2.93-0.9,4.01c-62.08,76.03-12.62,36.4-62.2,22.88C521.94,25.01,538.62,7.53,566.76,4.22z M454.69,108.16
		c-3.01,6.79-6.1,5.08-5.62,6.52c0.38,2.54-5.94,8.56-14.45,8.03c-18.77-1.18-30.91-39.5-16.15-64.21
		C438.11,25.63,472.22,68.63,454.69,108.16z M446.77,123.32c0.2,0.5,0.3,1.2,0.7,1.5c0.4,0.3,1.4,0.4,1.71,0.1
		c1-1,2.31-0.71,3.41-0.9c1.2-0.21,2.31-0.7,3.51-1c0.5,1,1.2,1.61,2.41,1.71c-1.58,0.18-14.32,1.42-15.75,0.7
		c0.3-1.2,1.51-0.4,2.11-1C445.32,123.96,446.25,123.53,446.77,123.32z M446.99,123.23C447.15,123.17,447.19,123.16,446.99,123.23
		L446.99,123.23z M447.07,120.9c0.4-1,1.2-1.5,2.21-1.91C449.38,121.1,449.38,121.1,447.07,120.9z M440.75,124.71
		c-0.3,0.3-0.3,0.7-0.5,0.7c-1.4,0.4-3.31,0.3-5.12-0.4C440.29,125.01,437.62,125.03,440.75,124.71z M411.65,60.1
		c3.73-6.1,12.42-13.2,14.75-12.04c-3.9,0-18,17.23-15.65,42.74c2.17,23.61,14.62,29.8,18.76,33.11
		C406.94,123.91,397.95,82.52,411.65,60.1z M429.91,126.02c-6.3,1.76-9.35,3.48-8.53-1.71C424.19,124.81,427,125.42,429.91,126.02z
		 M376.44,121.7c-27.67-4.46-27.53-66.22-1.81-71.94c-3.8,3.8-7.17,6.12-10.33,13.64c-6.34,15.06-5.31,38.96,5.72,51.47
		C375.31,120.88,382.18,122.63,376.44,121.7z M398.71,113.07c-9.75,13.11-29.23,9.91-35.42-16.25c-4.88-20.62,4.5-45.58,15.55-46.55
		c4.17-0.37,5.2-1.52,8.33-0.1c7.37,3.34,11.69,13.63,12.74,20.87c-4.18,0.42-5.29,2.07-13.24,5.42c-2.15,0.72-3.31-0.72-5.52,1.2
		c-4.66,4.06-2.68,11.56,0.5,14.85c4.97,4.47,7.94-3.6,13.24,7.42C399.81,110.15,400.25,111,398.71,113.07z M390.08,91.9
		c-3.51,1.2-5.72-0.9-8.13-1.5c-1.91-3.71-2.21-7.22,0.5-10.64C387.32,81.39,384.53,86.36,390.08,91.9z M322.06,26.99
		c10.25,6.29,13.46,20.54,13.54,32.81c0.2,30.02-25.72,51.53-39.93,26.79C278.92,57.42,300.68,13.88,322.06,26.99z M283.43,62.21
		c1.21-28.16,19.46-38.87,22.57-36.92c-6.08,0-24.52,27.37-14.45,55.38c4.56,12.67,10.77,14.56,12.34,16.65
		C296.23,98.42,282.44,85.33,283.43,62.21z M268.98,90.2c-37.58,11-31.28-66.32-8.03-66.32c4.74,0,4.95-1.08,7.22,0.4
		c6.43,4.19,9.59,10.79,10.84,17.96c0.47,2.72-8.5,5.96-10.94,6.82c-2.92,1.03-8.67-0.67-9.83,4.92
		c-1.08,5.21,0.75,12.01,5.42,12.34c2.1,0.35,3.37-0.46,7.32,1.2C272.51,72.85,274.29,88.65,268.98,90.2z M270.79,64.41
		c-3.81,1.3-6.72-0.3-9.73-2.01c-1.4-3.41-1.61-6.82,1.1-9.83C267.31,53.86,264.62,51,270.79,64.41z M259.45,129.53
		c3.7-7.15,4.96-15.09,7.42-18.36c1.3-1.73,5.4-13.56,7.42-27.59c0.88-6.14-0.07-12.49-0.8-19.46c-4.07-7.55-1.15-3.31-2.11-7.12
		c-0.5,0-1,0.2-1.2,0c-2.51-2.01-2.51-2.01-2.91-3.91c4.83-2.9,21.58-11.14,12.54-4.11c-2.98,2.69-5.64,2.94-6.42,4.01
		c1.27,2.12,6.58-1.35,9.63-3.31c0,1.82-0.65,8.35-1.61,10.33c2.44,29.27,4.62,17.05,4.62,31.1c1.1,0.4,1.1-0.9,1.91-1
		c1.23,1.23-4.57,15.36-2.41,32.51c0.78,6.22,0,12.24,0.6,18.26c-6.23,6.59-3.76,4.78-13.34,10.53
		c-2.65-4.24-2.15-15.58-14.95-13.44C257.18,135.95,258.4,131.57,259.45,129.53z M205.77,214.71c-0.32-0.63-0.2-0.5,0.4-0.5
		C206.54,214.57,206.28,214.46,205.77,214.71z M207.08,185.11c0.6,1,1.1,1.81,1.71,2.71C207.08,187.32,207.08,187.32,207.08,185.11z
		 M208.28,218.82c-0.4-0.27-0.38-0.2,0-0.2V218.82z M208.88,208.69c-0.25-0.25-0.73-0.42,0.4-0.8
		C209.7,208.71,209.32,208.47,208.88,208.69z M210.59,196.05c-0.3-0.5-0.5-1-1-1.91C210.69,194.74,211.09,195.14,210.59,196.05z
		 M211.35,170.55c0.23,0.38,0.45,0.3,0.45,0.81C211.12,171.03,211.4,170.76,211.35,170.55z M213.9,199.66
		c-0.88-0.88-1.13-0.65-0.7-1.5C213.88,197.48,214.45,199.48,213.9,199.66z M214.6,208.59c-0.13-0.13-0.18-0.3,0.2-0.3
		C214.92,208.41,214.98,208.59,214.6,208.59z M225.84,198.15c0.4-0.9,0.8-1.51,1.2-2.41C227.75,197.05,227.04,197.55,225.84,198.15z
		 M230.46,217.12c0.9-0.1,1.81-0.1,2.81-0.1C232.36,217.82,231.36,217.52,230.46,217.12z M278.11,205.18
		c-2.59,0.47-9.13-0.51-18.56,0.3c-4.41,0.38-3.89,2.35-4.96,0.21c-2.08,0.36-2.54,0.95-9.19,3.3c-4.88,1.73-0.35-1.16,0.4-1.91
		c8.79-9.89,8.2-17.92-1.61-12.04c0.31,1.24-0.13,1.11,5.12-0.5c2.33,1.08,0.58,2.3-3.31,7.93c-1.39,2.01-3.21,3.71-5.62,4.92
		c-0.4-0.4-0.7-0.9-1.1-1.1c-0.86-0.51-4.15,0.28-5.12-2.81c0-0.2,0.4-0.6,0.6-1c1.4,1.1,2.61,2.41,4.31,2.71
		c1.51-2.01,0.88-1.8-2.51-4.51c0-0.43,0.68-0.68,1.71-1.71c2.4,1.07,3.55,2.35,6.32-1.4c-0.51-1.79-2.03-0.44-3.31,0.2
		c-1-0.3-2.11-0.5-3.11-0.8c-2.51,1.51-4.72,3.21-5.92,5.82c1.91,3.91,1.91,3.91,4.82,5.32c-3.11,0.2-5.12-1.4-6.62-3.41
		c-0.86-1.43,1.12-3.77,1.81-4.92c-1.5-0.2-1.5-0.2-3.71,2.31c0.1-1.91,0.2-2.4,1.51-3.51c4.9-4.18,8.7-7.21,12.74-6.82
		c5.05-5.56,3.1-0.61-10.63-3.91c-0.66-0.16-8.35-4.91-14.75-8.63c-4.2-6.3-2.2-6.89-6.42-12.44c1.06-3.44,3.16-9.74-0.4-10.33
		c-1.91,1.61-0.8,4.41-2.21,6.32c-2.44-3.42-0.01-5.16,0.5-8.73c0.16-1.12-0.5-2.76-2.81-1.61c-0.54,0.54-0.62,0.02-1.4-2.61
		c12.77-2.67,10.92-8.04,17.96-1c13.76-4.59,18.31-14.84,20.97-4.21c1.12,4.47,0.74,3.91-0.7,5.92c1.91,0.4,1.91,0.4,3.31-2.11
		c-0.3-1.71-1.91-3.21-1.1-5.32c2.42-0.66,5.45-2.09,6.12,0.3c0.79,2.81,3.15,4.72,3.61,7.63c0.18,1.11,1.1,1.4,2.81,1.1
		c-3.73-7.92-5.33-8.62-3.31-9.83c3.1,2.41,3.2,3.2,4.62,4.82c1.2-0.4,1.2-1,0.7-1.71c-2.98-3.72-4.21-2.52,1.1-5.92
		c2.28-1.46,3.66,1.43,6.12,3.51c3.28,2.77,3.21,7,3.21,13.04c0,15.43,2.41,13.31,2.41,1.4c2.61-0.98,3.79-0.93,4.41-2.31
		c0.67-1.48,22.53-11.54,24.98-11.74c10.26-0.85,12.85-4.15,21.67-2.81c0.7,0.9,0.5,1.8-0.4,2.51
		c-14.74,11.59-28.85,12.1-36.62,41.04c-3.3,12.28,2.2,27.09,2.31,27.09C288.72,211.2,280.22,204.8,278.11,205.18z M290.75,214.21
		c0.39-5.24-4.13-14.42-2.21-26.79c2.17-13.97,8.6-27.99,21.37-33.51c7.46-3.23,11.67-7.23,19.77-12.94
		c-7.61-9.9-45.71,7.8-47.16,7.22c25.02-20.01,11.12-10.62,42.04-20.37c14.42-4.55,31.76-5.68,45.15,1.1
		c2.92,1.48-1.14,1.79,9.63,4.11c3.16,0.68,17.35-0.6,17.46-0.6c0.3,1.5,0.1,2.61-1.5,3.11c1.61,2.15-1.37,30.38-7.42,50.57
		c-4.57-1.14-4.47-0.66-4.82-3.11c-2.3-16.36-33.59-37.25-68.02-23.48c-3.9,1.56-19.77,19.02-19.77,36.82
		c0,15.86,1.01,14.08,6.12,23.88C298.48,220.23,294.47,217.92,290.75,214.21z M381.35,184.21c-4.52,0.5-5.52-0.24-8.93,0.1
		c-4.6,0.46-7.59-2.41-10.13-6.22c8.05-3.83,2.08-0.76,11.34-6.12C377.94,174.98,381.15,178.49,381.35,184.21z M435.53,216.82
		c-3.61,21.68,0.53,20.41-29.1,26.49c-34.82,0-29.3-2.41-62.71-14.05c-9.55-3.33-8.53,1.64-31.4-4.72
		c-2.91-0.81-5.04-2.87-7.63-4.11c-0.46-0.22-0.27-0.1-4.62-7.02c-3.3-5.26-2.33-15.51-1.5-21.67c1.58-11.79,8.15-18.92,15.65-29.1
		c2.15-3.37,15.06-5.14,19.06-5.32c14.11-0.64,24.26,0.21,36.22,11.14c-12.47,10.2-15.01-4.65-20.67-3.61
		c-5.08,0.93,1.86,5.83,7.93,10.94c8.39,7.07,10.44,10.17,15.95,10.33c4.09,0.12,10.25,1.11,14.45,2.91c0.69,4-0.42,14.85,0.8,17.46
		c1.8-5.41,2.1-12.49,2.31-18.36c0.14-4.02,8.23-31.77,9.83-52.27c0.36-4.67,1.3-3.99,1.3-7.52c0-27.95,1.35-14.8-2.61-24.58
		c-6.54-16.19-14.12-18.11-9.63-25.58c5.32-2.51,10.64-5.02,16.05-7.52c0.7,0.8,0.29,1.39-0.4,1.81c-1.64,0.97-12.87,6.6-10.63,8.83
		c1.83,1.22,5.23-4.72,9.83-4.72c0,2.92-0.16,8.28-0.8,10.13c2.93,18.77,3.18,21.57,11.84,32.81c0.78,1.02,2.11,1.71,3.11,2.51
		c4,21.99,6.5,20.67,7.42,28.39C428.2,172.25,439.36,193.85,435.53,216.82z M439.74,205.88c0-24.17-3.14-16.4-5.62-30.8
		c-8.7-50.58-21.07-46.42,4.21-42.34c-5.46-5.06-22.28-2.49,16.45-5.02c5.97-0.39,8.91-2.31,16.96,0.5
		c1.41,0.49,2.61,1.71,4.21,1.91c2.46,0,17.82,28.9,20.47,36.42c2.53,7.18,0.12,5.27,3.01,10.23c0.72,2.16,0.14,19.44-5.12,21.57
		C476.92,205.42,463.65,205.88,439.74,205.88z M460.21,123.91c2.71-1,4.82-1.71,7.93-1C465.33,124.11,463.12,124.41,460.21,123.91z
		 M469.04,123.11c2.61-0.7,2.61-0.7,5.32,1.5c-2.21,1.51-4.01,1.51-6.22,0.1C468.54,124.11,468.74,123.61,469.04,123.11z
		 M489.88,146.78c-0.74-0.42-1.16-1.06-1.07-2c-0.77-0.29-0.71-0.95-0.7-1.54c0,0.16,0.9,0.12,0.7,1.54
		C489.65,145.15,490.22,145.79,489.88,146.78z M485.19,138.36c-0.1-0.4,0.2-0.9,0.4-1.5c-2.31-0.2-2.91-2.21-4.31-4.01
		c0.73-0.44,1.72-0.79,1.1-1.4c-1.2-0.8-2.11-2.18-3.71-2.31c-1-0.08-0.5-1.61-1.71-1.51c-0.8,0-1.61-0.2-2.41-0.3
		c0-1-0.79,0.05,2.11-1.61c14.54,6.84,7.23,4.85,11.34,16.45c0.1,0.27,0.1,0.63,0.1,1C486.6,141.97,486,140.06,485.19,138.36z
		 M480.58,131.13c-0.42,0.42-0.52-0.2-0.2-0.2C480.48,130.93,480.48,131.03,480.58,131.13z M497.23,159.53c0-0.1,0.2-0.3,0.3-0.5
		c0.2,0.2,0.5,0.4,0.7,0.6C497.65,160.22,498.32,160.61,497.23,159.53z M500.74,172.07c-0.8-1.91-0.7-2.01,1.1-2.71
		C503.14,170.87,500.78,172.17,500.74,172.07z M502.65,172.17c2.09,7.65,1.92,6.71,0.6,5.92c-0.2,0.9-0.4,1.71-0.7,2.91
		c-1.2-1.71-0.68-3.32-1-4.82C500.51,171.35,500.49,172.17,502.65,172.17z M501.85,168.36c-1.93-1.11-1.28-0.24-2.61-4.21
		C501.28,163.92,502.83,162.79,501.85,168.36z M498.74,162.84c-0.38-0.75-0.13-2.83,1.81-0.7
		C499.44,163.34,499.04,163.44,498.74,162.84z M559.04,191.13c0-0.22-0.02-0.25,0.08-0.31
		C559.09,190.92,559.04,191.05,559.04,191.13z M634.69,150.1c-5.15,9.39-0.22,7.02-5.02,29.2c-3.46-1.36-8.14,0.16-15.45,3.51
		c-10.76,4.94-27.47,1.73-34.31-5.12c1.61-3.41,2.85-7.02,3.11-10.84c1.01-14.78-2.9-8.5,1.91-13.85c0.71-0.36,1.5-3.32,1.5,23.48
		c0,2.21,0.81,1.71,1.3,1.71c-0.98-3.94,0.01-8.35-0.5-25.99c-0.07-2.26,1.09-6.22,3.61-7.52c8-4.13,2.81-0.04,7.93-1.5
		c2.61,1.3,4.8,3.03,6.72,5.12c5.97,6.49,14.25,4.61,18.76-3.01c-2.26-9.9-5.44-11.98-7.93-14.25c1.51-0.6,2.81-0.3,4.21-0.2
		c11.03,14.27,6.82,11.52,9.63,13.75C635.88,149.09,635.92,149.35,634.69,150.1z M600.07,136.35c0-4.96-0.37-3.81,1.4-4.51
		c-0.94-4.09-1.1-1.88-1.1-7.83c0-12.39-0.36-11.53,1.2-8.83c3.66,6.34,5.42,6.91,7.12,9.73c2.47,4.08,5.12,7.93,8.83,11.14
		c-4.01,2.91-11.54,4.82-17.16,4.51C599.67,139.26,600.17,137.76,600.07,136.35z M618.83,137.76c2.31,1.61,2.41,4.51,3.21,7.02
		c-2.41,4.21-6.22,5.27-10.43,5.32c-2.55,0.03-6.6-4.83-8.23-6.62C614.47,140.52,610.5,141.76,618.83,137.76z M622.34,128.73
		c-7.8-1.8-7.27,2.56-10.84-3.21c-7.03-11.37-20.06-28.24-10.43-43.74c1.23,1.11-0.2,0.38,2.11,10.43
		c2.93,12.8,19.59,20.16,23.98,27.39c6.46,10.62,7.41,18.52,14.25,30.3C622.53,134.79,638.34,148.48,622.34,128.73z M598.47,108.59
		c-1.75-1.07-3.73-7.24-4.01-10.87c-0.18-1.28,1.71-2.38,1.71-1.5C596.17,96.31,598.01,107.01,598.47,108.59z M659.77,161.63
		c-8.47-1.06-6.2-4.72-6.92-6.52c-2.85-7.13-5.2-3.62-9.03-5.02c-0.24-1.46-0.74-4-1.61-5.12c-5.22-5.87-6.93-24.25-21.27-35.42
		c-3.25-2.53-12.19-9.04-12.84-13.14c-1.99-3.77-6.01-16.95-4.41-20.87c16.41-40.28,11.01-37.37,10.43-35.92
		c-5.73,18.03-7.69,14.98-16.15,43.34c-0.71,2.39-2.71,8.19-4.11,10.53c-1.76-1.96,0.08-3.55-2.71-8.43
		c-4.43-7.75-7.62-9.28-14.75-15.75c-7.18-6.51-10.39-12.84-26.59-12.84c-0.51,0-1.61,0.98,0.1,1.4
		c17.76,3.23,13.33,2.58,27.19,14.95c5.78,5.16,9.15,7.37,12.74,14.15c0.05,0.1,4.06,20.11,6.72,22.67
		c2.34,2.26,2.34,3.46,1.4,28.69c-10.78,4.9-9.42,3.76-12.34,7.52c0-31.51,1-23.98,9.43-36.62c-0.92-2.77-4.16,5.16-6.42,6.52
		c-0.46-2.75,0.65-3.22,1.17-8.32c-1.06,1.45-2.36,6.8-2.38,6.91c-0.96,5.67-6.37,3.94-8.53,14.05c-1.63,7.6-3.15,17.19-10.03,18.96
		c-2.01,2.51-2.41,6.02-4.21,8.83c-3.88-2.59,2.87,5.26-22.78,25.58c-1.01,0.8-2.41,1.3-2.71,2.81
		c8.81-4.41,18.55-16.34,21.17-18.96c-0.5,4.51-2.21,8.43-1.5,12.64c2.95-17.71,1.87-10.05,8.83-25.38c1.41-3.1,1.54-4.92,2.81-4.92
		c3.43-0.2,5.69-5.96,6.82-9.23c3.35-9.66,1.85-14.97,8.53-19.26c-0.1,3.64-3.4,20.98-1,28.39c-0.83,2-0.83,2.05-13.34,16.15
		c-3.78,4.26-15.88,28.26-14.55,31.3c-0.6,3.01-1.66,5.96-3.51,8.33c-2.69,3.43-17.7,1.54-21.47,0.5c-4.41-1.22-10.11-0.34-14.15,1
		c-8.11,3.45-29.28,1.77-33.71,0c0.71-1.79,10.77-1.52,13.64-4.31c3.36-3.26,5.22-9.43,4.21-14.15c-0.3-1.4-0.3-1.4,0.6-4.41
		c0.2,1.61,0.4,2.81,0.7,4.62c3.04-5.46-0.93-11,2.81-6.52c2.67,3.74,5.23,4.74,8.23,5.02c-4.81-5.5-8.31-2.37-10.03-18.26
		c-0.59-5.42-1.03-7.61,3.31-14.85c-2.86,0.18-4.85,7.73-5.32,9.03c-1.5-0.2-0.1-1.1-0.5-1.71c-5.11,0.51-11.13-12.48-11.68-12.75
		c1.59-0.72,0.43,0.63-1.57-6.41c-3.16-11.18,3.6-7.91-11.74-16.35c-4.8-2.64-3.47-3.51-5.82-3.51c-2.36,0-4.4,1.02-8.13-1.4
		c-3.36-2.18-3.01-1.81-4.21-1.81c0.1,2.01,2.21,1.91,2.71,3.41c-11.73-1.24-12.2,9.15-9.43-5.82c2.51-2.21,5.62-3.31,9.13-3.61
		c0.4-5.93,0.02-6.44,3.01-6.72c1.82,0,0.2,1.48,7.83-11.34c1.43-2.87,0.17,3.28,6.82,10.64c2.32,2.56,5.54,5.06,8.63,3.51
		c-1.71-2.4-8.43-3.21-13.24-17.66c3.89-6.48,4.27-7.2,5.52-4.62c5.76,11.89,5.1,12.05,6.12,12.84c2.66-0.66-3.44-14.04-6.52-15.75
		c1.91-3.21,4.11-6.02,6.32-8.83c4.87,0,13.02,14,15.45,18.26c0.2-0.7,0.5-1,0.4-1.3c-3.12-14.03-15.68-17.83-14.05-19.46
		c4.92-6.52,9.93-13.04,15.05-19.66c12.59,2.19,17.61,8.16,28.79,22.07c-0.97,1.74-5.7,9.23-7.42,12.24
		c-4.78,8.33-2.02,9.33-6.72,9.33c-1.05-6.28,0.93-11.47-2.81-26.49c-0.18-0.72-0.27-1.04-0.3-1.03c-0.18-0.85,0.14-1.87-0.66-2.74
		c0.13,0.93,0.02,1.91,0.65,2.74c-0.16,0.42,2.84,17.83,1.31,30.82c-3.25,3.11-5.11,4.78-5.62,7.83c2.14-0.85,3.4-4.11,6.62-5.72
		c0.4-0.16,0.64-0.54,2.11-3.11c1.5,1.1,2.81,2.01,4.11,2.91c0.7-0.5,0.71-0.91,0.4-1.4c-1.84-3-1.7-1.51,0.5-5.92
		c3.84-6.41,32.86-51.66,37.52-56.69c31.91-34.37,20.24-27.66,42.24-34.31c4.31,1.52,3.49,1.04,9.03,3.41
		c7.88,17.72,11.3,9.37,14.75,25.08c3.02,13.76,9.38,8.04,22.78,56.39c5.31,19.15,5.51,32.7,17.76,61.8
		c-2.51,3.81-5.92,6.62-9.23,9.43c1.1,2.74,7.17-3,9.44-5.04C667.76,161.13,664.19,162.19,659.77,161.63z M667.89,152.7
		c-0.13,0-0.14,0.04,0.1-0.2C668,152.6,668,152.7,667.89,152.7z"/>
	<path d="M254.53,205.58c0.02,0.04,0.04,0.07,0.06,0.11C254.7,205.69,254.63,205.68,254.53,205.58z"/>
	<path d="M270.89,166.85l0.1,0.1C270.95,166.78,270.94,166.8,270.89,166.85z"/>
	<path d="M348.04,534.06c1.94,8.74,4.64,6.67,7.83,25.78C363.27,559.85,348.04,527.31,348.04,534.06z"/>
	<path d="M339.92,441.96c1.4-8.72-1.82-8.83-4.01-9.63c-0.9-1.5-1.3-3.11-2.91-4.01c-0.1,0.5-0.4,0.9-0.2,0.9
		c2.32,5.81,3.23,0.5,4.31,12.44C337.63,444.8,339.39,445.21,339.92,441.96z"/>
	<path d="M345.53,431.22c2.18-1.39,1.19-11.58,0.3-15.15C344.48,410.66,343.68,425.82,345.53,431.22z"/>
	<path d="M346.44,507.37c2.2,0,1.21-11.74-3.81-11.74c0,0.5-0.1,0.8-0.1,0.8C345.77,502.49,344.37,507.37,346.44,507.37z"/>
	<path d="M634.59,553.83c0-17.66,3.61-19.66,4.31-23.88c-3.39,2.26-5.22,13.44-5.12,20.17c0.12,7.95-1.4,8.89-1.4,10.64
		C633.76,560.06,634.59,555.69,634.59,553.83z"/>
	<path d="M635.29,183.31c1.34-25.39,5.02-22.5,5.02-26.69C633.67,163.25,633.94,188.69,635.29,183.31z"/>
	<path d="M301.19,554.43c1.51,2.31,2.71,5.02,5.42,6.72C308.33,559.42,302.28,550.79,301.19,554.43z"/>
	<path d="M349.95,449.98c1.61-2.31,1.61-4.92,1.2-7.63c-0.43-1.3-1.83-0.03-1.91,0.2C348.65,445.98,347.3,451.75,349.95,449.98z"/>
	<path d="M327.47,589.24c-1.21-0.48,0.74-1-10.03,3.71C319.37,595.52,325.73,591.91,327.47,589.24z"/>
	<path d="M358.08,592.35c8.29-2.07,10.66-7.27-1.61-0.5C357.47,592.25,357.77,592.55,358.08,592.35z"/>
	<path d="M371.02,566.97c0.3,1.2,1.2,2.01,2.71,2.61C373.43,564.52,370.7,566.03,371.02,566.97z"/>
	<path d="M632.68,193.34c0.4-2.31,0.8-4.51,1.2-6.62c-1.5,1.71-1.91,3.81-2.11,6.02C631.78,192.84,632.28,193.04,632.68,193.34z"/>
	<path d="M338.11,469.55c-0.5,1.3-0.5,2.51,0.1,3.81C339.61,471.65,339.61,470.75,338.11,469.55z"/>
	<path d="M631.27,565.97c1.4-1.81,1.1-3.51,1.1-5.22C631.27,562.25,630.67,563.76,631.27,565.97z"/>
	<path d="M345.33,529.55c0.1-2.41,0-2.51-2.31-3.31C344.85,530.18,344.21,529.17,345.33,529.55z"/>
	<path d="M330.99,426.81c0.8-0.6,1.3-1.4,0.8-2.41C329.88,425.2,329.68,425.8,330.99,426.81z"/>
	<path d="M336,585.63c-0.9-0.6-1.61-0.5-2.41,0.3C335,586.33,335,586.33,336,585.63z"/>
	<path d="M339.51,375.64c0.1,1.5,0.1,2.11,0.1,2.81C340.72,377.75,340.62,377.04,339.51,375.64z"/>
	<path d="M369.51,560.85c1.56,1.56,1.21,1.61,1.91,1.61C371.02,560.85,371.02,560.85,369.51,560.85z"/>
	<path d="M344.33,412.16c0-1,0-2.11,0-3.81C343.63,410.05,343.73,411.06,344.33,412.16z"/>
	<path d="M340.32,492.02c0.51-2.04-1.3-2.22-1.3-1.2C339.68,492.15,339.7,492.14,340.32,492.02z"/>
	<path d="M338.41,478.28c0-0.4-0.1-0.8-0.1-1.4C336.24,477.65,338.41,479.53,338.41,478.28z"/>
	<path d="M329.08,416.77c-1.11,0-1.05,1.61-0.1,1.61C329.48,417.98,329.48,417.08,329.08,416.77z"/>
	<path d="M344.13,356.68c-0.4,1.3-0.4,1.3,0.4,2.11C345.03,357.98,344.93,357.28,344.13,356.68z"/>
	<path d="M330.28,587.94c-0.1-0.2-0.1-0.4-0.2-0.6c-1.45,0-1.33-0.32-1.71,0.8C329.2,588.96,329.47,588.34,330.28,587.94z"/>
	<path d="M633.98,186.82c-0.04-0.2,0.03-0.18-0.1-0.1L633.98,186.82z"/>
	<path d="M633.96,186.66c0.9-0.59,0.72-1.37,0.62-2.25C633.83,184.97,633.87,185.8,633.96,186.66z"/>
	<path d="M639.3,528.84c-0.1,0.3-0.1,0.7-0.2,1c0.2-0.2,0.5-0.3,0.7-0.5C639.8,528.56,639.3,528.72,639.3,528.84z"/>
	<path d="M342.62,348.45c-0.6,0.5-0.4,1,0,1.5C343.23,349.45,343.03,348.95,342.62,348.45z"/>
	<path d="M308.41,564.56c0.1,0.4,0.2,1,0.3,1.91C309.31,565.46,309.21,564.86,308.41,564.56z"/>
	<path d="M342.83,400.52c0.21-0.21,0.32-0.12-0.1-1.81C342.22,400.75,342.43,400.12,342.83,400.52z"/>
	<path d="M341.62,390.99c0,0.99,0.5,0.3,0.5,0.1C342.12,389.2,341.62,390.72,341.62,390.99z"/>
	<path d="M340.62,384.47c-0.4,0-0.3-0.22-0.3,1.2C340.72,385.67,340.62,385.89,340.62,384.47z"/>
	<path d="M339.61,523.43c-0.73,0-0.74,0.67,0.2,0.2C339.82,523.53,339.71,523.32,339.61,523.43z"/>
	<path d="M337.71,482.49c-0.26,0-0.3,0.2-0.2,0.3C338.01,482.79,337.71,482.87,337.71,482.49z"/>
	<path d="M337.71,488.11c0-0.64-0.4-0.71-0.4-0.4C337.31,488.34,337.71,488.42,337.71,488.11z"/>
	<path d="M307.81,564.26c0.2,0.1,0.4,0.1,0.6,0.2C308.31,564.26,308.41,563.66,307.81,564.26z"/>
	<path d="M505.56,482.09c5.42,4.51,11.84,5.72,17.66,3.21c-0.15-1.06-0.51-0.81-11.04-3.11c-5.19-1.73-2.39-2.15-7.12-2.41
		c-10.81-0.59-2.02-8.51-19.97,4.31c-6.06-2.42-24.63-8.03-21.77-2.31c2.6,0,6.91,1.26,11.64,2.21c11.36,2.27,9.74-0.46,7.02,4.31
		c-1.23,2.16-3.06,4.95-0.7,4.72c3.55-5.92,8.94-12.06,15.55-13.95C500.85,481.39,501.15,481.49,505.56,482.09z"/>
	<path d="M541.98,545c-5.82,0.97-20.9,4.81-24.18,9.73c3.59,1.03,12.15-3.2,25.08-5.92C550.51,547.21,548.29,543.95,541.98,545z"/>
	<path d="M522.22,510.68c-0.76-3.4-6.46-10.05-8.83-12.34c-12.33-11.96-34.33-6.72-19.77-6.72
		C512.42,491.62,516.86,508,522.22,510.68z"/>
	<path d="M511.48,536.67c-0.4,0.4-0.5,1.2-1,2.71C528.43,532.2,522.89,523.77,511.48,536.67z"/>
	<path d="M614.22,445.87c-0.66,5.53,0.83,14.59,5.42,15.35c-1.46-2.76-2.75-4.47-4.01-9.83
		C615.24,449.78,615.42,448.08,614.22,445.87z"/>
	<path d="M636.19,430.92c4.6,13.79,1.8,11.67,4.01,14.05C641.26,440.27,640.29,432.29,636.19,430.92z"/>
	<path d="M607.5,421.39c-3.91,6.92-5.92,11.84-6.32,15.15C604.49,431.52,606.79,426.81,607.5,421.39z"/>
	<path d="M506.06,562.05c-7.3,11.13-3.79,13.56-2.81,10.64C504.44,567.11,509.29,558.83,506.06,562.05z"/>
	<path d="M657.76,524.93c1.2-3.91,0.6-7.63-1.61-10.94C655.62,516.82,655.37,523.33,657.76,524.93z"/>
	<path d="M559.24,542.99c0.88-10.51-2.34,5.53-1.4,7.83C558.33,548.01,558.84,545.5,559.24,542.99z"/>
	<path d="M614.92,392.29c1.71,1.91,3.51,2.41,5.42,1.5c0.1-0.1,0-0.4,0-0.8C618.53,392.9,616.93,391.99,614.92,392.29z"/>
	<path d="M638.5,465.23c1.4-1.81,1.2-2.91,0.9-4.31C637.8,461.92,638.4,463.23,638.5,465.23z"/>
	<path d="M617.23,406.54c-1.1,1-2.11,1.91-1.4,3.81C617.03,409.15,617.33,407.95,617.23,406.54z"/>
	<path d="M572.28,449.68c-0.1,1.91-0.2,3.81-0.3,5.72C573.18,453.6,572.48,451.59,572.28,449.68z"/>
	<path d="M639.9,455.7c0.6,0,0.45-1.3,0.4-1.51C640.3,453.7,638.48,452.85,639.9,455.7z"/>
	<path d="M627.46,484.9c0.7,0.7,1.5,1.3,2.71,2.11C629.37,485.3,629.37,485.3,627.46,484.9z"/>
	<path d="M623.55,408.35c-0.9,0-1.71,0-3.11,0C622.24,409.95,622.24,409.95,623.55,408.35z"/>
	<path d="M524.52,473.56c-0.5,0-1.2-0.5-1.51,0.7C525.22,474.26,524.52,474.45,524.52,473.56z"/>
	<path d="M566.86,517.31c0.85-0.95,1.43-2.09,1.4-3.48C567.42,514.81,566.86,515.96,566.86,517.31z"/>
	<path d="M565.46,521.12l-0.1-0.1C565.31,521.32,565.33,521.21,565.46,521.12z"/>
	<path d="M565.34,521.23c-0.94,0.84-1.25,2.01-1.44,3.18C564.92,523.57,565.23,522.48,565.34,521.23z"/>
	<path d="M569.17,512.19c0.02-0.09,0.04-0.18,0.06-0.27C569.05,512.13,569.02,512.04,569.17,512.19z"/>
	<path d="M569.77,509.58c-0.18,0.81-0.36,1.55-0.54,2.34C569.84,511.27,570.23,510.59,569.77,509.58z"/>
	<path d="M622.24,481.89c0.8,0.6,1.4,1.1,2.01,1.61C623.55,481.79,623.55,481.79,622.24,481.89z"/>
	<path d="M570.53,464.1c-1.03,1.87-0.53,1.53-0.76,3.14C570.32,465.6,570.28,466.99,570.53,464.1z"/>
	<path d="M570.57,463.73c-0.07,0.48-0.07,0.47,0.1,0.1L570.57,463.73z"/>
	<path d="M570.67,460.62c0,1,0,2.11,0,3.11C571.18,462.73,571.28,461.72,570.67,460.62z"/>
	<path d="M571.88,455.4c-0.6,1-0.5,2.01,0,3.21C571.88,457.51,571.88,456.5,571.88,455.4z"/>
	<path d="M607.09,383.77c0,0.46,0.69,1.22,1.81,0.6C608.06,383.95,607.09,383.29,607.09,383.77z"/>
	<path d="M569.67,467.14c-0.3,0.8-0.6,1.5,0,2.71C569.67,468.75,569.67,467.94,569.67,467.14z"/>
	<path d="M513.19,439.35c-0.16-0.08-0.1-0.17-0.1,0.1C513.09,439.35,513.19,439.35,513.19,439.35z"/>
	<path d="M513.08,439.27c-0.02-0.52-0.09-0.99-0.09-1.52C512.6,438.31,512.5,438.87,513.08,439.27z"/>
	<path d="M598.07,440.95c0,0.5,0,0.9,0,1.5C598.77,441.96,598.87,441.56,598.07,440.95z"/>
	<path d="M595.36,447.88c-0.59,0.3-0.42,0.04,0,1.71C595.69,448.07,595.68,448.2,595.36,447.88z"/>
	<path d="M620.94,463.03c-0.51,0.51-0.51,0.29,0.1,0.9C621.04,463.5,621.34,463.23,620.94,463.03z"/>
	<path d="M653.35,496.94c0.26,0,0.2,0.19,0.2-1.2C653.28,495.73,653.35,495.5,653.35,496.94z"/>
	<path d="M565.54,521.05c0.64-0.55,0.55-1.32,0.52-2.03C565.51,519.56,565.47,520.32,565.54,521.05c-0.01-0.01-0.02,0.01-0.08,0.07
		l0.1,0.1C565.54,521.11,565.54,521.06,565.54,521.05z"/>
	<path d="M566.08,518.83c0-0.07,0.07-0.05-0.13-0.02l0.1,0.1C566.05,518.76,566.26,519.03,566.08,518.83z"/>
	<path d="M563.85,524.61c0.11-0.76-0.2,0.74-0.55,2.03C564.07,526.13,563.87,525.34,563.85,524.61z"/>
	<path d="M563.25,526.84c0.09-0.3,0.1-0.2-0.1-0.1C563.15,527.02,563.17,526.9,563.25,526.84z"/>
	<path d="M589.84,476.07c0,0.7,0,1.2,0,1.71C590.04,477.27,590.44,476.77,589.84,476.07z"/>
	<path d="M566.76,517.31c-0.56,0.28-0.51,0.9-0.66,1.47C566.93,518.62,566.76,517.88,566.76,517.31z"/>
	<path d="M569.05,512.33c-0.61,0.19-0.78,0.85-0.78,1.49C568.48,513.54,568.81,513.98,569.05,512.33z"/>
	<path d="M569.17,512.29l-0.1-0.1C569.02,512.4,569.05,512.31,569.17,512.29z"/>
	<path d="M568.77,472.56v-0.3C568.65,472.62,568.63,472.56,568.77,472.56z"/>
	<path d="M626.06,470.15c-0.33,0-0.6,0.5,0.5,0.5C626.69,470.38,626.78,470.51,626.06,470.15z"/>
	<path d="M593.55,453.7c0,0.57-0.02,0.2,0.4,0.2C593.95,453.58,593.72,453.52,593.55,453.7z"/>
	<path d="M512.18,435.64c0-0.1-0.1-0.2-0.1-0.3c-0.31,0.31,0,0.3,0,0.6C512.08,435.84,512.18,435.74,512.18,435.64z"/>
	<path d="M654.85,502.86c0.38-0.38,0.1-0.38,0.1-0.6C654.95,502.36,654.85,502.56,654.85,502.86z"/>
	<path d="M487.1,491.82c0.22,0.22-0.1,0.2,0.4,0.2C487.5,491.5,487.27,491.82,487.1,491.82z"/>
	<path d="M507.32,561.5c0.04,0,0.09,0.01,0.15-0.05C507.56,561.45,507.74,561.07,507.32,561.5z"/>
	<path d="M624.05,468.64c0.23,0,0.19,0.21,0.4,0C624.35,468.64,624.25,468.64,624.05,468.64z"/>
	<path d="M625.04,469.35c-0.17-0.14-0.34-0.29-0.5-0.44C624.55,469.19,624.71,469.35,625.04,469.35z"/>
	<path d="M624.55,468.64l-0.2,0.1C624.67,468.97,624.49,468.98,624.55,468.64z"/>
	<path d="M625.25,469.35c-0.19,0.02-0.31-0.06-0.1,0.1L625.25,469.35z"/>
	<path d="M625.67,470.15c-0.19-0.24-0.44-0.44-0.61-0.7C624.96,469.89,625.2,470.16,625.67,470.15z"/>
	<path d="M625.86,470.15c-0.07,0.01-0.12,0-0.19,0C625.79,470.27,625.73,470.28,625.86,470.15z"/>
	<path d="M465.73,570.78c2.98,3.67,11.22,1.84,15.75,0.6C479.53,569.71,479.24,572.2,465.73,570.78z"/>
	<path d="M403.63,540.98c-0.28,0.84,0.94,1.69,1.71,0.6c1.36-1.94,1.5-4.01-0.1-6.22C404.63,537.17,404.03,538.98,403.63,540.98z"/>
	<path d="M474.26,519.61c0.51,0-0.03,0.47,6.82-3.81c-1-0.3-1.4-0.6-1.61-0.5C477.21,515.87,472.7,518.58,474.26,519.61z"/>
	<path d="M415.46,547.4c1.4-2.91,1.4-2.91,0-5.42C414.58,546.42,414.23,547.4,415.46,547.4z"/>
	<path d="M389.18,540.88c1.1,1.1,2.51,0.9,4.31,0.8C391.98,540.04,389.18,538.65,389.18,540.88z"/>
	<path d="M400.01,543.49c1,0.3,1.61,1.81,2.91,0.6C402.12,543.19,401.22,542.79,400.01,543.49z"/>
	<path d="M404.63,527.84c-0.29,0.58-1.06-0.21,1.71,3.31C406.33,529.12,406.85,529.32,404.63,527.84z"/>
	<path d="M470.85,525.13c-2.11,0.2-2.11,0.2-2.51,1.71C469.24,526.33,470.34,526.23,470.85,525.13z"/>
	<path d="M406.43,531.55c0,0.8,0,1.5,0,3.01C407.54,532.66,407.54,532.66,406.43,531.55z"/>
	<path d="M425.8,546.1c1.3,0.1,1.91-0.4,1.71-1.91C426.8,544.9,426.3,545.5,425.8,546.1z"/>
	<path d="M408.64,546.6c-0.3-0.2-0.8-0.2-1.91-0.5C410.61,549.55,409.34,547.13,408.64,546.6z"/>
	<path d="M450.88,569.48c0,1.34,2.38,0.47,1.5-0.4C451.78,568.87,451.28,568.77,450.88,569.48z"/>
	<path d="M461.92,570.08c0.7,1.1,1.4,1,2.21,0.6C463.72,569.68,463.02,569.78,461.92,570.08z"/>
	<path d="M415.77,541.18c0.9-0.4,1.2-1,0.6-2.01C415.56,540.28,415.56,540.28,415.77,541.18z"/>
	<path d="M413.56,549.91c-0.1,0.1-0.2,0.1-0.3,0.1C413.7,550.45,414.05,549.91,413.56,549.91z"/>
	<path d="M465.63,528.54c-0.39,0-0.31,0.5-0.1,0.5C465.63,529.04,466,528.91,465.63,528.54z"/>
	<path d="M428.71,541.99l0.1,0.2C428.93,541.93,428.97,541.99,428.71,541.99z"/>
	<path d="M416.37,536.07c-0.26,0-0.23-0.05-0.1,0.2L416.37,536.07z"/>
	<path d="M295.77,346.04c0.29-1.21,0.6-2.61-0.5-4.21c-2.81,5.82-2.91,6.42-1.81,10.53C295.47,350.76,295.24,348.24,295.77,346.04z"
		/>
	<path d="M281.02,429.62c0.6-0.2,1.31-0.39,1.71-0.7c6.89-5.38,5.79-5.2,5.22-6.62C280.11,429.8,280.73,428.44,281.02,429.62z"/>
	<path d="M267.98,484.5c1.82-2.91,1.23-7.14,0.2-9.93C267.98,477.67,267.48,480.78,267.98,484.5z"/>
	<path d="M275,435.23c-0.9,0.7-1.81,1.4-2.61,2.21c0.3,0.4,0.4,0.8,0.7,0.9C274.16,438.77,276.82,437.28,275,435.23z"/>
	<path d="M270.59,455.6c-2.02-0.67-0.45,4.2,0.4,0.8C271.09,456.1,270.79,455.7,270.59,455.6z"/>
	<path d="M275.4,500.75c0.9,0.9,1.61,1.1,2.71,0.1C277.01,500.25,276.31,500.35,275.4,500.75z"/>
	<path d="M288.35,356.78c0,0.1,0.1,0.3,0.1,0.5c0.1-0.1,0.4-0.2,0.5-0.3C289.49,355.36,288.62,355.94,288.35,356.78z"/>
	<path d="M277.71,432.63c-0.1,0.1-0.1,1.01,0.7,0.2C278.41,431.92,277.8,432.45,277.71,432.63z"/>
	<path d="M269.58,463.23c0.4,0,0.3,0.22,0.3-1.2C269.48,462.02,269.58,461.8,269.58,463.23z"/>
	<path d="M269.28,469.85c0-0.9,0-1.4,0-1.91C268.48,468.34,268.58,468.95,269.28,469.85z"/>
	<path d="M273.2,498.64c0.22,0.22,0.08,0.32,0.4,0C273.3,498.35,273.2,498.51,273.2,498.64z"/>
	<path d="M269.38,468.04c0.03-0.03,0.05-0.06,0.07-0.09C269.41,467.97,269.38,467.99,269.38,468.04z"/>
	<path d="M269.45,467.95c0.04-0.01,0.08-0.01,0.13-0.01C269.58,467.6,269.55,467.79,269.45,467.95z"/>
	<path d="M227.75,527.34c-1.61-1.81-2.21-4.21-4.62-5.52c-1.07,3.48-2.2,3.18,1.91,5.92c-0.7,0.8-1.2,1.61-2.01,2.61
		c2.01,2.11,2.29,5.35,5.02,7.02c1.02,0.63,1.49,3.94,4.11,5.82c0.63-6.96-5.36-5.58-3.91-14.25c1.3,0.97,1.49,0.22,3.31,5.32
		c0.61,1.42,1.89,2.51,2.61,1.61c0.82-1.23-0.57-2.38-0.7-4.11C233.22,528.42,230.04,527.91,227.75,527.34z"/>
	<path d="M216.01,523.32c-1,7.22-1.1,8.23,0.3,10.03c-0.1-2.71,0.32-4.4,1.2-6.12C217.99,526.31,218.1,523.09,216.01,523.32z"/>
	<path d="M270.59,545c-2.57,0.92-6.91,5.23-5.22,6.92C266.4,552.95,269.81,547.02,270.59,545z"/>
	<path d="M253.43,564.26c4.78,0.74,7.68-1.65,9.83-5.82C254.57,564.96,255.7,562.41,253.43,564.26z"/>
	<path d="M261.36,573.89c1.51,0.2,2.61,0.1,3.41-1C263.46,572.49,262.56,572.89,261.36,573.89z"/>
	<path d="M274.3,540.88c-0.74,0-0.74-0.59-1.71,0.7C274.45,541.59,273.5,542.08,274.3,540.88z"/>
	<path d="M266.57,569.78c0.7,0.35,0.59,0.33,0.9-0.3C266.68,569.08,266.94,569.06,266.57,569.78z"/>
	<path d="M281.72,534.66c-0.53-0.53-0.44-0.16-1,0.4C280.72,535.73,281.19,535.02,281.72,534.66z"/>
	<path d="M276.81,537.27c0.3-0.1,0.7-0.1,1.4-0.2C277.18,536.66,277.78,536.3,276.81,537.27z"/>
	<path d="M276.56,537.33c-0.02,0.02-0.03,0.02-0.05,0.04C276.42,537.37,276.28,537.72,276.56,537.33z"/>
	<path d="M276.71,537.17c-0.05,0.05-0.1,0.1-0.15,0.16C276.64,537.28,276.71,537.25,276.71,537.17z"/>
	<path d="M350.75,331.49c0.23,0.29,1.73,1.18,1.91,1c-1.12-3.35-9.53-9.97-10.13-30c-0.11-3.78,0.92-16.67,6.92-26.39
		c10.49-16.97,25.14-6.92,29.3,3.81c0.18,0.45,0.45,0.99,1.1,1c0.1,3.81,1.1,7.52,2.81,9.73c0.18-2.11-2.47-8.9-2.68-9.66l0.08-0.08
		c-0.07,0-0.08,0-0.09,0.02c0,0-0.01-0.02,0-0.02c0.54-2.57-4.51-9.62-9.65-13.64C351.77,252.78,327.07,301.98,350.75,331.49z"/>
	<path d="M373.93,292.06l-0.1,0.1C373.9,292.2,373.85,292.22,373.93,292.06z"/>
	<path d="M373.88,292.19c-0.68,1.97,0.27,0.2-2.86-3.05c0,0,0,0,0,0c-0.01-0.03-0.03-0.06-0.04-0.09c-0.04,0-0.11-0.01,0.03,0.09
		c-1.64-0.01-3.34-2.09-6.41,0.7c-7,6.38-0.3,16.57-0.3,16.67c-0.62-0.56-0.78-0.71-1.71-0.02c1.26,2.7,5.99,4.58,9.23,2.31
		c5.13-3.6,4.18-8.83,3.51-14.75C375.24,293.29,374.75,292.51,373.88,292.19z M364.51,306.74c0.3,0.05,0.49,0.22,0.49,0.56
		C364.84,307.1,364.67,306.93,364.51,306.74z M365.18,307.53c0.53,0.07,1.01,0.08,1.83,0.08
		C366.06,308.37,365.57,308.15,365.18,307.53z M365.9,305.01c-5.68-4.8-0.98-18.07,3.91-13.75
		C375.48,296.27,371.13,309.42,365.9,305.01z M373.33,304.71c-0.7,1.71-1.5,3.21-4.01,3.31c0.8-0.7,1.4-1.3,2.11-1.81
		S372.22,304.71,373.33,304.71c0-0.6,0-1.1,0-1.91C374.13,303.7,373.73,304.2,373.33,304.71z M374.23,301.09
		c0-0.36-0.03-0.3,0.1-0.3L374.23,301.09z"/>
	<path d="M356.57,335.61c6.08,3.34,14.43-0.9,12.14-0.9c-10.46,4.18-12.67-2.69-16.05-2.21
		C352.48,332.68,352.69,333.47,356.57,335.61z"/>
	<path d="M383.06,310.83c0.8-3.31,0.8-3.31-0.2-5.22C382.66,307.41,382.36,309.02,383.06,310.83z"/>
	<path d="M384.06,297.78c-0.6,1.71-0.6,2.81,0,3.91C384.06,300.59,384.06,299.49,384.06,297.78z"/>
	<path d="M383.26,292.77c-0.8,1.3-0.6,2.21,0.2,3.01C383.36,294.87,383.36,293.97,383.26,292.77z"/>
	<path d="M371.72,289.86c0-0.09,0.02-0.1-0.1-0.1L371.72,289.86z"/>
	<path d="M373.12,290.56l0.1-0.1C373.05,290.46,373.09,290.43,373.12,290.56z"/>
	<path d="M372.42,290.46l0.1,0.1C372.52,290.44,372.5,290.46,372.42,290.46z"/>
	<path d="M371.59,289.05c0.03,0.09,0,0.12,0.13,0.12C371.72,288.76,371.76,289.05,371.59,289.05z"/>
	<path d="M372.5,290.46c0.16,0,0.37,0,0.59,0c-0.12-0.79-0.58-1.16-1.37-1.28C371.72,290.32,372.41,289.49,372.5,290.46z"/>
	<path d="M370.52,287.95c0.65,1.33,0.23,1.1,1.07,1.1C371.44,288.47,371.56,287.76,370.52,287.95z"/>
	<path d="M371.92,333.4c0-0.21,0.03-0.31,0.05-0.37c-0.01,0.02-0.02,0.04-0.05,0.07C371.92,333.1,371.82,333.2,371.92,333.4z"/>
	<path d="M371.97,333.03C372,332.98,371.99,332.97,371.97,333.03L371.97,333.03z"/>
	<path d="M371.62,333.4c-0.4,0.3-0.1,0.1,0.2-0.1C371.52,333.4,371.12,333.5,371.62,333.4z"/>
	<path d="M369.01,287.15c-0.96,0-0.5-0.06-0.5,0.4c0.2-0.1,0.4-0.1,0.7-0.2C369.11,287.35,369.11,287.15,369.01,287.15z"/>
	<path d="M373.83,292.06l0.1-0.1C373.81,291.96,373.83,291.94,373.83,292.06z"/>
	<path d="M373.83,291.96c0.03-0.59,0.24-1.31-0.7-1.4C373.43,292.18,372.82,291.96,373.83,291.96z"/>
	<path d="M568.17,389.28c0.6-2.61,0.7-5.12-0.3-8.33C566.54,383.25,566.2,389.07,568.17,389.28z"/>
	<path d="M602.98,509.98c0-2.01-0.7-2.81-2.21-3.71C600.77,507.97,601.28,509.08,602.98,509.98z"/>
	<path d="M600.67,504.16c0.1,0,0.2,0.1,0.3,0.1C600.87,504.16,600.87,504.06,600.67,504.16z"/>
	<path d="M497.84,106.55c4.11,2.51,4.41,2.61,8.93,3.01c3.44,4.18,13.9,6.36,18.16,2.91c-12.73-3.18-13.39-2.51-14.25-3.51
		c-1.97-1.97-7.65-0.84-10.33-3.21c-1.71-1.5-3.41-1.3-5.12-0.3c-15.58,9.13-1.59,6.62-24.08,2.01c-1.91-0.39-3.91-0.3-5.82-0.3
		c-0.9,0-1.61,0.6-1.5,1.81c0.74,0.45,14.52,3.17,15.25,3.31c8.07,1.61,5.89-1.75,2.11,7.32c-0.2,0.6,0,1.2,1.1,1
		C485.9,114.28,490.91,109.26,497.84,106.55z"/>
	<path d="M520.21,182.9c0.1-0.02,24.76-6.1,28.79-8.93c-1.2-0.6-1.81-1.1-2.61-1C531.75,172.11,512.61,184.17,520.21,182.9z"/>
	<path d="M519,134.85c1.93,2.69,2.74,4.2,4.01,2.71c-5.22-7.22-10.75-17.13-24.58-18.96c-3.21-0.43-6.62-0.7-10.13,0.9
		C504.1,119.5,509.43,121.46,519,134.85z"/>
	<path d="M538.87,184.51c-3.64,1.82-3.57,5.81-29.1,7.02C500.6,193.83,537.04,193.65,538.87,184.51z"/>
	<path d="M512.08,164.74c-0.49,0.51-0.7,1.3,0.2,2.11C528.86,159.05,524.29,151.94,512.08,164.74z"/>
	<path d="M637.09,59.2c2.87,8.04,2.42,12.03,3.91,13.24C642.53,65.76,638.62,56.9,637.09,59.2z"/>
	<path d="M619.34,87.19c-3.87-6.23-2.37-10.07-4.41-13.14c-1.39,3.98,1.76,15.54,5.02,14.65C619.74,88.29,619.64,87.59,619.34,87.19
		z"/>
	<path d="M502.25,201.26c1.6,2.39,1.26-1.73,6.12-12.34C505,190.61,501.62,200.01,502.25,201.26z"/>
	<path d="M601.68,63.91c2.21-2.51,3.31-4.82,4.31-7.22C613.03,39.79,603.99,55.25,601.68,63.91z"/>
	<path d="M656.96,141.17c-0.48,3.18-0.82,9.32,1.5,11.64C659.67,149.09,659.27,145.68,656.96,141.17z"/>
	<path d="M615.82,19.97c0,0.2-0.1,0.5,0,0.6C620.73,23.37,624.71,20.78,615.82,19.97z"/>
	<path d="M640.2,92.21c0-1.1,0-2.11,0-3.21C638.8,90.1,638.7,91.1,640.2,92.21z"/>
	<path d="M618.23,34.32c0-0.1-0.3-0.2-0.4-0.3C614.7,38.19,617.52,39.31,618.23,34.32z"/>
	<path d="M572.98,77.36c0,1.61,0,3.11,0,4.72C573.28,80.37,573.48,78.86,572.98,77.36z"/>
	<path d="M627.96,112.37c0.9,0.9,1.61,1.71,2.91,2.11C629.67,112.67,629.67,112.67,627.96,112.37z"/>
	<path d="M621.54,37.12c1,0,1.71-0.1,2.61-0.1C623.15,35.42,622.75,35.42,621.54,37.12z"/>
	<path d="M625.12,97.02c0.57,0.86,1.1,1.62,2.94,1.91C626.82,97.78,626.22,97.01,625.12,97.02z"/>
	<path d="M566.96,146.99c0.75-1.03,1.22-2.17,1.36-3.46C567.4,144.5,566.86,145.65,566.96,146.99z"/>
	<path d="M568.47,143.37l-0.1-0.1C568.33,143.6,568.26,143.58,568.47,143.37z"/>
	<path d="M625.25,110.87c-0.5-0.5-1.1-1-1.61-1.5C623.95,110.37,623.95,110.37,625.25,110.87z"/>
	<path d="M640.3,83.08c0.6,0.3,0.86,0.06,0.7-0.1C641.01,80.31,639.11,81.89,640.3,83.08z"/>
	<path d="M572.28,84.28c-0.1,1-0.2,1.91-0.3,2.91C572.98,86.39,572.68,85.38,572.28,84.28z"/>
	<path d="M571.88,87.19c-0.5,1-0.5,2.01,0,3.11C571.88,89.3,571.88,88.19,571.88,87.19z"/>
	<path d="M513.23,64.67c-0.01-0.08-0.02-0.17-0.04-0.25C513.08,64.52,513.04,64.48,513.23,64.67z"/>
	<path d="M609,11.64c-2.93,0-0.25,0.95,0.2,0.5C609.2,11.94,609.1,11.64,609,11.64z"/>
	<path d="M570.27,96.12c-0.26,0-0.2-0.22-0.2,1.4C570.34,97.52,570.27,97.75,570.27,96.12z"/>
	<path d="M526.23,101.44c-1.2,0-1.91,0-2.71,0C524.42,102.34,525.02,102.14,526.23,101.44z"/>
	<path d="M571.08,93.91c0-1.89,0.1-1.61-0.3-1.61C570.78,92.41,570.79,93.91,571.08,93.91z"/>
	<path d="M565.36,150.75c-0.88,0.39-0.66,1.15-0.69,1.88C565.31,152.15,565.36,151.46,565.36,150.75z"/>
	<path d="M564.67,152.62c-0.04,0.02-0.07,0.05-0.11,0.08C564.67,152.82,564.67,152.88,564.67,152.62z"/>
	<path d="M595.96,75.35c-0.42,0.83-0.42,0.37,0,1.2C596.69,75.82,596.34,75.73,595.96,75.35z"/>
	<path d="M566.06,148.57c-0.64,0.47-0.61,1.24-0.61,1.96C566.17,150.06,566.08,149.28,566.06,148.57z"/>
	<path d="M565.46,150.53c-0.13,0.08-0.1,0.06-0.1,0.22C565.48,150.69,565.46,150.72,565.46,150.53z"/>
	<path d="M512.88,63.21c-0.58,0-0.39,0.11,0.2,1.3C512.99,64.11,512.99,63.61,512.88,63.21z"/>
	<path d="M598.87,70.33c0.52-1.55,0.72-0.67,0.2-1.71C598.49,68.92,598.66,69.07,598.87,70.33z"/>
	<path d="M590.44,104.95c-0.75,0.56-0.71,1.39-0.62,2.16C590.7,106.59,590.34,105.72,590.44,104.95z"/>
	<path d="M569.77,139.75c-0.64,0.54-0.69,1.24-0.62,1.95C569.8,141.15,569.78,140.45,569.77,139.75z"/>
	<path d="M569.87,139.66l-0.1-0.1C569.77,139.83,569.74,139.76,569.87,139.66z"/>
	<path d="M569.47,100.43c-0.13,0-0.12-0.06,0,0.3V100.43z"/>
	<path d="M655.55,130.33c0.1-0.1,0.1-0.1,0.2-0.1C655.76,129.8,655.55,130.23,655.55,130.33z"/>
	<path d="M569.79,139.44c-0.04,0.01-0.07,0.02-0.12,0.03C569.81,139.6,569.76,139.59,569.79,139.44z"/>
	<path d="M570.57,138.16l-0.1-0.1C570.44,138.25,570.45,138.21,570.57,138.16z"/>
	<path d="M570.45,138.21c-0.53,0.22-0.59,0.71-0.66,1.23C570.48,139.29,570.4,138.74,570.45,138.21z"/>
	<path d="M569.09,141.79C569.07,141.78,569.07,141.78,569.09,141.79L569.09,141.79z"/>
	<path d="M569.17,141.77c0,0.07-0.05,0.05-0.08,0.02c0.01,0.01,0.02,0.02,0.06,0.06C569.1,141.95,569.33,141.93,569.17,141.77z"/>
	<path d="M568.47,143.37c0.46-0.37,0.5-0.91,0.66-1.46C568.3,142.15,568.47,142.8,568.47,143.37z"/>
	<path d="M570.67,138.26c-0.01-0.05-0.01-0.1-0.02-0.14C570.54,138.15,570.57,138.16,570.67,138.26z"/>
	<path d="M571.28,136.65c-0.65,0.28-0.69,0.82-0.62,1.46C571.27,137.8,571.28,137.22,571.28,136.65z"/>
	<path d="M566.18,148.35c-0.15,0.04-0.12,0.03-0.12,0.22C566.2,148.48,566.15,148.48,566.18,148.35z"/>
	<path d="M566.96,146.99l-0.1-0.1C566.82,147.11,566.84,147.04,566.96,146.99z"/>
	<path d="M566.84,147.05c-0.61,0.29-0.6,0.79-0.66,1.3C566.86,148.13,566.79,147.58,566.84,147.05z"/>
	<path d="M590.94,104.65c0.12-0.12-0.4-1.1-0.4,0.4C590.54,104.85,590.74,104.75,590.94,104.65z"/>
	<path d="M654.15,124.51c0-0.66,0.35-0.2,0-0.9C653.87,124.18,653.89,124.26,654.15,124.51z"/>
	<path d="M564.76,152.91l-0.1-0.1C564.66,153.01,564.59,152.95,564.76,152.91z"/>
	<path d="M564.65,152.95c-0.41,0.13-0.56,0.43-0.19,1.16C564.54,153.6,564.63,153.23,564.65,152.95z"/>
	<path d="M571.38,136.55c0,0-0.1,0-0.1,0.2C571.28,136.65,571.38,136.55,571.38,136.55z"/>
	<path d="M620.14,88.89c-0.1-0.1-0.1-0.1-0.3-0.1C619.94,88.79,620.04,88.79,620.14,88.89z"/>
	<path d="M625.12,97.02c-0.04-0.06-0.04-0.06-0.17-0.23C624.95,97.07,624.91,97.02,625.12,97.02z"/>
	<path d="M624.95,96.72c0-0.1-0.1-0.1-0.2-0.2C624.96,96.73,624.95,96.89,624.95,96.72z"/>
	<path d="M621.64,91.5c0.39-0.2,0.11-0.29,0-0.5C621.64,91.2,621.64,91.4,621.64,91.5z"/>
	<path d="M594.35,81.77c0.39,0,0.33,0.05,0.2-0.2L594.35,81.77z"/>
	<path d="M623.45,109.26c0,0.1,0.1,0.1,0.3,0C623.65,109.26,623.55,109.26,623.45,109.26z"/>
	<path d="M315.43,167.55c2.26,0.45,4.04-1.66,12.84-0.3C348.41,170.35,321.35,159.67,315.43,167.55z"/>
	<path d="M397.2,224.14c-0.3,1.91-0.7,3.81-1,5.92c2.74,2.74,5.14-8.3,2.31-11.84C397.1,220.23,397.51,222.23,397.2,224.14z"/>
	<path d="M403.73,197.75c-1.04,6.51-2.55,11.64-2.31,15.15c2.46-1.96,1.83-7.71,2.01-8.83
		C403.65,202.69,405.48,198.63,403.73,197.75z"/>
	<path d="M418.98,196.45c0.18,15.31-0.26,12.58,0.9,13.75C421.62,202.9,418.95,194.63,418.98,196.45z"/>
	<path d="M345.43,169.36c-0.51,1.52,2.94,8.53,4.01,10.13C350.85,175.04,347.08,169.11,345.43,169.36z"/>
	<path d="M364.1,228.45c-3.01-0.2-5.92-0.3-9.63-0.5C358.48,230.66,362.19,230.66,364.1,228.45z"/>
	<path d="M337.51,223.24c-0.31,0-0.34,0.08-1.1,1.1c0.11,0.06,2.16,1.87,4.51-0.2C345,220.55,341.89,221.95,337.51,223.24z"/>
	<path d="M305.7,214.61c-0.55,2.22,1.51,7.09,3.41,5.82C308.41,218.42,307.71,216.31,305.7,214.61z"/>
	<path d="M418.57,193.44c0.3-2.91-0.3-5.62-1.61-8.33C417.07,188.02,417.57,190.73,418.57,193.44z"/>
	<path d="M429.71,226.75c-1.91,0.8-2.21,2.11-2.51,3.51C428.61,229.66,429.41,228.65,429.71,226.75z"/>
	<path d="M395.9,90.7c-0.2-2.91-0.5-3.51-2.01-5.02C393.79,87.69,394.39,89.2,395.9,90.7z"/>
	<path d="M303.19,204.07c0.8-0.5,1.3-1.2,1.3-2.61C302.39,202.77,302.39,202.77,303.19,204.07z"/>
	<path d="M308.11,174.88c-1.4,0.6-1.4,1.5-0.9,2.71C308.21,176.88,308.61,176.08,308.11,174.88z"/>
	<path d="M396.1,205.28c-0.1,0-0.3,0.1-0.6,0.2c0,1.31-0.32,1.23,0.8,1.61C396.75,205.75,396.34,206.01,396.1,205.28z"/>
	<path d="M414.66,128.73c-0.55,0.82-0.98,0.18-0.1,2.61C415.07,129.29,415.49,129.55,414.66,128.73z"/>
	<path d="M414.76,167.05c0.6-1.2,0.7-2.21,0-3.71C414.76,164.84,414.76,165.85,414.76,167.05z"/>
	<path d="M348.34,183.91c0.36,1.07,0.68,2.13,1.1,1.71C349.45,184.59,349.58,183.29,348.34,183.91z"/>
	<path d="M311.12,172.87c-0.87,0-1.42,2.42,0.8,0.2C311.52,172.97,311.32,172.77,311.12,172.87z"/>
	<path d="M416.72,179.77c0.21,2.23,0.03,1.52,0.55,1.52C417.11,180.75,416.9,180.26,416.72,179.77z"/>
	<path d="M398.01,212.8c-0.6,0.8-0.5,1.4,0.1,2.41C398.11,214.11,398.01,213.51,398.01,212.8z"/>
	<path d="M398.11,93.91c-0.3-0.4-0.6-0.9-1-1.4C396.5,93.51,397.2,93.91,398.11,93.91z"/>
	<path d="M367.71,226.85c-0.1,0-0.68,0.7,0.5,0.7c0.1,0,0.2-0.3,0.4-0.6C368.31,226.95,368.01,226.75,367.71,226.85z"/>
	<path d="M387.37,210.9c0.93,0.93,0.52,1.39,1.4,0.5C387.62,210.53,388.03,210.4,387.37,210.9z"/>
	<path d="M344.93,218.32c-0.04-0.04-0.04-0.03-0.03,0.01C344.91,218.33,344.92,218.32,344.93,218.32z"/>
	<path d="M344.33,218.52c0.24,0.48,0.26,0.44,0.7,0C344.87,218.36,345.01,218.2,344.33,218.52z"/>
	<path d="M373.33,225.65c0.68,0.34,0.5,0.7,1.4-0.5C373.33,225.14,373.64,225.01,373.33,225.65z"/>
	<path d="M415.06,158.52c0-2.17-0.89-0.19-0.3,0.4C414.86,158.83,415.06,158.62,415.06,158.52z"/>
	<path d="M414.76,153.81c0.3-0.6,0.45-0.02,0.1-1.4C414.51,153.12,414.46,153.2,414.76,153.81z"/>
	<path d="M414.16,121.8c-0.1,0.7-0.3,1-0.3,1.2C413.86,123.11,414.83,124.15,414.16,121.8z"/>
	<path d="M415.46,174.28h0.1C415.56,173.9,415.6,173.86,415.46,174.28z"/>
	<path d="M416.54,179.2c0.05,0.32,0.03,0.18,0.18,0.57C416.69,179.28,416.69,179.29,416.54,179.2z"/>
	<path d="M416.37,178.39c-0.21,0.42-0.45,0.4,0.17,0.81C416.35,178.12,416.37,178.52,416.37,178.39z"/>
	<path d="M304.4,209.09c0-0.2,0-0.4,0.1-0.5C304.14,208.95,304.4,208.61,304.4,209.09z"/>
	<path d="M304.5,195.85l0.3,0.2C304.8,195.79,304.88,195.85,304.5,195.85z"/>
	<path d="M347.54,189.43c0.45,0.91,0.51,0.43,0.2-0.2C347.64,189.33,347.54,189.43,347.54,189.43z"/>
	<path d="M401.72,184.11l-0.2-0.1C401.52,184.27,401.47,184.23,401.72,184.11z"/>
	<path d="M466.53,198.66c2.93,3.35,11.84,2,15.85,0C478.67,198.3,481.36,199.17,466.53,198.66z"/>
	<path d="M474.96,147.59c1.81-1,3.73-2.07,5.52-3.21c1.63-1.04-0.22-1.57-1.2-1.1C477.36,144.18,472.99,146.6,474.96,147.59z"/>
	<path d="M442.35,130.63c0.59-0.02,7.83-0.4,8.43-1.3C447.77,128.93,444.96,128.83,442.35,130.63z"/>
	<path d="M450.98,197.65c2.96,0,2.51,0.2,2.51-0.6C451.87,196.65,452.73,196.15,450.98,197.65z"/>
	<path d="M471.65,152.5c-1.2,0.5-1.91,0.8-2.61,1.1C470.45,153.81,470.45,153.81,471.65,152.5z"/>
	<path d="M462.82,198.46c2.23-0.37,2.01,0.15,2.01-0.6C462.44,197.85,462.82,197.67,462.82,198.46z"/>
	<path d="M466.33,156.02c-0.19,0.19-0.41,0.08-0.1,0.7C466.71,156.24,466.44,156.12,466.33,156.02z"/>
	<path d="M228.35,155.01c-1.61-1.81-2.21-4.21-4.51-5.32c-1.11,2.45-2.36,3.42,1.91,5.72c-0.6,0.9-1.2,1.71-1.91,2.71
		c2.11,2.11,2.31,5.42,5.12,7.02c1.17,0.59,1.25,3.61,4.11,5.52c0.03-0.3,0.93-2.73-1.5-5.22c-4.82-4.93-2.42-11.1-0.8-7.32
		c1.65,4.62,1.98,5.28,3.01,5.72c1.06,0.35,1.52-0.67,1.4-1C233.33,156.09,233.79,156.83,228.35,155.01z"/>
	<path d="M295.37,154.71c2.24-1.12-5.16-1.41-8.83,5.02C287.39,161.71,288.63,159.95,295.37,154.71z"/>
	<path d="M216.71,150.8c-1.23,9.21-1.48,9.57,0.1,9.73C217.5,153.28,220.91,153.32,216.71,150.8z"/>
	<path d="M265.77,178.09c-0.32,0.32-1,5.92,6.22-5.72C269.1,173.16,267.75,174.78,265.77,178.09z"/>
	<path d="M263.46,186.42c-9.24,6.78-7.21,3.77-9.63,5.92C259.92,192.84,264.51,187.11,263.46,186.42z"/>
	<path d="M320.05,142.67c-3.54,1.47-4.83,1.13-4.31,2.51C317.44,144.78,319.25,144.58,320.05,142.67z"/>
	<path d="M254.74,205.18c1.1-0.4,2.61-0.2,3.91-1.3C256.76,203.62,254.74,203.27,254.74,205.18z"/>
	<path d="M262.46,201.97c1-0.2,1.81-0.5,3.41-0.9C264.32,200.52,262.46,200.33,262.46,201.97z"/>
	<path d="M274.8,168.36c-0.4,0.1-0.8,0.2-1.2,0.4C273.6,170.81,276.1,168.36,274.8,168.36z"/>
	<path d="M312.53,147.09c1.28-1.28-0.04-1.22-1.61,0.9C311.92,147.49,312.32,147.39,312.53,147.09z"/>
	<path d="M299.28,152.7c0.1-0.1-0.1-0.2-0.2-0.4c-0.2,0.3-0.4,0.5-0.8,0.8C298.56,153.39,298.63,153.35,299.28,152.7z"/>
	<path d="M270.79,167.75c0-0.3,0-0.7,0-1C269.77,167.77,270.79,168.72,270.79,167.75z"/>
	<path d="M267.68,197.65c0.2-0.1,0.5-0.1,0.6-0.3c-0.1,0-0.2-0.2-0.3-0.2C267.24,197.15,267.41,197.38,267.68,197.65z"/>
	<path d="M278.11,164.54c-0.1,0.1-0.4,0.1-0.6,0.1C277.33,164.64,276.91,165.75,278.11,164.54z"/>
	<path d="M302.89,151.1c0.1,0,0.2,0,0.3,0.1C303.11,151.11,302.89,150.58,302.89,151.1z"/>
	<path d="M278.21,164.64c0.03-0.03,0.06-0.06,0.09-0.09C278.25,164.56,278.21,164.58,278.21,164.64z"/>
	<path d="M278.3,164.55c0.03-0.01,0.07-0.01,0.11-0.01C278.51,164.54,278.65,164.2,278.3,164.55z"/>
	<path d="M388.58,140.06c-1.01-4.33-6.17-7.33-6.82-6.02C381.47,134.88,381.39,135.06,388.58,140.06z"/>
	<path d="M339.61,134.75c-6.49,0.18-10.07,3.11-8.53,3.11C333.36,137.86,337.85,136.17,339.61,134.75z"/>
	<path d="M376.34,167.25c0.9-0.3,1.91-0.6,2.21-2.71C377.08,165.52,374.9,166.43,376.34,167.25z"/>
	<path d="M382.66,156.12c1.17-0.39,0.8-0.25,1.71-1.71C383.06,154.91,382.36,155.11,382.66,156.12z"/>
	<path d="M391.59,144.78c-0.4-1.5-0.4-1.5-1.81-1.91C390.08,143.88,390.78,144.38,391.59,144.78z"/>
	<path d="M381.85,160.73c1.64-0.55-0.36-2.04-1-0.1C381.25,160.73,381.55,160.83,381.85,160.73z"/>
	<path d="M390.98,147.19c0,0.2,0.1,0.4,0.2,0.6C391.71,146.73,390.98,146.98,390.98,147.19z"/>
	<path d="M380.05,162.54c-0.46-0.92-0.92,0.02-0.5,0.3C379.75,162.74,379.85,162.64,380.05,162.54z"/>
	<path d="M391.49,144.78l0.2,0.1C391.57,144.76,391.61,144.78,391.49,144.78z"/>
	<path d="M414.36,87.29c1.12,23.41,13.31,37.27,25.78,32.41c-4.93,0-6.78,0.85-10.43-1.71c-19.21-13.41-17.34-49.58-2.21-63.81
		c9.86-9.27,23.72,1.64,26.19,14.95c2.65,14.33,4.04-8.42-11.54-18.76c-3.01-2-6.52-1.5-9.93-1.3
		C427.34,49.06,413.29,64.84,414.36,87.29z"/>
	<path d="M455.7,73.95c-0.12-0.09-0.1-0.19-0.1,0.1L455.7,73.95z"/>
	<path d="M446.21,74.16c-0.27,0.55-0.54,0.54-0.81-0.04c-0.74-0.29-1.37-0.68-1.52-1.48c-9.05-2.01-11.52,9.71-6.55,17.67
		c0.57,0.09,0.86,0.37,0.89,0.82c1.58,0.39,3.08,1.33,4.82,0.86c-0.4,0.61-0.72,0.29-4.03,0.61c0.01,0-0.02-0.02-0.07-0.09l-0.1,0.1
		c0.1-0.02,0.15-0.01,0.16-0.01c1.34,1.56,6.42,1.52,8.86-2.6C449.94,86.48,449.97,75.77,446.21,74.16z M437.74,76.76
		c3.73-7.23,10.2,2.04,7.32,9.53C441.99,94.29,432.99,85.95,437.74,76.76z M443.52,91.75c0.85-0.84,1.71-1.64,2.55-2.47
		C445.57,91.25,445.25,91.5,443.52,91.75z M446.57,75.85c0,0.2,0.27,0.23-0.1,0.6C446.47,76.23,446.18,76.23,446.57,75.85z
		 M447.27,85.89c0.36,0.72,0.39,1.12-0.19,1.33C447.1,86.79,447.18,86.42,447.27,85.89z M446.45,88.79
		c0.14-0.36,0.29-0.69,0.43-1.01C446.9,88.22,446.87,88.59,446.45,88.79z"/>
	<path d="M438.14,91.1l0.1,0.1C438.24,91.13,438.22,91.1,438.14,91.1z"/>
	<path d="M443.86,72.54c0,0.11,0.05,0.08,0.1,0.1C443.96,72.2,443.92,72.61,443.86,72.54z"/>
	<path d="M446.27,74.05l-0.1,0.1C446.21,74.19,446.24,74.1,446.27,74.05z"/>
	<path d="M445.46,74.15l-0.1-0.1C445.39,74.12,445.4,74.12,445.46,74.15z"/>
	<path d="M456.3,94.81c0.9-1.81,0.9-3.41,0.5-5.82C455.7,91.9,455.7,91.9,456.3,94.81z"/>
	<path d="M456.8,80.27c0.3-1.5,0.1-2.51-0.8-3.91C455.8,77.86,455.7,79.06,456.8,80.27z"/>
	<path d="M457.6,85.48c0-3.56,0.2-3.01-0.6-3.01C457,85.66,456.53,84.41,457.6,85.48z"/>
	<path d="M435.93,90.4c0.9,1.1,1.5,2.11,2.91,2.01C437.67,91.23,438.43,89.98,435.93,90.4z"/>
	<path d="M440.25,119.7c0.9-0.1,2.01,0.1,2.71-1.3C441.65,118.29,440.65,118.39,440.25,119.7z"/>
	<path d="M442.35,70.94c-0.5-0.2-1,0-0.9,0.7C442.91,71.64,445.16,72.06,442.35,70.94z"/>
	<path d="M443.69,71.73c0.11,0.08,0.17,0.12,0.27,0.15C443.96,71.72,444.01,71.73,443.69,71.73z"/>
	<path d="M444.16,117.89c0.21-0.21,0.2,0.09,0.2-0.4C444.04,117.49,443.98,117.72,444.16,117.89z"/>
	<path d="M445.36,72.54l0.03-0.03c-0.03,0.04-0.01,0.05,0.07,0.22c0-0.1,0-0.2,0-0.29C445.01,72.44,445.18,72.42,445.36,72.54z"/>
	<path d="M445.17,72.44c-0.41-0.22-0.81-0.4-1.21-0.56C443.96,72.59,443.72,72.44,445.17,72.44z"/>
	<path d="M445.46,73.95c0.22,0,0.43,0,0.65,0C445.27,72.47,445.46,72.19,445.46,73.95z"/>
	<path d="M446.17,74.05l0.1-0.1C446.12,73.95,446.08,73.92,446.17,74.05z"/>
	<path d="M445.36,73.95l0.1,0.1C445.46,73.92,445.49,73.95,445.36,73.95z"/>
	<path d="M456.1,74.85c0-0.16,0.3-0.45-0.4-0.8C455.8,74.25,455.9,74.55,456.1,74.85z"/>
	<path d="M298.78,87.69c3.19,4.8,11.04,9.17,12.54,6.92c-21.76-4.35-23.68-47.34-4.31-63.71c8.32-7.03,21.29-0.31,24.18,15.05
		c2.81,14.95,2.15,0.03-2.11-8.93C312.27,1.62,277.97,56.44,298.78,87.69z"/>
	<path d="M315.13,68.23l-0.1,0.1C315.28,68.33,315.27,68.33,315.13,68.23z"/>
	<path d="M324.26,53.88c-1.18-5.91-9.26-7.13-11.44,0.9c-2.47,9.12,2.83,11.42,2.21,12.04c2.87,1.28,2.92,1.3,6.58,0.14
		c-0.4,1.54-2.37,1.12-6.37,1.35c3.52,2.93,8.51,0.68,10.02-3.6C327.16,59.36,325.62,51.17,324.26,53.88z M320.05,65.02
		c-3,2.75-6.12-1.75-6.12-6.12c0.47-1.77,0.58-8.11,4.92-7.83C322.85,51.33,324.57,61.32,320.05,65.02z M321.76,66.76
		c-0.02-0.94,0.57-1.5,1.28-1.97C322.99,65.67,322.62,66.38,321.76,66.76z M323.2,64.57c0.09-0.28,0.17-0.61,0.26-0.96
		C323.82,64.15,323.67,64.44,323.2,64.57z M324.26,61.71c-0.13,0-0.12,0.06,0-0.3V61.71z"/>
	<path d="M324.67,52.78l-0.1,0.1C324.65,52.96,324.58,52.98,324.67,52.78z"/>
	<path d="M332.09,66.72c-0.1,1.4-0.5,2.81,0.4,4.31C332.89,68.67,333.82,65.98,332.09,66.72z"/>
	<path d="M314.53,94.51c1.3,0.1,2.31,0,3.21-1C316.34,93.11,315.43,93.61,314.53,94.51z"/>
	<path d="M333.9,59.3c-0.6,1.3-0.6,2.21,0,3.21C333.9,61.61,333.9,60.7,333.9,59.3z"/>
	<path d="M332.89,54.28c0,1.2,0,2.01,0,2.81C333.49,56.19,333.69,55.38,332.89,54.28z"/>
	<path d="M322.96,49.67l0.1-0.1C322.81,49.57,322.83,49.54,322.96,49.67z"/>
	<path d="M322.86,49.57c-0.74-0.74-1.3-1.55-1.3-0.5C321.55,49.69,321.52,49.57,322.86,49.57z"/>
	<path d="M321.45,49.57l0.2,0.2C321.66,49.51,321.6,49.57,321.45,49.57z"/>
	<path d="M313.53,66.62l-0.1,0.1C313.6,66.72,313.56,66.75,313.53,66.62z"/>
	<path d="M313.55,66.72c0.13,0.83,0.61,1.3,1.47,1.4C314.73,66.39,315.51,66.72,313.55,66.72z"/>
	<path d="M315.03,66.72l-0.1-0.1C314.93,66.74,314.91,66.72,315.03,66.72z"/>
	<path d="M311.32,94.71c0.6-0.1,1.2-0.1,2.11-0.1C312.42,93.81,311.82,93.61,311.32,94.71z"/>
	<path d="M323.71,51.17c-0.19-0.47-0.46-0.93-0.65-1.4C323.06,51.45,322.89,51.17,323.71,51.17z"/>
	<path d="M323.76,51.27l0.1-0.1C323.71,51.17,323.68,51.14,323.76,51.27z"/>
	<path d="M320.05,47.96c-0.1,0-0.1-0.1-0.2-0.2c-0.2,0.1-0.4,0.1-0.5,0.2C319.62,48.24,319.47,48.25,320.05,47.96z"/>
	<path d="M324.56,52.78l0.1-0.1C324.57,52.68,324.56,52.66,324.56,52.78z"/>
	<path d="M323.86,51.27c0.36,1.52-0.46,1.4,0.71,1.4C324.68,52.01,324.73,51.46,323.86,51.27z"/>
	<path d="M313.13,66.32c0.1,0.1,0.3,0.2,0.5,0.3C313.27,66.44,313.72,65.73,313.13,66.32z"/>
	<path d="M319.05,92.91c0.13-0.39,0.18-0.33-0.2-0.2L319.05,92.91z"/>
	<path d="M568.97,9.94c0-0.2-0.5-0.4-0.8-0.7c-1,1.1-0.5,2.41-0.5,3.51C567.66,20.62,570.18,16.89,568.97,9.94z"/>
	<path d="M283.53,94.21c0,0.7,0.1,1.4,0.1,2.01C284.43,95.42,284.73,94.71,283.53,94.21z"/>
	<path d="M283.33,99.73c-0.53,0-0.4-0.31-0.4,1.61C283.13,101.34,283.33,101.66,283.33,99.73z"/>
	<path d="M283.83,104.04c0-0.1-0.2-0.39-0.4,0C283.64,104.25,283.83,104.52,283.83,104.04z"/>
	<path d="M271.59,58.8c0,0.1,0.1,0.1,0.2,0.1C271.51,58.62,271.59,58.66,271.59,58.8z"/>
	<path d="M603.78,137.15c-0.1-1.4-0.8-2.41-2.01-3.11C601.88,136.55,601.88,136.55,603.78,137.15z"/>
	<path d="M371.02,299.19c1.86-13.63-12.1-2.91-3.11,2.81c0-4.4-1.59-6.12,0.4-6.82C371.2,294.15,369.44,297.97,371.02,299.19z"/>
	<path d="M444.56,77.8c-8.03-5.01-6.56,8.09-3.61,8.09c1.13-3.12-2.61-6.92,2.31-6.92C444.04,81.72,444.13,86.74,444.56,77.8z"/>
	<path d="M444.56,77.8c0.03,0.02,0.07,0.04,0.1,0.06C444.52,77.59,444.56,77.62,444.56,77.8z"/>
	<path d="M319.45,53.48c-3.32-0.42-5.75,4.23-1.61,8.73c1.13-4.5-1.84-7.1,2.81-6.32c0.1,1.3,0.2,2.31,0.3,3.41
		c0.3,0.1,0.5,0.1,0.6,0.3C321.55,55.16,322.06,53.81,319.45,53.48z"/>
</g>
</svg>
