<?xml version="1.0" encoding="utf-8"?>
<svg version="1.2" baseProfile="tiny" id="Layer_1" xmlns="http://www.w3.org/2000/svg" xmlns:xlink="http://www.w3.org/1999/xlink"
	 x="0px" y="0px" viewBox="0 0 900 600" xml:space="preserve">
<g>
	<path d="M259.95,258.57c3.61-0.51,9.71-2.53,11.34-5.79c2.29-0.78,0.65,0.25,10.6-5.15c14.61-7.92,15.55,20.22,61.11,15.55
		c2.37-0.24,2.75,0.94,12.83-1.17c14.5-3.02,17.66-1.95,28.17-4.6c8.79-2.22,18.54-6.83,32.54-5.86
		c13.99,0.97,16.04-0.41,17.39,0.25c5.75,2.82,9.95-0.09,13.21,2.53c8.22,6.61,23.43,3.45,42.14,2.59c3.92-0.18,6.58-2.31,8.31-5.91
		c3.22-6.69-1.88-4.09,4.79-8.46c4.47-2.93,7.57-3.92,9.25-8.39c1.62-4.31,3.01-3.39,1.92-7.9c4.35-2.73,19.14-9.74,20.81-13.23
		c0.37-0.76,1.23-0.57,1.85-0.9c2.6-1.4-5.4-9.13-6.2-12.3c5.69-10.34,12.76-22.48,14.03-22.37c6.73,6.92,7.51,5.85,8.4,8.58
		c0.19,0.57,4.07,3.56,4.88,4.08c25.51,16.33,10.2,4.87,35.86,26.9c-0.79,2.27-0.98,0.94-1.68,10.69c-0.49,6.92-1.31,4.78-1.27,6.84
		c0.09,4.95-2.24,7.47-0.67,9.83c12.02,3.35,10.55,2.22,13.21,3.18c0.8,3.06-2.04,2.68-0.54,6.81c-0.44,1.19-0.86,2.31-1.32,3.51
		c17.24,11.78,29.86-0.44,41.94,1.55c2.42,0.4,7.07,1.52,8.96,1.02c4.87-1.26,4.34,1.03,17.03-2.58c9.02-2.57,7.35-2.97,11.82-6.17
		c12.25-8.76,15.81-8.9,6.9-19.75c-3.48-4.23-6.78,1.28-14.57-0.53c1.68-4.23-1.93-8.99-5.22-8.68c-3.67,0.34-7.41-0.17-11.01,1.08
		c-6.23,2.16-16.83-8.58-17.04-8.64c-6.86,0.87-5.1-1.06-8.35-3.09c-8.78-5.49-6.31-9.79-12.65-6.85
		c-9.24-9.8-12.73-13.36-13.02-16.32c-0.38-3.85-15.05-23.42-25.95-33.97c-9.22-8.92-0.57-5.99-14.13-16.58
		c-5.39-4.2-7.88-13.63-16.95-13.1c-9.15,0.54-1.44-1.42-7.92-3.04c-10.24-2.57-28.9,8.54-35.7,15.86
		c-1.17,1.26-3.77,1.36-11.38,7.72c-16.52,13.85-23.03,19.69-24.22,20.36c-0.1,0.06-12.03,5.3-13.01,9.79
		c-0.7,3.17-1.95,7.7-3.39,10.15c-8.62,0-6.17,2.23-10.97,2.7c-3.26,0.32-5.18,1.82-6.47,2.26c-9.52-2.05-33.24-2.11-33.82-2.2
		c-4.15-0.66-6.69-2.25-19.02-1.45c-31.87,2.05-29.54-4.42-45.44,2.38c-3.28,1.4,0.12-15.56-4.61-22.71
		c-1.2-1.82-2.01-10.47-1.95-12.86c0.16-7.22-0.95-3.59-1.82-16.31c-0.5-7.39,4.05-7.91-6.13-35.62c-2.57-7-6.2-22.67-3.73-32.93
		c2.53-2.44,1.64-10.04,3.44-11.1c26.19-15.53,19.67-46.99-4.65-54.9c-8.9-2.9-15.21-4.86-24.64-2.01
		c-22.51,6.79-31.39,37.03-5.84,54.17c0.78,2.05,0.73,5.57,3.31,8.51c9.24,10.48-0.77,65.99,5.54,79.21
		c2.52,5.28-0.76,7.29-0.33,12.14c0.43,4.91-2.33,6.95-2.24,14.52c0.21,17.13,3.06,15.96,0.53,19.81
		c-9.61,14.65,1.05,17.32-11.05,14.23c0,2.46,5.43,3.25,7.9,3.03c4.08-0.36,1.24,0.19,0.76,11.73c0,0.1-1.6,11.62,2.05,16.02
		c-0.93,3.35-0.48,6.73,0.68,10.17c-17.07-3.1-11.65,1.06-15.46-1.69c-2.89,0.67-3.87,1.1-5.1,0.27c-0.62-0.42-3.32-0.78-3.29-0.68
		c-1.42-3.93,3.3-8.73-0.29-10.9c1.73-0.87,4.44-1.52,5.83-4.23c1.9-3.71,0.88-4.19,1.05-4.21c-1.65,0.22-1.92,4.58-5.77,5.49
		c-1.39,0.33-1.69,2.24-3.35,3.96c-0.1,0.1-0.2-0.14,1.66,1.17c0.1,0.07,0,3.99-2.19,6.28c-1.49,1.55-2.35,8.76-9.18,6.28
		c-10.97-3.99-0.82-2.39,3.97-0.29c3.08-2.65,1.88-3.66,2.22-3.95c-1.7,1.44-2.42,2.48-3.43,1.23c-0.78-0.97,2.58-2.52,3.52-2.95
		c-1.93-1.78-0.97-0.82-1.51-0.65c-0.18,0.06-0.66-0.16-0.55-0.16c1.13-0.34,0.72-0.38,0.86-0.26c0.54-1.08,1.12-0.15,1.93-0.84
		c0.82-1.8-1.12-6.84-3.7-3.05c-0.11,0.16,0.33,2.67-1.4,2.92c-2.55,0.37-1.41-4.54-4.02,0.54c-1.1,2.15-1.59,1.33-1.59,1.74
		c-0.9,1.09-0.08,2.03,0.14-3.43c1.96-2.53,5.15-3.28,6.55-5.94c-0.37-1.25-2.38-0.11-2.27-1.31c1.04-12.09,3.36,11.23-22.8-7.72
		c-6.27-4.53-6.24-2.49-6.31-3.08c-1.11-9.22-4.57-5.66-3.36-5.15c-0.22-0.09-0.27-0.26-0.22-0.36c-1.24-0.8-1.63-2.29-2.3-3.41
		c0.02-0.1,0.69-3.2,0.71-3.3c5.79-1.7,9.07-4.72,10.13-5.26c4.49-2.33,4.52,2.71,9.09-0.92c8.73-6.93,9.46-9.7,11.25-3.71
		c0.6,2.03,0.89,0.99-0.24,3.02c0.5,1.08,1.7,0.92,2.48,0.2c1.14-1.03,0.45-2.52,0.11-4.03c-0.03-0.1-0.35,0.18,2.62-1.31
		c2.54,0.57,2.92,3.09,4.45,4.6c0.29,0.28,1.08-0.09,1.18-0.09c0.83-0.36-0.61-1.91-1.57-3.17c0.85-3.92,3.36,0.88,8.91-2.33
		c6.29-3.65,7.42,7.94,8.46,9.22c3.73,4.54,1.1-16.94-9.99-10.76c-1.18,0.66-1.36,0.93-1.48,0.93c-2.14-0.25-3.42-1.5-6.07-0.11
		c-1.3,0.68-1.47,1.09-1.57,1.04c-2.54-1.77-1.4-1.69-5.13-0.26c-1.49,0.57-2.85-4.06-7.26-0.67c-0.8,0.61-1.8,2-9.31,7.01
		c-1.2-1.2-1.66-1.93-4.82-0.91c-1.85,0.6-8.12,4.43-8.23,4.5c-5.11,3.25-3.97-2.15-7.46-4.8c-2.12-0.33-4.18,0.08-4.07,0.14
		c3.34,1.9,4.52,4.93,6.67,7.19c0.43,0.45,0.83,1.26,0.37,2.08c-3.21-2.67-5.42-10.74-12.49-9.71c-3.33,0.48,0.74,3.67,0.35,5.11
		c-3.56-1.58-1.65-0.8-2.59,1.27c-0.3,0.67-0.86,1.23-1.31,1.84c0.81,1.75,2.69,1.48,4.03,2.4c-0.18,0.13-3.13,1.98-2.45,2.85
		c0.93,1.18-0.49,1.84-0.48,2.69c2.88,10.83,1.04,4.83-0.56,6.77c-0.85,1.02,0.3,2.03,1.28,3.5c5.15,7.77,0.67,6.72,3.82,13.46
		c1.48,3.19,1.61,2.79-0.61,3.43c0,0.16-0.17,0.6-0.07,0.69c3.18,2.86,2.4,1.41,3.57,4.56c2.43,6.54,5.57,6.84,6.16,7.62
		c-0.73,3.07-1.28,2.36,2.1,3.38c-0.07,0.47-0.14,0.91-0.21,1.43c1.13,0.66,2.42,1.11,3,2.49c0.13,0.32,0.95,1,1.9,1
		c1.19,0,0.69-3.79,2.85-1.8c2.38,2.19,3.56,0.94,6.93,0.82C256.97,262.07,250.59,259.88,259.95,258.57z M298.55,247.73
		c-0.01-0.1-3-2.74-2.61-9.52C296.43,239.81,299.43,249.06,298.55,247.73z M429.01,248.37c-46.86,2.82-81.66,15.47-82.91,12.63
		c6.65-4.34,5.48-0.96,12.49-19.2c3.93-10.18,1.23-7.85,5.36-8.02c1.37-0.06,2.62-0.52,2.67-0.42c-1.75-3.36-5.34-0.13-6.26-4.72
		c-2.15-10.75-10.88-21.22-22.13-23.93c-0.99-0.24-0.52,0.04-1.58-0.46c-0.62-2.33-0.65-8.44-0.25-11.63
		c1.37-1.27,2.6-1.31,18.72-3.15c4.86-0.56,2.66,1.55,8.9,0.94c10.93-1.07,31.5-1.16,45.73,1.6c26.61,5.16,27.47-4.97,23.92,7.66
		c-3.35,1.59-3.95,1.25-7.5,3.61c0.22,1.02,0.65,0.66,4.51-0.75c3.51-1.27,2.37-2.04-1.64,15.01c-1.74,7.39-1.85,9.42,0.27,30.6
		C429.18,248.23,429.1,248.37,429.01,248.37z M431.65,224.85c-0.41,0-0.31,0.25-0.31-1.5C431.75,223.35,431.65,223.1,431.65,224.85z
		 M432.32,241.86c-0.14-0.25-0.32-0.23,0.32-0.61c0.02-0.01,0.11,0.12,0.18,0.18C432.65,241.58,432.48,241.72,432.32,241.86z
		 M512.84,223.13c-0.14-0.86,1.06-7.76,0.33-6.85c-2.09,2.16-2.58,3.57-2.69,8.14c-0.01,0.51,0.67,1.05,1.04,1.59
		c0.07,0.1-1.68,3.29-3,6.57c-2.81,7.02-15.65,9.36-13.39,16.28c-1.89,2.25-2.99,4.1-5.99,4.34c-17.49,1.35-17.35,1.46-18.27,2.11
		c-1.5,1.08-12.51,0.41-16.01-0.15c-0.81-0.13-1.53-0.7-1.57-0.6c1.03-2.51,0.74-1.47-2.27-3.1c-6.18-3.37-4.62-4.73-6.69-4.75
		c-1.6-0.02-6.46-4.14-6.16-0.85c11.71,7.54,6.3,3.78,8.37,5.85c2.23,0.84-6.54-2.07-9.89-3.46c-0.82-6.28-0.37-13.73-0.8-14.8
		c-1.11-2.74-2.43,1.57-3.16,2.46c0-3.75,4.6-22.19,4.63-22.29c0.83-0.12,1.57-0.23,2.4-0.36c-0.32-7.19,5.02-17.67,1.38-21.39
		c-1.63,1.65-0.5-1.24-3.44,14.22c-0.3,1.61-1.3,0.75-1.93,1.43c-1.29,1.39-1.01,7.78-3.42,13.25c-1.05-1.34,0.64-7.13,1.61-10.56
		c5.63-20.07,2.62-18.43,6.09-18.85c1.43-0.17,4.62-0.51,4.64-0.51c1.02,3.87-0.94,3.01-0.09,5.53c0.09,0.27,1.61-1.08,3.75-5.37
		c4.22-1.72,4.89,1.51,10.4-0.86c5.58-2.41,6.91-3.35,7.97-5.3c1.73-3.16,10.25-9.78,22.32-23.3c2.9-3.26,4.4-4.74,10.05-7.33
		c2.83,2.44,3.62,5.45,4.2,6.25c6.3,8.83,10.5,18.41,14.62,28.1c0.04,0.1-1.33,0.39-2.41,1.02c-2.09,1.22-19.47,16.69-25.1,22.36
		c-0.66,0.66-0.6,1.29,0.09,1.9c5.89-3.84,18.77-17.68,27.91-23.46c2.95,2.92,6.39,9.63,14.79,19.73
		C535.02,212.39,512.83,223.03,512.84,223.13z M546.51,171.67c0,0.1,1.78,2.51,2.91,7.67C546.54,177.06,543.88,174,546.51,171.67z
		 M588.02,209.26c-17.33-13.06,1.5-2.32-16.83-13.31c-6.55-3.92-2.11-2.69-8.69-5.42c-11.85-4.9-13.67-22.81-15.09-25.31
		c-0.89-1.56-1.76-0.55-1.71,0.39c0.13,2.38-2.21,3.65-3.24,7.19c-1.75,6.03-5.75,7.81-12.75,22.44c-1.27,2.67-1.63,3.15-2.9,1.63
		c-12.18-14.44-4.03-14.43-25.07-44c4.95-3.91,26.89-19.06,30.83-20.51c0.35-2.33,1.99-3.54,4.3-3.82
		c16.52-2.04,15.94-0.5,22.71,7.28c3.96,4.55,10.5,8.46,10.9,9.78c0.89,2.99,3.47,4.88,4.82,7.57c2.88,5.73,5.6,3.97,14.02,16.17
		c4.5,6.52,28.33,44.78,42.3,51.67c2.91,1.44,2.1-0.33,2.1,7.68c-4.38,3.53-9.04,9.11-14.71,5.19c-11.32-7.84-6.8-6.63-6.78-7.61
		c0.03-1.14-0.84-1.36-2.01-1.3c0.07,1.26,0.16,1.15,0.06,1.14c-0.45-0.11-0.87-0.12-1.13-0.35
		C590.37,209.28,598.01,216.8,588.02,209.26z M631.95,215.58c1.01,0.46,1.88,1.11,3.51,2.2c-0.47,0.77-0.85,1.39-1.37,2.24
		c-3.43-4.45-5.15-1.78-13.21-12.15C623.53,206.61,625.07,212.44,631.95,215.58z M597.65,243.65c-3.36,0.11-7.68-0.4-6.13-3.38
		c1.33-2.57,0.65-5.32,1.3-6.51c1.97-3.63-1.04-6.5,2.44-15.07c4.14,3.03,8.46,5.44,11.72,9.55c-1.72,2.72-1.61,10.55-3.33,15.75
		C601.63,244.46,599.62,243.58,597.65,243.65z M642.05,256.21c-4.54-0.84-5.59,1.62-7.77,0.39c-2.61-1.46-8.91,7.58-30.78,0.22
		c0.9-1.84,0.32-3.74,1.17-5.53c3.56-7.56,3.6-21.23,3.71-21.23c1.99-0.03,10.2,8.74,18.78,6.61c3.62-0.9,4.91-3.11,7.52-4.91
		c3.41-2.36,1.29-6.55,1.23-6.95c-0.61-3.84,0.58-4.52,3.15-7.66c1.36,0.51,1.89,1.81,2.64,2.68c2.87,3.31,3.09,3.04,1.49,7.72
		c-0.5,1.46-1.31,2.62-1.04,4.5c0.15,1.04,1.43,1.57,2.34,1.11c2.22-1.14,2.43-3.26,3.69-6.18c0.18-0.43,1.11-1.09,1.1-1.19
		c0.34,3.54,0.19,0.92-0.78,5.2c-1.09,4.84,1.22,4.72,1.99,3.8c2.3-2.74,2.46-6.46,3.42-5.78c2.06,1.43-2.25,6.07,0.31,7.15
		c1.86,0.78,2.51-2.72,3.58-5.33c2.82,0.47-0.83,5.26,2.23,5.5c2.88,0.23,0.71-5.16,3.94-3.25c0.12,2.35-0.55,4.84,1.19,4.89
		c1.76,0.04,1.87-1.9,2.51-4.08c17.19,1.56,12.63-0.85,17.74-0.22c2.77,4.84,7.04,7.18-0.32,12.28c-1.56,1.08-4.87,2.89-5.13,3.19
		C675.08,254.69,653.88,258.41,642.05,256.21z M668.39,225.24c1.13,1.17,4.14,6.02,1.08,5.7c-2.85-0.3-5.76-0.74-8.37-2.05
		C656.13,226.4,647.29,227.17,668.39,225.24z M495.12,147.85c8.81-7.19,34.75-27.17,44.86-22.01c-12.35,1.89-9,6.69-15.94,9.09
		c-0.1,0.04-13.43,7.47-27.89,16.99C493.56,149.26,493.06,149.52,495.12,147.85z M455.08,188.55c1.03-0.78,0.24-1.19,0.93-2.24
		c1.74-2.67,2.66-5.6,3.29-8.75c0.91-4.54,7.36-5.73,14.19-11.61c5.92-5.1,11.98-10.04,18.11-15.14c0.86,0.79,1.57,1.45,2.46,2.27
		c-9.7,8.62-4.57,4.36-18.2,17.74c-1.52-0.18-3.35-1.31-4.67,0.65c0.1,0.1,2.16,2.23,2.45,1.88c-7.12,8.61-4.9,7.71-8,4.35
		c-0.95-1.03-1.91,0.73-2,0.55c3.81,7.58,3.37,5.16-8.11,10.17c-0.07,0.31,0.05-0.21-0.35,0.5
		C455.12,188.82,454.99,188.62,455.08,188.55z M313.77,34.07c-1.65-1.98-1.85-2.17-2.44-2.32c-0.52-0.12-2.43,0.21-2.38,0.31
		c-2.2-4.5-2.79-1.84-4.98-1.88c-0.05,0.5-0.19,0,0,0c0.58-4.04,6.4-5.44,9.23-2.03C314.73,29.98,315.31,32.15,313.77,34.07z
		 M303.76,31.55c-0.11-0.04-0.22-0.07-0.33-0.11C304.04,29.91,303.88,30.32,303.76,31.55z M316.68,35.95
		c0.01-0.12,0.06-0.28-1.04-1.38c2.04-8.95-7.63-14.57-13.97-4.36c-0.57-0.06-1.2-0.14-1.82-0.21c-4.51,4.98-6.38,15.65-5.57,20.11
		c1.21,6.64-21.58-14.11-6.14-33.83c13.57-17.33,41.38-10.43,45.44,10.62c3.22,16.7-13.09,29.08-12.9,24.77
		C321.04,43.91,316.58,37.9,316.68,35.95z M321.86,56.63c-0.02-0.03-1.08-1.38-1.16-1.48c36.02-24.31-1.43-70.92-34.86-38.97
		c-0.62,2.86-2.06,3-2.06,3.33c-0.29,0.19-2.44,7.44-2.35,12.42c0.25,14.17,10.69,20.22,12.06,21.64c0.31,0.32,0.32,1.27,0.43,1.32
		c-17.24-9.13-14.68-32.17-10.22-35.32c2.28-10.77,23.07-21.7,39.76-11.91C343.02,19.14,342.31,45.88,321.86,56.63z M279.2,41
		c-11.51-24.69,13.92-35.67,13.66-34.89c-0.78,1.64-18.02,10.63-13.3,32.69c1.11,5.18,0.46,2.72,0.97,3.75
		C279.65,41.8,279.66,42,279.2,41z M285.26,51.51c-23.59-13.46-8.39-53.49,19.22-49.32c-5.69,1.92-14.09-0.25-23.22,9.99
		c-4.69,5.26-6.83,11.58-6.38,18.92C275.84,46.75,293.87,56.42,285.26,51.51z M296.17,191.85c3.03-4.89-1.8-18.5,1.26-29.54
		c0.44-1.58,1.23-5.36,0.78-6.94c-0.99-3.45,1.43-3.83,0.99-8.54c-1.17-12.67-2.07-7.88-2.68-11.28c-1.37-7.59,1-27.6,0.8-56.43
		c-0.06-8.67-3.94-11.06-8.25-24.47c1.16,0.43,1.97,0.96,2.07,2.14c0.56,6.39,3.46,5.31,6.72,12.71c-2.85,2.85,0.95,1.97,1.84,4.82
		c0.83,2.66-0.14,6.72,1.47,21.01c2.51,22.25-6.21,27.27,0.92,53.99c0.92,3.46-1.01,3.81,0.15,8.24c1.14,4.32-7.2,14.22-1.22,34.62
		c-2.82,5.63-5.06,8.21-6.64,12.44c-2.24,0.17-2.23,0.39-2.47-0.6C291.77,203.46,293.27,196.54,296.17,191.85z M303.2,192.68
		c-1.82-2.73-1.13-21.29-1.33-19c0.85-9.86,6.19-14.26,3.11-16.86c-0.86-0.72,0.25-4.69-1.08-6.8c-0.06-0.1-0.05-0.32-0.02-0.57
		c0.46-4.79-1.21-9.05-1.79-13.71c-1.46-11.78-0.98-7.46,2.42-28.24c0.43-2.62-2.4-17.61-2.53-23.55
		c-0.2-9.07-1.29-16.34-6.45-20.46c-3.27-2.61-1.98-6.19-2.43-5.76c0.99-0.96,2.16,0.45,2.5-0.28c0.54-1.18-0.32-0.83-0.27-4.41
		c0.04-2.88,0.72-2.61,0.68-8.58c-0.02-3.85,1.28-5.75,3.09-10.2c2.98-7.33,3.46,2.18,1.65,6.63c-1.3,3.2-0.98,6.55-0.76,9.97
		c0.07,1.09,1.32,0.86,1.35,0.71c1.11-5.03-0.12-6.83,2.9-14.1c2.82-0.2,0.43-0.55,0.56-3.49c0.22-4.96,3.3-2.97,3.46,2.82
		c0.09,3.08-1.62,8.25-0.78,16.68c0.46-0.22,0.94-0.32,0.97-0.5c1.62-7.71,0.43-5.03,0.44-7.28c0.01-0.96,0.86-0.82,0.92-3.03
		c0.05-1.65-0.16-0.59,0.21-7.81c0.13-2.47,1.7-1.92,1.84-1.32c2.32,10.55,2.43,7.25-0.99,8.96c0.97,1.35,3.03-0.18,2.9,2.88
		c-0.36,8.72-0.95,9.26,0.71,9.69c1.92-13.62-0.72-10.51,2.17-11.62c-1.59-1.27-1.6-1.25-1.88-3.13c-0.31-2.12-0.28-2.03-0.21-2.13
		c0.09-0.14,0.51-0.68,1.13,0.33c5.59,9.07,1.9,10.52,3.71,19.09c1.14,5.44-2.38,10.18-3.41,18.41c-2.84-1.03-1.23,1-1.2,2.27
		c0.07,2.88,0.12,3.44,1.68,4.07c6.27,32.58,8.69,31.19,9.87,45.46c1.23,14.84,0.73,12.85,1.52,21.12c0.12,1.26,0.3,2.11,0.35,3.39
		c0.9,25.67,3.02,13.29,3.37,24.41c0.28,8.9,0.47,17.11,1.19,20.13c1.56,6.53-0.51,13.4,1.71,16.18c0.77,0.96,1.49,7.08,4.3,5.75
		c3.23-1.54-3.86-6.21-2.42-11.89c3.39,0.21,7.84,2.41,10.96,5.4c0.66,0.63-5.11,3.94-4.46,5.11c1.53,2.76,5.02-0.53,7.29-2.65
		c3.52,3.84,5.93,7.87,7.35,12.82c-1.5-0.43-2.45-0.77-3.43-0.95c-3.5-0.66-5.02,2.03-1.9,2.3c2.47,0.21,4.33,1.69,6.27,2.74
		c1.04,2.66,0.29,5.34-5.68,18.86c-3.38,7.68-6.01,5.98-12.88,10.25c-4.02,2.5-39.85-1.55-39.38-13.8c0.08-2.16,1.28,0.11,2.05-1.43
		C299.42,236.1,285.11,226.75,303.2,192.68z M261.33,252.54c0.15,0,0.3,0.18,0.65,0.42C259.57,252.96,260.99,252.55,261.33,252.54z
		 M210.23,207.11c0.43-0.47,0.27-0.48,0.7,0.17C210.93,207.47,211.98,207.54,210.23,207.11z M213.62,225.61
		c-0.12-0.22-0.23-0.45-0.35-0.68c0.15-0.08,0.38-0.26,0.44-0.21C214.57,225.39,214.11,225.39,213.62,225.61z M214.63,218.51
		c0.18-0.3,0.12-0.3,0.23,0.02L214.63,218.51z M213.56,215.99c-1.23-1.64-1.14-1.61,0.13-1.85c0.01-0.11,0.69-0.78,0.72-0.78
		c0.09-0.04,0.1,0.17-0.34-1.79c1.2-0.6,1.2-0.6,2.37,0.85C213.15,213.93,213.7,213.94,213.56,215.99z M220.18,251.21
		c-0.32-0.32-0.94-1.51,0.17-0.21C220.36,251.01,220.24,251.14,220.18,251.21z M223.1,215.93c-0.06-0.23,0.15-0.53,0.34-1.12
		C226.79,222.35,223.54,217.49,223.1,215.93z M225.95,224.92c-0.28,0-0.37,0.55-0.37,0.37c-0.19-0.36-0.05-0.36,0.2-0.35
		c0.48-0.48,0.14-1.36,1.42-1.14C227.58,223.88,226.18,224.29,225.95,224.92z M226.59,254.34c-0.5-0.75-0.53-0.58-0.42-0.63
		c0.66-0.25,0.46-0.38,0.88,0.31C227,254.06,226.69,254.27,226.59,254.34z M227.11,231.78c-0.19,0.5-0.31,1.17-0.91,0.64
		c-0.41-0.37-0.09-0.87,0.8-3.34C227.74,229.83,227.82,229.92,227.11,231.78z M227.85,222.27c0.58-0.04,0.93-0.13,1.37,0.64
		c1.06-0.35,1.66,1.06,1.38,0.52c-0.2-0.15-0.93,0.32-1.38-0.52C229.11,222.95,228.11,222.25,227.85,222.27z M228.22,248.42
		c2.29-3.31,2.29-2.09,1.96,0.99c-0.01,0.1,0.19,0.05-1.9-0.37C228.25,248.79,228.14,248.53,228.22,248.42z M229.65,241.91
		c-1.53-0.7-1.24-0.53,0.01-2.27c0.68,0.67,1.12,1.1,1.54,1.52C230.53,241.99,230.33,242.23,229.65,241.91z M231.92,254.99
		c-0.53-0.33-0.54-0.24-0.07-0.28C233.46,254.59,233.12,255.73,231.92,254.99z M234.49,258.3c-0.24-0.11,0.28-0.49,0.28,0.06
		C234.67,258.34,234.57,258.34,234.49,258.3z M237.25,226.78c-1.91,0.23-1.97-1.25-1.97-1.25c0.01-0.1-0.79,0.14-0.6-0.66
		c-0.02,0-0.03-0.01-0.05-0.01l-0.01-0.01c-0.02-0.02-0.03-0.05-0.05-0.09c-1.02-0.16,0.27-0.59,0.11,0.11c0,0.1,0.6-0.09,0.6,0.66
		C236.76,225.53,237.49,227.17,237.25,226.78z M242.83,229.23c-0.2,0.2-0.08,0.28-0.68-0.01
		C242.39,228.96,242.24,228.96,242.83,229.23z M239.46,233.96c0.26-0.33,0.09-0.31,0.74,0.02
		C239.94,234.27,240.13,234.3,239.46,233.96z M242.97,250.83c0.15-0.18,0.1-0.2,0.18,0.03L242.97,250.83z M242.86,237.63
		c-0.54-0.18-0.32-0.56-0.18-0.52C243.46,237.25,242.97,237.65,242.86,237.63z M245.02,247.87c0.28,0.42-0.41,1.1-0.77,1.57
		C244.03,247.32,244.7,247.38,245.02,247.87z M258.17,239.75c4.28,0.87,4.09,0.08,0.81,3.03
		C255.93,242.06,256.14,242.84,258.17,239.75z M253.87,238.08c-0.21-0.04-0.19,0.02-0.05-0.2L253.87,238.08z M246.9,255.31
		c0.02,0.01-0.25-0.12,2.02,0.7C247.02,258.14,245.71,254.99,246.9,255.31z M250.18,249.57c-1.64,0.36-0.88-0.38-0.78-0.38
		c0.2,0,0.52,0.09,0.8,0.17C250.8,249.51,250.82,249.43,250.18,249.57z M251.78,244.76c-0.64-0.38-0.6,0.04-0.3-1.49
		C252.33,243.75,252.29,243.4,251.78,244.76z M253.12,256.96c-0.66,0.64-0.95-0.32-0.5-0.33
		C252.72,256.63,253.33,256.76,253.12,256.96z"/>
	<path d="M691.49,574.16c-7.68-12.09-7.61-4.62-16.82-5.43c-3.23-0.29,0.75-3.29-3.38-7.65c-0.89-0.94-1.95-1.64-3.25-1.51
		c-3.56,0.36-7.18-0.1-10.69,0.98c-7.45,2.31-17.14-8.32-17.32-8.41c-4.27,0-2.54,2.7-13.87-7.56c-2.4-2.17-3.41-4.97-6.51-2.83
		c-1.06,0.73-0.8,0.65-10.78-10.36c-1.38-1.52-2.97-3.75-3.2-5.78c-0.44-3.84-15.59-23.93-26.04-33.93c-2.37-2.27-3.7-3.67-6.1-9.12
		c-1.26-2.85-2.6-3.02-7.5-7.04c-6.62-5.44-0.69-2.2-10.1-11.09c-4.41-4.17-7.7-1.3-12.08-2.28c-0.26-9.31-28.24,0.94-38.72,12.78
		c-1.07,1.21-3.95,1.4-12.4,8.6c-4.01,3.41-22.42,19.33-24,19.93c-19.19,7.34-9.86,19.81-18.06,19.58
		c-4.56-0.13-3.54,1.93-9.49,2.86c-4.04,0.63-4.33,2.19-7.32-0.54c-4.65-4.25-25.56-6.25-40.61-9.88c-1.84-1.65-3.55-2.71-4.61-4.22
		c-2.81-3.99-5.44-5.92-9.49-10.41c-2.79-3.1-7.22-7.39-18.46-9.52c-4.71-0.89-0.2-15.44-2.29-29.02
		c-0.87-5.69,0.39-15.12-3.59-20.96c-0.92-1.33-3.23-26.69-3.24-26.92c-0.44-7.99,1.29-11.31-0.83-20.73
		c-2.01-8.96-12.3-31.65-10.13-45.88c0.63-4.17,1.75-3.63,2.37-6.92c1.64-8.68,0.72-7.24,3.77-8.98
		c23.15-13.18,18.74-46.89-7.31-54.04c-6.08-1.67-15.82-6.39-28.64,0.19c-19.43,9.97-24.24,36.79-1,52.15
		c3.86,13.19,1.02,2.07,6.67,16.07c2.09,5.17-0.58,50.42,0.35,64.1c0.53,7.83,3.71,8.18,2.56,13.53c-1.97,9.24-0.26,9.08-1.93,11.23
		c-3.05,0.51-8.18,0.05-12.35-1.11c0.22-2.55-3.44-4.23-5.76-4.54c-19.07-2.62-1.64-8.43-11.32-12.31
		c0.67,3.77,0.66,7.13-1.22,11.43c-0.93-4.64,3.45-11.67-2.72-15.65c-2.37-1.53-1.91,3.22-3.07,4.02c-0.72-0.33-0.29-1.62-1.62-1.67
		c-1.61,1.68-3.28,0.76-3.66,1.84c-0.17,0.49,0.92,2.65,1.36,3.96c-0.83,0.46-3.37-1.54-4.45,1.49c-0.07,0.19-0.62,0.17-0.89,0.33
		c-1.22,0.75-0.65,0.22-3.65,5.84c-0.4,0.75-0.52,0.17-2.16-1.25c-2.71,2.92-0.67,7.57-5.5,11.46c-2.92,2.35-2.76,6.61-4.21,7.3
		c-0.65,0.01-0.88-1.15-1.79-0.56c-0.92,1.17,0.17,2.28,0.29,3.58c0.2,1.22-4.11,5.97-2,11.43c0.07,0.18-0.01,0.42-0.04,0.65
		c-2.63,2-2.37,1.13-0.77,3.94c-0.78,0.7-1.07,0.96-1.1,0.99c0.15,1.11,0.85,2.04,0.34,3.27c-0.26,0.64,0.34,1.63,0.59,2.64
		c2.77-0.92,3.33-1.52,3.48,0.48c0.24,3.26,2,2.93,4.52,5.33c8.89,8.53,12.93,7.5,16.81,10.14c7.28,4.95,10.51,3.93,13.46,5.78
		c1.31,0.83,2.34,2.08,3.97,2.45c0.46,0.1,1.01,0.67,1.16,1.14c0.82,2.56,3.06,3.4,3.94,5.36c4.62,10.3,2.68,18.11,4.22,19.87
		c0.5,0.57,5.18,15.02,5.16,15.12c-0.64,3.2,15.84,22.09,17.4,23.49c15.7,14.17,34.03,22.59,64.42,24.91
		c3.66,0.28,37.18,2.22,38.93,2.16c5.71-0.2,6.66,2.05,13.57,1.58c5.07-0.35,4.25,3.19,12.64,4.56c9.3,1.52,13.65-0.05,33.5-0.79
		c6.54-0.24,10.03-6.14,9.83-11.85c3.43-3.43,15.86-6.68,14.93-19.06c0.1-0.03,7.15-3.83,9.16-4.95c13.17-7.36,9.89-7.64,14.16-9.49
		c-3.13-7.05-6.49-9.19-6.96-11.69c3.28-6.55,7.12-13.27,13.81-22.88c4.47,5.84,7.37,6.04,7.8,7.58
		c1.52,5.47,19.32,10.37,41.48,32.53c-0.76,2.19-0.78,0.86-1.32,6.96c-1.05,11.8-4.46,19.82-1.53,20.53
		c13.47,3.25,13.36,2.04,12.28,5.39c-0.38,1.18-1.67,1.63-0.29,4.39c-0.04,0.1-1.27,3.06-1.3,3.12c1.87,2.8,9.63,4.87,13.99,5.37
		c13.43,1.54,13.61-5.18,29.32-3.26c1.39,0.17,5.05,1.16,6.64,0.89c4.39-0.75,8.48-0.02,11.35-0.8c10.89-2.98,12.66-3.38,14.8-5.23
		C682.9,586.35,696.09,581.42,691.49,574.16z M668.89,562.18c0.79,1.8,1.67,3.81,2.47,5.64c-8.42,0-8-1.95-16.08-3.97
		C659.55,561.88,664.02,562.25,668.89,562.18z M639.04,553.91c1.53,0.77,1.94,2.01,2.75,2.92c4.58,5.14,1.73,2.56,0.27,11.54
		c-0.25,1.53,2.28,3.52,4.67-0.94c0.96-1.78,0.68-2.28,1.93-4.41c2.53,0.12-1.28,4.86-0.48,8.1c0.24,0.96,1.35,1.34,2.1,0.72
		c1.34-1.1,1.66-2.44,3.07-6.08c3.65-0.02-1.88,6.05,0.86,7.17c2.68,1.1,2.31-5.46,4.57-5.19c0.68,0-0.65,3.71,0.27,4.94
		c0.77,1.03,2.06,0.54,2.43-0.4c1.47-3.75-0.14-3.24,2.61-2.45c-0.16,2.88-0.26,3.6,0,4c0.91,1.42,2.16,1.43,2.9-0.79
		c0.88-2.67-0.44-2.44,5.46-2.04c12.85,0.85,9.31-1.58,12.76-0.52c1.36,1.85,2.91,3.71,3.82,5.94c1.77,4.32-8.81,8.98-9.7,10.05
		c-3.87,4.7-22.35,6.88-28.47,7.42c-5.55,0.49-9.47-1.83-12.56-0.85c-1.33,0.42-2.63,1.21-4.19,0.32
		c-1.04-0.59-4.97,2.27-14.88,3.62c-2.67,0.37-15.54-3.49-15.56-3.39c1.57-9.17,4.82-15.56,4.49-24.31
		c-0.25-6.87,3.43,3.21,15.49,4.45c5.81,0.6,8.27-3.28,10.89-5.06c3.56-2.43,1.4-6.48,1.3-7.24
		C635.35,557.7,636.55,557.11,639.04,553.91z M621.32,544.24c0.16-1.6,5.38,5.68,10.66,8.18c1.23,0.58,2.22,1.44,3.43,2.29
		c-0.39,0.69-0.71,1.25-1.02,1.79C634.02,556.44,620.92,548.22,621.32,544.24z M539.8,463.02c-11.67,0.55-7.74,5.84-15.77,8.77
		c-1.64,0.6-13.44,7.69-27.93,16.92c-0.04-0.05-0.02-0.02-2.43-2.54C502.55,476.96,538.18,454.37,539.8,463.02z M454.64,525.89
		c7.47-15.01,3.03-11.82,7.25-15.24c4.15-3.36,5.91-3.19,12.04-8.22c19.93-16.35,16.88-15.79,19.9-12.77
		c-0.06,0.3-16.77,16.84-18.02,17.99c-4.81-1.2-6.34,1.32-2.08,2.39c-7.51,9.13-5.16,7.51-7.86,4.72c-0.43-0.44-1.13-0.91-2.13,0.09
		c0.08,0.89,0.61,1.82,1.03,2.54c2.99,5.11-1.23,3.87-8.8,7.95C455.3,525.72,454.69,525.79,454.64,525.89z M437.53,531.69
		c0.46-2,0.99-4.12,2.74-3.03c-1.04,5.2-1.3,10.55-2.99,15.27c-0.95,0.32-2.51,0.41-2.69,2.1c-0.1,0.05,0.22,7.64-2.35,11.43
		C431.68,556.31,431.04,559.7,437.53,531.69z M431.42,561.62c0-1.42-0.09-1.18,0.36-1.17C431.69,561.84,431.8,561.63,431.42,561.62z
		 M432.27,578.62c-0.03-0.11-0.1-0.26-0.07-0.29c0.1-0.09,0.43-0.38,0.45-0.28C432.71,578.33,432.82,578.19,432.27,578.62z
		 M358.35,493.97c4.07-0.02,11.04,2.3,15.03,4.49c0.91,2.42,0.53,2.09,2.28,4.2c0.22,0.26,0.94,0.55,0.26,0.32
		c-0.19-0.29-4.75-1.54-4.69-1.44c0.4,0.75,0.22,1.25,2.76,2.03c3.7,1.12,3.71,3.76,6.94,3.51c0.65-0.05-0.83-0.76,7.76,6.95
		c2.55,2.29,1.03,2.54,4.92,3.68c16.96,4.95,25.44,2.74,42.81,12.46c-1.68,2.93-1.35,2.54-1.45,2.53
		c-8.47-0.6-10.85-0.33-12.44,2.42c2.25,0.63,6.44-1.18,10.82-0.42c3.47,3.24-6.75,14.6-5.54,33.16c0.16,2.48,1.06,8.63,1.14,11.7
		c0.1,3.56,0.88,3.43,1.56,5.28c-0.38,1.35-7.01,0.81-7.41,0.76c-40.28-4.44-69.76,3.79-104.17-35.59
		c-4.12-4.71-11.11-18.97-11.61-27.48c-0.13-2.25,10,18.68,35.57,19.52c9.94,0.33,15.94-5.56,22.03-12.33
		c2.48-2.76,2.89-6.52,2.89-10.24c1.34-1.21,3.64-0.57,4.11-2.7c-1.46-1.3-3.33-0.66-5.15-1.45c-2.8-4.24-5.41-8.99-9.8-12.46
		C358.61,490.72,358.35,494.82,358.35,493.97z M308.26,496.05c0.05,0.03,0.15,0.07,0.15,0.1
		C308.41,496.42,308.09,496.62,308.26,496.05z M311.02,496l-0.06-0.23C311.21,495.81,311.18,495.75,311.02,496z M321.07,440.14
		c-0.28-2.39-1.48-4.69-0.49-7.23c0.34-0.87,0.2-2.02-0.02-2.98c-0.91-3.93,1.57-2.43,0.85-10.58c-0.08-0.92-0.7-6.21-1.36-6.88
		c-4.31-4.36,2.46-62.49-1.71-66.66c-0.24-0.19-4.1-9.65-4.2-9.76c-1.28-0.8-2.1-4.72-2.47-6.34c2.16,0,1.45,0.89,2.34,6.19
		c1.95,0,5.34,6.37,6.2,8.16c-1.99,2.69-2.15,1.67,1.51,3.69c0.64,1.58,2.91,33.47,1.6,40.99c-1.73,9.95-2.62,19.9,0.53,30.94
		c1.88,6.62-0.34,6.65,0.76,12.2c0.54,2.7-0.02,3.37-2.07,8.86C322.48,440.84,321.18,441.06,321.07,440.14z M333.89,281.27
		c23.32,2.77,31.38,33.71,10.24,45.98c-2.69,1.55,1.38-5.44-6.13-18.24c1.02-5.9-1.78-9.19-6.13-9.58c-4.68-0.42-7.9,5.46-7.8,5.47
		c-2.53-0.34-2.13-1.79-6.15,7.92c-1.31,3.16-0.85,4.08-1.31,12.25c-0.02,0.41-0.67,0.97-0.57,1.03
		C294.49,313.25,307.19,278.1,333.89,281.27z M331.32,306.74c-1.61-4.1-2.6-2.46-5.11-1.2c0.01,0.04,0.01,0.08,0.02,0.12
		c-0.97,2.11-0.13-5.04,5.32-4.72c4.12,0.24,6.83,4.51,4.67,7.85C333.42,305.71,334.54,306.15,331.32,306.74z M338.22,350.37
		c-3.55-0.39-0.17,2.57,2.43,16.27c4.32,22.88,7.78,18.32,9.17,53.39c0.59,15.35,2.08,21.1,2.56,24.03
		c3.08,6.15,0.97,19.87,3.12,29.21c0.37,1.59,0.5,11.04-0.17,15.09c-0.27,1.61-0.38,1.22-1.51,0.77c-1.84,3.9,1.57,0.24-4.57,19.78
		c-0.6,1.9-1.32,5.26-0.61,7.32c0.45,1.31,3.08-7.64,4.71-11.88c0.05-0.12,0.13,0.55,0.62,2.34c2.5-1.36-0.79-10.26,10.08,7.49
		c-3.6,0-9.05-4.44-10.02-1.77c-0.72,1.96,2.67,3.17,11.57,6.45c0.11,0.04,1.45,4.62-1.12,7.9c-2.35,3-5.02,5.74-7.58,8.56
		c-13.27,14.62-58.3-9.49-51.36-32.19c0.87-2.84,5.09-2.12,6.91-6.55c0.81-1.94-1.03-2.37,0.03-5.13c1.83-4.78-0.83-3.01,2.13-7.22
		c1.68-2.39,4-4.98,4.19-6.04c0.52-2.89,2.23-4.79,4.72-6.15c0.51-0.69-0.33-1.62,0.62-2.4c3.55-2.89-4.04-13.23,2.78-31.7
		c2.34-6.35,1.24-5.05,0.34-6.42c-0.87-1.32,0.29-4.63-1.04-6.88c-0.05-0.09-0.05-0.22-0.04-0.33c0.83-6.92-4.01-17.6-1.95-27.33
		c4.22-19.93,2.27-17.46,1.98-20.17c-2.95-27.67-1.63-30.3-6.44-36.7c-0.49-0.65-5.66-4.64-4.04-8.13c1.39,0.23,2.51,0.65,2.31-0.33
		c-2.52-12.34,5.87-30.52,5.98-24.42c0.24,12.07-2.74,6.22-1.75,18.23c0.08,0.98,1.12,1.06,1.25,1.1c1.29-2.67-0.29-8.16,3.13-14.34
		c3.52-0.58-0.99-0.92,1-5.75c0.14-0.33,0.59-0.53,1.06-0.93c4.24,6.09-0.72,16.91,1.01,22.09c0.02,0.1,0.57,1.14,1.09-0.31
		c1.76-4.87,0.01-6.2,0.69-7.43c1.75-3.17-0.81-12.53,2.25-12.09c1.14,2.7,1.8,5.81,1.79,8.36c-3.39,1.85-3.52,1.2,0.34,1.96
		c1.01,0.2-0.96,8.63,0.54,11.67c0.05,0.1,0.88-0.04,0.76-0.82c-0.41-2.57,0.37-1.87,0.5-5.95c0.17-5.14-0.56-4.15,1.33-4.87
		c-0.56-0.48-1.09-0.78-1.39-1.27c-0.59-0.97-1.08-5.97,0.66-3.29c4.84,7.45,2.17,11.37,3.65,19.72
		C342.42,336.04,341.61,337.6,338.22,350.37z M348.47,284.01c11.86,8.32,15.69,25.52,6.04,38.78c-3.7,5.08-10.11,8.9-10.61,8.2
		c-0.21-0.3-0.78-1.2-0.79-1.22c6.99-4.58,11.98-8.94,13.99-17.74c7.55-33.06-41.24-45.26-51.87-14.55
		c-2.96,8.55-1.4,19.11,5.5,26.21c4.09,4.2,5.98,4.21,5.2,5.78C283.57,310.91,315.8,261.09,348.47,284.01z M302.92,317.36
		c-1.25-0.02-11.03-17,3.08-30.92c3.94-3.89,8.87-5.55,8.87-5.43c-0.21,1.24-6.62,3.86-10.9,12.6
		C299.16,303.44,301.85,317.05,302.92,317.36z M300.59,290.16l0.01-0.01c-0.21-3.79,13.21-15.89,26.92-13.21
		c0.1,0.02-3.05,0.57-3.16,0.58c-13.84,2.18-12.31,2.01-22.33,10.71c-0.34,1.95-1.46,1.76-1.44,1.94c-0.1,0.07,0.05,0.3-0.45,1.65
		c-5.38,14.59-4.24,22.17,9.73,35.4c1.92,1.82-10.15-2.52-13.34-18.27C294.26,297.7,300.57,290.26,300.59,290.16z M318.6,440.28
		c-1.73,3.26-1.27,2.64-3.14,3.38c-0.09,1.02,0.5,1.63,1.38,1.64c2.36,0.01,2.76-1.94,3.27-2.93c0.55,0.27,1.3,0.64,1.68,0.83
		c-1.26,14.3,1.18,20.79,0.69,22.85c-2.02,8.57-10.36,8.95-14.05,26.25c-0.62,2.91-1.37-0.42-5.46,10.49
		c-6.35-5.76-5.24-11.5-8.23-15.62c-0.37-0.51-0.97-2.95-0.87-2.95c3.69-1.68,0.5,0.68,7.74-3.11c4.69-2.47,1.68-5.31,4.57-3.89
		c3.72,1.85,9.38-0.41,8.02-2.11c-7.89,1.57-1.63,0.83-9.82-0.12l-0.45,0.95c-2.41-0.12-1.24,0.2-1.73,1.93
		c-0.25,0.89-2.7,2.78-5.05,3.05c-3.37,0.39-5.41,2.77-8.5,1.51c1.41-0.59,3.06-0.34,4.07-1.54c-0.38-0.95-0.99-0.49-1.71-0.44
		c-1.61,0.1-1.71-1.38-1.61-1.45c2.06-1.19,4.34,0.76,4.71-0.07c0.32-0.71-0.78-1.06-0.53-1.24c1.6-1.15,1.7,2.64,3.72-0.42
		c1.79-2.72,0.55-5.28-2.65-2.77c-1.37,1.07-1.81,0.96-3.16-0.77c1.4-2.33,1.51-2.05-5.51-0.56c-1.51,1.22,2.24-1.82,3.51-2.85
		c3.13-0.15,5.98,1.01,9.12-0.01c-1.82-2.1-1.38-2.05-1.49-1.95c8.39-7.15-4.42,7.46-10.02-17.5c-1.47-6.54-1.01-5-1.36-6.61
		c-0.49-2.23-2-3.5-2.09-3.37c1.68-2.3,3.45-4.01,2.57-6.94c-2.06,1.06-1.62,0.73-1.64,0.83c1.51-5.44,0.51-4.05,4.16-6.41
		c5.49,2.61,9.68,2.63,10.81,2.89c5.12,1.18,1.55,5.07,7.69,5.5C313.04,437.18,320.95,435.87,318.6,440.28z M283.38,475.17
		c0.52-1.96,0.78,0.19,2.27,1.54c1.13,1.03,1.59,2.39,2.17,3.7c0.16,0.35,0.02,0.83,0.02,2.09
		C284.49,478.78,283.34,475.31,283.38,475.17z M274.56,483.57c-0.57-0.36-1.07-0.04-1.13-0.59c-0.03-0.39,0.56-0.64,0.81-0.12
		c0.15,0.32-0.03,0.52,0.15,0.49C274.55,483.55,274.56,483.57,274.56,483.57z M273.19,471.75c0.87-1.1,0.46-0.9,1.53-0.75
		C274.73,472.01,273.43,471.75,273.19,471.75z M278,441.65c-0.04-0.04,0.1-0.28,0.15-0.43c0.18,0.06,0.36,0.11,0.54,0.17
		C278.52,441.85,278.48,442.07,278,441.65z M277.5,475.58c-0.23,0.13-0.46,0.33-0.5,0.29C276.45,475.42,276.15,474.67,277.5,475.58z
		 M280.83,441.02c0.1-0.1,0.01,0.05,0.21,1.75c0.14,0.17,0.11,0.08,0.13,0.42c0,0.17,0.08-0.13-0.4-0.76
		C280.41,441.96,280.3,441.64,280.83,441.02z M280.48,457.77c-0.02-0.15,0.73-0.8,0.27,0.44
		C280.65,458.06,280.49,457.89,280.48,457.77z M282.76,485.09c0.79,0.67,0.69,0.49,0.36,0.88
		C282.44,485.26,282.58,485.37,282.76,485.09z M284.69,463.73c0.18,0.1,0.18,0.02,0.1,0.34
		C284.61,463.97,284.61,464.07,284.69,463.73z M289.74,474.12c0.1,0-0.41-0.45,2.7,2.95c-4.74-0.25-3.95-0.11-4.03-0.21
		C286.59,474.49,286.29,475.15,289.74,474.12z M286.06,456.27c-0.26-0.65-0.24-0.47,0-0.72
		C286.35,456.23,286.32,456.03,286.06,456.27z M283.14,446.92c0.8,1.98,0.81,1.98,0.5,4.12
		C282.66,449.68,283.04,448.42,283.14,446.92z M282.76,436.78c0.07,0.28,0.1,0.24-0.06,0.24L282.76,436.78z M282.74,472.56
		c0.34,0.12,1.14,0.13-0.47,1.03C281.6,473.97,281.29,472.06,282.74,472.56z M282.21,432.22c-0.12,1.9-0.79,3.19-1.64,4.46
		C280.89,434.17,280.98,433.92,282.21,432.22z M280.31,461.99c0.37-0.27,0.76,0.51,0.19,0.49
		C280.39,462.47,280.03,462.19,280.31,461.99z M279.12,419.38c-1.02,0.09-0.92-0.58-1.23-0.93
		C279.23,417.87,278.76,418.87,279.12,419.38z M274.35,426.84c0.17-0.07,0.05-1.05,0.36-1.34c0.48-0.45,2.55,0.94,2.99-1.25
		c-0.02,0-0.05-0.01-0.05-0.01c-0.07-0.28-0.11-0.31,0.07-0.07c-0.09,0.4,1.27-0.63,1.25,2.12c-2.98-0.33-2.15-0.49-4.54,0.51
		C274.42,426.93,274.02,427.34,274.35,426.84z M273.32,429.48c0.1-0.08,0.25,0.08,0.11,0.45
		C273.15,429.57,273.13,429.64,273.32,429.48z M274.72,445.59c0.98,1.25-0.31,1.43-2.69,2.42
		C271.72,446.97,271.97,447.24,274.72,445.59z M271.55,472.13c0.03,0.11,0.06,0.22,0.08,0.33
		C271.64,472.56,270.9,472.33,271.55,472.13z M269.94,478.51c-0.06-0.16,0.3-0.46,0.64-0.93c0.82,1.17,1.12,1.26,0.83,1.98
		C270.89,480.9,269.79,478.09,269.94,478.51z M268.4,434.04c-0.78,0.26-0.54,0.3-0.83-0.32
		C267.95,432.97,268.06,433.47,268.4,434.04z M269.42,456.87c-0.23,0.6-1.32,0.94-1.82-0.28
		C266.7,454.38,270.21,454.82,269.42,456.87z M262.77,460.36c2.13-0.51,1.97-0.56,1.93,0.07c-0.08,1.13-1.45,1.07-1.35,2.55
		C261.56,460.84,260.99,460.79,262.77,460.36z M260.3,467.5c1.14,1.75-0.44,0.38-0.21,0.18C260.14,467.64,260.21,467.58,260.3,467.5
		z M260.02,472.01c-0.15,0.43-0.4-0.04-0.12-0.25C259.94,471.84,259.98,471.93,260.02,472.01z M256.77,462.84
		c0.02-0.01,0.05-0.02,0.05-0.02c0.95,0.49,0.71,0.5,0.23,0.93C256.49,462.92,256.53,462.98,256.77,462.84z M254.41,456.18
		c0.49,0.74,0.5,0.51-0.01,1.05C253.9,456.3,254.41,456.52,254.41,456.18z M532.69,546.36c0.82,0.99,2.9,1.04-8.49,7.67
		c-17.47,10.16-9.44,4.85-10.95-0.58c-0.45,0.24-0.97,0.33-1.08,0.6c-1.41,3.44-2.71,6.87-0.43,8.61
		c-2.12,2.82-2.52,8.79-7.42,11.97c-4.25,2.74-11.01,6.55-9.12,11c-4.08,5.1-2.72,4.02-17.87,5.49c-9.43,0.92-5.44,1.45-8.15,1.41
		c-23.57-0.33-13.26-1.64-15.57-3.08c-1.45-0.9-5.28-1.51-8.26-5.71c-1.92,0.11-2.28-0.92-6.14-2.28c-0.58-0.21-1.07,1.2-1.17,1.12
		c2.92,2.09,6.38,3.44,8.8,6.34c-5.84-2.25-5.95-2.77-7.5-2.35c-0.23,0.06,0.56,0.08-2.77-1.57c-0.5-5.38-0.31-0.86-0.52-12.59
		c-0.14-6.78-3.26,0.47-3.34,0.57c0-4.11,2.13-12.62,3.09-14.93c0.02-0.04,0.09-1.82,0.3-2.66c0.25-0.99,0.91-1.1,1.02-2.01
		c0.1-0.77-0.24-1.15-0.22-1.65c0.1-2.05,1.14-1.29,1.52-1.31c0.94-0.02,1.74-0.57,1.42-1.39c-1.19-3,4.74-15,1.49-20.62
		c3.85-1.75,3.54,0.19,3.54,1.06c0.02,2.39-0.83,1.37-0.52,3.83c4.98-3.88,1.47-6.99,8.93-5.57c3.74,0.71,6.48-1.45,7.93-2.02
		c5.6-2.19,5.02-4.38,8.05-7.27c32.77-31.28,26.52-35.88,40.32-10.72c4.05,7.39,6.82,14.29,8.37,17.87
		c-6.84,0.36-55.05,50.84-8.32,8.27C521.71,522.89,516.37,526.67,532.69,546.36z M529.78,531.92c-0.48,0.99-0.76,2.13-1.85,2.7
		c-11.77-10.69-5.31-16.16-26.16-44.78c6.63-6.14,29.96-20.35,30.56-20.57c0.64-0.24,0.19-3.32,4.43-3.9
		c19.39-2.68,14.72,0.26,29.41,13.29c1.72,1.53,3.99,2.3,5.19,5.53c0.56,1.49,2.67,3.66,3.19,4.63c3.82,7.2,7.14,6.38,13.37,15.39
		c22.39,32.33,18.94,30.95,37.1,48.95c10.5,10.41,8.37-0.17,8.84,11.88c-5.44,6.05-9.78,8.71-14.83,5.7
		c-4.56-2.71-9.16-7.67-8.73-7.23c-11.83-11.91-28.55-20.45-30.18-24.05c-0.71-1.56,1.08-0.76-4.9-4.32
		c-12.4-7.39-7.09-5.49-10.91-7.11c-4.73-2.02-8.85-3.7-11.84-11.06c-5.82-14.33-4.18-16.23-6.81-15.96
		C545.67,507.66,535.55,519.96,529.78,531.92z M548.39,515.25c-2.24-2.07-3.04-3.86-3.07-3.76c0.69-2.76,1.23-4.18,2.17-1.51
		C550.24,517.73,550.61,517.3,548.39,515.25z M591.42,577.28c1.49-2.64,0.71-5.41,1.33-6.51c2.1-3.7-0.99-6.73,2.48-15.16
		c15.01,10.06,11.39,9.45,10.72,12.12c-0.23,0.92-0.84,8.02-2.35,13.19c-2.56,0-9.99-0.45-12.01-1.38
		C591.11,578.81,590.99,578.02,591.42,577.28z"/>
	<path d="M550.39,496.2c-0.08-0.16-0.73-0.59-0.63-0.62c-2.24,0.76-9.04,4.85-7.64,5.7C544.82,502.91,550.9,496.71,550.39,496.2z"/>
	<path d="M321.41,227.24c2.25,1.3,4.47-7.95,1.02-10.55c-0.98,3.34-0.3,6.69-1.46,9.75C320.89,226.63,321.18,227.1,321.41,227.24z"
		/>
	<path d="M322.66,192.24c-0.31,2.04,0.8,2.36,1.48,1.97c1.31-0.74,1.44-1.16,1.33-6.5c-0.02-0.88-0.52-1.87-1.53-2.45
		C321.28,183.74,323.4,187.41,322.66,192.24z"/>
	<path d="M309.06,139.4c1.37,9.87-0.4,9.27,0.83,9.77c1.89,0.77,2.7-1.83,2.74-3.37c0.05-2.02-0.72-2.05-2.48-6.05
		C310.1,139.61,309.17,139.4,309.06,139.4z"/>
	<path d="M323.61,145.82c2.12,0.44,2.74-2.85,3.05-4.99c0-0.25,0.04-0.26-0.57-1.14C324.75,137.76,322.53,145.59,323.61,145.82z"/>
	<path d="M304.96,242.81c2.01,1.45-0.38-3.29-3.97-6.35C299.11,237.35,303.28,241.59,304.96,242.81z"/>
	<path d="M315.02,143.08c-1.5,4.98,4.02,2.91,1.95-3.17C315.12,140.57,315.35,141.99,315.02,143.08z"/>
	<path d="M343.13,224.19c1.14-1.82-1.41-4.9-3.28-3.74C340.83,221.76,341.61,223.18,343.13,224.19z"/>
	<path d="M346.42,227.58c0.42,3.89,3.8,3.53,2.3,0.81C348.14,227.33,346.27,226.17,346.42,227.58z"/>
	<path d="M320.17,212.63c0.76,4.39,3.51,0.28,0.95-1.59C320.27,211.95,320.08,212.11,320.17,212.63z"/>
	<path d="M300.49,58.89c0.84-0.67-0.31-0.94-3.56-2.23C295.54,57.85,299.33,59.81,300.49,58.89z"/>
	<path d="M313.68,118.46c-0.01,2.14,1.53,2.2,1.75,0.88C315.99,115.99,313.69,115.96,313.68,118.46z"/>
	<path d="M316.74,135.23c-0.57-0.51-2.17,0.72-0.58,3C316.51,138.73,318.08,136.44,316.74,135.23z"/>
	<path d="M307.03,58.08c-1.77,0.95-1.08,0.84-3.12,0.31C298.75,57.03,307.68,62.56,307.03,58.08z"/>
	<path d="M316.86,129.89c-0.17-2.84-2.94,0.28-1.04,2.38C316.5,133.01,316.95,131.38,316.86,129.89z"/>
	<path d="M315.23,123.23c-0.83,2.39-0.81,2.54,0.6,3.76C316.46,126.13,316.54,124.71,315.23,123.23z"/>
	<path d="M299.38,61.85c-0.67-0.1,2.08,2.17,2.5,2.6C301.88,61.86,300.62,61.94,299.38,61.85z"/>
	<path d="M316.35,89.09c0.56-0.04,0.47,0.29,0.28-1.8c-0.07-0.73,0.1-1.31-0.89-0.47C315.23,87.25,315.54,89.15,316.35,89.09z"/>
	<path d="M306.47,40.03c-2.3-0.18-1.65-0.31-2.26,0.64C307.55,41.69,306.11,40,306.47,40.03z"/>
	<path d="M344.54,225c0.11,0.42,2.32,3.41,1.86,0.44C346.19,224.09,344.18,223.66,344.54,225z"/>
	<path d="M346.37,226.92c-0.09-0.09-0.1-0.11-0.1,0.09C346.38,226.92,346.38,227.12,346.37,226.92z"/>
	<path d="M321.15,181.22c0.03,1.19,0.03,1.19,0.92,2.32C322.42,182.01,322.42,182.01,321.15,181.22z"/>
	<path d="M316.48,92.57c-0.28,0.6-0.27,1.12,0.15,1.65C318.03,95.98,317.12,91.2,316.48,92.57z"/>
	<path d="M320.2,179.39c0.78-0.15-0.28-1.34-0.58-1.75c-0.28,0.38-0.58,0.63-0.58,0.85C319.06,179.05,319.42,179.54,320.2,179.39z"
		/>
	<path d="M319.21,208.47c0.28-0.21,0.7-0.24-0.58-0.97c-0.5-0.28-0.88,0.38-0.85,0.48C318.49,209.41,318.39,209.09,319.21,208.47z"
		/>
	<path d="M315.99,84.96c0-0.67,0-1.26,0-1.98C314.69,84.09,314.69,84.09,315.99,84.96z"/>
	<path d="M308.15,137.57c0.91,1.16,1.92-1.27,0.03-1.33C308.12,136.72,307.93,137.28,308.15,137.57z"/>
	<path d="M313.78,110.44c-0.29,0.51-0.67,0.95-0.63,1.3C313.3,112.87,315.33,112.22,313.78,110.44z"/>
	<path d="M298.56,40.76c0.1,0.07,0.52-0.11,0.52-0.17c0-0.26-0.05-0.7-0.19-0.74C298.65,39.76,297.18,39.86,298.56,40.76z"/>
	<path d="M315.87,203.66c-0.41,0-0.52,0.63-0.52,0.53c0,0.22,0.28,0.45,0.43,0.68c0.23-0.17,0.46-0.33,1.01-0.74
		C316.4,203.91,316.13,203.66,315.87,203.66z"/>
	<path d="M317.15,172.68c-0.27-0.15-0.2-0.15-0.87,0.64c0.74,0.3,1.07,0.65,1.06-0.46C317.34,172.81,317.25,172.74,317.15,172.68z"
		/>
	<path d="M307.99,244.19c0-0.1-0.27-0.47-0.53-0.25c-0.02,0.02-0.03,0.04-0.03,0.04C307.63,244.69,307.67,244.48,307.99,244.19z"/>
	<path d="M302.24,64.75c-0.21-0.1-0.49-0.28-0.25,0.43c0.07,0.22,0.4,0.17,0.39,0.27C302.42,65.09,302.58,64.91,302.24,64.75z"/>
	<path d="M301.98,64.56C301.88,64.65,301.88,64.65,301.98,64.56C301.78,64.35,301.98,64.82,301.98,64.56z"/>
	<path d="M310.61,60.46c0-0.22-0.09-0.17-0.25-0.21C310.26,60.25,310.44,60.32,310.61,60.46z"/>
	<path d="M310.62,60.61c0.56,0.06,0-0.16,0-0.12C310.61,60.53,310.61,60.57,310.62,60.61z"/>
	<path d="M440.11,228.15c0.6,2.39,1.3-0.38,8.72,4.04c6.9,4.11,6.32,5.33,6.47,2.96C455.52,231.5,439.52,224.21,440.11,228.15z"/>
	<path d="M445.86,223.61c10.27,8.95,27.09,3.78,14.14,3.42C450.54,226.76,443.07,221.17,445.86,223.61z"/>
	<path d="M470,192.65c-1.69-0.83-1.46-1.12-4.44-2.76c-0.95,1.01-1.08,1.46-0.61,2c1.13,1.28,2.48,2.32,4.12,2.75
		c4.04,1.05,4.14,4.15,7.4,4.64C473.84,192.64,471.36,193.31,470,192.65z"/>
	<path d="M459.27,209.12c1-0.62,0.52-0.74-0.15-1.82c-3.59-5.86-1.55-12.81-2.98-11.99C453.08,197.05,456.76,210.65,459.27,209.12z"
		/>
	<path d="M470.15,228.67c-12.73,3.17-12.84,0.18-15.85,2.45C469.71,233.01,476,227.21,470.15,228.67z"/>
	<path d="M478.95,249.3c-0.87,0.09-0.82,0.25-2.18,0.88c4.37,1.22,8.3,0.79,12.21,0.96c0.64,0.03,1.09-0.12,1.38-0.88
		C488,249.58,481.48,249.03,478.95,249.3z"/>
	<path d="M473.96,203.89c-2.61-5.15-4.79-2.78-4.01-1.46c3.97,6.72,2.99,5.25,4.54,6.31C474.66,208.24,475.59,207.12,473.96,203.89z
		"/>
	<path d="M460.7,202.91c1.96,7.41,2.69-4.08-2.42-9.5c-0.07-0.07-0.4,0.07-0.78,0.15C458.1,196.17,458.75,195.54,460.7,202.91z"/>
	<path d="M480.52,222.54c-2.97,3.32,4.75-0.5,9.3-6.47C486.93,217.5,482.48,220.35,480.52,222.54z"/>
	<path d="M449.11,200.29c-0.3,0.07-1.08,0.6-1.08,0.97C448.37,219.23,451.53,199.75,449.11,200.29z"/>
	<path d="M494.18,233.84c2.02,1.04,0.13,1.23,8.21-0.24C504.35,233.26,501.07,230.79,494.18,233.84z"/>
	<path d="M478.51,180.56c4.12,0.11,5.58-1.69,4.75-1.96c-1.75-0.56-3.48-0.32-5.06,0.53C477.57,179.46,477.93,180.54,478.51,180.56z
		"/>
	<path d="M515.63,206.2c-0.85-0.07-1.84,1.84-0.29,3.93C516.11,209.07,516.91,206.3,515.63,206.2z"/>
	<path d="M462.52,246.63c1.62,1.26,2.28,1.65,3.93,1.22C464.76,246.29,464.76,246.29,462.52,246.63z"/>
	<path d="M514.96,212.81c-0.66-1.6-2.89,0.87-0.8,2.8C515.06,214.81,515.42,213.92,514.96,212.81z"/>
	<path d="M445.27,222.72L445.27,222.72C441.35,217.7,441.15,221.71,445.27,222.72z"/>
	<path d="M445.37,222.85c0.21,0.07,0.16-0.06-0.1-0.13L445.37,222.85z"/>
	<path d="M442.06,220.19c-0.01-0.03-0.03-0.05-0.04-0.08C441.93,220.21,441.96,220.15,442.06,220.19z"/>
	<path d="M440.89,219.34c0,0.37-0.07,0.37,0.57,0.59C442.5,220.28,440.9,218.57,440.89,219.34z"/>
	<path d="M441.97,220.16c0.09-0.1,0.06-0.05-0.05-0.09C441.93,220.09,441.96,220.15,441.97,220.16z"/>
	<path d="M564.99,165.46c-0.64-1.37-2.98-4.13-5.4-5.59c-2.74-1.65-5.12,1.21-2.86,2.47C559.22,163.74,566.21,168.06,564.99,165.46z
		"/>
	<path d="M548.79,158.93c-7.47,4.59-5.85,3.66-6.93,5.43c0.38,0.13,0.83,0.49,1.1,0.42C551.57,162.44,550.39,157.95,548.79,158.93z"
		/>
	<path d="M569.52,147.49c-1.07-0.79-2.22-0.95-3.59-0.37C567.12,150.35,573.28,150.29,569.52,147.49z"/>
	<path d="M550.28,156.35c-1.7,0.79-0.6,3.87,1.93,2.23C553.69,157.62,552.22,155.44,550.28,156.35z"/>
	<path d="M549.78,158.9L549.78,158.9C549.65,158.78,549.63,158.76,549.78,158.9z"/>
	<path d="M556.22,135.2c-0.37-1.27-3.84-1.48-4.72-1.36C549.66,134.11,556.85,137.39,556.22,135.2z"/>
	<path d="M624.48,223.84c0.18,0.1,0.58-0.15,1.36-0.39c-0.85-0.93-3.14-4.29-3.98-3.28C621.59,220.49,621.97,222.42,624.48,223.84z"
		/>
	<path d="M539.2,165.72c-1.4,0.46-1.82,1.56-2.04,2.99C540.44,169.08,539.54,165.55,539.2,165.72z"/>
	<path d="M566.94,167.16c-0.68-0.44-1.5-0.86-1.61-0.93c-0.8,1.67-0.76,1.3-0.37,1.7C567.17,170.17,568.13,167.93,566.94,167.16z"/>
	<path d="M565.38,166.12c-0.04,0-0.08,0-0.13,0c0.01,0.03,0.02,0.05,0.03,0.07C565.39,166.26,565.28,166.2,565.38,166.12z"/>
	<path d="M534.21,170.77c-0.85,1.14-0.14,1.33,0.42,2.05c0.08,0.1,1.27-1.61,1.33-1.71c0.15-0.24,0.1-0.6,0.19-1.23
		C535.42,169.95,534.66,170.17,534.21,170.77z"/>
	<path d="M606.15,219.96c1.69-0.83-1.37-2.65-1.65-2.85C604.5,217.3,604.06,220.98,606.15,219.96z"/>
	<path d="M600.92,211.7c-0.53-0.38-0.91-0.71-1.33-0.93C598.88,210.4,598.68,213.54,600.92,211.7z"/>
	<path d="M569.24,169.71c-0.92,0.52-0.08,1.57,0.92,1.21C570.93,170.66,570.2,169.17,569.24,169.71z"/>
	<path d="M562.25,145.94c-0.15-0.23-0.42-0.4-0.77-0.7c-0.26,0.73-0.63,1.18,0.48,1.2C562.06,146.44,562.3,146.02,562.25,145.94z"/>
	<path d="M602.07,214.4c0.76-0.53-0.61-1.47-0.8-0.62C601.18,214.15,601.77,214.61,602.07,214.4z"/>
	<path d="M535.68,131.36c0.65,0.7,0.41,0.58,0.96,0.24C536.06,130.82,536.29,130.83,535.68,131.36z"/>
	<path d="M572.91,173.27c-0.15,0.12-0.21,0.02,0.34,0.44c0.16-0.11,0.33-0.21,0.5-0.32C573.33,173.08,573.37,172.9,572.91,173.27z"
		/>
	<path d="M404.59,194.56c7.2,0.21,11.54,1.92,11.78,0.91C404.82,191.33,393.24,194.23,404.59,194.56z"/>
	<path d="M378.2,199.38c-1.85-5.25-10.08-6.3-5.91-3.4C376.86,199.15,379.94,204.32,378.2,199.38z"/>
	<path d="M351.9,207.64c-2.37,2.45-0.69,3.39,0.45,2.66C355.31,208.41,353.96,205.51,351.9,207.64z"/>
	<path d="M378.6,216.77c1.31-0.87,1.39-2.26,2.2-3.76C378.15,212.53,377.13,215.78,378.6,216.77z"/>
	<path d="M421.45,243.11c-1.67-0.17-3.87,2.27-0.15,1.53c0.71-0.14,1.45-0.43,2.25-1.14C422.85,243.35,421.99,243.16,421.45,243.11z
		"/>
	<path d="M383.58,221.17c-2.15,4.11,3.24,2.01,0.79-1.14C384.02,220.43,383.76,220.81,383.58,221.17z"/>
	<path d="M383.26,206.51c-1.31-2.47-1.34-2.49-3.37-2.55C380.35,205.41,381.42,205.92,383.26,206.51z"/>
	<path d="M355.48,203.53c-3.38,1.29-1.17,3.62,0.55,1.2C356.26,204.41,355.96,203.35,355.48,203.53z"/>
	<path d="M387.61,211.93c-0.35,1.34,0.49,1.92,1.73,2.54C389.51,212.35,388.74,211.77,387.61,211.93z"/>
	<path d="M384.16,208.43c0.46,1.55,0.99,2.27,1.97,2.76C386.39,209.74,386.4,209.73,384.16,208.43z"/>
	<path d="M372.14,234.11c-1.29-1.35-3.67-0.01,0.1,1.11C372.37,234.49,372.59,234.59,372.14,234.11z"/>
	<path d="M422.03,205.98c2.07,0.24,3.63-1.36,1.91-1.37C423.19,204.6,422.61,205,422.03,205.98z"/>
	<path d="M375.42,218.33c-0.55,0-0.77-0.02-0.62,2.26C376.62,220.37,376.16,218.39,375.42,218.33z"/>
	<path d="M392.23,214.99c-1.5,0.43-0.07,2.81,1.34,1.16C393.44,215.32,392.88,214.81,392.23,214.99z"/>
	<path d="M417.11,207.93c-0.74,1.08,1.72,1.34,1.7-0.46C418.19,207.4,417.57,207.26,417.11,207.93z"/>
	<path d="M395.13,193.43c2.02,0.76,2.02,0.76,3.3-0.13C397.28,192.9,396.24,192.85,395.13,193.43z"/>
	<path d="M380.37,225.01c-0.55-0.01-0.96,0.68-0.77,1.19C380.25,227.88,381.88,225.02,380.37,225.01z"/>
	<path d="M356.09,199.61c-0.38,0.46-0.79,0.87-0.72,1.04c0.23,0.55,0.25,0.41,1.33-0.11C356,199.46,356.2,199.5,356.09,199.61z"/>
	<path d="M420.07,196.07c0.26-0.43,0.36-0.69-0.57-0.66c-0.1,0-0.12,0.26-0.21,0.45C419.63,195.99,420,196.19,420.07,196.07z"/>
	<path d="M414.71,242.81c-0.65,0.03-1.14,1.28,0.76,0.78C415.51,243.05,415.2,242.79,414.71,242.81z"/>
	<path d="M414.04,209.56c-0.91,0.8-0.76,0.53-0.43,1.1C414.59,210.04,414.41,210.32,414.04,209.56z"/>
	<path d="M387.35,193.33c0,0.03-0.03,0.3-0.03,0.32C387.71,193.58,387.74,193.45,387.35,193.33z"/>
	<path d="M410.84,211.46c-0.07,0-0.15,0.12-0.22,0.18C411.43,212.12,411.55,211.46,410.84,211.46z"/>
	<path d="M390.6,193.41c-0.04-0.06-0.08-0.12-0.1-0.11C389.4,193.64,390.85,193.78,390.6,193.41z"/>
	<path d="M241.99,215.46c-2.21-1.96-1.78-4.18-2.05-7.49c-0.34-4.07-3.22-3.4-3.28-0.74c-0.01,0.41,0.65,9.97,6.56,11.6
		C243.28,217.42,243,216.35,241.99,215.46z"/>
	<path d="M244.13,206.07c-0.1-0.1,0.59-0.15-2.9,0.71c0.85,2.41,1.91,4.3,3.92,5.88c2.36,1.85,0.78-2.61,0.78-3.25
		C245.93,207.89,245.25,206.9,244.13,206.07z"/>
	<path d="M278.27,236.87c0,0.05-0.01,0.09-0.01,0.13C278.36,236.95,278.38,237.01,278.27,236.87z"/>
	<path d="M273.93,239.33c0.59,0.28,4.33-0.59,4.33-2.32C276.97,237.62,270.85,237.86,273.93,239.33z"/>
	<path d="M288.96,221.67c-1.6-0.37-2.89-0.21-4.21,0.78C287.12,223.06,287.71,223.19,288.96,221.67z"/>
	<path d="M278.4,236.9c1.65,0.41,2.98,0.16,3.92-1.25C280.69,234.96,279.42,235.49,278.4,236.9z"/>
	<path d="M278.27,236.87C278.38,237.01,278.46,236.92,278.27,236.87L278.27,236.87z"/>
	<path d="M282.36,235.6c-0.01,0.02-0.03,0.03-0.04,0.05C282.49,235.72,282.46,235.71,282.36,235.6z"/>
	<path d="M282.36,216.58c0.53-0.07,0.92,0.12-1.27-1.47C279.85,214.19,279.65,216.91,282.36,216.58z"/>
	<path d="M284.06,235.48c0.62-0.19,1.05-0.62,1.34-1.2C283.05,233.9,281.1,236.37,284.06,235.48z"/>
	<path d="M282.36,235.6C282.48,235.74,282.56,235.6,282.36,235.6L282.36,235.6z"/>
	<path d="M261.13,224.41c-0.02,0.42,0.21,0.85,0.45,1.2C263.33,222.13,261.18,223.25,261.13,224.41z"/>
	<path d="M262.51,220.85c-0.11,0.35,0.56,0.88,0.97,0.08C264.17,219.58,263.12,218.86,262.51,220.85z"/>
	<path d="M289.58,234.49c0.01-0.1-0.04-0.19-0.06-0.29C289.08,234.42,289.57,234.67,289.58,234.49z"/>
	<path d="M282.08,205.67c-0.2,0.35-0.18,0.18-0.05,0.56C282.23,205.91,282.22,206.01,282.08,205.67z"/>
	<path d="M317.84,32.79c-0.79-0.54-0.65,2.16,0.01,1.49C318.02,34.11,318.45,33.2,317.84,32.79z"/>
	<path d="M318.03,30.66c0-0.29-0.47-0.17-0.43,0.01C317.67,30.82,317.81,31.69,318.03,30.66z"/>
	<path d="M345,467.91c0.03,1.68,2.59,0.97,2.65-0.41c0.19-4.59,0.79-7.67-2.68-7.84C344.96,462.54,344.94,465.25,345,467.91z"/>
	<path d="M345.25,491.49c-1.76,0.39-0.24,5.71-1.96,9.74C345.18,504.85,348.36,495.79,345.25,491.49z"/>
	<path d="M332.62,414.59c-0.06-0.15-0.39-0.28-1.04-0.71c0.06,0.99,0.01,1.93,0.18,2.62c0.89,3.5,0.02,5.45-0.01,6.59
		c-0.02,0.64,0.9,1.24,1.45,0.9C337,421.67,333.72,417.17,332.62,414.59z"/>
	<path d="M345.81,420.67c2.43-0.41,3.13-2.84,3.15-5.29c0-0.43-0.55-0.87-1.16-1.77C345.53,417.26,345.81,418.78,345.81,420.67z"/>
	<path d="M308.86,507.77c-0.39,2.21,1.18,6.78,5.05,7.32C309.07,506.74,310.12,508.08,308.86,507.77z"/>
	<path d="M338.87,414.84c-1.45,0.3-2.71,6.28-0.13,5.7C339.96,418.37,340.14,414.58,338.87,414.84z"/>
	<path d="M320,518.46c-0.21,0.43-0.35,0.61-0.3,0.72c1.02,2.53,2.62,2.36,4.03,2.61c2.78,0.5,2.57,1.04,0.25-1.77
		C321.95,520.43,323.11,521,320,518.46z"/>
	<path d="M337.96,403.67c-1.07,4.92,1.66,3.79,1.4,1.31C339.17,403.1,337.98,403.57,337.96,403.67z"/>
	<path d="M344.02,489.08c0.72-2.77,0.25-2.41-0.53-3.46C341.09,488.75,343.87,489.66,344.02,489.08z"/>
	<path d="M323.02,332.8c-1.42-0.54-1.86-0.71-4.54-1.73C320.21,334.71,323.58,334.03,323.02,332.8z"/>
	<path d="M328.79,333.04c-1.51,0.92-1.62-0.09-3.22-0.04c-1.95,0.06-1.17,0.24-0.48,0.58c2.36,1.17,3.31,1.79,4.53-0.69
		C329.3,332.79,329.07,332.87,328.79,333.04z"/>
	<path d="M338.8,409.79c-2.99,0.67,1.07,5.93,0.85,1.52C339.63,410.81,339.36,409.67,338.8,409.79z"/>
	<path d="M338.57,401.46c0.26-1.44,0.14-2.49-0.98-3.66C336.39,401.12,337.64,402.04,338.57,401.46z"/>
	<path d="M323.57,337.05c-0.6-0.65-2.32-0.56-2.22-0.47c3.68,3.03,2.21,3.05,3.58,3.83C324.58,339.25,324.14,337.66,323.57,337.05z"
		/>
	<path d="M315.72,516.96c0.22,1.78,1.34,2.7,3.08,2.18C317.46,518.2,315.43,514.6,315.72,516.96z"/>
	<path d="M336.2,393.69c0.21,2.44,2.8,0.91,0.98-2.62C336.05,391.94,336.13,392.83,336.2,393.69z"/>
	<path d="M337.98,362.89c0.27,0.82,0.4,1.29,1.29,0.87c-0.02-0.1-0.46-2.46-0.51-2.77C337.91,362.18,337.79,362.32,337.98,362.89z"
		/>
	<path d="M329.05,314.52c-0.82,0.07-1.5,0.13-2.18,0.19C328.34,315.77,328.34,315.77,329.05,314.52z"/>
	<path d="M344.58,458.3c0.51-1-0.04-1.63-0.58-2.48c-0.26,0.12-0.51,0.23-0.77,0.35C343.54,457.01,343.48,457.99,344.58,458.3z"/>
	<path d="M342.38,454.23c0.03,0,0.06-0.02,0.09-0.04c1.26-0.71-1-1.76-0.48-1.61C341.12,452.33,341.29,454.23,342.38,454.23z"/>
	<path d="M338.86,367.88c-0.03,0.45,0.12,0.68,0.62,1.41C339.61,367.83,338.95,366.24,338.86,367.88z"/>
	<path d="M336.32,385.44c-0.59-0.11-0.72,0.41-0.72,0.84c0,0.26,0.25,0.51,0.55,1.07C336.39,386.93,337.45,385.64,336.32,385.44z"/>
	<path d="M331.02,410.95c-1.38,0.58-0.5,1.85,0.17,1.65C331.75,412.44,331.72,411.22,331.02,410.95z"/>
	<path d="M341.75,483c-0.16-0.17-0.7-0.83-0.83-0.83C340.08,481.7,339.71,484.87,341.75,483z"/>
	<path d="M321.42,315.46c0.31,0.09,0.77-1.14-0.52-1.02C320.16,314.51,320,315.04,321.42,315.46z"/>
	<path d="M337.78,478.58c0.05,1.14,0.35,0.76,0.96,0.42c-0.14-0.25-0.28-0.49-0.43-0.74C338.07,478.4,337.77,478.49,337.78,478.58z"
		/>
	<path d="M338.38,359.19c0.15-0.31,0.14-0.62-0.03-0.94C337.32,356.34,337.44,361.08,338.38,359.19z"/>
	<path d="M338.94,447.7c-0.18,0.84,0.55,0.48,1.15,0.33C339.67,447.61,339.11,446.88,338.94,447.7z"/>
	<path d="M333.25,335.34c0.04-0.35,0.14-0.23-0.52-0.51C332.69,335.34,332.53,335.23,333.25,335.34z"/>
	<path d="M328.47,338.56c-0.08,0.33-0.11,0.26,0.09,0.36C328.63,338.58,328.65,338.68,328.47,338.56z"/>
	<path d="M406.71,582.98c0.62,0.02,9.94,0.26,10.48-0.26c2.93-2.81-11.04-0.29-15.77-3.01c-0.21-0.13-7.84-1.04-8.62-1.12
		c-0.34-0.04-0.72,0.3-1.68,0.74C408.79,582.26,403.31,582.85,406.71,582.98z"/>
	<path d="M331.28,551.44c-5.45-2.82-7.35-4.96-7.83-3.6c-0.68,1.94,9.96,9.62,15.31,7.03C342.39,553.1,336.35,554.06,331.28,551.44z
		"/>
	<path d="M377.58,526.28c-1.98,0.45-2.42,2.58-0.91,2.85c1.71,0.31,4.87-0.98,5.46-2.57c0.7-1.86,2.16-3.62,2.92-5.66
		c-1.93-1.03-2,1.68-2.87,2.34C380.77,524.33,379.48,525.85,377.58,526.28z"/>
	<path d="M369.14,499.67c-0.24-1.65-0.25-1.67-1.62-2.41c-2.61-1.41-4.89-2.34-7.42-1.19C363,497.22,366.26,498.52,369.14,499.67z"
		/>
	<path d="M348.68,554.45c-1.37-0.37-2.87-0.4-4.48-1.48c0.15,1.18,0.07,1.71,0.28,1.9C347.29,557.39,352.49,555.5,348.68,554.45z"/>
	<path d="M380,516.68c0.31,0.08,0.73-0.33,1.41-0.67c-2.47-1.22-4.54-1.4-6.86,0.23C377.06,517.49,377.44,516.06,380,516.68z"/>
	<path d="M352.8,550.81c-1.89,0.06-2.65,2.4,1.23,1.92c1.14-0.14,1.85-0.37,2.46-1.58C355.76,551.05,354.27,550.76,352.8,550.81z"/>
	<path d="M358.67,549.02c-1.78,0.72,1.57,3.01,3.97-0.63C361.02,548.1,360.01,548.48,358.67,549.02z"/>
	<path d="M382.83,531.51c-0.11,0.56,0.67,0.92,0.78,0.86C392.2,527.23,383.23,529.48,382.83,531.51z"/>
	<path d="M387.56,529.33C387.39,529.18,387.3,529.29,387.56,529.33L387.56,529.33z"/>
	<path d="M417.18,537.47c-1.18-0.85-2.16-1.11-3.34-0.46C414.64,538.38,414.75,538.29,417.18,537.47z"/>
	<path d="M391.23,526.99c0.35,0.01,1.15-0.82,0.95-2.22C390.62,524.17,389.93,526.97,391.23,526.99z"/>
	<path d="M408.72,539.24c0.68-0.03,1.43-0.81-0.38-1.31C406.37,537.38,405.72,539.36,408.72,539.24z"/>
	<path d="M386.89,579.37c1.16,0.97,1.16,0.97,2.26,0.24C388.45,578.94,387.73,578.75,386.89,579.37z"/>
	<path d="M379.81,578.52c-0.83,0.42,1.19,1.56,1.32,0.6C381.19,578.69,380.52,578.17,379.81,578.52z"/>
	<path d="M387.6,529.1c-0.05,0.04-0.1,0.09-0.15,0.13C387.59,529.36,387.55,529.39,387.6,529.1z"/>
	<path d="M388.03,528.1c-0.33-0.24-0.36,0.48-0.43,1C388.34,528.45,388.5,528.43,388.03,528.1z"/>
	<path d="M402.73,540.32c-0.25-0.24-0.04-0.29-0.78-0.02C402.67,540.6,402.46,540.55,402.73,540.32z"/>
	<path d="M440.13,565.08c-0.03,1.13,1.48,0.89,3.68,1.62c7.94,2.65,11.04,7.89,11.57,5.58
		C456.17,568.85,440.23,560.86,440.13,565.08z"/>
	<path d="M471.58,530.03c-2.52-0.58-4.22-2.56-5.55-3.05c-1.16-0.43-2.07,1.07-0.33,2.52c3.86,3.25,4.27,1.27,6.85,3.99
		c0.98,1.04,1.84,2.29,3.87,2.88C475.86,533.3,472.97,530.35,471.58,530.03z"/>
	<path d="M463.87,565.27c0.28-0.04,0.68-0.96,0.78-0.95c-18.98-1.61-15.63-4.1-18.53-4.1C447.96,564.27,457.2,566.14,463.87,565.27z
		"/>
	<path d="M446.02,560.21c0.03,0.01,0.07,0.01,0.1,0.01C446.07,560.12,446.12,560.11,446.02,560.21z"/>
	<path d="M458.16,566.99c-8.55-0.2,0.37,4.26,15.04-1.12C469.37,564.14,469.19,567.23,458.16,566.99z"/>
	<path d="M459.66,545.64c0.8-0.7-0.91-0.6-2.21-5.44c-1.05-3.91-0.2-4.46-0.91-7.58c-0.14-0.61-1.31-0.49-1.4,0.8
		C454.68,539.99,457.34,547.68,459.66,545.64z"/>
	<path d="M470.25,537.81c-1.01,0.6-0.09,1.81-0.3,1.45c2.26,3.85,5.04,8.88,4.86,4.45C474.67,540.21,471.6,537.01,470.25,537.81z"/>
	<path d="M479.7,586.12c-0.66-0.02-1.14,0.19-2.9,0.66c1.94,0.9-0.49,0.78,12.65,1.11c0.27,0.01,0.54-0.26,1.08-0.53
		C489.43,586.65,491,586.46,479.7,586.12z"/>
	<path d="M458.01,532.02c1.2,2.36,2.77,6.39,3,9.48c0.02,0.19,0.45,0.36,0.72,0.56c0.72-2.37,0.79-2.9-0.17-5.46
		C458.11,527.39,456.91,529.85,458.01,532.02z"/>
	<path d="M479.7,560.93c3.4-1.48,7.94-4.79,9.59-7.55C485.91,554.57,481.69,557.8,479.7,560.93z"/>
	<path d="M449.05,545.71c2.73-9.41-0.81-9.28-0.97-7.82C447.91,539.57,447.34,544.98,449.05,545.71z"/>
	<path d="M501.61,569.09c-2.46,0.16-4.86,0.2-7.03,1.46c1.25,2.27,9.09-0.37,8.69-0.6C502.51,569.52,502.04,569.06,501.61,569.09z"
		/>
	<path d="M478.66,517.47c6.65,0,6.46-4.13-0.36-1.61C477.26,516.25,478.3,517.52,478.66,517.47z"/>
	<path d="M514.28,549.08c-1.69,1.78-0.95,2.14-0.08,3.48C515.47,550.28,515.35,550.29,514.28,549.08z"/>
	<path d="M515.82,543.02c-0.54-0.16-2.13,0.63-0.41,3.84C515.87,545.71,516.97,543.38,515.82,543.02z"/>
	<path d="M462.56,583.44c1.13,0.99,2.35,1.77,4.26,1.41C465.58,583.55,464.29,582.99,462.56,583.44z"/>
	<path d="M441.65,557.1c0.33,0.34,0.62,0.51,1.05,0.72C445.18,559.03,438.42,553.81,441.65,557.1z"/>
	<path d="M443.21,558.07c0.03,0.05,0.05,0.08,0.09,0.13C443.4,558.09,443.37,558.15,443.21,558.07z"/>
	<path d="M445.95,560.11c0.1,0-0.85-1.56-2.54-1.88C443.9,559.33,444.82,559.85,445.95,560.11z"/>
	<path d="M443.3,558.2c0.04,0.01,0.07,0.02,0.11,0.03C443.35,558.12,443.4,558.09,443.3,558.2z"/>
	<path d="M446.02,560.21l0.07-0.07C445.96,560.14,445.89,560.03,446.02,560.21z"/>
	<path d="M556.63,499.13c8.34,4.69,6.69,3.84,8.97,3.74c-1.7-2.17-4.73-6.41-7.46-6.62C555.84,496.07,555.13,498.29,556.63,499.13z"
		/>
	<path d="M552.43,495.17c1.23-0.87-0.54-3.03-2.21-1.96c-1.01,0.64-0.87,1.95-0.45,2.36C550.12,495.48,549.77,497.07,552.43,495.17z
		"/>
	<path d="M568.34,486.04c4.76,1.61,0.57-4.5-2.32-1.7C567.02,485.37,567.36,485.71,568.34,486.04z"/>
	<path d="M623.83,560.34c0.9,0.6,0.61,0.33,2.07-0.17c-2.75-2.86-3.02-3.29-3.5-3.31C621.1,556.79,622.73,559.61,623.83,560.34z"/>
	<path d="M556.51,472.13c-1.44-1.75-3.24-1.07-4.73-1.54c-0.09-0.03-0.28,0.26-0.43,0.4c1.49,1.12,3.23,1.9,4.3,1.84
		C555.9,472.82,556.12,472.46,556.51,472.13z"/>
	<path d="M539.53,502.56c-0.82,0.33-1.1,0.24-1.37,0.66C535.59,507.21,540.12,506.27,539.53,502.56z"/>
	<path d="M605.58,556.82c0.34,0.03,0.72-0.25,1.32-0.49c-1.2-1.56-1.21-1.78-1.74-1.76C603.96,554.6,604.08,556.68,605.58,556.82z"
		/>
	<path d="M565.66,505.43c1.44,0.69,2.01-0.41,1.5-1.07C565.71,502.49,563.6,504.45,565.66,505.43z"/>
	<path d="M534.06,507.85c-1.1,1.67,1.68,2.37,2.06-0.57C534.84,506.86,534.65,506.94,534.06,507.85z"/>
	<path d="M569.34,506.44c-0.54,0.22-0.69,0.79-0.24,1.22C570.54,509.01,571.11,505.74,569.34,506.44z"/>
	<path d="M610.73,563.56c3.85,0.63-0.71-4.49-0.39-0.06C610.36,563.5,610.73,563.56,610.73,563.56z"/>
	<path d="M600.09,549.18c0.22,0,0.43-0.35,0.82-0.68c-1.38-1.01-1.37-1.19-1.8-0.51C598.89,548.33,599.24,549.19,600.09,549.18z"/>
	<path d="M573.03,510.63c0.23,0.04,0.49-0.07,0.76-0.13c-0.12-0.28-0.2-0.61-0.25-0.6C572.45,510,572.93,510.61,573.03,510.63z"/>
	<path d="M601.7,551.27c0.71,0.22,0.66-0.45,0.72-0.34c-0.16-0.31-0.38-0.59-0.6-0.91c-0.27,0.25-0.5,0.38-0.55,0.49
		C601.19,550.69,601.32,551.15,601.7,551.27z"/>
	<path d="M562.49,482.93c-0.34-0.31-0.52-0.56-0.77-0.67c-0.11-0.05-0.5,0.18-0.5,0.26C561.33,483.65,561.64,483.29,562.49,482.93z"
		/>
	<path d="M536.55,468.32c-0.25-0.53-0.28-0.36-0.81-0.21c0.01,0.01-0.04-0.07,0.37,0.67C536.69,468.38,536.62,468.47,536.55,468.32z
		"/>
	<path d="M298.82,434.96c-0.62-0.31-8.26,8.16-5.06,14.1c3.12-3.01-0.06-3.91,3.19-7.64C301.57,436.14,300.71,436.18,298.82,434.96z
		"/>
	<path d="M303.7,440.37c-0.91-0.51-1.65-0.93-2.7-1.51c-2.73,5.07-1.25,8.89-0.42,7.75C304.1,441.75,303.16,443.26,303.7,440.37z"/>
	<path d="M301.61,484.01c0.42,1.31,2.71,2.59,4.52,1.59c-1.42-0.96-2.57-1.73-4.05-2.73C301.81,483.49,301.54,483.8,301.61,484.01z"
		/>
	<path d="M304.3,464.65c-2.46-0.28-1.73,2.49,0.2,0.67C304.91,464.93,304.63,464.69,304.3,464.65z"/>
	<path d="M306.2,463.78c1.2,0.57,1.31,0.51,1.84-0.89C307.16,462.65,306.58,463,306.2,463.78z"/>
	<path d="M340.68,308.25c-0.69-1.02-0.53-0.87-0.85-0.51c-0.38,0.43-0.09,0.61,0.14,1.13C340.2,308.68,340.42,308.49,340.68,308.25z
		"/>
	<path d="M340.34,305.26c-0.19-0.44-0.3,0-0.37,0.48C340.49,305.65,340.56,305.75,340.34,305.26z"/>
</g>
</svg>
